<?xml version="1.0" standalone="no"?>
<!DOCTYPE svg PUBLIC "-//W3C//DTD SVG 1.1//EN" "http://www.w3.org/Graphics/SVG/1.1/DTD/svg11.dtd" >
<svg xmlns="http://www.w3.org/2000/svg" xmlns:xlink="http://www.w3.org/1999/xlink" version="1.1">
<metadata>
Created by FontForge 20170731 at Sun Jul 25 14:59:50 2021
 By Aleksey,,,
Copyright (c) 2019 by Typesketchbook. All rights reserved.
</metadata>
<defs>
<font id="GroldRounded-Medium" horiz-adv-x="501" >
  <font-face 
    font-family="Grold Rounded Medium"
    font-weight="500"
    font-stretch="normal"
    units-per-em="2048"
    panose-1="2 0 0 0 0 0 0 0 0 0"
    ascent="1536"
    descent="-512"
    x-height="868"
    cap-height="1186"
    bbox="-96 -408 2308 1804"
    underline-thickness="71"
    underline-position="-294"
    unicode-range="U+000D-FB02"
  />
<missing-glyph horiz-adv-x="1286" 
d="M1122 0h-958v1434h958v-1434zM266 1341v-1249h754v1249h-754z" />
    <glyph glyph-name="fi" unicode="fi" horiz-adv-x="1275" 
d="M643 1260q17 0 30 -13t13 -30v-130q0 -18 -13.5 -31.5t-31.5 -13.5l-25 2q-41 0 -71 -14.5t-43.5 -35t-21.5 -41.5t-8 -35l-1 -15v-35h170q17 0 32 -14t15 -31v-129q0 -18 -14.5 -32.5t-32.5 -14.5h-170v-594q0 -20 -15.5 -36.5t-35.5 -16.5h-146q-20 0 -35.5 16.5
t-15.5 36.5v594h-123q-18 0 -32.5 14.5t-14.5 32.5v129q0 17 15 31t32 14h123v50q0 69 15 125.5t37.5 91.5t54 61.5t59 39t59.5 20t48.5 9t31.5 1.5q22 0 115 -6zM885 1081q0 59 41.5 100.5t99.5 41.5t99.5 -41.5t41.5 -100.5t-41.5 -100t-99.5 -41t-99.5 41t-41.5 100z
M901 53v762q0 20 15.5 36.5t35.5 16.5h146q20 0 35.5 -16.5t15.5 -36.5v-762q0 -20 -15.5 -36.5t-35.5 -16.5h-146q-20 0 -35.5 16.5t-15.5 36.5z" />
    <glyph glyph-name="fl" unicode="fl" horiz-adv-x="1275" 
d="M643 1260q17 0 30 -13t13 -30v-130q0 -18 -13.5 -31.5t-31.5 -13.5l-25 2q-41 0 -71 -14.5t-43.5 -35t-21.5 -41.5t-8 -35l-1 -15v-35h170q17 0 32 -14t15 -31v-129q0 -18 -14.5 -32.5t-32.5 -14.5h-170v-594q0 -20 -15.5 -36.5t-35.5 -16.5h-146q-20 0 -35.5 16.5
t-15.5 36.5v594h-123q-18 0 -32.5 14.5t-14.5 32.5v129q0 17 15 31t32 14h123v50q0 69 15 125.5t37.5 91.5t54 61.5t59 39t59.5 20t48.5 9t31.5 1.5q22 0 115 -6zM901 53v1121q0 20 15.5 36.5t35.5 16.5h146q20 0 35.5 -16.5t15.5 -36.5v-1121q0 -20 -15.5 -36.5
t-35.5 -16.5h-146q-20 0 -35.5 16.5t-15.5 36.5z" />
    <glyph glyph-name=".notdef" horiz-adv-x="1286" 
d="M1122 0h-958v1434h958v-1434zM266 1341v-1249h754v1249h-754z" />
    <glyph glyph-name=".null" horiz-adv-x="0" 
 />
    <glyph glyph-name="nonmarkingreturn" horiz-adv-x="682" 
 />
    <glyph glyph-name="CR" unicode="&#xd;" horiz-adv-x="634" 
 />
    <glyph glyph-name="CR" horiz-adv-x="634" 
 />
    <glyph glyph-name="space" unicode=" " horiz-adv-x="329" 
 />
    <glyph glyph-name="exclam" unicode="!" horiz-adv-x="536" 
d="M127 119q0 59 41.5 100t99.5 41q59 0 100.5 -41.5t41.5 -99.5q0 -59 -42 -100.5t-100 -41.5t-99.5 41.5t-41.5 100.5zM160 371l-17 762q0 20 16 36.5t36 16.5h145q20 0 35.5 -16.5t15.5 -36.5l-16 -762q0 -21 -15.5 -37.5t-35.5 -16.5h-113q-20 0 -35.5 16.5t-15.5 37.5z
" />
    <glyph glyph-name="quotedbl" unicode="&#x22;" horiz-adv-x="829" 
d="M139 762l-12 205v170q0 21 14 35t35 14h127q20 0 34.5 -14.5t14.5 -34.5v-170l-12 -205q0 -20 -14.5 -34.5t-34.5 -14.5h-103q-20 0 -34.5 14.5t-14.5 34.5zM489 762l-12 205v170q0 21 14 35t35 14h127q20 0 34.5 -14.5t14.5 -34.5v-170l-12 -205q0 -20 -14.5 -34.5
t-34.5 -14.5h-102q-20 0 -35 14.5t-15 34.5z" />
    <glyph glyph-name="numbersign" unicode="#" horiz-adv-x="1482" 
d="M694 743l-112 -311h200l113 311h-201zM272 961h252l72 198q15 27 47 27h143q22 0 36 -14.5t14 -36.5l-62 -174h201l74 198q15 27 47 27h143q22 0 35.5 -14.5t13.5 -36.5l-63 -174h84q17 0 32 -14.5t15 -31.5v-124q0 -19 -15 -33.5t-32 -14.5h-164l-113 -311h178
q17 0 32 -14t15 -31v-125q0 -18 -14.5 -32.5t-32.5 -14.5h-254l-67 -188q-15 -27 -47 -27h-148q-22 0 -35.5 14.5t-13.5 36.5l57 164h-200l-70 -188q-15 -27 -47 -27h-143q-22 0 -35.5 14.5t-13.5 36.5l59 164h-78q-17 0 -32 14t-15 31v125q0 18 14.5 32.5t32.5 14.5h156
l112 311h-170q-17 0 -32 14t-15 31v125q0 19 14.5 33.5t32.5 14.5z" />
    <glyph glyph-name="dollar" unicode="$" horiz-adv-x="1161" 
d="M442 -174v166q-199 39 -305 180q-10 17 -10 33q0 29 25 47l88 72q16 12 36 12q17 0 31 -14q48 -50 121.5 -86.5t161.5 -36.5q58 0 100.5 16t61 39t26.5 41.5t8 32.5q0 35 -28 62.5t-73.5 46t-104 39t-119 40t-119 51.5t-104 71t-73.5 100.5t-28 138.5q0 32 8 67t30 75.5
t55 74t88 62t124 40.5v162q0 20 16 36.5t36 16.5h145q20 0 35.5 -16.5t15.5 -36.5v-166q171 -37 271 -160q14 -14 14 -28q0 -28 -14 -35l-95 -70q-15 -12 -35 -12q-21 0 -36 18q-89 80 -250 80q-65 0 -112.5 -36t-47.5 -87q0 -42 28 -74t73.5 -50.5t104 -38.5t119 -36.5
t119 -46t104 -66t73.5 -98t28 -139.5q0 -43 -18.5 -90.5t-56 -96.5t-107.5 -87t-162 -53v-160q0 -20 -15.5 -36.5t-35.5 -16.5h-145q-20 0 -36 16.5t-16 36.5z" />
    <glyph glyph-name="percent" unicode="%" horiz-adv-x="1505" 
d="M1120 492q107 0 182.5 -74.5t75.5 -181.5t-75.5 -183t-182.5 -76t-182.5 76t-75.5 183t75.5 181.5t182.5 74.5zM1120 154q34 0 57 24t23 58q0 32 -23 55.5t-57 23.5t-58 -23.5t-24 -55.5q0 -34 24 -58t58 -24zM385 1186q107 0 182.5 -74.5t75.5 -181.5t-75.5 -182.5
t-182.5 -75.5t-182.5 75.5t-75.5 182.5t75.5 181.5t182.5 74.5zM385 848q34 0 57 24t23 58q0 33 -23.5 56.5t-56.5 23.5q-34 0 -58 -24t-24 -56q0 -34 24 -58t58 -24zM348 45l627 1114q12 27 37 27h127q19 0 32 -13t13 -32l-627 -1114q-15 -27 -37 -27h-127q-19 0 -32 13
t-13 32z" />
    <glyph glyph-name="ampersand" unicode="&#x26;" horiz-adv-x="1349" 
d="M793 285l-293 278q-58 -36 -91.5 -90t-33.5 -113q0 -68 51 -114.5t141 -46.5q67 0 127 23.5t99 62.5zM1065 18l-109 107q-65 -71 -172 -109.5t-217 -38.5q-35 0 -75 6t-92.5 19.5t-98.5 40.5t-86.5 65t-64 98t-23.5 134q0 69 25.5 136.5t65 117t74 83t64.5 52.5
q-47 45 -67.5 108.5t-20.5 112.5q0 20 1.5 39.5t9.5 54.5t22.5 64t43 62.5t67.5 56t100 38t137 15.5t138 -19t101 -48t68 -69t43 -74.5t22 -73.5t9.5 -57.5t1.5 -33.5q0 -20 -15 -35.5t-34 -15.5h-143q-19 0 -34 16.5t-15 36.5q0 68 -37.5 111t-104.5 43q-81 0 -110 -35
t-29 -94q0 -41 28 -80.5t90 -97.5t83 -82l213 -209q33 39 41 145q0 22 14.5 36.5t34.5 14.5h143q20 0 34.5 -14.5t14.5 -36.5q0 -91 -26 -177t-72 -148l217 -209q4 -16 4 -25q0 -22 -13.5 -35.5t-35.5 -13.5h-174q-23 0 -41 18z" />
    <glyph glyph-name="quotesingle" unicode="'" horiz-adv-x="479" 
d="M139 762l-12 205v170q0 21 14 35t35 14h127q20 0 34.5 -14.5t14.5 -34.5v-170l-12 -205q0 -20 -14.5 -34.5t-34.5 -14.5h-103q-20 0 -34.5 14.5t-14.5 34.5z" />
    <glyph glyph-name="parenleft" unicode="(" horiz-adv-x="638" 
d="M127 565q0 439 139 869q17 39 51 39h144q22 0 36.5 -15.5t14.5 -38.5q-137 -440 -137 -854q0 -209 32 -400t101 -413q0 -23 -14.5 -38t-36.5 -15h-142q-34 0 -51 39q-72 222 -104.5 415.5t-32.5 411.5z" />
    <glyph glyph-name="parenright" unicode=")" horiz-adv-x="638" 
d="M512 565q0 -218 -32.5 -411.5t-104.5 -415.5q-17 -39 -51 -39h-142q-22 0 -36.5 15t-14.5 38q69 222 101 413t32 400q0 414 -137 854q0 23 14.5 38.5t36.5 15.5h144q34 0 51 -39q139 -430 139 -869z" />
    <glyph glyph-name="asterisk" unicode="*" horiz-adv-x="925" 
d="M463 692l-82 -123q-21 -28 -49 -28q-13 0 -37 12l-64 49q-22 22 -22 47q0 19 14 37l99 117l-158 41q-37 13 -37 55q0 4 4 16l29 97q10 35 51 35q8 0 18 -5l150 -63l-17 164q0 19 11 31t28 12h123q18 0 28.5 -12t10.5 -31l-16 -164l149 63q10 5 19 5q41 0 51 -35l29 -97
q4 -12 4 -16q0 -42 -37 -55l-158 -41l98 -117q15 -19 15 -37q0 -24 -23 -47l-63 -49q-24 -12 -37 -12q-28 0 -49 28z" />
    <glyph glyph-name="plus" unicode="+" horiz-adv-x="845" 
d="M547 315v-147q0 -20 -15.5 -36.5t-35.5 -16.5h-146q-20 0 -35.5 16.5t-15.5 36.5v147h-133q-20 0 -34.5 14t-14.5 33v111q0 19 14.5 33t34.5 14h133v148q0 20 15.5 36.5t35.5 16.5h146q20 0 35.5 -16.5t15.5 -36.5v-148h133q20 0 34.5 -14t14.5 -33v-111q0 -19 -14.5 -33
t-34.5 -14h-133z" />
    <glyph glyph-name="comma" unicode="," horiz-adv-x="626" 
d="M500 188l-160 -319q-15 -27 -43 -27h-125q-21 0 -33 13t-12 36l129 316q5 11 17 20t24 9h156q21 0 34 -14t13 -34z" />
    <glyph glyph-name="hyphen" unicode="-" horiz-adv-x="845" 
d="M672 307h-498q-17 0 -32 14t-15 31v127q0 18 14.5 32.5t32.5 14.5h498q18 0 32.5 -14.5t14.5 -32.5v-127q0 -17 -15 -31t-32 -14z" />
    <glyph glyph-name="period" unicode="." horiz-adv-x="450" 
d="M86 117q0 57 41 98t98 41t98.5 -41t41.5 -98t-41.5 -98.5t-98.5 -41.5t-98 41.5t-41 98.5z" />
    <glyph glyph-name="slash" unicode="/" horiz-adv-x="1171" 
d="M127 -254l690 1700q3 13 14.5 20t24.5 7h141q19 0 33 -14.5t14 -33.5l-684 -1699q-10 -27 -41 -27h-145q-18 0 -32.5 14.5t-14.5 32.5z" />
    <glyph glyph-name="zero" unicode="0" horiz-adv-x="1224" 
d="M612 1206q102 0 186 -31.5t143 -87t99 -133t59 -168.5t19 -194q0 -130 -30.5 -240t-91 -194.5t-159 -132.5t-225.5 -48t-225.5 48t-159 132.5t-91 194.5t-30.5 240q0 103 19 194t59 168.5t99 133t143 87t186 31.5zM612 985q-254 0 -254 -393t254 -393t254 393t-254 393z
" />
    <glyph glyph-name="one" unicode="1" horiz-adv-x="696" 
d="M352 1186h166q20 0 35.5 -16.5t15.5 -36.5v-1080q0 -20 -15.5 -36.5t-35.5 -16.5h-145q-20 0 -35.5 16.5t-15.5 36.5v887l-238 -63q-23 0 -39 15t-16 38v133q0 40 37 51l233 64q32 8 53 8z" />
    <glyph glyph-name="two" unicode="2" horiz-adv-x="1011" 
d="M131 217q133 114 230 210t147.5 157.5t79.5 114t36 79t7 53.5q0 154 -152 154q-66 0 -103.5 -46.5t-37.5 -113.5q0 -20 -15 -33.5t-36 -13.5h-150q-21 0 -36 13.5t-15 33.5q0 15 1.5 33.5t9.5 58.5t21.5 75t42 76t67.5 70t101 48.5t138 19.5q81 0 146.5 -18.5t107.5 -46
t73 -66.5t46.5 -74t25 -74t11.5 -61t2 -41q0 -49 -17.5 -102.5t-39.5 -97.5t-65 -99t-71.5 -88.5t-81.5 -85.5t-73.5 -70t-67.5 -61h375q17 0 32 -14t15 -31v-129q0 -18 -14.5 -32.5t-32.5 -14.5h-670q-20 0 -35.5 16.5t-15.5 36.5v133q0 17 14 31z" />
    <glyph glyph-name="three" unicode="3" horiz-adv-x="1003" 
d="M487 498h-51q-15 0 -28 12t-13 27v108q0 17 12.5 29t28.5 12h51q13 0 26.5 1.5t35.5 10t38.5 23t29 43t12.5 67.5q0 154 -152 154q-65 0 -99 -46t-34 -114q0 -20 -15 -33.5t-36 -13.5h-156q-21 0 -36 13.5t-15 33.5q0 16 1 34t9 58t21.5 75t42 76t67 70t100.5 48.5
t138 19.5q81 0 146.5 -18.5t107.5 -46t73 -66.5t46.5 -74t25 -74t11.5 -61t2 -41q0 -7 -1 -19t-9 -45.5t-22.5 -62t-46.5 -59t-75 -47.5q43 -15 75 -44.5t46.5 -61t22.5 -61t9 -48.5l1 -19q0 -19 -2 -41t-11.5 -61t-25 -74t-46.5 -74t-73 -66.5t-107.5 -46t-146.5 -18.5
q-76 0 -138 19.5t-100.5 48.5t-67 70t-42 76t-21.5 75t-9 58t-1 34q0 20 15 34t36 14h156q21 0 36 -14t15 -34q0 -68 34 -113.5t99 -45.5q152 0 152 153q0 39 -12.5 67.5t-29 43t-38.5 23t-35.5 10.5t-26.5 2z" />
    <glyph glyph-name="four" unicode="4" horiz-adv-x="995" 
d="M297 442h278v408zM47 471l473 694q18 21 39 21h211q20 0 35.5 -16.5t15.5 -36.5v-691h82q18 0 32.5 -14.5t14.5 -32.5v-129q0 -17 -15 -31t-32 -14h-82v-168q0 -20 -15.5 -36.5t-35.5 -16.5h-143q-20 0 -36 16.5t-16 36.5v168h-489q-17 0 -32 14t-15 31v180q0 14 8 25z
" />
    <glyph glyph-name="five" unicode="5" horiz-adv-x="1011" 
d="M344 297q61 -98 158 -98q75 0 121.5 47.5t46.5 122.5q0 27 -7 54t-24 58t-54.5 50.5t-90.5 19.5q-41 0 -76 -14q-22 -11 -47 -11l-181 21q-26 3 -43.5 21.5t-17.5 43.5v521q0 20 15.5 36.5t35.5 16.5h582q18 0 32.5 -14.5t14.5 -32.5v-129q0 -17 -15 -31t-32 -14h-387
v-234q8 5 32 13.5t67 18t81 9.5q22 0 48 -3.5t63 -15t71.5 -30t69.5 -52t60.5 -76.5t42 -108t16.5 -143q0 -8 -1 -21t-9.5 -51t-23 -73t-46.5 -77t-75 -72.5t-113.5 -51.5t-157.5 -21q-89 0 -160 21.5t-113.5 52.5t-74 74t-45 77.5t-21.5 71.5q0 21 16 37.5t37 16.5h158
q30 0 47 -31z" />
    <glyph glyph-name="six" unicode="6" horiz-adv-x="1056" 
d="M528 199q86 0 143.5 54t57.5 138q0 80 -58.5 136.5t-142.5 56.5t-142 -56.5t-58 -136.5q0 -84 57 -138t143 -54zM729 1141l-211 -344q125 -5 229 -62.5t164 -151.5t60 -202q0 -166 -130 -285t-313 -119q-184 0 -313 119t-129 285q0 132 86 270l315 510q14 25 43 25h150
q20 0 33 -12.5t16 -32.5z" />
    <glyph glyph-name="seven" unicode="7" horiz-adv-x="847" 
d="M815 971l-360 -936q-14 -35 -49 -35h-158q-22 0 -36.5 15.5t-14.5 37.5l352 914h-473q-17 0 -32 14t-15 31v127q0 18 14.5 32.5t32.5 14.5h696q18 0 32.5 -14.5t14.5 -32.5v-152q0 -8 -4 -16z" />
    <glyph glyph-name="eight" unicode="8" horiz-adv-x="1118" 
d="M559 1206q190 0 296 -95.5t106 -242.5q0 -155 -140 -241q87 -35 139 -113.5t52 -169.5q0 -93 -35.5 -164.5t-98 -115t-143 -65.5t-176.5 -22t-176.5 22t-143 65.5t-98 115t-35.5 164.5q0 91 52 169.5t139 113.5q-139 86 -139 241q0 147 105.5 242.5t295.5 95.5zM559 199
q91 0 150 41.5t59 124.5q0 82 -59 124.5t-150 42.5t-150 -42.5t-59 -124.5q0 -83 59 -124.5t150 -41.5zM559 985q-67 0 -113.5 -38.5t-46.5 -94.5t46.5 -94.5t113.5 -38.5t113.5 38.5t46.5 94.5t-46.5 94.5t-113.5 38.5z" />
    <glyph glyph-name="nine" unicode="9" horiz-adv-x="1056" 
d="M528 985q-86 0 -143 -54t-57 -138q0 -80 58 -136.5t142 -56.5t142.5 56.5t58.5 136.5q0 84 -57.5 138t-143.5 54zM328 45l211 342q-125 5 -229 62.5t-164 151.5t-60 202q0 166 129.5 284.5t312.5 118.5q184 0 313.5 -118.5t129.5 -284.5q0 -133 -86 -271l-316 -507
q-14 -25 -43 -25h-149q-20 0 -33 12.5t-16 32.5z" />
    <glyph glyph-name="colon" unicode=":" horiz-adv-x="534" 
d="M127 117q0 57 41 98t98 41q58 0 100 -41t42 -98t-42 -98.5t-100 -41.5q-57 0 -98 41.5t-41 98.5zM127 672q0 58 41 99.5t98 41.5q59 0 100.5 -41.5t41.5 -99.5q0 -57 -42 -98.5t-100 -41.5q-57 0 -98 41.5t-41 98.5z" />
    <glyph glyph-name="semicolon" unicode=";" horiz-adv-x="671" 
d="M264 672q0 58 41 99.5t98 41.5q59 0 100.5 -41.5t41.5 -99.5q0 -57 -42 -98.5t-100 -41.5q-57 0 -98 41.5t-41 98.5zM500 188l-160 -319q-15 -27 -43 -27h-125q-21 0 -33 13t-12 36l129 316q5 11 17 20t24 9h156q21 0 34 -14t13 -34z" />
    <glyph glyph-name="less" unicode="&#x3c;" horiz-adv-x="813" 
d="M631 109l-465 194q-39 20 -39 57v177q0 37 39 57l465 194q24 0 39.5 -15.5t15.5 -39.5v-117q0 -36 -33 -49l-305 -118l305 -119q33 -13 33 -49v-117q0 -24 -15.5 -39.5t-39.5 -15.5z" />
    <glyph glyph-name="equal" unicode="=" horiz-adv-x="845" 
d="M672 514h-498q-17 0 -32 14t-15 31v127q0 18 14.5 32.5t32.5 14.5h498q18 0 32.5 -14.5t14.5 -32.5v-127q0 -17 -15 -31t-32 -14zM672 92h-498q-17 0 -32 14t-15 31v127q0 18 14.5 32.5t32.5 14.5h498q18 0 32.5 -14.5t14.5 -32.5v-127q0 -17 -15 -31t-32 -14z" />
    <glyph glyph-name="greater" unicode="&#x3e;" horiz-adv-x="813" 
d="M647 303l-465 -194q-24 0 -39.5 15.5t-15.5 39.5v117q0 36 33 49l305 119l-305 118q-33 13 -33 49v117q0 24 15.5 39.5t39.5 15.5l465 -194q39 -20 39 -57v-177q0 -37 -39 -57z" />
    <glyph glyph-name="question" unicode="?" horiz-adv-x="1036" 
d="M383 141q0 59 41.5 100.5t99.5 41.5t100 -41.5t42 -100.5q0 -58 -41.5 -99.5t-100.5 -41.5q-58 0 -99.5 41t-41.5 100zM659 385q-23 -27 -45 -27h-149q-20 0 -35.5 16.5t-15.5 37.5q18 47 60 103t80.5 98t71 101t36.5 117q0 154 -152 154q-65 0 -98 -46t-33 -114
q0 -20 -15 -33.5t-36 -13.5h-150q-22 0 -36.5 14.5t-14.5 34.5q0 18 1 35.5t8.5 58.5t20.5 74.5t40.5 74.5t65.5 69t98.5 47.5t136.5 19.5q81 0 146.5 -18.5t107 -46t73 -66.5t47 -74t24.5 -74.5t11 -61t2 -40.5q0 -62 -28 -123.5t-63.5 -105t-84 -104.5t-74.5 -107z" />
    <glyph glyph-name="at" unicode="@" horiz-adv-x="1875" 
d="M1167 -129q19 0 31 -13t12 -32v-111q0 -19 -11 -28.5t-34 -14.5q-115 -32 -225 -32q-166 0 -316.5 62t-259.5 167.5t-173 251t-64 305.5q0 158 64 302t172.5 249t259.5 167t317 62q218 0 404.5 -105t295.5 -285t109 -390q0 -12 -0.5 -27.5t-7 -56.5t-18 -76.5t-36.5 -79
t-58.5 -74.5t-88 -52t-121.5 -21q-8 0 -21 1t-48.5 8t-67 20t-66.5 41.5t-55 66.5q-62 -75 -124 -106t-142 -31q-157 0 -267 113t-110 274q0 157 110.5 269t266.5 112q109 0 205 -57q3 16 15 27t30 11h133q19 0 32 -13.5t13 -33.5v-350q11 -166 90 -166q37 0 63.5 20
t39.5 52t18.5 64t5.5 65q-1 161 -79.5 296.5t-216 214.5t-304.5 79q-169 0 -307.5 -80t-216.5 -216.5t-78 -299.5q0 -161 78 -297.5t217 -216.5t307 -80q110 0 227 45zM913 242q70 0 121 54.5t51 129.5q0 72 -51 125t-121 53q-71 0 -121.5 -52.5t-50.5 -125.5
q0 -75 50 -129.5t122 -54.5z" />
    <glyph glyph-name="A" unicode="A" horiz-adv-x="1218" 
d="M774 1155l404 -1102q0 -20 -17 -36.5t-37 -16.5h-163q-15 0 -28.5 10t-17.5 25l-59 168h-494l-59 -168q-4 -15 -17.5 -25t-27.5 -10h-164q-20 0 -36.5 16.5t-16.5 36.5l403 1102q5 12 20 21.5t34 9.5h223q35 0 53 -31zM440 424h338l-170 481z" />
    <glyph glyph-name="B" unicode="B" horiz-adv-x="1140" 
d="M375 221h260q82 0 125 31t43 106q0 77 -43 108.5t-125 31.5h-260v-277zM754 840q0 34 -13.5 60t-33 37.5t-38.5 18.5t-33 8l-13 1h-248v-248h248q5 0 14 0.5t31.5 7.5t40 18.5t31.5 37t14 59.5zM178 1186h453q14 0 34.5 -1.5t57.5 -9t72 -19.5t73.5 -35.5t67 -54.5
t47 -79.5t18.5 -107.5q0 -65 -16 -114t-43 -78t-53.5 -44.5t-57.5 -24.5q19 -6 36.5 -13t55 -30.5t63.5 -51.5t47.5 -77.5t21.5 -107.5q0 -338 -475 -338h-402q-20 0 -35.5 16.5t-15.5 36.5v1080q0 20 15.5 36.5t35.5 16.5z" />
    <glyph glyph-name="C" unicode="C" horiz-adv-x="1398" 
d="M739 -23q-173 0 -319 82.5t-230 224t-84 308.5q0 125 50 239t134.5 196t201.5 130.5t247 48.5q200 0 360 -108.5t230 -282.5q-3 -20 -18 -33.5t-35 -13.5h-166q-30 0 -43 27q-50 88 -137 139t-191 51q-160 0 -270.5 -113.5t-110.5 -279.5q0 -162 111 -277.5t270 -115.5
q104 0 191 51t137 139q13 27 43 27h166q20 0 35 -13.5t18 -33.5q-70 -175 -230.5 -283.5t-359.5 -108.5z" />
    <glyph glyph-name="D" unicode="D" horiz-adv-x="1269" 
d="M178 1186h412q173 0 309 -78t210.5 -213t74.5 -303t-74.5 -302.5t-210.5 -212t-309 -77.5h-412q-20 0 -35.5 16.5t-15.5 36.5v1080q0 20 15.5 36.5t35.5 16.5zM590 965h-215v-744h215q157 0 248.5 102.5t91.5 268.5t-91.5 269.5t-248.5 103.5z" />
    <glyph glyph-name="E" unicode="E" horiz-adv-x="1036" 
d="M375 219h520q17 0 32 -14t15 -31v-127q0 -18 -14.5 -32.5t-32.5 -14.5h-717q-20 0 -35.5 16.5t-15.5 36.5v1080q0 20 15.5 36.5t35.5 16.5h717q18 0 32.5 -14.5t14.5 -32.5v-129q0 -17 -15 -31t-32 -14h-520v-273h475q18 0 32.5 -14.5t14.5 -32.5v-129q0 -17 -15 -31
t-32 -14h-475v-252z" />
    <glyph glyph-name="F" unicode="F" horiz-adv-x="1028" 
d="M850 426h-475v-373q0 -20 -15.5 -36.5t-35.5 -16.5h-146q-20 0 -35.5 16.5t-15.5 36.5v1080q0 20 15.5 36.5t35.5 16.5h717q18 0 32.5 -14.5t14.5 -32.5v-129q0 -17 -15 -31t-32 -14h-520v-318h475q18 0 32.5 -14.5t14.5 -32.5v-129q0 -17 -15 -31t-32 -14z" />
    <glyph glyph-name="G" unicode="G" horiz-adv-x="1425" 
d="M1075 463h-221q-19 0 -34 14t-15 33v119q0 19 15 33t34 14h428q19 0 34 -14t15 -33v-154q-15 -102 -53.5 -184t-84.5 -133t-108 -88t-110.5 -54t-106 -27t-80.5 -11t-47 -1q-130 0 -247.5 48.5t-202.5 131t-135 196.5t-50 239q0 126 49 239t133 195.5t202.5 131
t250.5 48.5q101 0 189.5 -23t151.5 -62t103 -74t72 -74q17 -21 17 -39q0 -24 -21 -41l-100 -70q-18 -12 -29 -12q-16 0 -30 14q-61 80 -153 120t-200 40q-161 0 -272 -113.5t-111 -279.5q0 -162 111.5 -277.5t271.5 -115.5q66 0 120 14.5t87.5 38t59 51.5t37.5 56t19.5 51.5
t9.5 37.5z" />
    <glyph glyph-name="H" unicode="H" horiz-adv-x="1232" 
d="M858 53v371h-483v-371q0 -20 -15.5 -36.5t-35.5 -16.5h-146q-20 0 -35.5 16.5t-15.5 36.5v1080q0 20 15.5 36.5t35.5 16.5h146q20 0 35.5 -16.5t15.5 -36.5v-488h483v488q0 20 15.5 36.5t35.5 16.5h146q20 0 35.5 -16.5t15.5 -36.5v-1080q0 -20 -15.5 -36.5t-35.5 -16.5
h-146q-20 0 -35.5 16.5t-15.5 36.5z" />
    <glyph glyph-name="I" unicode="I" 
d="M127 53v1080q0 20 15.5 36.5t35.5 16.5h146q20 0 35.5 -16.5t15.5 -36.5v-1080q0 -20 -15.5 -36.5t-35.5 -16.5h-146q-20 0 -35.5 16.5t-15.5 36.5z" />
    <glyph glyph-name="J" unicode="J" horiz-adv-x="919" 
d="M33 135q-8 16 -8 31q0 37 24 47l98 61q18 9 27 9q17 0 43 -15q80 -69 170 -69q44 0 78.5 17t53 41.5t27.5 46t9 36.5v793q0 20 15.5 36.5t35.5 16.5h146q20 0 35.5 -16.5t15.5 -36.5v-818q0 -140 -121 -239t-307 -99q-206 0 -342 158z" />
    <glyph glyph-name="K" unicode="K" horiz-adv-x="1105" 
d="M608 610l484 -553q0 -23 -16.5 -40t-39.5 -17h-198q-28 0 -54 37l-409 461v-445q0 -20 -15.5 -36.5t-35.5 -16.5h-146q-20 0 -35.5 16.5t-15.5 36.5v1080q0 20 15.5 36.5t35.5 16.5h146q20 0 35.5 -16.5t15.5 -36.5v-422l354 438q26 37 53 37h199q23 0 39 -17t16 -41z
" />
    <glyph glyph-name="L" unicode="L" horiz-adv-x="997" 
d="M127 53v1080q0 20 15.5 36.5t35.5 16.5h146q20 0 35.5 -16.5t15.5 -36.5v-912h520q17 0 32 -14t15 -31v-129q0 -18 -14.5 -32.5t-32.5 -14.5h-717q-20 0 -35.5 16.5t-15.5 36.5z" />
    <glyph glyph-name="M" unicode="M" horiz-adv-x="1515" 
d="M770 184h-25q-17 0 -30 17l-340 526v-674q0 -20 -15.5 -36.5t-35.5 -16.5h-146q-20 0 -35.5 16.5t-15.5 36.5v1080q0 20 15.5 36.5t35.5 16.5h176q23 0 41 -25l363 -569l362 569q18 25 41 25h176q20 0 36 -16.5t16 -36.5v-1080q0 -20 -16 -36.5t-36 -16.5h-145
q-20 0 -35.5 16.5t-15.5 36.5v674l-340 -526q-13 -17 -31 -17z" />
    <glyph glyph-name="N" unicode="N" horiz-adv-x="1298" 
d="M922 25l-547 725v-697q0 -20 -15.5 -36.5t-35.5 -16.5h-146q-20 0 -35.5 16.5t-15.5 36.5v1080q0 20 15.5 36.5t35.5 16.5h158q23 0 41 -25l547 -725v697q0 20 15.5 36.5t35.5 16.5h145q20 0 35.5 -16.5t15.5 -36.5v-1080q0 -20 -15.5 -36.5t-35.5 -16.5h-157
q-23 0 -41 25z" />
    <glyph glyph-name="O" unicode="O" horiz-adv-x="1478" 
d="M739 1206q130 0 247 -48.5t201.5 -130.5t134.5 -196t50 -239q0 -167 -84 -308.5t-230 -224t-319 -82.5t-319 82.5t-230 224t-84 308.5q0 125 50 239t134.5 196t201.5 130.5t247 48.5zM739 199q159 0 270 115.5t111 277.5q0 166 -110.5 279.5t-270.5 113.5t-270.5 -113.5
t-110.5 -279.5q0 -162 111 -277.5t270 -115.5z" />
    <glyph glyph-name="P" unicode="P" horiz-adv-x="1099" 
d="M788 762q0 107 -53 156t-143 49h-217v-408h217q90 0 143 48.5t53 154.5zM178 1186h420q10 0 26 -1t63.5 -10t91 -23.5t96 -46.5t90.5 -75t64 -112.5t26 -155.5q0 -67 -15.5 -124.5t-42 -97.5t-61 -73t-72.5 -53t-75.5 -35.5t-72 -22.5t-61 -11t-41.5 -5h-16h-223v-287
q0 -20 -15.5 -36.5t-35.5 -16.5h-146q-20 0 -35.5 16.5t-15.5 36.5v1080q0 20 15.5 36.5t35.5 16.5z" />
    <glyph glyph-name="Q" unicode="Q" horiz-adv-x="1478" 
d="M739 199q159 0 270 115.5t111 277.5q0 166 -110.5 279.5t-270.5 113.5t-270.5 -113.5t-110.5 -279.5q0 -162 111 -277.5t270 -115.5zM862 -199l-102 176h-21q-173 0 -319 82.5t-230 224t-84 308.5q0 125 50 239t134.5 196t201.5 130.5t247 48.5t247 -48.5t201.5 -130.5
t134.5 -196t50 -239q0 -192 -109 -347t-286 -225l113 -202q0 -20 -13 -33.5t-33 -13.5h-139q-24 0 -43 30z" />
    <glyph glyph-name="R" unicode="R" horiz-adv-x="1095" 
d="M795 16l-265 324h-155v-287q0 -20 -15.5 -36.5t-35.5 -16.5h-146q-20 0 -35.5 16.5t-15.5 36.5v1080q0 20 15.5 36.5t35.5 16.5h420q10 0 26 -1t63.5 -10t91 -23.5t96 -46.5t90.5 -75t64 -112.5t26 -155.5q0 -69 -16.5 -127.5t-43 -99t-64 -73.5t-74 -52.5t-77.5 -34.5
l258 -326q0 -22 -13 -35.5t-36 -13.5h-158q-23 0 -36 16zM788 762q0 107 -53 156t-143 49h-217v-408h217q90 0 143 48.5t53 154.5z" />
    <glyph glyph-name="S" unicode="S" horiz-adv-x="1067" 
d="M84 172q-10 17 -10 33q0 30 24 47l88 72q16 12 37 12q17 0 31 -14q48 -50 121.5 -86.5t161.5 -36.5q58 0 100.5 16t61 39t26.5 41.5t8 32.5q0 35 -28 62.5t-73.5 46t-104 39t-119 40t-119 51.5t-104 71t-73.5 100.5t-28 138.5q0 38 11 78t41 86t75 82t121.5 59.5
t173.5 23.5q80 0 149.5 -17t117.5 -45.5t79.5 -55t54.5 -56.5q15 -15 15 -28q0 -28 -15 -35l-94 -70q-15 -12 -35 -12q-22 0 -37 18q-89 80 -249 80q-65 0 -112.5 -36t-47.5 -87q0 -42 28 -74t73.5 -50.5t104 -38.5t119 -36.5t119 -46t104 -66t73.5 -98t28 -139.5
q0 -38 -14 -80.5t-48 -89t-84 -83t-130.5 -60t-178.5 -23.5q-289 0 -442 195z" />
    <glyph glyph-name="T" unicode="T" horiz-adv-x="1136" 
d="M444 53v914h-321q-17 0 -32 14t-15 31v127q0 18 14.5 32.5t32.5 14.5h891q18 0 32.5 -14.5t14.5 -32.5v-127q0 -17 -15 -31t-32 -14h-322v-914q0 -20 -15.5 -36.5t-35.5 -16.5h-145q-20 0 -36 16.5t-16 36.5z" />
    <glyph glyph-name="U" unicode="U" horiz-adv-x="1216" 
d="M608 -23q-10 0 -28 1t-69 10.5t-97.5 26t-103.5 52t-98 83.5t-69 126t-28 175v682q0 20 15.5 36.5t35.5 16.5h145q20 0 35.5 -16.5t15.5 -36.5v-672q0 -5 0.5 -14.5t5.5 -37t13.5 -52t27 -55t43.5 -52t65.5 -36.5t90.5 -15t90.5 14.5t65.5 37.5t43.5 51t27 56t13.5 51
t6 37v15v672q0 20 15.5 36.5t35.5 16.5h146q20 0 35.5 -16.5t15.5 -36.5v-682q0 -76 -17 -140.5t-45.5 -110t-65.5 -82.5t-78 -59.5t-82 -39.5t-78 -24.5t-65.5 -12t-45.5 -4.5z" />
    <glyph glyph-name="V" unicode="V" horiz-adv-x="1216" 
d="M721 0h-225q-18 0 -32.5 9.5t-19.5 21.5l-403 1102q0 20 15.5 36.5t35.5 16.5h164q33 0 47 -35l305 -870l305 870q6 15 19.5 25t28.5 10h163q20 0 36 -16.5t16 -36.5l-404 -1102q-5 -12 -19.5 -21.5t-31.5 -9.5z" />
    <glyph glyph-name="W" unicode="W" horiz-adv-x="1757" 
d="M803 1186h151q37 0 50 -37l237 -895l225 899q15 33 45 33h158q19 0 34 -15.5t15 -35.5l-280 -1096q-20 -39 -62 -39h-252q-42 0 -61 39l-184 704l-185 -704q-20 -39 -61 -39h-252q-21 0 -37.5 11.5t-24.5 27.5l-280 1096q0 20 15 35.5t34 15.5h158q30 0 45 -33l225 -899
l238 895q13 37 49 37z" />
    <glyph glyph-name="X" unicode="X" horiz-adv-x="1060" 
d="M530 375l-223 -340q-23 -35 -47 -35h-168q-20 0 -35.5 16.5t-15.5 36.5l352 537l-352 543q0 20 15.5 36.5t35.5 16.5h164q24 0 47 -35l227 -346l228 346q23 35 47 35h164q20 0 35.5 -16.5t15.5 -36.5l-352 -543l352 -537q0 -20 -15.5 -36.5t-35.5 -16.5h-168
q-24 0 -47 35z" />
    <glyph glyph-name="Y" unicode="Y" horiz-adv-x="1118" 
d="M684 399v-346q0 -20 -15.5 -36.5t-35.5 -16.5h-146q-20 0 -35.5 16.5t-15.5 36.5v346l-395 736q0 20 14.5 35.5t34.5 15.5h156q27 0 45 -33l268 -504l268 504q18 33 45 33h156q20 0 34.5 -15.5t14.5 -35.5z" />
    <glyph glyph-name="Z" unicode="Z" horiz-adv-x="1054" 
d="M86 227l561 740h-504q-17 0 -32 14t-15 31v127q0 18 14.5 32.5t32.5 14.5h768q18 0 32.5 -14.5t14.5 -32.5v-154q0 -14 -10 -27l-559 -739h543q17 0 32 -14t15 -31v-127q0 -18 -14.5 -32.5t-32.5 -14.5h-809q-18 0 -32.5 14.5t-14.5 32.5v154q0 13 10 26z" />
    <glyph glyph-name="bracketleft" unicode="[" horiz-adv-x="802" 
d="M127 -248v1667q0 21 15.5 37.5t35.5 16.5h451q17 0 32 -14.5t15 -33.5v-129q0 -17 -15 -31t-32 -14h-254v-1331h254q17 0 32 -14t15 -31v-129q0 -18 -14.5 -32.5t-32.5 -14.5h-451q-20 0 -35.5 16.5t-15.5 36.5z" />
    <glyph glyph-name="backslash" unicode="\" horiz-adv-x="1171" 
d="M354 1446l690 -1700q0 -18 -14.5 -32.5t-32.5 -14.5h-145q-31 0 -41 27l-684 1699q0 19 14 33.5t33 14.5h141q13 0 24.5 -7t14.5 -20z" />
    <glyph glyph-name="bracketright" unicode="]" horiz-adv-x="802" 
d="M676 1419v-1667q0 -20 -15.5 -36.5t-35.5 -16.5h-451q-18 0 -32.5 14.5t-14.5 32.5v129q0 17 15 31t32 14h254v1331h-254q-17 0 -32 14t-15 31v129q0 19 14.5 33.5t32.5 14.5h451q20 0 35.5 -16.5t15.5 -37.5z" />
    <glyph glyph-name="asciicircum" unicode="^" horiz-adv-x="825" 
d="M305 1186h215q34 0 55 -41l123 -260q0 -25 -18.5 -44.5t-42.5 -19.5h-115q-18 0 -33.5 10t-21.5 27l-55 117l-54 -117q-6 -17 -21.5 -27t-33.5 -10h-113q-26 0 -44.5 19.5t-18.5 44.5l123 260q20 41 55 41z" />
    <glyph glyph-name="underscore" unicode="_" horiz-adv-x="845" 
d="M672 -303h-498q-17 0 -32 14t-15 31v127q0 18 14.5 32.5t32.5 14.5h498q18 0 32.5 -14.5t14.5 -32.5v-127q0 -17 -15 -31t-32 -14z" />
    <glyph glyph-name="grave" unicode="`" horiz-adv-x="604" 
d="M252 938l-125 197q0 21 15 36t38 15h152q13 0 27 -9.5t20 -21.5l98 -192q0 -22 -15 -38t-38 -16h-127q-27 0 -45 29z" />
    <glyph glyph-name="a" unicode="a" horiz-adv-x="1187" 
d="M813 53v33q-33 -37 -72.5 -61t-82 -33.5t-70 -12t-64.5 -2.5q-183 0 -310.5 134t-127.5 323t127.5 323t310.5 134q37 0 64.5 -2.5t70 -12t82 -33.5t72.5 -61v33q0 20 15.5 36.5t35.5 16.5h146q20 0 35.5 -16.5t15.5 -36.5v-762q0 -20 -15.5 -36.5t-35.5 -16.5h-146
q-20 0 -35.5 16.5t-15.5 36.5zM571 199q103 0 172.5 66.5t69.5 168.5v10q-4 98 -73 162t-169 64q-101 0 -169 -67t-68 -169t68 -168.5t169 -66.5z" />
    <glyph glyph-name="b" unicode="b" horiz-adv-x="1187" 
d="M375 86v-33q0 -20 -15.5 -36.5t-35.5 -16.5h-146q-20 0 -35.5 16.5t-15.5 36.5v1121q0 20 15.5 36.5t35.5 16.5h146q20 0 35.5 -16.5t15.5 -36.5v-392q33 37 72.5 61t82 33.5t70 12t64.5 2.5q183 0 310.5 -134t127.5 -323t-127.5 -323t-310.5 -134q-37 0 -64.5 2.5
t-70 12t-82 33.5t-72.5 61zM616 199q101 0 169.5 66.5t68.5 168.5t-68.5 169t-169.5 67q-100 0 -168.5 -64t-72.5 -162v-10q0 -102 69 -168.5t172 -66.5z" />
    <glyph glyph-name="c" unicode="c" horiz-adv-x="1067" 
d="M561 -23q-196 0 -335.5 134t-139.5 323t139.5 323t335.5 134q147 0 267 -81t173 -212q-3 -21 -18.5 -35t-36.5 -14h-164q-30 0 -43 26q-62 95 -182 95q-96 0 -161.5 -67.5t-65.5 -168.5t65.5 -168t161.5 -67q121 0 182 94q13 26 43 26h164q21 0 36.5 -14t18.5 -35
q-53 -131 -173 -212t-267 -81z" />
    <glyph glyph-name="d" unicode="d" horiz-adv-x="1187" 
d="M813 53v33q-33 -37 -72.5 -61t-82 -33.5t-70 -12t-64.5 -2.5q-183 0 -310.5 134t-127.5 323t127.5 323t310.5 134q37 0 64.5 -2.5t70 -12t82 -33.5t72.5 -61v392q0 20 15.5 36.5t35.5 16.5h146q20 0 35.5 -16.5t15.5 -36.5v-1121q0 -20 -15.5 -36.5t-35.5 -16.5h-146
q-20 0 -35.5 16.5t-15.5 36.5zM571 199q103 0 172.5 66.5t69.5 168.5v10q-4 98 -73 162t-169 64q-101 0 -169 -67t-68 -169t68 -168.5t169 -66.5z" />
    <glyph glyph-name="e" unicode="e" horiz-adv-x="1067" 
d="M557 670q-70 0 -124.5 -35t-82.5 -107h414q-58 142 -207 142zM850 47q-154 -70 -289 -70q-196 0 -335.5 134t-139.5 323t139.5 323t335.5 134q86 0 164 -31t139 -88.5t97 -149.5t36 -206v-39q0 -17 -15 -31t-32 -14h-604q40 -133 211 -133q90 0 180 41q4 2 15 2
q27 0 47 -23l73 -86q11 -18 11 -35q0 -33 -33 -51z" />
    <glyph glyph-name="f" unicode="f" horiz-adv-x="774" 
d="M643 1260q17 0 30 -13t13 -30v-130q0 -18 -13.5 -31.5t-31.5 -13.5l-25 2q-41 0 -71 -14.5t-43.5 -35t-21.5 -41.5t-8 -35l-1 -15v-35h170q17 0 32 -14t15 -31v-129q0 -18 -14.5 -32.5t-32.5 -14.5h-170v-594q0 -20 -15.5 -36.5t-35.5 -16.5h-146q-20 0 -35.5 16.5
t-15.5 36.5v594h-123q-18 0 -32.5 14.5t-14.5 32.5v129q0 17 15 31t32 14h123v50q0 69 15 125.5t37.5 91.5t54 61.5t59 39t59.5 20t48.5 9t31.5 1.5q22 0 115 -6z" />
    <glyph glyph-name="g" unicode="g" horiz-adv-x="1187" 
d="M571 670q-101 0 -169 -67t-68 -169t68 -168.5t169 -66.5q100 0 169 63.5t73 161.5v10q0 102 -69.5 169t-172.5 67zM367 -141q81 -45 221 -45q45 0 95.5 20t90 61.5t39.5 92.5v98q-33 -37 -72.5 -61t-82 -33.5t-70 -12t-64.5 -2.5q-183 0 -310.5 134t-127.5 323t127.5 323
t310.5 134q37 0 64.5 -2.5t70 -12t82 -33.5t72.5 -61v33q0 20 15.5 36.5t35.5 16.5h146q20 0 35.5 -16.5t15.5 -36.5v-799q0 -123 -64 -220.5t-172 -150.5t-239 -53q-167 0 -318 80q-13 4 -21.5 18t-8.5 29q0 17 6 29l61 90q15 27 41 27q12 0 21 -6z" />
    <glyph glyph-name="h" unicode="h" horiz-adv-x="1069" 
d="M963 559v-506q0 -20 -16 -36.5t-36 -16.5h-145q-20 0 -35.5 16.5t-15.5 36.5v430q0 17 -0.5 27.5t-3.5 32t-8.5 36.5t-17.5 33.5t-28.5 30t-42.5 19.5t-59 8q-42 0 -75 -16t-52 -40t-31.5 -53t-17 -52t-4.5 -42v-414q0 -20 -15.5 -36.5t-35.5 -16.5h-146
q-20 0 -35.5 16.5t-15.5 36.5v1121q0 20 15.5 36.5t35.5 16.5h146q20 0 35.5 -16.5t15.5 -36.5v-381q30 34 71 56.5t81.5 30t59.5 9.5t34 2q67 0 122 -18t89.5 -45t60.5 -63.5t39 -68.5t20.5 -65t9 -48.5t1.5 -23.5z" />
    <glyph glyph-name="i" unicode="i" 
d="M111 1081q0 59 41.5 100.5t99.5 41.5t99.5 -41.5t41.5 -100.5t-41.5 -100t-99.5 -41t-99.5 41t-41.5 100zM127 53v762q0 20 15.5 36.5t35.5 16.5h146q20 0 35.5 -16.5t15.5 -36.5v-762q0 -20 -15.5 -36.5t-35.5 -16.5h-146q-20 0 -35.5 16.5t-15.5 36.5z" />
    <glyph glyph-name="j" unicode="j" 
d="M-41 -352q-17 0 -32 14t-15 31v127q0 18 14.5 32.5t32.5 14.5l35 -4q37 0 64 15t39.5 36t20 42.5t8.5 36.5l1 15v807q0 20 15.5 36.5t35.5 16.5h146q20 0 35.5 -16.5t15.5 -36.5v-835q0 -69 -15 -125t-37 -90.5t-54.5 -59.5t-59 -36.5t-60 -18t-48 -7.5t-31.5 -1
q-62 0 -111 6zM111 1081q0 59 41.5 100.5t99.5 41.5t99.5 -41.5t41.5 -100.5t-41.5 -100t-99.5 -41t-99.5 41t-41.5 100z" />
    <glyph glyph-name="k" unicode="k" horiz-adv-x="972" 
d="M895 815l-262 -373l307 -387q0 -22 -15.5 -38.5t-37.5 -16.5h-197q-25 0 -51 37l-264 332v-316q0 -20 -15.5 -36.5t-35.5 -16.5h-146q-20 0 -35.5 16.5t-15.5 36.5v1121q0 20 15.5 36.5t35.5 16.5h146q20 0 35.5 -16.5t15.5 -36.5v-662l229 322q26 34 49 34h191
q20 0 35.5 -16.5t15.5 -36.5z" />
    <glyph glyph-name="l" unicode="l" 
d="M127 53v1121q0 20 15.5 36.5t35.5 16.5h146q20 0 35.5 -16.5t15.5 -36.5v-1121q0 -20 -15.5 -36.5t-35.5 -16.5h-146q-20 0 -35.5 16.5t-15.5 36.5z" />
    <glyph glyph-name="m" unicode="m" horiz-adv-x="1548" 
d="M1442 559v-506q0 -20 -15.5 -36.5t-35.5 -16.5h-146q-20 0 -35.5 16.5t-15.5 36.5v453q0 25 -5 49t-18 52t-42 45.5t-72 17.5q-135 0 -148 -191v-426q0 -20 -15.5 -36.5t-35.5 -16.5h-145q-20 0 -35.5 16.5t-15.5 36.5v453q0 25 -5 49t-17.5 52t-42.5 45.5t-73 17.5
q-39 0 -68.5 -16.5t-44.5 -39t-23.5 -53.5t-10.5 -52t-2 -42v-414q0 -20 -15.5 -36.5t-35.5 -16.5h-146q-20 0 -35.5 16.5t-15.5 36.5v762q0 20 15.5 36.5t35.5 16.5h146q20 0 35.5 -16.5t15.5 -36.5v-24q84 100 227 100q85 0 154 -35t106 -98q36 47 75.5 76.5t77.5 40.5
t59 13.5t50 2.5q76 0 135.5 -26t92.5 -63.5t54.5 -85.5t28.5 -86t7 -71z" />
    <glyph glyph-name="n" unicode="n" horiz-adv-x="1069" 
d="M963 559v-506q0 -20 -16 -36.5t-36 -16.5h-145q-20 0 -35.5 16.5t-15.5 36.5v430q0 17 -0.5 27.5t-3.5 32t-8.5 36.5t-17.5 33.5t-28.5 30t-42.5 19.5t-59 8q-42 0 -75 -16t-52 -40t-31.5 -53t-17 -52t-4.5 -42v-414q0 -20 -15.5 -36.5t-35.5 -16.5h-146
q-20 0 -35.5 16.5t-15.5 36.5v762q0 20 15.5 36.5t35.5 16.5h146q20 0 35.5 -16.5t15.5 -36.5v-22q30 34 71 56.5t81.5 30t59.5 9.5t34 2q67 0 122 -18t89.5 -45t60.5 -63.5t39 -68.5t20.5 -65t9 -48.5t1.5 -23.5z" />
    <glyph glyph-name="o" unicode="o" horiz-adv-x="1134" 
d="M567 891q199 0 340.5 -134t141.5 -323t-141.5 -323t-340.5 -134t-340 134t-141 323t141 323t340 134zM567 199q99 0 168.5 67.5t69.5 167.5t-69.5 168t-168.5 68t-168 -68t-69 -168t69 -167.5t168 -67.5z" />
    <glyph glyph-name="p" unicode="p" horiz-adv-x="1187" 
d="M375 815v-33q33 37 72.5 61t82 33.5t70 12t64.5 2.5q183 0 310.5 -134t127.5 -323t-127.5 -323t-310.5 -134q-37 0 -64.5 2.5t-70 12t-82 33.5t-72.5 61v-391q0 -20 -15.5 -36.5t-35.5 -16.5h-146q-20 0 -35.5 16.5t-15.5 36.5v1120q0 20 15.5 36.5t35.5 16.5h146
q20 0 35.5 -16.5t15.5 -36.5zM616 670q-103 0 -172 -67t-69 -169v-10q4 -98 72.5 -161.5t168.5 -63.5q101 0 169.5 66.5t68.5 168.5t-68.5 169t-169.5 67z" />
    <glyph glyph-name="q" unicode="q" horiz-adv-x="1187" 
d="M813 782v33q0 20 15.5 36.5t35.5 16.5h146q20 0 35.5 -16.5t15.5 -36.5v-1120q0 -20 -15.5 -36.5t-35.5 -16.5h-146q-20 0 -35.5 16.5t-15.5 36.5v391q-33 -37 -72.5 -61t-82 -33.5t-70 -12t-64.5 -2.5q-183 0 -310.5 134t-127.5 323t127.5 323t310.5 134q37 0 64.5 -2.5
t70 -12t82 -33.5t72.5 -61zM571 670q-101 0 -169 -67t-68 -169t68 -168.5t169 -66.5q100 0 169 63.5t73 161.5v10q0 102 -69.5 169t-172.5 67z" />
    <glyph glyph-name="r" unicode="r" horiz-adv-x="768" 
d="M668 657h-21q-69 0 -124 -30.5t-85.5 -76.5t-46.5 -92.5t-16 -84.5v-320q0 -20 -15.5 -36.5t-35.5 -16.5h-146q-20 0 -35.5 16.5t-15.5 36.5v762q0 20 15.5 36.5t35.5 16.5h146q20 0 35.5 -16.5t15.5 -36.5v-78q31 46 71 77.5t79.5 44t63.5 16.5t44 4h35q18 0 32.5 -14.5
t14.5 -33.5v-129q0 -17 -15 -31t-32 -14z" />
    <glyph glyph-name="s" unicode="s" horiz-adv-x="827" 
d="M551 625q-72 53 -131 53q-109 0 -109 -55q0 -27 25.5 -45.5t66 -30t89.5 -23t98.5 -31.5t90 -48.5t66 -80t25.5 -120.5q0 -45 -24.5 -90.5t-70 -85.5t-122 -65.5t-170.5 -25.5q-112 0 -191 43t-128 101q-11 15 -11 31q0 26 21 43l86 55q17 10 35 10q22 0 32 -10
q25 -26 65.5 -41t68.5 -17l28 -2q133 0 133 58q0 22 -25.5 38t-66 27.5t-89.5 23.5t-98.5 33.5t-90 51.5t-66 82t-25.5 121q0 105 91 185.5t256 80.5q162 0 288 -121q21 -18 21 -41q0 -26 -19 -41l-84 -61q-15 -11 -34 -11q-22 0 -31 9z" />
    <glyph glyph-name="t" unicode="t" horiz-adv-x="774" 
d="M471 1157v-289h170q18 0 32.5 -14.5t14.5 -32.5v-129q0 -17 -15 -31t-32 -14h-170v-321q0 -5 0.5 -12.5t8.5 -27.5t21.5 -35t43.5 -27.5t71 -12.5q11 0 25 2q18 0 31.5 -13.5t13.5 -31.5v-121q0 -17 -13 -30t-30 -13q-58 -4 -115 -4q-17 0 -31.5 1t-48 7.5t-60 18
t-59 36.5t-54.5 59.5t-37 90.5t-15 125v309h-123q-17 0 -32 14t-15 31v129q0 18 14.5 32.5t32.5 14.5h123v258q0 21 11.5 36t31.5 18l152 34q20 0 36.5 -18t16.5 -39z" />
    <glyph glyph-name="u" unicode="u" horiz-adv-x="1073" 
d="M537 -23q-78 0 -143 17.5t-107.5 45.5t-74.5 67t-49.5 76.5t-28.5 80t-14 72t-3 57.5v422q0 20 15.5 36.5t35.5 16.5h145q20 0 36 -16.5t16 -36.5v-430q0 -27 5 -52.5t20.5 -59t53 -54t93.5 -20.5t93.5 20.5t53 54t20.5 59t5 52.5v430q0 20 15.5 36.5t35.5 16.5h145
q20 0 35.5 -16.5t15.5 -36.5v-422q0 -28 -3 -57.5t-13.5 -72t-28 -80t-50 -76.5t-75 -67t-107 -45.5t-142.5 -17.5z" />
    <glyph glyph-name="v" unicode="v" horiz-adv-x="995" 
d="M588 0h-180q-18 0 -32.5 9.5t-19.5 21.5l-311 784q0 20 15.5 36.5t35.5 16.5h164q33 0 47 -34l191 -568l190 568q14 34 47 34h164q20 0 35.5 -16.5t15.5 -36.5l-311 -784q-5 -12 -19.5 -21.5t-31.5 -9.5z" />
    <glyph glyph-name="w" unicode="w" horiz-adv-x="1400" 
d="M623 868h155q15 0 29 -11t20 -28l146 -573l125 578q14 34 45 34h164q19 0 34 -16t15 -35l-232 -784q-7 -13 -21 -23t-32 -10h-194q-37 0 -54 33l-123 477l-122 -477q-7 -13 -21.5 -23t-32.5 -10h-194q-18 0 -32.5 10t-21.5 23l-231 784q0 19 15 35t34 16h164q31 0 45 -34
l125 -578l145 573q6 17 20.5 28t29.5 11z" />
    <glyph glyph-name="x" unicode="x" horiz-adv-x="897" 
d="M449 627l139 207q23 34 47 34h164q20 0 35.5 -16.5t15.5 -36.5l-258 -379l260 -383q0 -20 -15.5 -36.5t-35.5 -16.5h-168q-24 0 -47 35l-137 207l-138 -207q-23 -35 -47 -35h-168q-20 0 -35.5 16.5t-15.5 36.5l260 383l-258 379q0 20 15.5 36.5t35.5 16.5h164
q24 0 47 -34z" />
    <glyph glyph-name="y" unicode="y" horiz-adv-x="995" 
d="M152 -145h32q155 0 193 125l-332 835q0 20 15.5 36.5t35.5 16.5h164q33 0 47 -34l191 -568l190 568q14 34 47 34h164q20 0 35.5 -16.5t15.5 -36.5l-356 -895q-29 -73 -66 -125.5t-71.5 -81.5t-77.5 -45.5t-76 -21t-74 -4.5h-75q-15 0 -31.5 14t-16.5 29v125q0 17 15 31
t31 14z" />
    <glyph glyph-name="z" unicode="z" horiz-adv-x="907" 
d="M104 227l398 422h-361q-17 0 -32 14t-15 31v127q0 18 14.5 32.5t32.5 14.5h625q18 0 32.5 -14.5t14.5 -32.5v-153q0 -14 -10 -27l-406 -422h369q17 0 32 -14t15 -31v-127q0 -18 -14.5 -32.5t-32.5 -14.5h-625q-18 0 -32.5 14.5t-14.5 32.5v154q0 13 10 26z" />
    <glyph glyph-name="braceleft" unicode="{" horiz-adv-x="806" 
d="M174 477q-18 2 -32.5 14t-14.5 29v127q0 18 14 31t33 16q27 9 47.5 30t29.5 45t14.5 46.5t6.5 37.5v15v279q0 66 13.5 119t33.5 86.5t50 58t55 36t57.5 18t49 7.5t36.5 1h66q17 0 32 -14.5t15 -33.5v-129q0 -17 -15 -31t-32 -14q-47 -2 -80 -31.5t-33 -78.5v-324
q0 -48 -17.5 -89t-41 -65t-53 -42.5t-47 -25t-29.5 -9.5q12 -3 29.5 -10t47 -25t53 -42.5t41 -65.5t17.5 -89v-323q0 -49 33 -79t80 -32q17 0 32 -14t15 -31v-129q0 -18 -14.5 -32.5t-32.5 -14.5h-66q-20 0 -36.5 1t-49 7.5t-57.5 18t-55 36t-50 58t-33.5 86.5t-13.5 119
v278q0 6 -0.5 15.5t-6 36t-14.5 48.5t-29.5 43.5t-47.5 30.5z" />
    <glyph glyph-name="bar" unicode="|" 
d="M127 -248v1667q0 21 15.5 37.5t35.5 16.5h146q20 0 35.5 -16.5t15.5 -37.5v-1667q0 -20 -15.5 -36.5t-35.5 -16.5h-146q-20 0 -35.5 16.5t-15.5 36.5z" />
    <glyph glyph-name="braceright" unicode="}" horiz-adv-x="806" 
d="M633 477q-27 -9 -47.5 -30t-29.5 -45t-14.5 -46.5t-5.5 -37.5l-1 -15v-278q0 -66 -13.5 -119t-33.5 -86.5t-50 -58t-55 -36t-57.5 -18t-49 -7.5t-36.5 -1h-66q-18 0 -32.5 14.5t-14.5 32.5v129q0 17 15 31t32 14q47 2 80 32t33 79v323q0 48 17.5 89t41 65.5t53 42.5
t47 25t29.5 10q-12 3 -29.5 9.5t-47 25t-53 42.5t-41 65t-17.5 89v324q0 49 -33 78.5t-80 31.5q-17 0 -32 14t-15 31v129q0 19 14.5 33.5t32.5 14.5h66q20 0 36.5 -1t49 -7.5t57.5 -18t55 -36t50 -58t33.5 -86.5t13.5 -119v-279q0 -6 0.5 -15.5t6 -36t14.5 -48.5t29.5 -43.5
t47.5 -30.5q19 -3 33 -16t14 -31v-127q0 -17 -14.5 -29t-32.5 -14z" />
    <glyph glyph-name="asciitilde" unicode="~" horiz-adv-x="993" 
d="M391 365q-54 0 -72 -52q-9 -30 -43 -30h-104q-20 0 -32.5 13.5t-12.5 33.5q6 66 29 115t52 71.5t57.5 36t47.5 15.5l19 1q52 0 96.5 -14t69.5 -31t53 -31t51 -14q54 0 72 51q9 31 43 31h104q20 0 32.5 -13.5t12.5 -33.5q-6 -66 -29 -115t-52 -72t-57 -36t-47 -15l-19 -2
q-45 1 -100 23.5t-101 45t-70 22.5z" />
    <glyph glyph-name="uni00A0" unicode="&#xa0;" horiz-adv-x="329" 
 />
    <glyph glyph-name="exclamdown" unicode="&#xa1;" horiz-adv-x="536" 
d="M127 1044q0 59 41.5 100.5t99.5 41.5t100 -42t42 -100t-41.5 -99.5t-100.5 -41.5q-58 0 -99.5 41.5t-41.5 99.5zM143 31l17 762q0 20 15.5 36.5t35.5 16.5h113q20 0 35.5 -16.5t15.5 -36.5l16 -762q0 -21 -15.5 -37.5t-35.5 -16.5h-145q-20 0 -36 17t-16 37z" />
    <glyph glyph-name="cent" unicode="&#xa2;" horiz-adv-x="1476" 
d="M612 -174v168q-212 48 -348.5 214.5t-136.5 383.5q0 216 136 382t349 216v166q0 20 16 36.5t36 16.5h145q20 0 35.5 -16.5t15.5 -36.5v-158q168 -26 298 -128.5t192 -254.5q-3 -20 -18.5 -33.5t-35.5 -13.5h-166q-30 0 -43 27q-50 88 -136.5 139t-190.5 51
q-160 0 -270.5 -113.5t-110.5 -279.5q0 -162 111 -277.5t270 -115.5q104 0 190.5 51t136.5 139q13 27 43 27h166q20 0 35.5 -13.5t18.5 -33.5q-62 -152 -192.5 -255t-297.5 -128v-160q0 -20 -15.5 -36.5t-35.5 -16.5h-145q-20 0 -36 16.5t-16 36.5z" />
    <glyph glyph-name="sterling" unicode="&#xa3;" horiz-adv-x="1218" 
d="M807 770v55q0 68 -36 114t-103 46q-44 0 -71 -9.5t-38.5 -32.5t-14.5 -43t-3 -58q3 -51 29.5 -130.5t31.5 -99.5h164q16 0 29.5 -13t13.5 -30v-116q0 -15 -14 -28t-29 -13h-164q-29 -132 -84 -191h526q18 0 33 -14.5t15 -32.5v-129q0 -17 -15 -31t-33 -14h-870
q-17 0 -32 14t-15 31v129q0 18 14.5 32.5t32.5 14.5h90q53 70 94 191h-145q-15 0 -29 13t-14 28v116q0 17 13.5 30t29.5 13h141q-37 85 -49 136.5t-12 109.5q0 20 1.5 39t9.5 56t22 68t43 67t68.5 60.5t102 41t140.5 16.5q77 0 138.5 -20t100 -49.5t67 -73.5t42 -81.5
t21.5 -85t9 -72t1 -54.5q0 -20 -15.5 -36.5t-35.5 -16.5h-150q-20 0 -35.5 16.5t-15.5 36.5z" />
    <glyph glyph-name="currency" unicode="&#xa4;" horiz-adv-x="995" 
d="M844 418q0 -105 -62 -189l86 -170q0 -25 -15.5 -42t-39.5 -17h-119q-34 0 -53 37l-35 67q-53 -16 -108 -16q-56 0 -109 16l-35 -67q-18 -37 -53 -37h-119q-24 0 -39.5 17t-15.5 42l86 170q-61 83 -61 189q0 105 61 188l-86 170q0 25 15.5 42.5t39.5 17.5h119q35 0 53 -37
l35 -68q56 17 109 17q52 0 108 -17l35 68q19 37 53 37h119q24 0 39.5 -17.5t15.5 -42.5l-86 -170q62 -84 62 -188zM645 418q0 63 -42.5 105t-104.5 42t-105 -42t-43 -105t43 -105.5t105 -42.5t104.5 42.5t42.5 105.5z" />
    <glyph glyph-name="yen" unicode="&#xa5;" horiz-adv-x="1290" 
d="M963 150h-193v-97q0 -20 -15.5 -36.5t-35.5 -16.5h-146q-20 0 -35.5 16.5t-15.5 36.5v97h-192q-14 0 -25.5 10.5t-11.5 23.5v97q0 15 11.5 25.5t25.5 10.5h192v82l-33 60h-159q-14 0 -25.5 11t-11.5 24v96q0 15 11.5 26t25.5 11h69l-272 508q0 20 14.5 35.5t34.5 15.5
h156q27 0 45 -33l268 -504l268 504q18 33 45 33h156q20 0 34.5 -15.5t14.5 -35.5l-272 -508h72q14 0 25 -11t11 -26v-96q0 -13 -11 -24t-25 -11h-162l-31 -60v-82h193q14 0 25 -10.5t11 -25.5v-97q0 -13 -11 -23.5t-25 -10.5z" />
    <glyph glyph-name="brokenbar" unicode="&#xa6;" 
d="M127 768v651q0 21 15.5 37.5t35.5 16.5h146q20 0 35.5 -16.5t15.5 -37.5v-651q0 -20 -15.5 -36.5t-35.5 -16.5h-146q-20 0 -35.5 16.5t-15.5 36.5zM127 -248v651q0 21 15.5 37.5t35.5 16.5h146q20 0 35.5 -16.5t15.5 -37.5v-651q0 -20 -15.5 -36.5t-35.5 -16.5h-146
q-20 0 -35.5 16.5t-15.5 36.5z" />
    <glyph glyph-name="section" unicode="&#xa7;" horiz-adv-x="1089" 
d="M963 557q0 -56 -35.5 -112t-104.5 -95q23 -59 23 -106q0 -45 -24.5 -90.5t-71 -85.5t-123 -65.5t-170.5 -25.5q-192 0 -320 142q-10 17 -10 33q0 30 23 41l86 57q11 8 34 8t31 -8q25 -27 65.5 -42.5t68.5 -17.5l28 -2q133 0 133 58q0 23 -25.5 39t-66 27.5t-89.5 23.5
t-97.5 33t-89 51t-66 82t-25.5 121q0 64 33.5 122.5t99.5 96.5q-16 46 -16 98q0 49 21.5 95.5t62.5 85t109.5 62t154.5 23.5q159 0 289 -121q18 -15 18 -41q0 -30 -16 -40l-86 -64q-14 -10 -35 -10t-31 10q-74 53 -129 53q-108 0 -108 -57q0 -29 25.5 -49t66 -33t89.5 -25
t97.5 -32t89 -47.5t66 -77t25.5 -115.5zM631 506q39 0 62.5 12t23.5 35q0 38 -96 73.5t-175 35.5q-63 0 -63 -39q0 -33 42 -61t98.5 -42t107.5 -14z" />
    <glyph glyph-name="dieresis" unicode="&#xa8;" horiz-adv-x="882" 
d="M127 1047q0 57 41 98t98 41t98.5 -41t41.5 -98t-41.5 -98.5t-98.5 -41.5t-98 41.5t-41 98.5zM477 1047q0 57 41 98t98 41t98.5 -41t41.5 -98t-41.5 -98.5t-98.5 -41.5t-98 41.5t-41 98.5z" />
    <glyph glyph-name="copyright" unicode="&#xa9;" horiz-adv-x="1482" 
d="M741 1206q125 0 239 -48.5t196.5 -130.5t131 -196t48.5 -239t-48.5 -239t-131 -196.5t-196.5 -131t-239 -48.5t-239 48.5t-196 131t-130.5 196.5t-48.5 239q0 167 82 308.5t223.5 223.5t308.5 82zM741 94q135 0 249.5 67t181.5 181.5t67 249.5t-67 249.5t-181.5 181.5
t-249.5 67q-136 0 -250.5 -67t-180.5 -181.5t-66 -249.5t66 -249.5t180.5 -181.5t250.5 -67zM739 303q-124 0 -211.5 84.5t-87.5 204.5t87.5 205.5t211.5 85.5q97 0 175.5 -55t109.5 -142q0 -15 -11 -26t-26 -11h-113q-23 0 -34 19q-28 55 -103 55q-52 0 -87.5 -37.5
t-35.5 -93.5q0 -55 36 -92t87 -37q75 0 103 55q11 19 34 19h113q15 0 26 -11t11 -26q-31 -87 -109.5 -142t-175.5 -55z" />
    <glyph glyph-name="ordfeminine" unicode="&#xaa;" horiz-adv-x="718" 
d="M358 805q14 0 22.5 0.5t21 3.5t18.5 10t6 19q0 13 -5.5 21t-18.5 11t-20.5 3.5t-23.5 0.5q-15 0 -22.5 -0.5t-19.5 -3.5t-17.5 -11t-5.5 -21q0 -33 65 -33zM233 1022q-4 -2 -10 -2q-24 0 -37 22l-20 56q-4 4 -4 16q0 23 16 33q71 39 162 39q118 0 185 -52t67 -157v-272
q0 -13 -10 -23t-23 -10h-102q-13 0 -22 9.5t-9 23.5q-49 -46 -123 -46q-90 0 -133 47.5t-43 131.5q0 78 56 113.5t130 35.5q52 0 105 -26q0 39 -18 59t-66 20q-55 0 -101 -18z" />
    <glyph glyph-name="guillemotleft" unicode="&#xab;" horiz-adv-x="1165" 
d="M127 430q0 18 6 33l199 362q14 31 45 31h139q23 0 36 -14.5t13 -38.5l-182 -340q-8 -13 -8 -33t8 -31l182 -346q0 -24 -13 -38.5t-36 -14.5h-139q-31 0 -45 31l-199 368q-6 12 -6 31zM600 430q0 18 6 33l199 362q14 31 45 31h139q23 0 36 -14.5t13 -38.5l-182 -340
q-8 -13 -8 -33t8 -31l182 -346q0 -24 -13 -38.5t-36 -14.5h-139q-31 0 -45 31l-199 368q-6 12 -6 31z" />
    <glyph glyph-name="logicalnot" unicode="&#xac;" horiz-adv-x="1069" 
d="M942 522v-366q0 -21 -15.5 -37.5t-35.5 -16.5h-146q-20 0 -35.5 16.5t-15.5 37.5v198h-520q-17 0 -32 14t-15 31v129q0 18 14.5 32.5t32.5 14.5h717q20 0 35.5 -16.5t15.5 -36.5z" />
    <glyph glyph-name="uni00AD" unicode="&#xad;" horiz-adv-x="405" 
 />
    <glyph glyph-name="registered" unicode="&#xae;" horiz-adv-x="1482" 
d="M741 1206q125 0 239 -48.5t196.5 -130.5t131 -196t48.5 -239t-48.5 -239t-131 -196.5t-196.5 -131t-239 -48.5t-239 48.5t-196 131t-130.5 196.5t-48.5 239q0 167 82 308.5t223.5 223.5t308.5 82zM741 94q135 0 249.5 67t181.5 181.5t67 249.5t-67 249.5t-181.5 181.5
t-249.5 67q-136 0 -250.5 -67t-180.5 -181.5t-66 -249.5t66 -249.5t180.5 -181.5t250.5 -67zM672 768v-186h67q88 0 88 92q0 48 -24 71t-64 23h-67zM891 489l135 -174q0 -17 -10.5 -26.5t-26.5 -9.5h-110q-18 0 -31 16l-131 158h-45v-138q0 -14 -11 -25t-26 -11h-100
q-15 0 -26 11t-11 25v543q0 14 11 25.5t26 11.5h227q5 0 13.5 -0.5t33.5 -5t47.5 -12t50 -24t47.5 -39t33.5 -59t13.5 -81.5q0 -121 -110 -185z" />
    <glyph glyph-name="macron" unicode="&#xaf;" horiz-adv-x="845" 
d="M672 967h-498q-17 0 -32 14t-15 31v127q0 18 14.5 32.5t32.5 14.5h498q18 0 32.5 -14.5t14.5 -32.5v-127q0 -17 -15 -31t-32 -14z" />
    <glyph glyph-name="degree" unicode="&#xb0;" horiz-adv-x="770" 
d="M385 1186q107 0 182.5 -74.5t75.5 -181.5t-75.5 -182.5t-182.5 -75.5t-182.5 75.5t-75.5 182.5t75.5 181.5t182.5 74.5zM385 836q38 0 65 28t27 66q0 37 -27 64.5t-65 27.5t-66 -27.5t-28 -64.5q0 -38 28 -66t66 -28z" />
    <glyph glyph-name="plusminus" unicode="&#xb1;" horiz-adv-x="866" 
d="M557 561v-147q0 -21 -15.5 -37.5t-35.5 -16.5h-146q-20 0 -35.5 16.5t-15.5 37.5v147h-133q-20 0 -34.5 14t-14.5 33v111q0 19 14.5 33t34.5 14h133v147q0 21 15.5 37.5t35.5 16.5h146q20 0 35.5 -16.5t15.5 -37.5v-147h133q20 0 34.5 -14t14.5 -33v-111q0 -19 -14.5 -33
t-34.5 -14h-133zM696 0h-526q-16 0 -29.5 13t-13.5 30v119q0 17 13.5 30t29.5 13h526q16 0 29.5 -13t13.5 -30v-119q0 -17 -13.5 -30t-29.5 -13z" />
    <glyph glyph-name="twosuperior" unicode="&#xb2;" horiz-adv-x="663" 
d="M156 780q137 118 165.5 148t28.5 55q0 37 -37 37t-37 -45q0 -12 -8 -20.5t-20 -8.5h-92q-12 0 -20.5 8.5t-8.5 20.5v35q0 11 2 26t13 43.5t29.5 50.5t56.5 39t89 17q63 0 107 -18t64.5 -47.5t29 -56.5t8.5 -54q0 -111 -141 -219h121q13 0 22 -9.5t9 -21.5v-84
q0 -14 -8.5 -22.5t-22.5 -8.5h-330q-14 0 -22.5 8.5t-8.5 22.5v82q0 11 11 22z" />
    <glyph glyph-name="threesuperior" unicode="&#xb3;" horiz-adv-x="638" 
d="M299 961h20q15 0 23 7t8 31q0 12 -10 24.5t-33 12.5q-35 0 -35 -39q0 -24 -28 -24h-88q-12 0 -20.5 8t-8.5 20v15q0 11 2 25.5t12.5 42t28.5 48.5t55 37.5t86 16.5q61 0 103.5 -17.5t62 -46t27.5 -54.5t8 -52q0 -71 -47 -105q47 -34 47 -104q0 -26 -8 -52t-27.5 -54.5
t-62 -46t-103.5 -17.5q-49 0 -86 16.5t-55 37.5t-28.5 48.5t-12.5 42t-2 25.5v14q0 12 8.5 20.5t20.5 8.5h88q28 0 28 -25q0 -39 35 -39q23 0 32 12.5t9 24.5q0 24 -7.5 31.5t-21.5 7.5h-20q-20 0 -20 21v57q0 21 20 21z" />
    <glyph glyph-name="acute" unicode="&#xb4;" horiz-adv-x="604" 
d="M477 1135l-125 -197q-18 -29 -45 -29h-127q-23 0 -38 16t-15 38l98 192q6 12 20 21.5t27 9.5h152q23 0 38 -15t15 -36z" />
    <glyph glyph-name="mu" unicode="&#xb5;" horiz-adv-x="1093" 
d="M127 -305v1120q0 20 15.5 36.5t35.5 16.5h146q20 0 35.5 -16.5t15.5 -36.5v-430q0 -27 5 -52.5t20.5 -59t53 -54t93.5 -20.5t93.5 20.5t53 54t20.5 59t5 52.5v430q0 20 15.5 36.5t35.5 16.5h145q20 0 36 -16.5t16 -36.5v-422q0 -28 -3 -57.5t-14 -72t-28.5 -80
t-49.5 -76.5t-74.5 -67t-107.5 -45.5t-143 -17.5q-93 0 -172 27v-309q0 -20 -15.5 -36.5t-35.5 -16.5h-146q-20 0 -35.5 16.5t-15.5 36.5z" />
    <glyph glyph-name="paragraph" unicode="&#xb6;" horiz-adv-x="1396" 
d="M571 1186h648q20 0 35.5 -16.5t15.5 -36.5v-1080q0 -20 -15.5 -36.5t-35.5 -16.5h-146q-20 0 -35.5 16.5t-15.5 36.5v914h-195v-914q0 -20 -15.5 -36.5t-35.5 -16.5h-145q-20 0 -35.5 16.5t-15.5 36.5v295q-9 0 -25.5 1t-63.5 9t-90 22.5t-95 46t-89.5 73.5t-63.5 111.5
t-26 154.5q0 86 24.5 155.5t63.5 112t86.5 74t95 46t86.5 22.5t63 9z" />
    <glyph glyph-name="periodcentered" unicode="&#xb7;" horiz-adv-x="534" 
d="M127 428q0 58 41 99.5t98 41.5q59 0 100.5 -41.5t41.5 -99.5q0 -57 -42 -98t-100 -41q-57 0 -98 41t-41 98z" />
    <glyph glyph-name="cedilla" unicode="&#xb8;" horiz-adv-x="602" 
d="M375 -18l-15 -52q5 -1 12.5 -3.5t27.5 -13t35 -25t27.5 -41t12.5 -58.5q0 -54 -26 -91.5t-65 -54t-68.5 -22.5t-53.5 -6q-36 0 -102 8q-13 2 -23 11.5t-10 23.5v78q0 14 10 24.5t25 10.5l43 -7q32 0 49.5 13t17.5 35q0 18 -10 31t-20 17l-11 3l-36 6q-29 4 -29 29l27 94
q9 28 34 28h111q15 0 26 -10.5t11 -27.5z" />
    <glyph glyph-name="onesuperior" unicode="&#xb9;" horiz-adv-x="579" 
d="M150 1145l118 37q10 4 31 4h117q15 0 26 -11t11 -26v-440q0 -15 -11 -26t-26 -11h-113q-15 0 -26 11t-11 26v301l-108 -27q-12 0 -21.5 9.5t-9.5 21.5v100q0 23 23 31z" />
    <glyph glyph-name="ordmasculine" unicode="&#xba;" horiz-adv-x="770" 
d="M385 1186q107 0 182.5 -74.5t75.5 -181.5t-75.5 -182.5t-182.5 -75.5t-182.5 75.5t-75.5 182.5t75.5 181.5t182.5 74.5zM385 836q38 0 65 28t27 66q0 37 -27 64.5t-65 27.5t-66 -27.5t-28 -64.5q0 -38 28 -66t66 -28z" />
    <glyph glyph-name="guillemotright" unicode="&#xbb;" horiz-adv-x="1165" 
d="M1038 430q0 -19 -6 -31l-198 -368q-14 -31 -46 -31h-139q-23 0 -36 14.5t-13 38.5l182 346q9 12 9 31q0 18 -9 33l-182 340q0 24 13 38.5t36 14.5h139q32 0 46 -31l198 -362q6 -15 6 -33zM565 430q0 -19 -6 -31l-199 -368q-14 -31 -45 -31h-139q-23 0 -36 14.5t-13 38.5
l182 346q8 11 8 31t-8 33l-182 340q0 24 13 38.5t36 14.5h139q31 0 45 -31l199 -362q6 -15 6 -33z" />
    <glyph glyph-name="onequarter" unicode="&#xbc;" horiz-adv-x="1384" 
d="M958 223h82v135zM268 45l627 1118q13 23 37 23h131q17 0 27 -13t10 -32l-627 -1118q-13 -23 -37 -23h-131q-17 0 -27 13t-10 32zM150 1145l118 37q10 4 31 4h117q15 0 26 -11t11 -26v-440q0 -15 -11 -26t-26 -11h-113q-15 0 -26 11t-11 26v301l-108 -27q-12 0 -21.5 9.5
t-9.5 21.5v100q0 23 23 31zM788 231l160 267q10 16 31 16h186q15 0 26 -11t11 -26v-254h27q12 0 20 -8t8 -20v-78q0 -12 -8 -20.5t-20 -8.5h-27v-51q0 -15 -11 -26t-26 -11h-112q-15 0 -26 11t-11 26v51h-203q-12 0 -20.5 8.5t-8.5 20.5v98q0 8 4 16z" />
    <glyph glyph-name="onehalf" unicode="&#xbd;" horiz-adv-x="1363" 
d="M268 45l627 1118q13 23 37 23h131q17 0 27 -13t10 -32l-627 -1118q-13 -23 -37 -23h-131q-17 0 -27 13t-10 32zM150 1145l118 37q10 4 31 4h117q15 0 26 -11t11 -26v-440q0 -15 -11 -26t-26 -11h-113q-15 0 -26 11t-11 26v301l-108 -27q-12 0 -21.5 9.5t-9.5 21.5v100
q0 23 23 31zM856 135q139 119 167 148.5t28 54.5q0 37 -37 37t-37 -45q0 -12 -8.5 -20.5t-20.5 -8.5h-92q-12 0 -20.5 8.5t-8.5 20.5v35q0 8 1.5 19.5t7 33.5t19 42t33 39t53.5 30.5t77 11.5q63 0 107 -18t64.5 -47.5t29 -56.5t8.5 -54q0 -112 -142 -220h121q13 0 22 -9
t9 -21v-84q0 -13 -8.5 -22t-22.5 -9h-329q-13 0 -22 9t-9 22v82q0 12 10 22z" />
    <glyph glyph-name="threequarters" unicode="&#xbe;" horiz-adv-x="1374" 
d="M948 223h82v135zM258 45l627 1118q13 23 37 23h131q17 0 27 -13t10 -32l-627 -1118q-13 -23 -37 -23h-131q-17 0 -27 13t-10 32zM778 231l160 267q10 16 31 16h186q15 0 26 -11t11 -26v-254h27q12 0 20 -8t8 -20v-78q0 -12 -8 -20.5t-20 -8.5h-27v-51q0 -15 -11 -26
t-26 -11h-113q-15 0 -25.5 11t-10.5 26v51h-203q-12 0 -20.5 8.5t-8.5 20.5v98q0 8 4 16zM299 981h20q15 0 23 7.5t8 31.5q0 12 -10 24.5t-33 12.5q-35 0 -35 -39q0 -25 -28 -25h-88q-12 0 -20.5 8.5t-8.5 20.5v14q0 11 2 25.5t12.5 42t28.5 48.5t55 37.5t86 16.5
q61 0 103.5 -17.5t62 -46t27.5 -54.5t8 -52q0 -70 -47 -104q47 -34 47 -105q0 -26 -8 -52t-27.5 -54.5t-62 -46t-103.5 -17.5q-49 0 -86 16.5t-55 37.5t-28.5 48.5t-12.5 42t-2 25.5v15q0 12 8.5 20t20.5 8h88q28 0 28 -24q0 -39 35 -39q23 0 32 12.5t9 24.5q0 24 -7.5 31.5
t-21.5 7.5h-20q-20 0 -20 20v58q0 20 20 20z" />
    <glyph glyph-name="questiondown" unicode="&#xbf;" horiz-adv-x="1036" 
d="M653 1065q0 -59 -41.5 -100t-99.5 -41t-99.5 41t-41.5 100t41.5 100t99.5 41t99.5 -41t41.5 -100zM377 821q23 27 45 27h149q20 0 36 -16.5t16 -36.5q-18 -47 -60 -103t-80.5 -98.5t-71 -101.5t-36.5 -117q0 -154 151 -154q65 0 98 46t33 114q0 20 15.5 33.5t36.5 13.5
h149q22 0 36.5 -14.5t14.5 -34.5q0 -18 -1 -35.5t-8 -58.5t-20 -74.5t-40.5 -74.5t-65.5 -69t-98.5 -47.5t-136.5 -19.5q-81 0 -146.5 18.5t-107.5 46t-73 66.5t-46.5 74t-25 74t-11.5 61t-2 41q0 62 28 123.5t63.5 105t84 104.5t74.5 107z" />
    <glyph glyph-name="Agrave" unicode="&#xc0;" horiz-adv-x="1218" 
d="M774 1155l404 -1102q0 -20 -17 -36.5t-37 -16.5h-163q-15 0 -28.5 10t-17.5 25l-59 168h-494l-59 -168q-4 -15 -17.5 -25t-27.5 -10h-164q-20 0 -36.5 16.5t-16.5 36.5l403 1102q5 12 20 21.5t34 9.5h223q35 0 53 -31zM440 424h338l-170 481zM461 1319l-125 197
q0 21 15 36t38 15h152q13 0 27 -9.5t20 -21.5l98 -193q0 -22 -15 -37.5t-38 -15.5h-127q-27 0 -45 29z" />
    <glyph glyph-name="Aacute" unicode="&#xc1;" horiz-adv-x="1218" 
d="M774 1155l404 -1102q0 -20 -17 -36.5t-37 -16.5h-163q-15 0 -28.5 10t-17.5 25l-59 168h-494l-59 -168q-4 -15 -17.5 -25t-27.5 -10h-164q-20 0 -36.5 16.5t-16.5 36.5l403 1102q5 12 20 21.5t34 9.5h223q35 0 53 -31zM440 424h338l-170 481zM881 1516l-125 -197
q-18 -29 -45 -29h-127q-23 0 -38.5 15.5t-15.5 37.5l99 193q6 12 20 21.5t27 9.5h151q23 0 38.5 -15t15.5 -36z" />
    <glyph glyph-name="Acircumflex" unicode="&#xc2;" horiz-adv-x="1218" 
d="M774 1155l404 -1102q0 -20 -17 -36.5t-37 -16.5h-163q-15 0 -28.5 10t-17.5 25l-59 168h-494l-59 -168q-4 -15 -17.5 -25t-27.5 -10h-164q-20 0 -36.5 16.5t-16.5 36.5l403 1102q5 12 20 21.5t34 9.5h223q35 0 53 -31zM440 424h338l-170 481zM504 1655h215q35 0 55 -41
l123 -260q0 -25 -18.5 -44.5t-42.5 -19.5h-115q-18 0 -33.5 10t-21.5 27l-56 117l-53 -117q-6 -17 -21.5 -27t-33.5 -10h-113q-26 0 -44.5 19.5t-18.5 44.5l123 260q21 41 55 41z" />
    <glyph glyph-name="Atilde" unicode="&#xc3;" horiz-adv-x="1218" 
d="M774 1155l404 -1102q0 -20 -17 -36.5t-37 -16.5h-163q-15 0 -28.5 10t-17.5 25l-59 168h-494l-59 -168q-4 -15 -17.5 -25t-27.5 -10h-164q-20 0 -36.5 16.5t-16.5 36.5l403 1102q5 12 20 21.5t34 9.5h223q35 0 53 -31zM440 424h338l-170 481zM506 1380q-54 0 -72 -51
q-9 -31 -43 -31h-104q-20 0 -32.5 13.5t-12.5 34.5q6 66 29 115t52 71.5t57 36t47 15.5l19 1q52 0 97 -14t69.5 -31t53 -31t51.5 -14q53 0 71 51q9 31 43 31h105q20 0 32.5 -13.5t12.5 -33.5q-6 -66 -29 -115t-52 -72t-57.5 -36t-47.5 -15l-19 -2q-45 1 -99.5 23.5
t-100.5 44.5t-70 22z" />
    <glyph glyph-name="Adieresis" unicode="&#xc4;" horiz-adv-x="1218" 
d="M774 1155l404 -1102q0 -20 -17 -36.5t-37 -16.5h-163q-15 0 -28.5 10t-17.5 25l-59 168h-494l-59 -168q-4 -15 -17.5 -25t-27.5 -10h-164q-20 0 -36.5 16.5t-16.5 36.5l403 1102q5 12 20 21.5t34 9.5h223q35 0 53 -31zM440 424h338l-170 481zM297 1430q0 57 41 98t98 41
t98 -41t41 -98t-41 -98.5t-98 -41.5t-98 41.5t-41 98.5zM647 1430q0 57 41 98t98 41t98.5 -41t41.5 -98t-41.5 -98.5t-98.5 -41.5t-98 41.5t-41 98.5z" />
    <glyph glyph-name="Aring" unicode="&#xc5;" horiz-adv-x="1218" 
d="M774 1155l404 -1102q0 -20 -17 -36.5t-37 -16.5h-163q-15 0 -28.5 10t-17.5 25l-59 168h-494l-59 -168q-4 -15 -17.5 -25t-27.5 -10h-164q-20 0 -36.5 16.5t-16.5 36.5l403 1102q5 12 20 21.5t34 9.5h223q35 0 53 -31zM440 424h338l-170 481zM612 1804q107 0 182.5 -74.5
t75.5 -181.5t-75.5 -182.5t-182.5 -75.5t-182.5 75.5t-75.5 182.5t75.5 181.5t182.5 74.5zM612 1454q38 0 65.5 28t27.5 66q0 37 -27.5 64.5t-65.5 27.5t-66 -27.5t-28 -64.5q0 -38 28 -66t66 -28z" />
    <glyph glyph-name="AE" unicode="&#xc6;" horiz-adv-x="1787" 
d="M879 963l-299 -484h299v484zM37 78l676 1081q17 27 49 27h885q18 0 32.5 -14.5t14.5 -32.5v-129q0 -17 -15 -31t-32 -14h-521v-273h476q18 0 32.5 -14.5t14.5 -32.5v-129q0 -18 -16.5 -31.5t-39.5 -13.5h-467v-252h521q17 0 32 -14t15 -31v-127q0 -18 -14.5 -32.5
t-32.5 -14.5h-717q-20 0 -35.5 16.5t-15.5 36.5v205h-441l-143 -233q-18 -25 -45 -25h-168q-22 0 -37.5 15.5t-15.5 37.5q0 13 8 25z" />
    <glyph glyph-name="Ccedilla" unicode="&#xc7;" horiz-adv-x="1398" 
d="M1329 369q-62 -155 -195.5 -258.5t-304.5 -126.5l-14 -54q5 -1 12.5 -3.5t27.5 -13t35 -25t27.5 -41t12.5 -58.5q0 -54 -26 -91.5t-65 -54t-68.5 -22.5t-53.5 -6q-37 0 -103 8q-13 2 -22.5 11.5t-9.5 23.5v78q0 14 9.5 24.5t24.5 10.5l43 -7q32 0 50 13t18 35
q0 18 -10.5 31t-20.5 17l-10 3l-37 6q-12 2 -20 9.5t-8 19.5l24 88q-231 32 -385 203.5t-154 402.5q0 125 50 239t134.5 196t201.5 130.5t247 48.5q200 0 360 -108.5t230 -282.5q-3 -20 -18 -33.5t-35 -13.5h-166q-30 0 -43 27q-50 88 -137 139t-191 51
q-160 0 -270.5 -113.5t-110.5 -279.5q0 -162 111 -277.5t270 -115.5q104 0 191 51t137 139q13 27 43 27h166q20 0 35 -13.5t18 -33.5z" />
    <glyph glyph-name="Egrave" unicode="&#xc8;" horiz-adv-x="1036" 
d="M375 219h520q17 0 32 -14t15 -31v-127q0 -18 -14.5 -32.5t-32.5 -14.5h-717q-20 0 -35.5 16.5t-15.5 36.5v1080q0 20 15.5 36.5t35.5 16.5h717q18 0 32.5 -14.5t14.5 -32.5v-129q0 -17 -15 -31t-32 -14h-520v-273h475q18 0 32.5 -14.5t14.5 -32.5v-129q0 -17 -15 -31
t-32 -14h-475v-252zM434 1319l-125 197q0 21 15 36t38 15h152q13 0 27 -9.5t20 -21.5l98 -193q0 -22 -15 -37.5t-38 -15.5h-127q-27 0 -45 29z" />
    <glyph glyph-name="Eacute" unicode="&#xc9;" horiz-adv-x="1036" 
d="M375 219h520q17 0 32 -14t15 -31v-127q0 -18 -14.5 -32.5t-32.5 -14.5h-717q-20 0 -35.5 16.5t-15.5 36.5v1080q0 20 15.5 36.5t35.5 16.5h717q18 0 32.5 -14.5t14.5 -32.5v-129q0 -17 -15 -31t-32 -14h-520v-273h475q18 0 32.5 -14.5t14.5 -32.5v-129q0 -17 -15 -31
t-32 -14h-475v-252zM799 1516l-125 -197q-18 -29 -45 -29h-127q-23 0 -38 15.5t-15 37.5l98 193q6 12 20 21.5t27 9.5h151q23 0 38.5 -15t15.5 -36z" />
    <glyph glyph-name="Ecircumflex" unicode="&#xca;" horiz-adv-x="1036" 
d="M375 219h520q17 0 32 -14t15 -31v-127q0 -18 -14.5 -32.5t-32.5 -14.5h-717q-20 0 -35.5 16.5t-15.5 36.5v1080q0 20 15.5 36.5t35.5 16.5h717q18 0 32.5 -14.5t14.5 -32.5v-129q0 -17 -15 -31t-32 -14h-520v-273h475q18 0 32.5 -14.5t14.5 -32.5v-129q0 -17 -15 -31
t-32 -14h-475v-252zM436 1655h215q35 0 56 -41l122 -260q0 -25 -18.5 -44.5t-42.5 -19.5h-115q-18 0 -33.5 10t-21.5 27l-55 117l-54 -117q-6 -17 -21.5 -27t-33.5 -10h-112q-26 0 -45 19.5t-19 44.5l123 260q21 41 55 41z" />
    <glyph glyph-name="Edieresis" unicode="&#xcb;" horiz-adv-x="1036" 
d="M375 219h520q17 0 32 -14t15 -31v-127q0 -18 -14.5 -32.5t-32.5 -14.5h-717q-20 0 -35.5 16.5t-15.5 36.5v1080q0 20 15.5 36.5t35.5 16.5h717q18 0 32.5 -14.5t14.5 -32.5v-129q0 -17 -15 -31t-32 -14h-520v-273h475q18 0 32.5 -14.5t14.5 -32.5v-129q0 -17 -15 -31
t-32 -14h-475v-252zM225 1430q0 57 41.5 98t98.5 41t98 -41t41 -98t-41 -98.5t-98 -41.5t-98.5 41.5t-41.5 98.5zM575 1430q0 57 41.5 98t98.5 41t98 -41t41 -98t-41 -98.5t-98 -41.5t-98.5 41.5t-41.5 98.5z" />
    <glyph glyph-name="Igrave" unicode="&#xcc;" 
d="M127 53v1080q0 20 15.5 36.5t35.5 16.5h146q20 0 35.5 -16.5t15.5 -36.5v-1080q0 -20 -15.5 -36.5t-35.5 -16.5h-146q-20 0 -35.5 16.5t-15.5 36.5zM123 1319l-125 197q0 21 15 36t38 15h152q13 0 27 -9.5t20 -21.5l98 -193q0 -22 -15 -37.5t-38 -15.5h-127q-27 0 -45 29
z" />
    <glyph glyph-name="Iacute" unicode="&#xcd;" 
d="M127 53v1080q0 20 15.5 36.5t35.5 16.5h146q20 0 35.5 -16.5t15.5 -36.5v-1080q0 -20 -15.5 -36.5t-35.5 -16.5h-146q-20 0 -35.5 16.5t-15.5 36.5zM510 1516l-125 -197q-18 -29 -45 -29h-127q-23 0 -38 15.5t-15 37.5l98 193q6 12 20 21.5t27 9.5h152q23 0 38 -15
t15 -36z" />
    <glyph glyph-name="Icircumflex" unicode="&#xce;" 
d="M127 53v1080q0 20 15.5 36.5t35.5 16.5h146q20 0 35.5 -16.5t15.5 -36.5v-1080q0 -20 -15.5 -36.5t-35.5 -16.5h-146q-20 0 -35.5 16.5t-15.5 36.5zM143 1655h215q17 0 32.5 -12t23.5 -29l123 -260q0 -25 -18.5 -44.5t-43.5 -19.5h-115q-18 0 -33.5 10t-21.5 27l-55 117
l-53 -117q-6 -17 -22 -27t-34 -10h-112q-26 0 -45 19.5t-19 44.5l123 260q20 41 55 41z" />
    <glyph glyph-name="Idieresis" unicode="&#xcf;" 
d="M127 53v1080q0 20 15.5 36.5t35.5 16.5h146q20 0 35.5 -16.5t15.5 -36.5v-1080q0 -20 -15.5 -36.5t-35.5 -16.5h-146q-20 0 -35.5 16.5t-15.5 36.5zM-63 1430q0 57 41 98t98 41t98 -41t41 -98t-41 -98.5t-98 -41.5t-98 41.5t-41 98.5zM287 1430q0 57 41 98t98 41t98 -41
t41 -98t-41 -98.5t-98 -41.5t-98 41.5t-41 98.5z" />
    <glyph glyph-name="Eth" unicode="&#xd0;" horiz-adv-x="1304" 
d="M625 1186q173 0 309 -78t210.5 -213t74.5 -303t-74.5 -302.5t-210.5 -212t-309 -77.5h-412q-20 0 -35.5 16.5t-15.5 36.5v430h-86q-17 0 -32 14t-15 31v127q0 18 14.5 32.5t32.5 14.5h86v431q0 20 15.5 36.5t35.5 16.5h412zM625 221q157 0 248.5 102.5t91.5 268.5
t-91.5 269.5t-248.5 103.5h-215v-263h163q18 0 33 -14.5t15 -32.5v-127q0 -17 -15 -31t-33 -14h-163v-262h215z" />
    <glyph glyph-name="Ntilde" unicode="&#xd1;" horiz-adv-x="1298" 
d="M922 25l-547 725v-697q0 -20 -15.5 -36.5t-35.5 -16.5h-146q-20 0 -35.5 16.5t-15.5 36.5v1080q0 20 15.5 36.5t35.5 16.5h158q23 0 41 -25l547 -725v697q0 20 15.5 36.5t35.5 16.5h145q20 0 35.5 -16.5t15.5 -36.5v-1080q0 -20 -15.5 -36.5t-35.5 -16.5h-157
q-23 0 -41 25zM553 1380q-54 0 -72 -51q-9 -31 -43 -31h-104q-20 0 -32.5 13.5t-12.5 34.5q6 66 29 115t52 71.5t57.5 36t47.5 15.5l19 1q52 0 96.5 -14t69.5 -31t53 -31t51 -14q54 0 72 51q9 31 43 31h104q20 0 32.5 -13.5t12.5 -33.5q-6 -66 -29 -115t-52 -72t-57.5 -36
t-47.5 -15l-19 -2q-45 1 -99.5 23.5t-100.5 44.5t-70 22z" />
    <glyph glyph-name="Ograve" unicode="&#xd2;" horiz-adv-x="1478" 
d="M739 1206q130 0 247 -48.5t201.5 -130.5t134.5 -196t50 -239q0 -167 -84 -308.5t-230 -224t-319 -82.5t-319 82.5t-230 224t-84 308.5q0 125 50 239t134.5 196t201.5 130.5t247 48.5zM739 199q159 0 270 115.5t111 277.5q0 166 -110.5 279.5t-270.5 113.5t-270.5 -113.5
t-110.5 -279.5q0 -162 111 -277.5t270 -115.5zM594 1319l-125 197q0 21 15 36t38 15h152q13 0 27 -9.5t20 -21.5l98 -193q0 -22 -15 -37.5t-38 -15.5h-127q-27 0 -45 29z" />
    <glyph glyph-name="Oacute" unicode="&#xd3;" horiz-adv-x="1478" 
d="M739 1206q130 0 247 -48.5t201.5 -130.5t134.5 -196t50 -239q0 -167 -84 -308.5t-230 -224t-319 -82.5t-319 82.5t-230 224t-84 308.5q0 125 50 239t134.5 196t201.5 130.5t247 48.5zM739 199q159 0 270 115.5t111 277.5q0 166 -110.5 279.5t-270.5 113.5t-270.5 -113.5
t-110.5 -279.5q0 -162 111 -277.5t270 -115.5zM987 1516l-125 -197q-18 -29 -45 -29h-127q-23 0 -38 15.5t-15 37.5l98 193q6 12 20 21.5t27 9.5h152q23 0 38 -15t15 -36z" />
    <glyph glyph-name="Ocircumflex" unicode="&#xd4;" horiz-adv-x="1478" 
d="M739 1206q130 0 247 -48.5t201.5 -130.5t134.5 -196t50 -239q0 -167 -84 -308.5t-230 -224t-319 -82.5t-319 82.5t-230 224t-84 308.5q0 125 50 239t134.5 196t201.5 130.5t247 48.5zM739 199q159 0 270 115.5t111 277.5q0 166 -110.5 279.5t-270.5 113.5t-270.5 -113.5
t-110.5 -279.5q0 -162 111 -277.5t270 -115.5zM631 1655h215q34 0 55 -41l123 -260q0 -25 -18.5 -44.5t-42.5 -19.5h-115q-18 0 -33.5 10t-21.5 27l-56 117l-53 -117q-6 -17 -21.5 -27t-33.5 -10h-113q-26 0 -44.5 19.5t-18.5 44.5l122 260q21 41 56 41z" />
    <glyph glyph-name="Otilde" unicode="&#xd5;" horiz-adv-x="1478" 
d="M739 1206q130 0 247 -48.5t201.5 -130.5t134.5 -196t50 -239q0 -167 -84 -308.5t-230 -224t-319 -82.5t-319 82.5t-230 224t-84 308.5q0 125 50 239t134.5 196t201.5 130.5t247 48.5zM739 199q159 0 270 115.5t111 277.5q0 166 -110.5 279.5t-270.5 113.5t-270.5 -113.5
t-110.5 -279.5q0 -162 111 -277.5t270 -115.5zM635 1380q-54 0 -72 -51q-9 -31 -43 -31h-104q-20 0 -32.5 13.5t-12.5 34.5q6 66 29 115t52 71.5t57 36t47 15.5l19 1q52 0 97 -14t69.5 -31t53 -31t51.5 -14q54 0 72 51q9 31 43 31h104q20 0 32.5 -13.5t12.5 -33.5
q-6 -66 -29 -115t-52 -72t-57.5 -36t-47.5 -15l-19 -2q-45 1 -99.5 23.5t-100.5 44.5t-70 22z" />
    <glyph glyph-name="Odieresis" unicode="&#xd6;" horiz-adv-x="1478" 
d="M739 1206q130 0 247 -48.5t201.5 -130.5t134.5 -196t50 -239q0 -167 -84 -308.5t-230 -224t-319 -82.5t-319 82.5t-230 224t-84 308.5q0 125 50 239t134.5 196t201.5 130.5t247 48.5zM739 199q159 0 270 115.5t111 277.5q0 166 -110.5 279.5t-270.5 113.5t-270.5 -113.5
t-110.5 -279.5q0 -162 111 -277.5t270 -115.5zM424 1430q0 57 41 98t98 41t98 -41t41 -98t-41 -98.5t-98 -41.5t-98 41.5t-41 98.5zM774 1430q0 57 41 98t98 41t98.5 -41t41.5 -98t-41.5 -98.5t-98.5 -41.5t-98 41.5t-41 98.5z" />
    <glyph glyph-name="multiply" unicode="&#xd7;" horiz-adv-x="823" 
d="M412 262l-131 -129q-17 -14 -33 -14q-21 0 -39 18l-68 72q-14 14 -14 35q0 18 14 35l129 129l-129 129q-14 17 -14 34q0 21 14 35l68 72q18 18 39 18q16 0 33 -14l131 -129l131 129q17 14 32 14q21 0 39 -18l68 -72q14 -14 14 -35q0 -17 -14 -34l-129 -129l129 -129
q14 -17 14 -35q0 -21 -14 -35l-68 -72q-18 -18 -39 -18q-15 0 -32 14z" />
    <glyph glyph-name="Oslash" unicode="&#xd8;" horiz-adv-x="1478" 
d="M317 -133l84 203q-136 83 -215.5 221t-79.5 301q0 125 50 239t134.5 196t201.5 130.5t247 48.5q56 0 131 -14l60 145q12 27 39 27h141q19 0 33 -14t14 -33l-84 -203q138 -83 218.5 -221t80.5 -301q0 -167 -84 -308.5t-230 -224t-319 -82.5q-62 0 -129 13l-59 -144
q-10 -26 -41 -26h-145q-19 0 -33.5 15t-14.5 32zM358 592q0 -89 36.5 -167.5t99.5 -133.5l288 692q-14 2 -43 2q-160 0 -270.5 -113.5t-110.5 -279.5zM739 199q159 0 270 115.5t111 277.5q0 91 -36.5 169.5t-100.5 133.5l-287 -694q14 -2 43 -2z" />
    <glyph glyph-name="Ugrave" unicode="&#xd9;" horiz-adv-x="1216" 
d="M608 -23q-10 0 -28 1t-69 10.5t-97.5 26t-103.5 52t-98 83.5t-69 126t-28 175v682q0 20 15.5 36.5t35.5 16.5h145q20 0 35.5 -16.5t15.5 -36.5v-672q0 -5 0.5 -14.5t5.5 -37t13.5 -52t27 -55t43.5 -52t65.5 -36.5t90.5 -15t90.5 14.5t65.5 37.5t43.5 51t27 56t13.5 51
t6 37v15v672q0 20 15.5 36.5t35.5 16.5h146q20 0 35.5 -16.5t15.5 -36.5v-682q0 -76 -17 -140.5t-45.5 -110t-65.5 -82.5t-78 -59.5t-82 -39.5t-78 -24.5t-65.5 -12t-45.5 -4.5zM487 1319l-125 197q0 21 15.5 36t38.5 15h151q13 0 27 -9.5t20 -21.5l99 -193
q0 -22 -15.5 -37.5t-38.5 -15.5h-127q-27 0 -45 29z" />
    <glyph glyph-name="Uacute" unicode="&#xda;" horiz-adv-x="1216" 
d="M608 -23q-10 0 -28 1t-69 10.5t-97.5 26t-103.5 52t-98 83.5t-69 126t-28 175v682q0 20 15.5 36.5t35.5 16.5h145q20 0 35.5 -16.5t15.5 -36.5v-672q0 -5 0.5 -14.5t5.5 -37t13.5 -52t27 -55t43.5 -52t65.5 -36.5t90.5 -15t90.5 14.5t65.5 37.5t43.5 51t27 56t13.5 51
t6 37v15v672q0 20 15.5 36.5t35.5 16.5h146q20 0 35.5 -16.5t15.5 -36.5v-682q0 -76 -17 -140.5t-45.5 -110t-65.5 -82.5t-78 -59.5t-82 -39.5t-78 -24.5t-65.5 -12t-45.5 -4.5zM866 1516l-125 -197q-18 -29 -45 -29h-127q-23 0 -38 15.5t-15 37.5l98 193q6 12 20.5 21.5
t27.5 9.5h151q23 0 38 -15t15 -36z" />
    <glyph glyph-name="Ucircumflex" unicode="&#xdb;" horiz-adv-x="1216" 
d="M608 -23q-10 0 -28 1t-69 10.5t-97.5 26t-103.5 52t-98 83.5t-69 126t-28 175v682q0 20 15.5 36.5t35.5 16.5h145q20 0 35.5 -16.5t15.5 -36.5v-672q0 -5 0.5 -14.5t5.5 -37t13.5 -52t27 -55t43.5 -52t65.5 -36.5t90.5 -15t90.5 14.5t65.5 37.5t43.5 51t27 56t13.5 51
t6 37v15v672q0 20 15.5 36.5t35.5 16.5h146q20 0 35.5 -16.5t15.5 -36.5v-682q0 -76 -17 -140.5t-45.5 -110t-65.5 -82.5t-78 -59.5t-82 -39.5t-78 -24.5t-65.5 -12t-45.5 -4.5zM500 1655h215q35 0 55 -41l123 -260q0 -25 -18.5 -44.5t-43.5 -19.5h-114q-18 0 -33.5 10
t-21.5 27l-56 117l-53 -117q-6 -17 -21.5 -27t-33.5 -10h-113q-26 0 -44.5 19.5t-18.5 44.5l122 260q8 17 23.5 29t32.5 12z" />
    <glyph glyph-name="Udieresis" unicode="&#xdc;" horiz-adv-x="1216" 
d="M608 -23q-10 0 -28 1t-69 10.5t-97.5 26t-103.5 52t-98 83.5t-69 126t-28 175v682q0 20 15.5 36.5t35.5 16.5h145q20 0 35.5 -16.5t15.5 -36.5v-672q0 -5 0.5 -14.5t5.5 -37t13.5 -52t27 -55t43.5 -52t65.5 -36.5t90.5 -15t90.5 14.5t65.5 37.5t43.5 51t27 56t13.5 51
t6 37v15v672q0 20 15.5 36.5t35.5 16.5h146q20 0 35.5 -16.5t15.5 -36.5v-682q0 -76 -17 -140.5t-45.5 -110t-65.5 -82.5t-78 -59.5t-82 -39.5t-78 -24.5t-65.5 -12t-45.5 -4.5zM295 1430q0 57 41 98t98 41t98 -41t41 -98t-41 -98.5t-98 -41.5t-98 41.5t-41 98.5zM645 1430
q0 57 41 98t98 41t98.5 -41t41.5 -98t-41.5 -98.5t-98.5 -41.5t-98 41.5t-41 98.5z" />
    <glyph glyph-name="Yacute" unicode="&#xdd;" horiz-adv-x="1118" 
d="M684 399v-346q0 -20 -15.5 -36.5t-35.5 -16.5h-146q-20 0 -35.5 16.5t-15.5 36.5v346l-395 736q0 20 14.5 35.5t34.5 15.5h156q27 0 45 -33l268 -504l268 504q18 33 45 33h156q20 0 34.5 -15.5t14.5 -35.5zM829 1516l-124 -197q-18 -29 -46 -29h-127q-23 0 -38 15.5
t-15 37.5l99 193q6 12 20 21.5t27 9.5h151q23 0 38 -15t15 -36z" />
    <glyph glyph-name="Thorn" unicode="&#xde;" horiz-adv-x="1099" 
d="M127 53v1082q0 20 15.5 36.5t35.5 16.5h146q20 0 35.5 -16.5t15.5 -36.5v-123h223q10 0 26 -1t63.5 -10t91 -23.5t96 -46.5t90.5 -75t64 -112.5t26 -155.5q0 -67 -15.5 -124.5t-42 -97.5t-61 -73t-72.5 -53t-75.5 -35.5t-72 -22.5t-61 -11t-41.5 -5h-16h-223v-113
q0 -20 -15.5 -36.5t-35.5 -16.5h-146q-20 0 -35.5 16.5t-15.5 36.5zM788 588q0 107 -53 156t-143 49h-217v-408h217q90 0 143 48.5t53 154.5z" />
    <glyph glyph-name="germandbls" unicode="&#xdf;" horiz-adv-x="1140" 
d="M573 221h62q82 0 125 31t43 106q0 77 -43 108.5t-125 31.5h-68q-18 0 -32.5 14.5t-14.5 32.5v127q0 17 15 31t32 14h56q5 0 14 0.5t31.5 7.5t40 18.5t31.5 37t14 59.5t-13.5 60t-33 37.5t-38.5 18.5t-33 8l-13 1h-117q-133 0 -133 -148v-764q0 -20 -15.5 -36.5
t-35.5 -16.5h-144q-20 0 -35.5 16.5t-15.5 36.5v789q0 145 103.5 244.5t285.5 99.5h115q14 0 34.5 -1.5t57.5 -9t72 -19.5t73.5 -35.5t67 -54.5t47 -79.5t18.5 -107.5q0 -65 -16 -114t-43 -78t-53.5 -44.5t-57.5 -24.5q19 -6 36.5 -13t55 -30.5t63.5 -51.5t47.5 -77.5
t21.5 -107.5q0 -338 -471 -338h-11q-18 0 -32.5 14.5t-14.5 32.5v129q0 17 15 31t32 14z" />
    <glyph glyph-name="agrave" unicode="&#xe0;" horiz-adv-x="1187" 
d="M813 53v33q-33 -37 -72.5 -61t-82 -33.5t-70 -12t-64.5 -2.5q-183 0 -310.5 134t-127.5 323t127.5 323t310.5 134q37 0 64.5 -2.5t70 -12t82 -33.5t72.5 -61v33q0 20 15.5 36.5t35.5 16.5h146q20 0 35.5 -16.5t15.5 -36.5v-762q0 -20 -15.5 -36.5t-35.5 -16.5h-146
q-20 0 -35.5 16.5t-15.5 36.5zM571 199q103 0 172.5 66.5t69.5 168.5v10q-4 98 -73 162t-169 64q-101 0 -169 -67t-68 -169t68 -168.5t169 -66.5zM442 1014l-125 196q0 21 15.5 36.5t38.5 15.5h151q13 0 27 -9.5t20 -21.5l99 -193q0 -22 -15.5 -37.5t-38.5 -15.5h-127
q-27 0 -45 29z" />
    <glyph glyph-name="aacute" unicode="&#xe1;" horiz-adv-x="1187" 
d="M813 53v33q-33 -37 -72.5 -61t-82 -33.5t-70 -12t-64.5 -2.5q-183 0 -310.5 134t-127.5 323t127.5 323t310.5 134q37 0 64.5 -2.5t70 -12t82 -33.5t72.5 -61v33q0 20 15.5 36.5t35.5 16.5h146q20 0 35.5 -16.5t15.5 -36.5v-762q0 -20 -15.5 -36.5t-35.5 -16.5h-146
q-20 0 -35.5 16.5t-15.5 36.5zM571 199q103 0 172.5 66.5t69.5 168.5v10q-4 98 -73 162t-169 64q-101 0 -169 -67t-68 -169t68 -168.5t169 -66.5zM819 1210l-125 -196q-18 -29 -45 -29h-127q-23 0 -38 15.5t-15 37.5l98 193q6 12 20 21.5t27 9.5h152q23 0 38 -15.5t15 -36.5
z" />
    <glyph glyph-name="acircumflex" unicode="&#xe2;" horiz-adv-x="1187" 
d="M813 53v33q-33 -37 -72.5 -61t-82 -33.5t-70 -12t-64.5 -2.5q-183 0 -310.5 134t-127.5 323t127.5 323t310.5 134q37 0 64.5 -2.5t70 -12t82 -33.5t72.5 -61v33q0 20 15.5 36.5t35.5 16.5h146q20 0 35.5 -16.5t15.5 -36.5v-762q0 -20 -15.5 -36.5t-35.5 -16.5h-146
q-20 0 -35.5 16.5t-15.5 36.5zM571 199q103 0 172.5 66.5t69.5 168.5v10q-4 98 -73 162t-169 64q-101 0 -169 -67t-68 -169t68 -168.5t169 -66.5zM459 1350h215q34 0 55 -41l123 -260q0 -25 -18.5 -44.5t-42.5 -19.5h-115q-18 0 -33.5 10t-21.5 27l-56 117l-53 -117
q-6 -17 -21.5 -27t-33.5 -10h-113q-26 0 -44.5 19.5t-18.5 44.5l122 260q21 41 56 41z" />
    <glyph glyph-name="atilde" unicode="&#xe3;" horiz-adv-x="1187" 
d="M813 53v33q-33 -37 -72.5 -61t-82 -33.5t-70 -12t-64.5 -2.5q-183 0 -310.5 134t-127.5 323t127.5 323t310.5 134q37 0 64.5 -2.5t70 -12t82 -33.5t72.5 -61v33q0 20 15.5 36.5t35.5 16.5h146q20 0 35.5 -16.5t15.5 -36.5v-762q0 -20 -15.5 -36.5t-35.5 -16.5h-146
q-20 0 -35.5 16.5t-15.5 36.5zM571 199q103 0 172.5 66.5t69.5 168.5v10q-4 98 -73 162t-169 64q-101 0 -169 -67t-68 -169t68 -168.5t169 -66.5zM494 1075q-54 0 -72 -51q-9 -31 -43 -31h-105q-20 0 -32.5 13.5t-12.5 33.5q6 66 29 115t52 72t57.5 36t47.5 15l19 2
q52 0 97 -14t69.5 -31t53 -31t51.5 -14q53 0 71 51q9 31 43 31h105q20 0 32.5 -13.5t12.5 -33.5q-6 -66 -29 -115t-52 -72t-57.5 -36t-47.5 -15l-19 -2q-45 1 -99.5 23.5t-100.5 44.5t-70 22z" />
    <glyph glyph-name="adieresis" unicode="&#xe4;" horiz-adv-x="1187" 
d="M813 53v33q-33 -37 -72.5 -61t-82 -33.5t-70 -12t-64.5 -2.5q-183 0 -310.5 134t-127.5 323t127.5 323t310.5 134q37 0 64.5 -2.5t70 -12t82 -33.5t72.5 -61v33q0 20 15.5 36.5t35.5 16.5h146q20 0 35.5 -16.5t15.5 -36.5v-762q0 -20 -15.5 -36.5t-35.5 -16.5h-146
q-20 0 -35.5 16.5t-15.5 36.5zM571 199q103 0 172.5 66.5t69.5 168.5v10q-4 98 -73 162t-169 64q-101 0 -169 -67t-68 -169t68 -168.5t169 -66.5zM289 1124q0 57 41 98.5t98 41.5t98 -41.5t41 -98.5t-41 -98t-98 -41t-98 41t-41 98zM639 1124q0 57 41 98.5t98 41.5
t98.5 -41.5t41.5 -98.5t-41.5 -98t-98.5 -41t-98 41t-41 98z" />
    <glyph glyph-name="aring" unicode="&#xe5;" horiz-adv-x="1187" 
d="M813 53v33q-33 -37 -72.5 -61t-82 -33.5t-70 -12t-64.5 -2.5q-183 0 -310.5 134t-127.5 323t127.5 323t310.5 134q37 0 64.5 -2.5t70 -12t82 -33.5t72.5 -61v33q0 20 15.5 36.5t35.5 16.5h146q20 0 35.5 -16.5t15.5 -36.5v-762q0 -20 -15.5 -36.5t-35.5 -16.5h-146
q-20 0 -35.5 16.5t-15.5 36.5zM571 199q103 0 172.5 66.5t69.5 168.5v10q-4 98 -73 162t-169 64q-101 0 -169 -67t-68 -169t68 -168.5t169 -66.5zM588 1499q107 0 182.5 -74.5t75.5 -181.5t-75.5 -182.5t-182.5 -75.5t-182.5 75.5t-75.5 182.5t75.5 181.5t182.5 74.5z
M588 1149q38 0 65 28t27 66q0 37 -27 64.5t-65 27.5t-66 -27.5t-28 -64.5q0 -38 28 -66t66 -28z" />
    <glyph glyph-name="ae" unicode="&#xe6;" horiz-adv-x="1607" 
d="M487 199q22 0 36 0.5t40 4.5t41.5 12t28 24t12.5 39q0 21 -7 37t-21.5 25t-28.5 15t-35.5 8t-33.5 2.5t-32 0.5q-25 0 -39.5 -0.5t-39.5 -5t-40 -13t-26.5 -26.5t-11.5 -43q0 -23 12.5 -39t28 -24t41 -12t39.5 -4.5t36 -0.5zM891 528h414q-58 142 -207 142
q-70 0 -124.5 -35t-82.5 -107zM256 641q-8 -2 -14 -2q-17 0 -32.5 9.5t-23.5 23.5l-32 82q-7 10 -7 26q0 30 27 47q136 64 279 64q196 0 325 -123q136 123 324 123q86 0 164 -31t139 -88.5t97 -149.5t36 -206v-39q0 -17 -15 -31t-32 -14h-604q40 -133 211 -133q90 0 180 41
q4 2 14 2q27 0 47 -23l74 -86q10 -17 10 -35q0 -33 -32 -51q-154 -70 -289 -70q-99 0 -188.5 38t-155.5 104q-62 -78 -137 -110t-199 -32q-159 0 -247.5 82.5t-88.5 219.5q0 76 29 132.5t78 87.5t106 45.5t121 14.5q111 0 209 -49q0 160 -205 160q-105 0 -168 -29z" />
    <glyph glyph-name="ccedilla" unicode="&#xe7;" horiz-adv-x="1067" 
d="M1001 270q-45 -109 -139 -185.5t-213 -98.5l-14 -56q5 -1 12.5 -3.5t27.5 -13t35 -25t27.5 -41t12.5 -58.5q0 -54 -26 -91.5t-65 -54t-68.5 -22.5t-53.5 -6q-37 0 -103 8q-13 2 -23 11.5t-10 23.5v78q0 14 10 24.5t25 10.5l43 -7q32 0 50 13t18 35q0 18 -10.5 31
t-20.5 17l-10 3l-37 6q-29 4 -29 29l25 90q-163 31 -271 156.5t-108 289.5q0 189 139.5 323t335.5 134q147 0 267 -81t173 -212q-3 -21 -18.5 -35t-36.5 -14h-164q-30 0 -43 26q-62 95 -182 95q-96 0 -161.5 -67.5t-65.5 -168.5t65.5 -168t161.5 -67q121 0 182 94
q13 26 43 26h164q21 0 36.5 -14t18.5 -35z" />
    <glyph glyph-name="egrave" unicode="&#xe8;" horiz-adv-x="1067" 
d="M557 670q-70 0 -124.5 -35t-82.5 -107h414q-58 142 -207 142zM850 47q-154 -70 -289 -70q-196 0 -335.5 134t-139.5 323t139.5 323t335.5 134q86 0 164 -31t139 -88.5t97 -149.5t36 -206v-39q0 -17 -15 -31t-32 -14h-604q40 -133 211 -133q90 0 180 41q4 2 15 2
q27 0 47 -23l73 -86q11 -18 11 -35q0 -33 -33 -51zM442 1014l-125 196q0 21 15.5 36.5t38.5 15.5h151q13 0 27 -9.5t20 -21.5l99 -193q0 -22 -15.5 -37.5t-38.5 -15.5h-127q-27 0 -45 29z" />
    <glyph glyph-name="eacute" unicode="&#xe9;" horiz-adv-x="1067" 
d="M557 670q-70 0 -124.5 -35t-82.5 -107h414q-58 142 -207 142zM850 47q-154 -70 -289 -70q-196 0 -335.5 134t-139.5 323t139.5 323t335.5 134q86 0 164 -31t139 -88.5t97 -149.5t36 -206v-39q0 -17 -15 -31t-32 -14h-604q40 -133 211 -133q90 0 180 41q4 2 15 2
q27 0 47 -23l73 -86q11 -18 11 -35q0 -33 -33 -51zM819 1210l-125 -196q-18 -29 -45 -29h-127q-23 0 -38 15.5t-15 37.5l98 193q6 12 20 21.5t27 9.5h152q23 0 38 -15.5t15 -36.5z" />
    <glyph glyph-name="ecircumflex" unicode="&#xea;" horiz-adv-x="1067" 
d="M557 670q-70 0 -124.5 -35t-82.5 -107h414q-58 142 -207 142zM850 47q-154 -70 -289 -70q-196 0 -335.5 134t-139.5 323t139.5 323t335.5 134q86 0 164 -31t139 -88.5t97 -149.5t36 -206v-39q0 -17 -15 -31t-32 -14h-604q40 -133 211 -133q90 0 180 41q4 2 15 2
q27 0 47 -23l73 -86q11 -18 11 -35q0 -33 -33 -51zM459 1350h215q34 0 55 -41l123 -260q0 -25 -18.5 -44.5t-42.5 -19.5h-115q-18 0 -33.5 10t-21.5 27l-56 117l-53 -117q-6 -17 -21.5 -27t-33.5 -10h-113q-26 0 -44.5 19.5t-18.5 44.5l122 260q21 41 56 41z" />
    <glyph glyph-name="edieresis" unicode="&#xeb;" horiz-adv-x="1067" 
d="M557 670q-70 0 -124.5 -35t-82.5 -107h414q-58 142 -207 142zM850 47q-154 -70 -289 -70q-196 0 -335.5 134t-139.5 323t139.5 323t335.5 134q86 0 164 -31t139 -88.5t97 -149.5t36 -206v-39q0 -17 -15 -31t-32 -14h-604q40 -133 211 -133q90 0 180 41q4 2 15 2
q27 0 47 -23l73 -86q11 -18 11 -35q0 -33 -33 -51zM240 1124q0 57 41 98.5t98 41.5t98 -41.5t41 -98.5t-41 -98t-98 -41t-98 41t-41 98zM590 1124q0 57 41 98.5t98 41.5t98 -41.5t41 -98.5t-41 -98t-98 -41t-98 41t-41 98z" />
    <glyph glyph-name="igrave" unicode="&#xec;" 
d="M127 53v762q0 20 15.5 36.5t35.5 16.5h146q20 0 35.5 -16.5t15.5 -36.5v-762q0 -20 -15.5 -36.5t-35.5 -16.5h-146q-20 0 -35.5 16.5t-15.5 36.5zM123 1014l-125 196q0 21 15 36.5t38 15.5h152q13 0 27 -9.5t20 -21.5l98 -193q0 -22 -15 -37.5t-38 -15.5h-127
q-27 0 -45 29z" />
    <glyph glyph-name="iacute" unicode="&#xed;" 
d="M375 815v-762q0 -20 -15.5 -36.5t-35.5 -16.5h-146q-20 0 -35.5 16.5t-15.5 36.5v762q0 20 15.5 36.5t35.5 16.5h146q20 0 35.5 -16.5t15.5 -36.5zM504 1210l-125 -196q-18 -29 -45 -29h-127q-23 0 -38 15.5t-15 37.5l98 193q6 12 20 21.5t27 9.5h152q23 0 38 -15.5
t15 -36.5z" />
    <glyph glyph-name="icircumflex" unicode="&#xee;" 
d="M127 53v762q0 20 15.5 36.5t35.5 16.5h146q20 0 35.5 -16.5t15.5 -36.5v-762q0 -20 -15.5 -36.5t-35.5 -16.5h-146q-20 0 -35.5 16.5t-15.5 36.5zM143 1350h215q17 0 32.5 -12t23.5 -29l123 -260q0 -25 -18.5 -44.5t-43.5 -19.5h-115q-18 0 -33.5 10t-21.5 27l-55 117
l-53 -117q-6 -17 -22 -27t-34 -10h-112q-26 0 -45 19.5t-19 44.5l123 260q20 41 55 41z" />
    <glyph glyph-name="idieresis" unicode="&#xef;" 
d="M127 53v762q0 20 15.5 36.5t35.5 16.5h146q20 0 35.5 -16.5t15.5 -36.5v-762q0 -20 -15.5 -36.5t-35.5 -16.5h-146q-20 0 -35.5 16.5t-15.5 36.5zM-63 1122q0 57 41 98.5t98 41.5t98 -41.5t41 -98.5t-41 -98t-98 -41t-98 41t-41 98zM287 1122q0 57 41 98.5t98 41.5
t98 -41.5t41 -98.5t-41 -98t-98 -41t-98 41t-41 98z" />
    <glyph glyph-name="eth" unicode="&#xf0;" horiz-adv-x="1056" 
d="M815 942h-209l-88 -145q125 -5 229 -62.5t164 -151.5t60 -202q0 -166 -130 -285t-313 -119q-184 0 -313 119t-129 285q0 132 86 270l180 291h-90q-11 0 -21 9.5t-10 19.5v86q0 12 10 21t21 9h180l45 74q14 25 43 25h150q20 0 33 -12.5t16 -32.5l-33 -54h119q11 0 21 -9
t10 -21v-86q0 -10 -10 -19.5t-21 -9.5zM528 199q86 0 143.5 54t57.5 138q0 80 -58.5 136.5t-142.5 56.5t-142 -56.5t-58 -136.5q0 -84 57 -138t143 -54z" />
    <glyph glyph-name="ntilde" unicode="&#xf1;" horiz-adv-x="1069" 
d="M963 559v-506q0 -20 -16 -36.5t-36 -16.5h-145q-20 0 -35.5 16.5t-15.5 36.5v430q0 17 -0.5 27.5t-3.5 32t-8.5 36.5t-17.5 33.5t-28.5 30t-42.5 19.5t-59 8q-42 0 -75 -16t-52 -40t-31.5 -53t-17 -52t-4.5 -42v-414q0 -20 -15.5 -36.5t-35.5 -16.5h-146
q-20 0 -35.5 16.5t-15.5 36.5v762q0 20 15.5 36.5t35.5 16.5h146q20 0 35.5 -16.5t15.5 -36.5v-22q30 34 71 56.5t81.5 30t59.5 9.5t34 2q67 0 122 -18t89.5 -45t60.5 -63.5t39 -68.5t20.5 -65t9 -48.5t1.5 -23.5zM440 1075q-53 0 -71 -51q-9 -31 -43 -31h-105
q-20 0 -32.5 13.5t-12.5 33.5q6 66 29 115t52 72t57.5 36t47.5 15l19 2q52 0 96.5 -14t69.5 -31t53 -31t51 -14q54 0 72 51q9 31 43 31h104q20 0 32.5 -13.5t12.5 -33.5q-6 -66 -29 -115t-52 -72t-57 -36t-47 -15l-19 -2q-45 1 -100 23.5t-101 44.5t-70 22z" />
    <glyph glyph-name="ograve" unicode="&#xf2;" horiz-adv-x="1134" 
d="M567 891q199 0 340.5 -134t141.5 -323t-141.5 -323t-340.5 -134t-340 134t-141 323t141 323t340 134zM567 199q99 0 168.5 67.5t69.5 167.5t-69.5 168t-168.5 68t-168 -68t-69 -168t69 -167.5t168 -67.5zM418 1014l-125 196q0 21 15 36.5t38 15.5h152q13 0 27 -9.5
t20 -21.5l98 -193q0 -22 -15 -37.5t-38 -15.5h-127q-27 0 -45 29z" />
    <glyph glyph-name="oacute" unicode="&#xf3;" horiz-adv-x="1134" 
d="M567 891q199 0 340.5 -134t141.5 -323t-141.5 -323t-340.5 -134t-340 134t-141 323t141 323t340 134zM567 199q99 0 168.5 67.5t69.5 167.5t-69.5 168t-168.5 68t-168 -68t-69 -168t69 -167.5t168 -67.5zM834 1210l-125 -196q-18 -29 -45 -29h-127q-23 0 -38.5 15.5
t-15.5 37.5l99 193q6 12 20 21.5t27 9.5h151q23 0 38.5 -15.5t15.5 -36.5z" />
    <glyph glyph-name="ocircumflex" unicode="&#xf4;" horiz-adv-x="1134" 
d="M567 891q199 0 340.5 -134t141.5 -323t-141.5 -323t-340.5 -134t-340 134t-141 323t141 323t340 134zM567 199q99 0 168.5 67.5t69.5 167.5t-69.5 168t-168.5 68t-168 -68t-69 -168t69 -167.5t168 -67.5zM459 1350h215q34 0 55 -41l123 -260q0 -25 -18.5 -44.5
t-42.5 -19.5h-115q-18 0 -33.5 10t-21.5 27l-56 117l-53 -117q-6 -17 -21.5 -27t-33.5 -10h-113q-26 0 -44.5 19.5t-18.5 44.5l122 260q21 41 56 41z" />
    <glyph glyph-name="otilde" unicode="&#xf5;" horiz-adv-x="1134" 
d="M567 891q199 0 340.5 -134t141.5 -323t-141.5 -323t-340.5 -134t-340 134t-141 323t141 323t340 134zM567 199q99 0 168.5 67.5t69.5 167.5t-69.5 168t-168.5 68t-168 -68t-69 -168t69 -167.5t168 -67.5zM463 1075q-54 0 -72 -51q-9 -31 -43 -31h-104q-20 0 -32.5 13.5
t-12.5 33.5q6 66 29 115t52 72t57 36t47 15l19 2q52 0 97 -14t69.5 -31t53 -31t51.5 -14q53 0 71 51q9 31 43 31h105q20 0 32.5 -13.5t12.5 -33.5q-6 -66 -29 -115t-52 -72t-57.5 -36t-47.5 -15l-19 -2q-45 1 -99.5 23.5t-100.5 44.5t-70 22z" />
    <glyph glyph-name="odieresis" unicode="&#xf6;" horiz-adv-x="1134" 
d="M567 891q199 0 340.5 -134t141.5 -323t-141.5 -323t-340.5 -134t-340 134t-141 323t141 323t340 134zM567 199q99 0 168.5 67.5t69.5 167.5t-69.5 168t-168.5 68t-168 -68t-69 -168t69 -167.5t168 -67.5zM254 1124q0 57 41 98.5t98 41.5t98 -41.5t41 -98.5t-41 -98
t-98 -41t-98 41t-41 98zM604 1124q0 57 41 98.5t98 41.5t98.5 -41.5t41.5 -98.5t-41.5 -98t-98.5 -41t-98 41t-41 98z" />
    <glyph glyph-name="divide" unicode="&#xf7;" horiz-adv-x="856" 
d="M682 287h-508q-17 0 -32 14t-15 31v143q0 18 14.5 32.5t32.5 14.5h508q18 0 32.5 -14.5t14.5 -32.5v-143q0 -17 -15 -31t-32 -14zM311 94q0 47 35 83t82 36t83 -36t36 -83t-36 -82t-83 -35t-82 35t-35 82zM311 715q0 47 35 81.5t82 34.5q48 0 83.5 -34.5t35.5 -81.5
t-36 -83t-83 -36t-82 36t-35 83z" />
    <glyph glyph-name="oslash" unicode="&#xf8;" horiz-adv-x="1134" 
d="M211 -137l80 196q-96 64 -150.5 162t-54.5 213q0 189 141 323t340 134q22 0 58 -4l55 135q3 13 14.5 20t24.5 7h141q19 0 33 -14.5t14 -33.5l-76 -186q100 -63 159 -163.5t59 -217.5q0 -189 -141.5 -323t-340.5 -134q-17 0 -67 5l-56 -140q-10 -26 -41 -26h-145
q-18 0 -32.5 14.5t-14.5 32.5zM805 434q0 95 -62 160l-157 -395q94 8 156.5 73.5t62.5 161.5zM330 434q0 -89 51 -149l156 383q-89 -11 -148 -76t-59 -158z" />
    <glyph glyph-name="ugrave" unicode="&#xf9;" horiz-adv-x="1073" 
d="M537 -23q-78 0 -143 17.5t-107.5 45.5t-74.5 67t-49.5 76.5t-28.5 80t-14 72t-3 57.5v422q0 20 15.5 36.5t35.5 16.5h145q20 0 36 -16.5t16 -36.5v-430q0 -27 5 -52.5t20.5 -59t53 -54t93.5 -20.5t93.5 20.5t53 54t20.5 59t5 52.5v430q0 20 15.5 36.5t35.5 16.5h145
q20 0 35.5 -16.5t15.5 -36.5v-422q0 -28 -3 -57.5t-13.5 -72t-28 -80t-50 -76.5t-75 -67t-107 -45.5t-142.5 -17.5zM406 1014l-125 196q0 21 15 36.5t38 15.5h151q13 0 27 -9.5t20 -21.5l99 -193q0 -22 -15 -37.5t-38 -15.5h-127q-27 0 -45 29z" />
    <glyph glyph-name="uacute" unicode="&#xfa;" horiz-adv-x="1073" 
d="M537 -23q-78 0 -143 17.5t-107.5 45.5t-74.5 67t-49.5 76.5t-28.5 80t-14 72t-3 57.5v422q0 20 15.5 36.5t35.5 16.5h145q20 0 36 -16.5t16 -36.5v-430q0 -27 5 -52.5t20.5 -59t53 -54t93.5 -20.5t93.5 20.5t53 54t20.5 59t5 52.5v430q0 20 15.5 36.5t35.5 16.5h145
q20 0 35.5 -16.5t15.5 -36.5v-422q0 -28 -3 -57.5t-13.5 -72t-28 -80t-50 -76.5t-75 -67t-107 -45.5t-142.5 -17.5zM799 1210l-125 -196q-18 -29 -45 -29h-127q-23 0 -38 15.5t-15 37.5l98 193q6 12 20 21.5t27 9.5h151q23 0 38.5 -15.5t15.5 -36.5z" />
    <glyph glyph-name="ucircumflex" unicode="&#xfb;" horiz-adv-x="1073" 
d="M537 -23q-78 0 -143 17.5t-107.5 45.5t-74.5 67t-49.5 76.5t-28.5 80t-14 72t-3 57.5v422q0 20 15.5 36.5t35.5 16.5h145q20 0 36 -16.5t16 -36.5v-430q0 -27 5 -52.5t20.5 -59t53 -54t93.5 -20.5t93.5 20.5t53 54t20.5 59t5 52.5v430q0 20 15.5 36.5t35.5 16.5h145
q20 0 35.5 -16.5t15.5 -36.5v-422q0 -28 -3 -57.5t-13.5 -72t-28 -80t-50 -76.5t-75 -67t-107 -45.5t-142.5 -17.5zM430 1350h215q35 0 55 -41l123 -260q0 -25 -18.5 -44.5t-42.5 -19.5h-115q-18 0 -33.5 10t-21.5 27l-55 117l-54 -117q-6 -17 -21.5 -27t-33.5 -10h-113
q-26 0 -44.5 19.5t-18.5 44.5l123 260q21 41 55 41z" />
    <glyph glyph-name="udieresis" unicode="&#xfc;" horiz-adv-x="1073" 
d="M537 -23q-78 0 -143 17.5t-107.5 45.5t-74.5 67t-49.5 76.5t-28.5 80t-14 72t-3 57.5v422q0 20 15.5 36.5t35.5 16.5h145q20 0 36 -16.5t16 -36.5v-430q0 -27 5 -52.5t20.5 -59t53 -54t93.5 -20.5t93.5 20.5t53 54t20.5 59t5 52.5v430q0 20 15.5 36.5t35.5 16.5h145
q20 0 35.5 -16.5t15.5 -36.5v-422q0 -28 -3 -57.5t-13.5 -72t-28 -80t-50 -76.5t-75 -67t-107 -45.5t-142.5 -17.5zM223 1124q0 57 41 98.5t98 41.5t98.5 -41.5t41.5 -98.5t-41.5 -98t-98.5 -41t-98 41t-41 98zM573 1124q0 57 41.5 98.5t98.5 41.5t98 -41.5t41 -98.5
t-41 -98t-98 -41t-98.5 41t-41.5 98z" />
    <glyph glyph-name="yacute" unicode="&#xfd;" horiz-adv-x="995" 
d="M152 -145h32q155 0 193 125l-332 835q0 20 15.5 36.5t35.5 16.5h164q33 0 47 -34l191 -568l190 568q14 34 47 34h164q20 0 35.5 -16.5t15.5 -36.5l-356 -895q-29 -73 -66 -125.5t-71.5 -81.5t-77.5 -45.5t-76 -21t-74 -4.5h-75q-15 0 -31.5 14t-16.5 29v125q0 17 15 31
t31 14zM774 1210l-125 -196q-18 -29 -45 -29h-127q-23 0 -38 15.5t-15 37.5l98 193q6 12 20 21.5t27 9.5h152q23 0 38 -15.5t15 -36.5z" />
    <glyph glyph-name="thorn" unicode="&#xfe;" horiz-adv-x="1187" 
d="M375 1174v-392q33 37 72.5 61t82 33.5t70 12t64.5 2.5q183 0 310.5 -134t127.5 -323t-127.5 -323t-310.5 -134q-37 0 -64.5 2.5t-70 12t-82 33.5t-72.5 61v-391q0 -20 -15.5 -36.5t-35.5 -16.5h-146q-20 0 -35.5 16.5t-15.5 36.5v1479q0 20 15.5 36.5t35.5 16.5h146
q20 0 35.5 -16.5t15.5 -36.5zM616 670q-103 0 -172 -67t-69 -169v-10q4 -98 72.5 -161.5t168.5 -63.5q101 0 169.5 66.5t68.5 168.5t-68.5 169t-169.5 67z" />
    <glyph glyph-name="ydieresis" unicode="&#xff;" horiz-adv-x="995" 
d="M152 -145h32q155 0 193 125l-332 835q0 20 15.5 36.5t35.5 16.5h164q33 0 47 -34l191 -568l190 568q14 34 47 34h164q20 0 35.5 -16.5t15.5 -36.5l-356 -895q-29 -73 -66 -125.5t-71.5 -81.5t-77.5 -45.5t-76 -21t-74 -4.5h-75q-15 0 -31.5 14t-16.5 29v125q0 17 15 31
t31 14zM184 1124q0 57 41.5 98.5t98.5 41.5t98 -41.5t41 -98.5t-41 -98t-98 -41t-98.5 41t-41.5 98zM535 1124q0 57 41 98.5t98 41.5t98 -41.5t41 -98.5t-41 -98t-98 -41t-98 41t-41 98z" />
    <glyph glyph-name="Amacron" unicode="&#x100;" horiz-adv-x="1218" 
d="M774 1155l404 -1102q0 -20 -17 -36.5t-37 -16.5h-163q-15 0 -28.5 10t-17.5 25l-59 168h-494l-59 -168q-4 -15 -17.5 -25t-27.5 -10h-164q-20 0 -36.5 16.5t-16.5 36.5l403 1102q5 12 20 21.5t34 9.5h223q35 0 53 -31zM440 424h338l-170 481zM860 1290h-498q-17 0 -32 14
t-15 31v125q0 18 14.5 32.5t32.5 14.5h498q18 0 32.5 -14.5t14.5 -32.5v-125q0 -17 -15 -31t-32 -14z" />
    <glyph glyph-name="amacron" unicode="&#x101;" horiz-adv-x="1187" 
d="M813 53v33q-33 -37 -72.5 -61t-82 -33.5t-70 -12t-64.5 -2.5q-183 0 -310.5 134t-127.5 323t127.5 323t310.5 134q37 0 64.5 -2.5t70 -12t82 -33.5t72.5 -61v33q0 20 15.5 36.5t35.5 16.5h146q20 0 35.5 -16.5t15.5 -36.5v-762q0 -20 -15.5 -36.5t-35.5 -16.5h-146
q-20 0 -35.5 16.5t-15.5 36.5zM571 199q103 0 172.5 66.5t69.5 168.5v10q-4 98 -73 162t-169 64q-101 0 -169 -67t-68 -169t68 -168.5t169 -66.5zM834 985h-498q-17 0 -32 14t-15 31v125q0 18 14.5 32.5t32.5 14.5h498q18 0 32.5 -14.5t14.5 -32.5v-125q0 -17 -15 -31
t-32 -14z" />
    <glyph glyph-name="Abreve" unicode="&#x102;" horiz-adv-x="1218" 
d="M774 1155l404 -1102q0 -20 -17 -36.5t-37 -16.5h-163q-15 0 -28.5 10t-17.5 25l-59 168h-494l-59 -168q-4 -15 -17.5 -25t-27.5 -10h-164q-20 0 -36.5 16.5t-16.5 36.5l403 1102q5 12 20 21.5t34 9.5h223q35 0 53 -31zM440 424h338l-170 481zM612 1290
q-162 0 -261.5 74.5t-119.5 212.5q0 19 14.5 34t33.5 15h131q15 0 27.5 -10.5t17.5 -24.5q16 -54 59.5 -78t97.5 -24t98 24t60 78q5 14 17.5 24.5t27.5 10.5h131q19 0 33 -15t14 -34q-20 -138 -119.5 -212.5t-261.5 -74.5z" />
    <glyph glyph-name="abreve" unicode="&#x103;" horiz-adv-x="1187" 
d="M813 53v33q-33 -37 -72.5 -61t-82 -33.5t-70 -12t-64.5 -2.5q-183 0 -310.5 134t-127.5 323t127.5 323t310.5 134q37 0 64.5 -2.5t70 -12t82 -33.5t72.5 -61v33q0 20 15.5 36.5t35.5 16.5h146q20 0 35.5 -16.5t15.5 -36.5v-762q0 -20 -15.5 -36.5t-35.5 -16.5h-146
q-20 0 -35.5 16.5t-15.5 36.5zM571 199q103 0 172.5 66.5t69.5 168.5v10q-4 98 -73 162t-169 64q-101 0 -169 -67t-68 -169t68 -168.5t169 -66.5zM584 985q-162 0 -261.5 74.5t-119.5 212.5q0 19 14 34t33 15h131q15 0 27.5 -10.5t17.5 -24.5q16 -54 60 -78t98 -24t97.5 24
t59.5 78q5 14 17.5 24.5t27.5 10.5h132q19 0 33 -15t14 -34q-20 -138 -119.5 -212.5t-261.5 -74.5z" />
    <glyph glyph-name="Aogonek" unicode="&#x104;" horiz-adv-x="1218" 
d="M774 1155l404 -1102q0 -20 -17 -36.5t-37 -16.5q-57 0 -86 -10q-2 0 -4.5 -1t-9.5 -5t-12.5 -9t-10 -15t-4.5 -21q0 -22 17.5 -35t48.5 -13l47 7q13 0 23 -10.5t10 -22.5v-82q0 -13 -10 -22t-23 -11q-58 -8 -102 -8q-25 0 -55 6t-69 22.5t-65 54t-26 91.5q0 32 11.5 58.5
t28.5 41t34 24.5t29 14l11 3l-51 146h-494l-59 -168q-4 -15 -17.5 -25t-27.5 -10h-164q-20 0 -36.5 16.5t-16.5 36.5l403 1102q5 12 20 21.5t34 9.5h223q35 0 53 -31zM440 424h338l-170 481z" />
    <glyph glyph-name="aogonek" unicode="&#x105;" horiz-adv-x="1187" 
d="M1061 815v-846q0 -24 -29 -28q-59 0 -88 -11q-2 0 -4.5 -1t-9.5 -5t-12.5 -9t-10 -15t-4.5 -21q0 -22 17.5 -34.5t48.5 -12.5l47 6q13 0 23 -10.5t10 -22.5v-81q0 -13 -10 -22t-23 -11q-58 -8 -103 -8q-25 0 -55 6t-69 22.5t-65 54t-26 91.5q0 32 12 58.5t29 41
t33.5 24.5t28.5 13l12 4v88q-33 -37 -72.5 -61t-82 -33.5t-70 -12t-64.5 -2.5q-183 0 -310.5 134t-127.5 323t127.5 323t310.5 134q37 0 64.5 -2.5t70 -12t82 -33.5t72.5 -61v33q0 20 15.5 36.5t35.5 16.5h146q20 0 35.5 -16.5t15.5 -36.5zM571 199q103 0 172.5 66.5
t69.5 168.5v10q-4 98 -73 162t-169 64q-101 0 -169 -67t-68 -169t68 -168.5t169 -66.5z" />
    <glyph glyph-name="Cacute" unicode="&#x106;" horiz-adv-x="1398" 
d="M739 -23q-173 0 -319 82.5t-230 224t-84 308.5q0 125 50 239t134.5 196t201.5 130.5t247 48.5q200 0 360 -108.5t230 -282.5q-3 -20 -18 -33.5t-35 -13.5h-166q-30 0 -43 27q-50 88 -137 139t-191 51q-160 0 -270.5 -113.5t-110.5 -279.5q0 -162 111 -277.5t270 -115.5
q104 0 191 51t137 139q13 27 43 27h166q20 0 35 -13.5t18 -33.5q-70 -175 -230.5 -283.5t-359.5 -108.5zM977 1516l-125 -197q-18 -29 -45 -29h-127q-23 0 -38 15.5t-15 37.5l98 193q6 12 20 21.5t27 9.5h152q23 0 38 -15t15 -36z" />
    <glyph glyph-name="cacute" unicode="&#x107;" horiz-adv-x="1067" 
d="M561 -23q-196 0 -335.5 134t-139.5 323t139.5 323t335.5 134q147 0 267 -81t173 -212q-3 -21 -18.5 -35t-36.5 -14h-164q-30 0 -43 26q-62 95 -182 95q-96 0 -161.5 -67.5t-65.5 -168.5t65.5 -168t161.5 -67q121 0 182 94q13 26 43 26h164q21 0 36.5 -14t18.5 -35
q-53 -131 -173 -212t-267 -81zM801 1210l-125 -196q-18 -29 -45 -29h-127q-23 0 -38 15.5t-15 37.5l98 193q6 12 20 21.5t27 9.5h152q23 0 38 -15.5t15 -36.5z" />
    <glyph glyph-name="Ccircumflex" unicode="&#x108;" horiz-adv-x="1398" 
d="M739 -23q-173 0 -319 82.5t-230 224t-84 308.5q0 125 50 239t134.5 196t201.5 130.5t247 48.5q200 0 360 -108.5t230 -282.5q-3 -20 -18 -33.5t-35 -13.5h-166q-30 0 -43 27q-50 88 -137 139t-191 51q-160 0 -270.5 -113.5t-110.5 -279.5q0 -162 111 -277.5t270 -115.5
q104 0 191 51t137 139q13 27 43 27h166q20 0 35 -13.5t18 -33.5q-70 -175 -230.5 -283.5t-359.5 -108.5zM635 1655h215q34 0 55 -41l123 -260q0 -25 -18.5 -44.5t-42.5 -19.5h-115q-18 0 -33.5 10t-21.5 27l-56 117l-53 -117q-6 -17 -21.5 -27t-33.5 -10h-113
q-26 0 -44.5 19.5t-18.5 44.5l123 260q20 41 55 41z" />
    <glyph glyph-name="ccircumflex" unicode="&#x109;" horiz-adv-x="1067" 
d="M561 -23q-196 0 -335.5 134t-139.5 323t139.5 323t335.5 134q147 0 267 -81t173 -212q-3 -21 -18.5 -35t-36.5 -14h-164q-30 0 -43 26q-62 95 -182 95q-96 0 -161.5 -67.5t-65.5 -168.5t65.5 -168t161.5 -67q121 0 182 94q13 26 43 26h164q21 0 36.5 -14t18.5 -35
q-53 -131 -173 -212t-267 -81zM459 1350h215q34 0 55 -41l123 -260q0 -25 -18.5 -44.5t-42.5 -19.5h-115q-18 0 -33.5 10t-21.5 27l-56 117l-53 -117q-6 -17 -21.5 -27t-33.5 -10h-113q-26 0 -44.5 19.5t-18.5 44.5l122 260q21 41 56 41z" />
    <glyph glyph-name="Cdotaccent" unicode="&#x10a;" horiz-adv-x="1398" 
d="M739 -23q-173 0 -319 82.5t-230 224t-84 308.5q0 125 50 239t134.5 196t201.5 130.5t247 48.5q200 0 360 -108.5t230 -282.5q-3 -20 -18 -33.5t-35 -13.5h-166q-30 0 -43 27q-50 88 -137 139t-191 51q-160 0 -270.5 -113.5t-110.5 -279.5q0 -162 111 -277.5t270 -115.5
q104 0 191 51t137 139q13 27 43 27h166q20 0 35 -13.5t18 -33.5q-70 -175 -230.5 -283.5t-359.5 -108.5zM604 1430q0 57 41 98t98 41t98.5 -41t41.5 -98t-41.5 -98.5t-98.5 -41.5t-98 41.5t-41 98.5z" />
    <glyph glyph-name="cdotaccent" unicode="&#x10b;" horiz-adv-x="1067" 
d="M561 -23q-196 0 -335.5 134t-139.5 323t139.5 323t335.5 134q147 0 267 -81t173 -212q-3 -21 -18.5 -35t-36.5 -14h-164q-30 0 -43 26q-62 95 -182 95q-96 0 -161.5 -67.5t-65.5 -168.5t65.5 -168t161.5 -67q121 0 182 94q13 26 43 26h164q21 0 36.5 -14t18.5 -35
q-53 -131 -173 -212t-267 -81zM424 1124q0 57 41 98.5t98 41.5t98 -41.5t41 -98.5t-41 -98t-98 -41t-98 41t-41 98z" />
    <glyph glyph-name="Ccaron" unicode="&#x10c;" horiz-adv-x="1398" 
d="M739 -23q-173 0 -319 82.5t-230 224t-84 308.5q0 125 50 239t134.5 196t201.5 130.5t247 48.5q200 0 360 -108.5t230 -282.5q-3 -20 -18 -33.5t-35 -13.5h-166q-30 0 -43 27q-50 88 -137 139t-191 51q-160 0 -270.5 -113.5t-110.5 -279.5q0 -162 111 -277.5t270 -115.5
q104 0 191 51t137 139q13 27 43 27h166q20 0 35 -13.5t18 -33.5q-70 -175 -230.5 -283.5t-359.5 -108.5zM844 1290h-215q-35 0 -56 41l-122 260q0 25 18.5 44.5t44.5 19.5h113q18 0 33.5 -10t21.5 -27l53 -117l56 117q6 17 21.5 27t33.5 10h115q24 0 42.5 -19.5t18.5 -44.5
l-123 -260q-21 -41 -55 -41z" />
    <glyph glyph-name="ccaron" unicode="&#x10d;" horiz-adv-x="1067" 
d="M561 -23q-196 0 -335.5 134t-139.5 323t139.5 323t335.5 134q147 0 267 -81t173 -212q-3 -21 -18.5 -35t-36.5 -14h-164q-30 0 -43 26q-62 95 -182 95q-96 0 -161.5 -67.5t-65.5 -168.5t65.5 -168t161.5 -67q121 0 182 94q13 26 43 26h164q21 0 36.5 -14t18.5 -35
q-53 -131 -173 -212t-267 -81zM668 985h-215q-35 0 -56 41l-123 260q0 25 19 44.5t45 19.5h113q18 0 33.5 -10t21.5 -27l53 -117l55 117q6 17 22 27t34 10h114q25 0 43.5 -19.5t18.5 -44.5l-123 -260q-21 -41 -55 -41z" />
    <glyph glyph-name="Dcaron" unicode="&#x10e;" horiz-adv-x="1269" 
d="M178 1186h412q173 0 309 -78t210.5 -213t74.5 -303t-74.5 -302.5t-210.5 -212t-309 -77.5h-412q-20 0 -35.5 16.5t-15.5 36.5v1080q0 20 15.5 36.5t35.5 16.5zM590 965h-215v-744h215q157 0 248.5 102.5t91.5 268.5t-91.5 269.5t-248.5 103.5zM645 1290h-215
q-34 0 -55 41l-123 260q0 25 18.5 44.5t44.5 19.5h113q18 0 33.5 -10t21.5 -27l54 -117l55 117q6 17 21.5 27t33.5 10h115q24 0 42.5 -19.5t18.5 -44.5l-123 -260q-20 -41 -55 -41z" />
    <glyph glyph-name="dcaron" unicode="&#x10f;" horiz-adv-x="1595" 
d="M813 53v33q-33 -37 -72.5 -61t-82 -33.5t-70 -12t-64.5 -2.5q-183 0 -310.5 134t-127.5 323t127.5 323t310.5 134q37 0 64.5 -2.5t70 -12t82 -33.5t72.5 -61v392q0 20 15.5 36.5t35.5 16.5h146q20 0 35.5 -16.5t15.5 -36.5v-1121q0 -20 -15.5 -36.5t-35.5 -16.5h-146
q-20 0 -35.5 16.5t-15.5 36.5zM571 199q103 0 172.5 66.5t69.5 168.5v10q-4 98 -73 162t-169 64q-101 0 -169 -67t-68 -169t68 -168.5t169 -66.5zM1587 1180l-110 -228q-15 -26 -43 -26h-127q-21 0 -33 13t-12 36l86 223q5 11 17 20t24 9h151q21 0 34 -14t13 -33z" />
    <glyph glyph-name="Dcroat" unicode="&#x110;" horiz-adv-x="1304" 
d="M625 1186q173 0 309 -78t210.5 -213t74.5 -303t-74.5 -302.5t-210.5 -212t-309 -77.5h-412q-20 0 -35.5 16.5t-15.5 36.5v430h-86q-17 0 -32 14t-15 31v127q0 18 14.5 32.5t32.5 14.5h86v431q0 20 15.5 36.5t35.5 16.5h412zM625 221q157 0 248.5 102.5t91.5 268.5
t-91.5 269.5t-248.5 103.5h-215v-263h163q18 0 33 -14.5t15 -32.5v-127q0 -17 -15 -31t-33 -14h-163v-262h215z" />
    <glyph glyph-name="dcroat" unicode="&#x111;" horiz-adv-x="1198" 
d="M1133 954h-72v-901q0 -20 -15.5 -36.5t-35.5 -16.5h-146q-20 0 -35.5 16.5t-15.5 36.5v33q-33 -37 -72.5 -61t-82 -33.5t-70 -12t-64.5 -2.5q-183 0 -310.5 134t-127.5 323t127.5 323t310.5 134q37 0 64.5 -2.5t70 -12t82 -33.5t72.5 -61v172h-84q-14 0 -25.5 11
t-11.5 24v96q0 15 11.5 26t25.5 11h84v52q0 20 15.5 36.5t35.5 16.5h146q20 0 35.5 -16.5t15.5 -36.5v-52h72q14 0 25 -11t11 -26v-96q0 -13 -11 -24t-25 -11zM571 199q103 0 172.5 66.5t69.5 168.5v10q-4 98 -73 162t-169 64q-101 0 -169 -67t-68 -169t68 -168.5t169 -66.5
z" />
    <glyph glyph-name="Emacron" unicode="&#x112;" horiz-adv-x="1036" 
d="M375 219h520q17 0 32 -14t15 -31v-127q0 -18 -14.5 -32.5t-32.5 -14.5h-717q-20 0 -35.5 16.5t-15.5 36.5v1080q0 20 15.5 36.5t35.5 16.5h717q18 0 32.5 -14.5t14.5 -32.5v-129q0 -17 -15 -31t-32 -14h-520v-273h475q18 0 32.5 -14.5t14.5 -32.5v-129q0 -17 -15 -31
t-32 -14h-475v-252zM786 1290h-497q-17 0 -32 14t-15 31v125q0 18 14.5 32.5t32.5 14.5h497q18 0 33 -14.5t15 -32.5v-125q0 -17 -15 -31t-33 -14z" />
    <glyph glyph-name="emacron" unicode="&#x113;" horiz-adv-x="1067" 
d="M557 670q-70 0 -124.5 -35t-82.5 -107h414q-58 142 -207 142zM850 47q-154 -70 -289 -70q-196 0 -335.5 134t-139.5 323t139.5 323t335.5 134q86 0 164 -31t139 -88.5t97 -149.5t36 -206v-39q0 -17 -15 -31t-32 -14h-604q40 -133 211 -133q90 0 180 41q4 2 15 2
q27 0 47 -23l73 -86q11 -18 11 -35q0 -33 -33 -51zM791 983h-498q-17 0 -32 14t-15 31v127q0 18 14.5 32.5t32.5 14.5h498q18 0 32.5 -14.5t14.5 -32.5v-127q0 -17 -15 -31t-32 -14z" />
    <glyph glyph-name="Edotaccent" unicode="&#x116;" horiz-adv-x="1036" 
d="M375 219h520q17 0 32 -14t15 -31v-127q0 -18 -14.5 -32.5t-32.5 -14.5h-717q-20 0 -35.5 16.5t-15.5 36.5v1080q0 20 15.5 36.5t35.5 16.5h717q18 0 32.5 -14.5t14.5 -32.5v-129q0 -17 -15 -31t-32 -14h-520v-273h475q18 0 32.5 -14.5t14.5 -32.5v-129q0 -17 -15 -31
t-32 -14h-475v-252zM395 1430q0 57 41.5 98t98.5 41t98 -41t41 -98t-41 -98.5t-98 -41.5t-98.5 41.5t-41.5 98.5z" />
    <glyph glyph-name="edotaccent" unicode="&#x117;" horiz-adv-x="1067" 
d="M557 670q-70 0 -124.5 -35t-82.5 -107h414q-58 142 -207 142zM850 47q-154 -70 -289 -70q-196 0 -335.5 134t-139.5 323t139.5 323t335.5 134q86 0 164 -31t139 -88.5t97 -149.5t36 -206v-39q0 -17 -15 -31t-32 -14h-604q40 -133 211 -133q90 0 180 41q4 2 15 2
q27 0 47 -23l73 -86q11 -18 11 -35q0 -33 -33 -51zM420 1124q0 57 41 98.5t98 41.5t98 -41.5t41 -98.5t-41 -98t-98 -41t-98 41t-41 98z" />
    <glyph glyph-name="Eogonek" unicode="&#x118;" horiz-adv-x="1036" 
d="M375 219h520q17 0 32 -14t15 -31v-127q0 -18 -14.5 -32.5t-32.5 -14.5h-53q-107 -12 -107 -61q0 -22 18 -35t50 -13l43 7q15 0 25 -10.5t10 -24.5v-78q0 -14 -10 -23.5t-23 -11.5q-66 -8 -103 -8q-24 0 -53.5 6t-68.5 22.5t-65 54t-26 91.5q0 50 27 84h-381
q-20 0 -35.5 16.5t-15.5 36.5v1080q0 20 15.5 36.5t35.5 16.5h717q18 0 32.5 -14.5t14.5 -32.5v-129q0 -17 -15 -31t-32 -14h-520v-273h475q18 0 32.5 -14.5t14.5 -32.5v-129q0 -17 -15 -31t-32 -14h-475v-252z" />
    <glyph glyph-name="eogonek" unicode="&#x119;" horiz-adv-x="1067" 
d="M850 47q-100 -47 -211 -63q-31 -27 -31 -54q0 -22 17.5 -34.5t48.5 -12.5l47 6q13 0 23 -10t10 -22v-82q0 -13 -10 -22t-23 -11q-58 -8 -103 -8q-25 0 -55 6t-69 22.5t-65 54t-26 91.5q0 52 29 88q-151 40 -248.5 161.5t-97.5 276.5q0 189 139.5 323t335.5 134
q86 0 164 -31t139 -88.5t97 -149.5t36 -206v-39q0 -17 -15 -31t-32 -14h-604q40 -133 211 -133q90 0 180 41q4 2 15 2q27 0 47 -23l73 -86q11 -18 11 -35q0 -33 -33 -51zM557 670q-70 0 -124.5 -35t-82.5 -107h414q-58 142 -207 142z" />
    <glyph glyph-name="Ecaron" unicode="&#x11a;" horiz-adv-x="1036" 
d="M375 219h520q17 0 32 -14t15 -31v-127q0 -18 -14.5 -32.5t-32.5 -14.5h-717q-20 0 -35.5 16.5t-15.5 36.5v1080q0 20 15.5 36.5t35.5 16.5h717q18 0 32.5 -14.5t14.5 -32.5v-129q0 -17 -15 -31t-32 -14h-520v-273h475q18 0 32.5 -14.5t14.5 -32.5v-129q0 -17 -15 -31
t-32 -14h-475v-252zM666 1290h-215q-35 0 -56 41l-123 260q0 25 19 44.5t45 19.5h113q18 0 33.5 -10t21.5 -27l53 -117l55 117q6 17 22 27t34 10h114q25 0 43.5 -19.5t18.5 -44.5l-123 -260q-21 -41 -55 -41z" />
    <glyph glyph-name="ecaron" unicode="&#x11b;" horiz-adv-x="1067" 
d="M557 670q-70 0 -124.5 -35t-82.5 -107h414q-58 142 -207 142zM850 47q-154 -70 -289 -70q-196 0 -335.5 134t-139.5 323t139.5 323t335.5 134q86 0 164 -31t139 -88.5t97 -149.5t36 -206v-39q0 -17 -15 -31t-32 -14h-604q40 -133 211 -133q90 0 180 41q4 2 15 2
q27 0 47 -23l73 -86q11 -18 11 -35q0 -33 -33 -51zM674 985h-215q-35 0 -56 41l-122 260q0 25 18.5 44.5t44.5 19.5h113q18 0 33.5 -10t21.5 -27l53 -117l56 117q6 17 21.5 27t33.5 10h115q24 0 42.5 -19.5t18.5 -44.5l-123 -260q-21 -41 -55 -41z" />
    <glyph glyph-name="Gcircumflex" unicode="&#x11c;" horiz-adv-x="1425" 
d="M1075 463h-221q-19 0 -34 14t-15 33v119q0 19 15 33t34 14h428q19 0 34 -14t15 -33v-154q-15 -102 -53.5 -184t-84.5 -133t-108 -88t-110.5 -54t-106 -27t-80.5 -11t-47 -1q-130 0 -247.5 48.5t-202.5 131t-135 196.5t-50 239q0 126 49 239t133 195.5t202.5 131
t250.5 48.5q101 0 189.5 -23t151.5 -62t103 -74t72 -74q17 -21 17 -39q0 -24 -21 -41l-100 -70q-18 -12 -29 -12q-16 0 -30 14q-61 80 -153 120t-200 40q-161 0 -272 -113.5t-111 -279.5q0 -162 111.5 -277.5t271.5 -115.5q66 0 120 14.5t87.5 38t59 51.5t37.5 56t19.5 51.5
t9.5 37.5zM635 1655h215q34 0 55 -41l123 -260q0 -25 -18.5 -44.5t-42.5 -19.5h-115q-18 0 -33.5 10t-21.5 27l-56 117l-53 -117q-6 -17 -21.5 -27t-33.5 -10h-113q-26 0 -44.5 19.5t-18.5 44.5l123 260q20 41 55 41z" />
    <glyph glyph-name="gcircumflex" unicode="&#x11d;" horiz-adv-x="1187" 
d="M571 670q-101 0 -169 -67t-68 -169t68 -168.5t169 -66.5q100 0 169 63.5t73 161.5v10q0 102 -69.5 169t-172.5 67zM367 -141q81 -45 221 -45q45 0 95.5 20t90 61.5t39.5 92.5v98q-33 -37 -72.5 -61t-82 -33.5t-70 -12t-64.5 -2.5q-183 0 -310.5 134t-127.5 323t127.5 323
t310.5 134q37 0 64.5 -2.5t70 -12t82 -33.5t72.5 -61v33q0 20 15.5 36.5t35.5 16.5h146q20 0 35.5 -16.5t15.5 -36.5v-799q0 -123 -64 -220.5t-172 -150.5t-239 -53q-167 0 -318 80q-13 4 -21.5 18t-8.5 29q0 17 6 29l61 90q15 27 41 27q12 0 21 -6zM500 1350h215
q35 0 55 -41l123 -260q0 -25 -18.5 -44.5t-43.5 -19.5h-114q-18 0 -33.5 10t-21.5 27l-56 117l-53 -117q-6 -17 -21.5 -27t-33.5 -10h-113q-26 0 -44.5 19.5t-18.5 44.5l122 260q8 17 23.5 29t32.5 12z" />
    <glyph glyph-name="Gbreve" unicode="&#x11e;" horiz-adv-x="1425" 
d="M1075 463h-221q-19 0 -34 14t-15 33v119q0 19 15 33t34 14h428q19 0 34 -14t15 -33v-154q-15 -102 -53.5 -184t-84.5 -133t-108 -88t-110.5 -54t-106 -27t-80.5 -11t-47 -1q-130 0 -247.5 48.5t-202.5 131t-135 196.5t-50 239q0 126 49 239t133 195.5t202.5 131
t250.5 48.5q101 0 189.5 -23t151.5 -62t103 -74t72 -74q17 -21 17 -39q0 -24 -21 -41l-100 -70q-18 -12 -29 -12q-16 0 -30 14q-61 80 -153 120t-200 40q-161 0 -272 -113.5t-111 -279.5q0 -162 111.5 -277.5t271.5 -115.5q66 0 120 14.5t87.5 38t59 51.5t37.5 56t19.5 51.5
t9.5 37.5zM743 1290q-162 0 -261.5 74.5t-119.5 212.5q0 19 14.5 34t33.5 15h131q15 0 27.5 -10.5t17.5 -24.5q16 -54 59.5 -78t97.5 -24t98 24t60 78q5 14 17.5 24.5t27.5 10.5h131q19 0 33 -15t14 -34q-20 -138 -119.5 -212.5t-261.5 -74.5z" />
    <glyph glyph-name="gbreve" unicode="&#x11f;" horiz-adv-x="1187" 
d="M571 670q-101 0 -169 -67t-68 -169t68 -168.5t169 -66.5q100 0 169 63.5t73 161.5v10q0 102 -69.5 169t-172.5 67zM367 -141q81 -45 221 -45q45 0 95.5 20t90 61.5t39.5 92.5v98q-33 -37 -72.5 -61t-82 -33.5t-70 -12t-64.5 -2.5q-183 0 -310.5 134t-127.5 323t127.5 323
t310.5 134q37 0 64.5 -2.5t70 -12t82 -33.5t72.5 -61v33q0 20 15.5 36.5t35.5 16.5h146q20 0 35.5 -16.5t15.5 -36.5v-799q0 -123 -64 -220.5t-172 -150.5t-239 -53q-167 0 -318 80q-13 4 -21.5 18t-8.5 29q0 17 6 29l61 90q15 27 41 27q12 0 21 -6zM600 985
q-162 0 -261.5 74.5t-119.5 212.5q0 19 14 34t33 15h131q15 0 27.5 -10.5t17.5 -24.5q16 -54 60 -78t98 -24t98 24t60 78q5 14 17.5 24.5t27.5 10.5h131q19 0 33 -15t14 -34q-20 -138 -119.5 -212.5t-261.5 -74.5z" />
    <glyph glyph-name="Gdotaccent" unicode="&#x120;" horiz-adv-x="1425" 
d="M1075 463h-221q-19 0 -34 14t-15 33v119q0 19 15 33t34 14h428q19 0 34 -14t15 -33v-154q-15 -102 -53.5 -184t-84.5 -133t-108 -88t-110.5 -54t-106 -27t-80.5 -11t-47 -1q-130 0 -247.5 48.5t-202.5 131t-135 196.5t-50 239q0 126 49 239t133 195.5t202.5 131
t250.5 48.5q101 0 189.5 -23t151.5 -62t103 -74t72 -74q17 -21 17 -39q0 -24 -21 -41l-100 -70q-18 -12 -29 -12q-16 0 -30 14q-61 80 -153 120t-200 40q-161 0 -272 -113.5t-111 -279.5q0 -162 111.5 -277.5t271.5 -115.5q66 0 120 14.5t87.5 38t59 51.5t37.5 56t19.5 51.5
t9.5 37.5zM598 1430q0 57 41 98t98 41t98.5 -41t41.5 -98t-41.5 -98.5t-98.5 -41.5t-98 41.5t-41 98.5z" />
    <glyph glyph-name="gdotaccent" unicode="&#x121;" horiz-adv-x="1187" 
d="M571 670q-101 0 -169 -67t-68 -169t68 -168.5t169 -66.5q100 0 169 63.5t73 161.5v10q0 102 -69.5 169t-172.5 67zM367 -141q81 -45 221 -45q45 0 95.5 20t90 61.5t39.5 92.5v98q-33 -37 -72.5 -61t-82 -33.5t-70 -12t-64.5 -2.5q-183 0 -310.5 134t-127.5 323t127.5 323
t310.5 134q37 0 64.5 -2.5t70 -12t82 -33.5t72.5 -61v33q0 20 15.5 36.5t35.5 16.5h146q20 0 35.5 -16.5t15.5 -36.5v-799q0 -123 -64 -220.5t-172 -150.5t-239 -53q-167 0 -318 80q-13 4 -21.5 18t-8.5 29q0 17 6 29l61 90q15 27 41 27q12 0 21 -6zM430 1124q0 57 41 98.5
t98 41.5t98.5 -41.5t41.5 -98.5t-41.5 -98t-98.5 -41t-98 41t-41 98z" />
    <glyph glyph-name="uni0122" unicode="&#x122;" horiz-adv-x="1425" 
d="M1075 463h-221q-19 0 -34 14t-15 33v119q0 19 15 33t34 14h428q19 0 34 -14t15 -33v-154q-15 -102 -53.5 -184t-84.5 -133t-108 -88t-110.5 -54t-106 -27t-80.5 -11t-47 -1q-130 0 -247.5 48.5t-202.5 131t-135 196.5t-50 239q0 126 49 239t133 195.5t202.5 131
t250.5 48.5q101 0 189.5 -23t151.5 -62t103 -74t72 -74q17 -21 17 -39q0 -24 -21 -41l-100 -70q-18 -12 -29 -12q-16 0 -30 14q-61 80 -153 120t-200 40q-161 0 -272 -113.5t-111 -279.5q0 -162 111.5 -277.5t271.5 -115.5q66 0 120 14.5t87.5 38t59 51.5t37.5 56t19.5 51.5
t9.5 37.5zM854 -160l-86 -176q-18 -29 -45 -29h-127q-23 0 -38 16t-15 38l63 172q6 12 20 21t27 9h148q23 0 38 -15t15 -36z" />
    <glyph glyph-name="uni0123" unicode="&#x123;" horiz-adv-x="1187" 
d="M571 670q-101 0 -169 -67t-68 -169t68 -168.5t169 -66.5q100 0 169 63.5t73 161.5v10q0 102 -69.5 169t-172.5 67zM367 -141q81 -45 221 -45q45 0 95.5 20t90 61.5t39.5 92.5v98q-33 -37 -72.5 -61t-82 -33.5t-70 -12t-64.5 -2.5q-183 0 -310.5 134t-127.5 323t127.5 323
t310.5 134q37 0 64.5 -2.5t70 -12t82 -33.5t72.5 -61v33q0 20 15.5 36.5t35.5 16.5h146q20 0 35.5 -16.5t15.5 -36.5v-799q0 -123 -64 -220.5t-172 -150.5t-239 -53q-167 0 -318 80q-13 4 -21.5 18t-8.5 29q0 17 6 29l61 90q15 27 41 27q12 0 21 -6zM475 1036l125 197
q18 29 45 29h127q23 0 38 -16t15 -38l-98 -192q-6 -12 -20 -21.5t-27 -9.5h-152q-23 0 -38 15t-15 36z" />
    <glyph glyph-name="Hcircumflex" unicode="&#x124;" horiz-adv-x="1232" 
d="M858 53v371h-483v-371q0 -20 -15.5 -36.5t-35.5 -16.5h-146q-20 0 -35.5 16.5t-15.5 36.5v1080q0 20 15.5 36.5t35.5 16.5h146q20 0 35.5 -16.5t15.5 -36.5v-488h483v488q0 20 15.5 36.5t35.5 16.5h146q20 0 35.5 -16.5t15.5 -36.5v-1080q0 -20 -15.5 -36.5t-35.5 -16.5
h-146q-20 0 -35.5 16.5t-15.5 36.5zM508 1655h215q35 0 55 -41l123 -260q0 -25 -18.5 -44.5t-42.5 -19.5h-115q-18 0 -33.5 10t-21.5 27l-56 117l-53 -117q-6 -17 -21.5 -27t-33.5 -10h-113q-26 0 -44.5 19.5t-18.5 44.5l123 260q21 41 55 41z" />
    <glyph glyph-name="hcircumflex" unicode="&#x125;" horiz-adv-x="1069" 
d="M963 559v-506q0 -20 -16 -36.5t-36 -16.5h-145q-20 0 -35.5 16.5t-15.5 36.5v430q0 17 -0.5 27.5t-3.5 32t-8.5 36.5t-17.5 33.5t-28.5 30t-42.5 19.5t-59 8q-42 0 -75 -16t-52 -40t-31.5 -53t-17 -52t-4.5 -42v-414q0 -20 -15.5 -36.5t-35.5 -16.5h-146
q-20 0 -35.5 16.5t-15.5 36.5v1121q0 20 15.5 36.5t35.5 16.5h146q20 0 35.5 -16.5t15.5 -36.5v-381q30 34 71 56.5t81.5 30t59.5 9.5t34 2q67 0 122 -18t89.5 -45t60.5 -63.5t39 -68.5t20.5 -65t9 -48.5t1.5 -23.5zM344 1681h215q35 0 55 -41l123 -260q0 -25 -18 -44
t-43 -19h-115q-18 0 -33.5 10t-21.5 27l-55 116l-54 -116q-6 -17 -21.5 -27t-33.5 -10h-113q-26 0 -44.5 19t-18.5 44l123 260q21 41 55 41z" />
    <glyph glyph-name="Hbar" unicode="&#x126;" horiz-adv-x="1269" 
d="M1174 846h-50v-793q0 -20 -15.5 -36.5t-35.5 -16.5h-145q-20 0 -35.5 16.5t-15.5 36.5v371h-484v-371q0 -20 -15.5 -36.5t-35.5 -16.5h-145q-20 0 -36 16.5t-16 36.5v793h-49q-17 0 -32 14t-15 31v129q0 18 14.5 32.5t32.5 14.5h49v66q0 20 16 36.5t36 16.5h145
q20 0 35.5 -16.5t15.5 -36.5v-66h484v66q0 20 15.5 36.5t35.5 16.5h145q20 0 35.5 -16.5t15.5 -36.5v-66h50q18 0 32.5 -14.5t14.5 -32.5v-129q0 -17 -15 -31t-32 -14zM393 645h484v201h-484v-201z" />
    <glyph glyph-name="hbar" unicode="&#x127;" horiz-adv-x="1079" 
d="M469 954h-84v-161q30 34 71 56.5t81.5 30t59.5 9.5t34 2q67 0 122 -18t89.5 -45t60.5 -63.5t39 -68.5t20.5 -65t9 -48.5t1.5 -23.5v-506q0 -20 -15.5 -36.5t-35.5 -16.5h-146q-20 0 -35.5 16.5t-15.5 36.5v430q0 17 -0.5 27.5t-3.5 32t-8.5 36.5t-17.5 33.5t-28.5 30
t-42.5 19.5t-59 8q-42 0 -75 -16t-52 -40t-31.5 -53t-17 -52t-4.5 -42v-414q0 -20 -15.5 -36.5t-35.5 -16.5h-146q-20 0 -35.5 16.5t-15.5 36.5v901h-71q-14 0 -25.5 11t-11.5 24v96q0 15 11.5 26t25.5 11h71v52q0 20 15.5 36.5t35.5 16.5h146q20 0 35.5 -16.5t15.5 -36.5
v-52h84q14 0 25.5 -11t11.5 -26v-96q0 -13 -11.5 -24t-25.5 -11z" />
    <glyph glyph-name="Itilde" unicode="&#x128;" 
d="M127 53v1080q0 20 15.5 36.5t35.5 16.5h146q20 0 35.5 -16.5t15.5 -36.5v-1080q0 -20 -15.5 -36.5t-35.5 -16.5h-146q-20 0 -35.5 16.5t-15.5 36.5zM168 1370q-58 0 -72 -41q-9 -31 -43 -31h-104q-20 0 -32.5 13.5t-12.5 34.5q6 66 29 115t52 71.5t57.5 36t47.5 15.5
l19 1q47 0 83.5 -13t54.5 -28t41 -28t46 -13q57 0 72 43q9 31 43 31h104q20 0 32.5 -13.5t12.5 -33.5q-6 -66 -29 -115t-52 -72t-57.5 -36t-47.5 -15l-19 -2q-45 1 -88.5 21t-78 39.5t-58.5 19.5z" />
    <glyph glyph-name="itilde" unicode="&#x129;" 
d="M127 53v762q0 20 15.5 36.5t35.5 16.5h146q20 0 35.5 -16.5t15.5 -36.5v-762q0 -20 -15.5 -36.5t-35.5 -16.5h-146q-20 0 -35.5 16.5t-15.5 36.5zM168 1065q-58 0 -72 -41q-9 -31 -43 -31h-104q-20 0 -32.5 13.5t-12.5 33.5q6 66 29 115t52 72t57.5 36t47.5 15l19 2
q47 0 83.5 -13t54.5 -28t41 -28t46 -13q57 0 72 43q9 31 43 31h104q20 0 32.5 -13.5t12.5 -33.5q-6 -66 -29 -115t-52 -72t-57.5 -36t-47.5 -15l-19 -2q-45 1 -88.5 21t-78 39.5t-58.5 19.5z" />
    <glyph glyph-name="Imacron" unicode="&#x12a;" 
d="M127 53v1080q0 20 15.5 36.5t35.5 16.5h146q20 0 35.5 -16.5t15.5 -36.5v-1080q0 -20 -15.5 -36.5t-35.5 -16.5h-146q-20 0 -35.5 16.5t-15.5 36.5zM459 1290h-418q-17 0 -32 14t-15 31v125q0 18 14.5 32.5t32.5 14.5h418q18 0 32.5 -14.5t14.5 -32.5v-125q0 -17 -15 -31
t-32 -14z" />
    <glyph glyph-name="imacron" unicode="&#x12b;" 
d="M127 53v762q0 20 15.5 36.5t35.5 16.5h146q20 0 35.5 -16.5t15.5 -36.5v-762q0 -20 -15.5 -36.5t-35.5 -16.5h-146q-20 0 -35.5 16.5t-15.5 36.5zM459 985h-418q-17 0 -32 14t-15 31v125q0 18 14.5 32.5t32.5 14.5h418q18 0 32.5 -14.5t14.5 -32.5v-125q0 -17 -15 -31
t-32 -14z" />
    <glyph glyph-name="Iogonek" unicode="&#x12e;" 
d="M324 0q-43 0 -66 -10q-2 0 -4.5 -1t-9.5 -5t-12.5 -9t-10 -15t-4.5 -21q0 -22 17.5 -35t48.5 -13l47 7q13 0 22.5 -10.5t9.5 -22.5v-82q0 -13 -9.5 -22t-22.5 -11q-58 -8 -103 -8q-25 0 -55 6t-69 22.5t-65 54t-26 91.5q0 32 12 58.5t28.5 41t33.5 24.5t29 14l12 3v1076
q0 20 15.5 36.5t35.5 16.5h146q20 0 35.5 -16.5t15.5 -36.5v-1080q0 -20 -15.5 -36.5t-35.5 -16.5z" />
    <glyph glyph-name="iogonek" unicode="&#x12f;" 
d="M111 1081q0 59 41.5 100.5t99.5 41.5t99.5 -41.5t41.5 -100.5t-41.5 -100t-99.5 -41t-99.5 41t-41.5 100zM324 0q-43 0 -66 -10q-2 0 -4.5 -1t-9.5 -5t-12.5 -9t-10 -15t-4.5 -21q0 -22 17.5 -35t48.5 -13l47 7q13 0 22.5 -10.5t9.5 -22.5v-82q0 -13 -9.5 -22t-22.5 -11
q-58 -8 -103 -8q-25 0 -55 6t-69 22.5t-65 54t-26 91.5q0 32 12 58.5t28.5 41t33.5 24.5t29 14l12 3v758q0 20 15.5 36.5t35.5 16.5h146q20 0 35.5 -16.5t15.5 -36.5v-762q0 -20 -15.5 -36.5t-35.5 -16.5z" />
    <glyph glyph-name="Idotaccent" unicode="&#x130;" horiz-adv-x="499" 
d="M125 53v1057q0 20 15.5 36.5t35.5 16.5h146q20 0 35.5 -16.5t15.5 -36.5v-1057q0 -20 -15.5 -36.5t-35.5 -16.5h-146q-20 0 -35.5 16.5t-15.5 36.5zM109 1432q0 58 41.5 99.5t99.5 41.5t99.5 -41.5t41.5 -99.5q0 -59 -41.5 -100.5t-99.5 -41.5t-99.5 41.5t-41.5 100.5z
" />
    <glyph glyph-name="dotlessi" unicode="&#x131;" 
d="M127 53v762q0 20 15.5 36.5t35.5 16.5h146q20 0 35.5 -16.5t15.5 -36.5v-762q0 -20 -15.5 -36.5t-35.5 -16.5h-146q-20 0 -35.5 16.5t-15.5 36.5z" />
    <glyph glyph-name="Jcircumflex" unicode="&#x134;" horiz-adv-x="919" 
d="M33 135q-8 16 -8 31q0 37 24 47l98 61q18 9 27 9q17 0 43 -15q80 -69 170 -69q44 0 78.5 17t53 41.5t27.5 46t9 36.5v793q0 20 15.5 36.5t35.5 16.5h146q20 0 35.5 -16.5t15.5 -36.5v-818q0 -140 -121 -239t-307 -99q-206 0 -342 158zM381 1655h215q34 0 55 -41l123 -260
q0 -25 -18.5 -44.5t-42.5 -19.5h-115q-18 0 -33.5 10t-21.5 27l-56 117l-53 -117q-6 -17 -21.5 -27t-33.5 -10h-113q-26 0 -44.5 19.5t-18.5 44.5l123 260q20 41 55 41z" />
    <glyph glyph-name="jcircumflex" unicode="&#x135;" 
d="M-41 -352q-17 0 -32 14t-15 31v127q0 18 14.5 32.5t32.5 14.5l35 -4q37 0 64 15t39.5 36t20 42.5t8.5 36.5l1 15v807q0 20 15.5 36.5t35.5 16.5h146q20 0 35.5 -16.5t15.5 -36.5v-835q0 -69 -15 -125t-37 -90.5t-54.5 -59.5t-59 -36.5t-60 -18t-48 -7.5t-31.5 -1
q-62 0 -111 6zM145 1350h215q17 0 32.5 -12t23.5 -29l123 -260q0 -25 -18.5 -44.5t-43.5 -19.5h-115q-18 0 -33.5 10t-21.5 27l-55 117l-53 -117q-6 -17 -22 -27t-34 -10h-112q-26 0 -45 19.5t-19 44.5l123 260q20 41 55 41z" />
    <glyph glyph-name="uni0136" unicode="&#x136;" horiz-adv-x="1105" 
d="M608 610l484 -553q0 -23 -16.5 -40t-39.5 -17h-198q-28 0 -54 37l-409 461v-445q0 -20 -15.5 -36.5t-35.5 -16.5h-146q-20 0 -35.5 16.5t-15.5 36.5v1080q0 20 15.5 36.5t35.5 16.5h146q20 0 35.5 -16.5t15.5 -36.5v-422l354 438q26 37 53 37h199q23 0 39 -17t16 -41z
M729 -160l-86 -176q-18 -29 -45 -29h-127q-23 0 -38 16t-15 38l63 172q6 12 20 21t27 9h148q23 0 38 -15t15 -36z" />
    <glyph glyph-name="uni0137" unicode="&#x137;" horiz-adv-x="972" 
d="M895 815l-262 -373l307 -387q0 -22 -15.5 -38.5t-37.5 -16.5h-197q-25 0 -51 37l-264 332v-316q0 -20 -15.5 -36.5t-35.5 -16.5h-146q-20 0 -35.5 16.5t-15.5 36.5v1121q0 20 15.5 36.5t35.5 16.5h146q20 0 35.5 -16.5t15.5 -36.5v-662l229 322q26 34 49 34h191
q20 0 35.5 -16.5t15.5 -36.5zM631 -160l-86 -176q-18 -29 -45 -29h-127q-23 0 -38.5 16t-15.5 38l64 172q6 12 20 21t27 9h148q23 0 38 -15t15 -36z" />
    <glyph glyph-name="kgreenlandic" unicode="&#x138;" horiz-adv-x="972" 
d="M895 815l-262 -373l307 -387q0 -22 -15.5 -38.5t-37.5 -16.5h-197q-25 0 -51 37l-264 332v-316q0 -20 -15.5 -36.5t-35.5 -16.5h-146q-20 0 -35.5 16.5t-15.5 36.5v762q0 20 15.5 36.5t35.5 16.5h146q20 0 35.5 -16.5t15.5 -36.5v-303l229 322q26 34 49 34h191
q20 0 35.5 -16.5t15.5 -36.5z" />
    <glyph glyph-name="Lacute" unicode="&#x139;" horiz-adv-x="997" 
d="M127 53v1080q0 20 15.5 36.5t35.5 16.5h146q20 0 35.5 -16.5t15.5 -36.5v-912h520q17 0 32 -14t15 -31v-129q0 -18 -14.5 -32.5t-32.5 -14.5h-717q-20 0 -35.5 16.5t-15.5 36.5zM504 1516l-125 -197q-18 -29 -45 -29h-127q-23 0 -38 15.5t-15 37.5l98 193q6 12 20 21.5
t27 9.5h152q23 0 38 -15t15 -36z" />
    <glyph glyph-name="lacute" unicode="&#x13a;" 
d="M127 53v1080q0 20 15.5 36.5t35.5 16.5h146q20 0 35.5 -16.5t15.5 -36.5v-1080q0 -20 -15.5 -36.5t-35.5 -16.5h-146q-20 0 -35.5 16.5t-15.5 36.5zM510 1516l-125 -197q-18 -29 -45 -29h-127q-23 0 -38 15.5t-15 37.5l98 193q6 12 20 21.5t27 9.5h152q23 0 38 -15
t15 -36z" />
    <glyph glyph-name="uni013B" unicode="&#x13b;" horiz-adv-x="997" 
d="M127 53v1080q0 20 15.5 36.5t35.5 16.5h146q20 0 35.5 -16.5t15.5 -36.5v-912h520q17 0 32 -14t15 -31v-129q0 -18 -14.5 -32.5t-32.5 -14.5h-717q-20 0 -35.5 16.5t-15.5 36.5zM653 -160l-86 -176q-18 -29 -45 -29h-127q-23 0 -38 16t-15 38l64 172q6 12 20 21t27 9h147
q23 0 38 -15t15 -36z" />
    <glyph glyph-name="uni013C" unicode="&#x13c;" 
d="M127 53v1080q0 20 15.5 36.5t35.5 16.5h146q20 0 35.5 -16.5t15.5 -36.5v-1080q0 -20 -15.5 -36.5t-35.5 -16.5h-146q-20 0 -35.5 16.5t-15.5 36.5zM352 -160l-86 -176q-18 -29 -45 -29h-127q-23 0 -38 16t-15 38l63 172q6 12 20.5 21t27.5 9h147q23 0 38 -15t15 -36z
" />
    <glyph glyph-name="Lcaron" unicode="&#x13d;" horiz-adv-x="997" 
d="M127 53v1080q0 20 15.5 36.5t35.5 16.5h146q20 0 35.5 -16.5t15.5 -36.5v-912h520q17 0 32 -14t15 -31v-129q0 -18 -14.5 -32.5t-32.5 -14.5h-717q-20 0 -35.5 16.5t-15.5 36.5zM905 1135l-108 -222q-17 -28 -45 -28h-117q-23 0 -38 15.5t-15 37.5l82 217q6 12 20 21.5
t27 9.5h141q23 0 38 -15t15 -36z" />
    <glyph glyph-name="lcaron" unicode="&#x13e;" horiz-adv-x="909" 
d="M127 53v1080q0 20 15.5 36.5t35.5 16.5h146q20 0 35.5 -16.5t15.5 -36.5v-1080q0 -20 -15.5 -36.5t-35.5 -16.5h-146q-20 0 -35.5 16.5t-15.5 36.5zM901 1135l-108 -222q-17 -28 -45 -28h-117q-23 0 -38 15.5t-15 37.5l81 217q6 12 20.5 21.5t27.5 9.5h141q23 0 38 -15
t15 -36z" />
    <glyph glyph-name="Lslash" unicode="&#x141;" horiz-adv-x="1089" 
d="M594 598l-127 -25v-352h520q17 0 32 -14t15 -31v-129q0 -18 -14.5 -32.5t-32.5 -14.5h-717q-20 0 -35.5 16.5t-15.5 36.5v471l-123 -24q-17 0 -32 14t-15 31v125q0 17 14 28.5t33 14.5l123 24v396q0 20 15.5 36.5t35.5 16.5h146q20 0 35.5 -16.5t15.5 -36.5v-347l127 25
q18 0 32.5 -14.5t14.5 -32.5v-119q0 -17 -14.5 -30.5t-32.5 -16.5z" />
    <glyph glyph-name="lslash" unicode="&#x142;" horiz-adv-x="690" 
d="M594 598l-127 -25v-520q0 -20 -15.5 -36.5t-35.5 -16.5h-146q-20 0 -35.5 16.5t-15.5 36.5v471l-123 -24q-17 0 -32 14t-15 31v125q0 17 14 28.5t33 14.5l123 24v396q0 20 15.5 36.5t35.5 16.5h146q20 0 35.5 -16.5t15.5 -36.5v-347l127 25q18 0 32.5 -14.5t14.5 -32.5
v-119q0 -17 -14.5 -30.5t-32.5 -16.5z" />
    <glyph glyph-name="Nacute" unicode="&#x143;" horiz-adv-x="1298" 
d="M922 25l-547 725v-697q0 -20 -15.5 -36.5t-35.5 -16.5h-146q-20 0 -35.5 16.5t-15.5 36.5v1080q0 20 15.5 36.5t35.5 16.5h158q23 0 41 -25l547 -725v697q0 20 15.5 36.5t35.5 16.5h145q20 0 35.5 -16.5t15.5 -36.5v-1080q0 -20 -15.5 -36.5t-35.5 -16.5h-157
q-23 0 -41 25zM903 1516l-125 -197q-18 -29 -45 -29h-127q-23 0 -38 15.5t-15 37.5l98 193q6 12 20 21.5t27 9.5h152q23 0 38 -15t15 -36z" />
    <glyph glyph-name="nacute" unicode="&#x144;" horiz-adv-x="1069" 
d="M963 559v-506q0 -20 -16 -36.5t-36 -16.5h-145q-20 0 -35.5 16.5t-15.5 36.5v430q0 17 -0.5 27.5t-3.5 32t-8.5 36.5t-17.5 33.5t-28.5 30t-42.5 19.5t-59 8q-42 0 -75 -16t-52 -40t-31.5 -53t-17 -52t-4.5 -42v-414q0 -20 -15.5 -36.5t-35.5 -16.5h-146
q-20 0 -35.5 16.5t-15.5 36.5v762q0 20 15.5 36.5t35.5 16.5h146q20 0 35.5 -16.5t15.5 -36.5v-22q30 34 71 56.5t81.5 30t59.5 9.5t34 2q67 0 122 -18t89.5 -45t60.5 -63.5t39 -68.5t20.5 -65t9 -48.5t1.5 -23.5zM838 1210l-125 -196q-18 -29 -45 -29h-127
q-23 0 -38.5 15.5t-15.5 37.5l99 193q6 12 20 21.5t27 9.5h151q23 0 38.5 -15.5t15.5 -36.5z" />
    <glyph glyph-name="uni0145" unicode="&#x145;" horiz-adv-x="1298" 
d="M922 25l-547 725v-697q0 -20 -15.5 -36.5t-35.5 -16.5h-146q-20 0 -35.5 16.5t-15.5 36.5v1080q0 20 15.5 36.5t35.5 16.5h158q23 0 41 -25l547 -725v697q0 20 15.5 36.5t35.5 16.5h145q20 0 35.5 -16.5t15.5 -36.5v-1080q0 -20 -15.5 -36.5t-35.5 -16.5h-157
q-23 0 -41 25zM815 -160l-86 -176q-18 -29 -45 -29h-127q-23 0 -38 16t-15 38l63 172q6 12 20 21t27 9h148q23 0 38 -15t15 -36z" />
    <glyph glyph-name="uni0146" unicode="&#x146;" horiz-adv-x="1069" 
d="M963 559v-506q0 -20 -16 -36.5t-36 -16.5h-145q-20 0 -35.5 16.5t-15.5 36.5v430q0 17 -0.5 27.5t-3.5 32t-8.5 36.5t-17.5 33.5t-28.5 30t-42.5 19.5t-59 8q-42 0 -75 -16t-52 -40t-31.5 -53t-17 -52t-4.5 -42v-414q0 -20 -15.5 -36.5t-35.5 -16.5h-146
q-20 0 -35.5 16.5t-15.5 36.5v762q0 20 15.5 36.5t35.5 16.5h146q20 0 35.5 -16.5t15.5 -36.5v-22q30 34 71 56.5t81.5 30t59.5 9.5t34 2q67 0 122 -18t89.5 -45t60.5 -63.5t39 -68.5t20.5 -65t9 -48.5t1.5 -23.5zM657 -160l-86 -176q-18 -29 -45 -29h-127q-23 0 -38 16
t-15 38l64 172q6 12 20 21t27 9h147q23 0 38 -15t15 -36z" />
    <glyph glyph-name="Ncaron" unicode="&#x147;" horiz-adv-x="1298" 
d="M922 25l-547 725v-697q0 -20 -15.5 -36.5t-35.5 -16.5h-146q-20 0 -35.5 16.5t-15.5 36.5v1080q0 20 15.5 36.5t35.5 16.5h158q23 0 41 -25l547 -725v697q0 20 15.5 36.5t35.5 16.5h145q20 0 35.5 -16.5t15.5 -36.5v-1080q0 -20 -15.5 -36.5t-35.5 -16.5h-157
q-23 0 -41 25zM758 1290h-215q-35 0 -56 41l-122 260q0 25 18.5 44.5t44.5 19.5h113q18 0 33.5 -10t21.5 -27l53 -117l56 117q6 17 21.5 27t33.5 10h114q25 0 43.5 -19.5t18.5 -44.5l-123 -260q-21 -41 -55 -41z" />
    <glyph glyph-name="ncaron" unicode="&#x148;" horiz-adv-x="1069" 
d="M963 559v-506q0 -20 -16 -36.5t-36 -16.5h-145q-20 0 -35.5 16.5t-15.5 36.5v430q0 17 -0.5 27.5t-3.5 32t-8.5 36.5t-17.5 33.5t-28.5 30t-42.5 19.5t-59 8q-42 0 -75 -16t-52 -40t-31.5 -53t-17 -52t-4.5 -42v-414q0 -20 -15.5 -36.5t-35.5 -16.5h-146
q-20 0 -35.5 16.5t-15.5 36.5v762q0 20 15.5 36.5t35.5 16.5h146q20 0 35.5 -16.5t15.5 -36.5v-22q30 34 71 56.5t81.5 30t59.5 9.5t34 2q67 0 122 -18t89.5 -45t60.5 -63.5t39 -68.5t20.5 -65t9 -48.5t1.5 -23.5zM674 985h-215q-35 0 -56 41l-122 260q0 25 18.5 44.5
t44.5 19.5h113q18 0 33.5 -10t21.5 -27l53 -117l56 117q6 17 21.5 27t33.5 10h115q24 0 42.5 -19.5t18.5 -44.5l-123 -260q-21 -41 -55 -41z" />
    <glyph glyph-name="Eng" unicode="&#x14a;" horiz-adv-x="1298" 
d="M756 -352q-17 0 -32 14t-15 31v127q0 18 14.5 32.5t32.5 14.5l35 -4q37 0 64 14.5t39.5 35.5t20 41.5t8.5 35.5l1 14v16l-549 730v-697q0 -20 -15.5 -36.5t-35.5 -16.5h-146q-20 0 -35.5 16.5t-15.5 36.5v1080q0 20 15.5 36.5t35.5 16.5h158q23 0 41 -25l547 -725v697
q0 20 15.5 36.5t35.5 16.5h145q20 0 35.5 -16.5t15.5 -36.5v-1153q0 -69 -15 -125t-37 -90.5t-54.5 -59.5t-59 -36.5t-60 -18t-48 -7.5t-31.5 -1q-60 0 -110 6z" />
    <glyph glyph-name="eng" unicode="&#x14b;" horiz-adv-x="1069" 
d="M547 -352q-17 0 -32 14t-15 31v127q0 18 14.5 32.5t32.5 14.5l35 -4q37 0 64 15t39.5 36t20 42.5t8.5 36.5l1 15v475q0 17 -0.5 27.5t-3.5 32t-8.5 36.5t-17.5 33.5t-28.5 30t-42.5 19.5t-59 8q-42 0 -75 -16t-52 -40t-31.5 -53t-17 -52t-4.5 -42v-414q0 -20 -15.5 -36.5
t-35.5 -16.5h-146q-20 0 -35.5 16.5t-15.5 36.5v762q0 20 15.5 36.5t35.5 16.5h146q20 0 35.5 -16.5t15.5 -36.5v-22q30 34 71 56.5t81.5 30t59.5 9.5t34 2q67 0 122 -18t89.5 -45t60.5 -63.5t39 -68.5t20.5 -65t9 -48.5t1.5 -23.5v-579q0 -69 -15 -125t-37 -90.5t-55 -59.5
t-59.5 -36.5t-60 -18t-48 -7.5t-31.5 -1q-61 0 -110 6z" />
    <glyph glyph-name="Omacron" unicode="&#x14c;" horiz-adv-x="1478" 
d="M739 1206q130 0 247 -48.5t201.5 -130.5t134.5 -196t50 -239q0 -167 -84 -308.5t-230 -224t-319 -82.5t-319 82.5t-230 224t-84 308.5q0 125 50 239t134.5 196t201.5 130.5t247 48.5zM739 199q159 0 270 115.5t111 277.5q0 166 -110.5 279.5t-270.5 113.5t-270.5 -113.5
t-110.5 -279.5q0 -162 111 -277.5t270 -115.5zM987 1290h-498q-17 0 -32 14t-15 31v125q0 18 14.5 32.5t32.5 14.5h498q18 0 32.5 -14.5t14.5 -32.5v-125q0 -17 -15 -31t-32 -14z" />
    <glyph glyph-name="omacron" unicode="&#x14d;" horiz-adv-x="1134" 
d="M567 891q199 0 340.5 -134t141.5 -323t-141.5 -323t-340.5 -134t-340 134t-141 323t141 323t340 134zM567 199q99 0 168.5 67.5t69.5 167.5t-69.5 168t-168.5 68t-168 -68t-69 -168t69 -167.5t168 -67.5zM815 985h-498q-17 0 -32 14t-15 31v125q0 18 14.5 32.5t32.5 14.5
h498q18 0 32.5 -14.5t14.5 -32.5v-125q0 -17 -15 -31t-32 -14z" />
    <glyph glyph-name="Ohungarumlaut" unicode="&#x150;" horiz-adv-x="1478" 
d="M739 1206q130 0 247 -48.5t201.5 -130.5t134.5 -196t50 -239q0 -167 -84 -308.5t-230 -224t-319 -82.5t-319 82.5t-230 224t-84 308.5q0 125 50 239t134.5 196t201.5 130.5t247 48.5zM739 199q159 0 270 115.5t111 277.5q0 166 -110.5 279.5t-270.5 113.5t-270.5 -113.5
t-110.5 -279.5q0 -162 111 -277.5t270 -115.5zM774 1518l-82 -197q-14 -29 -43 -29h-121q-23 0 -37 16t-14 38l58 192q4 13 18 22t27 9h141q23 0 38 -15t15 -36zM1092 1518l-82 -197q-14 -29 -43 -29h-121q-23 0 -37 16t-14 38l57 192q4 13 18 22t27 9h141q23 0 38.5 -15
t15.5 -36z" />
    <glyph glyph-name="ohungarumlaut" unicode="&#x151;" horiz-adv-x="1134" 
d="M567 891q199 0 340.5 -134t141.5 -323t-141.5 -323t-340.5 -134t-340 134t-141 323t141 323t340 134zM567 199q99 0 168.5 67.5t69.5 167.5t-69.5 168t-168.5 68t-168 -68t-69 -168t69 -167.5t168 -67.5zM614 1210l-82 -196q-14 -29 -43 -29h-120q-23 0 -37.5 15.5
t-14.5 37.5l58 193q4 13 18 22t27 9h141q23 0 38 -15.5t15 -36.5zM932 1210l-82 -196q-14 -29 -43 -29h-121q-23 0 -37 15.5t-14 37.5l57 193q4 13 18 22t27 9h142q23 0 38 -15.5t15 -36.5z" />
    <glyph glyph-name="OE" unicode="&#x152;" horiz-adv-x="1818" 
d="M1157 219h520q17 0 32 -14t15 -31v-127q0 -18 -14.5 -32.5t-32.5 -14.5h-764q-90 -23 -174 -23q-173 0 -319 82.5t-230 224t-84 308.5q0 125 50 239t134.5 196t201.5 130.5t247 48.5q78 0 166 -20h772q18 0 32.5 -14.5t14.5 -32.5v-129q0 -17 -15 -31t-32 -14h-520v-273
h475q18 0 32.5 -14.5t14.5 -32.5v-129q0 -17 -15 -31t-32 -14h-475v-252zM739 199q90 0 170 39v706q-77 41 -170 41q-160 0 -270.5 -113.5t-110.5 -279.5q0 -162 111 -277.5t270 -115.5z" />
    <glyph glyph-name="oe" unicode="&#x153;" horiz-adv-x="1787" 
d="M1571 47q-154 -70 -289 -70q-104 0 -196.5 41t-159.5 113q-67 -72 -160.5 -113t-198.5 -41q-199 0 -340 134t-141 323t141 323t340 134q105 0 198.5 -41t160.5 -113q67 72 159.5 113t196.5 41q86 0 164 -31t139 -88.5t97 -149.5t36 -206v-39q0 -17 -15 -31t-32 -14h-604
q40 -133 211 -133q90 0 180 41q4 2 15 2q27 0 47 -23l73 -86q11 -18 11 -35q0 -33 -33 -51zM567 199q99 0 168.5 67.5t69.5 167.5t-69.5 168t-168.5 68t-168 -68t-69 -168t69 -167.5t168 -67.5zM1278 670q-70 0 -124.5 -35t-82.5 -107h414q-58 142 -207 142z" />
    <glyph glyph-name="Racute" unicode="&#x154;" horiz-adv-x="1095" 
d="M795 16l-265 324h-155v-287q0 -20 -15.5 -36.5t-35.5 -16.5h-146q-20 0 -35.5 16.5t-15.5 36.5v1080q0 20 15.5 36.5t35.5 16.5h420q10 0 26 -1t63.5 -10t91 -23.5t96 -46.5t90.5 -75t64 -112.5t26 -155.5q0 -69 -16.5 -127.5t-43 -99t-64 -73.5t-74 -52.5t-77.5 -34.5
l258 -326q0 -22 -13 -35.5t-36 -13.5h-158q-23 0 -36 16zM788 762q0 107 -53 156t-143 49h-217v-408h217q90 0 143 48.5t53 154.5zM721 1516l-125 -197q-18 -29 -45 -29h-127q-23 0 -38 15.5t-15 37.5l98 193q6 12 20 21.5t27 9.5h152q23 0 38 -15t15 -36z" />
    <glyph glyph-name="racute" unicode="&#x155;" horiz-adv-x="768" 
d="M668 657h-21q-69 0 -124 -30.5t-85.5 -76.5t-46.5 -92.5t-16 -84.5v-320q0 -20 -15.5 -36.5t-35.5 -16.5h-146q-20 0 -35.5 16.5t-15.5 36.5v762q0 20 15.5 36.5t35.5 16.5h146q20 0 35.5 -16.5t15.5 -36.5v-78q31 46 71 77.5t79.5 44t63.5 16.5t44 4h35q18 0 32.5 -14.5
t14.5 -33.5v-129q0 -17 -15 -31t-32 -14zM514 1210l-125 -196q-18 -29 -45 -29h-127q-23 0 -38 15.5t-15 37.5l98 193q6 12 20 21.5t27 9.5h152q23 0 38 -15.5t15 -36.5z" />
    <glyph glyph-name="uni0156" unicode="&#x156;" horiz-adv-x="1095" 
d="M795 16l-265 324h-155v-287q0 -20 -15.5 -36.5t-35.5 -16.5h-146q-20 0 -35.5 16.5t-15.5 36.5v1080q0 20 15.5 36.5t35.5 16.5h420q10 0 26 -1t63.5 -10t91 -23.5t96 -46.5t90.5 -75t64 -112.5t26 -155.5q0 -69 -16.5 -127.5t-43 -99t-64 -73.5t-74 -52.5t-77.5 -34.5
l258 -326q0 -22 -13 -35.5t-36 -13.5h-158q-23 0 -36 16zM788 762q0 107 -53 156t-143 49h-217v-408h217q90 0 143 48.5t53 154.5zM717 -160l-86 -176q-18 -29 -45 -29h-127q-23 0 -38 16t-15 38l63 172q6 12 20 21t27 9h148q23 0 38 -15t15 -36z" />
    <glyph glyph-name="uni0157" unicode="&#x157;" horiz-adv-x="768" 
d="M668 657h-21q-69 0 -124 -30.5t-85.5 -76.5t-46.5 -92.5t-16 -84.5v-320q0 -20 -15.5 -36.5t-35.5 -16.5h-146q-20 0 -35.5 16.5t-15.5 36.5v762q0 20 15.5 36.5t35.5 16.5h146q20 0 35.5 -16.5t15.5 -36.5v-78q31 46 71 77.5t79.5 44t63.5 16.5t44 4h35q18 0 32.5 -14.5
t14.5 -33.5v-129q0 -17 -15 -31t-32 -14zM459 -160l-86 -176q-18 -29 -45 -29h-127q-23 0 -38.5 16t-15.5 38l64 172q6 12 20 21t27 9h148q23 0 38 -15t15 -36z" />
    <glyph glyph-name="Rcaron" unicode="&#x158;" horiz-adv-x="1095" 
d="M795 16l-265 324h-155v-287q0 -20 -15.5 -36.5t-35.5 -16.5h-146q-20 0 -35.5 16.5t-15.5 36.5v1080q0 20 15.5 36.5t35.5 16.5h420q10 0 26 -1t63.5 -10t91 -23.5t96 -46.5t90.5 -75t64 -112.5t26 -155.5q0 -69 -16.5 -127.5t-43 -99t-64 -73.5t-74 -52.5t-77.5 -34.5
l258 -326q0 -22 -13 -35.5t-36 -13.5h-158q-23 0 -36 16zM788 762q0 107 -53 156t-143 49h-217v-408h217q90 0 143 48.5t53 154.5zM651 1290h-215q-34 0 -55 41l-123 260q0 25 19 44.5t45 19.5h112q18 0 33.5 -10t21.5 -27l54 -117l55 117q6 17 21.5 27t33.5 10h115
q24 0 42.5 -19.5t18.5 -44.5l-122 -260q-21 -41 -56 -41z" />
    <glyph glyph-name="rcaron" unicode="&#x159;" horiz-adv-x="768" 
d="M668 657h-21q-69 0 -124 -30.5t-85.5 -76.5t-46.5 -92.5t-16 -84.5v-320q0 -20 -15.5 -36.5t-35.5 -16.5h-146q-20 0 -35.5 16.5t-15.5 36.5v762q0 20 15.5 36.5t35.5 16.5h146q20 0 35.5 -16.5t15.5 -36.5v-78q31 46 71 77.5t79.5 44t63.5 16.5t44 4h35q18 0 32.5 -14.5
t14.5 -33.5v-129q0 -17 -15 -31t-32 -14zM530 985h-215q-35 0 -55 41l-123 260q0 25 19 44.5t45 19.5h112q18 0 34 -10t22 -27l53 -117l55 117q6 17 21.5 27t33.5 10h115q25 0 43.5 -19.5t18.5 -44.5l-123 -260q-8 -17 -23.5 -29t-32.5 -12z" />
    <glyph glyph-name="Sacute" unicode="&#x15a;" horiz-adv-x="1067" 
d="M84 172q-10 17 -10 33q0 30 24 47l88 72q16 12 37 12q17 0 31 -14q48 -50 121.5 -86.5t161.5 -36.5q58 0 100.5 16t61 39t26.5 41.5t8 32.5q0 35 -28 62.5t-73.5 46t-104 39t-119 40t-119 51.5t-104 71t-73.5 100.5t-28 138.5q0 38 11 78t41 86t75 82t121.5 59.5
t173.5 23.5q80 0 149.5 -17t117.5 -45.5t79.5 -55t54.5 -56.5q15 -15 15 -28q0 -28 -15 -35l-94 -70q-15 -12 -35 -12q-22 0 -37 18q-89 80 -249 80q-65 0 -112.5 -36t-47.5 -87q0 -42 28 -74t73.5 -50.5t104 -38.5t119 -36.5t119 -46t104 -66t73.5 -98t28 -139.5
q0 -38 -14 -80.5t-48 -89t-84 -83t-130.5 -60t-178.5 -23.5q-289 0 -442 195zM743 1516l-125 -197q-18 -29 -45 -29h-127q-23 0 -38 15.5t-15 37.5l99 193q6 12 20 21.5t27 9.5h151q23 0 38 -15t15 -36z" />
    <glyph glyph-name="sacute" unicode="&#x15b;" horiz-adv-x="827" 
d="M551 625q-72 53 -131 53q-109 0 -109 -55q0 -27 25.5 -45.5t66 -30t89.5 -23t98.5 -31.5t90 -48.5t66 -80t25.5 -120.5q0 -45 -24.5 -90.5t-70 -85.5t-122 -65.5t-170.5 -25.5q-112 0 -191 43t-128 101q-11 15 -11 31q0 26 21 43l86 55q17 10 35 10q22 0 32 -10
q25 -26 65.5 -41t68.5 -17l28 -2q133 0 133 58q0 22 -25.5 38t-66 27.5t-89.5 23.5t-98.5 33.5t-90 51.5t-66 82t-25.5 121q0 105 91 185.5t256 80.5q162 0 288 -121q21 -18 21 -41q0 -26 -19 -41l-84 -61q-15 -11 -34 -11q-22 0 -31 9zM639 1210l-125 -196q-18 -29 -45 -29
h-127q-23 0 -38 15.5t-15 37.5l98 193q6 12 20 21.5t27 9.5h152q23 0 38 -15.5t15 -36.5z" />
    <glyph glyph-name="Scircumflex" unicode="&#x15c;" horiz-adv-x="1067" 
d="M84 172q-10 17 -10 33q0 30 24 47l88 72q16 12 37 12q17 0 31 -14q48 -50 121.5 -86.5t161.5 -36.5q58 0 100.5 16t61 39t26.5 41.5t8 32.5q0 35 -28 62.5t-73.5 46t-104 39t-119 40t-119 51.5t-104 71t-73.5 100.5t-28 138.5q0 38 11 78t41 86t75 82t121.5 59.5
t173.5 23.5q80 0 149.5 -17t117.5 -45.5t79.5 -55t54.5 -56.5q15 -15 15 -28q0 -28 -15 -35l-94 -70q-15 -12 -35 -12q-22 0 -37 18q-89 80 -249 80q-65 0 -112.5 -36t-47.5 -87q0 -42 28 -74t73.5 -50.5t104 -38.5t119 -36.5t119 -46t104 -66t73.5 -98t28 -139.5
q0 -38 -14 -80.5t-48 -89t-84 -83t-130.5 -60t-178.5 -23.5q-289 0 -442 195zM406 1681h215q35 0 55 -41l123 -260q0 -25 -18.5 -44t-43.5 -19h-114q-18 0 -34 10t-22 27l-55 116l-53 -116q-6 -17 -22 -27t-34 -10h-112q-26 0 -45 19t-19 44l123 260q8 17 23.5 29t32.5 12z
" />
    <glyph glyph-name="scircumflex" unicode="&#x15d;" horiz-adv-x="827" 
d="M551 625q-72 53 -131 53q-109 0 -109 -55q0 -27 25.5 -45.5t66 -30t89.5 -23t98.5 -31.5t90 -48.5t66 -80t25.5 -120.5q0 -45 -24.5 -90.5t-70 -85.5t-122 -65.5t-170.5 -25.5q-112 0 -191 43t-128 101q-11 15 -11 31q0 26 21 43l86 55q17 10 35 10q22 0 32 -10
q25 -26 65.5 -41t68.5 -17l28 -2q133 0 133 58q0 22 -25.5 38t-66 27.5t-89.5 23.5t-98.5 33.5t-90 51.5t-66 82t-25.5 121q0 105 91 185.5t256 80.5q162 0 288 -121q21 -18 21 -41q0 -26 -19 -41l-84 -61q-15 -11 -34 -11q-22 0 -31 9zM315 1350h215q17 0 32.5 -12
t23.5 -29l123 -260q0 -25 -18.5 -44.5t-43.5 -19.5h-115q-18 0 -33.5 10t-21.5 27l-55 117l-53 -117q-6 -17 -22 -27t-34 -10h-112q-26 0 -45 19.5t-19 44.5l123 260q20 41 55 41z" />
    <glyph glyph-name="Scedilla" unicode="&#x15e;" horiz-adv-x="1067" 
d="M84 172q-10 17 -10 33q0 30 24 47l88 72q16 12 37 12q17 0 31 -14q48 -50 121.5 -86.5t161.5 -36.5q58 0 100.5 16t61 39t26.5 41.5t8 32.5q0 35 -28 62.5t-73.5 46t-104 39t-119 40t-119 51.5t-104 71t-73.5 100.5t-28 138.5q0 38 11 78t41 86t75 82t121.5 59.5
t173.5 23.5q80 0 149.5 -17t117.5 -45.5t79.5 -55t54.5 -56.5q15 -15 15 -28q0 -28 -15 -35l-94 -70q-15 -12 -35 -12q-22 0 -37 18q-89 80 -249 80q-65 0 -112.5 -36t-47.5 -87q0 -42 28 -74t73.5 -50.5t104 -38.5t119 -36.5t119 -46t104 -66t73.5 -98t28 -139.5
q0 -38 -14 -80.5t-48 -89t-84 -83t-130.5 -60t-178.5 -23.5q-289 0 -442 195zM657 -160l-84 -176q-15 -29 -43 -29h-131q-23 0 -37 16t-14 38l66 172q4 13 18 21.5t27 8.5h145q23 0 38 -15t15 -36z" />
    <glyph glyph-name="scedilla" unicode="&#x15f;" horiz-adv-x="827" 
d="M551 625q-72 53 -131 53q-109 0 -109 -55q0 -27 25.5 -45.5t66 -30t89.5 -23t98.5 -31.5t90 -48.5t66 -80t25.5 -120.5q0 -45 -24.5 -90.5t-70 -85.5t-122 -65.5t-170.5 -25.5q-112 0 -191 43t-128 101q-11 15 -11 31q0 26 21 43l86 55q17 10 35 10q22 0 32 -10
q25 -26 65.5 -41t68.5 -17l28 -2q133 0 133 58q0 22 -25.5 38t-66 27.5t-89.5 23.5t-98.5 33.5t-90 51.5t-66 82t-25.5 121q0 105 91 185.5t256 80.5q162 0 288 -121q21 -18 21 -41q0 -26 -19 -41l-84 -61q-15 -11 -34 -11q-22 0 -31 9zM520 -160l-86 -176q-18 -29 -45 -29
h-127q-23 0 -38 16t-15 38l63 172q6 12 20 21t27 9h148q23 0 38 -15t15 -36z" />
    <glyph glyph-name="Scaron" unicode="&#x160;" horiz-adv-x="1067" 
d="M84 172q-10 17 -10 33q0 30 24 47l88 72q16 12 37 12q17 0 31 -14q48 -50 121.5 -86.5t161.5 -36.5q58 0 100.5 16t61 39t26.5 41.5t8 32.5q0 35 -28 62.5t-73.5 46t-104 39t-119 40t-119 51.5t-104 71t-73.5 100.5t-28 138.5q0 38 11 78t41 86t75 82t121.5 59.5
t173.5 23.5q80 0 149.5 -17t117.5 -45.5t79.5 -55t54.5 -56.5q15 -15 15 -28q0 -28 -15 -35l-94 -70q-15 -12 -35 -12q-22 0 -37 18q-89 80 -249 80q-65 0 -112.5 -36t-47.5 -87q0 -42 28 -74t73.5 -50.5t104 -38.5t119 -36.5t119 -46t104 -66t73.5 -98t28 -139.5
q0 -38 -14 -80.5t-48 -89t-84 -83t-130.5 -60t-178.5 -23.5q-289 0 -442 195zM633 1290h-215q-17 0 -32.5 12t-23.5 29l-122 260q0 25 18.5 44.5t44.5 19.5h113q18 0 33.5 -10t21.5 -27l53 -117l56 117q6 17 21.5 27t33.5 10h115q24 0 42.5 -19.5t18.5 -44.5l-123 -260
q-20 -41 -55 -41z" />
    <glyph glyph-name="scaron" unicode="&#x161;" horiz-adv-x="827" 
d="M551 625q-72 53 -131 53q-109 0 -109 -55q0 -27 25.5 -45.5t66 -30t89.5 -23t98.5 -31.5t90 -48.5t66 -80t25.5 -120.5q0 -45 -24.5 -90.5t-70 -85.5t-122 -65.5t-170.5 -25.5q-112 0 -191 43t-128 101q-11 15 -11 31q0 26 21 43l86 55q17 10 35 10q22 0 32 -10
q25 -26 65.5 -41t68.5 -17l28 -2q133 0 133 58q0 22 -25.5 38t-66 27.5t-89.5 23.5t-98.5 33.5t-90 51.5t-66 82t-25.5 121q0 105 91 185.5t256 80.5q162 0 288 -121q21 -18 21 -41q0 -26 -19 -41l-84 -61q-15 -11 -34 -11q-22 0 -31 9zM522 985h-215q-35 0 -55 41l-123 260
q0 25 19 44.5t45 19.5h112q18 0 33.5 -10t21.5 -27l54 -117l55 117q6 17 21.5 27t33.5 10h115q24 0 42.5 -19.5t18.5 -44.5l-122 -260q-8 -17 -23.5 -29t-32.5 -12z" />
    <glyph glyph-name="uni0162" unicode="&#x162;" horiz-adv-x="1136" 
d="M444 53v914h-321q-17 0 -32 14t-15 31v127q0 18 14.5 32.5t32.5 14.5h891q18 0 32.5 -14.5t14.5 -32.5v-127q0 -17 -15 -31t-32 -14h-322v-914q0 -20 -15.5 -36.5t-35.5 -16.5h-145q-20 0 -36 16.5t-16 36.5zM674 -160l-86 -176q-18 -29 -45 -29h-127q-23 0 -38.5 16
t-15.5 38l64 172q6 12 20 21t27 9h148q23 0 38 -15t15 -36z" />
    <glyph glyph-name="uni0163" unicode="&#x163;" horiz-adv-x="774" 
d="M471 1157v-289h170q18 0 32.5 -14.5t14.5 -32.5v-129q0 -17 -15 -31t-32 -14h-170v-321q0 -5 0.5 -12.5t8.5 -27.5t21.5 -35t43.5 -27.5t71 -12.5q11 0 25 2q18 0 31.5 -13.5t13.5 -31.5v-121q0 -17 -13 -30t-30 -13q-58 -4 -115 -4q-17 0 -31.5 1t-48 7.5t-60 18
t-59 36.5t-54.5 59.5t-37 90.5t-15 125v309h-123q-17 0 -32 14t-15 31v129q0 18 14.5 32.5t32.5 14.5h123v258q0 21 11.5 36t31.5 18l152 34q20 0 36.5 -18t16.5 -39zM590 -160l-86 -176q-18 -29 -45 -29h-127q-23 0 -38 16t-15 38l63 172q6 12 20 21t27 9h148q23 0 38 -15
t15 -36z" />
    <glyph glyph-name="Tcaron" unicode="&#x164;" horiz-adv-x="1136" 
d="M444 53v914h-321q-17 0 -32 14t-15 31v127q0 18 14.5 32.5t32.5 14.5h891q18 0 32.5 -14.5t14.5 -32.5v-127q0 -17 -15 -31t-32 -14h-322v-914q0 -20 -15.5 -36.5t-35.5 -16.5h-145q-20 0 -36 16.5t-16 36.5zM676 1290h-215q-35 0 -55 41l-123 260q0 25 18.5 44.5
t44.5 19.5h113q18 0 33.5 -10t21.5 -27l53 -117l56 117q6 17 21.5 27t33.5 10h115q24 0 42.5 -19.5t18.5 -44.5l-123 -260q-21 -41 -55 -41z" />
    <glyph glyph-name="tcaron" unicode="&#x165;" horiz-adv-x="1032" 
d="M471 1157v-289h170q18 0 32.5 -14.5t14.5 -32.5v-129q0 -17 -15 -31t-32 -14h-170v-321q0 -5 0.5 -12.5t8.5 -27.5t21.5 -35t43.5 -27.5t71 -12.5q11 0 25 2q18 0 31.5 -13.5t13.5 -31.5v-121q0 -17 -13 -30t-30 -13q-58 -4 -115 -4q-17 0 -31.5 1t-48 7.5t-60 18
t-59 36.5t-54.5 59.5t-37 90.5t-15 125v309h-123q-17 0 -32 14t-15 31v129q0 18 14.5 32.5t32.5 14.5h123v258q0 21 11.5 36t31.5 18l152 34q20 0 36.5 -18t16.5 -39zM1024 1176l-78 -154q-18 -29 -45 -29h-121q-23 0 -38 16t-15 38l55 149q6 12 20 21.5t27 9.5h142
q23 0 38 -15t15 -36z" />
    <glyph glyph-name="Tbar" unicode="&#x166;" horiz-adv-x="1136" 
d="M866 418h-174v-365q0 -20 -15.5 -36.5t-35.5 -16.5h-145q-20 0 -36 16.5t-16 36.5v365h-174q-17 0 -32 14t-15 31v127q0 18 14.5 32.5t32.5 14.5h174v330h-321q-17 0 -32 14t-15 31v127q0 18 14.5 32.5t32.5 14.5h891q18 0 32.5 -14.5t14.5 -32.5v-127q0 -17 -15 -31
t-32 -14h-322v-330h174q18 0 32.5 -14.5t14.5 -32.5v-127q0 -17 -15 -31t-32 -14z" />
    <glyph glyph-name="tbar" unicode="&#x167;" horiz-adv-x="774" 
d="M641 387h-170v-61q0 -5 0.5 -12.5t8.5 -27.5t21.5 -35t43.5 -27.5t71 -12.5q11 0 25 2q18 0 31.5 -13.5t13.5 -31.5v-121q0 -17 -13 -30t-30 -13q-58 -4 -115 -4q-17 0 -31.5 1t-48 7.5t-60 18t-59 36.5t-54.5 59.5t-37 90.5t-15 125v49h-123q-17 0 -32 14t-15 31v129
q0 18 14.5 32.5t32.5 14.5h123v176h-123q-17 0 -32 14t-15 31v129q0 18 14.5 33t32.5 15h123v120q0 21 11.5 36t31.5 18l152 34q20 0 36.5 -18t16.5 -39v-151h170q17 0 32 -15t15 -33v-129q0 -17 -15 -31t-32 -14h-170v-176h170q18 0 32.5 -14.5t14.5 -32.5v-129
q0 -17 -15 -31t-32 -14z" />
    <glyph glyph-name="Utilde" unicode="&#x168;" horiz-adv-x="1216" 
d="M608 -23q-10 0 -28 1t-69 10.5t-97.5 26t-103.5 52t-98 83.5t-69 126t-28 175v682q0 20 15.5 36.5t35.5 16.5h145q20 0 35.5 -16.5t15.5 -36.5v-672q0 -5 0.5 -14.5t5.5 -37t13.5 -52t27 -55t43.5 -52t65.5 -36.5t90.5 -15t90.5 14.5t65.5 37.5t43.5 51t27 56t13.5 51
t6 37v15v672q0 20 15.5 36.5t35.5 16.5h146q20 0 35.5 -16.5t15.5 -36.5v-682q0 -76 -17 -140.5t-45.5 -110t-65.5 -82.5t-78 -59.5t-82 -39.5t-78 -24.5t-65.5 -12t-45.5 -4.5zM502 1380q-54 0 -72 -51q-9 -31 -43 -31h-104q-20 0 -32.5 13.5t-12.5 34.5q6 66 29 115
t52 71.5t57 36t47 15.5l19 1q52 0 97 -14t69.5 -31t53 -31t51.5 -14q53 0 71 51q9 31 43 31h105q20 0 32.5 -13.5t12.5 -33.5q-6 -66 -29 -115t-52 -72t-57.5 -36t-47.5 -15l-19 -2q-45 1 -99.5 23.5t-100.5 44.5t-70 22z" />
    <glyph glyph-name="utilde" unicode="&#x169;" horiz-adv-x="1073" 
d="M537 -23q-78 0 -143 17.5t-107.5 45.5t-74.5 67t-49.5 76.5t-28.5 80t-14 72t-3 57.5v422q0 20 15.5 36.5t35.5 16.5h145q20 0 36 -16.5t16 -36.5v-430q0 -27 5 -52.5t20.5 -59t53 -54t93.5 -20.5t93.5 20.5t53 54t20.5 59t5 52.5v430q0 20 15.5 36.5t35.5 16.5h145
q20 0 35.5 -16.5t15.5 -36.5v-422q0 -28 -3 -57.5t-13.5 -72t-28 -80t-50 -76.5t-75 -67t-107 -45.5t-142.5 -17.5zM430 1075q-54 0 -72 -51q-9 -31 -43 -31h-104q-20 0 -32.5 13.5t-12.5 33.5q6 66 29 115t52 72t57.5 36t47.5 15l19 2q52 0 96.5 -14t69.5 -31t53 -31
t51 -14q54 0 72 51q9 31 43 31h104q20 0 32.5 -13.5t12.5 -33.5q-6 -66 -29 -115t-52 -72t-57.5 -36t-47.5 -15l-19 -2q-45 1 -99.5 23.5t-100.5 44.5t-70 22z" />
    <glyph glyph-name="Umacron" unicode="&#x16a;" horiz-adv-x="1216" 
d="M608 -23q-10 0 -28 1t-69 10.5t-97.5 26t-103.5 52t-98 83.5t-69 126t-28 175v682q0 20 15.5 36.5t35.5 16.5h145q20 0 35.5 -16.5t15.5 -36.5v-672q0 -5 0.5 -14.5t5.5 -37t13.5 -52t27 -55t43.5 -52t65.5 -36.5t90.5 -15t90.5 14.5t65.5 37.5t43.5 51t27 56t13.5 51
t6 37v15v672q0 20 15.5 36.5t35.5 16.5h146q20 0 35.5 -16.5t15.5 -36.5v-682q0 -76 -17 -140.5t-45.5 -110t-65.5 -82.5t-78 -59.5t-82 -39.5t-78 -24.5t-65.5 -12t-45.5 -4.5zM856 1290h-498q-17 0 -32 14t-15 31v125q0 18 14.5 32.5t32.5 14.5h498q18 0 32.5 -14.5
t14.5 -32.5v-125q0 -17 -15 -31t-32 -14z" />
    <glyph glyph-name="umacron" unicode="&#x16b;" horiz-adv-x="1073" 
d="M537 -23q-78 0 -143 17.5t-107.5 45.5t-74.5 67t-49.5 76.5t-28.5 80t-14 72t-3 57.5v422q0 20 15.5 36.5t35.5 16.5h145q20 0 36 -16.5t16 -36.5v-430q0 -27 5 -52.5t20.5 -59t53 -54t93.5 -20.5t93.5 20.5t53 54t20.5 59t5 52.5v430q0 20 15.5 36.5t35.5 16.5h145
q20 0 35.5 -16.5t15.5 -36.5v-422q0 -28 -3 -57.5t-13.5 -72t-28 -80t-50 -76.5t-75 -67t-107 -45.5t-142.5 -17.5zM786 985h-497q-17 0 -32 14t-15 31v125q0 18 14.5 32.5t32.5 14.5h497q18 0 33 -14.5t15 -32.5v-125q0 -17 -15 -31t-33 -14z" />
    <glyph glyph-name="Ubreve" unicode="&#x16c;" horiz-adv-x="1216" 
d="M608 -23q-10 0 -28 1t-69 10.5t-97.5 26t-103.5 52t-98 83.5t-69 126t-28 175v682q0 20 15.5 36.5t35.5 16.5h145q20 0 35.5 -16.5t15.5 -36.5v-672q0 -5 0.5 -14.5t5.5 -37t13.5 -52t27 -55t43.5 -52t65.5 -36.5t90.5 -15t90.5 14.5t65.5 37.5t43.5 51t27 56t13.5 51
t6 37v15v672q0 20 15.5 36.5t35.5 16.5h146q20 0 35.5 -16.5t15.5 -36.5v-682q0 -76 -17 -140.5t-45.5 -110t-65.5 -82.5t-78 -59.5t-82 -39.5t-78 -24.5t-65.5 -12t-45.5 -4.5zM610 1290q-162 0 -261.5 74.5t-119.5 212.5q0 19 14 34t33 15h132q15 0 27.5 -10.5t17.5 -24.5
q16 -54 59.5 -78t97.5 -24t98 24t60 78q5 14 17.5 24.5t27.5 10.5h131q19 0 33 -15t14 -34q-20 -138 -119.5 -212.5t-261.5 -74.5z" />
    <glyph glyph-name="ubreve" unicode="&#x16d;" horiz-adv-x="1073" 
d="M537 -23q-78 0 -143 17.5t-107.5 45.5t-74.5 67t-49.5 76.5t-28.5 80t-14 72t-3 57.5v422q0 20 15.5 36.5t35.5 16.5h145q20 0 36 -16.5t16 -36.5v-430q0 -27 5 -52.5t20.5 -59t53 -54t93.5 -20.5t93.5 20.5t53 54t20.5 59t5 52.5v430q0 20 15.5 36.5t35.5 16.5h145
q20 0 35.5 -16.5t15.5 -36.5v-422q0 -28 -3 -57.5t-13.5 -72t-28 -80t-50 -76.5t-75 -67t-107 -45.5t-142.5 -17.5zM537 985q-162 0 -261.5 74.5t-119.5 212.5q0 19 14 34t33 15h131q15 0 27.5 -10.5t17.5 -24.5q16 -54 60 -78t98 -24t97.5 24t59.5 78q5 14 17.5 24.5
t27.5 10.5h131q19 0 33.5 -15t14.5 -34q-20 -138 -119.5 -212.5t-261.5 -74.5z" />
    <glyph glyph-name="Uring" unicode="&#x16e;" horiz-adv-x="1216" 
d="M608 -23q-10 0 -28 1t-69 10.5t-97.5 26t-103.5 52t-98 83.5t-69 126t-28 175v682q0 20 15.5 36.5t35.5 16.5h145q20 0 35.5 -16.5t15.5 -36.5v-672q0 -5 0.5 -14.5t5.5 -37t13.5 -52t27 -55t43.5 -52t65.5 -36.5t90.5 -15t90.5 14.5t65.5 37.5t43.5 51t27 56t13.5 51
t6 37v15v672q0 20 15.5 36.5t35.5 16.5h146q20 0 35.5 -16.5t15.5 -36.5v-682q0 -76 -17 -140.5t-45.5 -110t-65.5 -82.5t-78 -59.5t-82 -39.5t-78 -24.5t-65.5 -12t-45.5 -4.5zM606 1804q107 0 182.5 -74.5t75.5 -181.5t-75.5 -182.5t-182.5 -75.5t-182.5 75.5t-75.5 182.5
t75.5 181.5t182.5 74.5zM606 1454q38 0 65 28t27 66q0 37 -27 64.5t-65 27.5t-66 -27.5t-28 -64.5q0 -38 28 -66t66 -28z" />
    <glyph glyph-name="uring" unicode="&#x16f;" horiz-adv-x="1073" 
d="M537 -23q-78 0 -143 17.5t-107.5 45.5t-74.5 67t-49.5 76.5t-28.5 80t-14 72t-3 57.5v422q0 20 15.5 36.5t35.5 16.5h145q20 0 36 -16.5t16 -36.5v-430q0 -27 5 -52.5t20.5 -59t53 -54t93.5 -20.5t93.5 20.5t53 54t20.5 59t5 52.5v430q0 20 15.5 36.5t35.5 16.5h145
q20 0 35.5 -16.5t15.5 -36.5v-422q0 -28 -3 -57.5t-13.5 -72t-28 -80t-50 -76.5t-75 -67t-107 -45.5t-142.5 -17.5zM537 1499q107 0 182.5 -74.5t75.5 -181.5t-75.5 -182.5t-182.5 -75.5t-182.5 75.5t-75.5 182.5t75.5 181.5t182.5 74.5zM537 1149q38 0 65 28t27 66
q0 37 -27 64.5t-65 27.5t-66.5 -27.5t-28.5 -64.5q0 -38 28.5 -66t66.5 -28z" />
    <glyph glyph-name="Uhungarumlaut" unicode="&#x170;" horiz-adv-x="1216" 
d="M608 -23q-10 0 -28 1t-69 10.5t-97.5 26t-103.5 52t-98 83.5t-69 126t-28 175v682q0 20 15.5 36.5t35.5 16.5h145q20 0 35.5 -16.5t15.5 -36.5v-672q0 -5 0.5 -14.5t5.5 -37t13.5 -52t27 -55t43.5 -52t65.5 -36.5t90.5 -15t90.5 14.5t65.5 37.5t43.5 51t27 56t13.5 51
t6 37v15v672q0 20 15.5 36.5t35.5 16.5h146q20 0 35.5 -16.5t15.5 -36.5v-682q0 -76 -17 -140.5t-45.5 -110t-65.5 -82.5t-78 -59.5t-82 -39.5t-78 -24.5t-65.5 -12t-45.5 -4.5zM655 1518l-82 -197q-15 -29 -43 -29h-120q-23 0 -37.5 16t-14.5 38l58 192q4 13 18 22t27 9
h141q23 0 38 -15t15 -36zM973 1518l-82 -197q-15 -29 -43 -29h-121q-23 0 -37 16t-14 38l57 192q4 13 18 22t27 9h142q23 0 38 -15t15 -36z" />
    <glyph glyph-name="uhungarumlaut" unicode="&#x171;" horiz-adv-x="1073" 
d="M537 -23q-78 0 -143 17.5t-107.5 45.5t-74.5 67t-49.5 76.5t-28.5 80t-14 72t-3 57.5v422q0 20 15.5 36.5t35.5 16.5h145q20 0 36 -16.5t16 -36.5v-430q0 -27 5 -52.5t20.5 -59t53 -54t93.5 -20.5t93.5 20.5t53 54t20.5 59t5 52.5v430q0 20 15.5 36.5t35.5 16.5h145
q20 0 35.5 -16.5t15.5 -36.5v-422q0 -28 -3 -57.5t-13.5 -72t-28 -80t-50 -76.5t-75 -67t-107 -45.5t-142.5 -17.5zM573 1210l-81 -196q-14 -29 -43 -29h-121q-23 0 -37.5 15.5t-14.5 37.5l58 193q4 13 18 22t27 9h141q23 0 38 -15.5t15 -36.5zM891 1210l-82 -196
q-15 -29 -43 -29h-121q-23 0 -37 15.5t-14 37.5l57 193q4 13 18 22t27 9h142q23 0 38 -15.5t15 -36.5z" />
    <glyph glyph-name="Uogonek" unicode="&#x172;" horiz-adv-x="1216" 
d="M1051 1186q20 0 35.5 -16.5t15.5 -36.5v-682q0 -97 -28 -175t-68.5 -126t-97.5 -83t-103.5 -51.5t-97.5 -25.5v-105q0 -24 -29 -28l-45 -7q-2 0 -4.5 -1t-9.5 -5t-12.5 -9t-10 -15t-4.5 -21q0 -22 17 -34.5t48 -12.5l48 6q13 0 22.5 -10t9.5 -22v-82q0 -13 -9.5 -22
t-22.5 -11q-58 -8 -103 -8q-25 0 -55 6t-69 22.5t-65 54t-26 91.5q0 32 12 58.5t28.5 41t33.5 24.5t29 13l12 4v72q-51 11 -97 28t-101.5 52.5t-95 83.5t-66.5 125t-27 172v682q0 20 15.5 36.5t35.5 16.5h145q20 0 35.5 -16.5t15.5 -36.5v-672q0 -5 0.5 -14.5t5.5 -37
t13.5 -52t27 -55t43.5 -52t65.5 -36.5t90.5 -15t90.5 14.5t65.5 37.5t43.5 51t27 56t13.5 51t6 37v15v672q0 20 15.5 36.5t35.5 16.5h146z" />
    <glyph glyph-name="uogonek" unicode="&#x173;" horiz-adv-x="1073" 
d="M956 393q0 -37 -5 -76t-25 -95t-52.5 -100.5t-94 -83t-142.5 -52.5v-101q0 -24 -29 -28l-45 -7q-2 0 -4.5 -1t-9.5 -5t-12.5 -9t-10 -15t-4.5 -21q0 -22 17.5 -34.5t48.5 -12.5l47 6q13 0 23 -10t10 -22v-82q0 -13 -10 -22t-23 -11q-58 -8 -103 -8q-25 0 -55 6t-69 22.5
t-65 54t-26 91.5q0 32 12 58.5t28.5 41t33.5 24.5t29 13l12 4v70q-81 14 -142 52.5t-92.5 82.5t-51 100t-24.5 94.5t-5 75.5v422q0 20 15.5 36.5t35.5 16.5h145q20 0 36 -16.5t16 -36.5v-430q0 -27 5 -52.5t20.5 -59t53 -54t93.5 -20.5t93.5 20.5t53 54t20.5 59t5 52.5v430
q0 20 15.5 36.5t35.5 16.5h145q20 0 35.5 -16.5t15.5 -36.5v-422z" />
    <glyph glyph-name="Ydieresis" unicode="&#x178;" horiz-adv-x="1118" 
d="M684 399v-346q0 -20 -15.5 -36.5t-35.5 -16.5h-146q-20 0 -35.5 16.5t-15.5 36.5v346l-395 736q0 20 14.5 35.5t34.5 15.5h156q27 0 45 -33l268 -504l268 504q18 33 45 33h156q20 0 34.5 -15.5t14.5 -35.5zM246 1430q0 57 41 98t98 41t98 -41t41 -98t-41 -98.5t-98 -41.5
t-98 41.5t-41 98.5zM596 1430q0 57 41 98t98 41t98 -41t41 -98t-41 -98.5t-98 -41.5t-98 41.5t-41 98.5z" />
    <glyph glyph-name="Zacute" unicode="&#x179;" horiz-adv-x="1054" 
d="M86 227l561 740h-504q-17 0 -32 14t-15 31v127q0 18 14.5 32.5t32.5 14.5h768q18 0 32.5 -14.5t14.5 -32.5v-154q0 -14 -10 -27l-559 -739h543q17 0 32 -14t15 -31v-127q0 -18 -14.5 -32.5t-32.5 -14.5h-809q-18 0 -32.5 14.5t-14.5 32.5v154q0 13 10 26zM799 1516
l-125 -197q-18 -29 -45 -29h-127q-23 0 -38 15.5t-15 37.5l98 193q6 12 20 21.5t27 9.5h151q23 0 38.5 -15t15.5 -36z" />
    <glyph glyph-name="zacute" unicode="&#x17a;" horiz-adv-x="907" 
d="M104 227l398 422h-361q-17 0 -32 14t-15 31v127q0 18 14.5 32.5t32.5 14.5h625q18 0 32.5 -14.5t14.5 -32.5v-153q0 -14 -10 -27l-406 -422h369q17 0 32 -14t15 -31v-127q0 -18 -14.5 -32.5t-32.5 -14.5h-625q-18 0 -32.5 14.5t-14.5 32.5v154q0 13 10 26zM711 1210
l-125 -196q-18 -29 -45 -29h-127q-23 0 -38.5 15.5t-15.5 37.5l99 193q6 12 20 21.5t27 9.5h151q23 0 38.5 -15.5t15.5 -36.5z" />
    <glyph glyph-name="Zdotaccent" unicode="&#x17b;" horiz-adv-x="1054" 
d="M86 227l561 740h-504q-17 0 -32 14t-15 31v127q0 18 14.5 32.5t32.5 14.5h768q18 0 32.5 -14.5t14.5 -32.5v-154q0 -14 -10 -27l-559 -739h543q17 0 32 -14t15 -31v-127q0 -18 -14.5 -32.5t-32.5 -14.5h-809q-18 0 -32.5 14.5t-14.5 32.5v154q0 13 10 26zM387 1430
q0 57 41 98t98 41t98.5 -41t41.5 -98t-41.5 -98.5t-98.5 -41.5t-98 41.5t-41 98.5z" />
    <glyph glyph-name="zdotaccent" unicode="&#x17c;" horiz-adv-x="907" 
d="M104 227l398 422h-361q-17 0 -32 14t-15 31v127q0 18 14.5 32.5t32.5 14.5h625q18 0 32.5 -14.5t14.5 -32.5v-153q0 -14 -10 -27l-406 -422h369q17 0 32 -14t15 -31v-127q0 -18 -14.5 -32.5t-32.5 -14.5h-625q-18 0 -32.5 14.5t-14.5 32.5v154q0 13 10 26zM313 1124
q0 57 41.5 98.5t98.5 41.5t98 -41.5t41 -98.5t-41 -98t-98 -41t-98.5 41t-41.5 98z" />
    <glyph glyph-name="Zcaron" unicode="&#x17d;" horiz-adv-x="1054" 
d="M86 227l561 740h-504q-17 0 -32 14t-15 31v127q0 18 14.5 32.5t32.5 14.5h768q18 0 32.5 -14.5t14.5 -32.5v-154q0 -14 -10 -27l-559 -739h543q17 0 32 -14t15 -31v-127q0 -18 -14.5 -32.5t-32.5 -14.5h-809q-18 0 -32.5 14.5t-14.5 32.5v154q0 13 10 26zM635 1290h-215
q-34 0 -55 41l-123 260q0 25 18.5 44.5t44.5 19.5h113q18 0 33.5 -10t21.5 -27l53 -117l56 117q6 17 21.5 27t33.5 10h115q24 0 42.5 -19.5t18.5 -44.5l-123 -260q-20 -41 -55 -41z" />
    <glyph glyph-name="zcaron" unicode="&#x17e;" horiz-adv-x="907" 
d="M104 227l398 422h-361q-17 0 -32 14t-15 31v127q0 18 14.5 32.5t32.5 14.5h625q18 0 32.5 -14.5t14.5 -32.5v-153q0 -14 -10 -27l-406 -422h369q17 0 32 -14t15 -31v-127q0 -18 -14.5 -32.5t-32.5 -14.5h-625q-18 0 -32.5 14.5t-14.5 32.5v154q0 13 10 26zM559 985h-215
q-34 0 -55 41l-123 260q0 25 18.5 44.5t44.5 19.5h113q18 0 33.5 -10t21.5 -27l54 -117l55 117q6 17 21.5 27t33.5 10h115q24 0 42.5 -19.5t18.5 -44.5l-123 -260q-20 -41 -55 -41z" />
    <glyph glyph-name="florin" unicode="&#x192;" horiz-adv-x="772" 
d="M680 1042l-27 2q-41 0 -73.5 -14.5t-49 -35t-27 -40.5t-13.5 -34l-3 -15l-6 -37h164q17 0 32 -14t15 -31l-24 -129q0 -18 -14.5 -32.5t-32.5 -14.5h-179l-161 -975q-1 -10 -14 -19t-27 -9h-158q-15 0 -28 14t-13 29l158 960h-107q-17 0 -32 14t-15 31l18 129
q0 18 15 32.5t33 14.5h125q1 7 5 26t5 30q18 92 58.5 160.5t83 102t94 53t78.5 23t50 3.5q37 0 95 -4q17 0 32 -14t15 -31l-21 -130q0 -18 -16.5 -31.5t-34.5 -13.5z" />
    <glyph glyph-name="uni0218" unicode="&#x218;" horiz-adv-x="1067" 
d="M84 172q-10 17 -10 33q0 30 24 47l88 72q16 12 37 12q17 0 31 -14q48 -50 121.5 -86.5t161.5 -36.5q58 0 100.5 16t61 39t26.5 41.5t8 32.5q0 35 -28 62.5t-73.5 46t-104 39t-119 40t-119 51.5t-104 71t-73.5 100.5t-28 138.5q0 38 11 78t41 86t75 82t121.5 59.5
t173.5 23.5q80 0 149.5 -17t117.5 -45.5t79.5 -55t54.5 -56.5q15 -15 15 -28q0 -28 -15 -35l-94 -70q-15 -12 -35 -12q-22 0 -37 18q-89 80 -249 80q-65 0 -112.5 -36t-47.5 -87q0 -42 28 -74t73.5 -50.5t104 -38.5t119 -36.5t119 -46t104 -66t73.5 -98t28 -139.5
q0 -38 -14 -80.5t-48 -89t-84 -83t-130.5 -60t-178.5 -23.5q-289 0 -442 195zM647 -160l-86 -176q-18 -29 -45 -29h-127q-23 0 -38 16t-15 38l63 172q6 12 20 21t27 9h148q23 0 38 -15t15 -36z" />
    <glyph glyph-name="uni0219" unicode="&#x219;" horiz-adv-x="827" 
d="M551 625q-72 53 -131 53q-109 0 -109 -55q0 -27 25.5 -45.5t66 -30t89.5 -23t98.5 -31.5t90 -48.5t66 -80t25.5 -120.5q0 -45 -24.5 -90.5t-70 -85.5t-122 -65.5t-170.5 -25.5q-112 0 -191 43t-128 101q-11 15 -11 31q0 26 21 43l86 55q17 10 35 10q22 0 32 -10
q25 -26 65.5 -41t68.5 -17l28 -2q133 0 133 58q0 22 -25.5 38t-66 27.5t-89.5 23.5t-98.5 33.5t-90 51.5t-66 82t-25.5 121q0 105 91 185.5t256 80.5q162 0 288 -121q21 -18 21 -41q0 -26 -19 -41l-84 -61q-15 -11 -34 -11q-22 0 -31 9zM526 -160l-86 -176q-18 -29 -45 -29
h-127q-23 0 -38 16t-15 38l64 172q6 12 20 21t27 9h147q23 0 38 -15t15 -36z" />
    <glyph glyph-name="uni021A" unicode="&#x21a;" horiz-adv-x="1136" 
d="M444 53v914h-321q-17 0 -32 14t-15 31v127q0 18 14.5 32.5t32.5 14.5h891q18 0 32.5 -14.5t14.5 -32.5v-127q0 -17 -15 -31t-32 -14h-322v-914q0 -20 -15.5 -36.5t-35.5 -16.5h-145q-20 0 -36 16.5t-16 36.5zM668 -160l-86 -176q-18 -29 -45 -29h-127q-23 0 -38.5 16
t-15.5 38l64 172q6 12 20 21t27 9h147q23 0 38.5 -15t15.5 -36z" />
    <glyph glyph-name="uni021B" unicode="&#x21b;" horiz-adv-x="774" 
d="M569 -160l-86 -176q-18 -29 -45 -29h-127q-23 0 -38 16t-15 38l64 172q6 12 20 21t27 9h147q23 0 38 -15t15 -36zM471 1157v-289h170q18 0 32.5 -14.5t14.5 -32.5v-129q0 -17 -15 -31t-32 -14h-170v-321q0 -5 0.5 -12.5t8.5 -27.5t21.5 -35t43.5 -27.5t71 -12.5
q11 0 25 2q18 0 31.5 -13.5t13.5 -31.5v-121q0 -17 -13 -30t-30 -13q-58 -4 -115 -4q-17 0 -31.5 1t-48 7.5t-60 18t-59 36.5t-54.5 59.5t-37 90.5t-15 125v309h-123q-17 0 -32 14t-15 31v129q0 18 14.5 32.5t32.5 14.5h123v258q0 21 11.5 36t31.5 18l152 34q20 0 36.5 -18
t16.5 -39z" />
    <glyph glyph-name="circumflex" unicode="&#x2c6;" horiz-adv-x="825" 
d="M305 1186h215q34 0 55 -41l123 -260q0 -25 -18.5 -44.5t-42.5 -19.5h-115q-18 0 -33.5 10t-21.5 27l-55 117l-54 -117q-6 -17 -21.5 -27t-33.5 -10h-113q-26 0 -44.5 19.5t-18.5 44.5l123 260q20 41 55 41z" />
    <glyph glyph-name="caron" unicode="&#x2c7;" horiz-adv-x="825" 
d="M520 821h-215q-35 0 -55 41l-123 260q0 25 18.5 44.5t44.5 19.5h113q18 0 33.5 -10t21.5 -27l54 -117l55 117q6 17 21.5 27t33.5 10h115q24 0 42.5 -19.5t18.5 -44.5l-123 -260q-21 -41 -55 -41z" />
    <glyph glyph-name="breve" unicode="&#x2d8;" horiz-adv-x="1015" 
d="M508 850q-162 0 -261.5 74.5t-119.5 212.5q0 19 14 34t33 15h131q15 0 27.5 -10.5t17.5 -24.5q16 -54 60 -78t98 -24t98 24t60 78q5 14 17.5 24.5t27.5 10.5h131q19 0 33 -15t14 -34q-20 -138 -119.5 -212.5t-261.5 -74.5z" />
    <glyph glyph-name="dotaccent" unicode="&#x2d9;" horiz-adv-x="534" 
d="M127 1047q0 57 41 98t98 41q58 0 100 -41t42 -98q0 -59 -42 -100.5t-100 -41.5q-57 0 -98 42t-41 100z" />
    <glyph glyph-name="ring" unicode="&#x2da;" horiz-adv-x="770" 
d="M385 1186q107 0 182.5 -74.5t75.5 -181.5t-75.5 -182.5t-182.5 -75.5t-182.5 75.5t-75.5 182.5t75.5 181.5t182.5 74.5zM385 836q38 0 65 28t27 66q0 37 -27 64.5t-65 27.5t-66 -27.5t-28 -64.5q0 -38 28 -66t66 -28z" />
    <glyph glyph-name="ogonek" unicode="&#x2db;" horiz-adv-x="604" 
d="M446 -31v-84q0 -25 -28 -28l-45 -7q-2 0 -4.5 -1t-9.5 -5t-12.5 -9t-10 -15t-4.5 -21q0 -22 17 -34.5t48 -12.5l47 6q13 0 23 -10t10 -22v-82q0 -13 -10 -22t-23 -11q-58 -8 -102 -8q-25 0 -55 6t-69 22.5t-65 54t-26 91.5q0 32 12 58.5t28.5 41t33.5 24.5t29 13l12 4v51
q0 17 11 28t28 11h127q17 0 27.5 -11t10.5 -28z" />
    <glyph glyph-name="tilde" unicode="&#x2dc;" horiz-adv-x="993" 
d="M391 981q-54 0 -72 -51q-9 -31 -43 -31h-104q-20 0 -32.5 13.5t-12.5 33.5q6 66 29 115t52 72t57.5 36t47.5 15l19 2q52 0 96.5 -14t69.5 -31t53 -31t51 -14q54 0 72 51q9 31 43 31h104q20 0 32.5 -13.5t12.5 -34.5q-6 -66 -29 -115t-52 -71.5t-57 -36t-47 -15.5l-19 -1
q-45 1 -100 23.5t-101 44.5t-70 22z" />
    <glyph glyph-name="hungarumlaut" unicode="&#x2dd;" horiz-adv-x="868" 
d="M424 1137l-82 -197q-14 -29 -43 -29h-121q-23 0 -37 16t-14 38l57 192q4 13 18 22t27 9h142q23 0 38 -15t15 -36zM741 1137l-82 -197q-15 -29 -43 -29h-120q-23 0 -37.5 16t-14.5 38l58 192q4 13 18 22t27 9h141q23 0 38 -15t15 -36z" />
    <glyph glyph-name="uni03A9" unicode="&#x3a9;" horiz-adv-x="1392" 
d="M696 1206q127 0 225.5 -48t159.5 -132.5t92 -194.5t31 -239q0 -194 -82 -371h97q18 0 32.5 -14.5t14.5 -32.5v-129q0 -17 -15 -31t-32 -14h-351q-17 0 -32 14t-15 31v160q0 22 19 37q59 43 87.5 143t28.5 207q0 393 -260 393t-260 -393q0 -106 29 -206.5t88 -143.5
q18 -14 18 -37v-160q0 -17 -15 -31t-32 -14h-350q-17 0 -32 14t-15 31v129q0 18 14.5 32.5t32.5 14.5h96q-82 177 -82 371q0 129 31 239t92 194.5t159.5 132.5t225.5 48z" />
    <glyph glyph-name="pi" unicode="&#x3c0;" horiz-adv-x="1613" 
d="M1204 647v-594q0 -20 -15.5 -36.5t-35.5 -16.5h-145q-20 0 -36 16.5t-16 36.5v594h-299v-594q0 -20 -15.5 -36.5t-35.5 -16.5h-145q-20 0 -35.5 16.5t-15.5 36.5v594h-236q-17 0 -32 14t-15 31v127q0 18 14.5 32.5t32.5 14.5h1266q18 0 32.5 -14.5t14.5 -32.5v-127
q0 -17 -15 -31t-32 -14h-236z" />
    <glyph glyph-name="endash" unicode="&#x2013;" horiz-adv-x="845" 
d="M672 307h-498q-17 0 -32 14t-15 31v127q0 18 14.5 32.5t32.5 14.5h498q18 0 32.5 -14.5t14.5 -32.5v-127q0 -17 -15 -31t-32 -14z" />
    <glyph glyph-name="emdash" unicode="&#x2014;" horiz-adv-x="1001" 
d="M827 307h-653q-17 0 -32 14t-15 31v127q0 18 14.5 32.5t32.5 14.5h653q18 0 32.5 -14.5t14.5 -32.5v-127q0 -17 -15 -31t-32 -14z" />
    <glyph glyph-name="quoteleft" unicode="&#x2018;" horiz-adv-x="577" 
d="M127 905l113 273q14 28 43 28h116q23 0 37.5 -15.5t14.5 -37.5l-84 -268q-4 -13 -18 -22t-27 -9h-142q-23 0 -38 15t-15 36z" />
    <glyph glyph-name="quoteright" unicode="&#x2019;" horiz-adv-x="577" 
d="M451 1155l-113 -272q-14 -29 -43 -29h-117q-23 0 -37 15.5t-14 37.5l84 269q4 13 18 21.5t27 8.5h141q23 0 38.5 -15t15.5 -36z" />
    <glyph glyph-name="quotesinglbase" unicode="&#x201a;" horiz-adv-x="577" 
d="M451 135l-113 -272q-14 -29 -43 -29h-117q-23 0 -37 15.5t-14 37.5l84 269q4 13 18 21.5t27 8.5h141q23 0 38.5 -15t15.5 -36z" />
    <glyph glyph-name="quotedblleft" unicode="&#x201c;" horiz-adv-x="925" 
d="M127 905l113 273q14 28 43 28h116q23 0 37.5 -15.5t14.5 -37.5l-84 -268q-4 -13 -18 -22t-27 -9h-142q-23 0 -38 15t-15 36zM475 905l113 273q14 28 43 28h117q23 0 37 -15.5t14 -37.5l-84 -268q-4 -13 -18 -22t-27 -9h-142q-23 0 -38 15t-15 36z" />
    <glyph glyph-name="quotedblright" unicode="&#x201d;" horiz-adv-x="925" 
d="M799 1155l-113 -272q-14 -29 -43 -29h-117q-23 0 -37 15.5t-14 37.5l84 269q4 13 18 21.5t27 8.5h141q23 0 38.5 -15t15.5 -36zM451 1155l-113 -272q-14 -29 -43 -29h-117q-23 0 -37 15.5t-14 37.5l84 269q4 13 18 21.5t27 8.5h141q23 0 38.5 -15t15.5 -36z" />
    <glyph glyph-name="quotedblbase" unicode="&#x201e;" horiz-adv-x="925" 
d="M799 135l-113 -272q-14 -29 -43 -29h-117q-23 0 -37 15.5t-14 37.5l84 269q4 13 18 21.5t27 8.5h141q23 0 38.5 -15t15.5 -36zM451 135l-113 -272q-14 -29 -43 -29h-117q-23 0 -37 15.5t-14 37.5l84 269q4 13 18 21.5t27 8.5h141q23 0 38.5 -15t15.5 -36z" />
    <glyph glyph-name="dagger" unicode="&#x2020;" horiz-adv-x="1003" 
d="M377 -238v914h-203q-17 0 -32 14t-15 31v127q0 18 14.5 32.5t32.5 14.5h203v238q0 20 15.5 36.5t35.5 16.5h145q20 0 36 -16.5t16 -36.5v-238h204q18 0 33 -14.5t15 -32.5v-127q0 -17 -15 -31t-33 -14h-204v-914q0 -20 -16 -36.5t-36 -16.5h-145q-20 0 -35.5 16.5
t-15.5 36.5z" />
    <glyph glyph-name="daggerdbl" unicode="&#x2021;" horiz-adv-x="1003" 
d="M174 219h203v457h-203q-17 0 -32 14t-15 31v127q0 18 14.5 32.5t32.5 14.5h203v238q0 20 15.5 36.5t35.5 16.5h145q20 0 36 -16.5t16 -36.5v-238h204q18 0 33 -14.5t15 -32.5v-127q0 -17 -15 -31t-33 -14h-204v-457h204q18 0 33 -14.5t15 -32.5v-127q0 -17 -15 -31
t-33 -14h-204v-238q0 -20 -16 -36.5t-36 -16.5h-145q-20 0 -35.5 16.5t-15.5 36.5v238h-203q-17 0 -32 14t-15 31v127q0 18 14.5 32.5t32.5 14.5z" />
    <glyph glyph-name="bullet" unicode="&#x2022;" horiz-adv-x="534" 
d="M127 428q0 58 41 99.5t98 41.5q59 0 100.5 -41.5t41.5 -99.5q0 -57 -42 -98t-100 -41q-57 0 -98 41t-41 98z" />
    <glyph glyph-name="ellipsis" unicode="&#x2026;" horiz-adv-x="1722" 
d="M127 117q0 57 41 98t98 41q58 0 100 -41t42 -98t-42 -98.5t-100 -41.5q-57 0 -98 41.5t-41 98.5zM721 117q0 57 41 98t98 41q58 0 99.5 -41t41.5 -98t-41.5 -98.5t-99.5 -41.5q-57 0 -98 41.5t-41 98.5zM1315 117q0 57 41 98t98 41q58 0 99.5 -41t41.5 -98t-41.5 -98.5
t-99.5 -41.5q-57 0 -98 41.5t-41 98.5z" />
    <glyph glyph-name="perthousand" unicode="&#x2030;" horiz-adv-x="2127" 
d="M1120 492q107 0 182.5 -74.5t75.5 -181.5t-75.5 -183t-182.5 -76t-182.5 76t-75.5 183t75.5 181.5t182.5 74.5zM1120 154q34 0 57 24t23 58q0 32 -23 55.5t-57 23.5t-58 -23.5t-24 -55.5q0 -34 24 -58t58 -24zM385 1186q107 0 182.5 -74.5t75.5 -181.5t-75.5 -182.5
t-182.5 -75.5t-182.5 75.5t-75.5 182.5t75.5 181.5t182.5 74.5zM385 848q34 0 57 24t23 58q0 33 -23.5 56.5t-56.5 23.5q-34 0 -58 -24t-24 -56q0 -34 24 -58t58 -24zM348 45l627 1114q12 27 37 27h127q19 0 32 -13t13 -32l-627 -1114q-15 -27 -37 -27h-127q-19 0 -32 13
t-13 32zM1743 492q107 0 182.5 -74.5t75.5 -181.5t-75.5 -183t-182.5 -76t-182.5 76t-75.5 183t75.5 181.5t182.5 74.5zM1743 154q34 0 57 24t23 58q0 32 -23.5 55.5t-56.5 23.5q-34 0 -58 -23.5t-24 -55.5q0 -34 24 -58t58 -24z" />
    <glyph glyph-name="guilsinglleft" unicode="&#x2039;" horiz-adv-x="813" 
d="M631 109l-465 194q-39 20 -39 57v177q0 37 39 57l465 194q24 0 39.5 -15.5t15.5 -39.5v-117q0 -36 -33 -49l-305 -118l305 -119q33 -13 33 -49v-117q0 -24 -15.5 -39.5t-39.5 -15.5z" />
    <glyph glyph-name="guilsinglright" unicode="&#x203a;" horiz-adv-x="813" 
d="M647 303l-465 -194q-24 0 -39.5 15.5t-15.5 39.5v117q0 36 33 49l305 119l-305 118q-33 13 -33 49v117q0 24 15.5 39.5t39.5 15.5l465 -194q39 -20 39 -57v-177q0 -37 -39 -57z" />
    <glyph glyph-name="fraction" unicode="&#x2044;" horiz-adv-x="1171" 
d="M127 -254l690 1700q3 13 14.5 20t24.5 7h141q19 0 33 -14.5t14 -33.5l-684 -1699q-10 -27 -41 -27h-145q-18 0 -32.5 14.5t-14.5 32.5z" />
    <glyph glyph-name="euro" unicode="&#x20ac;" horiz-adv-x="1566" 
d="M668 352h-121q53 -72 132 -112.5t171 -40.5q104 0 191 51t137 139q14 27 43 27h165q20 0 35.5 -13.5t18.5 -33.5q-70 -175 -230.5 -283.5t-359.5 -108.5q-196 0 -354.5 103.5t-229.5 271.5h-102q-12 0 -24.5 12t-12.5 25v103q0 13 12.5 24.5t24.5 11.5h57q-4 40 -4 64
q0 39 2 59h-55q-12 0 -24.5 12t-12.5 25v103q0 13 12.5 24.5t24.5 11.5h100q72 170 230.5 274.5t355.5 104.5q200 0 360 -108.5t230 -282.5q-3 -20 -18.5 -33.5t-35.5 -13.5h-165q-29 0 -43 27q-50 88 -137 139t-191 51q-94 0 -174.5 -42.5t-132.5 -115.5h125
q14 0 25.5 -11.5t11.5 -24.5v-103q0 -14 -11.5 -25.5t-25.5 -11.5h-195q-4 -20 -4 -59q0 -24 4 -64h195q14 0 25.5 -11.5t11.5 -24.5v-103q0 -13 -11.5 -25t-25.5 -12z" />
    <glyph glyph-name="uni2116" unicode="&#x2116;" horiz-adv-x="2435" 
d="M922 25l-547 725v-697q0 -20 -15.5 -36.5t-35.5 -16.5h-146q-20 0 -35.5 16.5t-15.5 36.5v1080q0 20 15.5 36.5t35.5 16.5h158q23 0 41 -25l547 -725v697q0 20 15.5 36.5t35.5 16.5h145q20 0 35.5 -16.5t15.5 -36.5v-1080q0 -20 -15.5 -36.5t-35.5 -16.5h-157
q-23 0 -41 25zM1827 1186q199 0 340 -134t141 -323t-141 -323t-340 -134t-340 134t-141 323t141 323t340 134zM1827 494q99 0 168 67.5t69 167.5t-69 168t-168 68t-168.5 -68t-69.5 -168t69.5 -167.5t168.5 -67.5zM2075 -20h-498q-17 0 -32 14t-15 31v127q0 18 14.5 32.5
t32.5 14.5h498q18 0 32.5 -14.5t14.5 -32.5v-127q0 -17 -15 -31t-32 -14z" />
    <glyph glyph-name="trademark" unicode="&#x2122;" horiz-adv-x="1351" 
d="M414 1028v-315q0 -12 -9.5 -20.5t-21.5 -8.5h-90q-13 0 -21 8.5t-8 20.5v315h-106q-13 0 -22 8.5t-9 20.5v98q0 13 8.5 22t22.5 9h360q12 0 20.5 -9t8.5 -22v-98q0 -12 -8.5 -20.5t-20.5 -8.5h-104zM932 776h-8q-5 0 -15 10l-129 138v-209q0 -13 -9 -22t-23 -9h-86
q-14 0 -22.5 9t-8.5 22v438q0 15 8.5 24t22.5 9h88q6 0 24 -12l154 -191l153 191q18 12 25 12h88q14 0 22.5 -9t8.5 -24v-438q0 -13 -8.5 -22t-22.5 -9h-86q-14 0 -23.5 9t-9.5 22v209l-129 -138q-10 -10 -14 -10z" />
    <glyph glyph-name="Omega" unicode="&#x2126;" horiz-adv-x="1392" 
d="M696 1206q127 0 225.5 -48t159.5 -132.5t92 -194.5t31 -239q0 -194 -82 -371h97q18 0 32.5 -14.5t14.5 -32.5v-129q0 -17 -15 -31t-32 -14h-351q-17 0 -32 14t-15 31v160q0 22 19 37q59 43 87.5 143t28.5 207q0 393 -260 393t-260 -393q0 -106 29 -206.5t88 -143.5
q18 -14 18 -37v-160q0 -17 -15 -31t-32 -14h-350q-17 0 -32 14t-15 31v129q0 18 14.5 32.5t32.5 14.5h96q-82 177 -82 371q0 129 31 239t92 194.5t159.5 132.5t225.5 48z" />
    <glyph glyph-name="partialdiff" unicode="&#x2202;" horiz-adv-x="1216" 
d="M606 199q112 0 172 38t60 132q0 51 -16.5 85.5t-49 52.5t-71.5 25t-95 7q-53 0 -92.5 -7t-73.5 -25t-51.5 -52.5t-17.5 -85.5q0 -170 235 -170zM387 940q-31 0 -43 27l-47 112q-4 12 -4 17q0 13 8.5 25.5t17.5 15.5q141 69 302 69q198 0 333.5 -117.5t135.5 -300.5v-735
q0 -20 -16 -36.5t-36 -16.5h-149q-20 0 -35.5 16.5t-15.5 36.5v10q-33 -31 -69.5 -49.5t-80 -26t-71 -9t-76.5 -1.5q-184 0 -299 105t-115 287q0 181 121 286t307 105q178 0 283 -96v102q0 102 -67.5 160.5t-154.5 58.5q-135 0 -229 -45z" />
    <glyph glyph-name="Delta" unicode="&#x2206;" horiz-adv-x="1431" 
d="M975 221l-258 623l-258 -623h516zM860 1147l445 -1094q0 -20 -16 -36.5t-36 -16.5h-1075q-20 0 -35.5 16.5t-15.5 36.5l448 1094q17 39 54 39h178q36 0 53 -39z" />
    <glyph glyph-name="product" unicode="&#x220f;" horiz-adv-x="1613" 
d="M1204 967v-914q0 -20 -15.5 -36.5t-35.5 -16.5h-145q-20 0 -36 16.5t-16 36.5v914h-299v-914q0 -20 -15.5 -36.5t-35.5 -16.5h-145q-20 0 -35.5 16.5t-15.5 36.5v914h-236q-17 0 -32 14t-15 31v127q0 18 14.5 32.5t32.5 14.5h1266q18 0 32.5 -14.5t14.5 -32.5v-127
q0 -17 -15 -31t-32 -14h-236z" />
    <glyph glyph-name="summation" unicode="&#x2211;" horiz-adv-x="1044" 
d="M297 594q0 15 -8 31l-158 346q-4 8 -4 16v152q0 18 14.5 32.5t32.5 14.5h696q18 0 33 -14.5t15 -32.5v-127q0 -17 -15 -31t-33 -14h-473l158 -342q8 -16 8 -31t-8 -31l-158 -344h473q18 0 33 -14t15 -31v-127q0 -18 -15 -32.5t-33 -14.5h-696q-18 0 -32.5 14.5
t-14.5 32.5v152q0 8 4 16l158 348q8 16 8 31z" />
    <glyph glyph-name="minus" unicode="&#x2212;" horiz-adv-x="845" 
d="M672 307h-498q-17 0 -32 14t-15 31v127q0 18 14.5 32.5t32.5 14.5h498q18 0 32.5 -14.5t14.5 -32.5v-127q0 -17 -15 -31t-32 -14z" />
    <glyph glyph-name="radical" unicode="&#x221a;" horiz-adv-x="1449" 
d="M879 1186h397q18 0 32.5 -14.5t14.5 -32.5v-127q0 -17 -15 -31t-32 -14h-246l-364 -936q-5 -12 -19.5 -21.5t-32.5 -9.5h-180q-17 0 -31.5 9.5t-19.5 21.5l-256 604q0 20 15.5 36.5t35.5 16.5h164q33 0 47 -35l135 -387l307 885q6 15 19.5 25t28.5 10z" />
    <glyph glyph-name="infinity" unicode="&#x221e;" horiz-adv-x="1822" 
d="M821 500q-60 79 -124.5 107t-147.5 28q-44 0 -81.5 -11t-67 -42.5t-29.5 -81.5t29.5 -81.5t67 -42.5t81.5 -11q83 0 147.5 28t124.5 107zM1001 500q60 -79 125 -107t148 -28q44 0 81.5 11t67 42.5t29.5 81.5t-29.5 81.5t-67 42.5t-81.5 11q-83 0 -148 -28t-125 -107z
M911 670q151 182 369 182q195 0 305.5 -92t110.5 -258q0 -169 -110.5 -262t-305.5 -93q-95 0 -191.5 42.5t-177.5 140.5q-152 -183 -368 -183q-195 0 -305.5 93t-110.5 262q0 166 110.5 258t305.5 92q217 0 368 -182z" />
    <glyph glyph-name="integral" unicode="&#x222b;" horiz-adv-x="931" 
d="M758 1200q17 0 32 -14t15 -31v-127q0 -18 -14.5 -32.5t-32.5 -14.5l-35 4q-37 0 -64 -15t-39.5 -36t-20 -42.5t-8.5 -36.5l-1 -15v-860q0 -69 -15 -125t-37 -90.5t-54.5 -59.5t-59 -36.5t-60 -18t-48 -7.5t-31.5 -1q-61 0 -111 6q-17 0 -32 14t-15 31v127q0 18 14.5 32.5
t32.5 14.5l35 -4q37 0 64 15t39.5 36t20 42.5t8.5 36.5l1 15v860q0 69 15 125t37 90.5t54.5 59.5t59 36.5t60 18t48 7.5t31.5 1q61 0 111 -6z" />
    <glyph glyph-name="approxequal" unicode="&#x2248;" horiz-adv-x="993" 
d="M391 483q-54 0 -72 -51q-9 -31 -43 -31h-104q-20 0 -32.5 13.5t-12.5 34.5q6 66 29 115t52 71.5t57.5 36t47.5 14.5l19 2q52 0 96.5 -14t69.5 -31t53 -31t51 -14q54 0 72 51q9 31 43 31h104q20 0 32.5 -13.5t12.5 -33.5q-6 -66 -29 -115t-52 -72t-57 -36t-47 -15l-19 -2
q-45 1 -100 23.5t-101 44.5t-70 22zM391 145q-54 0 -72 -51q-9 -31 -43 -31h-104q-20 0 -32.5 13.5t-12.5 34.5q6 66 29 115t52 71.5t57.5 36t47.5 14.5l19 2q52 0 96.5 -14t69.5 -31t53 -31t51 -14q54 0 72 51q9 31 43 31h104q20 0 32.5 -13.5t12.5 -33.5q-6 -66 -29 -115
t-52 -72t-57 -36t-47 -15l-19 -2q-45 1 -100 23.5t-101 44.5t-70 22z" />
    <glyph glyph-name="notequal" unicode="&#x2260;" horiz-adv-x="845" 
d="M197 41l24 84h-47q-17 0 -32 14t-15 31v127q0 18 14.5 32.5t32.5 14.5h113l41 135h-154q-17 0 -32 14t-15 31v127q0 18 14.5 32.5t32.5 14.5h219l31 101q6 24 33 24h125q17 0 30 -13t13 -28l-25 -84h72q18 0 32.5 -14.5t14.5 -32.5v-127q0 -17 -15 -31t-32 -14h-135
l-41 -135h176q18 0 32.5 -14.5t14.5 -32.5v-127q0 -17 -15 -31t-32 -14h-240l-29 -100q-9 -25 -36 -25h-129q-15 0 -28 13.5t-13 27.5z" />
    <glyph glyph-name="lessequal" unicode="&#x2264;" horiz-adv-x="813" 
d="M631 252l-465 194q-39 20 -39 58v176q0 37 39 57l465 195q24 0 39.5 -15.5t15.5 -39.5v-117q0 -36 -33 -49l-305 -119l305 -119q33 -13 33 -49v-117q0 -24 -15.5 -39.5t-39.5 -15.5zM647 0h-481q-14 0 -26.5 12t-12.5 25v102q0 15 12.5 27t26.5 12h481q14 0 26.5 -12
t12.5 -27v-102q0 -13 -12.5 -25t-26.5 -12z" />
    <glyph glyph-name="greaterequal" unicode="&#x2265;" horiz-adv-x="813" 
d="M647 446l-465 -194q-24 0 -39.5 15.5t-15.5 39.5v117q0 36 33 49l305 119l-305 119q-33 13 -33 49v117q0 24 15.5 39.5t39.5 15.5l465 -195q39 -20 39 -57v-176q0 -38 -39 -58zM647 0h-481q-14 0 -26.5 12t-12.5 25v102q0 15 12.5 27t26.5 12h481q14 0 26.5 -12t12.5 -27
v-102q0 -13 -12.5 -25t-26.5 -12z" />
    <glyph glyph-name="lozenge" unicode="&#x25ca;" horiz-adv-x="1247" 
d="M625 938l-219 -346l219 -352l219 352zM780 1149l330 -518q10 -15 10 -41t-10 -41l-326 -512q-25 -37 -53 -37h-213q-28 0 -53 37l-328 512q-10 15 -10 41t10 41l332 518q25 37 53 37h205q28 0 53 -37z" />
    <glyph glyph-name="NULL" horiz-adv-x="0" 
 />
    <glyph glyph-name="superstore" horiz-adv-x="1288" 
d="M641 1034q107 0 203 -41t165.5 -110.5t110.5 -165.5t41 -203q0 -139 -69 -257.5t-189 -187.5t-262 -69q-139 0 -257.5 69t-187.5 187.5t-69 257.5q0 142 69 262t187.5 189t257.5 69zM860 184q66 0 66 56q0 33 -11.5 47t-37.5 14v272q0 88 -66 146q12 4 39 4t39 -4h22v133
q-148 -18 -235 -66q-31 5 -76 5q-101 0 -180 -29v-129h12q105 33 156 33q18 0 29 -0.5t31.5 -2.5t34 -8t28 -15t21.5 -25t7 -37l-168 -17q-43 -4 -75 -12t-65 -27.5t-51 -57t-18 -91.5q0 -85 58.5 -137t150.5 -52q61 0 88 6v111l-12 8q-18 -8 -47 -8q-37 0 -64.5 21
t-27.5 63q0 33 37 45.5t194 38.5v-145q0 -76 21.5 -108t81.5 -32h18z" />
    </font>
</defs>
</svg>
