<?xml version="1.0" standalone="no"?>
<!DOCTYPE svg PUBLIC "-//W3C//DTD SVG 1.1//EN" "http://www.w3.org/Graphics/SVG/1.1/DTD/svg11.dtd" >
<svg xmlns="http://www.w3.org/2000/svg" xmlns:xlink="http://www.w3.org/1999/xlink" version="1.1">
<metadata>
Created by FontForge 20170731 at Sun Jul 25 14:59:51 2021
 By Aleksey,,,
Copyright (c) 2019 by Typesketchbook. All rights reserved.
</metadata>
<defs>
<font id="GroldRounded-Regular" horiz-adv-x="471" >
  <font-face 
    font-family="Grold Rounded Regular"
    font-weight="400"
    font-stretch="normal"
    units-per-em="2048"
    panose-1="2 0 0 0 0 0 0 0 0 0"
    ascent="1536"
    descent="-512"
    x-height="868"
    cap-height="1186"
    bbox="-131 -408 2333 1792"
    underline-thickness="71"
    underline-position="-294"
    unicode-range="U+000D-FB02"
  />
<missing-glyph horiz-adv-x="1286" 
d="M1122 0h-958v1434h958v-1434zM266 1341v-1249h754v1249h-754z" />
    <glyph glyph-name="fi" unicode="fi" horiz-adv-x="1251" 
d="M645 680h-196v-637q0 -15 -13 -29t-28 -14h-119q-15 0 -28 14t-13 29v637h-146q-16 0 -28.5 12t-12.5 29v108q0 15 13 27t28 12h146v54q0 68 14 123.5t35.5 90.5t51.5 61t56.5 38.5t56.5 20t46 9t31 1.5q49 0 104 -6q18 -3 29.5 -13.5t11.5 -25.5v-105q0 -17 -12.5 -29
t-28.5 -12h-18q-36 0 -65 -9t-47 -22.5t-31 -29.5t-19 -32.5t-9.5 -29.5t-3.5 -22l-1 -8v-54h196q15 0 28 -12t13 -27v-108q0 -17 -12.5 -29t-28.5 -12zM899 1065q0 49 35 85t82 36q50 0 85.5 -36t35.5 -85q0 -47 -36 -82t-85 -35q-47 0 -82 35t-35 82zM1116 825v-782
q0 -15 -13 -29t-28 -14h-119q-15 0 -28 14t-13 29v782q0 15 13 29t28 14h119q15 0 28 -14t13 -29z" />
    <glyph glyph-name="fl" unicode="fl" horiz-adv-x="1253" 
d="M645 680h-196v-637q0 -15 -13 -29t-28 -14h-119q-15 0 -28 14t-13 29v637h-146q-16 0 -28.5 12t-12.5 29v108q0 15 13 27t28 12h146v54q0 68 14 123.5t35.5 90.5t51.5 61t56.5 38.5t56.5 20t46 9t31 1.5q49 0 104 -6q18 -3 29.5 -13.5t11.5 -25.5v-105q0 -17 -12.5 -29
t-28.5 -12h-18q-36 0 -65 -9t-47 -22.5t-31 -29.5t-19 -32.5t-9.5 -29.5t-3.5 -22l-1 -8v-54h196q15 0 28 -12t13 -27v-108q0 -17 -12.5 -29t-28.5 -12zM1118 1182v-1139q0 -15 -13 -29t-28 -14h-119q-15 0 -27.5 14t-12.5 29v1139q0 15 12.5 29t27.5 14h119q15 0 28 -14
t13 -29z" />
    <glyph glyph-name=".notdef" horiz-adv-x="1286" 
d="M1122 0h-958v1434h958v-1434zM266 1341v-1249h754v1249h-754z" />
    <glyph glyph-name=".null" horiz-adv-x="0" 
 />
    <glyph glyph-name="nonmarkingreturn" horiz-adv-x="682" 
 />
    <glyph glyph-name="CR" unicode="&#xd;" horiz-adv-x="634" 
 />
    <glyph glyph-name="CR" horiz-adv-x="634" 
 />
    <glyph glyph-name="space" unicode=" " horiz-adv-x="329" 
 />
    <glyph glyph-name="exclam" unicode="!" horiz-adv-x="507" 
d="M135 121q0 47 35 82t82 35q49 0 85 -35t36 -82q0 -49 -35.5 -85t-85.5 -36q-47 0 -82 36t-35 85zM352 1143l-14 -783q0 -15 -13 -29t-28 -14h-90q-15 0 -28 14t-13 29l-14 783q0 15 13 29t28 14h118q15 0 28 -14t13 -29z" />
    <glyph glyph-name="quotedbl" unicode="&#x22;" horiz-adv-x="811" 
d="M152 778l-17 230v137q0 18 11.5 29.5t29.5 11.5h103q17 0 28.5 -12t11.5 -29v-137l-16 -230q0 -17 -12 -29t-29 -12h-72q-15 0 -26.5 12t-11.5 29zM508 778l-16 230v137q0 18 11 29.5t29 11.5h103q17 0 29 -12t12 -29v-137l-17 -230q0 -17 -12 -29t-29 -12h-71
q-15 0 -27 12t-12 29z" />
    <glyph glyph-name="numbersign" unicode="#" horiz-adv-x="1501" 
d="M680 764l-129 -358h268l127 358h-266zM1229 952h96q16 0 28.5 -12t12.5 -29v-108q0 -15 -13 -27t-28 -12h-164l-127 -358h189q16 0 28.5 -12t12.5 -29v-109q0 -15 -13 -27t-28 -12h-258l-70 -194q-5 -9 -16 -16t-23 -7h-127q-19 0 -30 12t-11 31l64 174h-269l-69 -194
q-12 -23 -39 -23h-127q-19 0 -30 12t-11 31l63 174h-94q-15 0 -28 12t-13 27v109q0 17 12.5 29t28.5 12h162l127 358h-186q-15 0 -28 12t-13 27v108q0 17 12.5 29t28.5 12h256l75 211q12 23 39 23h127q19 0 30 -12t11 -31l-69 -191h268l76 211q12 23 38 23h127q19 0 30 -12
t11 -31z" />
    <glyph glyph-name="dollar" unicode="$" horiz-adv-x="1153" 
d="M649 1376v-178q187 -28 295 -149q14 -17 14 -27q0 -23 -12 -31l-86 -61q-20 -12 -31 -12q-19 0 -32 16q-103 84 -258 84q-75 0 -136 -43.5t-61 -102.5q0 -54 37.5 -92.5t97 -62.5t131.5 -45t144 -48.5t131.5 -65t97 -102.5t37.5 -153q0 -34 -11 -71.5t-38.5 -79.5
t-68 -76t-106 -60t-145.5 -34v-175q0 -15 -13 -29t-28 -14h-114q-15 0 -28 14t-13 29v181q-196 33 -308 172q-10 20 -10 28q0 24 21 41l71 60q20 10 33 10q15 0 27 -12q50 -50 127.5 -85.5t171.5 -35.5q55 0 98 13t67 31t40 40.5t21 38.5t5 28q0 39 -29 70t-76.5 51t-108 42
t-123.5 41.5t-123.5 52t-108 71.5t-76.5 101.5t-29 140.5q0 32 8 66.5t30 74.5t55.5 73t89.5 59.5t127 37.5v178q0 15 13 29t28 14h114q15 0 28 -14t13 -29z" />
    <glyph glyph-name="percent" unicode="%" horiz-adv-x="1521" 
d="M387 1186q104 0 178 -73t74 -177t-74 -178t-178 -74t-178 74t-74 178t74 177t178 73zM387 842q39 0 66.5 27.5t27.5 66.5q0 37 -28 64.5t-66 27.5t-66 -27.5t-28 -64.5q0 -39 27.5 -66.5t66.5 -27.5zM1135 479q104 0 177.5 -73t73.5 -177t-73.5 -178t-177.5 -74t-178 74
t-74 178t74 177t178 73zM1135 135q39 0 66.5 27.5t27.5 66.5q0 37 -28 65t-66 28t-66.5 -28t-28.5 -65q0 -39 28 -66.5t67 -27.5zM365 41l626 1120q13 25 35 25h119q17 0 29 -12t12 -29l-627 -1120q-13 -25 -35 -25h-118q-17 0 -29 12t-12 29z" />
    <glyph glyph-name="ampersand" unicode="&#x26;" horiz-adv-x="1329" 
d="M815 264l-326 318q-70 -44 -111.5 -104.5t-41.5 -125.5q0 -78 61.5 -133t163.5 -55q154 0 254 100zM1022 938q0 -17 -13.5 -30t-29.5 -13h-117q-15 0 -28 14t-13 29q-6 70 -52.5 112t-121.5 42q-98 0 -134 -39.5t-36 -108.5q0 -71 121 -188l342 -334q57 72 61 190
q0 19 12 31t29 12h117q18 0 30.5 -12.5t12.5 -30.5q-10 -213 -108 -342l211 -204q4 -12 4 -23q0 -19 -12 -31t-31 -12h-160q-21 0 -37 16l-115 111q-71 -76 -175.5 -113t-217.5 -37q-29 0 -61.5 3.5t-75 14t-81.5 27t-77.5 44.5t-67 64t-46 88t-17.5 114q0 69 27 138
t67.5 120t77.5 86t68 55q-53 53 -76 118t-23 114q0 19 1.5 37.5t9.5 52.5t21.5 62t41.5 60t66 54t97.5 36.5t133.5 14.5q92 0 162.5 -28.5t108.5 -67t62.5 -90.5t32 -87t9.5 -69z" />
    <glyph glyph-name="quotesingle" unicode="'" horiz-adv-x="454" 
d="M152 778l-17 230v137q0 18 11.5 29.5t29.5 11.5h103q17 0 28.5 -12t11.5 -29v-137l-16 -230q0 -17 -12 -29t-29 -12h-72q-15 0 -26.5 12t-11.5 29z" />
    <glyph glyph-name="parenleft" unicode="(" horiz-adv-x="608" 
d="M135 565q0 419 139 875q15 33 41 33h117q19 0 30 -12t11 -31q-137 -460 -137 -865q0 -208 32.5 -401.5t100.5 -421.5q0 -19 -11 -31t-30 -12h-117q-26 0 -41 33q-69 225 -102 423.5t-33 409.5z" />
    <glyph glyph-name="parenright" unicode=")" horiz-adv-x="608" 
d="M473 565q0 -211 -33 -409.5t-102 -423.5q-15 -33 -41 -33h-117q-19 0 -30 12t-11 31q68 228 100.5 421.5t32.5 401.5q0 405 -137 865q0 19 11 31t30 12h117q26 0 41 -33q139 -456 139 -875z" />
    <glyph glyph-name="asterisk" unicode="*" horiz-adv-x="917" 
d="M459 733l-99 -147q-19 -23 -41 -23q-13 0 -30 10l-51 39q-19 19 -19 39q0 19 12 31l121 141l-188 51q-29 11 -29 44q0 2 4 14l25 78q7 28 41 28q6 0 14 -4l172 -76l-18 191q0 15 10 26t23 11h106q15 0 24 -11t9 -26l-19 -191l172 76q8 4 15 4q34 0 41 -28l24 -78
q4 -12 4 -14q0 -15 -8 -27t-20 -17l-189 -51l121 -141q12 -12 12 -31q0 -21 -18 -39l-51 -39q-17 -10 -31 -10q-22 0 -41 23z" />
    <glyph glyph-name="plus" unicode="+" horiz-adv-x="839" 
d="M678 328h-158v-166q0 -15 -13 -29t-28 -14h-119q-15 0 -28 14t-13 29v166h-157q-14 0 -25.5 10.5t-11.5 23.5v97q0 15 11.5 26t25.5 11h157v166q0 15 13 29t28 14h119q15 0 28 -14t13 -29v-166h158q14 0 25.5 -11t11.5 -26v-97q0 -13 -11.5 -23.5t-25.5 -10.5z" />
    <glyph glyph-name="comma" unicode="," horiz-adv-x="598" 
d="M463 162l-150 -303q-15 -23 -34 -23h-107q-37 0 -37 41l123 299q11 25 37 25h129q18 0 28.5 -11.5t10.5 -27.5z" />
    <glyph glyph-name="hyphen" unicode="-" horiz-adv-x="841" 
d="M666 311h-490q-15 0 -28 12t-13 27v109q0 17 12.5 29t28.5 12h490q16 0 28.5 -12t12.5 -29v-109q0 -15 -13 -27t-28 -12z" />
    <glyph glyph-name="period" unicode="." horiz-adv-x="425" 
d="M94 94q0 49 35 85t82 36q49 0 85 -35.5t36 -85.5q0 -47 -36 -82t-85 -35q-47 0 -82 35t-35 82z" />
    <glyph glyph-name="slash" unicode="/" horiz-adv-x="1157" 
d="M135 -260l692 1710q9 23 33 23h121q17 0 29 -12t12 -29l-692 -1711q-8 -22 -33 -22h-121q-17 0 -29 12t-12 29z" />
    <glyph glyph-name="zero" unicode="0" horiz-adv-x="1212" 
d="M606 1206q125 0 221 -48t154.5 -133t87.5 -194t29 -239q0 -131 -29 -240.5t-87.5 -194t-154.5 -132.5t-221 -48t-221 48t-154 133t-87 194t-29 240q0 130 29 239t87 194t154 133t221 48zM606 1018q-291 0 -291 -426t291 -426t291 426t-291 426z" />
    <glyph glyph-name="one" unicode="1" horiz-adv-x="684" 
d="M78 1116l233 62q32 8 54 8h143q15 0 28 -14t13 -29v-1100q0 -15 -13 -29t-28 -14h-119q-15 0 -28 14t-13 29v944l-270 -72q-15 0 -28 12t-13 27v121q0 29 41 41z" />
    <glyph glyph-name="two" unicode="2" horiz-adv-x="997" 
d="M295 852q0 -17 -12.5 -28t-28.5 -11h-119q-16 0 -28.5 11t-12.5 28q1 23 4 46t12.5 60t24.5 68.5t43 66t64.5 58.5t92.5 39.5t124 15.5q79 0 142.5 -18t103.5 -45t69.5 -65.5t43.5 -71.5t22 -73t9 -59.5t1 -39.5q0 -49 -18.5 -104t-44 -102.5t-69.5 -104.5t-79 -96.5
t-88.5 -92.5t-81 -78.5t-74.5 -67.5h426q15 0 28 -11.5t13 -26.5v-109q0 -17 -12.5 -29t-28.5 -12h-669q-17 0 -30 14t-13 31v119q0 12 12 24q139 120 240.5 220.5t155.5 166.5t85.5 121.5t39 85t7.5 58.5q0 178 -186 178q-75 0 -119 -47.5t-49 -118.5z" />
    <glyph glyph-name="three" unicode="3" horiz-adv-x="1003" 
d="M422 680h61q15 0 26.5 1t36.5 5t43.5 14.5t38 27t30 45.5t10.5 67q0 78 -46 128t-145 50q-73 0 -123 -45t-59 -113q0 -17 -12.5 -28t-28.5 -11h-119q-16 0 -28.5 10.5t-12.5 26.5q2 35 10 71.5t32.5 89t62.5 91.5t108 67.5t160 28.5q79 0 143.5 -18t105.5 -45t71 -65.5
t45 -72t24 -72.5t10.5 -59.5t1.5 -39.5q0 -8 -1 -20.5t-10 -48t-25 -65.5t-51 -61.5t-83 -46.5q47 -17 82 -48t51 -63t25.5 -62.5t10.5 -49.5l1 -19q0 -19 -1.5 -39.5t-10.5 -59.5t-24 -73t-45 -72.5t-71 -65.5t-105.5 -45t-143.5 -18q-66 0 -121 15t-92 38.5t-66 56
t-45.5 64t-27.5 67t-15 60.5t-6 48q0 16 12.5 26t28.5 10h119q16 0 28.5 -10.5t12.5 -27.5q9 -68 59 -113t123 -45q99 0 145 50t46 128q0 38 -10.5 67t-30 45.5t-38 27t-43.5 14.5t-36.5 5t-26.5 1h-61q-15 0 -27 11t-12 26v100q0 17 11.5 28t27.5 11z" />
    <glyph glyph-name="four" unicode="4" horiz-adv-x="1001" 
d="M258 416h352v518zM55 461l482 706q19 19 34 19h193q19 0 33 -15t14 -34v-721h96q16 0 28.5 -12t12.5 -29v-109q0 -15 -13 -27t-28 -12h-96v-184q0 -15 -13 -29t-28 -14h-119q-15 0 -28 14t-13 29v184h-522q-15 0 -28 12t-13 27v170q0 13 8 25z" />
    <glyph glyph-name="five" unicode="5" horiz-adv-x="983" 
d="M301 274q47 -110 184 -110q89 0 147 54.5t58 141.5q0 25 -3 48.5t-14.5 54.5t-31 53.5t-56 38.5t-85.5 16q-98 0 -138 -53q-14 -16 -36 -16l-148 16q-21 3 -35 18t-14 35v574q0 17 12.5 29t28.5 12h571q16 0 28.5 -12t12.5 -29v-109q0 -15 -13 -27t-28 -12h-413v-290
l10 7q9 6 17 10t26 11t36.5 11.5t48 8t62.5 3.5q24 0 47.5 -2t61 -11.5t70 -25.5t67 -46t59 -70.5t40.5 -103t16 -139.5q0 -17 -1 -34t-9 -58.5t-22 -75.5t-44 -76t-71.5 -70.5t-108.5 -48.5t-150 -20q-327 0 -389 277q0 15 13 29t28 14h131q20 0 35 -23z" />
    <glyph glyph-name="six" unicode="6" horiz-adv-x="1042" 
d="M520 166q99 0 164.5 61t65.5 158q0 93 -66 156t-164 63q-96 0 -161.5 -63t-65.5 -156q0 -97 64.5 -158t162.5 -61zM725 1143l-219 -350q112 0 199 -35t138.5 -95t78 -133.5t26.5 -156.5q0 -122 -57 -213t-153.5 -137t-217.5 -46q-185 0 -305.5 108t-120.5 288
q0 126 84 270q50 82 161 259t161 259q15 23 39 23h141q18 0 30 -11.5t15 -29.5z" />
    <glyph glyph-name="seven" unicode="7" horiz-adv-x="849" 
d="M229 43l367 954h-518q-15 0 -28 12t-13 27v109q0 17 12.5 29t28.5 12h694q16 0 28.5 -12t12.5 -29v-141q0 -9 -4 -17l-369 -958q-11 -29 -41 -29h-129q-17 0 -29 13t-12 30z" />
    <glyph glyph-name="eight" unicode="8" horiz-adv-x="1126" 
d="M563 1206q186 0 290.5 -92.5t104.5 -234.5q0 -39 -5 -72t-18 -67.5t-40 -64t-66 -50.5q90 -26 136.5 -109t46.5 -180q0 -91 -35 -161t-97.5 -112.5t-142.5 -64t-174 -21.5t-174 21.5t-142 64t-97 112.5t-35 161q0 98 46 180.5t136 108.5q-39 21 -66 50.5t-40 64t-18 67.5
t-5 72q0 142 104.5 234.5t290.5 92.5zM563 164q104 0 176 48.5t72 143.5q0 94 -72.5 144.5t-175.5 50.5t-175.5 -50.5t-72.5 -144.5q0 -95 72 -143.5t176 -48.5zM563 1018q-80 0 -137 -45t-57 -111q0 -67 57 -113.5t137 -46.5t137.5 46.5t57.5 113.5q0 65 -57.5 110.5
t-137.5 45.5z" />
    <glyph glyph-name="nine" unicode="9" horiz-adv-x="1042" 
d="M522 1018q-99 0 -164 -61t-65 -158q0 -93 65.5 -156t163.5 -63q97 0 162.5 63.5t65.5 155.5q0 97 -65 158t-163 61zM317 41l220 350q-112 0 -199 35t-139 95t-78.5 133.5t-26.5 156.5q0 122 57 212.5t153.5 136.5t217.5 46q185 0 305.5 -107.5t120.5 -287.5
q0 -126 -84 -270q-50 -82 -160.5 -259t-160.5 -259q-15 -23 -39 -23h-142q-18 0 -30 11.5t-15 29.5z" />
    <glyph glyph-name="colon" unicode=":" horiz-adv-x="507" 
d="M135 94q0 49 35 85t82 36q50 0 85.5 -35.5t35.5 -85.5q0 -47 -36 -82t-85 -35q-47 0 -82 35t-35 82zM135 672q0 49 35 85t82 36q50 0 85.5 -35.5t35.5 -85.5q0 -47 -36 -82t-85 -35q-47 0 -82 35t-35 82z" />
    <glyph glyph-name="semicolon" unicode=";" horiz-adv-x="618" 
d="M246 672q0 49 34.5 85t81.5 36q50 0 85.5 -35.5t35.5 -85.5q0 -47 -36 -82t-85 -35q-47 0 -81.5 35t-34.5 82zM463 162l-150 -303q-15 -23 -34 -23h-107q-37 0 -37 41l123 299q11 25 37 25h129q18 0 28.5 -11.5t10.5 -27.5z" />
    <glyph glyph-name="less" unicode="&#x3c;" horiz-adv-x="823" 
d="M643 117l-473 200q-35 17 -35 52v153q0 34 35 51l473 197q19 0 32 -12.5t13 -32.5v-98q0 -31 -26 -41l-343 -144l343 -141q26 -10 26 -41v-98q0 -20 -13 -32.5t-32 -12.5z" />
    <glyph glyph-name="equal" unicode="=" horiz-adv-x="841" 
d="M666 96h-490q-15 0 -28 12t-13 27v109q0 17 12.5 29t28.5 12h490q16 0 28.5 -12t12.5 -29v-109q0 -15 -13 -27t-28 -12zM666 528h-490q-15 0 -28 12t-13 27v109q0 17 12.5 29t28.5 12h490q16 0 28.5 -12t12.5 -29v-109q0 -15 -13 -27t-28 -12z" />
    <glyph glyph-name="greater" unicode="&#x3e;" horiz-adv-x="823" 
d="M653 317l-473 -200q-19 0 -32 12.5t-13 32.5v98q0 31 27 41l342 141l-342 144q-27 10 -27 41v98q0 20 13 32.5t32 12.5l473 -197q35 -17 35 -51v-153q0 -35 -35 -52z" />
    <glyph glyph-name="question" unicode="?" horiz-adv-x="1026" 
d="M631 383q-15 -23 -35 -23h-121q-15 0 -28 15.5t-13 30.5q21 50 64 108t80.5 100.5t70.5 103.5t41 122q0 178 -186 178q-73 0 -117.5 -47t-50.5 -117q0 -15 -13 -28t-28 -13h-119q-15 0 -28 13t-13 28q1 23 4.5 47t13.5 60t25.5 68t43.5 65.5t64.5 57t91.5 39t122 15.5
q79 0 142.5 -18t103.5 -45t69.5 -65.5t43.5 -71.5t22 -73t9 -59.5t1 -39.5q0 -59 -29 -122t-65.5 -108.5t-87.5 -110t-78 -110.5zM403 121q0 47 35 82t82 35q49 0 85 -35t36 -82q0 -49 -35.5 -85t-85.5 -36q-47 0 -82 36t-35 85z" />
    <glyph glyph-name="at" unicode="@" horiz-adv-x="1892" 
d="M920 209q82 0 140 62.5t58 148.5q0 84 -58.5 145.5t-139.5 61.5q-84 0 -142.5 -61.5t-58.5 -145.5q0 -87 58.5 -149t142.5 -62zM1133 717v22q0 14 10.5 24.5t23.5 10.5h105q14 0 24.5 -11t10.5 -26v-356q2 -41 14.5 -82t42.5 -75t72 -34q45 0 77 22.5t47.5 60t22 73.5
t6.5 74q-1 173 -85 318t-231.5 230t-326.5 85q-181 0 -329.5 -85.5t-232 -232t-83.5 -321.5q0 -172 83.5 -317t232 -230.5t329.5 -85.5q116 0 225 39q15 0 25 -10.5t10 -24.5v-92q0 -29 -35 -35q-115 -31 -225 -31q-167 0 -317.5 63t-258.5 169.5t-171.5 253t-63.5 307.5
q0 159 63.5 304.5t171.5 251t258.5 168t317.5 62.5q166 0 316 -62.5t258 -168t171.5 -251t63.5 -304.5q0 -13 -0.5 -27.5t-6.5 -55t-16.5 -75t-34 -77.5t-55 -73t-83 -50.5t-115.5 -20.5q-8 0 -22 1t-51.5 8.5t-68.5 20.5t-63.5 42.5t-46.5 68.5q-67 -82 -136.5 -111.5
t-156.5 -29.5q-152 0 -260.5 111t-108.5 268q0 155 108 264t261 109q122 0 234 -76z" />
    <glyph glyph-name="A" unicode="A" horiz-adv-x="1220" 
d="M504 1186h213q17 0 31.5 -9.5t19.5 -21.5l403 -1110q0 -17 -13 -31t-30 -14h-129q-27 0 -38 29l-68 182h-567l-66 -182q-5 -12 -16 -20.5t-23 -8.5h-129q-17 0 -30 14t-13 31l404 1110q5 12 19.5 21.5t31.5 9.5zM610 989l-217 -592h432z" />
    <glyph glyph-name="B" unicode="B" horiz-adv-x="1132" 
d="M336 188h307q96 0 145.5 36t49.5 126q0 92 -49.5 128t-145.5 36h-307v-326zM782 848q0 42 -16 73t-39 45t-45.5 21.5t-38.5 8.5l-16 1h-291v-295h291q6 0 16.5 1t37.5 8.5t47 21t37 44t17 71.5zM176 1186h445q34 0 69.5 -4t91.5 -22.5t97.5 -50t72.5 -94t31 -147.5
q0 -111 -42 -168t-118 -79q37 -8 71.5 -26t68.5 -50.5t54.5 -88t20.5 -126.5q0 -330 -471 -330h-391q-15 0 -28 14t-13 29v1100q0 15 13 29t28 14z" />
    <glyph glyph-name="C" unicode="C" horiz-adv-x="1413" 
d="M743 166q120 0 219 61.5t152 165.5q10 23 37 23h141q36 0 43 -39q-69 -178 -230 -289t-362 -111q-172 0 -316.5 82.5t-228 224t-83.5 308.5t83.5 308.5t228 223.5t316.5 82q201 0 362 -111t230 -288q-7 -39 -43 -39h-141q-27 0 -37 23q-53 104 -152 165.5t-219 61.5
q-175 0 -301.5 -123.5t-126.5 -302.5q0 -174 127 -300t301 -126z" />
    <glyph glyph-name="D" unicode="D" horiz-adv-x="1265" 
d="M598 997h-262v-809h262q172 0 272.5 111.5t100.5 292.5t-100.5 293t-272.5 112zM586 0h-410q-15 0 -28 14t-13 29v1100q0 15 13 29t28 14h410q173 0 307 -78t206 -213t72 -303t-72 -302.5t-206 -212t-307 -77.5z" />
    <glyph glyph-name="E" unicode="E" horiz-adv-x="1032" 
d="M336 188h553q15 0 28 -11.5t13 -26.5v-109q0 -17 -12.5 -29t-28.5 -12h-713q-16 0 -28.5 12t-12.5 29v1104q0 17 12.5 29t28.5 12h713q16 0 28.5 -12t12.5 -29v-109q0 -15 -13 -27t-28 -12h-553v-323h508q16 0 28.5 -12t12.5 -29v-109q0 -15 -13 -27t-28 -12h-508v-297z
" />
    <glyph glyph-name="F" unicode="F" horiz-adv-x="1024" 
d="M844 440h-508v-397q0 -15 -13 -29t-28 -14h-119q-15 0 -28 14t-13 29v1102q0 17 12.5 29t28.5 12h713q16 0 28.5 -12t12.5 -29v-109q0 -15 -13 -27t-28 -12h-553v-368h508q16 0 28.5 -12t12.5 -29v-109q0 -15 -13 -27t-28 -12z" />
    <glyph glyph-name="G" unicode="G" horiz-adv-x="1435" 
d="M1255 983q15 -15 15 -33q0 -22 -19 -35l-84 -59q-15 -10 -24 -10q-13 0 -27 14q-128 158 -373 158q-178 0 -303 -123t-125 -303q0 -175 125.5 -300.5t302.5 -125.5q72 0 132 17.5t98.5 45t68.5 60.5t45.5 66.5t25.5 61t13 45.5l2 17h-247q-15 0 -28 12t-13 27v105
q0 17 12.5 29t28.5 12h411q16 0 28.5 -12t12.5 -29v-150q-17 -98 -56 -177.5t-86.5 -129.5t-107.5 -88t-110 -56.5t-103.5 -29.5t-80 -13t-46.5 -2q-173 0 -317.5 82.5t-227.5 223.5t-83 309q0 126 48 239t131 195.5t200 131t249 48.5q98 0 184.5 -21.5t149 -58t104.5 -71
t74 -72.5z" />
    <glyph glyph-name="H" unicode="H" horiz-adv-x="1243" 
d="M1108 1143v-1100q0 -15 -13 -29t-28 -14h-119q-15 0 -28 14t-13 29v395h-571v-395q0 -15 -13 -29t-28 -14h-119q-15 0 -28 14t-13 29v1100q0 15 13 29t28 14h119q15 0 28 -14t13 -29v-516h571v516q0 15 13 29t28 14h119q15 0 28 -14t13 -29z" />
    <glyph glyph-name="I" unicode="I" 
d="M336 1143v-1100q0 -15 -13 -29t-28 -14h-119q-15 0 -28 14t-13 29v1100q0 15 13 29t28 14h119q15 0 28 -14t13 -29z" />
    <glyph glyph-name="J" unicode="J" horiz-adv-x="909" 
d="M41 121q-8 11 -8 24q0 29 20 41l86 54q16 8 25 8q11 0 35 -12q89 -70 182 -70q51 0 92.5 18t64 45.5t34.5 54t12 48.5v811q0 15 13 29t28 14h118q15 0 28 -14t13 -29v-809q0 -157 -114.5 -257t-300.5 -100q-198 0 -328 144z" />
    <glyph glyph-name="K" unicode="K" horiz-adv-x="1087" 
d="M541 604l524 -559q0 -17 -13 -31t-30 -14h-172q-20 0 -31 14l-485 514v-485q0 -15 -13 -29t-28 -14h-117q-15 0 -28 14t-13 29v1100q0 15 13 29t28 14h117q15 0 28 -14t13 -29v-471l438 499q12 15 31 15h166q17 0 30 -14t13 -31z" />
    <glyph glyph-name="L" unicode="L" horiz-adv-x="991" 
d="M135 41v1102q0 15 13 29t28 14h119q15 0 28 -14t13 -29v-955h551q15 0 28 -11.5t13 -26.5v-109q0 -17 -12.5 -29t-28.5 -12h-711q-16 0 -28.5 12t-12.5 29z" />
    <glyph glyph-name="M" unicode="M" horiz-adv-x="1527" 
d="M776 217h-24q-19 0 -31 16l-385 617v-807q0 -15 -13 -29t-28 -14h-119q-15 0 -28 14t-13 29v1100q0 15 13 29t28 14h168q20 0 31 -19l389 -622l389 622q11 19 31 19h168q15 0 28 -14t13 -29v-1100q0 -15 -13 -29t-28 -14h-119q-15 0 -28 14t-13 29v807l-385 -617
q-12 -16 -31 -16z" />
    <glyph glyph-name="N" unicode="N" horiz-adv-x="1298" 
d="M961 18l-625 820v-795q0 -15 -13 -29t-28 -14h-119q-15 0 -28 14t-13 29v1100q0 15 13 29t28 14h135q20 0 31 -19l621 -819v795q0 15 13 29t28 14h118q15 0 28 -14t13 -29v-1100q0 -15 -13 -29t-28 -14h-131q-19 0 -30 18z" />
    <glyph glyph-name="O" unicode="O" horiz-adv-x="1482" 
d="M741 1206q129 0 245.5 -48.5t200 -130.5t132.5 -196t49 -239q0 -168 -83 -309t-227.5 -223.5t-316.5 -82.5t-316 82.5t-227 223.5t-83 309t83 309t227 223t316 82zM741 166q174 0 300 126t126 300q0 118 -58 216.5t-156 154t-212 55.5t-212 -55.5t-156 -154t-58 -216.5
q0 -174 126 -300t300 -126z" />
    <glyph glyph-name="P" unicode="P" horiz-adv-x="1083" 
d="M336 352v-309q0 -15 -13 -29t-28 -14h-119q-15 0 -28 14t-13 29v1100q0 15 13 29t28 14h440q9 0 23.5 -1t57.5 -9.5t82.5 -23t87 -46.5t82 -74t58 -111t23.5 -153q0 -66 -14 -122.5t-38 -96t-55 -72t-65.5 -52.5t-69 -35t-65.5 -22t-55 -11t-38 -5h-14h-280zM829 768
q0 120 -61 174.5t-164 54.5h-268v-456h268q225 0 225 227z" />
    <glyph glyph-name="Q" unicode="Q" horiz-adv-x="1482" 
d="M954 12l117 -211q0 -18 -10.5 -28.5t-28.5 -10.5h-112q-20 0 -37 25l-107 190h-35q-172 0 -316 82.5t-227 223.5t-83 309t83 309t227 223t316 82q129 0 245.5 -48.5t200 -130.5t132.5 -196t49 -239q0 -199 -114.5 -357t-299.5 -223zM741 166q174 0 300 126t126 300
q0 118 -58 216.5t-156 154t-212 55.5t-212 -55.5t-156 -154t-58 -216.5q0 -174 126 -300t300 -126z" />
    <glyph glyph-name="R" unicode="R" horiz-adv-x="1079" 
d="M336 997v-456h268q225 0 225 227q0 120 -61 174.5t-164 54.5h-268zM758 379l264 -338q0 -41 -41 -41h-131q-23 0 -31 14l-274 338h-209v-309q0 -15 -13 -29t-28 -14h-119q-15 0 -28 14t-13 29v1100q0 15 13 29t28 14h440q9 0 23.5 -1t57.5 -9.5t82.5 -23t87 -46.5t82 -74
t58 -111t23.5 -153q0 -89 -24.5 -159.5t-67 -115t-86 -71.5t-94.5 -43z" />
    <glyph glyph-name="S" unicode="S" horiz-adv-x="1058" 
d="M891 1049q14 -17 14 -27q0 -23 -12 -31l-86 -61q-20 -12 -31 -12q-20 0 -33 16q-103 84 -258 84q-75 0 -135.5 -43.5t-60.5 -102.5q0 -54 37.5 -92.5t97 -62.5t131.5 -45t144 -48.5t131.5 -65t97 -102.5t37.5 -153q0 -37 -13 -78t-45.5 -86t-81 -80.5t-127.5 -58.5
t-176 -23q-274 0 -430 183q-10 20 -10 28q0 24 20 41l72 60q20 10 33 10q14 0 26 -12q50 -50 127.5 -85.5t171.5 -35.5q67 0 116.5 18.5t72.5 46t33 49.5t10 37q0 39 -29 70t-76.5 51t-108 42t-123.5 41.5t-123.5 52t-108 71.5t-76.5 101.5t-29 140.5q0 37 10.5 76t39 84
t72.5 79t118.5 57t169.5 23q255 0 391 -157z" />
    <glyph glyph-name="T" unicode="T" horiz-adv-x="1134" 
d="M467 997h-342q-15 0 -28 12t-13 27v109q0 17 12.5 29t28.5 12h885q16 0 28.5 -12t12.5 -29v-109q0 -15 -13 -27t-28 -12h-342v-954q0 -15 -13 -29t-28 -14h-119q-15 0 -28 14t-13 29v954z" />
    <glyph glyph-name="U" unicode="U" horiz-adv-x="1212" 
d="M606 -23q-10 0 -27.5 1t-67.5 10.5t-95.5 26t-101.5 53t-96 85.5t-67.5 128.5t-27.5 177.5v684q0 15 13 29t28 14h117q15 0 28 -14t13 -29v-684q0 -14 1.5 -30.5t7.5 -47t17 -57t32.5 -57t50 -52t74 -35.5t101.5 -14q49 0 90 10.5t69.5 29t50.5 41t35 49.5t21.5 50.5
t12.5 48t5 38.5t1 26v684q0 15 13 29t28 14h117q15 0 28 -14t13 -29v-684q0 -77 -16.5 -143t-44.5 -112t-64.5 -83.5t-76.5 -60.5t-80 -40t-76.5 -25t-64.5 -12.5t-45 -4.5z" />
    <glyph glyph-name="V" unicode="V" horiz-adv-x="1220" 
d="M717 0h-213q-17 0 -31.5 9.5t-19.5 21.5l-404 1110q0 17 13 31t30 14h129q12 0 23 -8.5t16 -20.5l350 -960l351 960q11 29 38 29h129q17 0 30 -14t13 -31l-403 -1110q-5 -12 -19.5 -21.5t-31.5 -9.5z" />
    <glyph glyph-name="W" unicode="W" horiz-adv-x="1703" 
d="M786 1186h132q30 0 43 -33l249 -948l238 952q5 12 16 20.5t23 8.5h127q17 0 30 -14t13 -31l-283 -1106q-16 -35 -53 -35h-221q-37 0 -53 35l-195 745l-195 -745q-16 -35 -53 -35h-221q-37 0 -53 35l-283 1106q0 17 13 31t30 14h127q12 0 23 -8.5t16 -20.5l238 -952
l249 948q13 33 43 33z" />
    <glyph glyph-name="X" unicode="X" horiz-adv-x="1052" 
d="M526 408l-247 -379q-21 -29 -39 -29h-148q-17 0 -30 14t-13 31l357 547l-357 549q0 17 13 31t30 14h148q18 0 39 -29l247 -381l248 381q21 29 39 29h148q17 0 30 -14t13 -31l-357 -549l357 -547q0 -17 -13 -31t-30 -14h-148q-18 0 -39 29z" />
    <glyph glyph-name="Y" unicode="Y" horiz-adv-x="1105" 
d="M453 43v356l-404 742q0 19 12 32t31 13h137q25 0 39 -29l285 -526l285 526q14 29 39 29h137q19 0 31 -13t12 -32l-404 -742v-356q0 -15 -13 -29t-28 -14h-118q-15 0 -28 14t-13 29z" />
    <glyph glyph-name="Z" unicode="Z" horiz-adv-x="1060" 
d="M332 188h604q15 0 28 -11.5t13 -26.5v-109q0 -17 -12.5 -29t-28.5 -12h-811q-16 0 -28.5 12t-12.5 29v141q0 12 12 27l609 788h-560q-15 0 -28 12t-13 27v109q0 17 12.5 29t28.5 12h770q16 0 28.5 -12t12.5 -29v-141q0 -12 -12 -27z" />
    <glyph glyph-name="bracketleft" unicode="[" horiz-adv-x="790" 
d="M135 -260v1692q0 17 12.5 29t28.5 12h438q16 0 28.5 -12t12.5 -29v-109q0 -15 -13 -27t-28 -12h-278v-1397h278q15 0 28 -12t13 -27v-108q0 -17 -12.5 -29t-28.5 -12h-438q-16 0 -28.5 12t-12.5 29z" />
    <glyph glyph-name="backslash" unicode="\" horiz-adv-x="1157" 
d="M330 1450l692 -1710q0 -17 -12 -29t-29 -12h-121q-25 0 -33 22l-692 1711q0 17 12 29t29 12h121q24 0 33 -23z" />
    <glyph glyph-name="bracketright" unicode="]" horiz-adv-x="790" 
d="M655 1432v-1692q0 -17 -12.5 -29t-28.5 -12h-438q-16 0 -28.5 12t-12.5 29v108q0 15 13 27t28 12h279v1397h-279q-15 0 -28 12t-13 27v109q0 17 12.5 29t28.5 12h438q16 0 28.5 -12t12.5 -29z" />
    <glyph glyph-name="asciicircum" unicode="^" horiz-adv-x="839" 
d="M311 1186h217q28 0 50 -35l127 -254q0 -22 -16.5 -38.5t-39.5 -16.5h-98q-14 0 -27.5 9.5t-19.5 22.5l-84 170l-84 -170q-6 -13 -19.5 -22.5t-27.5 -9.5h-99q-23 0 -39 16.5t-16 38.5l127 254q22 35 49 35z" />
    <glyph glyph-name="underscore" unicode="_" horiz-adv-x="841" 
d="M666 -268h-490q-15 0 -28 12t-13 27v104q0 17 12.5 29t28.5 12h490q16 0 28.5 -12t12.5 -29v-104q0 -15 -13 -27t-28 -12z" />
    <glyph glyph-name="grave" unicode="`" horiz-adv-x="585" 
d="M262 952l-127 191q0 18 12.5 30.5t32.5 12.5h131q11 0 23 -8.5t16 -18.5l101 -186q0 -19 -12.5 -32t-32.5 -13h-107q-23 0 -37 24z" />
    <glyph glyph-name="a" unicode="a" horiz-adv-x="1191" 
d="M856 780v45q0 15 13 29t28 14h119q15 0 28 -14t13 -29v-782q0 -15 -13 -29t-28 -14h-119q-15 0 -28 14t-13 29v45q-43 -39 -88 -63.5t-90.5 -34t-71.5 -11.5t-65 -2q-120 0 -223 61t-163.5 166.5t-60.5 229.5t60.5 229.5t163.5 166.5t223 61q39 0 65 -2t71.5 -11.5
t90.5 -34t88 -63.5zM573 166q119 0 201 75.5t82 192.5v10q-4 113 -85.5 185.5t-197.5 72.5q-117 0 -197.5 -75.5t-80.5 -192.5t80.5 -192.5t197.5 -75.5z" />
    <glyph glyph-name="b" unicode="b" horiz-adv-x="1191" 
d="M336 1182v-402q43 39 88 63.5t90.5 34t71.5 11.5t65 2q120 0 223 -61t163.5 -166.5t60.5 -229.5t-60.5 -229.5t-163.5 -166.5t-223 -61q-39 0 -65 2t-71.5 11.5t-90.5 34t-88 63.5v-45q0 -15 -13 -29t-28 -14h-119q-15 0 -28 14t-13 29v1139q0 15 13 29t28 14h119
q15 0 28 -14t13 -29zM618 166q117 0 198 75.5t81 192.5t-81 192.5t-198 75.5q-115 0 -196.5 -72.5t-85.5 -185.5v-10q0 -117 81.5 -192.5t200.5 -75.5z" />
    <glyph glyph-name="c" unicode="c" horiz-adv-x="1073" 
d="M563 -23q-129 0 -237 61.5t-170 166.5t-62 229t62 229t170 166.5t237 61.5q149 0 267 -78t169 -213q-3 -16 -15 -27.5t-28 -11.5h-133q-21 0 -32 21q-30 59 -92 89.5t-140 30.5q-108 0 -186 -76.5t-78 -191.5t78 -191.5t186 -76.5q78 0 140 31t92 90q10 20 32 20h133
q16 0 28 -11.5t15 -27.5q-51 -135 -169 -213t-267 -78z" />
    <glyph glyph-name="d" unicode="d" horiz-adv-x="1191" 
d="M856 780v402q0 15 13 29t28 14h119q15 0 28 -14t13 -29v-1139q0 -15 -13 -29t-28 -14h-119q-15 0 -28 14t-13 29v45q-43 -39 -88 -63.5t-90.5 -34t-71.5 -11.5t-65 -2q-120 0 -223 61t-163.5 166.5t-60.5 229.5t60.5 229.5t163.5 166.5t223 61q39 0 65 -2t71.5 -11.5
t90.5 -34t88 -63.5zM573 166q119 0 201 75.5t82 192.5v10q-4 113 -85.5 185.5t-197.5 72.5q-117 0 -197.5 -75.5t-80.5 -192.5t80.5 -192.5t197.5 -75.5z" />
    <glyph glyph-name="e" unicode="e" horiz-adv-x="1064" 
d="M987 416v-25q0 -15 -13 -29t-28 -14h-651q20 -68 66 -111t93 -57t101 -14q94 2 186 37q4 2 13 2q26 0 41 -21l55 -78q8 -16 8 -28q0 -30 -29 -45q-144 -56 -276 -56q-199 0 -329 127t-130 330q0 125 56.5 229.5t159.5 166t231 61.5q87 0 166 -31t142 -88.5t100.5 -150
t37.5 -205.5zM541 702q-80 0 -149 -46t-95 -136h487q-26 90 -94.5 136t-148.5 46z" />
    <glyph glyph-name="f" unicode="f" horiz-adv-x="780" 
d="M645 680h-196v-637q0 -15 -13 -29t-28 -14h-119q-15 0 -28 14t-13 29v637h-146q-16 0 -28.5 12t-12.5 29v108q0 15 13 27t28 12h146v54q0 68 14 123.5t35.5 90.5t51.5 61t56.5 38.5t56.5 20t46 9t31 1.5q49 0 104 -6q18 -3 29.5 -13.5t11.5 -25.5v-105q0 -17 -12.5 -29
t-28.5 -12h-18q-36 0 -65 -9t-47 -22.5t-31 -29.5t-19 -32.5t-9.5 -29.5t-3.5 -22l-1 -8v-54h196q15 0 28 -12t13 -27v-108q0 -17 -12.5 -29t-28.5 -12z" />
    <glyph glyph-name="g" unicode="g" horiz-adv-x="1191" 
d="M573 702q-117 0 -197.5 -75.5t-80.5 -192.5t80.5 -192.5t197.5 -75.5q116 0 197.5 72.5t85.5 185.5v10q0 117 -82 192.5t-201 75.5zM260 -326q-27 10 -27 39q0 15 7 25l51 80q11 22 35 22q7 0 16 -6q103 -53 240 -53q33 0 66.5 6t72 23t67.5 42.5t48.5 69t19.5 98.5v68
q-43 -39 -88 -63.5t-90.5 -34t-71.5 -11.5t-65 -2q-120 0 -223 61t-163.5 166.5t-60.5 229.5t60.5 229.5t163.5 166.5t223 61q39 0 65 -2t71.5 -11.5t90.5 -34t88 -63.5v45q0 15 13 29t28 14h119q15 0 28 -14t13 -29v-809q0 -123 -64.5 -220.5t-173 -150.5t-239.5 -53
q-169 0 -320 82z" />
    <glyph glyph-name="h" unicode="h" horiz-adv-x="1067" 
d="M952 565v-522q0 -15 -13 -29t-28 -14h-118q-15 0 -28 14t-13 29v442q0 217 -197 217q-49 0 -88.5 -18.5t-63 -45.5t-39.5 -60.5t-22 -60.5t-6 -48v-426q0 -15 -13 -29t-28 -14h-119q-15 0 -28 14t-13 29v1139q0 15 13 29t28 14h119q15 0 28 -14t13 -29v-402
q31 38 75.5 63.5t89 34t65 11t36.5 2.5q72 0 129.5 -18t93 -44t62 -62.5t38.5 -66.5t18.5 -64.5t7.5 -47.5t1 -23z" />
    <glyph glyph-name="i" unicode="i" 
d="M119 1065q0 49 35 85t82 36q49 0 84.5 -35.5t35.5 -85.5q0 -47 -35.5 -82t-84.5 -35q-47 0 -82 35t-35 82zM336 825v-782q0 -15 -13 -29t-28 -14h-119q-15 0 -28 14t-13 29v782q0 15 13 29t28 14h119q15 0 28 -14t13 -29z" />
    <glyph glyph-name="j" unicode="j" 
d="M-55 -356q-17 0 -30 12t-13 27v108q0 17 12.5 29t28.5 12l32 -2q43 0 75 15t47.5 37t25 43.5t11.5 36.5l1 15v848q0 15 13 29t28 14h119q15 0 28 -14t13 -29v-850q0 -68 -14.5 -123t-35 -89t-51.5 -59t-56 -36.5t-57.5 -18t-46 -7t-30.5 -0.5q-69 0 -100 2zM119 1065
q0 49 35 85t82 36q49 0 84.5 -35.5t35.5 -85.5q0 -47 -35.5 -82t-84.5 -35q-47 0 -82 35t-35 82z" />
    <glyph glyph-name="k" unicode="k" horiz-adv-x="964" 
d="M549 444l375 -397q0 -19 -13 -33t-32 -14h-166q-18 0 -43 29l-334 352v-338q0 -15 -13 -29t-28 -14h-119q-15 0 -28 14t-13 29v1141q0 15 13 29t28 14h119q15 0 28 -14t13 -29v-682l301 338q24 28 43 28h162q19 0 32 -14t13 -33z" />
    <glyph glyph-name="l" unicode="l" 
d="M336 1182v-1139q0 -15 -13 -29t-28 -14h-119q-15 0 -28 14t-13 29v1139q0 15 13 29t28 14h119q15 0 28 -14t13 -29z" />
    <glyph glyph-name="m" unicode="m" horiz-adv-x="1570" 
d="M1255 43v467q0 21 -4 43.5t-16 50t-30 48.5t-50.5 35.5t-73.5 14.5q-56 0 -95 -22.5t-57 -59t-25 -70t-7 -69.5v-438q0 -15 -13 -29t-28 -14h-119q-15 0 -28 14t-13 29v467q0 28 -7.5 56.5t-25 61.5t-55 53.5t-90.5 20.5q-47 0 -82.5 -19t-53.5 -45t-29.5 -61t-14 -59.5
t-2.5 -48.5v-426q0 -15 -13 -29t-28 -14h-119q-15 0 -28 14t-13 29v782q0 15 13 29t28 14h119q15 0 28 -14t13 -29v-45q96 111 233 111q166 0 256 -154q92 154 293 154q78 0 139.5 -25t97.5 -62.5t60 -85.5t32.5 -89t8.5 -78v-508q0 -15 -13 -29t-28 -14h-119q-15 0 -28 14
t-13 29z" />
    <glyph glyph-name="n" unicode="n" horiz-adv-x="1067" 
d="M752 43v442q0 217 -197 217q-47 0 -85.5 -17t-62 -42t-40 -56.5t-23.5 -58t-8 -49.5v-436q0 -15 -13 -29t-28 -14h-119q-15 0 -28 14t-13 29v782q0 15 13 29t28 14h119q15 0 28 -14t13 -29v-45q31 38 75.5 63.5t89 34t65 11t36.5 2.5q72 0 129.5 -18t93 -44t62 -62.5
t38.5 -66.5t18.5 -64.5t7.5 -47.5t1 -23v-522q0 -15 -13 -29t-28 -14h-118q-15 0 -28 14t-13 29z" />
    <glyph glyph-name="o" unicode="o" horiz-adv-x="1138" 
d="M569 891q131 0 240.5 -61.5t172 -166.5t62.5 -229t-62.5 -229t-172 -166.5t-240.5 -61.5t-240.5 61.5t-172 166.5t-62.5 229t62.5 229t172 166.5t240.5 61.5zM569 166q115 0 195 76t80 192t-80 192t-195 76t-194.5 -76t-79.5 -192t79.5 -192t194.5 -76z" />
    <glyph glyph-name="p" unicode="p" horiz-adv-x="1191" 
d="M336 88v-403q0 -15 -13 -29t-28 -14h-119q-15 0 -28 14t-13 29v1140q0 15 13 29t28 14h119q15 0 28 -14t13 -29v-45q43 39 88 63.5t90.5 34t71.5 11.5t65 2q120 0 223 -61t163.5 -166.5t60.5 -229.5t-60.5 -229.5t-163.5 -166.5t-223 -61q-39 0 -65 2t-71.5 11.5
t-90.5 34t-88 63.5zM618 702q-119 0 -200.5 -75.5t-81.5 -192.5v-10q4 -113 85.5 -185.5t196.5 -72.5q117 0 198 75.5t81 192.5t-81 192.5t-198 75.5z" />
    <glyph glyph-name="q" unicode="q" horiz-adv-x="1191" 
d="M856 -315v403q-43 -39 -88 -63.5t-90.5 -34t-71.5 -11.5t-65 -2q-120 0 -223 61t-163.5 166.5t-60.5 229.5t60.5 229.5t163.5 166.5t223 61q39 0 65 -2t71.5 -11.5t90.5 -34t88 -63.5v45q0 15 13 29t28 14h119q15 0 28 -14t13 -29v-1140q0 -15 -13 -29t-28 -14h-119
q-15 0 -28 14t-13 29zM573 702q-117 0 -197.5 -75.5t-80.5 -192.5t80.5 -192.5t197.5 -75.5q116 0 197.5 72.5t85.5 185.5v10q0 117 -82 192.5t-201 75.5z" />
    <glyph glyph-name="r" unicode="r" horiz-adv-x="763" 
d="M662 690h-9q-78 0 -141.5 -35.5t-100 -90t-56 -113.5t-19.5 -113v-295q0 -15 -13 -29t-28 -14h-119q-15 0 -28 14t-13 29v782q0 15 13 29t28 14h119q15 0 28 -14t13 -29v-96q104 150 301 150h25q15 0 27.5 -12t12.5 -29v-109q0 -15 -12.5 -27t-27.5 -12z" />
    <glyph glyph-name="s" unicode="s" horiz-adv-x="835" 
d="M676 799q18 -14 18 -37q0 -24 -14 -35l-66 -63q-14 -9 -30 -9q-11 0 -23 7q-78 47 -151 47q-33 0 -62 -6t-53.5 -26t-24.5 -52q0 -31 21.5 -52.5t57 -33.5t80.5 -24.5t92 -23t92 -31t80.5 -47.5t57 -73t21.5 -107q0 -43 -24 -87t-67.5 -82.5t-115 -62.5t-157.5 -24
q-117 0 -200.5 38.5t-133.5 95.5q-11 14 -11 24q0 22 17 35l72 47q20 8 30 8q19 0 27 -8q29 -26 74 -41t75 -16l31 -2q182 0 182 80q0 26 -21.5 45t-57 29.5t-80.5 23t-91.5 24t-91.5 33t-80.5 50t-57 76t-21.5 108.5q0 47 21.5 92.5t62 84.5t108 63t150.5 24q156 0 264 -92
z" />
    <glyph glyph-name="t" unicode="t" horiz-adv-x="780" 
d="M248 680h-146q-15 0 -28 12t-13 27v108q0 17 12.5 29t28.5 12h146v269q0 32 35 41l123 34q15 0 29 -15t14 -32v-297h196q16 0 28.5 -12t12.5 -29v-108q0 -15 -13 -27t-28 -12h-196v-350q0 -18 1 -31t9.5 -38t23.5 -41t47 -29t76 -13h39q14 0 26.5 -11t12.5 -26v-102
q0 -14 -11 -24.5t-26 -10.5q-54 -4 -108 -4q-17 0 -31 1t-46 7.5t-57 18t-56 36t-51.5 59t-35 89.5t-14.5 123v346z" />
    <glyph glyph-name="u" unicode="u" horiz-adv-x="1069" 
d="M535 -23q-78 0 -142 18t-105.5 45.5t-73 66.5t-48 76t-26.5 80t-12.5 71.5t-2.5 56.5v434q0 15 13 29t28 14h119q15 0 28 -14t13 -29v-442q0 -23 3.5 -47t16.5 -56t34.5 -56t61.5 -41t93 -17t93 17t61 41t34 56t16.5 56t3.5 47v442q0 15 13 29t28 14h119q15 0 28 -14
t13 -29v-434q0 -28 -2.5 -56.5t-12.5 -71.5t-26.5 -80t-47.5 -76t-72.5 -66.5t-105.5 -45.5t-142 -18z" />
    <glyph glyph-name="v" unicode="v" horiz-adv-x="995" 
d="M580 0h-164q-17 0 -31.5 9.5t-19.5 21.5l-312 792q0 17 13 31t30 14h129q12 0 23.5 -8t15.5 -20l234 -617l233 617q11 28 39 28h129q17 0 30 -14t13 -31l-311 -792q-5 -12 -19.5 -21.5t-31.5 -9.5z" />
    <glyph glyph-name="w" unicode="w" horiz-adv-x="1429" 
d="M641 868h147q15 0 28.5 -11t19.5 -26l165 -618l166 627q11 28 39 28h127q17 0 30 -14t13 -31l-233 -792q-5 -12 -19.5 -21.5t-31.5 -9.5h-185q-17 0 -31.5 9.5t-19.5 21.5l-141 540l-142 -540q-5 -12 -19.5 -21.5t-31.5 -9.5h-184q-17 0 -31.5 9.5t-19.5 21.5l-234 792
q0 17 13 31t30 14h127q12 0 23.5 -8t15.5 -20l166 -627l166 618q6 16 19 26.5t28 10.5z" />
    <glyph glyph-name="x" unicode="x" horiz-adv-x="880" 
d="M440 264l-157 -231q-21 -29 -39 -29h-148q-17 0 -30 14t-13 31l262 387l-262 387q0 17 13 31t30 14h148q19 0 39 -28l157 -232l158 232q20 28 39 28h147q17 0 30 -14t13 -31l-262 -387l262 -387q0 -17 -13 -31t-30 -14h-147q-18 0 -39 29z" />
    <glyph glyph-name="y" unicode="y" horiz-adv-x="995" 
d="M215 -358h-70q-14 0 -26.5 11.5t-12.5 24.5v105q0 15 12.5 27t26.5 12h23q44 0 75 4.5t62.5 18t53 41.5t34.5 71l-340 866q0 17 13 31t30 14h129q12 0 23.5 -8t15.5 -20l234 -617l233 617q11 28 39 28h129q17 0 30 -14t13 -31l-362 -923q-25 -65 -60 -113t-70.5 -75
t-78.5 -43.5t-78.5 -21.5t-77.5 -5z" />
    <glyph glyph-name="z" unicode="z" horiz-adv-x="917" 
d="M354 188h420q15 0 28 -11.5t13 -26.5v-109q0 -17 -12.5 -29t-28.5 -12h-631q-16 0 -28.5 12t-12.5 29v143q0 11 13 27l446 469h-418q-15 0 -28 12t-13 27v108q0 17 12.5 29t28.5 12h631q16 0 28.5 -12t12.5 -29v-141q0 -12 -12 -27z" />
    <glyph glyph-name="braceleft" unicode="{" horiz-adv-x="815" 
d="M313 14v279q0 7 -0.5 19.5t-8 44.5t-20.5 58t-42 50.5t-68 30.5q-15 2 -27 13t-12 26v100q0 17 11.5 28t27.5 11q39 6 68 29.5t42 52.5t20.5 57t7.5 47l1 19v278q0 64 12.5 115.5t30.5 83.5t45 55.5t50 35t53 18t45.5 7.5t34.5 1h55q16 0 28.5 -12t12.5 -29v-109
q0 -15 -13 -27t-28 -12q-53 -6 -89 -42.5t-36 -92.5v-324q0 -46 -17.5 -87t-41 -66t-52 -45.5t-47 -28.5t-30.5 -12q17 -5 42 -19t61 -41.5t60.5 -75t24.5 -104.5v-323q0 -56 36 -93t89 -43q15 0 28 -12t13 -27v-108q0 -17 -12.5 -29t-28.5 -12h-55q-19 0 -34.5 1t-45.5 7.5
t-53 17.5t-50 34.5t-45 56t-30.5 83.5t-12.5 115z" />
    <glyph glyph-name="bar" unicode="|" 
d="M336 1430v-1688q0 -15 -13 -29t-28 -14h-119q-15 0 -28 14t-13 29v1688q0 15 13 29t28 14h119q15 0 28 -14t13 -29z" />
    <glyph glyph-name="braceright" unicode="}" horiz-adv-x="815" 
d="M502 293v-279q0 -64 -12.5 -115t-30.5 -83.5t-45 -56t-50 -34.5t-53 -17.5t-45.5 -7.5t-34.5 -1h-55q-16 0 -28.5 12t-12.5 29v108q0 15 13 27t28 12q53 6 89 43t36 93v323q0 57 24.5 104.5t60.5 75t61 41.5t42 19q-12 4 -30.5 12t-47 28.5t-52 45.5t-41 66t-17.5 87v324
q0 56 -36 92.5t-89 42.5q-15 0 -28 12t-13 27v109q0 17 12.5 29t28.5 12h55q19 0 34.5 -1t45.5 -7.5t53 -18t50 -35t45 -55.5t30.5 -83.5t12.5 -115.5v-278q0 -7 0.5 -19.5t8 -45t20.5 -59t42 -51t68 -30.5q16 0 27.5 -11t11.5 -28v-100q0 -15 -12 -26t-27 -13
q-39 -6 -68 -29.5t-42 -52t-20.5 -56.5t-8.5 -46v-19z" />
    <glyph glyph-name="asciitilde" unicode="~" horiz-adv-x="1003" 
d="M674 285q-52 2 -157 48t-146 46q-39 0 -58 -16t-22 -56q-5 -22 -33 -22h-86q-17 0 -27 11t-10 28q6 63 25 108.5t40.5 67.5t50.5 34.5t45 14.5t34 2q60 0 118.5 -23.5t105.5 -47t79 -23.5q40 0 58.5 15.5t21.5 55.5q6 23 32 23h86q17 0 27 -11t10 -28q-6 -63 -25 -108.5
t-40 -67.5t-50 -34.5t-45 -14.5t-34 -2z" />
    <glyph glyph-name="uni00A0" unicode="&#xa0;" horiz-adv-x="329" 
 />
    <glyph glyph-name="exclamdown" unicode="&#xa1;" horiz-adv-x="507" 
d="M135 1065q0 49 35 85t82 36q50 0 85.5 -36t35.5 -85q0 -47 -36 -82t-85 -35q-47 0 -82 35t-35 82zM338 825l14 -782q0 -15 -13 -29t-28 -14h-118q-15 0 -28 14t-13 29l14 782q0 15 13 29t28 14h90q15 0 28 -14t13 -29z" />
    <glyph glyph-name="cent" unicode="&#xa2;" horiz-adv-x="1490" 
d="M862 1376v-178q169 -26 301.5 -131t192.5 -260q-7 -39 -43 -39h-142q-26 0 -36 23q-53 104 -152 165.5t-219 61.5q-175 0 -301.5 -123.5t-126.5 -302.5q0 -174 127 -300t301 -126q120 0 219 61.5t152 165.5q10 23 36 23h142q36 0 43 -39q-61 -155 -193 -260.5
t-301 -130.5v-179q0 -15 -13 -29t-28 -14h-116q-14 0 -26.5 14t-12.5 29v179q-228 34 -379.5 205.5t-151.5 400.5t151.5 400.5t379.5 205.5v178q0 15 12.5 29t26.5 14h116q15 0 28 -14t13 -29z" />
    <glyph glyph-name="sterling" unicode="&#xa3;" horiz-adv-x="1226" 
d="M1049 774q0 -15 -13 -29t-28 -14h-119q-15 0 -28 14t-13 29v60q0 77 -49 130.5t-131 53.5q-53 0 -86.5 -12t-49 -37.5t-20 -51.5t-4.5 -69q0 -47 12 -90.5t32.5 -92t27.5 -69.5h178q15 0 28 -12t13 -27v-108q0 -17 -12.5 -29t-28.5 -12h-178q-25 -110 -103 -220h574
q15 0 28 -11.5t13 -26.5v-109q0 -17 -12.5 -29t-28.5 -12h-875q-16 0 -28.5 12t-12.5 29v109q0 15 13 26.5t28 11.5h90q7 7 18.5 21t42 70.5t54.5 128.5h-160q-16 0 -28.5 12t-12.5 29v108q0 15 13 27t28 12h160q-45 104 -59.5 159.5t-14.5 112.5q0 21 1 38t8.5 54
t20.5 66.5t41 64.5t66.5 59t99.5 40t138 16q74 0 133.5 -20t97 -49t65 -72.5t40.5 -81t21 -84.5t9 -71.5t1 -53.5z" />
    <glyph glyph-name="currency" unicode="&#xa4;" horiz-adv-x="987" 
d="M831 412q0 -101 -67 -193l88 -170q0 -21 -13 -35t-34 -14h-98q-13 0 -27.5 9.5t-20.5 21.5l-43 82q-72 -21 -122 -21q-51 0 -123 21l-43 -82q-6 -12 -20 -21.5t-27 -9.5h-99q-21 0 -34 14t-13 35l88 170q-67 92 -67 193q0 100 67 192l-88 170q0 21 13 35t34 14h99
q13 0 27 -9t20 -21l43 -82q68 20 123 20q54 0 122 -20l43 82q6 12 20.5 21t27.5 9h98q21 0 34 -14t13 -35l-88 -170q67 -92 67 -192zM668 412q0 75 -50 124.5t-124 49.5t-124.5 -49.5t-50.5 -124.5t50.5 -124.5t124.5 -49.5t124 49.5t50 124.5z" />
    <glyph glyph-name="yen" unicode="&#xa5;" horiz-adv-x="1277" 
d="M936 152h-197v-109q0 -15 -13 -29t-28 -14h-118q-15 0 -28 14t-13 29v109h-197q-12 0 -22.5 10t-10.5 22v90q0 13 10.5 23t22.5 10h197v92l-29 52h-168q-12 0 -22.5 10t-10.5 22v90q0 13 10.5 23t22.5 10h84l-291 535q0 19 12 32t31 13h137q25 0 39 -29l285 -526l285 526
q14 29 39 29h137q19 0 31 -13t12 -32l-291 -535h84q12 0 22.5 -10t10.5 -23v-90q0 -12 -10.5 -22t-22.5 -10h-170l-27 -52v-92h197q12 0 22.5 -10t10.5 -23v-90q0 -12 -10.5 -22t-22.5 -10z" />
    <glyph glyph-name="brokenbar" unicode="&#xa6;" 
d="M336 1430v-664q0 -15 -13 -29t-28 -14h-119q-15 0 -28 14t-13 29v664q0 15 13 29t28 14h119q15 0 28 -14t13 -29zM336 406v-664q0 -15 -13 -29t-28 -14h-119q-15 0 -28 14t-13 29v664q0 15 13 29t28 14h119q15 0 28 -14t13 -29z" />
    <glyph glyph-name="section" unicode="&#xa7;" horiz-adv-x="1073" 
d="M578 1206q156 0 264 -92q18 -14 18 -37q0 -25 -14 -35l-66 -63q-12 -8 -30 -8q-13 0 -23 6q-78 47 -152 47q-33 0 -62 -6t-53 -26t-24 -52q0 -31 21.5 -53.5t57 -35t80.5 -26t92 -24.5t92 -32t80.5 -47t57 -70.5t21.5 -102.5q0 -51 -32.5 -103.5t-92.5 -89.5
q31 -57 31 -123q0 -43 -24 -87t-68 -82.5t-115.5 -62.5t-157.5 -24q-117 0 -200.5 38.5t-133.5 95.5q-10 13 -10 24q0 22 17 35l71 47q20 8 31 8q19 0 27 -8q29 -26 74 -41t75 -16l31 -2q182 0 182 80q0 29 -27.5 50t-72 35t-98 27.5t-107 34t-98 49t-72 78t-27.5 115.5
q0 55 29.5 109.5t87.5 92.5q-22 49 -22 113q0 47 21.5 92.5t62 84.5t108 63t150.5 24zM737 553q0 29 -54 59.5t-127 49t-132 18.5q-82 0 -82 -55q0 -52 102 -95t197 -43q96 0 96 66z" />
    <glyph glyph-name="dieresis" unicode="&#xa8;" horiz-adv-x="880" 
d="M135 1063q0 51 36 87t87 36q52 0 88.5 -36t36.5 -87q0 -52 -36 -87.5t-89 -35.5q-51 0 -87 35.5t-36 87.5zM498 1063q0 51 36.5 87t88.5 36q51 0 86.5 -36t35.5 -87q0 -52 -35.5 -87.5t-86.5 -35.5q-53 0 -89 35.5t-36 87.5z" />
    <glyph glyph-name="copyright" unicode="&#xa9;" horiz-adv-x="1499" 
d="M750 1206q167 0 308.5 -82t223.5 -223.5t82 -308.5q0 -125 -48.5 -239t-130.5 -196.5t-196 -131t-239 -48.5t-239 48.5t-196.5 131t-131 196.5t-48.5 239t48.5 239t131 196t196.5 130.5t239 48.5zM750 94q135 0 249.5 67t181 181.5t66.5 249.5t-66.5 249.5t-181 181.5
t-249.5 67q-136 0 -250.5 -67t-181 -181.5t-66.5 -249.5t66.5 -249.5t181 -181.5t250.5 -67zM748 303q-124 0 -211.5 84.5t-87.5 204.5t87.5 205.5t211.5 85.5q97 0 175 -55t109 -142q0 -15 -11 -26t-26 -11h-112q-24 0 -35 19q-28 55 -103 55q-51 0 -86.5 -37.5
t-35.5 -93.5q0 -55 35.5 -92t86.5 -37q75 0 103 55q11 19 35 19h112q15 0 26 -11t11 -26q-31 -87 -109 -142t-175 -55z" />
    <glyph glyph-name="ordfeminine" unicode="&#xaa;" horiz-adv-x="704" 
d="M229 1044q-20 0 -32 21l-19 45q0 1 -2 7.5t-2 8.5q0 18 14 29q85 31 150 31q116 0 173.5 -48.5t57.5 -152.5v-278q0 -10 -7.5 -16.5t-18.5 -6.5h-80q-11 0 -18 6.5t-7 16.5v8q-59 -43 -127 -43q-86 0 -131 44.5t-45 121.5q0 71 50 114t128 43q73 0 125 -22
q-2 46 -24.5 68t-83.5 22q-40 0 -101 -19zM360 778q31 0 54.5 14t23.5 42q0 63 -78 63q-21 0 -33 -1t-28.5 -6.5t-24.5 -19.5t-8 -36q0 -19 8.5 -31.5t25.5 -17.5t29 -6t31 -1z" />
    <glyph glyph-name="guillemotleft" unicode="&#xab;" horiz-adv-x="1155" 
d="M135 422q0 23 6 33l199 362q10 27 39 27h117q20 0 31.5 -12.5t11.5 -32.5l-189 -344q-6 -10 -6 -33t6 -33l189 -344q0 -20 -11.5 -32.5t-31.5 -12.5h-117q-29 0 -39 27l-199 362q-6 10 -6 33zM616 422q0 21 7 33l198 362q10 27 39 27h117q20 0 31.5 -12.5t11.5 -32.5
l-189 -344q-6 -10 -6 -33t6 -33l189 -344q0 -20 -11.5 -32.5t-31.5 -12.5h-117q-29 0 -39 27l-198 362q-7 12 -7 33z" />
    <glyph glyph-name="logicalnot" unicode="&#xac;" horiz-adv-x="1062" 
d="M928 514v-364q0 -15 -13 -29.5t-28 -14.5h-119q-15 0 -28 14.5t-13 29.5v217h-551q-15 0 -28 12t-13 27v108q0 17 12.5 29t28.5 12h711q16 0 28.5 -12t12.5 -29z" />
    <glyph glyph-name="uni00AD" unicode="&#xad;" horiz-adv-x="405" 
 />
    <glyph glyph-name="registered" unicode="&#xae;" horiz-adv-x="1499" 
d="M750 1206q167 0 308.5 -82t223.5 -223.5t82 -308.5q0 -125 -48.5 -239t-130.5 -196.5t-196 -131t-239 -48.5t-239 48.5t-196.5 131t-131 196.5t-48.5 239t48.5 239t131 196t196.5 130.5t239 48.5zM750 94q135 0 249.5 67t181 181.5t66.5 249.5t-66.5 249.5t-181 181.5
t-249.5 67q-136 0 -250.5 -67t-181 -181.5t-66.5 -249.5t66.5 -249.5t181 -181.5t250.5 -67zM680 768v-186h68q88 0 88 92q0 48 -24 71t-64 23h-68zM899 489l135 -174q0 -17 -10.5 -26.5t-26.5 -9.5h-110q-18 0 -31 16l-131 158h-45v-138q0 -14 -11 -25t-26 -11h-100
q-15 0 -26 11t-11 25v543q0 14 11 25.5t26 11.5h227q10 0 26 -1.5t57.5 -13.5t73 -32.5t57.5 -66t26 -107.5q0 -120 -111 -185z" />
    <glyph glyph-name="macron" unicode="&#xaf;" horiz-adv-x="839" 
d="M666 1004h-492q-14 0 -26.5 11.5t-12.5 26.5v105q0 15 12.5 27t26.5 12h492q14 0 26.5 -12t12.5 -27v-105q0 -15 -12.5 -26.5t-26.5 -11.5z" />
    <glyph glyph-name="degree" unicode="&#xb0;" horiz-adv-x="774" 
d="M387 1186q104 0 178 -73t74 -177t-74 -178t-178 -74t-178 74t-74 178t74 177t178 73zM387 829q43 0 74 32t31 75t-31 73.5t-74 30.5q-44 0 -75 -30.5t-31 -73.5t31 -75t75 -32z" />
    <glyph glyph-name="plusminus" unicode="&#xb1;" horiz-adv-x="860" 
d="M688 580h-158v-166q0 -15 -13 -29t-28 -14h-118q-15 0 -28 14t-13 29v166h-158q-14 0 -25.5 10.5t-11.5 23.5v97q0 15 11.5 26t25.5 11h158v165q0 15 13 29t28 14h118q15 0 28 -14t13 -29v-165h158q14 0 25.5 -11t11.5 -26v-97q0 -13 -11.5 -23.5t-25.5 -10.5zM688 0
h-516q-14 0 -25.5 11t-11.5 24v96q0 15 11.5 26t25.5 11h516q14 0 25.5 -11t11.5 -26v-96q0 -13 -11.5 -24t-25.5 -11z" />
    <glyph glyph-name="twosuperior" unicode="&#xb2;" horiz-adv-x="667" 
d="M135 991v27q0 10 2 24t12.5 41.5t28.5 48.5t55 37.5t86 16.5q60 0 102.5 -18.5t62 -49t27 -57t7.5 -53.5q0 -111 -162 -234h150q26 0 26 -26v-74q0 -27 -26 -27h-326q-26 0 -26 27v74q0 12 8 20q91 78 140.5 127.5t61 68t11.5 33.5q0 58 -56 58q-29 0 -41 -16.5
t-12 -34.5v-13q0 -26 -26 -26h-78q-27 0 -27 26z" />
    <glyph glyph-name="threesuperior" unicode="&#xb3;" horiz-adv-x="641" 
d="M291 983h14q17 0 26.5 1.5t20 12t10.5 31.5q0 14 -12.5 30.5t-40.5 16.5q-37 0 -45 -33q-3 -16 -24 -16h-78q-12 0 -19.5 7.5t-7.5 19.5q1 14 4 29.5t14.5 39t29.5 41t52 30.5t78 13q58 0 99.5 -17t60 -44t26 -51.5t7.5 -49.5q0 -17 -4.5 -36.5t-19.5 -41.5t-38 -28
q62 -28 62 -107q0 -19 -4 -38t-16.5 -42t-32.5 -40.5t-56.5 -29t-83.5 -11.5q-44 0 -78 13t-52 30.5t-29.5 41t-14.5 39t-4 29.5q0 12 7.5 19.5t19.5 7.5h78q21 0 24 -16q8 -33 45 -33q28 0 39.5 16t11.5 31q0 21 -10 31.5t-19.5 12t-25.5 1.5h-14q-8 0 -13.5 5.5t-5.5 12.5
v54q0 7 5.5 12.5t13.5 5.5z" />
    <glyph glyph-name="acute" unicode="&#xb4;" horiz-adv-x="585" 
d="M451 1143l-127 -191q-14 -24 -37 -24h-107q-20 0 -32.5 13t-12.5 32l101 186q5 11 16.5 19t21.5 8h132q20 0 32.5 -12.5t12.5 -30.5z" />
    <glyph glyph-name="mu" unicode="&#xb5;" horiz-adv-x="1089" 
d="M336 825v-458q1 -25 6.5 -48.5t19.5 -52.5t36 -50t60 -35.5t87 -14.5q53 0 93 17t61.5 41t34.5 56t16.5 56t3.5 47v442q0 15 13 29t28 14h118q15 0 28 -14t13 -29v-434q0 -28 -2.5 -56.5t-12.5 -71.5t-26.5 -80t-47.5 -76t-72.5 -66.5t-105.5 -45.5t-142 -18
q-122 0 -209 41v-333q0 -15 -13 -29t-28 -14h-119q-15 0 -28 14t-13 29v1140q0 15 13 29t28 14h119q15 0 28 -14t13 -29z" />
    <glyph glyph-name="paragraph" unicode="&#xb6;" horiz-adv-x="1413" 
d="M575 1186h662q15 0 28 -14t13 -29v-1100q0 -15 -13 -29t-28 -14h-119q-15 0 -28 14t-13 29v954h-272v-954q0 -15 -13 -29t-28 -14h-119q-15 0 -28 14t-13 29v317q-10 0 -27 1t-65.5 9t-93 22t-98.5 45t-93 73t-65.5 110t-26.5 152q0 66 15 123t40.5 96.5t58.5 71.5
t69.5 52t73 34.5t69.5 21t58.5 10.5t40.5 5h15z" />
    <glyph glyph-name="periodcentered" unicode="&#xb7;" horiz-adv-x="497" 
d="M135 422q0 46 33.5 80.5t79.5 34.5t80 -34.5t34 -80.5t-34 -79.5t-80 -33.5t-79.5 33.5t-33.5 79.5z" />
    <glyph glyph-name="cedilla" unicode="&#xb8;" horiz-adv-x="589" 
d="M160 -393q-25 4 -25 24v60q0 9 7.5 16.5t17.5 7.5q10 -2 33 -2q94 0 94 62q0 23 -15.5 38t-31.5 19l-15 4l-18 2q-29 4 -29 29l25 123q6 22 26 22h88q12 0 20.5 -8.5t8.5 -21.5l-12 -80q5 -1 13 -3t29 -12t37 -24t29 -41.5t13 -61.5q0 -48 -24.5 -82.5t-61 -49.5t-65 -21
t-50.5 -6q-44 0 -94 6z" />
    <glyph glyph-name="onesuperior" unicode="&#xb9;" horiz-adv-x="555" 
d="M168 1151l106 31q8 4 23 4h92q12 0 21.5 -9.5t9.5 -21.5v-442q0 -12 -8.5 -20.5t-20.5 -8.5h-86q-12 0 -20.5 8.5t-8.5 20.5v317l-108 -29q-12 0 -22.5 9.5t-10.5 21.5v84q0 24 33 35z" />
    <glyph glyph-name="ordmasculine" unicode="&#xba;" horiz-adv-x="774" 
d="M387 1186q104 0 178 -73t74 -177t-74 -178t-178 -74t-178 74t-74 178t74 177t178 73zM387 829q43 0 74 32t31 75t-31 73.5t-74 30.5q-44 0 -75 -30.5t-31 -73.5t31 -75t75 -32z" />
    <glyph glyph-name="guillemotright" unicode="&#xbb;" horiz-adv-x="1155" 
d="M1020 422q0 -23 -6 -33l-199 -362q-10 -27 -39 -27h-117q-20 0 -31.5 12.5t-11.5 32.5l189 344q6 10 6 33t-6 33l-189 344q0 20 11.5 32.5t31.5 12.5h117q29 0 39 -27l199 -362q6 -10 6 -33zM539 422q0 -21 -7 -33l-198 -362q-10 -27 -39 -27h-117q-20 0 -31.5 12.5
t-11.5 32.5l189 344q6 10 6 33t-6 33l-189 344q0 20 11.5 32.5t31.5 12.5h117q29 0 39 -27l198 -362q7 -12 7 -33z" />
    <glyph glyph-name="onequarter" unicode="&#xbc;" horiz-adv-x="1374" 
d="M926 207h112v184zM260 39l633 1128q9 19 31 19h116q13 0 22 -12t9 -27l-633 -1129q-9 -18 -30 -18h-117q-13 0 -22 12t-9 27zM1038 29v61h-233q-11 0 -19 8t-8 19v92q0 6 4 14l158 262q10 17 29 17h178q13 0 24 -11t11 -24v-260h32q10 0 17.5 -7.5t7.5 -17.5v-67
q0 -11 -7.5 -18t-17.5 -7h-32v-61q0 -12 -8.5 -20.5t-20.5 -8.5h-86q-12 0 -20.5 8.5t-8.5 20.5zM168 1151l106 31q8 4 23 4h92q12 0 21.5 -9.5t9.5 -21.5v-442q0 -12 -8.5 -20.5t-20.5 -8.5h-86q-12 0 -20.5 8.5t-8.5 20.5v317l-108 -29q-12 0 -22.5 9.5t-10.5 21.5v84
q0 24 33 35z" />
    <glyph glyph-name="onehalf" unicode="&#xbd;" horiz-adv-x="1353" 
d="M260 39l633 1128q9 19 31 19h116q13 0 22 -12t9 -27l-633 -1129q-9 -18 -30 -18h-117q-13 0 -22 12t-9 27zM168 1151l106 31q8 4 23 4h92q12 0 21.5 -9.5t9.5 -21.5v-442q0 -12 -8.5 -20.5t-20.5 -8.5h-86q-12 0 -20.5 8.5t-8.5 20.5v317l-108 -29q-12 0 -22.5 9.5
t-10.5 21.5v84q0 24 33 35zM821 344v27q0 10 2 24t13 41.5t28.5 48.5t55 37.5t86.5 16.5q60 0 102.5 -19t61.5 -49.5t26.5 -57t7.5 -53.5q0 -110 -162 -233h150q12 0 19.5 -7.5t7.5 -19.5v-73q0 -12 -7.5 -19.5t-19.5 -7.5h-326q-26 0 -26 27v73q0 13 8 21
q91 78 140.5 127.5t61 68t11.5 33.5q0 58 -55 58q-29 0 -41.5 -17t-12.5 -35v-12q0 -27 -26 -27h-78q-12 0 -19.5 7.5t-7.5 19.5z" />
    <glyph glyph-name="threequarters" unicode="&#xbe;" horiz-adv-x="1390" 
d="M942 207h113v184zM276 39l633 1128q9 19 31 19h117q13 0 21.5 -11.5t8.5 -27.5l-632 -1129q-9 -18 -31 -18h-117q-13 0 -22 12t-9 27zM291 983h14q17 0 26.5 1.5t20 12t10.5 31.5q0 14 -12.5 30.5t-40.5 16.5q-37 0 -45 -33q-3 -16 -24 -16h-78q-12 0 -19.5 7.5
t-7.5 19.5q1 14 4 29.5t14.5 39t29.5 41t52 30.5t78 13q58 0 99.5 -17t60 -44t26 -51.5t7.5 -49.5q0 -17 -4.5 -36.5t-19.5 -41.5t-38 -28q62 -28 62 -107q0 -19 -4 -38t-16.5 -42t-32.5 -40.5t-56.5 -29t-83.5 -11.5q-44 0 -78 13t-52 30.5t-29.5 41t-14.5 39t-4 29.5
q0 12 7.5 19.5t19.5 7.5h78q21 0 24 -16q8 -33 45 -33q28 0 39.5 16t11.5 31q0 21 -10 31.5t-19.5 12t-25.5 1.5h-14q-8 0 -13.5 5.5t-5.5 12.5v54q0 7 5.5 12.5t13.5 5.5zM1055 29v61h-234q-10 0 -18 8t-8 19v92q0 6 4 14l157 262q10 17 29 17h178q13 0 24 -11t11 -24v-260
h33q10 0 17 -7t7 -18v-67q0 -11 -7 -18t-17 -7h-33v-61q0 -12 -8.5 -20.5t-20.5 -8.5h-86q-12 0 -20 8.5t-8 20.5z" />
    <glyph glyph-name="questiondown" unicode="&#xbf;" horiz-adv-x="1026" 
d="M395 823q15 23 35 23h121q15 0 28 -15t13 -30q-21 -50 -64 -108t-80.5 -100.5t-70.5 -103.5t-41 -122q0 -179 186 -179q73 0 117.5 47t50.5 117q0 15 13 28t28 13h119q15 0 28 -13t13 -28q-1 -23 -4.5 -47t-13.5 -60t-25.5 -68t-43.5 -65.5t-64.5 -57t-91.5 -39
t-122 -15.5q-79 0 -142.5 18t-103.5 45t-69.5 66t-43.5 72t-22 73t-9 59.5t-1 39.5q0 59 29 121.5t65.5 108t87.5 110t78 110.5zM623 1085q0 -47 -35 -81.5t-82 -34.5q-49 0 -85 34.5t-36 81.5q0 49 35.5 85t85.5 36q47 0 82 -36t35 -85z" />
    <glyph glyph-name="Agrave" unicode="&#xc0;" horiz-adv-x="1220" 
d="M504 1186h213q17 0 31.5 -9.5t19.5 -21.5l403 -1110q0 -17 -13 -31t-30 -14h-129q-27 0 -38 29l-68 182h-567l-66 -182q-5 -12 -16 -20.5t-23 -8.5h-129q-17 0 -30 14t-13 31l404 1110q5 12 19.5 21.5t31.5 9.5zM610 989l-217 -592h432zM492 1315l-127 190
q0 18 12.5 30.5t32.5 12.5h131q11 0 23 -8t16 -18l100 -187q0 -19 -12.5 -32t-32.5 -13h-107q-22 0 -36 25z" />
    <glyph glyph-name="Aacute" unicode="&#xc1;" horiz-adv-x="1220" 
d="M504 1186h213q17 0 31.5 -9.5t19.5 -21.5l403 -1110q0 -17 -13 -31t-30 -14h-129q-27 0 -38 29l-66 182h-567l-68 -182q-5 -12 -16 -20.5t-23 -8.5h-129q-17 0 -30 14t-13 31l404 1110q5 12 19.5 21.5t31.5 9.5zM827 397l-217 592l-215 -592h432zM856 1505l-127 -190
q-14 -25 -37 -25h-106q-20 0 -32.5 13t-12.5 32l100 187q4 10 16 18t23 8h131q20 0 32.5 -12.5t12.5 -30.5z" />
    <glyph glyph-name="Acircumflex" unicode="&#xc2;" horiz-adv-x="1220" 
d="M504 1186h213q17 0 31.5 -9.5t19.5 -21.5l403 -1110q0 -17 -13 -31t-30 -14h-129q-27 0 -38 29l-68 182h-567l-66 -182q-5 -12 -16 -20.5t-23 -8.5h-129q-17 0 -30 14t-13 31l404 1110q5 12 19.5 21.5t31.5 9.5zM610 989l-217 -592h432zM502 1634h217q27 0 49 -35
l127 -253q0 -22 -16 -39t-39 -17h-99q-13 0 -27 9.5t-20 23.5l-84 170l-84 -170q-6 -14 -20 -23.5t-27 -9.5h-98q-23 0 -39 17t-16 39l127 253q22 35 49 35z" />
    <glyph glyph-name="Atilde" unicode="&#xc3;" horiz-adv-x="1220" 
d="M504 1186h213q17 0 31.5 -9.5t19.5 -21.5l403 -1110q0 -17 -13 -31t-30 -14h-129q-27 0 -38 29l-68 182h-567l-66 -182q-5 -12 -16 -20.5t-23 -8.5h-129q-17 0 -30 14t-13 31l404 1110q5 12 19.5 21.5t31.5 9.5zM610 989l-217 -592h432zM782 1290q-52 2 -157 48t-146 46
q-40 0 -58.5 -15.5t-21.5 -55.5q-6 -23 -32 -23h-86q-17 0 -27 11t-10 28q6 63 25 108.5t40 67.5t50 34.5t45 14.5t34 2q60 0 118.5 -23.5t105.5 -47t79 -23.5q39 0 58 16t22 56q5 22 33 22h86q17 0 27 -10.5t10 -27.5q-6 -63 -25 -108.5t-40.5 -67.5t-50.5 -35t-45 -15
t-34 -2z" />
    <glyph glyph-name="Adieresis" unicode="&#xc4;" horiz-adv-x="1220" 
d="M504 1186h213q17 0 31.5 -9.5t19.5 -21.5l403 -1110q0 -17 -13 -31t-30 -14h-129q-27 0 -38 29l-68 182h-567l-66 -182q-5 -12 -16 -20.5t-23 -8.5h-129q-17 0 -30 14t-13 31l404 1110q5 12 19.5 21.5t31.5 9.5zM610 989l-217 -592h432zM307 1413q0 51 36 87t87 36
q52 0 88.5 -36t36.5 -87q0 -52 -36 -87.5t-89 -35.5q-51 0 -87 35.5t-36 87.5zM670 1413q0 51 36.5 87t88.5 36q51 0 87 -36t36 -87q0 -52 -36 -87.5t-87 -35.5q-53 0 -89 35.5t-36 87.5z" />
    <glyph glyph-name="Aring" unicode="&#xc5;" horiz-adv-x="1220" 
d="M504 1186h213q17 0 31.5 -9.5t19.5 -21.5l403 -1110q0 -17 -13 -31t-30 -14h-129q-27 0 -38 29l-68 182h-567l-66 -182q-5 -12 -16 -20.5t-23 -8.5h-129q-17 0 -30 14t-13 31l404 1110q5 12 19.5 21.5t31.5 9.5zM610 989l-217 -592h432zM610 1792q104 0 178 -73t74 -177
t-74 -178t-178 -74t-178 74t-74 178t74 177t178 73zM610 1436q43 0 74 31.5t31 74.5t-31 74t-74 31q-44 0 -75 -31t-31 -74t31 -74.5t75 -31.5z" />
    <glyph glyph-name="AE" unicode="&#xc6;" horiz-adv-x="1792" 
d="M895 1001l-358 -546h358v546zM43 61l719 1098q17 27 49 27h838q16 0 28.5 -12t12.5 -29v-109q0 -15 -13 -27t-28 -12h-553v-323h508q16 0 28.5 -12t12.5 -29v-109q0 -15 -13 -27t-28 -12h-508v-297h553q15 0 28 -11.5t13 -26.5v-109q0 -17 -12.5 -29t-28.5 -12h-713
q-16 0 -28.5 12t-12.5 29v225h-477l-166 -246q-13 -20 -37 -20h-135q-17 0 -30 13t-13 30q0 6 6 18z" />
    <glyph glyph-name="Ccedilla" unicode="&#xc7;" horiz-adv-x="1413" 
d="M629 -393q-25 4 -25 24v60q0 9 7.5 16.5t17.5 7.5q10 -2 33 -2q94 0 94 62q0 23 -15.5 38t-30.5 19l-16 4l-18 2q-29 4 -29 29l23 115q-116 13 -219 66t-177 133.5t-116.5 187.5t-42.5 223q0 167 83.5 308.5t228 223.5t316.5 82q201 0 362 -111t230 -288q-7 -39 -43 -39
h-141q-27 0 -37 23q-53 104 -152 165.5t-219 61.5q-175 0 -301.5 -123.5t-126.5 -302.5q0 -174 127 -300t301 -126q120 0 219 61.5t152 165.5q10 23 37 23h141q36 0 43 -39q-62 -161 -201.5 -268t-318.5 -127l-12 -80q5 -1 13 -3t29 -12t37 -24t29 -41.5t13 -61.5
q0 -48 -24.5 -82.5t-61 -49.5t-65 -21t-50.5 -6q-45 0 -94 6z" />
    <glyph glyph-name="Egrave" unicode="&#xc8;" horiz-adv-x="1032" 
d="M336 188h553q15 0 28 -11.5t13 -26.5v-109q0 -17 -12.5 -29t-28.5 -12h-713q-16 0 -28.5 12t-12.5 29v1104q0 17 12.5 29t28.5 12h713q16 0 28.5 -12t12.5 -29v-109q0 -15 -13 -27t-28 -12h-553v-323h508q16 0 28.5 -12t12.5 -29v-109q0 -15 -13 -27t-28 -12h-508v-297z
M442 1315l-127 190q0 18 12.5 30.5t32.5 12.5h132q11 0 22.5 -8t15.5 -18l101 -187q0 -19 -12.5 -32t-32.5 -13h-107q-23 0 -37 25z" />
    <glyph glyph-name="Eacute" unicode="&#xc9;" horiz-adv-x="1032" 
d="M336 188h553q15 0 28 -11.5t13 -26.5v-109q0 -17 -12.5 -29t-28.5 -12h-713q-16 0 -28.5 12t-12.5 29v1104q0 17 12.5 29t28.5 12h713q16 0 28.5 -12t12.5 -29v-109q0 -15 -13 -27t-28 -12h-553v-323h508q16 0 28.5 -12t12.5 -29v-109q0 -15 -13 -27t-28 -12h-508v-297z
M797 1505l-127 -190q-14 -25 -37 -25h-107q-20 0 -32.5 13t-12.5 32l101 187q4 10 16 18t23 8h131q20 0 32.5 -12.5t12.5 -30.5z" />
    <glyph glyph-name="Ecircumflex" unicode="&#xca;" horiz-adv-x="1032" 
d="M336 188h553q15 0 28 -11.5t13 -26.5v-109q0 -17 -12.5 -29t-28.5 -12h-713q-16 0 -28.5 12t-12.5 29v1104q0 17 12.5 29t28.5 12h713q16 0 28.5 -12t12.5 -29v-109q0 -15 -13 -27t-28 -12h-553v-323h508q16 0 28.5 -12t12.5 -29v-109q0 -15 -13 -27t-28 -12h-508v-297z
M432 1634h217q27 0 49 -35l127 -253q0 -22 -16 -39t-39 -17h-98q-13 0 -27 9.5t-20 23.5l-84 170l-84 -170q-6 -14 -20 -23.5t-27 -9.5h-99q-23 0 -39 17t-16 39l127 253q22 35 49 35z" />
    <glyph glyph-name="Edieresis" unicode="&#xcb;" horiz-adv-x="1032" 
d="M336 188h553q15 0 28 -11.5t13 -26.5v-109q0 -17 -12.5 -29t-28.5 -12h-713q-16 0 -28.5 12t-12.5 29v1104q0 17 12.5 29t28.5 12h713q16 0 28.5 -12t12.5 -29v-109q0 -15 -13 -27t-28 -12h-553v-323h508q16 0 28.5 -12t12.5 -29v-109q0 -15 -13 -27t-28 -12h-508v-297z
M233 1413q0 51 36 87t87 36q52 0 88.5 -36t36.5 -87q0 -52 -36 -87.5t-89 -35.5q-51 0 -87 35.5t-36 87.5zM596 1413q0 51 36.5 87t88.5 36q51 0 87 -36t36 -87q0 -52 -36 -87.5t-87 -35.5q-53 0 -89 35.5t-36 87.5z" />
    <glyph glyph-name="Igrave" unicode="&#xcc;" 
d="M336 1143v-1100q0 -15 -13 -29t-28 -14h-119q-15 0 -28 14t-13 29v1100q0 15 13 29t28 14h119q15 0 28 -14t13 -29zM121 1315l-127 190q0 18 12.5 30.5t32.5 12.5h131q11 0 23 -8t16 -18l100 -187q0 -19 -12.5 -32t-32.5 -13h-106q-23 0 -37 25z" />
    <glyph glyph-name="Iacute" unicode="&#xcd;" 
d="M336 1143v-1100q0 -15 -13 -29t-28 -14h-119q-15 0 -28 14t-13 29v1100q0 15 13 29t28 14h119q15 0 28 -14t13 -29zM475 1505l-127 -190q-14 -25 -37 -25h-106q-20 0 -32.5 13t-12.5 32l100 187q4 10 16 18t23 8h131q20 0 32.5 -12.5t12.5 -30.5z" />
    <glyph glyph-name="Icircumflex" unicode="&#xce;" 
d="M336 1143v-1100q0 -15 -13 -29t-28 -14h-119q-15 0 -28 14t-13 29v1100q0 15 13 29t28 14h119q15 0 28 -14t13 -29zM127 1634h217q27 0 49 -35l127 -253q0 -22 -16 -39t-39 -17h-98q-14 0 -28 10t-20 23l-83 170l-84 -170q-6 -13 -20 -23t-28 -10h-98q-23 0 -39 17
t-16 39l127 253q22 35 49 35z" />
    <glyph glyph-name="Idieresis" unicode="&#xcf;" 
d="M336 1143v-1100q0 -15 -13 -29t-28 -14h-119q-15 0 -28 14t-13 29v1100q0 15 13 29t28 14h119q15 0 28 -14t13 -29zM-53 1413q0 51 36 87t87 36q52 0 88.5 -36t36.5 -87q0 -52 -36 -87.5t-89 -35.5q-51 0 -87 35.5t-36 87.5zM276 1413q0 51 36.5 87t88.5 36q51 0 87 -36
t36 -87q0 -52 -36 -87.5t-87 -35.5q-53 0 -89 35.5t-36 87.5z" />
    <glyph glyph-name="Eth" unicode="&#xd0;" horiz-adv-x="1304" 
d="M625 1186q173 0 307 -78t206 -213t72 -303t-72 -302.5t-206 -212t-307 -77.5h-410q-15 0 -28 14t-13 29v453h-96q-15 0 -28 12t-13 27v108q0 17 12.5 29t28.5 12h96v459q0 15 13 29t28 14h410zM637 188q172 0 272.5 111.5t100.5 292.5t-100.5 293t-272.5 112h-262v-313
h176q16 0 28.5 -12t12.5 -29v-108q0 -15 -13 -27t-28 -12h-176v-308h262z" />
    <glyph glyph-name="Ntilde" unicode="&#xd1;" horiz-adv-x="1298" 
d="M961 18l-625 820v-795q0 -15 -13 -29t-28 -14h-119q-15 0 -28 14t-13 29v1100q0 15 13 29t28 14h135q20 0 31 -19l621 -819v795q0 15 13 29t28 14h118q15 0 28 -14t13 -29v-1100q0 -15 -13 -29t-28 -14h-131q-19 0 -30 18zM815 1290q-52 2 -157 48t-146 46
q-40 0 -58.5 -15.5t-21.5 -55.5q-6 -23 -33 -23h-86q-17 0 -27 11t-10 28q6 63 25 108.5t40.5 67.5t50.5 34.5t45 14.5t34 2q60 0 118.5 -23.5t105.5 -47t79 -23.5q39 0 58 16t22 56q6 22 33 22h86q17 0 27 -10.5t10 -27.5q-6 -63 -25 -108.5t-40.5 -67.5t-50.5 -35t-45 -15
t-34 -2z" />
    <glyph glyph-name="Ograve" unicode="&#xd2;" horiz-adv-x="1482" 
d="M741 1206q129 0 245.5 -48.5t200 -130.5t132.5 -196t49 -239q0 -168 -83 -309t-227.5 -223.5t-316.5 -82.5t-316 82.5t-227 223.5t-83 309t83 309t227 223t316 82zM741 166q174 0 300 126t126 300q0 118 -58 216.5t-156 154t-212 55.5t-212 -55.5t-156 -154t-58 -216.5
q0 -174 126 -300t300 -126zM625 1315l-127 190q0 18 12.5 30.5t32.5 12.5h131q11 0 23 -8t16 -18l100 -187q0 -19 -12.5 -32t-32.5 -13h-106q-23 0 -37 25z" />
    <glyph glyph-name="Oacute" unicode="&#xd3;" horiz-adv-x="1482" 
d="M741 1206q129 0 245.5 -48.5t200 -130.5t132.5 -196t49 -239q0 -168 -83 -309t-227.5 -223.5t-316.5 -82.5t-316 82.5t-227 223.5t-83 309t83 309t227 223t316 82zM741 166q174 0 300 126t126 300q0 118 -58 216.5t-156 154t-212 55.5t-212 -55.5t-156 -154t-58 -216.5
q0 -174 126 -300t300 -126zM973 1505l-127 -190q-14 -25 -37 -25h-107q-20 0 -32.5 13t-12.5 32l101 187q4 10 16 18t23 8h131q20 0 32.5 -12.5t12.5 -30.5z" />
    <glyph glyph-name="Ocircumflex" unicode="&#xd4;" horiz-adv-x="1482" 
d="M741 1206q129 0 245.5 -48.5t200 -130.5t132.5 -196t49 -239q0 -168 -83 -309t-227.5 -223.5t-316.5 -82.5t-316 82.5t-227 223.5t-83 309t83 309t227 223t316 82zM741 166q174 0 300 126t126 300q0 118 -58 216.5t-156 154t-212 55.5t-212 -55.5t-156 -154t-58 -216.5
q0 -174 126 -300t300 -126zM633 1634h217q27 0 49 -35l127 -253q0 -22 -16 -39t-39 -17h-99q-13 0 -27 9.5t-20 23.5l-84 170l-84 -170q-6 -14 -20 -23.5t-27 -9.5h-98q-23 0 -39 17t-16 39l127 253q22 35 49 35z" />
    <glyph glyph-name="Otilde" unicode="&#xd5;" horiz-adv-x="1482" 
d="M741 1206q129 0 245.5 -48.5t200 -130.5t132.5 -196t49 -239q0 -168 -83 -309t-227.5 -223.5t-316.5 -82.5t-316 82.5t-227 223.5t-83 309t83 309t227 223t316 82zM741 166q174 0 300 126t126 300q0 118 -58 216.5t-156 154t-212 55.5t-212 -55.5t-156 -154t-58 -216.5
q0 -174 126 -300t300 -126zM913 1290q-52 2 -157 48t-146 46q-40 0 -58.5 -15.5t-21.5 -55.5q-6 -23 -32 -23h-86q-17 0 -27 11t-10 28q6 63 25 108.5t40 67.5t50 34.5t45 14.5t34 2q60 0 118.5 -23.5t105.5 -47t79 -23.5q39 0 58 16t22 56q6 22 33 22h86q17 0 27 -10.5
t10 -27.5q-6 -63 -25 -108.5t-40.5 -67.5t-50.5 -35t-45 -15t-34 -2z" />
    <glyph glyph-name="Odieresis" unicode="&#xd6;" horiz-adv-x="1482" 
d="M741 1206q129 0 245.5 -48.5t200 -130.5t132.5 -196t49 -239q0 -168 -83 -309t-227.5 -223.5t-316.5 -82.5t-316 82.5t-227 223.5t-83 309t83 309t227 223t316 82zM741 166q174 0 300 126t126 300q0 118 -58 216.5t-156 154t-212 55.5t-212 -55.5t-156 -154t-58 -216.5
q0 -174 126 -300t300 -126zM438 1413q0 51 36 87t87 36q52 0 88.5 -36t36.5 -87q0 -52 -36 -87.5t-89 -35.5q-51 0 -87 35.5t-36 87.5zM801 1413q0 51 36.5 87t88.5 36q51 0 87 -36t36 -87q0 -52 -36 -87.5t-87 -35.5q-53 0 -89 35.5t-36 87.5z" />
    <glyph glyph-name="multiply" unicode="&#xd7;" horiz-adv-x="819" 
d="M410 270l-138 -133q-20 -12 -30 -12q-15 0 -35 16l-60 62q-12 12 -12 33q0 15 12 30l136 137l-136 138q-12 15 -12 30q0 21 12 33l60 62q20 16 35 16q10 0 30 -12l138 -133l137 133q20 12 31 12q14 0 34 -16l60 -62q12 -12 12 -33q0 -15 -12 -30l-135 -138l135 -137
q12 -15 12 -30q0 -21 -12 -33l-60 -62q-20 -16 -34 -16q-11 0 -31 12z" />
    <glyph glyph-name="Oslash" unicode="&#xd8;" horiz-adv-x="1482" 
d="M336 -145l86 206q-141 81 -224 222t-83 309t83 309t227 223t316 82q73 0 148 -16l65 158q8 22 33 22h121q17 0 29 -12t12 -29l-86 -209q139 -81 222 -221.5t83 -306.5q0 -168 -83 -309t-227.5 -223.5t-316.5 -82.5q-65 0 -145 17l-66 -158q-8 -22 -32 -22h-121
q-17 0 -29 12t-12 29zM315 592q0 -105 49 -196.5t134 -151.5l317 768q-37 6 -74 6q-114 0 -212 -55.5t-156 -154t-58 -216.5zM741 166q174 0 300 126t126 300q0 107 -48.5 198.5t-131.5 149.5l-317 -768q34 -6 71 -6z" />
    <glyph glyph-name="Ugrave" unicode="&#xd9;" horiz-adv-x="1212" 
d="M606 -23q-10 0 -27.5 1t-67.5 10.5t-95.5 26t-101.5 53t-96 85.5t-67.5 128.5t-27.5 177.5v684q0 15 13 29t28 14h117q15 0 28 -14t13 -29v-684q0 -14 1.5 -30.5t7.5 -47t17 -57t32.5 -57t50 -52t74 -35.5t101.5 -14q49 0 90 10.5t69.5 29t50.5 41t35 49.5t21.5 50.5
t12.5 48t5 38.5t1 26v684q0 15 13 29t28 14h117q15 0 28 -14t13 -29v-684q0 -77 -16.5 -143t-44.5 -112t-64.5 -83.5t-76.5 -60.5t-80 -40t-76.5 -25t-64.5 -12.5t-45 -4.5zM494 1315l-127 190q0 18 12.5 30.5t32.5 12.5h131q11 0 23 -8t16 -18l100 -187q0 -19 -12.5 -32
t-32.5 -13h-107q-22 0 -36 25z" />
    <glyph glyph-name="Uacute" unicode="&#xda;" horiz-adv-x="1212" 
d="M606 -23q-10 0 -27.5 1t-67.5 10.5t-95.5 26t-101.5 53t-96 85.5t-67.5 128.5t-27.5 177.5v684q0 15 13 29t28 14h117q15 0 28 -14t13 -29v-684q0 -14 1.5 -30.5t7.5 -47t17 -57t32.5 -57t50 -52t74 -35.5t101.5 -14q49 0 90 10.5t69.5 29t50.5 41t35 49.5t21.5 50.5
t12.5 48t5 38.5t1 26v684q0 15 13 29t28 14h117q15 0 28 -14t13 -29v-684q0 -77 -16.5 -143t-44.5 -112t-64.5 -83.5t-76.5 -60.5t-80 -40t-76.5 -25t-64.5 -12.5t-45 -4.5zM494 1315l-127 190q0 18 12.5 30.5t32.5 12.5h131q11 0 23 -8t16 -18l100 -187q0 -19 -12.5 -32
t-32.5 -13h-107q-22 0 -36 25z" />
    <glyph glyph-name="Ucircumflex" unicode="&#xdb;" horiz-adv-x="1212" 
d="M606 -23q-10 0 -27.5 1t-67.5 10.5t-95.5 26t-101.5 53t-96 85.5t-67.5 128.5t-27.5 177.5v684q0 15 13 29t28 14h117q15 0 28 -14t13 -29v-684q0 -14 1.5 -30.5t7.5 -47t17 -57t32.5 -57t50 -52t74 -35.5t101.5 -14q49 0 90 10.5t69.5 29t50.5 41t35 49.5t21.5 50.5
t12.5 48t5 38.5t1 26v684q0 15 13 29t28 14h117q15 0 28 -14t13 -29v-684q0 -77 -16.5 -143t-44.5 -112t-64.5 -83.5t-76.5 -60.5t-80 -40t-76.5 -25t-64.5 -12.5t-45 -4.5zM500 1634h217q27 0 49 -35l127 -253q0 -22 -16 -39t-39 -17h-99q-13 0 -27 9.5t-20 23.5l-84 170
l-84 -170q-6 -14 -20 -23.5t-27 -9.5h-98q-23 0 -39 17t-16 39l127 253q22 35 49 35z" />
    <glyph glyph-name="Udieresis" unicode="&#xdc;" horiz-adv-x="1212" 
d="M606 -23q-10 0 -27.5 1t-67.5 10.5t-95.5 26t-101.5 53t-96 85.5t-67.5 128.5t-27.5 177.5v684q0 15 13 29t28 14h117q15 0 28 -14t13 -29v-684q0 -14 1.5 -30.5t7.5 -47t17 -57t32.5 -57t50 -52t74 -35.5t101.5 -14q49 0 90 10.5t69.5 29t50.5 41t35 49.5t21.5 50.5
t12.5 48t5 38.5t1 26v684q0 15 13 29t28 14h117q15 0 28 -14t13 -29v-684q0 -77 -16.5 -143t-44.5 -112t-64.5 -83.5t-76.5 -60.5t-80 -40t-76.5 -25t-64.5 -12.5t-45 -4.5zM305 1413q0 51 36 87t87 36q52 0 88.5 -36t36.5 -87q0 -52 -36 -87.5t-89 -35.5q-51 0 -87 35.5
t-36 87.5zM668 1413q0 51 36.5 87t88.5 36q51 0 86.5 -36t35.5 -87q0 -52 -35.5 -87.5t-86.5 -35.5q-53 0 -89 35.5t-36 87.5z" />
    <glyph glyph-name="Yacute" unicode="&#xdd;" horiz-adv-x="1105" 
d="M453 43v356l-404 742q0 19 12 32t31 13h137q25 0 39 -29l285 -526l285 526q14 29 39 29h137q19 0 31 -13t12 -32l-404 -742v-356q0 -15 -13 -29t-28 -14h-118q-15 0 -28 14t-13 29zM811 1505l-127 -190q-14 -25 -37 -25h-106q-20 0 -32.5 13t-12.5 32l100 187q4 10 16 18
t23 8h131q20 0 32.5 -12.5t12.5 -30.5z" />
    <glyph glyph-name="Thorn" unicode="&#xde;" horiz-adv-x="1083" 
d="M336 1143v-144h280q9 0 23.5 -1t57.5 -9.5t82.5 -23t87 -46t82 -73.5t58 -111t23.5 -153q0 -66 -14 -122.5t-38 -96t-55 -72t-65.5 -52.5t-69 -35t-65.5 -22t-55 -11t-38 -5h-14h-280v-123q0 -15 -13 -29t-28 -14h-119q-15 0 -28 14t-13 29v1100q0 15 13 29t28 14h119
q15 0 28 -14t13 -29zM829 582q0 120 -61 174.5t-164 54.5h-268v-457h268q103 0 164 54t61 174z" />
    <glyph glyph-name="germandbls" unicode="&#xdf;" horiz-adv-x="1132" 
d="M586 0q-15 0 -28 12t-13 27v108q0 17 12.5 29t28.5 12h57q96 0 145.5 36t49.5 126q0 91 -50 127.5t-147 36.5h-61q-15 0 -28 12t-13 27v109q0 17 12.5 28.5t28.5 11.5h47q6 0 16.5 1t37.5 8.5t47 21t37 44t17 71.5q0 42 -16 73t-39 45t-45.5 21.5t-38.5 8.5l-16 1h-129
q-162 0 -162 -184v-770q0 -15 -13 -29t-28 -14h-119q-15 0 -28 14t-13 29v795q0 144 104 246t283 102h99q34 0 69.5 -4t91.5 -22.5t97.5 -50t72.5 -94t31 -147.5q0 -111 -42 -168t-118 -79q37 -8 71.5 -26t68.5 -50.5t54.5 -88t20.5 -126.5q0 -73 -24.5 -130t-66 -94
t-100 -61.5t-123 -34.5t-138.5 -10z" />
    <glyph glyph-name="agrave" unicode="&#xe0;" horiz-adv-x="1191" 
d="M856 780v45q0 15 13 29t28 14h119q15 0 28 -14t13 -29v-782q0 -15 -13 -29t-28 -14h-119q-15 0 -28 14t-13 29v45q-43 -39 -88 -63.5t-90.5 -34t-71.5 -11.5t-65 -2q-120 0 -223 61t-163.5 166.5t-60.5 229.5t60.5 229.5t163.5 166.5t223 61q39 0 65 -2t71.5 -11.5
t90.5 -34t88 -63.5zM573 166q119 0 201 75.5t82 192.5v10q-4 113 -85.5 185.5t-197.5 72.5q-117 0 -197.5 -75.5t-80.5 -192.5t80.5 -192.5t197.5 -75.5zM471 1010l-127 190q0 18 12.5 30.5t32.5 12.5h131q11 0 23 -8t16 -18l100 -187q0 -19 -12.5 -32t-32.5 -13h-106
q-23 0 -37 25z" />
    <glyph glyph-name="aacute" unicode="&#xe1;" horiz-adv-x="1191" 
d="M856 780v45q0 15 13 29t28 14h119q15 0 28 -14t13 -29v-782q0 -15 -13 -29t-28 -14h-119q-15 0 -28 14t-13 29v45q-43 -39 -88 -63.5t-90.5 -34t-71.5 -11.5t-65 -2q-120 0 -223 61t-163.5 166.5t-60.5 229.5t60.5 229.5t163.5 166.5t223 61q39 0 65 -2t71.5 -11.5
t90.5 -34t88 -63.5zM573 166q119 0 201 75.5t82 192.5v10q-4 113 -85.5 185.5t-197.5 72.5q-117 0 -197.5 -75.5t-80.5 -192.5t80.5 -192.5t197.5 -75.5zM795 1200l-127 -190q-14 -25 -37 -25h-107q-20 0 -32.5 13t-12.5 32l101 187q4 10 15.5 18t22.5 8h132
q20 0 32.5 -12.5t12.5 -30.5z" />
    <glyph glyph-name="acircumflex" unicode="&#xe2;" horiz-adv-x="1191" 
d="M856 780v45q0 15 13 29t28 14h119q15 0 28 -14t13 -29v-782q0 -15 -13 -29t-28 -14h-119q-15 0 -28 14t-13 29v45q-43 -39 -88 -63.5t-90.5 -34t-71.5 -11.5t-65 -2q-120 0 -223 61t-163.5 166.5t-60.5 229.5t60.5 229.5t163.5 166.5t223 61q39 0 65 -2t71.5 -11.5
t90.5 -34t88 -63.5zM573 166q119 0 201 75.5t82 192.5v10q-4 113 -85.5 185.5t-197.5 72.5q-117 0 -197.5 -75.5t-80.5 -192.5t80.5 -192.5t197.5 -75.5zM477 1329h217q27 0 49 -35l127 -254q0 -22 -16 -38.5t-39 -16.5h-98q-13 0 -27 9.5t-20 23.5l-84 170l-84 -170
q-6 -14 -20 -23.5t-27 -9.5h-99q-23 0 -39 16.5t-16 38.5l127 254q22 35 49 35z" />
    <glyph glyph-name="atilde" unicode="&#xe3;" horiz-adv-x="1191" 
d="M856 780v45q0 15 13 29t28 14h119q15 0 28 -14t13 -29v-782q0 -15 -13 -29t-28 -14h-119q-15 0 -28 14t-13 29v45q-43 -39 -88 -63.5t-90.5 -34t-71.5 -11.5t-65 -2q-120 0 -223 61t-163.5 166.5t-60.5 229.5t60.5 229.5t163.5 166.5t223 61q39 0 65 -2t71.5 -11.5
t90.5 -34t88 -63.5zM573 166q119 0 201 75.5t82 192.5v10q-4 113 -85.5 185.5t-197.5 72.5q-117 0 -197.5 -75.5t-80.5 -192.5t80.5 -192.5t197.5 -75.5zM770 985q-52 2 -157 48t-146 46q-40 0 -58.5 -15.5t-21.5 -55.5q-6 -23 -33 -23h-86q-17 0 -27 11t-10 28
q6 63 25 108.5t40.5 67.5t50.5 34.5t45 14.5t34 2q60 0 118.5 -23.5t105.5 -47t79 -23.5q39 0 58 16t22 56q5 22 33 22h86q17 0 27 -11t10 -28q-6 -63 -25 -108.5t-40.5 -67.5t-50.5 -34.5t-45 -14.5t-34 -2z" />
    <glyph glyph-name="adieresis" unicode="&#xe4;" horiz-adv-x="1191" 
d="M856 780v45q0 15 13 29t28 14h119q15 0 28 -14t13 -29v-782q0 -15 -13 -29t-28 -14h-119q-15 0 -28 14t-13 29v45q-43 -39 -88 -63.5t-90.5 -34t-71.5 -11.5t-65 -2q-120 0 -223 61t-163.5 166.5t-60.5 229.5t60.5 229.5t163.5 166.5t223 61q39 0 65 -2t71.5 -11.5
t90.5 -34t88 -63.5zM573 166q119 0 201 75.5t82 192.5v10q-4 113 -85.5 185.5t-197.5 72.5q-117 0 -197.5 -75.5t-80.5 -192.5t80.5 -192.5t197.5 -75.5zM258 1108q0 51 36 87t87 36q52 0 88.5 -36t36.5 -87q0 -52 -36 -87.5t-89 -35.5q-51 0 -87 35.5t-36 87.5zM621 1108
q0 51 36 87t88 36q51 0 87 -36t36 -87q0 -52 -36 -87.5t-87 -35.5q-53 0 -88.5 35.5t-35.5 87.5z" />
    <glyph glyph-name="aring" unicode="&#xe5;" horiz-adv-x="1191" 
d="M856 780v45q0 15 13 29t28 14h119q15 0 28 -14t13 -29v-782q0 -15 -13 -29t-28 -14h-119q-15 0 -28 14t-13 29v45q-43 -39 -88 -63.5t-90.5 -34t-71.5 -11.5t-65 -2q-120 0 -223 61t-163.5 166.5t-60.5 229.5t60.5 229.5t163.5 166.5t223 61q39 0 65 -2t71.5 -11.5
t90.5 -34t88 -63.5zM573 166q119 0 201 75.5t82 192.5v10q-4 113 -85.5 185.5t-197.5 72.5q-117 0 -197.5 -75.5t-80.5 -192.5t80.5 -192.5t197.5 -75.5zM586 1487q104 0 178 -73t74 -177t-74 -178t-178 -74t-178 74t-74 178t74 177t178 73zM586 1130q42 0 73 32t31 75
t-30.5 73.5t-73.5 30.5q-44 0 -75.5 -30.5t-31.5 -73.5t31.5 -75t75.5 -32z" />
    <glyph glyph-name="ae" unicode="&#xe6;" horiz-adv-x="1654" 
d="M500 166q26 0 54 4t59.5 14.5t52 32.5t20.5 53q0 28 -8 48.5t-25 32.5t-33 19.5t-41.5 10.5t-39.5 3.5t-39 0.5t-39 -0.5t-40 -3.5t-41.5 -10.5t-32.5 -19.5t-25.5 -32.5t-8.5 -48.5q0 -36 19.5 -59.5t55 -32t57.5 -10.5t55 -2zM1130 702q-80 0 -148.5 -46t-94.5 -136
h487q-26 90 -95 136t-149 46zM195 829q143 62 268 62q98 0 187.5 -36.5t154.5 -102.5q126 139 325 139q87 0 166 -31t142.5 -88.5t101 -150t37.5 -205.5v-25q0 -15 -13 -29t-28 -14h-651q20 -68 66 -111t93 -57t101 -14q94 2 186 37q4 2 12 2q26 0 41 -21l56 -78
q8 -16 8 -28q0 -30 -29 -45q-144 -56 -276 -56q-107 0 -196.5 38.5t-151.5 109.5q-67 -81 -154 -114.5t-211 -33.5q-157 0 -243.5 79.5t-86.5 213.5q0 74 29 130t78.5 88.5t109.5 48.5t129 16q111 0 224 -41q0 100 -53.5 145t-184.5 45q-89 0 -166 -34q-6 -2 -12 -2
q-33 0 -47 28l-27 64q-8 20 -8 30q0 28 23 41z" />
    <glyph glyph-name="ccedilla" unicode="&#xe7;" horiz-adv-x="1073" 
d="M444 -393q-24 4 -24 24v60q0 9 7 16.5t17 7.5q10 -2 33 -2q94 0 94 62q0 23 -15.5 38t-30.5 19l-15 4l-18 2q-29 4 -29 29l22 117q-168 26 -279.5 153.5t-111.5 296.5q0 124 62 229t170 166.5t237 61.5q149 0 267 -78t169 -213q-3 -16 -15 -27.5t-28 -11.5h-133
q-21 0 -32 21q-30 59 -92 89.5t-140 30.5q-108 0 -186 -76.5t-78 -191.5t78 -191.5t186 -76.5q78 0 140 31t92 90q10 20 32 20h133q16 0 28 -11.5t15 -27.5q-44 -120 -142 -195.5t-226 -90.5l-13 -80q5 -1 13 -3t29 -12t37 -24t29 -41.5t13 -61.5q0 -48 -24 -82.5
t-60.5 -49.5t-65 -21t-50.5 -6q-45 0 -95 6z" />
    <glyph glyph-name="egrave" unicode="&#xe8;" horiz-adv-x="1064" 
d="M987 416v-25q0 -15 -13 -29t-28 -14h-651q20 -68 66 -111t93 -57t101 -14q94 2 186 37q4 2 13 2q26 0 41 -21l55 -78q8 -16 8 -28q0 -30 -29 -45q-144 -56 -276 -56q-199 0 -329 127t-130 330q0 125 56.5 229.5t159.5 166t231 61.5q87 0 166 -31t142 -88.5t100.5 -150
t37.5 -205.5zM541 702q-80 0 -149 -46t-95 -136h487q-26 90 -94.5 136t-148.5 46zM430 1010l-127 190q0 18 12.5 30.5t32.5 12.5h131q11 0 23 -8t16 -18l100 -187q0 -19 -12.5 -32t-32.5 -13h-106q-23 0 -37 25z" />
    <glyph glyph-name="eacute" unicode="&#xe9;" horiz-adv-x="1064" 
d="M987 416v-25q0 -15 -13 -29t-28 -14h-651q20 -68 66 -111t93 -57t101 -14q94 2 186 37q4 2 13 2q26 0 41 -21l55 -78q8 -16 8 -28q0 -30 -29 -45q-144 -56 -276 -56q-199 0 -329 127t-130 330q0 125 56.5 229.5t159.5 166t231 61.5q87 0 166 -31t142 -88.5t100.5 -150
t37.5 -205.5zM541 702q-80 0 -149 -46t-95 -136h487q-26 90 -94.5 136t-148.5 46zM782 1200l-127 -190q-14 -25 -37 -25h-106q-20 0 -32.5 13t-12.5 32l100 187q4 10 16 18t23 8h131q20 0 32.5 -12.5t12.5 -30.5z" />
    <glyph glyph-name="ecircumflex" unicode="&#xea;" horiz-adv-x="1064" 
d="M987 416v-25q0 -15 -13 -29t-28 -14h-651q20 -68 66 -111t93 -57t101 -14q94 2 186 37q4 2 13 2q26 0 41 -21l55 -78q8 -16 8 -28q0 -30 -29 -45q-144 -56 -276 -56q-199 0 -329 127t-130 330q0 125 56.5 229.5t159.5 166t231 61.5q87 0 166 -31t142 -88.5t100.5 -150
t37.5 -205.5zM541 702q-80 0 -149 -46t-95 -136h487q-26 90 -94.5 136t-148.5 46zM436 1329h217q27 0 49 -35l127 -254q0 -22 -16 -38.5t-39 -16.5h-98q-13 0 -27 9.5t-20 23.5l-84 170l-84 -170q-6 -14 -20 -23.5t-27 -9.5h-99q-23 0 -39 16.5t-16 38.5l127 254
q22 35 49 35z" />
    <glyph glyph-name="edieresis" unicode="&#xeb;" horiz-adv-x="1064" 
d="M987 416v-25q0 -15 -13 -29t-28 -14h-651q20 -68 66 -111t93 -57t101 -14q94 2 186 37q4 2 13 2q26 0 41 -21l55 -78q8 -16 8 -28q0 -30 -29 -45q-144 -56 -276 -56q-199 0 -329 127t-130 330q0 125 56.5 229.5t159.5 166t231 61.5q87 0 166 -31t142 -88.5t100.5 -150
t37.5 -205.5zM541 702q-80 0 -149 -46t-95 -136h487q-26 90 -94.5 136t-148.5 46zM242 1108q0 51 36 87t87 36q52 0 88 -36t36 -87q0 -52 -35.5 -87.5t-88.5 -35.5q-51 0 -87 35.5t-36 87.5zM604 1108q0 51 36.5 87t88.5 36q51 0 87 -36t36 -87q0 -52 -36 -87.5t-87 -35.5
q-53 0 -89 35.5t-36 87.5z" />
    <glyph glyph-name="igrave" unicode="&#xec;" 
d="M336 825v-782q0 -15 -13 -29t-28 -14h-119q-15 0 -28 14t-13 29v782q0 15 13 29t28 14h119q15 0 28 -14t13 -29zM119 1010l-127 190q0 18 12.5 30.5t32.5 12.5h131q11 0 23 -8t16 -18l100 -187q0 -19 -12.5 -32t-32.5 -13h-106q-23 0 -37 25z" />
    <glyph glyph-name="iacute" unicode="&#xed;" 
d="M336 825v-782q0 -15 -13 -29t-28 -14h-119q-15 0 -28 14t-13 29v782q0 15 13 29t28 14h119q15 0 28 -14t13 -29zM477 1200l-127 -190q-14 -25 -37 -25h-106q-20 0 -32.5 13t-12.5 32l100 187q4 10 16 18t23 8h131q20 0 32.5 -12.5t12.5 -30.5z" />
    <glyph glyph-name="icircumflex" unicode="&#xee;" 
d="M336 825v-782q0 -15 -13 -29t-28 -14h-119q-15 0 -28 14t-13 29v782q0 15 13 29t28 14h119q15 0 28 -14t13 -29zM127 1329h217q27 0 49 -35l127 -254q0 -22 -16 -38.5t-39 -16.5h-98q-14 0 -28 10t-20 23l-83 170l-84 -170q-6 -13 -20 -23t-28 -10h-98q-23 0 -39 16.5
t-16 38.5l127 254q22 35 49 35z" />
    <glyph glyph-name="idieresis" unicode="&#xef;" 
d="M336 825v-782q0 -15 -13 -29t-28 -14h-119q-15 0 -28 14t-13 29v782q0 15 13 29t28 14h119q15 0 28 -14t13 -29zM-53 1108q0 51 36 87t87 36q52 0 88.5 -36t36.5 -87q0 -52 -36 -87.5t-89 -35.5q-51 0 -87 35.5t-36 87.5zM276 1108q0 51 36.5 87t88.5 36q51 0 87 -36
t36 -87q0 -52 -36 -87.5t-87 -35.5q-53 0 -89 35.5t-36 87.5z" />
    <glyph glyph-name="eth" unicode="&#xf0;" horiz-adv-x="1042" 
d="M809 924h-221l-82 -131q112 0 199 -35t138.5 -95t78 -133.5t26.5 -156.5q0 -122 -57 -213t-153.5 -137t-217.5 -46q-185 0 -305.5 108t-120.5 288q0 126 84 270q30 50 91 148t83 133h-88q-11 0 -19.5 8t-8.5 18v80q0 12 8.5 20.5t19.5 8.5h172l64 102q15 23 39 23h141
q18 0 30 -11.5t15 -29.5l-53 -84h137q11 0 20 -8.5t9 -20.5v-80q0 -10 -9 -18t-20 -8zM520 166q99 0 164.5 61t65.5 158q0 93 -66 156t-164 63q-96 0 -161.5 -63t-65.5 -156q0 -97 64.5 -158t162.5 -61z" />
    <glyph glyph-name="ntilde" unicode="&#xf1;" horiz-adv-x="1067" 
d="M752 43v442q0 217 -197 217q-47 0 -85.5 -17t-62 -42t-40 -56.5t-23.5 -58t-8 -49.5v-436q0 -15 -13 -29t-28 -14h-119q-15 0 -28 14t-13 29v782q0 15 13 29t28 14h119q15 0 28 -14t13 -29v-45q31 38 75.5 63.5t89 34t65 11t36.5 2.5q72 0 129.5 -18t93 -44t62 -62.5
t38.5 -66.5t18.5 -64.5t7.5 -47.5t1 -23v-522q0 -15 -13 -29t-28 -14h-118q-15 0 -28 14t-13 29zM739 985q-52 2 -157 48t-146 46q-40 0 -58.5 -15.5t-21.5 -55.5q-6 -23 -32 -23h-86q-17 0 -27 11t-10 28q6 63 25 108.5t40 67.5t50 34.5t45 14.5t34 2q60 0 118.5 -23.5
t105.5 -47t79 -23.5q39 0 58 16t22 56q6 22 33 22h86q17 0 27 -11t10 -28q-6 -63 -25 -108.5t-40.5 -67.5t-50.5 -34.5t-45 -14.5t-34 -2z" />
    <glyph glyph-name="ograve" unicode="&#xf2;" horiz-adv-x="1138" 
d="M569 891q131 0 240.5 -61.5t172 -166.5t62.5 -229t-62.5 -229t-172 -166.5t-240.5 -61.5t-240.5 61.5t-172 166.5t-62.5 229t62.5 229t172 166.5t240.5 61.5zM569 166q115 0 195 76t80 192t-80 192t-195 76t-194.5 -76t-79.5 -192t79.5 -192t194.5 -76zM446 1010
l-127 190q0 18 13 30.5t33 12.5h131q11 0 23 -8t16 -18l100 -187q0 -19 -12.5 -32t-32.5 -13h-107q-23 0 -37 25z" />
    <glyph glyph-name="oacute" unicode="&#xf3;" horiz-adv-x="1138" 
d="M569 891q131 0 240.5 -61.5t172 -166.5t62.5 -229t-62.5 -229t-172 -166.5t-240.5 -61.5t-240.5 61.5t-172 166.5t-62.5 229t62.5 229t172 166.5t240.5 61.5zM569 166q115 0 195 76t80 192t-80 192t-195 76t-194.5 -76t-79.5 -192t79.5 -192t194.5 -76zM799 1200
l-127 -190q-14 -25 -37 -25h-107q-20 0 -32.5 13t-12.5 32l101 187q4 10 16 18t23 8h131q20 0 32.5 -12.5t12.5 -30.5z" />
    <glyph glyph-name="ocircumflex" unicode="&#xf4;" horiz-adv-x="1138" 
d="M569 891q131 0 240.5 -61.5t172 -166.5t62.5 -229t-62.5 -229t-172 -166.5t-240.5 -61.5t-240.5 61.5t-172 166.5t-62.5 229t62.5 229t172 166.5t240.5 61.5zM569 166q115 0 195 76t80 192t-80 192t-195 76t-194.5 -76t-79.5 -192t79.5 -192t194.5 -76zM461 1329h217
q27 0 49 -35l127 -254q0 -22 -16 -38.5t-39 -16.5h-99q-13 0 -27 9.5t-20 23.5l-84 170l-84 -170q-6 -14 -20 -23.5t-27 -9.5h-98q-23 0 -39 16.5t-16 38.5l127 254q22 35 49 35z" />
    <glyph glyph-name="otilde" unicode="&#xf5;" horiz-adv-x="1138" 
d="M569 891q131 0 240.5 -61.5t172 -166.5t62.5 -229t-62.5 -229t-172 -166.5t-240.5 -61.5t-240.5 61.5t-172 166.5t-62.5 229t62.5 229t172 166.5t240.5 61.5zM569 166q115 0 195 76t80 192t-80 192t-195 76t-194.5 -76t-79.5 -192t79.5 -192t194.5 -76zM739 985
q-52 2 -157 48t-146 46q-40 0 -58.5 -15.5t-21.5 -55.5q-6 -23 -32 -23h-86q-17 0 -27 11t-10 28q6 63 25 108.5t40 67.5t50 34.5t45 14.5t34 2q60 0 118.5 -23.5t105.5 -47t79 -23.5q39 0 58 16t22 56q6 22 33 22h86q17 0 27 -11t10 -28q-6 -63 -25 -108.5t-40.5 -67.5
t-50.5 -34.5t-45 -14.5t-34 -2z" />
    <glyph glyph-name="odieresis" unicode="&#xf6;" horiz-adv-x="1138" 
d="M569 891q131 0 240.5 -61.5t172 -166.5t62.5 -229t-62.5 -229t-172 -166.5t-240.5 -61.5t-240.5 61.5t-172 166.5t-62.5 229t62.5 229t172 166.5t240.5 61.5zM569 166q115 0 195 76t80 192t-80 192t-195 76t-194.5 -76t-79.5 -192t79.5 -192t194.5 -76zM264 1108
q0 51 36 87t87 36q52 0 88.5 -36t36.5 -87q0 -52 -36 -87.5t-89 -35.5q-51 0 -87 35.5t-36 87.5zM627 1108q0 51 36.5 87t88.5 36q51 0 86.5 -36t35.5 -87q0 -52 -35.5 -87.5t-86.5 -35.5q-53 0 -89 35.5t-36 87.5z" />
    <glyph glyph-name="divide" unicode="&#xf7;" horiz-adv-x="851" 
d="M676 283h-500q-15 0 -28 12t-13 27v108q0 17 12.5 29t28.5 12h500q16 0 28.5 -12t12.5 -29v-108q0 -15 -13 -27t-28 -12zM326 76q0 41 29.5 71.5t70.5 30.5t70.5 -30.5t29.5 -71.5t-29.5 -70t-70.5 -29t-70.5 29t-29.5 70zM326 678q0 41 29.5 70.5t70.5 29.5t70.5 -29.5
t29.5 -70.5q0 -42 -29.5 -72.5t-70.5 -30.5t-70.5 30.5t-29.5 72.5z" />
    <glyph glyph-name="oslash" unicode="&#xf8;" horiz-adv-x="1138" 
d="M223 -154l84 205q-98 63 -155.5 164t-57.5 219q0 124 62.5 229t172 166.5t240.5 61.5q37 0 74 -6l62 149q9 23 32 23h121q17 0 29 -12t12 -29l-78 -195q103 -61 163 -163.5t60 -223.5q0 -124 -62.5 -229t-172 -166.5t-240.5 -61.5q-23 0 -88 9l-63 -158q-9 -23 -33 -23
h-121q-17 0 -29 12t-12 29zM569 166q115 0 195 76t80 192q0 124 -96 207l-193 -475h14zM295 434q0 -122 86 -198l188 466q-115 0 -194.5 -76t-79.5 -192z" />
    <glyph glyph-name="ugrave" unicode="&#xf9;" horiz-adv-x="1069" 
d="M535 -23q-78 0 -142 18t-105.5 45.5t-73 66.5t-48 76t-26.5 80t-12.5 71.5t-2.5 56.5v434q0 15 13 29t28 14h119q15 0 28 -14t13 -29v-442q0 -23 3.5 -47t16.5 -56t34.5 -56t61.5 -41t93 -17t93 17t61 41t34 56t16.5 56t3.5 47v442q0 15 13 29t28 14h119q15 0 28 -14
t13 -29v-434q0 -28 -2.5 -56.5t-12.5 -71.5t-26.5 -80t-47.5 -76t-72.5 -66.5t-105.5 -45.5t-142 -18zM430 1010l-127 190q0 18 12.5 30.5t32.5 12.5h131q11 0 23 -8t16 -18l100 -187q0 -19 -12.5 -32t-32.5 -13h-106q-23 0 -37 25z" />
    <glyph glyph-name="uacute" unicode="&#xfa;" horiz-adv-x="1069" 
d="M535 -23q-78 0 -142 18t-105.5 45.5t-73 66.5t-48 76t-26.5 80t-12.5 71.5t-2.5 56.5v434q0 15 13 29t28 14h119q15 0 28 -14t13 -29v-442q0 -23 3.5 -47t16.5 -56t34.5 -56t61.5 -41t93 -17t93 17t61 41t34 56t16.5 56t3.5 47v442q0 15 13 29t28 14h119q15 0 28 -14
t13 -29v-434q0 -28 -2.5 -56.5t-12.5 -71.5t-26.5 -80t-47.5 -76t-72.5 -66.5t-105.5 -45.5t-142 -18zM768 1200l-127 -190q-14 -25 -37 -25h-106q-20 0 -32.5 13t-12.5 32l100 187q4 10 16 18t23 8h131q20 0 32.5 -12.5t12.5 -30.5z" />
    <glyph glyph-name="ucircumflex" unicode="&#xfb;" horiz-adv-x="1069" 
d="M535 -23q-78 0 -142 18t-105.5 45.5t-73 66.5t-48 76t-26.5 80t-12.5 71.5t-2.5 56.5v434q0 15 13 29t28 14h119q15 0 28 -14t13 -29v-442q0 -23 3.5 -47t16.5 -56t34.5 -56t61.5 -41t93 -17t93 17t61 41t34 56t16.5 56t3.5 47v442q0 15 13 29t28 14h119q15 0 28 -14
t13 -29v-434q0 -28 -2.5 -56.5t-12.5 -71.5t-26.5 -80t-47.5 -76t-72.5 -66.5t-105.5 -45.5t-142 -18zM426 1329h217q27 0 49 -35l127 -254q0 -22 -16 -38.5t-39 -16.5h-98q-14 0 -28 10t-20 23l-83 170l-84 -170q-6 -13 -20 -23t-28 -10h-98q-23 0 -39 16.5t-16 38.5
l127 254q22 35 49 35z" />
    <glyph glyph-name="udieresis" unicode="&#xfc;" horiz-adv-x="1069" 
d="M535 -23q-78 0 -142 18t-105.5 45.5t-73 66.5t-48 76t-26.5 80t-12.5 71.5t-2.5 56.5v434q0 15 13 29t28 14h119q15 0 28 -14t13 -29v-442q0 -23 3.5 -47t16.5 -56t34.5 -56t61.5 -41t93 -17t93 17t61 41t34 56t16.5 56t3.5 47v442q0 15 13 29t28 14h119q15 0 28 -14
t13 -29v-434q0 -28 -2.5 -56.5t-12.5 -71.5t-26.5 -80t-47.5 -76t-72.5 -66.5t-105.5 -45.5t-142 -18zM231 1108q0 51 36 87t87 36q52 0 88.5 -36t36.5 -87q0 -52 -36 -87.5t-89 -35.5q-51 0 -87 35.5t-36 87.5zM594 1108q0 51 36.5 87t88.5 36q51 0 87 -36t36 -87
q0 -52 -36 -87.5t-87 -35.5q-53 0 -89 35.5t-36 87.5z" />
    <glyph glyph-name="yacute" unicode="&#xfd;" horiz-adv-x="995" 
d="M215 -358h-70q-14 0 -26.5 11.5t-12.5 24.5v105q0 15 12.5 27t26.5 12h23q44 0 75 4.5t62.5 18t53 41.5t34.5 71l-340 866q0 17 13 31t30 14h129q12 0 23.5 -8t15.5 -20l234 -617l233 617q11 28 39 28h129q17 0 30 -14t13 -31l-362 -923q-25 -65 -60 -113t-70.5 -75
t-78.5 -43.5t-78.5 -21.5t-77.5 -5zM764 1200l-127 -190q-14 -25 -37 -25h-106q-20 0 -32.5 13t-12.5 32l100 187q4 10 16 18t23 8h131q20 0 32.5 -12.5t12.5 -30.5z" />
    <glyph glyph-name="thorn" unicode="&#xfe;" horiz-adv-x="1191" 
d="M336 88v-403q0 -15 -13 -29t-28 -14h-119q-15 0 -28 14t-13 29v1499q0 15 13 29t28 14h119q15 0 28 -14t13 -29v-404q43 39 88 63.5t90.5 34t71.5 11.5t65 2q120 0 223 -61t163.5 -166.5t60.5 -229.5t-60.5 -229.5t-163.5 -166.5t-223 -61q-39 0 -65 2t-71.5 11.5
t-90.5 34t-88 63.5zM618 702q-119 0 -200.5 -75.5t-81.5 -192.5v-10q4 -113 85.5 -185.5t196.5 -72.5q117 0 198 75.5t81 192.5t-81 192.5t-198 75.5z" />
    <glyph glyph-name="ydieresis" unicode="&#xff;" horiz-adv-x="995" 
d="M215 -358h-70q-14 0 -26.5 11.5t-12.5 24.5v105q0 15 12.5 27t26.5 12h23q44 0 75 4.5t62.5 18t53 41.5t34.5 71l-340 866q0 17 13 31t30 14h129q12 0 23.5 -8t15.5 -20l234 -617l233 617q11 28 39 28h129q17 0 30 -14t13 -31l-362 -923q-25 -65 -60 -113t-70.5 -75
t-78.5 -43.5t-78.5 -21.5t-77.5 -5zM197 1108q0 51 35.5 87t86.5 36q52 0 88.5 -36t36.5 -87q0 -52 -36 -87.5t-89 -35.5q-51 0 -86.5 35.5t-35.5 87.5zM559 1108q0 51 36.5 87t88.5 36q51 0 87 -36t36 -87q0 -52 -36 -87.5t-87 -35.5q-53 0 -89 35.5t-36 87.5z" />
    <glyph glyph-name="Amacron" unicode="&#x100;" horiz-adv-x="1220" 
d="M504 1186h213q17 0 31.5 -9.5t19.5 -21.5l403 -1110q0 -17 -13 -31t-30 -14h-129q-27 0 -38 29l-68 182h-567l-66 -182q-5 -12 -16 -20.5t-23 -8.5h-129q-17 0 -30 14t-13 31l404 1110q5 12 19.5 21.5t31.5 9.5zM610 989l-217 -592h432zM856 1290h-489q-15 0 -28 12
t-13 27v103q0 17 12.5 29t28.5 12h489q16 0 28.5 -12t12.5 -29v-103q0 -15 -13 -27t-28 -12z" />
    <glyph glyph-name="amacron" unicode="&#x101;" horiz-adv-x="1191" 
d="M856 780v45q0 15 13 29t28 14h119q15 0 28 -14t13 -29v-782q0 -15 -13 -29t-28 -14h-119q-15 0 -28 14t-13 29v45q-43 -39 -88 -63.5t-90.5 -34t-71.5 -11.5t-65 -2q-120 0 -223 61t-163.5 166.5t-60.5 229.5t60.5 229.5t163.5 166.5t223 61q39 0 65 -2t71.5 -11.5
t90.5 -34t88 -63.5zM573 166q119 0 201 75.5t82 192.5v10q-4 113 -85.5 185.5t-197.5 72.5q-117 0 -197.5 -75.5t-80.5 -192.5t80.5 -192.5t197.5 -75.5zM823 985h-491q-14 0 -26.5 11t-12.5 26v106q0 15 12.5 27t26.5 12h491q14 0 26.5 -12t12.5 -27v-106q0 -15 -12.5 -26
t-26.5 -11z" />
    <glyph glyph-name="Abreve" unicode="&#x102;" horiz-adv-x="1220" 
d="M504 1186h213q17 0 31.5 -9.5t19.5 -21.5l403 -1110q0 -17 -13 -31t-30 -14h-129q-27 0 -38 29l-68 182h-567l-66 -182q-5 -12 -16 -20.5t-23 -8.5h-129q-17 0 -30 14t-13 31l404 1110q5 12 19.5 21.5t31.5 9.5zM610 989l-217 -592h432zM610 1290q-154 0 -251.5 68.5
t-122.5 195.5q0 14 12.5 27.5t25.5 13.5h117q10 0 21 -8.5t16 -19.5q36 -113 182 -113q147 0 183 113q5 11 15.5 19.5t20.5 8.5h117q13 0 26 -13.5t13 -27.5q-25 -127 -123 -195.5t-252 -68.5z" />
    <glyph glyph-name="abreve" unicode="&#x103;" horiz-adv-x="1191" 
d="M856 780v45q0 15 13 29t28 14h119q15 0 28 -14t13 -29v-782q0 -15 -13 -29t-28 -14h-119q-15 0 -28 14t-13 29v45q-43 -39 -88 -63.5t-90.5 -34t-71.5 -11.5t-65 -2q-120 0 -223 61t-163.5 166.5t-60.5 229.5t60.5 229.5t163.5 166.5t223 61q39 0 65 -2t71.5 -11.5
t90.5 -34t88 -63.5zM573 166q119 0 201 75.5t82 192.5v10q-4 113 -85.5 185.5t-197.5 72.5q-117 0 -197.5 -75.5t-80.5 -192.5t80.5 -192.5t197.5 -75.5zM604 985q-154 0 -252 68.5t-123 195.5q0 14 13 27.5t26 13.5h117q10 0 21 -8.5t16 -19.5q36 -113 182 -113t182 113
q5 11 16 19.5t21 8.5h117q13 0 26 -13.5t13 -27.5q-25 -127 -123 -195.5t-252 -68.5z" />
    <glyph glyph-name="Aogonek" unicode="&#x104;" horiz-adv-x="1220" 
d="M1102 -240q-66 -4 -94 -4q-16 0 -37.5 3t-51.5 13.5t-54 27t-41 47t-17 69.5q0 34 14 63t34.5 45t40.5 27t34 15l14 4l-51 141h-567l-66 -182q-5 -12 -16 -20.5t-23 -8.5h-129q-17 0 -30 14t-13 31l404 1110q5 12 19.5 21.5t31.5 9.5h213q17 0 31.5 -9.5t19.5 -21.5
l403 -1110q0 -17 -13 -31t-30 -14l-92 -8q-7 -1 -17 -4.5t-27 -19t-17 -38.5q0 -61 94 -61q23 0 33 2q10 0 17 -7t7 -16v-63q0 -21 -24 -25zM610 989l-217 -592h432z" />
    <glyph glyph-name="aogonek" unicode="&#x105;" horiz-adv-x="1191" 
d="M1014 -311q-66 -4 -94 -4q-22 0 -50.5 6t-65 21t-61 49.5t-24.5 82.5q0 34 14 63t34.5 45t40.5 27t34 15l14 4v90q-43 -39 -88 -63.5t-90.5 -34t-71.5 -11.5t-65 -2q-120 0 -223 61t-163.5 166.5t-60.5 229.5t60.5 229.5t163.5 166.5t223 61q39 0 65 -2t71.5 -11.5
t90.5 -34t88 -63.5v45q0 15 13 29t28 14h119q15 0 28 -14t13 -29v-872q0 -25 -29 -25h-29q-25 0 -48 -5t-43.5 -21.5t-20.5 -42.5q0 -62 94 -62q23 0 33 2q10 0 17 -6.5t7 -15.5v-64q0 -20 -24 -24zM573 166q119 0 201 75.5t82 192.5v10q-4 113 -85.5 185.5t-197.5 72.5
q-117 0 -197.5 -75.5t-80.5 -192.5t80.5 -192.5t197.5 -75.5z" />
    <glyph glyph-name="Cacute" unicode="&#x106;" horiz-adv-x="1413" 
d="M743 166q120 0 219 61.5t152 165.5q10 23 37 23h141q36 0 43 -39q-69 -178 -230 -289t-362 -111q-172 0 -316.5 82.5t-228 224t-83.5 308.5t83.5 308.5t228 223.5t316.5 82q201 0 362 -111t230 -288q-7 -39 -43 -39h-141q-27 0 -37 23q-53 104 -152 165.5t-219 61.5
q-175 0 -301.5 -123.5t-126.5 -302.5q0 -174 127 -300t301 -126zM971 1505l-127 -190q-14 -25 -37 -25h-107q-20 0 -32.5 13t-12.5 32l101 187q4 10 16 18t23 8h131q20 0 32.5 -12.5t12.5 -30.5z" />
    <glyph glyph-name="cacute" unicode="&#x107;" horiz-adv-x="1073" 
d="M563 -23q-129 0 -237 61.5t-170 166.5t-62 229t62 229t170 166.5t237 61.5q149 0 267 -78t169 -213q-3 -16 -15 -27.5t-28 -11.5h-133q-21 0 -32 21q-30 59 -92 89.5t-140 30.5q-108 0 -186 -76.5t-78 -191.5t78 -191.5t186 -76.5q78 0 140 31t92 90q10 20 32 20h133
q16 0 28 -11.5t15 -27.5q-51 -135 -169 -213t-267 -78zM793 1200l-127 -190q-14 -25 -37 -25h-107q-20 0 -32.5 13t-12.5 32l101 187q4 10 15.5 18t22.5 8h132q20 0 32.5 -12.5t12.5 -30.5z" />
    <glyph glyph-name="Ccircumflex" unicode="&#x108;" horiz-adv-x="1413" 
d="M743 166q120 0 219 61.5t152 165.5q10 23 37 23h141q36 0 43 -39q-69 -178 -230 -289t-362 -111q-172 0 -316.5 82.5t-228 224t-83.5 308.5t83.5 308.5t228 223.5t316.5 82q201 0 362 -111t230 -288q-7 -39 -43 -39h-141q-27 0 -37 23q-53 104 -152 165.5t-219 61.5
q-175 0 -301.5 -123.5t-126.5 -302.5q0 -174 127 -300t301 -126zM637 1634h217q27 0 49 -35l127 -253q0 -22 -16 -39t-39 -17h-98q-14 0 -28 10t-20 23l-84 170l-83 -170q-6 -13 -20 -23t-28 -10h-98q-23 0 -39 17t-16 39l127 253q22 35 49 35z" />
    <glyph glyph-name="ccircumflex" unicode="&#x109;" horiz-adv-x="1073" 
d="M563 -23q-129 0 -237 61.5t-170 166.5t-62 229t62 229t170 166.5t237 61.5q149 0 267 -78t169 -213q-3 -16 -15 -27.5t-28 -11.5h-133q-21 0 -32 21q-30 59 -92 89.5t-140 30.5q-108 0 -186 -76.5t-78 -191.5t78 -191.5t186 -76.5q78 0 140 31t92 90q10 20 32 20h133
q16 0 28 -11.5t15 -27.5q-51 -135 -169 -213t-267 -78zM455 1329h217q27 0 49 -35l127 -254q0 -22 -16 -38.5t-39 -16.5h-99q-13 0 -27 9.5t-20 23.5l-84 170l-84 -170q-6 -14 -20 -23.5t-27 -9.5h-98q-23 0 -39 16.5t-16 38.5l127 254q22 35 49 35z" />
    <glyph glyph-name="Cdotaccent" unicode="&#x10a;" horiz-adv-x="1413" 
d="M743 166q120 0 219 61.5t152 165.5q10 23 37 23h141q36 0 43 -39q-69 -178 -230 -289t-362 -111q-172 0 -316.5 82.5t-228 224t-83.5 308.5t83.5 308.5t228 223.5t316.5 82q201 0 362 -111t230 -288q-7 -39 -43 -39h-141q-27 0 -37 23q-53 104 -152 165.5t-219 61.5
q-175 0 -301.5 -123.5t-126.5 -302.5q0 -174 127 -300t301 -126zM616 1413q0 51 36.5 87t88.5 36q51 0 87 -36t36 -87q0 -52 -36 -87.5t-87 -35.5q-53 0 -89 35.5t-36 87.5z" />
    <glyph glyph-name="cdotaccent" unicode="&#x10b;" horiz-adv-x="1073" 
d="M563 -23q-129 0 -237 61.5t-170 166.5t-62 229t62 229t170 166.5t237 61.5q149 0 267 -78t169 -213q-3 -16 -15 -27.5t-28 -11.5h-133q-21 0 -32 21q-30 59 -92 89.5t-140 30.5q-108 0 -186 -76.5t-78 -191.5t78 -191.5t186 -76.5q78 0 140 31t92 90q10 20 32 20h133
q16 0 28 -11.5t15 -27.5q-51 -135 -169 -213t-267 -78zM436 1108q0 51 36.5 87t88.5 36q51 0 87 -36t36 -87q0 -52 -36 -87.5t-87 -35.5q-53 0 -89 35.5t-36 87.5z" />
    <glyph glyph-name="Ccaron" unicode="&#x10c;" horiz-adv-x="1413" 
d="M743 166q120 0 219 61.5t152 165.5q10 23 37 23h141q36 0 43 -39q-69 -178 -230 -289t-362 -111q-172 0 -316.5 82.5t-228 224t-83.5 308.5t83.5 308.5t228 223.5t316.5 82q201 0 362 -111t230 -288q-7 -39 -43 -39h-141q-27 0 -37 23q-53 104 -152 165.5t-219 61.5
q-175 0 -301.5 -123.5t-126.5 -302.5q0 -174 127 -300t301 -126zM854 1290h-217q-27 0 -49 35l-127 254q0 22 16 38.5t39 16.5h98q14 0 28 -9.5t20 -22.5l83 -170l84 170q6 13 20 22.5t28 9.5h98q23 0 39 -16.5t16 -38.5l-127 -254q-22 -35 -49 -35z" />
    <glyph glyph-name="ccaron" unicode="&#x10d;" horiz-adv-x="1073" 
d="M563 -23q-129 0 -237 61.5t-170 166.5t-62 229t62 229t170 166.5t237 61.5q149 0 267 -78t169 -213q-3 -16 -15 -27.5t-28 -11.5h-133q-21 0 -32 21q-30 59 -92 89.5t-140 30.5q-108 0 -186 -76.5t-78 -191.5t78 -191.5t186 -76.5q78 0 140 31t92 90q10 20 32 20h133
q16 0 28 -11.5t15 -27.5q-51 -135 -169 -213t-267 -78zM672 985h-217q-27 0 -49 35l-127 254q0 22 16 38.5t39 16.5h98q13 0 27 -9.5t20 -23.5l84 -170l84 170q6 14 20 23.5t27 9.5h99q23 0 39 -16.5t16 -38.5l-127 -254q-22 -35 -49 -35z" />
    <glyph glyph-name="Dcaron" unicode="&#x10e;" horiz-adv-x="1265" 
d="M598 997h-262v-809h262q172 0 272.5 111.5t100.5 292.5t-100.5 293t-272.5 112zM586 0h-410q-15 0 -28 14t-13 29v1100q0 15 13 29t28 14h410q173 0 307 -78t206 -213t72 -303t-72 -302.5t-206 -212t-307 -77.5zM641 1290h-217q-27 0 -49 35l-127 254q0 22 16 38.5
t39 16.5h98q14 0 28 -9.5t20 -22.5l83 -170l84 170q6 13 20 22.5t28 9.5h98q23 0 39 -16.5t16 -38.5l-127 -254q-22 -35 -49 -35z" />
    <glyph glyph-name="dcaron" unicode="&#x10f;" horiz-adv-x="1615" 
d="M856 780v402q0 15 13 29t28 14h119q15 0 28 -14t13 -29v-1139q0 -15 -13 -29t-28 -14h-119q-15 0 -28 14t-13 29v45q-43 -39 -88 -63.5t-90.5 -34t-71.5 -11.5t-65 -2q-120 0 -223 61t-163.5 166.5t-60.5 229.5t60.5 229.5t163.5 166.5t223 61q39 0 65 -2t71.5 -11.5
t90.5 -34t88 -63.5zM573 166q119 0 201 75.5t82 192.5v10q-4 113 -85.5 185.5t-197.5 72.5q-117 0 -197.5 -75.5t-80.5 -192.5t80.5 -192.5t197.5 -75.5zM1599 1188l-102 -213q-11 -21 -31 -21h-112q-17 0 -28 11.5t-11 27.5l94 209q4 9 15 16t20 7h117q17 0 27.5 -11.5
t10.5 -25.5z" />
    <glyph glyph-name="Dcroat" unicode="&#x110;" horiz-adv-x="1304" 
d="M625 1186q173 0 307 -78t206 -213t72 -303t-72 -302.5t-206 -212t-307 -77.5h-410q-15 0 -28 14t-13 29v453h-96q-15 0 -28 12t-13 27v108q0 17 12.5 29t28.5 12h96v459q0 15 13 29t28 14h410zM637 188q172 0 272.5 111.5t100.5 292.5t-100.5 293t-272.5 112h-262v-313
h176q16 0 28.5 -12t12.5 -29v-108q0 -15 -13 -27t-28 -12h-176v-308h262z" />
    <glyph glyph-name="dcroat" unicode="&#x111;" horiz-adv-x="1214" 
d="M1147 985h-90v-942q0 -15 -13 -29t-28 -14h-119q-15 0 -28 14t-13 29v45q-43 -39 -88 -63.5t-90.5 -34t-71.5 -11.5t-65 -2q-120 0 -223 61t-163.5 166.5t-60.5 229.5t60.5 229.5t163.5 166.5t223 61q39 0 65 -2t71.5 -11.5t90.5 -34t88 -63.5v205h-102q-12 0 -22.5 9.5
t-10.5 21.5v86q0 13 10.5 23t22.5 10h102v47q0 15 13 29t28 14h119q15 0 28 -14t13 -29v-47h90q11 0 21 -10t10 -23v-86q0 -12 -10 -21.5t-21 -9.5zM573 166q119 0 201 75.5t82 192.5v10q-4 113 -85.5 185.5t-197.5 72.5q-117 0 -197.5 -75.5t-80.5 -192.5t80.5 -192.5
t197.5 -75.5z" />
    <glyph glyph-name="Emacron" unicode="&#x112;" horiz-adv-x="1032" 
d="M336 188h553q15 0 28 -11.5t13 -26.5v-109q0 -17 -12.5 -29t-28.5 -12h-713q-16 0 -28.5 12t-12.5 29v1104q0 17 12.5 29t28.5 12h713q16 0 28.5 -12t12.5 -29v-109q0 -15 -13 -27t-28 -12h-553v-323h508q16 0 28.5 -12t12.5 -29v-109q0 -15 -13 -27t-28 -12h-508v-297z
M786 1290h-491q-14 0 -26.5 12t-12.5 27v105q0 15 12.5 27t26.5 12h491q14 0 26.5 -12t12.5 -27v-105q0 -15 -12.5 -27t-26.5 -12z" />
    <glyph glyph-name="emacron" unicode="&#x113;" horiz-adv-x="1064" 
d="M987 416v-25q0 -15 -13 -29t-28 -14h-651q20 -68 66 -111t93 -57t101 -14q94 2 186 37q4 2 13 2q26 0 41 -21l55 -78q8 -16 8 -28q0 -30 -29 -45q-144 -56 -276 -56q-199 0 -329 127t-130 330q0 125 56.5 229.5t159.5 166t231 61.5q87 0 166 -31t142 -88.5t100.5 -150
t37.5 -205.5zM541 702q-80 0 -149 -46t-95 -136h487q-26 90 -94.5 136t-148.5 46zM776 985h-487q-15 0 -28 12t-13 27v102q0 17 12.5 29t28.5 12h487q16 0 28.5 -12t12.5 -29v-102q0 -15 -13 -27t-28 -12z" />
    <glyph glyph-name="Edotaccent" unicode="&#x116;" horiz-adv-x="1032" 
d="M336 188h553q15 0 28 -11.5t13 -26.5v-109q0 -17 -12.5 -29t-28.5 -12h-713q-16 0 -28.5 12t-12.5 29v1104q0 17 12.5 29t28.5 12h713q16 0 28.5 -12t12.5 -29v-109q0 -15 -13 -27t-28 -12h-553v-323h508q16 0 28.5 -12t12.5 -29v-109q0 -15 -13 -27t-28 -12h-508v-297z
M406 1413q0 51 36 87t88 36q51 0 87 -36t36 -87q0 -52 -36 -87.5t-87 -35.5q-53 0 -88.5 35.5t-35.5 87.5z" />
    <glyph glyph-name="edotaccent" unicode="&#x117;" horiz-adv-x="1064" 
d="M987 416v-25q0 -15 -13 -29t-28 -14h-651q20 -68 66 -111t93 -57t101 -14q94 2 186 37q4 2 13 2q26 0 41 -21l55 -78q8 -16 8 -28q0 -30 -29 -45q-144 -56 -276 -56q-199 0 -329 127t-130 330q0 125 56.5 229.5t159.5 166t231 61.5q87 0 166 -31t142 -88.5t100.5 -150
t37.5 -205.5zM541 702q-80 0 -149 -46t-95 -136h487q-26 90 -94.5 136t-148.5 46zM416 1108q0 51 36.5 87t88.5 36q51 0 87 -36t36 -87q0 -52 -36 -87.5t-87 -35.5q-53 0 -89 35.5t-36 87.5z" />
    <glyph glyph-name="Eogonek" unicode="&#x118;" horiz-adv-x="1032" 
d="M846 -242q-66 -4 -94 -4q-16 0 -37.5 3t-51.5 13.5t-54 27t-41 47t-17 69.5q0 50 29 86h-404q-16 0 -28.5 12t-12.5 29v1104q0 17 12.5 29t28.5 12h713q16 0 28.5 -12t12.5 -29v-109q0 -15 -13 -27t-28 -12h-553v-323h508q16 0 28.5 -12t12.5 -29v-109q0 -15 -13 -27
t-28 -12h-508v-297h553q15 0 28 -11.5t13 -26.5v-109q0 -17 -12.5 -29t-28.5 -12h-60q-40 0 -75 -18.5t-35 -53.5q0 -61 94 -61q23 0 33 2q10 0 17 -7t7 -16v-63q0 -21 -24 -25z" />
    <glyph glyph-name="eogonek" unicode="&#x119;" horiz-adv-x="1064" 
d="M711 -244q-66 -4 -95 -4q-16 0 -37.5 3t-51.5 13.5t-53.5 27t-40.5 47t-17 69.5q0 47 22 78q-155 34 -249.5 153t-94.5 291q0 125 56.5 229.5t159.5 166t231 61.5q87 0 166 -31t142 -88.5t100.5 -150t37.5 -205.5v-25q0 -15 -13 -29t-28 -14h-651q20 -68 66 -111t93 -57
t101 -14q94 2 186 37q4 2 13 2q26 0 41 -21l55 -78q8 -16 8 -28q0 -30 -29 -45q-101 -39 -204 -51q-41 -14 -41 -56q0 -61 94 -61q23 0 33 2q10 0 17 -7t7 -16v-63q0 -21 -24 -25zM541 702q-80 0 -149 -46t-95 -136h487q-26 90 -94.5 136t-148.5 46z" />
    <glyph glyph-name="Ecaron" unicode="&#x11a;" horiz-adv-x="1032" 
d="M336 188h553q15 0 28 -11.5t13 -26.5v-109q0 -17 -12.5 -29t-28.5 -12h-713q-16 0 -28.5 12t-12.5 29v1104q0 17 12.5 29t28.5 12h713q16 0 28.5 -12t12.5 -29v-109q0 -15 -13 -27t-28 -12h-553v-323h508q16 0 28.5 -12t12.5 -29v-109q0 -15 -13 -27t-28 -12h-508v-297z
M641 1290h-217q-27 0 -49 35l-127 254q0 22 16 38.5t39 16.5h98q14 0 28 -9.5t20 -22.5l83 -170l84 170q6 13 20 22.5t28 9.5h98q23 0 39 -16.5t16 -38.5l-127 -254q-22 -35 -49 -35z" />
    <glyph glyph-name="ecaron" unicode="&#x11b;" horiz-adv-x="1064" 
d="M987 416v-25q0 -15 -13 -29t-28 -14h-651q20 -68 66 -111t93 -57t101 -14q94 2 186 37q4 2 13 2q26 0 41 -21l55 -78q8 -16 8 -28q0 -30 -29 -45q-144 -56 -276 -56q-199 0 -329 127t-130 330q0 125 56.5 229.5t159.5 166t231 61.5q87 0 166 -31t142 -88.5t100.5 -150
t37.5 -205.5zM541 702q-80 0 -149 -46t-95 -136h487q-26 90 -94.5 136t-148.5 46zM647 985h-217q-27 0 -49 35l-127 254q0 22 16 38.5t39 16.5h99q13 0 27 -9.5t20 -23.5l84 -170l84 170q6 14 20 23.5t27 9.5h98q23 0 39 -16.5t16 -38.5l-127 -254q-22 -35 -49 -35z" />
    <glyph glyph-name="Gcircumflex" unicode="&#x11c;" horiz-adv-x="1435" 
d="M1255 983q15 -15 15 -33q0 -22 -19 -35l-84 -59q-15 -10 -24 -10q-13 0 -27 14q-128 158 -373 158q-178 0 -303 -123t-125 -303q0 -175 125.5 -300.5t302.5 -125.5q72 0 132 17.5t98.5 45t68.5 60.5t45.5 66.5t25.5 61t13 45.5l2 17h-247q-15 0 -28 12t-13 27v105
q0 17 12.5 29t28.5 12h411q16 0 28.5 -12t12.5 -29v-150q-17 -98 -56 -177.5t-86.5 -129.5t-107.5 -88t-110 -56.5t-103.5 -29.5t-80 -13t-46.5 -2q-173 0 -317.5 82.5t-227.5 223.5t-83 309q0 126 48 239t131 195.5t200 131t249 48.5q98 0 184.5 -21.5t149 -58t104.5 -71
t74 -72.5zM633 1634h217q27 0 49 -35l127 -253q0 -22 -16 -39t-39 -17h-99q-13 0 -27 9.5t-20 23.5l-84 170l-84 -170q-6 -14 -20 -23.5t-27 -9.5h-98q-23 0 -39 17t-16 39l127 253q22 35 49 35z" />
    <glyph glyph-name="gcircumflex" unicode="&#x11d;" horiz-adv-x="1191" 
d="M573 702q-117 0 -197.5 -75.5t-80.5 -192.5t80.5 -192.5t197.5 -75.5q116 0 197.5 72.5t85.5 185.5v10q0 117 -82 192.5t-201 75.5zM260 -326q-27 10 -27 39q0 15 7 25l51 80q11 22 35 22q7 0 16 -6q103 -53 240 -53q33 0 66.5 6t72 23t67.5 42.5t48.5 69t19.5 98.5v68
q-43 -39 -88 -63.5t-90.5 -34t-71.5 -11.5t-65 -2q-120 0 -223 61t-163.5 166.5t-60.5 229.5t60.5 229.5t163.5 166.5t223 61q39 0 65 -2t71.5 -11.5t90.5 -34t88 -63.5v45q0 15 13 29t28 14h119q15 0 28 -14t13 -29v-809q0 -123 -64.5 -220.5t-173 -150.5t-239.5 -53
q-169 0 -320 82zM469 1329h217q27 0 49 -35l127 -254q0 -22 -16 -38.5t-39 -16.5h-98q-13 0 -27 9.5t-20 23.5l-84 170l-84 -170q-6 -13 -20 -23t-28 -10h-98q-23 0 -39 16.5t-16 38.5l127 254q22 35 49 35z" />
    <glyph glyph-name="Gbreve" unicode="&#x11e;" horiz-adv-x="1435" 
d="M1255 983q15 -15 15 -33q0 -22 -19 -35l-84 -59q-15 -10 -24 -10q-13 0 -27 14q-128 158 -373 158q-178 0 -303 -123t-125 -303q0 -175 125.5 -300.5t302.5 -125.5q72 0 132 17.5t98.5 45t68.5 60.5t45.5 66.5t25.5 61t13 45.5l2 17h-247q-15 0 -28 12t-13 27v105
q0 17 12.5 29t28.5 12h411q16 0 28.5 -12t12.5 -29v-150q-17 -98 -56 -177.5t-86.5 -129.5t-107.5 -88t-110 -56.5t-103.5 -29.5t-80 -13t-46.5 -2q-173 0 -317.5 82.5t-227.5 223.5t-83 309q0 126 48 239t131 195.5t200 131t249 48.5q98 0 184.5 -21.5t149 -58t104.5 -71
t74 -72.5zM741 1290q-154 0 -251.5 68.5t-122.5 195.5q0 14 13 27.5t26 13.5h116q10 0 21 -8.5t16 -19.5q36 -113 182 -113q147 0 183 113q5 11 16 19.5t21 8.5h116q13 0 26 -13.5t13 -27.5q-25 -127 -123 -195.5t-252 -68.5z" />
    <glyph glyph-name="gbreve" unicode="&#x11f;" horiz-adv-x="1191" 
d="M573 702q-117 0 -197.5 -75.5t-80.5 -192.5t80.5 -192.5t197.5 -75.5q116 0 197.5 72.5t85.5 185.5v10q0 117 -82 192.5t-201 75.5zM260 -326q-27 10 -27 39q0 15 7 25l51 80q11 22 35 22q7 0 16 -6q103 -53 240 -53q33 0 66.5 6t72 23t67.5 42.5t48.5 69t19.5 98.5v68
q-43 -39 -88 -63.5t-90.5 -34t-71.5 -11.5t-65 -2q-120 0 -223 61t-163.5 166.5t-60.5 229.5t60.5 229.5t163.5 166.5t223 61q39 0 65 -2t71.5 -11.5t90.5 -34t88 -63.5v45q0 15 13 29t28 14h119q15 0 28 -14t13 -29v-809q0 -123 -64.5 -220.5t-173 -150.5t-239.5 -53
q-169 0 -320 82zM600 985q-154 0 -252 68.5t-123 195.5q0 14 13 27.5t26 13.5h117q10 0 21 -8.5t16 -19.5q36 -113 182 -113t182 113q5 11 16 19.5t21 8.5h117q13 0 26 -13.5t13 -27.5q-25 -127 -123 -195.5t-252 -68.5z" />
    <glyph glyph-name="Gdotaccent" unicode="&#x120;" horiz-adv-x="1435" 
d="M1255 983q15 -15 15 -33q0 -22 -19 -35l-84 -59q-15 -10 -24 -10q-13 0 -27 14q-128 158 -373 158q-178 0 -303 -123t-125 -303q0 -175 125.5 -300.5t302.5 -125.5q72 0 132 17.5t98.5 45t68.5 60.5t45.5 66.5t25.5 61t13 45.5l2 17h-247q-15 0 -28 12t-13 27v105
q0 17 12.5 29t28.5 12h411q16 0 28.5 -12t12.5 -29v-150q-17 -98 -56 -177.5t-86.5 -129.5t-107.5 -88t-110 -56.5t-103.5 -29.5t-80 -13t-46.5 -2q-173 0 -317.5 82.5t-227.5 223.5t-83 309q0 126 48 239t131 195.5t200 131t249 48.5q98 0 184.5 -21.5t149 -58t104.5 -71
t74 -72.5zM621 1413q0 51 36 87t88 36q51 0 87 -36t36 -87q0 -52 -36 -87.5t-87 -35.5q-53 0 -88.5 35.5t-35.5 87.5z" />
    <glyph glyph-name="gdotaccent" unicode="&#x121;" horiz-adv-x="1191" 
d="M573 702q-117 0 -197.5 -75.5t-80.5 -192.5t80.5 -192.5t197.5 -75.5q116 0 197.5 72.5t85.5 185.5v10q0 117 -82 192.5t-201 75.5zM260 -326q-27 10 -27 39q0 15 7 25l51 80q11 22 35 22q7 0 16 -6q103 -53 240 -53q33 0 66.5 6t72 23t67.5 42.5t48.5 69t19.5 98.5v68
q-43 -39 -88 -63.5t-90.5 -34t-71.5 -11.5t-65 -2q-120 0 -223 61t-163.5 166.5t-60.5 229.5t60.5 229.5t163.5 166.5t223 61q39 0 65 -2t71.5 -11.5t90.5 -34t88 -63.5v45q0 15 13 29t28 14h119q15 0 28 -14t13 -29v-809q0 -123 -64.5 -220.5t-173 -150.5t-239.5 -53
q-169 0 -320 82zM442 1108q0 51 36.5 87t88.5 36q51 0 87 -36t36 -87q0 -52 -36 -87.5t-87 -35.5q-53 0 -89 35.5t-36 87.5z" />
    <glyph glyph-name="uni0122" unicode="&#x122;" horiz-adv-x="1435" 
d="M1255 983q15 -15 15 -33q0 -22 -19 -35l-84 -59q-15 -10 -24 -10q-13 0 -27 14q-128 158 -373 158q-178 0 -303 -123t-125 -303q0 -175 125.5 -300.5t302.5 -125.5q72 0 132 17.5t98.5 45t68.5 60.5t45.5 66.5t25.5 61t13 45.5l2 17h-247q-15 0 -28 12t-13 27v105
q0 17 12.5 29t28.5 12h411q16 0 28.5 -12t12.5 -29v-150q-17 -98 -56 -177.5t-86.5 -129.5t-107.5 -88t-110 -56.5t-103.5 -29.5t-80 -13t-46.5 -2q-173 0 -317.5 82.5t-227.5 223.5t-83 309q0 126 48 239t131 195.5t200 131t249 48.5q98 0 184.5 -21.5t149 -58t104.5 -71
t74 -72.5zM819 -147l-86 -179q-9 -22 -33 -22h-96q-18 0 -28.5 11.5t-10.5 29.5l66 174q3 10 13 17t20 7h114q18 0 29.5 -11t11.5 -27z" />
    <glyph glyph-name="uni0123" unicode="&#x123;" horiz-adv-x="1191" 
d="M573 702q-117 0 -197.5 -75.5t-80.5 -192.5t80.5 -192.5t197.5 -75.5q116 0 197.5 72.5t85.5 185.5v10q0 117 -82 192.5t-201 75.5zM260 -326q-27 10 -27 39q0 15 7 25l51 80q11 22 35 22q7 0 16 -6q103 -53 240 -53q33 0 66.5 6t72 23t67.5 42.5t48.5 69t19.5 98.5v68
q-43 -39 -88 -63.5t-90.5 -34t-71.5 -11.5t-65 -2q-120 0 -223 61t-163.5 166.5t-60.5 229.5t60.5 229.5t163.5 166.5t223 61q39 0 65 -2t71.5 -11.5t90.5 -34t88 -63.5v45q0 15 13 29t28 14h119q15 0 28 -14t13 -29v-809q0 -123 -64.5 -220.5t-173 -150.5t-239.5 -53
q-169 0 -320 82zM475 1028l127 191q14 24 37 24h106q20 0 33 -13t13 -32l-101 -186q-4 -10 -16 -18.5t-23 -8.5h-131q-20 0 -32.5 12.5t-12.5 30.5z" />
    <glyph glyph-name="Hcircumflex" unicode="&#x124;" horiz-adv-x="1243" 
d="M1108 1143v-1100q0 -15 -13 -29t-28 -14h-119q-15 0 -28 14t-13 29v395h-571v-395q0 -15 -13 -29t-28 -14h-119q-15 0 -28 14t-13 29v1100q0 15 13 29t28 14h119q15 0 28 -14t13 -29v-516h571v516q0 15 13 29t28 14h119q15 0 28 -14t13 -29zM512 1634h217q27 0 49 -35
l127 -253q0 -22 -16 -39t-39 -17h-98q-13 0 -27 9.5t-20 23.5l-84 170l-84 -170q-6 -13 -20 -23t-28 -10h-98q-23 0 -39 17t-16 39l127 253q22 35 49 35z" />
    <glyph glyph-name="hcircumflex" unicode="&#x125;" horiz-adv-x="1067" 
d="M952 565v-522q0 -15 -13 -29t-28 -14h-118q-15 0 -28 14t-13 29v442q0 217 -197 217q-49 0 -88.5 -18.5t-63 -45.5t-39.5 -60.5t-22 -60.5t-6 -48v-426q0 -15 -13 -29t-28 -14h-119q-15 0 -28 14t-13 29v1139q0 15 13 29t28 14h119q15 0 28 -14t13 -29v-402
q31 38 75.5 63.5t89 34t65 11t36.5 2.5q72 0 129.5 -18t93 -44t62 -62.5t38.5 -66.5t18.5 -64.5t7.5 -47.5t1 -23zM336 1634h217q27 0 49 -35l127 -253q0 -22 -16 -39t-39 -17h-99q-13 0 -27 9.5t-20 23.5l-84 170l-84 -170q-6 -14 -20 -23.5t-27 -9.5h-98q-23 0 -39 17
t-16 39l127 253q22 35 49 35z" />
    <glyph glyph-name="Hbar" unicode="&#x126;" horiz-adv-x="1284" 
d="M1186 877h-58v-834q0 -15 -13 -29t-28 -14h-118q-15 0 -28 14t-13 29v395h-572v-395q0 -15 -13 -29t-28 -14h-118q-15 0 -28 14t-13 29v834h-58q-15 0 -28 11.5t-13 26.5v109q0 17 12.5 29t28.5 12h58v78q0 15 13 29t28 14h118q15 0 28 -14t13 -29v-78h572v78q0 15 13 29
t28 14h118q15 0 28 -14t13 -29v-78h58q16 0 28.5 -12t12.5 -29v-109q0 -15 -13 -26.5t-28 -11.5zM356 627h572v250h-572v-250z" />
    <glyph glyph-name="hbar" unicode="&#x127;" horiz-adv-x="1089" 
d="M461 985h-103v-205q31 38 75.5 63.5t89.5 34t65.5 11t36.5 2.5q72 0 129.5 -18t93 -44t62 -62.5t38.5 -66.5t18.5 -64.5t7.5 -47.5t1 -23v-522q0 -15 -13 -29t-28 -14h-119q-15 0 -28 14t-13 29v442q0 217 -196 217q-49 0 -88.5 -18.5t-63.5 -46t-40 -60.5t-22 -60
t-6 -48v-426q0 -15 -13 -29t-28 -14h-118q-15 0 -28 14t-13 29v942h-88q-12 0 -22.5 9.5t-10.5 21.5v86q0 13 10.5 23t22.5 10h88v47q0 15 13 29t28 14h118q15 0 28 -14t13 -29v-47h103q12 0 22.5 -10t10.5 -23v-86q0 -12 -10.5 -21.5t-22.5 -9.5z" />
    <glyph glyph-name="Itilde" unicode="&#x128;" 
d="M336 1143v-1100q0 -15 -13 -29t-28 -14h-119q-15 0 -28 14t-13 29v1100q0 15 13 29t28 14h119q15 0 28 -14t13 -29zM408 1290q-52 2 -157.5 48t-146.5 46q-40 0 -58 -15.5t-21 -55.5q-6 -23 -33 -23h-86q-17 0 -27 11t-10 28q6 63 25 108.5t40 67.5t50 34.5t45 14.5t34 2
q60 0 118.5 -23.5t106 -47t79.5 -23.5q39 0 57.5 16t21.5 56q6 22 33 22h86q17 0 27 -10.5t10 -27.5q-6 -63 -25 -108.5t-40 -67.5t-50 -35t-45 -15t-34 -2z" />
    <glyph glyph-name="itilde" unicode="&#x129;" 
d="M336 825v-782q0 -15 -13 -29t-28 -14h-119q-15 0 -28 14t-13 29v782q0 15 13 29t28 14h119q15 0 28 -14t13 -29zM408 985q-52 2 -157.5 48t-146.5 46q-40 0 -58 -15.5t-21 -55.5q-6 -23 -33 -23h-86q-17 0 -27 11t-10 28q6 63 25 108.5t40 67.5t50 34.5t45 14.5t34 2
q60 0 118.5 -23.5t106 -47t79.5 -23.5q39 0 57.5 16t21.5 56q6 22 33 22h86q17 0 27 -11t10 -28q-6 -63 -25 -108.5t-40 -67.5t-50 -34.5t-45 -14.5t-34 -2z" />
    <glyph glyph-name="Imacron" unicode="&#x12a;" 
d="M336 1143v-1100q0 -15 -13 -29t-28 -14h-119q-15 0 -28 14t-13 29v1100q0 15 13 29t28 14h119q15 0 28 -14t13 -29zM438 1290h-405q-14 0 -26.5 12t-12.5 27v105q0 15 12.5 27t26.5 12h405q14 0 26.5 -12t12.5 -27v-105q0 -15 -12.5 -27t-26.5 -12z" />
    <glyph glyph-name="imacron" unicode="&#x12b;" 
d="M336 825v-782q0 -15 -13 -29t-28 -14h-119q-15 0 -28 14t-13 29v782q0 15 13 29t28 14h119q15 0 28 -14t13 -29zM438 985h-405q-14 0 -26.5 12t-12.5 27v104q0 15 12.5 27t26.5 12h405q14 0 26.5 -12t12.5 -27v-104q0 -15 -12.5 -27t-26.5 -12z" />
    <glyph glyph-name="Iogonek" unicode="&#x12e;" horiz-adv-x="493" 
d="M158 70v1073q0 15 13 29t28 14h118q15 0 28 -14t13 -29v-1110q0 -13 -7.5 -23t-20.5 -10h-29q-25 0 -48 -5t-44 -22t-21 -43q0 -61 95 -61q22 0 32 2q10 0 17.5 -7t7.5 -16v-63q0 -10 -7.5 -16.5t-17.5 -8.5q-66 -4 -94 -4q-16 0 -37.5 3t-51.5 13.5t-54 27t-41 47
t-17 69.5q0 34 14 63t34.5 45t41 27t34.5 15z" />
    <glyph glyph-name="iogonek" unicode="&#x12f;" 
d="M135 70v755q0 15 13 29t28 14h119q15 0 28 -14t13 -29v-792q0 -13 -8 -23t-21 -10h-28q-25 0 -48 -5t-44 -22t-21 -43q0 -61 94 -61q23 0 33 2q10 0 17 -7t7 -16v-63q0 -21 -24 -25q-66 -4 -94 -4q-16 0 -37.5 3t-51.5 13.5t-54 27t-41 47t-17 69.5q0 34 14 63t34 45
t40.5 27t34.5 15zM119 1065q0 49 35 85t82 36q49 0 84.5 -35.5t35.5 -85.5q0 -47 -35.5 -82t-84.5 -35q-47 0 -82 35t-35 82z" />
    <glyph glyph-name="Idotaccent" unicode="&#x130;" 
d="M119 1407q0 49 35 85t82 36q49 0 84.5 -35.5t35.5 -85.5q0 -47 -35.5 -82t-84.5 -35q-47 0 -82 35t-35 82zM336 1143v-1100q0 -15 -13 -29t-28 -14h-119q-15 0 -28 14t-13 29v1100q0 15 13 29t28 14h119q15 0 28 -14t13 -29z" />
    <glyph glyph-name="dotlessi" unicode="&#x131;" 
d="M336 825v-782q0 -15 -13 -29t-28 -14h-119q-15 0 -28 14t-13 29v782q0 15 13 29t28 14h119q15 0 28 -14t13 -29z" />
    <glyph glyph-name="Jcircumflex" unicode="&#x134;" horiz-adv-x="909" 
d="M41 121q-8 11 -8 24q0 29 20 41l86 54q16 8 25 8q11 0 35 -12q89 -70 182 -70q51 0 92.5 18t64 45.5t34.5 54t12 48.5v811q0 15 13 29t28 14h118q15 0 28 -14t13 -29v-809q0 -157 -114.5 -257t-300.5 -100q-198 0 -328 144zM358 1634h217q28 0 50 -35l127 -253
q0 -22 -16.5 -39t-39.5 -17h-98q-13 0 -27 9.5t-20 23.5l-84 170l-84 -170q-6 -14 -20 -23.5t-27 -9.5h-98q-23 0 -39.5 17t-16.5 39l127 253q22 35 49 35z" />
    <glyph glyph-name="jcircumflex" unicode="&#x135;" 
d="M-55 -356q-17 0 -30 12t-13 27v108q0 17 12.5 29t28.5 12l32 -2q43 0 75 15t47.5 37t25 43.5t11.5 36.5l1 15v848q0 15 13 29t28 14h119q15 0 28 -14t13 -29v-850q0 -68 -14.5 -123t-35 -89t-51.5 -59t-56 -36.5t-57.5 -18t-46 -7t-30.5 -0.5q-69 0 -100 2zM127 1329h217
q27 0 49 -35l127 -254q0 -22 -16 -38.5t-39 -16.5h-98q-14 0 -28 10t-20 23l-83 170l-84 -170q-6 -13 -20 -23t-28 -10h-98q-23 0 -39 16.5t-16 38.5l127 254q22 35 49 35z" />
    <glyph glyph-name="uni0136" unicode="&#x136;" horiz-adv-x="1087" 
d="M541 604l524 -559q0 -17 -13 -31t-30 -14h-172q-20 0 -31 14l-485 514v-485q0 -15 -13 -29t-28 -14h-117q-15 0 -28 14t-13 29v1100q0 15 13 29t28 14h117q15 0 28 -14t13 -29v-471l438 499q12 15 31 15h166q17 0 30 -14t13 -31zM676 -147l-86 -179q-9 -22 -33 -22h-96
q-18 0 -28.5 11.5t-10.5 29.5l65 174q3 10 13 17t20 7h115q18 0 29.5 -11t11.5 -27z" />
    <glyph glyph-name="uni0137" unicode="&#x137;" horiz-adv-x="964" 
d="M549 444l375 -397q0 -19 -13 -33t-32 -14h-166q-18 0 -43 29l-334 352v-338q0 -15 -13 -29t-28 -14h-119q-15 0 -28 14t-13 29v1141q0 15 13 29t28 14h119q15 0 28 -14t13 -29v-682l301 338q24 28 43 28h162q19 0 32 -14t13 -33zM635 -147l-86 -179q-9 -22 -33 -22h-96
q-18 0 -28.5 11.5t-10.5 29.5l65 174q3 10 13 17t20 7h115q18 0 29.5 -11t11.5 -27z" />
    <glyph glyph-name="kgreenlandic" unicode="&#x138;" horiz-adv-x="964" 
d="M549 444l375 -397q0 -19 -13 -33t-32 -14h-166q-18 0 -43 29l-334 352v-338q0 -15 -13 -29t-28 -14h-119q-15 0 -28 14t-13 29v782q0 15 13 29t28 14h119q15 0 28 -14t13 -29v-323l301 338q24 28 43 28h162q19 0 32 -14t13 -33z" />
    <glyph glyph-name="Lacute" unicode="&#x139;" horiz-adv-x="991" 
d="M135 41v1102q0 15 13 29t28 14h119q15 0 28 -14t13 -29v-955h551q15 0 28 -11.5t13 -26.5v-109q0 -17 -12.5 -29t-28.5 -12h-711q-16 0 -28.5 12t-12.5 29zM481 1505l-127 -190q-14 -25 -37 -25h-106q-20 0 -32.5 13t-12.5 32l100 187q4 10 16 18t23 8h131
q20 0 32.5 -12.5t12.5 -30.5z" />
    <glyph glyph-name="lacute" unicode="&#x13a;" 
d="M336 1143v-1100q0 -15 -13 -29t-28 -14h-119q-15 0 -28 14t-13 29v1100q0 15 13 29t28 14h119q15 0 28 -14t13 -29zM475 1505l-127 -190q-14 -25 -37 -25h-106q-20 0 -32.5 13t-12.5 32l100 187q4 10 16 18t23 8h131q20 0 32.5 -12.5t12.5 -30.5z" />
    <glyph glyph-name="uni013B" unicode="&#x13b;" horiz-adv-x="991" 
d="M629 -147l-86 -179q-9 -22 -33 -22h-96q-18 0 -28.5 11.5t-10.5 29.5l65 174q3 10 13 17t20 7h115q18 0 29.5 -11t11.5 -27zM135 41v1102q0 15 13 29t28 14h119q15 0 28 -14t13 -29v-955h551q15 0 28 -11.5t13 -26.5v-109q0 -17 -12.5 -29t-28.5 -12h-711q-16 0 -28.5 12
t-12.5 29z" />
    <glyph glyph-name="uni013C" unicode="&#x13c;" 
d="M336 1143v-1100q0 -15 -13 -29t-28 -14h-119q-15 0 -28 14t-13 29v1100q0 15 13 29t28 14h119q15 0 28 -14t13 -29zM315 -147l-86 -179q-9 -22 -32 -22h-97q-18 0 -28.5 11.5t-10.5 29.5l66 174q3 10 13 17t20 7h114q18 0 29.5 -11t11.5 -27z" />
    <glyph glyph-name="Lcaron" unicode="&#x13d;" horiz-adv-x="991" 
d="M135 41v1102q0 15 13 29t28 14h119q15 0 28 -14t13 -29v-955h551q15 0 28 -11.5t13 -26.5v-109q0 -17 -12.5 -29t-28.5 -12h-711q-16 0 -28.5 12t-12.5 29zM883 1149l-99 -211q-12 -23 -30 -23h-119q-35 0 -35 39l92 209q12 23 35 23h119q18 0 27.5 -10.5t9.5 -26.5z" />
    <glyph glyph-name="lcaron" unicode="&#x13e;" horiz-adv-x="892" 
d="M336 1143v-1100q0 -15 -13 -29t-28 -14h-119q-15 0 -28 14t-13 29v1100q0 15 13 29t28 14h119q15 0 28 -14t13 -29zM877 1149l-99 -211q-12 -23 -30 -23h-119q-35 0 -35 39l92 209q12 23 35 23h119q18 0 27.5 -10.5t9.5 -26.5z" />
    <glyph glyph-name="Lslash" unicode="&#x141;" horiz-adv-x="1097" 
d="M588 618l-146 -30v-400h551q15 0 28 -11.5t13 -26.5v-109q0 -17 -12.5 -29t-28.5 -12h-710q-16 0 -28.5 12t-12.5 29v508l-144 -29q-15 0 -28 12t-13 27v98q0 17 12.5 29t28.5 12l144 29v416q0 15 13 29t28 14h118q15 0 28 -14t13 -29v-377l146 31q16 0 28.5 -12
t12.5 -29v-99q0 -14 -12.5 -25t-28.5 -14z" />
    <glyph glyph-name="lslash" unicode="&#x142;" horiz-adv-x="686" 
d="M588 618l-146 -30v-545q0 -15 -13 -29t-28 -14h-118q-15 0 -28 14t-13 29v506l-144 -29q-15 0 -28 12t-13 27v98q0 17 12.5 29t28.5 12l144 29v416q0 15 13 29t28 14h118q15 0 28 -14t13 -29v-377l146 31q16 0 28.5 -12t12.5 -29v-99q0 -14 -12.5 -25t-28.5 -14z" />
    <glyph glyph-name="Nacute" unicode="&#x143;" horiz-adv-x="1298" 
d="M961 18l-625 820v-795q0 -15 -13 -29t-28 -14h-119q-15 0 -28 14t-13 29v1100q0 15 13 29t28 14h135q20 0 31 -19l621 -819v795q0 15 13 29t28 14h118q15 0 28 -14t13 -29v-1100q0 -15 -13 -29t-28 -14h-131q-19 0 -30 18zM909 1505l-127 -190q-14 -25 -37 -25h-106
q-20 0 -32.5 13t-12.5 32l100 187q4 10 16 18t23 8h131q20 0 32.5 -12.5t12.5 -30.5z" />
    <glyph glyph-name="nacute" unicode="&#x144;" horiz-adv-x="1067" 
d="M752 43v442q0 217 -197 217q-47 0 -85.5 -17t-62 -42t-40 -56.5t-23.5 -58t-8 -49.5v-436q0 -15 -13 -29t-28 -14h-119q-15 0 -28 14t-13 29v782q0 15 13 29t28 14h119q15 0 28 -14t13 -29v-45q31 38 75.5 63.5t89 34t65 11t36.5 2.5q72 0 129.5 -18t93 -44t62 -62.5
t38.5 -66.5t18.5 -64.5t7.5 -47.5t1 -23v-522q0 -15 -13 -29t-28 -14h-118q-15 0 -28 14t-13 29zM780 1200l-127 -190q-14 -25 -37 -25h-106q-20 0 -32.5 13t-12.5 32l100 187q4 10 16 18t23 8h131q20 0 32.5 -12.5t12.5 -30.5z" />
    <glyph glyph-name="uni0145" unicode="&#x145;" horiz-adv-x="1298" 
d="M961 18l-625 820v-795q0 -15 -13 -29t-28 -14h-119q-15 0 -28 14t-13 29v1100q0 15 13 29t28 14h135q20 0 31 -19l621 -819v795q0 15 13 29t28 14h118q15 0 28 -14t13 -29v-1100q0 -15 -13 -29t-28 -14h-131q-19 0 -30 18zM754 -147l-86 -179q-9 -22 -33 -22h-96
q-18 0 -28.5 11.5t-10.5 29.5l65 174q3 10 13 17t20 7h115q18 0 29.5 -11t11.5 -27z" />
    <glyph glyph-name="uni0146" unicode="&#x146;" horiz-adv-x="1067" 
d="M752 43v442q0 217 -197 217q-47 0 -85.5 -17t-62 -42t-40 -56.5t-23.5 -58t-8 -49.5v-436q0 -15 -13 -29t-28 -14h-119q-15 0 -28 14t-13 29v782q0 15 13 29t28 14h119q15 0 28 -14t13 -29v-45q31 38 75.5 63.5t89 34t65 11t36.5 2.5q72 0 129.5 -18t93 -44t62 -62.5
t38.5 -66.5t18.5 -64.5t7.5 -47.5t1 -23v-522q0 -15 -13 -29t-28 -14h-118q-15 0 -28 14t-13 29zM643 -147l-86 -179q-9 -22 -33 -22h-96q-18 0 -28.5 11.5t-10.5 29.5l66 174q3 10 13 17t19 7h115q18 0 29.5 -11t11.5 -27z" />
    <glyph glyph-name="Ncaron" unicode="&#x147;" horiz-adv-x="1298" 
d="M961 18l-625 820v-795q0 -15 -13 -29t-28 -14h-119q-15 0 -28 14t-13 29v1100q0 15 13 29t28 14h135q20 0 31 -19l621 -819v795q0 15 13 29t28 14h118q15 0 28 -14t13 -29v-1100q0 -15 -13 -29t-28 -14h-131q-19 0 -30 18zM758 1290h-217q-27 0 -49 35l-127 254
q0 22 16 38.5t39 16.5h98q14 0 27.5 -9.5t19.5 -22.5l84 -170l84 170q6 13 19.5 22.5t27.5 9.5h99q23 0 39 -16.5t16 -38.5l-127 -254q-22 -35 -49 -35z" />
    <glyph glyph-name="ncaron" unicode="&#x148;" horiz-adv-x="1067" 
d="M752 43v442q0 217 -197 217q-47 0 -85.5 -17t-62 -42t-40 -56.5t-23.5 -58t-8 -49.5v-436q0 -15 -13 -29t-28 -14h-119q-15 0 -28 14t-13 29v782q0 15 13 29t28 14h119q15 0 28 -14t13 -29v-45q31 38 75.5 63.5t89 34t65 11t36.5 2.5q72 0 129.5 -18t93 -44t62 -62.5
t38.5 -66.5t18.5 -64.5t7.5 -47.5t1 -23v-522q0 -15 -13 -29t-28 -14h-118q-15 0 -28 14t-13 29zM680 985h-217q-27 0 -49 35l-127 254q0 22 16 38.5t39 16.5h98q13 0 27 -9.5t20 -23.5l84 -170l84 170q6 14 20 23.5t27 9.5h99q23 0 39 -16.5t16 -38.5l-127 -254
q-22 -35 -49 -35z" />
    <glyph glyph-name="Eng" unicode="&#x14a;" horiz-adv-x="1298" 
d="M772 -356q-17 0 -30 12t-13 27v108q0 17 12.5 29t28.5 12l33 -2q43 0 75 15t47.5 37t25 43.5t11.5 36.5l1 15v39l-627 822v-795q0 -15 -13 -29t-28 -14h-119q-15 0 -28 14t-13 29v1100q0 15 13 29t28 14h135q20 0 31 -19l621 -819v795q0 15 13 29t28 14h118q15 0 28 -14
t13 -29v-1168q0 -68 -14.5 -123t-35 -89t-51.5 -59t-56 -36.5t-57.5 -18t-46 -7t-30.5 -0.5q-69 0 -100 2z" />
    <glyph glyph-name="eng" unicode="&#x14b;" horiz-adv-x="1067" 
d="M561 -356q-17 0 -30 12t-13 27v108q0 17 12.5 29t28.5 12l33 -2q43 0 75 15t47.5 37t25 43.5t10.5 36.5l2 15v508q0 217 -197 217q-47 0 -85.5 -17t-62 -42t-40 -56.5t-23.5 -58t-8 -49.5v-436q0 -15 -13 -29t-28 -14h-119q-15 0 -28 14t-13 29v782q0 15 13 29t28 14h119
q15 0 28 -14t13 -29v-45q31 38 75.5 63.5t89 34t65 11t36.5 2.5q72 0 129.5 -18t93 -44t62 -62.5t38.5 -66.5t18.5 -64.5t7.5 -47.5t1 -23v-590q0 -68 -14.5 -123t-35 -89t-51.5 -59t-55.5 -36.5t-57 -18t-46 -7t-30.5 -0.5q-70 0 -101 2z" />
    <glyph glyph-name="Omacron" unicode="&#x14c;" horiz-adv-x="1482" 
d="M741 1206q129 0 245.5 -48.5t200 -130.5t132.5 -196t49 -239q0 -168 -83 -309t-227.5 -223.5t-316.5 -82.5t-316 82.5t-227 223.5t-83 309t83 309t227 223t316 82zM741 166q174 0 300 126t126 300q0 118 -58 216.5t-156 154t-212 55.5t-212 -55.5t-156 -154t-58 -216.5
q0 -174 126 -300t300 -126zM987 1290h-491q-14 0 -26.5 12t-12.5 27v105q0 15 12.5 27t26.5 12h491q14 0 26.5 -12t12.5 -27v-105q0 -15 -12.5 -27t-26.5 -12z" />
    <glyph glyph-name="omacron" unicode="&#x14d;" horiz-adv-x="1138" 
d="M569 891q131 0 240.5 -61.5t172 -166.5t62.5 -229t-62.5 -229t-172 -166.5t-240.5 -61.5t-240.5 61.5t-172 166.5t-62.5 229t62.5 229t172 166.5t240.5 61.5zM569 166q115 0 195 76t80 192t-80 192t-195 76t-194.5 -76t-79.5 -192t79.5 -192t194.5 -76zM813 985h-487
q-15 0 -28 12t-13 27v102q0 17 12.5 29t28.5 12h487q16 0 28.5 -12t12.5 -29v-102q0 -15 -13 -27t-28 -12z" />
    <glyph glyph-name="Ohungarumlaut" unicode="&#x150;" horiz-adv-x="1482" 
d="M741 1206q129 0 245.5 -48.5t200 -130.5t132.5 -196t49 -239q0 -168 -83 -309t-227.5 -223.5t-316.5 -82.5t-316 82.5t-227 223.5t-83 309t83 309t227 223t316 82zM741 166q174 0 300 126t126 300q0 118 -58 216.5t-156 154t-212 55.5t-212 -55.5t-156 -154t-58 -216.5
q0 -174 126 -300t300 -126zM760 1491l-80 -176q-14 -25 -37 -25h-98q-20 0 -31.5 13t-11.5 32l53 172q3 11 14.5 19t22.5 8h123q20 0 32.5 -12.5t12.5 -30.5zM1059 1491l-80 -176q-14 -25 -37 -25h-98q-20 0 -31.5 13t-11.5 32l53 172q3 11 14.5 19t22.5 8h123
q20 0 32.5 -12.5t12.5 -30.5z" />
    <glyph glyph-name="ohungarumlaut" unicode="&#x151;" horiz-adv-x="1138" 
d="M569 891q131 0 240.5 -61.5t172 -166.5t62.5 -229t-62.5 -229t-172 -166.5t-240.5 -61.5t-240.5 61.5t-172 166.5t-62.5 229t62.5 229t172 166.5t240.5 61.5zM569 166q115 0 195 76t80 192t-80 192t-195 76t-194.5 -76t-79.5 -192t79.5 -192t194.5 -76zM578 1186
l-80 -176q-14 -25 -37 -25h-99q-20 0 -31.5 13t-11.5 32l54 172q3 11 14.5 19t22.5 8h122q20 0 33 -12.5t13 -30.5zM877 1186l-80 -176q-14 -25 -37 -25h-98q-20 0 -32 13t-12 32l54 172q3 11 14.5 19t22.5 8h122q20 0 33 -12.5t13 -30.5z" />
    <glyph glyph-name="OE" unicode="&#x152;" horiz-adv-x="1857" 
d="M1161 188h553q15 0 28 -11.5t13 -26.5v-109q0 -17 -12.5 -29t-28.5 -12h-799q-90 -23 -172 -23q-172 0 -316.5 82.5t-228 224t-83.5 308.5t83.5 308.5t228 223.5t316.5 82q76 0 164 -20h807q16 0 28.5 -12t12.5 -29v-109q0 -15 -13 -27t-28 -12h-553v-323h508
q16 0 28.5 -12t12.5 -29v-109q0 -15 -13 -27t-28 -12h-508v-297zM743 166q123 0 218 59v731q-100 62 -218 62q-175 0 -301.5 -123.5t-126.5 -302.5q0 -174 127 -300t301 -126z" />
    <glyph glyph-name="oe" unicode="&#x153;" horiz-adv-x="1814" 
d="M1737 416v-25q0 -15 -13 -29t-28 -14h-652q20 -68 66 -111t93.5 -57t101.5 -14q94 2 186 37q4 2 12 2q26 0 41 -21l55 -78q9 -18 9 -28q0 -30 -29 -45q-144 -56 -276 -56q-114 0 -208.5 43.5t-156.5 122.5q-66 -77 -162.5 -121.5t-206.5 -44.5q-131 0 -240.5 61.5
t-172 166.5t-62.5 229t62.5 229t172 166.5t240.5 61.5q110 0 206.5 -45.5t162.5 -124.5q62 80 152 125t200 45q87 0 166 -31t142.5 -88.5t101 -150t37.5 -205.5zM569 166q115 0 195 76t80 192v10q-4 111 -84 184.5t-191 73.5q-115 0 -194.5 -76t-79.5 -192t79.5 -192
t194.5 -76zM1290 702q-80 0 -148.5 -46t-94.5 -136h487q-26 90 -95 136t-149 46z" />
    <glyph glyph-name="Racute" unicode="&#x154;" horiz-adv-x="1079" 
d="M336 997v-456h268q225 0 225 227q0 120 -61 174.5t-164 54.5h-268zM758 379l264 -338q0 -41 -41 -41h-131q-23 0 -31 14l-274 338h-209v-309q0 -15 -13 -29t-28 -14h-119q-15 0 -28 14t-13 29v1100q0 15 13 29t28 14h440q9 0 23.5 -1t57.5 -9.5t82.5 -23t87 -46.5t82 -74
t58 -111t23.5 -153q0 -89 -24.5 -159.5t-67 -115t-86 -71.5t-94.5 -43zM682 1505l-127 -190q-14 -25 -37 -25h-106q-20 0 -32.5 13t-12.5 32l100 187q4 10 16 18t23 8h131q20 0 32.5 -12.5t12.5 -30.5z" />
    <glyph glyph-name="racute" unicode="&#x155;" horiz-adv-x="763" 
d="M662 690h-9q-78 0 -141.5 -35.5t-100 -90t-56 -113.5t-19.5 -113v-295q0 -15 -13 -29t-28 -14h-119q-15 0 -28 14t-13 29v782q0 15 13 29t28 14h119q15 0 28 -14t13 -29v-96q104 150 301 150h25q15 0 27.5 -12t12.5 -29v-109q0 -15 -12.5 -27t-27.5 -12zM496 1200
l-127 -190q-14 -25 -37 -25h-107q-20 0 -32.5 13t-12.5 32l101 187q4 10 15.5 18t22.5 8h132q20 0 32.5 -12.5t12.5 -30.5z" />
    <glyph glyph-name="uni0156" unicode="&#x156;" horiz-adv-x="1079" 
d="M336 997v-456h268q225 0 225 227q0 120 -61 174.5t-164 54.5h-268zM758 379l264 -338q0 -41 -41 -41h-131q-23 0 -31 14l-274 338h-209v-309q0 -15 -13 -29t-28 -14h-119q-15 0 -28 14t-13 29v1100q0 15 13 29t28 14h440q9 0 23.5 -1t57.5 -9.5t82.5 -23t87 -46.5t82 -74
t58 -111t23.5 -153q0 -89 -24.5 -159.5t-67 -115t-86 -71.5t-94.5 -43zM649 -147l-86 -179q-9 -22 -33 -22h-96q-18 0 -28.5 11.5t-10.5 29.5l66 174q3 10 13 17t20 7h114q18 0 29.5 -11t11.5 -27z" />
    <glyph glyph-name="uni0157" unicode="&#x157;" horiz-adv-x="763" 
d="M662 690h-9q-78 0 -141.5 -35.5t-100 -90t-56 -113.5t-19.5 -113v-295q0 -15 -13 -29t-28 -14h-119q-15 0 -28 14t-13 29v782q0 15 13 29t28 14h119q15 0 28 -14t13 -29v-96q104 150 301 150h25q15 0 27.5 -12t12.5 -29v-109q0 -15 -12.5 -27t-27.5 -12zM410 -147
l-86 -179q-9 -22 -33 -22h-96q-18 0 -28.5 11.5t-10.5 29.5l65 174q3 10 13 17t20 7h115q18 0 29.5 -11t11.5 -27z" />
    <glyph glyph-name="Rcaron" unicode="&#x158;" horiz-adv-x="1079" 
d="M336 997v-456h268q225 0 225 227q0 120 -61 174.5t-164 54.5h-268zM758 379l264 -338q0 -41 -41 -41h-131q-23 0 -31 14l-274 338h-209v-309q0 -15 -13 -29t-28 -14h-119q-15 0 -28 14t-13 29v1100q0 15 13 29t28 14h440q9 0 23.5 -1t57.5 -9.5t82.5 -23t87 -46.5t82 -74
t58 -111t23.5 -153q0 -89 -24.5 -159.5t-67 -115t-86 -71.5t-94.5 -43zM631 1290h-217q-27 0 -49 35l-127 254q0 22 16 38.5t39 16.5h98q14 0 27.5 -9.5t19.5 -22.5l84 -170l84 170q6 13 19.5 22.5t27.5 9.5h99q23 0 39 -16.5t16 -38.5l-127 -254q-22 -35 -49 -35z" />
    <glyph glyph-name="rcaron" unicode="&#x159;" horiz-adv-x="763" 
d="M662 690h-9q-78 0 -141.5 -35.5t-100 -90t-56 -113.5t-19.5 -113v-295q0 -15 -13 -29t-28 -14h-119q-15 0 -28 14t-13 29v782q0 15 13 29t28 14h119q15 0 28 -14t13 -29v-96q104 150 301 150h25q15 0 27.5 -12t12.5 -29v-109q0 -15 -12.5 -27t-27.5 -12zM526 983h-211
q-25 0 -47 35l-123 246q0 20 16.5 36.5t37.5 16.5h96q12 0 25.5 -9.5t19.5 -21.5l80 -166l82 166q6 12 19.5 21.5t25.5 9.5h96q21 0 37 -16t16 -37l-123 -246q-22 -35 -47 -35z" />
    <glyph glyph-name="Sacute" unicode="&#x15a;" horiz-adv-x="1058" 
d="M891 1049q14 -17 14 -27q0 -23 -12 -31l-86 -61q-20 -12 -31 -12q-20 0 -33 16q-103 84 -258 84q-75 0 -135.5 -43.5t-60.5 -102.5q0 -54 37.5 -92.5t97 -62.5t131.5 -45t144 -48.5t131.5 -65t97 -102.5t37.5 -153q0 -37 -13 -78t-45.5 -86t-81 -80.5t-127.5 -58.5
t-176 -23q-274 0 -430 183q-10 20 -10 28q0 24 20 41l72 60q20 10 33 10q14 0 26 -12q50 -50 127.5 -85.5t171.5 -35.5q67 0 116.5 18.5t72.5 46t33 49.5t10 37q0 39 -29 70t-76.5 51t-108 42t-123.5 41.5t-123.5 52t-108 71.5t-76.5 101.5t-29 140.5q0 37 10.5 76t39 84
t72.5 79t118.5 57t169.5 23q255 0 391 -157zM748 1505l-127 -190q-14 -25 -37 -25h-107q-20 0 -32.5 13t-12.5 32l100 187q4 10 16 18t23 8h131q20 0 33 -12.5t13 -30.5z" />
    <glyph glyph-name="sacute" unicode="&#x15b;" horiz-adv-x="835" 
d="M676 799q18 -14 18 -37q0 -24 -14 -35l-66 -63q-14 -9 -30 -9q-11 0 -23 7q-78 47 -151 47q-33 0 -62 -6t-53.5 -26t-24.5 -52q0 -31 21.5 -52.5t57 -33.5t80.5 -24.5t92 -23t92 -31t80.5 -47.5t57 -73t21.5 -107q0 -43 -24 -87t-67.5 -82.5t-115 -62.5t-157.5 -24
q-117 0 -200.5 38.5t-133.5 95.5q-11 14 -11 24q0 22 17 35l72 47q20 8 30 8q19 0 27 -8q29 -26 74 -41t75 -16l31 -2q182 0 182 80q0 26 -21.5 45t-57 29.5t-80.5 23t-91.5 24t-91.5 33t-80.5 50t-57 76t-21.5 108.5q0 47 21.5 92.5t62 84.5t108 63t150.5 24q156 0 264 -92
zM627 1200l-127 -190q-14 -25 -37 -25h-107q-20 0 -32.5 13t-12.5 32l101 187q4 10 16 18t23 8h131q20 0 32.5 -12.5t12.5 -30.5z" />
    <glyph glyph-name="Scircumflex" unicode="&#x15c;" horiz-adv-x="1058" 
d="M891 1049q14 -17 14 -27q0 -23 -12 -31l-86 -61q-20 -12 -31 -12q-20 0 -33 16q-103 84 -258 84q-75 0 -135.5 -43.5t-60.5 -102.5q0 -54 37.5 -92.5t97 -62.5t131.5 -45t144 -48.5t131.5 -65t97 -102.5t37.5 -153q0 -37 -13 -78t-45.5 -86t-81 -80.5t-127.5 -58.5
t-176 -23q-274 0 -430 183q-10 20 -10 28q0 24 20 41l72 60q20 10 33 10q14 0 26 -12q50 -50 127.5 -85.5t171.5 -35.5q67 0 116.5 18.5t72.5 46t33 49.5t10 37q0 39 -29 70t-76.5 51t-108 42t-123.5 41.5t-123.5 52t-108 71.5t-76.5 101.5t-29 140.5q0 37 10.5 76t39 84
t72.5 79t118.5 57t169.5 23q255 0 391 -157zM385 1634h217q27 0 49 -35l127 -253q0 -22 -16 -39t-39 -17h-98q-13 0 -27 9.5t-20 23.5l-84 170l-84 -170q-6 -13 -20 -23t-28 -10h-98q-23 0 -39 17t-16 39l127 253q22 35 49 35z" />
    <glyph glyph-name="scircumflex" unicode="&#x15d;" horiz-adv-x="835" 
d="M676 799q18 -14 18 -37q0 -24 -14 -35l-66 -63q-14 -9 -30 -9q-11 0 -23 7q-78 47 -151 47q-33 0 -62 -6t-53.5 -26t-24.5 -52q0 -31 21.5 -52.5t57 -33.5t80.5 -24.5t92 -23t92 -31t80.5 -47.5t57 -73t21.5 -107q0 -43 -24 -87t-67.5 -82.5t-115 -62.5t-157.5 -24
q-117 0 -200.5 38.5t-133.5 95.5q-11 14 -11 24q0 22 17 35l72 47q20 8 30 8q19 0 27 -8q29 -26 74 -41t75 -16l31 -2q182 0 182 80q0 26 -21.5 45t-57 29.5t-80.5 23t-91.5 24t-91.5 33t-80.5 50t-57 76t-21.5 108.5q0 47 21.5 92.5t62 84.5t108 63t150.5 24q156 0 264 -92
zM317 1329h218q27 0 49 -35l127 -254q0 -22 -16.5 -38.5t-39.5 -16.5h-98q-13 0 -27 9.5t-20 23.5l-84 170l-84 -170q-6 -14 -20 -23.5t-27 -9.5h-98q-23 0 -39.5 16.5t-16.5 38.5l127 254q22 35 49 35z" />
    <glyph glyph-name="Scedilla" unicode="&#x15e;" horiz-adv-x="1058" 
d="M891 1049q14 -17 14 -27q0 -23 -12 -31l-86 -61q-20 -12 -31 -12q-20 0 -33 16q-103 84 -258 84q-75 0 -135.5 -43.5t-60.5 -102.5q0 -54 37.5 -92.5t97 -62.5t131.5 -45t144 -48.5t131.5 -65t97 -102.5t37.5 -153q0 -37 -13 -78t-45.5 -86t-81 -80.5t-127.5 -58.5
t-176 -23q-274 0 -430 183q-10 20 -10 28q0 24 20 41l72 60q20 10 33 10q14 0 26 -12q50 -50 127.5 -85.5t171.5 -35.5q67 0 116.5 18.5t72.5 46t33 49.5t10 37q0 39 -29 70t-76.5 51t-108 42t-123.5 41.5t-123.5 52t-108 71.5t-76.5 101.5t-29 140.5q0 37 10.5 76t39 84
t72.5 79t118.5 57t169.5 23q255 0 391 -157zM614 -147l-88 -179q-13 -22 -34 -22h-91q-18 0 -28.5 11.5t-10.5 29.5l64 174q3 10 13.5 17t21.5 7h112q18 0 29.5 -11t11.5 -27z" />
    <glyph glyph-name="scedilla" unicode="&#x15f;" horiz-adv-x="835" 
d="M676 799q18 -14 18 -37q0 -24 -14 -35l-66 -63q-14 -9 -30 -9q-11 0 -23 7q-78 47 -151 47q-33 0 -62 -6t-53.5 -26t-24.5 -52q0 -31 21.5 -52.5t57 -33.5t80.5 -24.5t92 -23t92 -31t80.5 -47.5t57 -73t21.5 -107q0 -43 -24 -87t-67.5 -82.5t-115 -62.5t-157.5 -24
q-117 0 -200.5 38.5t-133.5 95.5q-11 14 -11 24q0 22 17 35l72 47q20 8 30 8q19 0 27 -8q29 -26 74 -41t75 -16l31 -2q182 0 182 80q0 26 -21.5 45t-57 29.5t-80.5 23t-91.5 24t-91.5 33t-80.5 50t-57 76t-21.5 108.5q0 47 21.5 92.5t62 84.5t108 63t150.5 24q156 0 264 -92
zM510 -147l-86 -179q-9 -22 -33 -22h-96q-18 0 -28.5 11.5t-10.5 29.5l66 174q3 10 13 17t19 7h115q18 0 29.5 -11t11.5 -27z" />
    <glyph glyph-name="Scaron" unicode="&#x160;" horiz-adv-x="1058" 
d="M891 1049q14 -17 14 -27q0 -23 -12 -31l-86 -61q-20 -12 -31 -12q-20 0 -33 16q-103 84 -258 84q-75 0 -135.5 -43.5t-60.5 -102.5q0 -54 37.5 -92.5t97 -62.5t131.5 -45t144 -48.5t131.5 -65t97 -102.5t37.5 -153q0 -37 -13 -78t-45.5 -86t-81 -80.5t-127.5 -58.5
t-176 -23q-274 0 -430 183q-10 20 -10 28q0 24 20 41l72 60q20 10 33 10q14 0 26 -12q50 -50 127.5 -85.5t171.5 -35.5q67 0 116.5 18.5t72.5 46t33 49.5t10 37q0 39 -29 70t-76.5 51t-108 42t-123.5 41.5t-123.5 52t-108 71.5t-76.5 101.5t-29 140.5q0 37 10.5 76t39 84
t72.5 79t118.5 57t169.5 23q255 0 391 -157zM610 1290h-217q-27 0 -49 35l-127 254q0 22 16 38.5t39 16.5h99q14 0 27.5 -9.5t19.5 -22.5l84 -170l84 170q6 13 19.5 22.5t27.5 9.5h98q23 0 39 -16.5t16 -38.5l-127 -254q-22 -35 -49 -35z" />
    <glyph glyph-name="scaron" unicode="&#x161;" horiz-adv-x="835" 
d="M676 799q18 -14 18 -37q0 -24 -14 -35l-66 -63q-14 -9 -30 -9q-11 0 -23 7q-78 47 -151 47q-33 0 -62 -6t-53.5 -26t-24.5 -52q0 -31 21.5 -52.5t57 -33.5t80.5 -24.5t92 -23t92 -31t80.5 -47.5t57 -73t21.5 -107q0 -43 -24 -87t-67.5 -82.5t-115 -62.5t-157.5 -24
q-117 0 -200.5 38.5t-133.5 95.5q-11 14 -11 24q0 22 17 35l72 47q20 8 30 8q19 0 27 -8q29 -26 74 -41t75 -16l31 -2q182 0 182 80q0 26 -21.5 45t-57 29.5t-80.5 23t-91.5 24t-91.5 33t-80.5 50t-57 76t-21.5 108.5q0 47 21.5 92.5t62 84.5t108 63t150.5 24q156 0 264 -92
zM526 985h-217q-27 0 -49 35l-127 254q0 22 16 38.5t39 16.5h99q13 0 27 -9.5t20 -23.5l84 -170l84 170q6 14 20 23.5t27 9.5h98q23 0 39 -16.5t16 -38.5l-127 -254q-22 -35 -49 -35z" />
    <glyph glyph-name="uni0162" unicode="&#x162;" horiz-adv-x="1134" 
d="M467 997h-342q-15 0 -28 12t-13 27v109q0 17 12.5 29t28.5 12h885q16 0 28.5 -12t12.5 -29v-109q0 -15 -13 -27t-28 -12h-342v-954q0 -15 -13 -29t-28 -14h-119q-15 0 -28 14t-13 29v954zM649 -147l-86 -179q-9 -22 -33 -22h-96q-18 0 -28.5 11.5t-10.5 29.5l66 174
q3 10 13 17t20 7h114q18 0 29.5 -11t11.5 -27z" />
    <glyph glyph-name="uni0163" unicode="&#x163;" horiz-adv-x="780" 
d="M248 680h-146q-15 0 -28 12t-13 27v108q0 17 12.5 29t28.5 12h146v269q0 32 35 41l123 34q15 0 29 -15t14 -32v-297h196q16 0 28.5 -12t12.5 -29v-108q0 -15 -13 -27t-28 -12h-196v-350q0 -18 1 -31t9.5 -38t23.5 -41t47 -29t76 -13h39q14 0 26.5 -11t12.5 -26v-102
q0 -14 -11 -24.5t-26 -10.5q-54 -4 -108 -4q-17 0 -31 1t-46 7.5t-57 18t-56 36t-51.5 59t-35 89.5t-14.5 123v346zM565 -147l-86 -179q-9 -22 -33 -22h-96q-18 0 -28.5 11.5t-10.5 29.5l66 174q3 10 13 17t20 7h114q18 0 29.5 -11t11.5 -27z" />
    <glyph glyph-name="Tcaron" unicode="&#x164;" horiz-adv-x="1134" 
d="M467 997h-342q-15 0 -28 12t-13 27v109q0 17 12.5 29t28.5 12h885q16 0 28.5 -12t12.5 -29v-109q0 -15 -13 -27t-28 -12h-342v-954q0 -15 -13 -29t-28 -14h-119q-15 0 -28 14t-13 29v954zM676 1290h-217q-27 0 -49 35l-127 254q0 22 16 38.5t39 16.5h98q14 0 27.5 -9.5
t19.5 -22.5l84 -170l84 170q6 13 19.5 22.5t27.5 9.5h99q23 0 39 -16.5t16 -38.5l-127 -254q-22 -35 -49 -35z" />
    <glyph glyph-name="tcaron" unicode="&#x165;" horiz-adv-x="1046" 
d="M248 680h-146q-15 0 -28 12t-13 27v108q0 17 12.5 29t28.5 12h146v269q0 32 35 41l123 34q15 0 29 -15t14 -32v-297h196q16 0 28.5 -12t12.5 -29v-108q0 -15 -13 -27t-28 -12h-196v-350q0 -18 1 -31t9.5 -38t23.5 -41t47 -29t76 -13h39q14 0 26.5 -11t12.5 -26v-102
q0 -14 -11 -24.5t-26 -10.5q-54 -4 -108 -4q-17 0 -31 1t-46 7.5t-57 18t-56 36t-51.5 59t-35 89.5t-14.5 123v346zM1030 1182l-78 -172q-14 -25 -37 -25h-106q-20 0 -32.5 13t-12.5 32l51 168q4 10 16 18.5t23 8.5h131q20 0 32.5 -12.5t12.5 -30.5z" />
    <glyph glyph-name="Tbar" unicode="&#x166;" horiz-adv-x="1134" 
d="M864 432h-196v-389q0 -15 -13 -29t-28 -14h-119q-15 0 -28 14t-13 29v389h-197q-15 0 -28 12t-13 27v109q0 17 12.5 29t28.5 12h197v376h-342q-15 0 -28 12t-13 27v109q0 17 12.5 29t28.5 12h885q16 0 28.5 -12t12.5 -29v-109q0 -15 -13 -27t-28 -12h-342v-376h196
q16 0 28.5 -12t12.5 -29v-109q0 -15 -13 -27t-28 -12z" />
    <glyph glyph-name="tbar" unicode="&#x167;" horiz-adv-x="780" 
d="M102 598h146v225h-146q-15 0 -28 12t-13 27v109q0 17 12.5 29t28.5 12h146v125q0 32 35 41l123 34q15 0 29 -15t14 -32v-153h196q16 0 28.5 -12t12.5 -29v-109q0 -15 -13 -27t-28 -12h-196v-225h196q16 0 28.5 -12t12.5 -29v-108q0 -15 -13 -27t-28 -12h-196v-80
q0 -18 1 -31t9.5 -38t23.5 -41t47 -29t76 -13h39q14 0 26.5 -11t12.5 -26v-102q0 -14 -11 -24.5t-26 -10.5q-54 -4 -108 -4q-17 0 -31 1t-46 7.5t-57 18t-56 36t-51.5 59t-35 89.5t-14.5 123v76h-146q-15 0 -28 12t-13 27v108q0 17 12.5 29t28.5 12z" />
    <glyph glyph-name="Utilde" unicode="&#x168;" horiz-adv-x="1212" 
d="M606 -23q-10 0 -27.5 1t-67.5 10.5t-95.5 26t-101.5 53t-96 85.5t-67.5 128.5t-27.5 177.5v684q0 15 13 29t28 14h117q15 0 28 -14t13 -29v-684q0 -14 1.5 -30.5t7.5 -47t17 -57t32.5 -57t50 -52t74 -35.5t101.5 -14q49 0 90 10.5t69.5 29t50.5 41t35 49.5t21.5 50.5
t12.5 48t5 38.5t1 26v684q0 15 13 29t28 14h117q15 0 28 -14t13 -29v-684q0 -77 -16.5 -143t-44.5 -112t-64.5 -83.5t-76.5 -60.5t-80 -40t-76.5 -25t-64.5 -12.5t-45 -4.5zM778 1290q-52 2 -157 48t-146 46q-40 0 -58.5 -15.5t-21.5 -55.5q-6 -23 -33 -23h-86
q-17 0 -26.5 10.5t-9.5 28.5q6 63 25 108.5t40 67.5t50 34.5t45 14.5t34 2q60 0 118.5 -23.5t105.5 -47t79 -23.5q39 0 58 16t22 56q5 22 33 22h86q17 0 27 -10.5t10 -27.5q-6 -63 -25 -108.5t-40.5 -67.5t-50.5 -35t-45 -15t-34 -2z" />
    <glyph glyph-name="utilde" unicode="&#x169;" horiz-adv-x="1069" 
d="M535 -23q-78 0 -142 18t-105.5 45.5t-73 66.5t-48 76t-26.5 80t-12.5 71.5t-2.5 56.5v434q0 15 13 29t28 14h119q15 0 28 -14t13 -29v-442q0 -23 3.5 -47t16.5 -56t34.5 -56t61.5 -41t93 -17t93 17t61 41t34 56t16.5 56t3.5 47v442q0 15 13 29t28 14h119q15 0 28 -14
t13 -29v-434q0 -28 -2.5 -56.5t-12.5 -71.5t-26.5 -80t-47.5 -76t-72.5 -66.5t-105.5 -45.5t-142 -18zM711 985q-52 2 -157 48t-146 46q-40 0 -58.5 -15.5t-21.5 -55.5q-6 -23 -33 -23h-86q-17 0 -27 11t-10 28q6 63 25 108.5t40.5 67.5t50.5 34.5t45 14.5t34 2
q60 0 118.5 -23.5t105.5 -47t79 -23.5q39 0 58 16t22 56q6 22 32 22h86q17 0 27 -11t10 -28q-6 -63 -25 -108.5t-40 -67.5t-50 -34.5t-45 -14.5t-34 -2z" />
    <glyph glyph-name="Umacron" unicode="&#x16a;" horiz-adv-x="1212" 
d="M606 -23q-10 0 -27.5 1t-67.5 10.5t-95.5 26t-101.5 53t-96 85.5t-67.5 128.5t-27.5 177.5v684q0 15 13 29t28 14h117q15 0 28 -14t13 -29v-684q0 -14 1.5 -30.5t7.5 -47t17 -57t32.5 -57t50 -52t74 -35.5t101.5 -14q49 0 90 10.5t69.5 29t50.5 41t35 49.5t21.5 50.5
t12.5 48t5 38.5t1 26v684q0 15 13 29t28 14h117q15 0 28 -14t13 -29v-684q0 -77 -16.5 -143t-44.5 -112t-64.5 -83.5t-76.5 -60.5t-80 -40t-76.5 -25t-64.5 -12.5t-45 -4.5zM852 1290h-487q-15 0 -28 12t-13 27v103q0 17 12.5 29t28.5 12h487q16 0 28.5 -12t12.5 -29v-103
q0 -15 -13 -27t-28 -12z" />
    <glyph glyph-name="umacron" unicode="&#x16b;" horiz-adv-x="1069" 
d="M535 -23q-78 0 -142 18t-105.5 45.5t-73 66.5t-48 76t-26.5 80t-12.5 71.5t-2.5 56.5v434q0 15 13 29t28 14h119q15 0 28 -14t13 -29v-442q0 -23 3.5 -47t16.5 -56t34.5 -56t61.5 -41t93 -17t93 17t61 41t34 56t16.5 56t3.5 47v442q0 15 13 29t28 14h119q15 0 28 -14
t13 -29v-434q0 -28 -2.5 -56.5t-12.5 -71.5t-26.5 -80t-47.5 -76t-72.5 -66.5t-105.5 -45.5t-142 -18zM782 985h-489q-15 0 -28 12t-13 27v102q0 17 12.5 29t28.5 12h489q16 0 28.5 -12t12.5 -29v-102q0 -15 -13 -27t-28 -12z" />
    <glyph glyph-name="Ubreve" unicode="&#x16c;" horiz-adv-x="1212" 
d="M606 -23q-10 0 -27.5 1t-67.5 10.5t-95.5 26t-101.5 53t-96 85.5t-67.5 128.5t-27.5 177.5v684q0 15 13 29t28 14h117q15 0 28 -14t13 -29v-684q0 -14 1.5 -30.5t7.5 -47t17 -57t32.5 -57t50 -52t74 -35.5t101.5 -14q49 0 90 10.5t69.5 29t50.5 41t35 49.5t21.5 50.5
t12.5 48t5 38.5t1 26v684q0 15 13 29t28 14h117q15 0 28 -14t13 -29v-684q0 -77 -16.5 -143t-44.5 -112t-64.5 -83.5t-76.5 -60.5t-80 -40t-76.5 -25t-64.5 -12.5t-45 -4.5zM606 1290q-154 0 -252 68.5t-123 195.5q0 14 13 27.5t26 13.5h117q10 0 21 -8.5t16 -19.5
q36 -113 182 -113t182 113q5 11 16 19.5t21 8.5h117q13 0 26 -13.5t13 -27.5q-25 -127 -123 -195.5t-252 -68.5z" />
    <glyph glyph-name="ubreve" unicode="&#x16d;" horiz-adv-x="1069" 
d="M535 -23q-78 0 -142 18t-105.5 45.5t-73 66.5t-48 76t-26.5 80t-12.5 71.5t-2.5 56.5v434q0 15 13 29t28 14h119q15 0 28 -14t13 -29v-442q0 -23 3.5 -47t16.5 -56t34.5 -56t61.5 -41t93 -17t93 17t61 41t34 56t16.5 56t3.5 47v442q0 15 13 29t28 14h119q15 0 28 -14
t13 -29v-434q0 -28 -2.5 -56.5t-12.5 -71.5t-26.5 -80t-47.5 -76t-72.5 -66.5t-105.5 -45.5t-142 -18zM537 985q-154 0 -252 68.5t-123 195.5q0 14 13 27.5t26 13.5h116q10 0 21 -8.5t16 -19.5q36 -113 183 -113q146 0 182 113q5 11 16 19.5t21 8.5h116q13 0 26 -13.5
t13 -27.5q-25 -127 -122.5 -195.5t-251.5 -68.5z" />
    <glyph glyph-name="Uring" unicode="&#x16e;" horiz-adv-x="1212" 
d="M606 -23q-10 0 -27.5 1t-67.5 10.5t-95.5 26t-101.5 53t-96 85.5t-67.5 128.5t-27.5 177.5v684q0 15 13 29t28 14h117q15 0 28 -14t13 -29v-684q0 -14 1.5 -30.5t7.5 -47t17 -57t32.5 -57t50 -52t74 -35.5t101.5 -14q49 0 90 10.5t69.5 29t50.5 41t35 49.5t21.5 50.5
t12.5 48t5 38.5t1 26v684q0 15 13 29t28 14h117q15 0 28 -14t13 -29v-684q0 -77 -16.5 -143t-44.5 -112t-64.5 -83.5t-76.5 -60.5t-80 -40t-76.5 -25t-64.5 -12.5t-45 -4.5zM606 1792q104 0 178 -73t74 -177t-74 -178t-178 -74t-178 74t-74 178t74 177t178 73zM606 1436
q43 0 74 31.5t31 74.5t-31 74t-74 31q-44 0 -75 -31t-31 -74t31 -74.5t75 -31.5z" />
    <glyph glyph-name="uring" unicode="&#x16f;" horiz-adv-x="1069" 
d="M535 -23q-78 0 -142 18t-105.5 45.5t-73 66.5t-48 76t-26.5 80t-12.5 71.5t-2.5 56.5v434q0 15 13 29t28 14h119q15 0 28 -14t13 -29v-442q0 -23 3.5 -47t16.5 -56t34.5 -56t61.5 -41t93 -17t93 17t61 41t34 56t16.5 56t3.5 47v442q0 15 13 29t28 14h119q15 0 28 -14
t13 -29v-434q0 -28 -2.5 -56.5t-12.5 -71.5t-26.5 -80t-47.5 -76t-72.5 -66.5t-105.5 -45.5t-142 -18zM535 1487q104 0 177.5 -73t73.5 -177t-73.5 -178t-177.5 -74t-178 74t-74 178t74 177t178 73zM535 1130q42 0 73 32t31 75t-30.5 73.5t-73.5 30.5q-44 0 -75.5 -30.5
t-31.5 -73.5t31.5 -75t75.5 -32z" />
    <glyph glyph-name="Uhungarumlaut" unicode="&#x170;" horiz-adv-x="1212" 
d="M606 -23q-10 0 -27.5 1t-67.5 10.5t-95.5 26t-101.5 53t-96 85.5t-67.5 128.5t-27.5 177.5v684q0 15 13 29t28 14h117q15 0 28 -14t13 -29v-684q0 -14 1.5 -30.5t7.5 -47t17 -57t32.5 -57t50 -52t74 -35.5t101.5 -14q49 0 90 10.5t69.5 29t50.5 41t35 49.5t21.5 50.5
t12.5 48t5 38.5t1 26v684q0 15 13 29t28 14h117q15 0 28 -14t13 -29v-684q0 -77 -16.5 -143t-44.5 -112t-64.5 -83.5t-76.5 -60.5t-80 -40t-76.5 -25t-64.5 -12.5t-45 -4.5zM639 1491l-80 -176q-14 -25 -37 -25h-98q-20 0 -31.5 13t-11.5 32l53 172q3 11 14.5 19t22.5 8h123
q20 0 32.5 -12.5t12.5 -30.5zM938 1491l-80 -176q-14 -25 -37 -25h-98q-20 0 -31.5 13t-11.5 32l53 172q3 11 14.5 19t22.5 8h123q20 0 32.5 -12.5t12.5 -30.5z" />
    <glyph glyph-name="uhungarumlaut" unicode="&#x171;" horiz-adv-x="1069" 
d="M535 -23q-78 0 -142 18t-105.5 45.5t-73 66.5t-48 76t-26.5 80t-12.5 71.5t-2.5 56.5v434q0 15 13 29t28 14h119q15 0 28 -14t13 -29v-442q0 -23 3.5 -47t16.5 -56t34.5 -56t61.5 -41t93 -17t93 17t61 41t34 56t16.5 56t3.5 47v442q0 15 13 29t28 14h119q15 0 28 -14
t13 -29v-434q0 -28 -2.5 -56.5t-12.5 -71.5t-26.5 -80t-47.5 -76t-72.5 -66.5t-105.5 -45.5t-142 -18zM563 1186l-80 -176q-14 -25 -37 -25h-98q-20 0 -31.5 13t-11.5 32l53 172q3 11 14.5 19t22.5 8h123q20 0 32.5 -12.5t12.5 -30.5zM862 1186l-80 -176q-14 -25 -37 -25
h-98q-20 0 -31.5 13t-11.5 32l53 172q3 11 14.5 19t22.5 8h123q20 0 32.5 -12.5t12.5 -30.5z" />
    <glyph glyph-name="Uogonek" unicode="&#x172;" horiz-adv-x="1214" 
d="M1051 1186q14 0 27.5 -14t13.5 -29v-684q0 -105 -31 -188t-75.5 -132t-105.5 -84t-108 -49.5t-96 -21.5v-115q0 -25 -29 -29l-22 -4q-7 -1 -17 -4t-26.5 -18.5t-16.5 -38.5q0 -62 92 -62q23 0 33 2q10 0 17.5 -6.5t7.5 -15.5v-64q0 -20 -25 -24q-66 -4 -92 -4
q-23 0 -51.5 6t-65.5 21t-61.5 49.5t-24.5 82.5q0 34 14 63t34.5 45t40.5 27t34 15l14 4v72q-33 5 -65.5 13.5t-74.5 26t-78 41t-72 61t-61.5 83t-41.5 109.5t-16 139v684q0 15 13.5 29t27.5 14h117q15 0 28 -14t13 -29v-684q0 -14 1.5 -30.5t7.5 -47t17 -57t32.5 -57
t50 -52t74 -35.5t101.5 -14q77 0 134 27t85 62.5t45 82t20 73t3 48.5v684q0 15 12 29t27 14h119z" />
    <glyph glyph-name="uogonek" unicode="&#x173;" horiz-adv-x="1069" 
d="M621 -395q-66 -4 -95 -4q-22 0 -50.5 6t-65 21t-60.5 49.5t-24 82.5q0 34 14 63t34 45t40.5 27t34.5 15l14 4v68q-64 7 -116.5 28.5t-87 50t-60 66t-39.5 72t-22.5 74t-10.5 66t-2 52.5v434q0 15 13 29t28 14h119q15 0 28 -14t13 -29v-442q0 -23 3.5 -47t16.5 -56
t34.5 -56t61.5 -41t93 -17t93 17t61 41t34 56t16.5 56t3.5 47v442q0 15 13 29t28 14h119q15 0 28 -14t13 -29v-434q0 -26 -2 -52.5t-10.5 -66t-22.5 -74t-39.5 -72t-60 -66t-87 -50t-116.5 -28.5v-113q0 -25 -28 -29l-23 -4q-7 -1 -17 -4t-27 -18.5t-17 -38.5q0 -62 94 -62
q23 0 33 2q10 0 17 -6.5t7 -15.5v-64q0 -20 -24 -24z" />
    <glyph glyph-name="Ydieresis" unicode="&#x178;" horiz-adv-x="1105" 
d="M453 43v356l-404 742q0 19 12 32t31 13h137q25 0 39 -29l285 -526l285 526q14 29 39 29h137q19 0 31 -13t12 -32l-404 -742v-356q0 -15 -13 -29t-28 -14h-118q-15 0 -28 14t-13 29zM252 1413q0 51 36 87t87 36q52 0 88.5 -36t36.5 -87q0 -52 -36 -87.5t-89 -35.5
q-51 0 -87 35.5t-36 87.5zM614 1413q0 51 36.5 87t88.5 36q51 0 87 -36t36 -87q0 -52 -36 -87.5t-87 -35.5q-53 0 -89 35.5t-36 87.5z" />
    <glyph glyph-name="Zacute" unicode="&#x179;" horiz-adv-x="1060" 
d="M332 188h604q15 0 28 -11.5t13 -26.5v-109q0 -17 -12.5 -29t-28.5 -12h-811q-16 0 -28.5 12t-12.5 29v141q0 12 12 27l609 788h-560q-15 0 -28 12t-13 27v109q0 17 12.5 29t28.5 12h770q16 0 28.5 -12t12.5 -29v-141q0 -12 -12 -27zM756 1505l-127 -190q-14 -25 -37 -25
h-107q-20 0 -32.5 13t-12.5 32l101 187q4 10 16 18t23 8h131q20 0 32.5 -12.5t12.5 -30.5z" />
    <glyph glyph-name="zacute" unicode="&#x17a;" horiz-adv-x="917" 
d="M354 188h420q15 0 28 -11.5t13 -26.5v-109q0 -17 -12.5 -29t-28.5 -12h-631q-16 0 -28.5 12t-12.5 29v143q0 11 13 27l446 469h-418q-15 0 -28 12t-13 27v108q0 17 12.5 29t28.5 12h631q16 0 28.5 -12t12.5 -29v-141q0 -12 -12 -27zM684 1200l-127 -190q-14 -25 -37 -25
h-106q-20 0 -32.5 13t-12.5 32l100 187q4 10 16 18t23 8h131q20 0 32.5 -12.5t12.5 -30.5z" />
    <glyph glyph-name="Zdotaccent" unicode="&#x17b;" horiz-adv-x="1060" 
d="M332 188h604q15 0 28 -11.5t13 -26.5v-109q0 -17 -12.5 -29t-28.5 -12h-811q-16 0 -28.5 12t-12.5 29v141q0 12 12 27l609 788h-560q-15 0 -28 12t-13 27v109q0 17 12.5 29t28.5 12h770q16 0 28.5 -12t12.5 -29v-141q0 -12 -12 -27zM397 1413q0 51 36.5 87t88.5 36
q51 0 87 -36t36 -87q0 -52 -36 -87.5t-87 -35.5q-53 0 -89 35.5t-36 87.5z" />
    <glyph glyph-name="zdotaccent" unicode="&#x17c;" horiz-adv-x="917" 
d="M354 188h420q15 0 28 -11.5t13 -26.5v-109q0 -17 -12.5 -29t-28.5 -12h-631q-16 0 -28.5 12t-12.5 29v143q0 11 13 27l446 469h-418q-15 0 -28 12t-13 27v108q0 17 12.5 29t28.5 12h631q16 0 28.5 -12t12.5 -29v-141q0 -12 -12 -27zM334 1108q0 51 36.5 87t88.5 36
q51 0 87 -36t36 -87q0 -52 -36 -87.5t-87 -35.5q-53 0 -89 35.5t-36 87.5z" />
    <glyph glyph-name="Zcaron" unicode="&#x17d;" horiz-adv-x="1060" 
d="M332 188h604q15 0 28 -11.5t13 -26.5v-109q0 -17 -12.5 -29t-28.5 -12h-811q-16 0 -28.5 12t-12.5 29v141q0 12 12 27l609 788h-560q-15 0 -28 12t-13 27v109q0 17 12.5 29t28.5 12h770q16 0 28.5 -12t12.5 -29v-141q0 -12 -12 -27zM639 1290h-217q-27 0 -49 35l-127 254
q0 22 16 38.5t39 16.5h98q14 0 27.5 -9.5t19.5 -22.5l84 -170l84 170q6 13 20 22.5t28 9.5h98q23 0 39 -16.5t16 -38.5l-127 -254q-22 -35 -49 -35z" />
    <glyph glyph-name="zcaron" unicode="&#x17e;" horiz-adv-x="917" 
d="M354 188h420q15 0 28 -11.5t13 -26.5v-109q0 -17 -12.5 -29t-28.5 -12h-631q-16 0 -28.5 12t-12.5 29v143q0 11 13 27l446 469h-418q-15 0 -28 12t-13 27v108q0 17 12.5 29t28.5 12h631q16 0 28.5 -12t12.5 -29v-141q0 -12 -12 -27zM565 985h-217q-27 0 -49 35l-127 254
q0 22 16 38.5t39 16.5h99q13 0 27 -9.5t20 -23.5l84 -170l84 170q6 14 20 23.5t27 9.5h98q23 0 39 -16.5t16 -38.5l-127 -254q-22 -35 -49 -35z" />
    <glyph glyph-name="florin" unicode="&#x192;" horiz-adv-x="770" 
d="M680 1075h-18q-76 0 -134 -45.5t-71 -118.5l-8 -43h192q15 0 28 -12t13 -27l-20 -108q-3 -17 -14.5 -29t-26.5 -12h-201l-172 -1030q-2 -9 -12.5 -17t-22.5 -8h-131q-13 0 -24 11.5t-11 25.5l168 1018h-121q-15 0 -28 12t-13 27l13 108q3 18 14 29.5t26 11.5h142l8 56
q11 67 34.5 122t51.5 89.5t64 60.5t66 39t62.5 20.5t49.5 9t32 1.5q57 0 84 -2q15 0 28 -12t13 -27l-20 -109q-3 -17 -14.5 -29t-26.5 -12z" />
    <glyph glyph-name="uni0218" unicode="&#x218;" horiz-adv-x="1058" 
d="M891 1049q14 -17 14 -27q0 -23 -12 -31l-86 -61q-20 -12 -31 -12q-20 0 -33 16q-103 84 -258 84q-75 0 -135.5 -43.5t-60.5 -102.5q0 -54 37.5 -92.5t97 -62.5t131.5 -45t144 -48.5t131.5 -65t97 -102.5t37.5 -153q0 -37 -13 -78t-45.5 -86t-81 -80.5t-127.5 -58.5
t-176 -23q-274 0 -430 183q-10 20 -10 28q0 24 20 41l72 60q20 10 33 10q14 0 26 -12q50 -50 127.5 -85.5t171.5 -35.5q67 0 116.5 18.5t72.5 46t33 49.5t10 37q0 39 -29 70t-76.5 51t-108 42t-123.5 41.5t-123.5 52t-108 71.5t-76.5 101.5t-29 140.5q0 37 10.5 76t39 84
t72.5 79t118.5 57t169.5 23q255 0 391 -157zM623 -147l-86 -179q-9 -22 -33 -22h-96q-18 0 -28.5 11.5t-10.5 29.5l65 174q3 10 13 17t20 7h115q18 0 29.5 -11t11.5 -27z" />
    <glyph glyph-name="uni0219" unicode="&#x219;" horiz-adv-x="835" 
d="M676 799q18 -14 18 -37q0 -24 -14 -35l-66 -63q-14 -9 -30 -9q-11 0 -23 7q-78 47 -151 47q-33 0 -62 -6t-53.5 -26t-24.5 -52q0 -31 21.5 -52.5t57 -33.5t80.5 -24.5t92 -23t92 -31t80.5 -47.5t57 -73t21.5 -107q0 -43 -24 -87t-67.5 -82.5t-115 -62.5t-157.5 -24
q-117 0 -200.5 38.5t-133.5 95.5q-11 14 -11 24q0 22 17 35l72 47q20 8 30 8q19 0 27 -8q29 -26 74 -41t75 -16l31 -2q182 0 182 80q0 26 -21.5 45t-57 29.5t-80.5 23t-91.5 24t-91.5 33t-80.5 50t-57 76t-21.5 108.5q0 47 21.5 92.5t62 84.5t108 63t150.5 24q156 0 264 -92
zM518 -147l-86 -179q-9 -22 -33 -22h-96q-18 0 -28.5 11.5t-10.5 29.5l66 174q3 10 13 17t19 7h115q18 0 29.5 -11t11.5 -27z" />
    <glyph glyph-name="uni021A" unicode="&#x21a;" horiz-adv-x="1134" 
d="M467 997h-342q-15 0 -28 12t-13 27v109q0 17 12.5 29t28.5 12h885q16 0 28.5 -12t12.5 -29v-109q0 -15 -13 -27t-28 -12h-342v-954q0 -15 -13 -29t-28 -14h-119q-15 0 -28 14t-13 29v954zM645 -147l-86 -179q-9 -22 -33 -22h-96q-18 0 -28.5 11.5t-10.5 29.5l66 174
q3 10 13 17t19 7h115q18 0 29.5 -11t11.5 -27z" />
    <glyph glyph-name="uni021B" unicode="&#x21b;" horiz-adv-x="780" 
d="M248 680h-146q-15 0 -28 12t-13 27v108q0 17 12.5 29t28.5 12h146v269q0 32 35 41l123 34q15 0 29 -15t14 -32v-297h196q16 0 28.5 -12t12.5 -29v-108q0 -15 -13 -27t-28 -12h-196v-350q0 -18 1 -31t9.5 -38t23.5 -41t47 -29t76 -13h39q14 0 26.5 -11t12.5 -26v-102
q0 -14 -11 -24.5t-26 -10.5q-54 -4 -108 -4q-17 0 -31 1t-46 7.5t-57 18t-56 36t-51.5 59t-35 89.5t-14.5 123v346zM584 -147l-86 -179q-9 -22 -33 -22h-96q-18 0 -28.5 11.5t-10.5 29.5l65 174q3 10 13 17t20 7h115q18 0 29.5 -11t11.5 -27z" />
    <glyph glyph-name="circumflex" unicode="&#x2c6;" horiz-adv-x="839" 
d="M311 1186h217q28 0 50 -35l127 -254q0 -22 -16.5 -38.5t-39.5 -16.5h-98q-14 0 -27.5 9.5t-19.5 22.5l-84 170l-84 -170q-6 -13 -19.5 -22.5t-27.5 -9.5h-99q-23 0 -39 16.5t-16 38.5l127 254q22 35 49 35z" />
    <glyph glyph-name="caron" unicode="&#x2c7;" horiz-adv-x="839" 
d="M528 842h-217q-27 0 -49 35l-127 253q0 22 16 39t39 17h99q13 0 27 -9.5t20 -23.5l84 -170l84 170q6 14 20 23.5t27 9.5h98q23 0 39.5 -17t16.5 -39l-127 -253q-22 -35 -50 -35z" />
    <glyph glyph-name="breve" unicode="&#x2d8;" horiz-adv-x="1019" 
d="M510 881q-154 0 -252 68.5t-123 195.5q0 14 13 27.5t26 13.5h117q10 0 21 -9t16 -20q36 -113 182 -113t182 113q5 11 16 20t21 9h117q13 0 26 -13.5t13 -27.5q-25 -127 -123 -195.5t-252 -68.5z" />
    <glyph glyph-name="dotaccent" unicode="&#x2d9;" horiz-adv-x="507" 
d="M135 1065q0 49 35 85t82 36q50 0 85.5 -36t35.5 -85q0 -47 -36 -82t-85 -35q-47 0 -82 35t-35 82z" />
    <glyph glyph-name="ring" unicode="&#x2da;" horiz-adv-x="774" 
d="M387 1186q104 0 178 -73t74 -177t-74 -178t-178 -74t-178 74t-74 178t74 177t178 73zM387 829q43 0 74 32t31 75t-31 73.5t-74 30.5q-44 0 -75 -30.5t-31 -73.5t31 -75t75 -32z" />
    <glyph glyph-name="ogonek" unicode="&#x2db;" horiz-adv-x="589" 
d="M430 -395q-66 -4 -94 -4q-22 0 -50.5 6t-65 21t-61 49.5t-24.5 82.5q0 34 14 63t34 45t40.5 27t34.5 15l14 4v72q0 10 8 18t19 8h90q11 0 19 -8t8 -18v-117q0 -25 -29 -29l-22 -4q-7 -1 -17.5 -4t-27.5 -18.5t-17 -38.5q0 -62 94 -62q23 0 33 2q10 0 17.5 -6.5t7.5 -15.5
v-64q0 -20 -25 -24z" />
    <glyph glyph-name="tilde" unicode="&#x2dc;" horiz-adv-x="1003" 
d="M674 920q-52 2 -157 48t-146 46q-39 0 -58 -16t-22 -56q-5 -22 -33 -22h-86q-17 0 -27 10.5t-10 27.5q6 63 25 108.5t40.5 67.5t50.5 35t45 15t34 2q60 0 118.5 -23.5t105.5 -47t79 -23.5q40 0 58.5 15.5t21.5 55.5q6 23 32 23h86q17 0 27 -11t10 -28q-6 -63 -25 -108.5
t-40 -67.5t-50 -34.5t-45 -14.5t-34 -2z" />
    <glyph glyph-name="hungarumlaut" unicode="&#x2dd;" horiz-adv-x="827" 
d="M393 1143l-80 -176q-14 -25 -37 -25h-98q-20 0 -31.5 13t-11.5 32l53 172q3 11 14.5 19t22.5 8h123q20 0 32.5 -12.5t12.5 -30.5zM692 1143l-80 -176q-14 -25 -37 -25h-98q-20 0 -31.5 13t-11.5 32l53 172q3 11 14.5 19t22.5 8h123q20 0 32.5 -12.5t12.5 -30.5z" />
    <glyph glyph-name="uni03A9" unicode="&#x3a9;" horiz-adv-x="1409" 
d="M705 1206q126 0 223 -48t156 -133t88.5 -194t29.5 -239q0 -196 -96 -404h127q16 0 28.5 -12t12.5 -29v-108q0 -15 -13 -27t-28 -12h-332q-15 0 -28 12t-13 27v145q0 18 19 33q122 106 122 375q0 426 -296 426q-297 0 -297 -426q0 -269 122 -375q19 -15 19 -33v-145
q0 -15 -13 -27t-28 -12h-332q-15 0 -28 12t-13 27v108q0 17 12.5 29t28.5 12h127q-96 208 -96 404q0 130 30 239t89 194t156 133t223 48z" />
    <glyph glyph-name="pi" unicode="&#x3c0;" horiz-adv-x="1636" 
d="M1460 680h-260v-637q0 -15 -13 -29t-28 -14h-119q-15 0 -28 14t-13 29v637h-362v-637q0 -15 -13 -29t-28 -14h-119q-15 0 -28 14t-13 29v637h-260q-15 0 -28 12t-13 27v108q0 17 12.5 29t28.5 12h1284q16 0 28.5 -12t12.5 -29v-108q0 -15 -13 -27t-28 -12z" />
    <glyph glyph-name="endash" unicode="&#x2013;" horiz-adv-x="841" 
d="M666 311h-490q-15 0 -28 12t-13 27v109q0 17 12.5 29t28.5 12h490q16 0 28.5 -12t12.5 -29v-109q0 -15 -13 -27t-28 -12z" />
    <glyph glyph-name="emdash" unicode="&#x2014;" horiz-adv-x="1003" 
d="M827 311h-651q-15 0 -28 12t-13 27v109q0 17 12.5 29t28.5 12h651q16 0 28.5 -12t12.5 -29v-109q0 -15 -13 -27t-28 -12z" />
    <glyph glyph-name="quoteleft" unicode="&#x2018;" horiz-adv-x="552" 
d="M135 928l105 254q14 24 36 24h99q20 0 31.5 -13t11.5 -32l-78 -250q-3 -11 -14.5 -18.5t-22.5 -7.5h-123q-20 0 -32.5 12.5t-12.5 30.5z" />
    <glyph glyph-name="quoteright" unicode="&#x2019;" horiz-adv-x="552" 
d="M418 1163l-105 -254q-14 -24 -37 -24h-98q-20 0 -31.5 13t-11.5 32l78 250q3 11 14.5 18.5t22.5 7.5h123q20 0 32.5 -12.5t12.5 -30.5z" />
    <glyph glyph-name="quotesinglbase" unicode="&#x201a;" horiz-adv-x="552" 
d="M418 109l-105 -254q-14 -25 -37 -25h-98q-20 0 -31.5 13t-11.5 32l78 250q3 11 14.5 19t22.5 8h123q20 0 32.5 -12.5t12.5 -30.5z" />
    <glyph glyph-name="quotedblleft" unicode="&#x201c;" horiz-adv-x="907" 
d="M135 928l105 254q14 24 36 24h99q20 0 31.5 -13t11.5 -32l-78 -250q-3 -11 -14.5 -18.5t-22.5 -7.5h-123q-20 0 -32.5 12.5t-12.5 30.5zM489 928l105 254q14 24 37 24h98q20 0 31.5 -13t11.5 -32l-78 -250q-3 -11 -14.5 -18.5t-22.5 -7.5h-122q-20 0 -33 12.5t-13 30.5z
" />
    <glyph glyph-name="quotedblright" unicode="&#x201d;" horiz-adv-x="907" 
d="M772 1163l-104 -254q-14 -24 -37 -24h-99q-20 0 -31.5 13t-11.5 32l78 250q3 11 14.5 18.5t22.5 7.5h123q20 0 32.5 -12.5t12.5 -30.5zM418 1163l-105 -254q-14 -24 -37 -24h-98q-20 0 -31.5 13t-11.5 32l78 250q3 11 14.5 18.5t22.5 7.5h123q20 0 32.5 -12.5t12.5 -30.5
z" />
    <glyph glyph-name="quotedblbase" unicode="&#x201e;" horiz-adv-x="907" 
d="M772 109l-104 -254q-14 -25 -37 -25h-99q-20 0 -31.5 13t-11.5 32l78 250q3 11 14.5 19t22.5 8h123q20 0 32.5 -12.5t12.5 -30.5zM418 109l-105 -254q-14 -25 -37 -25h-98q-20 0 -31.5 13t-11.5 32l78 250q3 11 14.5 19t22.5 8h123q20 0 32.5 -12.5t12.5 -30.5z" />
    <glyph glyph-name="dagger" unicode="&#x2020;" horiz-adv-x="1007" 
d="M604 1143v-258h227q16 0 28.5 -12t12.5 -29v-109q0 -15 -13 -27t-28 -12h-227v-954q0 -15 -13 -29t-28 -14h-119q-15 0 -28 14t-13 29v954h-227q-15 0 -28 12t-13 27v109q0 17 12.5 29t28.5 12h227v258q0 15 13 29t28 14h119q15 0 28 -14t13 -29z" />
    <glyph glyph-name="daggerdbl" unicode="&#x2021;" horiz-adv-x="1007" 
d="M176 188h227v508h-227q-15 0 -28 12t-13 27v109q0 17 12.5 29t28.5 12h227v258q0 15 13 29t28 14h119q15 0 28 -14t13 -29v-258h227q16 0 28.5 -12t12.5 -29v-109q0 -15 -13 -27t-28 -12h-227v-508h227q16 0 28.5 -12t12.5 -29v-108q0 -15 -13 -27t-28 -12h-227v-258
q0 -15 -13 -29t-28 -14h-119q-15 0 -28 14t-13 29v258h-227q-15 0 -28 12t-13 27v108q0 17 12.5 29t28.5 12z" />
    <glyph glyph-name="bullet" unicode="&#x2022;" horiz-adv-x="497" 
d="M135 422q0 46 33.5 80.5t79.5 34.5t80 -34.5t34 -80.5t-34 -79.5t-80 -33.5t-79.5 33.5t-33.5 79.5z" />
    <glyph glyph-name="ellipsis" unicode="&#x2026;" horiz-adv-x="1724" 
d="M135 94q0 49 35 85t82 36q50 0 85.5 -35.5t35.5 -85.5q0 -47 -36 -82t-85 -35q-47 0 -82 35t-35 82zM743 94q0 49 35 85t82 36q50 0 85.5 -35.5t35.5 -85.5q0 -47 -36 -82t-85 -35q-47 0 -82 35t-35 82zM1352 94q0 49 34.5 85t81.5 36q50 0 85.5 -35.5t35.5 -85.5
q0 -47 -36 -82t-85 -35q-47 0 -81.5 35t-34.5 82z" />
    <glyph glyph-name="perthousand" unicode="&#x2030;" horiz-adv-x="2107" 
d="M387 1186q104 0 178 -73t74 -177t-74 -178t-178 -74t-178 74t-74 178t74 177t178 73zM387 842q39 0 66.5 27.5t27.5 66.5q0 37 -28 64.5t-66 27.5t-66 -27.5t-28 -64.5q0 -39 27.5 -66.5t66.5 -27.5zM1135 479q104 0 177.5 -73t73.5 -177t-73.5 -178t-177.5 -74t-178 74
t-74 178t74 177t178 73zM1135 135q39 0 66.5 27.5t27.5 66.5q0 37 -28 65t-66 28t-66.5 -28t-28.5 -65q0 -39 28 -66.5t67 -27.5zM365 41l626 1120q13 25 35 25h119q17 0 29 -12t12 -29l-627 -1120q-13 -25 -35 -25h-118q-17 0 -29 12t-12 29zM1720 479q104 0 178 -73
t74 -177t-74 -178t-178 -74t-178 74t-74 178t74 177t178 73zM1720 135q39 0 67 27.5t28 66.5q0 37 -28.5 65t-66.5 28t-66 -28t-28 -65q0 -39 27.5 -66.5t66.5 -27.5z" />
    <glyph glyph-name="guilsinglleft" unicode="&#x2039;" horiz-adv-x="823" 
d="M643 117l-473 200q-35 17 -35 52v153q0 34 35 51l473 197q19 0 32 -12.5t13 -32.5v-98q0 -31 -26 -41l-343 -144l343 -141q26 -10 26 -41v-98q0 -20 -13 -32.5t-32 -12.5z" />
    <glyph glyph-name="guilsinglright" unicode="&#x203a;" horiz-adv-x="823" 
d="M653 317l-473 -200q-19 0 -32 12.5t-13 32.5v98q0 31 27 41l342 141l-342 144q-27 10 -27 41v98q0 20 13 32.5t32 12.5l473 -197q35 -17 35 -51v-153q0 -35 -35 -52z" />
    <glyph glyph-name="fraction" unicode="&#x2044;" horiz-adv-x="1157" 
d="M135 -260l692 1710q9 23 33 23h121q17 0 29 -12t12 -29l-692 -1711q-8 -22 -33 -22h-121q-17 0 -29 12t-12 29z" />
    <glyph glyph-name="euro" unicode="&#x20ac;" horiz-adv-x="1601" 
d="M666 354h-146q59 -87 152.5 -137.5t201.5 -50.5q120 0 219 61.5t152 165.5q10 23 37 23h141q36 0 43 -39q-69 -178 -230 -289t-362 -111q-195 0 -352.5 103.5t-228.5 273.5h-123q-13 0 -24 10.5t-11 22.5v90q0 13 10.5 24t24.5 11h82q-6 38 -6 80q0 26 4 76h-80
q-13 0 -24 10t-11 22v91q0 13 10.5 23.5t24.5 10.5h123q70 170 227.5 275.5t353.5 105.5q201 0 362 -111t230 -288q-7 -39 -43 -39h-141q-27 0 -37 23q-53 104 -152 165.5t-219 61.5q-109 0 -204.5 -52t-153.5 -141h150q12 0 23 -10.5t11 -23.5v-91q0 -12 -11 -22t-23 -10
h-213q-7 -44 -7 -76q0 -42 9 -80h211q12 0 23 -11t11 -24v-90q0 -12 -11 -22.5t-23 -10.5z" />
    <glyph glyph-name="uni2116" unicode="&#x2116;" horiz-adv-x="2467" 
d="M961 18l-625 820v-795q0 -15 -13 -29t-28 -14h-119q-15 0 -28 14t-13 29v1100q0 15 13 29t28 14h135q20 0 31 -19l621 -819v795q0 15 13 29t28 14h118q15 0 28 -14t13 -29v-1100q0 -15 -13 -29t-28 -14h-131q-19 0 -30 18zM1858 1186q131 0 240.5 -61.5t172 -166.5
t62.5 -229t-62.5 -229t-172 -166.5t-240.5 -61.5t-240.5 61.5t-172.5 166.5t-63 229t63 229t172.5 166.5t240.5 61.5zM1858 461q115 0 194.5 76t79.5 192t-79.5 192t-194.5 76t-195 -76t-80 -192t80 -192t195 -76zM2103 0h-489q-15 0 -28 12t-13 27v108q0 17 12.5 29
t28.5 12h489q16 0 28.5 -12t12.5 -29v-108q0 -15 -13 -27t-28 -12z" />
    <glyph glyph-name="trademark" unicode="&#x2122;" horiz-adv-x="1368" 
d="M408 1047v-326q0 -10 -8 -17.5t-19 -7.5h-82q-25 0 -25 25v326h-112q-12 0 -19.5 6.5t-7.5 17.5v88q0 12 7.5 19.5t19.5 7.5h354q11 0 19 -7.5t8 -19.5v-88q0 -10 -8 -17t-19 -7h-108zM940 803q-12 0 -18 6l-142 147v-233q0 -11 -8 -19t-20 -8h-76q-12 0 -20.5 8t-8.5 19
v432q0 13 8.5 22t20.5 9h86q10 0 22 -12l156 -195l156 195q12 12 22 12h86q12 0 20.5 -9t8.5 -22v-432q0 -11 -8.5 -19t-20.5 -8h-76q-12 0 -20 8t-8 19v233l-142 -147q-6 -6 -18 -6z" />
    <glyph glyph-name="Omega" unicode="&#x2126;" horiz-adv-x="1409" 
d="M705 1206q126 0 223 -48t156 -133t88.5 -194t29.5 -239q0 -196 -96 -404h127q16 0 28.5 -12t12.5 -29v-108q0 -15 -13 -27t-28 -12h-332q-15 0 -28 12t-13 27v145q0 18 19 33q122 106 122 375q0 426 -296 426q-297 0 -297 -426q0 -269 122 -375q19 -15 19 -33v-145
q0 -15 -13 -27t-28 -12h-332q-15 0 -28 12t-13 27v108q0 17 12.5 29t28.5 12h127q-96 208 -96 404q0 130 30 239t89 194t156 133t223 48z" />
    <glyph glyph-name="partialdiff" unicode="&#x2202;" horiz-adv-x="1206" 
d="M383 979q-26 0 -37 22l-39 97q-4 12 -4 14q0 11 7.5 21.5t15.5 13.5q168 59 290 59q195 0 325 -114.5t130 -296.5v-752q0 -15 -13 -29t-28 -14h-119q-15 0 -28 14t-13 29v25q-49 -42 -117 -63.5t-111 -24.5t-110 -3q-180 0 -288.5 101.5t-108.5 281.5q0 179 115 282
t297 103q41 0 68 -2t74.5 -9.5t93 -28.5t87.5 -54v121q0 116 -79.5 181t-180.5 65q-133 0 -227 -39zM600 166q130 0 200 42.5t70 151.5q0 60 -19.5 100t-58 60.5t-84 28.5t-108.5 8q-60 0 -104 -8t-82 -28.5t-58 -61t-20 -99.5q0 -57 20 -96t57.5 -60t82.5 -29.5t104 -8.5z
" />
    <glyph glyph-name="Delta" unicode="&#x2206;" horiz-adv-x="1419" 
d="M709 922l-303 -734h606zM838 1151l446 -1098q0 -20 -15.5 -36.5t-35.5 -16.5h-1047q-20 0 -35.5 16.5t-15.5 36.5l447 1098q14 35 47 35h162q33 0 47 -35z" />
    <glyph glyph-name="product" unicode="&#x220f;" horiz-adv-x="1636" 
d="M1460 997h-260v-954q0 -15 -13 -29t-28 -14h-119q-15 0 -28 14t-13 29v954h-362v-954q0 -15 -13 -29t-28 -14h-119q-15 0 -28 14t-13 29v954h-260q-15 0 -28 12t-13 27v109q0 17 12.5 29t28.5 12h1284q16 0 28.5 -12t12.5 -29v-109q0 -15 -13 -27t-28 -12z" />
    <glyph glyph-name="summation" unicode="&#x2211;" horiz-adv-x="1046" 
d="M305 623l-166 366q-4 8 -4 17v139q0 17 12.5 29t28.5 12h694q16 0 28.5 -12t12.5 -29v-109q0 -15 -13 -27t-28 -12h-512l170 -374q9 -18 9 -31t-9 -31l-170 -373h512q15 0 28 -11.5t13 -26.5v-109q0 -17 -12.5 -29t-28.5 -12h-694q-16 0 -28.5 12t-12.5 29v139q0 9 4 17
l166 364q8 16 8 31t-8 31z" />
    <glyph glyph-name="minus" unicode="&#x2212;" horiz-adv-x="841" 
d="M666 311h-490q-15 0 -28 12t-13 27v109q0 17 12.5 29t28.5 12h490q16 0 28.5 -12t12.5 -29v-109q0 -15 -13 -27t-28 -12z" />
    <glyph glyph-name="radical" unicode="&#x221a;" horiz-adv-x="1468" 
d="M899 1186h393q16 0 28.5 -12t12.5 -29v-105q0 -15 -13 -27t-28 -12h-274l-379 -970q-5 -12 -19.5 -21.5t-31.5 -9.5h-164q-17 0 -31.5 9.5t-19.5 21.5l-238 594q0 17 13 31t30 14h129q12 0 23 -8.5t16 -20.5l160 -418l354 934q5 12 16 20.5t23 8.5z" />
    <glyph glyph-name="infinity" unicode="&#x221e;" horiz-adv-x="1835" 
d="M858 498q-120 159 -315 159q-37 0 -71 -7.5t-66 -24.5t-51 -50t-19 -79t19 -79.5t51 -50.5t66 -24.5t71 -7.5q195 0 315 164zM977 498q120 -164 315 -164q37 0 71 7.5t66 24.5t51 50.5t19 79.5t-19 79t-51 50t-66 24.5t-71 7.5q-195 0 -315 -159zM918 662
q142 184 380 184q192 0 297 -92.5t105 -259.5q0 -165 -105.5 -257t-296.5 -92q-237 0 -380 185q-143 -185 -381 -185q-191 0 -296.5 92t-105.5 257q0 167 105 259.5t297 92.5q239 0 381 -184z" />
    <glyph glyph-name="integral" unicode="&#x222b;" horiz-adv-x="937" 
d="M760 1204q17 0 30 -12t13 -27v-108q0 -17 -12.5 -29t-28.5 -12l-33 2q-43 0 -75 -15t-47.5 -37t-25 -44t-11.5 -37l-1 -15v-895q0 -68 -14.5 -123t-35 -89t-51.5 -59t-55.5 -36.5t-57 -18t-46 -7t-30.5 -0.5q-70 0 -101 2q-17 0 -30 12t-13 27v108q0 17 12.5 29t28.5 12
l33 -2q43 0 75 15t47.5 37t25 43.5t11.5 36.5l1 15v895q0 68 14.5 123t35 89.5t51 59t55.5 36t57 18t46 7.5t31 1q70 0 101 -2z" />
    <glyph glyph-name="approxequal" unicode="&#x2248;" horiz-adv-x="1003" 
d="M674 418q-52 2 -157 48t-146 46q-39 0 -58 -16t-22 -56q-5 -22 -33 -22h-86q-17 0 -27 11t-10 28q6 63 25 108.5t40.5 67.5t50.5 34.5t45 14.5t34 2q60 0 118.5 -23.5t105.5 -47t79 -23.5q39 0 58 16t22 56q5 22 32 22h86q17 0 27 -11t10 -28q-6 -63 -25 -108.5
t-40 -67.5t-50 -34.5t-45 -14.5t-34 -2zM674 92q-52 2 -157 48t-146 46q-40 0 -58.5 -15.5t-21.5 -55.5q-6 -23 -33 -23h-86q-17 0 -27 11t-10 28q6 63 25 108.5t40.5 67.5t50.5 34.5t45 14.5t34 2q60 0 118.5 -23.5t105.5 -47t79 -23.5q39 0 58 16t22 56q5 22 32 22h86
q17 0 27 -11t10 -28q-6 -63 -25 -108.5t-40 -67.5t-50 -34.5t-45 -14.5t-34 -2z" />
    <glyph glyph-name="notequal" unicode="&#x2260;" horiz-adv-x="841" 
d="M666 494h-152l-51 -179h203q16 0 28.5 -12t12.5 -29v-108q0 -15 -13 -27t-28 -12h-258l-31 -111q-8 -16 -25 -16h-110q-12 0 -21.5 9.5t-9.5 21.5l29 96h-64q-15 0 -28 12t-13 27v108q0 17 12.5 29t28.5 12h121l53 179h-174q-15 0 -28 11.5t-13 26.5v109q0 17 12.5 29
t28.5 12h232l34 113q8 16 25 16h100q12 0 21.5 -9.5t9.5 -21.5l-29 -98h97q16 0 28.5 -12t12.5 -29v-109q0 -15 -13 -26.5t-28 -11.5z" />
    <glyph glyph-name="lessequal" unicode="&#x2264;" horiz-adv-x="823" 
d="M643 258l-473 201q-35 17 -35 51v154q0 34 35 51l473 196q19 0 32 -12.5t13 -32.5v-98q0 -31 -26 -41l-343 -143l343 -142q26 -10 26 -41v-98q0 -20 -13 -32.5t-32 -12.5zM647 0h-471q-15 0 -28 12t-13 27v108q0 17 12.5 29t28.5 12h471q16 0 28.5 -12t12.5 -29v-108
q0 -15 -13 -27t-28 -12z" />
    <glyph glyph-name="greaterequal" unicode="&#x2265;" horiz-adv-x="823" 
d="M653 459l-473 -201q-19 0 -32 12.5t-13 32.5v98q0 31 27 41l342 142l-342 143q-27 10 -27 41v98q0 20 13 32.5t32 12.5l473 -196q35 -17 35 -51v-154q0 -34 -35 -51zM647 0h-471q-15 0 -28 12t-13 27v108q0 17 12.5 29t28.5 12h471q16 0 28.5 -12t12.5 -29v-108
q0 -15 -13 -27t-28 -12z" />
    <glyph glyph-name="lozenge" unicode="&#x25ca;" horiz-adv-x="1224" 
d="M612 186l254 404l-254 399l-254 -399zM1079 549l-325 -516q-21 -33 -47 -33h-189q-22 0 -47 33l-326 516q-10 15 -10 41t10 41l332 522q25 33 47 33h176q27 0 48 -33l331 -522q11 -17 11 -41t-11 -41z" />
    <glyph glyph-name="NULL" horiz-adv-x="0" 
 />
    <glyph glyph-name="superstore" horiz-adv-x="1304" 
d="M649 1034q107 0 203 -41t165.5 -110.5t110.5 -165.5t41 -203q0 -139 -69 -257.5t-189 -187.5t-262 -69q-139 0 -257.5 69t-187.5 187.5t-69 257.5q0 142 69 262t187.5 189t257.5 69zM868 184q66 0 66 56q0 33 -11.5 47t-37.5 14v272q0 88 -66 146q12 4 39 4t39 -4h23v133
q-149 -18 -236 -66q-31 5 -76 5q-101 0 -180 -29v-129h12q105 33 156 33q28 0 46 -1.5t46.5 -9t44 -27t15.5 -50.5l-168 -17q-43 -4 -75 -12t-65 -27.5t-51 -57t-18 -91.5q0 -85 58.5 -137t150.5 -52q61 0 88 6v111l-13 8q-18 -8 -47 -8q-37 0 -64.5 21t-27.5 63
q0 33 37 45.5t195 38.5v-145q0 -77 21.5 -108.5t80.5 -31.5h18z" />
    </font>
</defs>
</svg>
