<?xml version="1.0" standalone="no"?>
<!DOCTYPE svg PUBLIC "-//W3C//DTD SVG 1.1//EN" "http://www.w3.org/Graphics/SVG/1.1/DTD/svg11.dtd" >
<svg xmlns="http://www.w3.org/2000/svg" xmlns:xlink="http://www.w3.org/1999/xlink" version="1.1">
<metadata>
Created by FontForge 20170731 at Sun Jul 25 14:59:49 2021
 By Aleksey,,,
Copyright (c) 2019 by Typesketchbook. All rights reserved.
</metadata>
<defs>
<font id="GroldRounded-SemiLight" horiz-adv-x="454" >
  <font-face 
    font-family="Grold Rounded SemiLight"
    font-weight="300"
    font-stretch="normal"
    units-per-em="2048"
    panose-1="2 0 0 0 0 0 0 0 0 0"
    ascent="1536"
    descent="-512"
    x-height="868"
    cap-height="1186"
    bbox="-115 -408 2331 1780"
    underline-thickness="71"
    underline-position="-294"
    unicode-range="U+000D-FB02"
  />
<missing-glyph horiz-adv-x="1286" 
d="M1122 0h-958v1434h958v-1434zM266 1341v-1249h754v1249h-754z" />
    <glyph glyph-name="fi" unicode="fi" horiz-adv-x="1243" 
d="M109 868h157v58q0 92 26.5 160t60.5 101t80 52.5t71 23t47 3.5q45 0 94 -6q14 -3 25.5 -14t11.5 -23v-78q0 -12 -12.5 -23.5t-24.5 -11.5l-63 2q-41 0 -71.5 -18.5t-44.5 -45t-22 -53t-9 -45.5l-1 -18v-64h211q14 0 26.5 -12t12.5 -25v-79q0 -13 -12.5 -25t-26.5 -12
h-211v-676q0 -14 -12 -26.5t-25 -12.5h-94q-13 0 -25 12.5t-12 26.5v676h-157q-14 0 -26.5 12t-12.5 25v79q0 13 12.5 25t26.5 12zM913 1079q0 44 30.5 75.5t72.5 31.5q43 0 73.5 -31.5t30.5 -75.5q0 -41 -30.5 -70.5t-73.5 -29.5q-42 0 -72.5 29.5t-30.5 70.5zM1100 829
v-790q0 -14 -12 -26.5t-25 -12.5h-94q-13 0 -25 12.5t-12 26.5v790q0 14 12 26.5t25 12.5h94q13 0 25 -12.5t12 -26.5z" />
    <glyph glyph-name="fl" unicode="fl" horiz-adv-x="1241" 
d="M109 868h157v58q0 92 26.5 160t60.5 101t80 52.5t71 23t47 3.5q45 0 94 -6q14 -3 25.5 -14t11.5 -23v-78q0 -12 -12.5 -23.5t-24.5 -11.5l-63 2q-41 0 -71.5 -18.5t-44.5 -45t-22 -53t-9 -45.5l-1 -18v-64h211q14 0 26.5 -12t12.5 -25v-79q0 -13 -12.5 -25t-26.5 -12
h-211v-676q0 -14 -12 -26.5t-25 -12.5h-94q-13 0 -25 12.5t-12 26.5v676h-157q-14 0 -26.5 12t-12.5 25v79q0 13 12.5 25t26.5 12zM1098 1186v-1147q0 -14 -12 -26.5t-25 -12.5h-94q-13 0 -25 12.5t-12 26.5v1147q0 14 12 26.5t25 12.5h94q13 0 25 -12.5t12 -26.5z" />
    <glyph glyph-name=".notdef" horiz-adv-x="1286" 
d="M1122 0h-958v1434h958v-1434zM266 1341v-1249h754v1249h-754z" />
    <glyph glyph-name=".null" horiz-adv-x="0" 
 />
    <glyph glyph-name="nonmarkingreturn" horiz-adv-x="682" 
 />
    <glyph glyph-name="CR" unicode="&#xd;" horiz-adv-x="634" 
 />
    <glyph glyph-name="CR" horiz-adv-x="634" 
 />
    <glyph glyph-name="space" unicode=" " horiz-adv-x="329" 
 />
    <glyph glyph-name="exclam" unicode="!" horiz-adv-x="493" 
d="M143 106q0 41 31 71t72 30q43 0 73.5 -30t30.5 -71q0 -44 -30.5 -75t-73.5 -31q-42 0 -72.5 31t-30.5 75zM330 1147l-13 -791q0 -14 -11.5 -26.5t-24.5 -12.5h-70q-13 0 -25 12.5t-12 26.5l-12 791q0 14 12 26.5t25 12.5h94q13 0 25 -12.5t12 -26.5z" />
    <glyph glyph-name="quotedbl" unicode="&#x22;" horiz-adv-x="796" 
d="M156 799l-13 202v152q0 14 9 23.5t24 9.5h84q14 0 23.5 -10t9.5 -23v-152l-12 -202q0 -13 -10.5 -24t-24.5 -11h-58q-12 0 -22 11t-10 24zM516 799l-12 202v152q0 14 9 23.5t24 9.5h84q13 0 22.5 -9.5t9.5 -23.5v-152l-12 -202q0 -13 -10.5 -24t-24.5 -11h-57
q-12 0 -22.5 11t-10.5 24z" />
    <glyph glyph-name="numbersign" unicode="#" horiz-adv-x="1519" 
d="M723 37l68 188h-322l-72 -200q-11 -25 -32 -25h-107q-15 0 -26 11.5t-11 25.5l68 188h-107q-14 0 -26.5 12t-12.5 25v80q0 13 12.5 25t26.5 12h164l150 412h-207q-14 0 -26.5 11.5t-12.5 24.5v80q0 13 12.5 25t26.5 12h262l80 217q11 25 33 25h106q15 0 26 -11.5
t11 -25.5l-76 -205h322l80 217q11 25 32 25h107q15 0 26 -11.5t11 -25.5l-76 -205h104q14 0 26.5 -12t12.5 -25v-80q0 -13 -12.5 -24.5t-26.5 -11.5h-159l-150 -412h203q14 0 26.5 -12t12.5 -25v-80q0 -13 -12.5 -25t-26.5 -12h-260l-72 -200q-11 -25 -33 -25h-106
q-15 0 -26 11.5t-11 25.5zM676 791l-150 -412h322l149 412h-321z" />
    <glyph glyph-name="dollar" unicode="$" horiz-adv-x="1153" 
d="M635 1380v-180q187 -22 295 -139q12 -12 12 -23q0 -17 -10 -24l-68 -51q-14 -11 -26 -11q-8 0 -27 15q-110 86 -276 86q-92 0 -156 -44t-64 -126q0 -48 24 -85.5t64 -62t92 -45t110 -38.5t115.5 -37.5t109.5 -47.5t92 -63t64 -89t24 -122q0 -34 -11 -70.5t-39 -77.5
t-69.5 -75t-107.5 -58.5t-148 -31.5v-177q0 -14 -12 -26.5t-25 -12.5h-94q-13 0 -25 12.5t-12 26.5v183q-203 29 -317 161q-7 18 -7 27q0 18 15 33l61 49q8 8 27 8q9 0 22 -10q60 -52 141.5 -87.5t174.5 -35.5q61 0 109.5 15t75.5 36.5t44.5 47.5t23 45t5.5 32q0 39 -24 70
t-64 53t-92 41t-110 38t-115.5 40.5t-109.5 53t-92 70t-64 96t-24 128.5q0 32 8 66t30.5 73.5t57 71.5t92.5 57.5t132 34.5v180q0 14 12 26.5t25 12.5h94q13 0 25 -12.5t12 -26.5z" />
    <glyph glyph-name="percent" unicode="%" horiz-adv-x="1533" 
d="M1163 1155l-635 -1135q-10 -20 -28 -20h-94q-12 0 -21.5 10t-9.5 21l635 1134q10 21 28 21h95q12 0 21 -10t9 -21zM383 1186q98 0 169 -70t71 -168t-71 -168.5t-169 -70.5t-169 70.5t-71 168.5t71 168t169 70zM383 829q48 0 83.5 34.5t35.5 84.5q0 46 -36 81.5t-83 35.5
t-83 -35.5t-36 -81.5q0 -50 35.5 -84.5t83.5 -34.5zM1151 453q98 0 169 -70t71 -168t-71 -169t-169 -71t-169 71t-71 169t71 168t169 70zM1151 96q48 0 83.5 34.5t35.5 84.5q0 46 -36 81.5t-83 35.5t-83 -35.5t-36 -81.5q0 -50 35.5 -84.5t83.5 -34.5z" />
    <glyph glyph-name="ampersand" unicode="&#x26;" horiz-adv-x="1325" 
d="M856 252l-362 354q-84 -52 -133.5 -121.5t-49.5 -140.5q0 -90 68.5 -151.5t183.5 -61.5q172 0 293 121zM1104 12l-133 127q-79 -83 -186 -122.5t-222 -39.5q-34 0 -72.5 5.5t-88 18t-93.5 38.5t-82.5 62t-61 93.5t-22.5 127.5q0 57 20 114.5t49.5 102.5t66.5 86
t67.5 66.5t56.5 41.5q-61 61 -86.5 126.5t-25.5 113.5q0 21 1 37t8 50t19.5 60t38.5 58t62.5 52.5t94.5 35t130 14.5q71 0 129.5 -18t96 -45t66.5 -65t44 -72t24.5 -71.5t11.5 -58t3 -37.5q0 -13 -11.5 -23.5t-23.5 -10.5h-96q-13 0 -24 11t-11 23q-2 91 -59.5 152
t-149.5 61q-59 0 -99 -13.5t-58 -38t-24.5 -47.5t-6.5 -52q0 -50 37 -111t94 -116l373 -363q73 94 77 217q0 15 10 25t25 10h96q14 0 24.5 -10t10.5 -25q-14 -216 -114 -342l210 -207q5 -5 5 -16q0 -37 -37 -37h-133q-19 0 -31 12z" />
    <glyph glyph-name="quotesingle" unicode="'" horiz-adv-x="436" 
d="M156 799l-13 202v152q0 14 9 23.5t24 9.5h84q14 0 23.5 -10t9.5 -23v-152l-12 -202q0 -13 -10.5 -24t-24.5 -11h-58q-12 0 -22 11t-10 24z" />
    <glyph glyph-name="parenleft" unicode="(" horiz-adv-x="591" 
d="M143 565q0 431 138 879q11 29 34 29h99q15 0 25 -11t10 -26q-138 -470 -138 -871q0 -218 32 -408.5t103 -420.5q0 -15 -9.5 -26t-24.5 -11h-97q-23 0 -34 29q-72 234 -105 427t-33 410z" />
    <glyph glyph-name="parenright" unicode=")" horiz-adv-x="591" 
d="M449 565q0 -217 -33 -410t-105 -427q-11 -29 -35 -29h-96q-15 0 -25 11t-10 26q71 231 103.5 421t32.5 408q0 401 -138 871q0 15 10 26t25 11h98q24 0 35 -29q138 -448 138 -879z" />
    <glyph glyph-name="asterisk" unicode="*" horiz-adv-x="905" 
d="M506 954l180 80q8 4 12 4q30 0 37 -24l23 -68q4 -8 4 -16q0 -30 -25 -37l-196 -51l125 -150q10 -10 10 -26q0 -19 -17 -33l-43 -35q-16 -8 -26 -8q-22 0 -35 20l-102 154l-103 -154q-13 -20 -35 -20q-10 0 -26 8l-43 35q-17 14 -17 33q0 15 11 26l125 150l-197 51
q-25 7 -25 37q0 8 4 16l23 68q7 24 37 24q4 0 12 -4l180 -80l-22 199q0 14 8.5 23.5t20.5 9.5h94q13 0 20.5 -9.5t7.5 -23.5z" />
    <glyph glyph-name="plus" unicode="+" horiz-adv-x="831" 
d="M332 477v172q0 14 12 26.5t25 12.5h94q13 0 25 -12.5t12 -26.5v-172h159q14 0 26.5 -12t12.5 -25v-69q0 -13 -12.5 -25t-26.5 -12h-159v-172q0 -14 -12 -26.5t-25 -12.5h-94q-13 0 -25 12.5t-12 26.5v172h-160q-14 0 -26.5 12t-12.5 25v69q0 13 12.5 25t26.5 12h160z" />
    <glyph glyph-name="comma" unicode="," horiz-adv-x="563" 
d="M420 143l-133 -272q-12 -16 -29 -16h-86q-12 0 -20.5 8.5t-8.5 23.5l113 269q7 18 29 18h104q13 0 22 -9.5t9 -21.5z" />
    <glyph glyph-name="hyphen" unicode="-" horiz-adv-x="835" 
d="M653 322h-471q-14 0 -26.5 11.5t-12.5 24.5v80q0 13 12.5 25t26.5 12h471q14 0 26.5 -12t12.5 -25v-80q0 -13 -12.5 -24.5t-26.5 -11.5z" />
    <glyph glyph-name="period" unicode="." horiz-adv-x="491" 
d="M143 76q0 43 30 73.5t71 30.5q43 0 73.5 -30.5t30.5 -73.5q0 -41 -30.5 -70t-73.5 -29q-41 0 -71 29t-30 70z" />
    <glyph glyph-name="slash" unicode="/" horiz-adv-x="1150" 
d="M143 -264l688 1712q11 25 33 25h107q15 0 26 -11.5t11 -25.5l-689 -1712q-11 -25 -32 -25h-107q-15 0 -26 11.5t-11 25.5z" />
    <glyph glyph-name="zero" unicode="0" horiz-adv-x="1224" 
d="M612 1206q124 0 219.5 -48t153.5 -133t87.5 -194t29.5 -239t-29.5 -240t-87.5 -194.5t-153.5 -132.5t-219.5 -48q-100 0 -181.5 31.5t-138 87t-95 133t-56.5 168.5t-18 195q0 103 18 193.5t56.5 168.5t95 133.5t138 87t181.5 31.5zM612 1053q-321 0 -321 -461t321 -461
q77 0 136 28t93.5 72t56 107t29 123.5t7.5 130.5t-7.5 130.5t-29 123.5t-56 107t-93.5 72t-136 28z" />
    <glyph glyph-name="one" unicode="1" horiz-adv-x="684" 
d="M379 1186h121q13 0 25 -12.5t12 -26.5v-1108q0 -14 -12 -26.5t-25 -12.5h-94q-13 0 -25 12.5t-12 26.5v977l-285 -86q-14 0 -26.5 12t-12.5 25v94q0 25 31 37l250 80q32 8 53 8z" />
    <glyph glyph-name="two" unicode="2" horiz-adv-x="1021" 
d="M150 162q144 124 249.5 229.5t161 174.5t88 128.5t40 91t7.5 62.5q0 90 -53.5 147.5t-167.5 57.5q-89 0 -144.5 -57t-60.5 -142q0 -13 -10 -23t-24 -10h-99q-14 0 -24.5 10t-10.5 23q1 21 3.5 44t12.5 59t25 68t43.5 66t65.5 58.5t93 40.5t124 16q78 0 141 -17.5t103 -44
t70 -64t45 -71t24 -71t10.5 -58t1.5 -38.5q0 -69 -37 -151t-78.5 -142.5t-125 -149t-119.5 -122t-120 -109.5l-5 -5t-5 -4.5t-5 -4.5h477q12 0 22.5 -9.5t10.5 -21.5v-90q0 -13 -10.5 -23t-22.5 -10h-672q-13 0 -24 11.5t-11 25.5v104q0 14 11 21z" />
    <glyph glyph-name="three" unicode="3" horiz-adv-x="1009" 
d="M442 670h43q21 0 38.5 1.5t52.5 11t58.5 26.5t42.5 53t19 86q0 90 -53.5 147.5t-167.5 57.5q-89 0 -144.5 -57t-60.5 -142q0 -13 -10 -23t-24 -10h-99q-14 0 -24.5 10t-10.5 23q1 21 3.5 44t12.5 59t25 68t43.5 66t65.5 58.5t93 40.5t124 16q78 0 141 -17.5t103 -44
t70 -64t45 -71t24 -71t10.5 -58t1.5 -38.5v-11.5t-3.5 -28.5t-9.5 -41.5t-20 -47t-33 -48t-51 -41.5t-71 -30q54 -17 93.5 -49.5t56.5 -66t27 -65t11 -51.5v-20q0 -15 -1.5 -32.5t-6.5 -48.5t-17 -60t-30 -62.5t-48.5 -61t-69.5 -51t-96.5 -36.5t-125.5 -13t-124 16
t-93 40.5t-65.5 59t-43.5 66.5t-25 68t-12.5 59t-3.5 44q0 13 10.5 22.5t24.5 9.5h99q14 0 24 -9.5t10 -22.5q5 -85 60.5 -142t144.5 -57q114 0 167.5 57.5t53.5 147.5q0 51 -19 87.5t-42.5 54t-58.5 27t-52 10.5t-39 1h-43q-14 0 -26.5 12t-12.5 25v80q0 13 12.5 25
t26.5 12z" />
    <glyph glyph-name="four" unicode="4" horiz-adv-x="1007" 
d="M211 389h428v627zM63 449l490 720q14 17 33 17h178q17 0 30 -14t13 -31v-752h100q14 0 26.5 -12t12.5 -25v-80q0 -13 -12.5 -24.5t-26.5 -11.5h-100v-197q0 -14 -12 -26.5t-25 -12.5h-94q-13 0 -25 12.5t-12 26.5v197h-545q-14 0 -26.5 11.5t-12.5 24.5v156q0 9 8 21z
" />
    <glyph glyph-name="five" unicode="5" horiz-adv-x="983" 
d="M274 246q23 -56 72 -85.5t137 -29.5q102 0 166 61t64 160q0 29 -3 55t-15.5 62t-34 61t-63 43.5t-97.5 18.5q-108 0 -156 -57q-15 -15 -35 -15l-133 15q-19 3 -32 17t-13 32v565q0 13 12.5 25t26.5 12h561q14 0 26.5 -12t12.5 -25v-80q0 -13 -12.5 -25t-26.5 -12h-432
v-340q34 19 54.5 28t62 17t94.5 8q23 0 47.5 -2.5t62.5 -11.5t71.5 -24.5t69.5 -45.5t61.5 -70t42 -102t16.5 -137q0 -17 -1 -33.5t-9 -57t-21.5 -74t-43.5 -74.5t-71 -69t-106.5 -47.5t-147.5 -19.5q-316 0 -379 252q0 12 11 23.5t24 11.5h109q17 0 28 -18z" />
    <glyph glyph-name="six" unicode="6" horiz-adv-x="1054" 
d="M526 131q114 0 186 68t72 178q0 114 -72 182t-186 68q-111 0 -183.5 -68.5t-72.5 -181.5q0 -110 71.5 -178t184.5 -68zM709 1149l-230 -369q119 0 212 -34.5t149 -93.5t84 -132t28 -155q0 -179 -120.5 -283.5t-303.5 -104.5q-184 0 -305 104.5t-121 283.5q0 134 86 270
q115 186 214.5 343t117.5 187q11 19 33 19h117q14 0 25 -10.5t14 -24.5z" />
    <glyph glyph-name="seven" unicode="7" horiz-adv-x="851" 
d="M250 37l385 995h-551q-14 0 -26.5 12t-12.5 25v80q0 13 12.5 25t26.5 12h684q14 0 26.5 -12t12.5 -25v-129q0 -8 -4 -16l-375 -979q-11 -25 -35 -25h-108q-14 0 -24.5 11t-10.5 26z" />
    <glyph glyph-name="eight" unicode="8" horiz-adv-x="1134" 
d="M567 1206q182 0 285.5 -95t103.5 -234q0 -75 -24.5 -130.5t-102.5 -117.5q66 -22 108.5 -72t58.5 -104t16 -115q0 -119 -61.5 -202t-159.5 -121t-224 -38t-224 38t-159 121t-61 202q0 61 15.5 115t58 104t108.5 72q-78 62 -102.5 117.5t-24.5 130.5q0 139 103.5 234
t285.5 95zM567 696q94 0 159 48.5t65 127.5q0 86 -64 133.5t-160 47.5t-159.5 -47.5t-63.5 -133.5q0 -79 64.5 -127.5t158.5 -48.5zM567 559q-114 0 -196 -55.5t-82 -155.5q0 -109 80.5 -163t197.5 -54t198 54t81 163q0 100 -82.5 155.5t-196.5 55.5z" />
    <glyph glyph-name="nine" unicode="9" horiz-adv-x="1054" 
d="M528 1053q-114 0 -186 -68t-72 -178q0 -114 72 -182t186 -68q111 0 183.5 68.5t72.5 181.5q0 110 -71.5 178t-184.5 68zM346 35l229 368q-119 0 -212 34.5t-149 94t-84 132.5t-28 155q0 179 120.5 283t303.5 104q185 0 305.5 -104t120.5 -283q0 -134 -86 -270
q-86 -139 -160 -257t-112.5 -179t-58.5 -95q-11 -18 -33 -18h-117q-14 0 -25 10.5t-14 24.5z" />
    <glyph glyph-name="colon" unicode=":" horiz-adv-x="489" 
d="M143 76q0 43 29 73.5t70 30.5q43 0 73.5 -30.5t30.5 -73.5q0 -41 -30.5 -70t-73.5 -29q-41 0 -70 29t-29 70zM143 674q0 43 29 73.5t70 30.5q43 0 73.5 -30.5t30.5 -73.5q0 -41 -30.5 -70t-73.5 -29q-41 0 -70 29t-29 70z" />
    <glyph glyph-name="semicolon" unicode=";" horiz-adv-x="567" 
d="M221 674q0 43 28.5 73.5t69.5 30.5q43 0 74 -30.5t31 -73.5q0 -41 -31 -70t-74 -29q-41 0 -69.5 29t-28.5 70zM420 143l-133 -272q-12 -16 -29 -16h-86q-12 0 -20.5 8.5t-8.5 23.5l113 269q7 18 29 18h104q13 0 22 -9.5t9 -21.5z" />
    <glyph glyph-name="less" unicode="&#x3c;" horiz-adv-x="817" 
d="M637 125l-461 190q-33 18 -33 50v145q0 29 33 47l461 191q16 0 26.5 -10t10.5 -27v-78q0 -26 -21 -33l-389 -164l389 -164q21 -7 21 -32v-78q0 -17 -10.5 -27t-26.5 -10z" />
    <glyph glyph-name="equal" unicode="=" horiz-adv-x="835" 
d="M653 547h-471q-14 0 -26.5 12t-12.5 25v80q0 13 12.5 24.5t26.5 11.5h471q14 0 26.5 -11.5t12.5 -24.5v-80q0 -13 -12.5 -25t-26.5 -12zM653 98h-471q-14 0 -26.5 12t-12.5 25v80q0 13 12.5 25t26.5 12h471q14 0 26.5 -12t12.5 -25v-80q0 -13 -12.5 -25t-26.5 -12z" />
    <glyph glyph-name="greater" unicode="&#x3e;" horiz-adv-x="817" 
d="M641 315l-461 -190q-16 0 -26.5 10t-10.5 27v78q0 25 21 32l389 164l-389 164q-21 7 -21 33v78q0 17 10.5 27t26.5 10l461 -191q33 -18 33 -47v-145q0 -32 -33 -50z" />
    <glyph glyph-name="question" unicode="?" horiz-adv-x="1048" 
d="M649 369q-14 -21 -31 -21h-104q-12 0 -23.5 13t-11.5 26q23 47 71.5 109.5t87 109.5t69 113t30.5 129q0 90 -53.5 147.5t-167.5 57.5q-91 0 -146.5 -58.5t-58.5 -144.5q0 -14 -12 -26.5t-25 -12.5h-94q-13 0 -25 12.5t-12 26.5q1 20 3.5 42t11.5 58.5t24 69t43.5 68
t65 60.5t93.5 41.5t126 16.5q78 0 141 -17.5t103 -44t70 -64t45 -71t24 -71t10.5 -58t1.5 -38.5q-1 -62 -30.5 -130t-64 -116.5t-85.5 -117t-76 -109.5zM444 106q0 41 31 71t72 30q43 0 73.5 -30t30.5 -71q0 -44 -30.5 -75t-73.5 -31q-42 0 -72.5 31t-30.5 75z" />
    <glyph glyph-name="at" unicode="@" horiz-adv-x="1900" 
d="M924 174q92 0 158.5 71.5t66.5 168.5q0 94 -66.5 164.5t-158.5 70.5q-96 0 -163 -70t-67 -165q0 -98 67 -169t163 -71zM1171 -346q-116 -29 -221 -29q-224 0 -409.5 105.5t-291.5 286.5t-106 397q0 161 62.5 307t169.5 252.5t257.5 169.5t317.5 63t317 -63t256.5 -169.5
t169 -252.5t62.5 -307q0 -13 -0.5 -27t-6 -54t-15.5 -73.5t-31.5 -75.5t-51 -71t-77.5 -49.5t-107 -20.5q-8 0 -20.5 1t-48.5 9.5t-67 23.5t-65 47.5t-53 76.5q-33 -51 -72 -84.5t-82 -48.5t-78 -20t-79 -5q-149 0 -254.5 109t-105.5 262q0 151 105.5 257.5t254.5 106.5
q69 0 120.5 -15t127.5 -69v35q0 12 9.5 21.5t21.5 9.5h92q12 0 21.5 -10t9.5 -23v-356q0 -44 15 -91.5t52 -85.5t88 -38q52 0 89.5 25.5t56 67t26.5 82t8 83.5q-1 185 -90.5 340t-247.5 245.5t-350 90.5q-145 0 -273 -53.5t-219 -145t-143.5 -217.5t-52.5 -266
q0 -184 89.5 -337t247.5 -241t351 -88q98 0 221 35q12 0 19.5 -8t7.5 -19v-67q0 -13 -6 -18.5t-21 -10.5z" />
    <glyph glyph-name="A" unicode="A" horiz-adv-x="1228" 
d="M995 25l-77 200h-609l-76 -200q-11 -25 -32 -25h-107q-15 0 -26 11.5t-11 25.5l428 1120q5 11 18 20t29 9h164q16 0 29 -9t18 -20l428 -1120q0 -14 -10.5 -25.5t-25.5 -11.5h-107q-22 0 -33 25zM614 1024l-245 -645h491z" />
    <glyph glyph-name="B" unicode="B" horiz-adv-x="1138" 
d="M311 154h334q110 0 166.5 41t56.5 147t-56.5 148t-166.5 42h-334v-378zM811 856q0 36 -10 65t-26 47t-35.5 31t-39 19t-35.5 9.5t-26 4.5h-10h-318v-346h318q4 0 10.5 0.5t25.5 3.5t36 8.5t38 18.5t36 30t25.5 45.5t10.5 63.5zM180 1186h445q22 0 44.5 -1.5t59.5 -8.5
t68.5 -19t66.5 -35t59 -54.5t40 -80t16 -108.5q0 -208 -160 -258q36 -7 72 -28t69.5 -56t54.5 -92t21 -126q0 -74 -21.5 -130t-59 -91.5t-94 -57.5t-119 -31t-140.5 -9h-422q-13 0 -25 12.5t-12 26.5v1108q0 14 12 26.5t25 12.5z" />
    <glyph glyph-name="C" unicode="C" horiz-adv-x="1427" 
d="M756 -23q-129 0 -246 48.5t-202 131t-135 196.5t-50 239t50 239t135 196t202 130.5t246 48.5q197 0 355 -104.5t230 -274.5q-7 -32 -36 -32h-121q-22 0 -31 18q-61 110 -166.5 175t-230.5 65q-191 0 -328 -133.5t-137 -327.5q0 -93 37.5 -178t100 -147t148.5 -99t179 -37
q125 0 230.5 65t166.5 175q9 18 31 18h121q29 0 36 -33q-72 -170 -230 -274.5t-355 -104.5z" />
    <glyph glyph-name="D" unicode="D" horiz-adv-x="1277" 
d="M600 1032h-289v-878h289q188 0 298 121t110 317t-110 318t-298 122zM592 0h-412q-13 0 -25 12.5t-12 26.5v1108q0 14 12 26.5t25 12.5h412q182 0 316 -78.5t201 -211.5t67 -302q0 -170 -67 -303.5t-201 -212t-316 -78.5z" />
    <glyph glyph-name="E" unicode="E" horiz-adv-x="1032" 
d="M311 154h572q14 0 26.5 -12t12.5 -25v-80q0 -13 -12.5 -25t-26.5 -12h-703q-13 0 -25 12.5t-12 26.5v1108q0 14 12 26.5t25 12.5h703q14 0 26.5 -12t12.5 -25v-80q0 -13 -12.5 -25t-26.5 -12h-572v-377h527q14 0 26.5 -12t12.5 -25v-79q0 -13 -12.5 -25t-26.5 -12h-527
v-348z" />
    <glyph glyph-name="F" unicode="F" horiz-adv-x="1024" 
d="M838 457h-527v-418q0 -14 -12 -26.5t-25 -12.5h-94q-13 0 -25 12.5t-12 26.5v1108q0 14 12 26.5t25 12.5h703q14 0 26.5 -12t12.5 -25v-80q0 -13 -12.5 -25t-26.5 -12h-572v-422h527q14 0 26.5 -12t12.5 -25v-79q0 -13 -12.5 -25t-26.5 -12z" />
    <glyph glyph-name="G" unicode="G" horiz-adv-x="1456" 
d="M1262 993q12 -9 12 -26q0 -18 -14 -29l-68 -49q-12 -8 -21 -8q-12 0 -20 12q-136 160 -395 160q-191 0 -328 -133.5t-137 -327.5q0 -93 37.5 -178t100 -147t148.5 -99t179 -37q78 0 143.5 19t108 50t75.5 68t50 74t28 68t14 50l3 19h-263q-14 0 -26 12t-12 25v80
q0 13 12 25t26 12h392q14 0 26.5 -12t12.5 -25v-119q-16 -102 -55 -184.5t-85.5 -133.5t-108 -88.5t-110 -54.5t-105 -27t-79.5 -11t-47 -1q-129 0 -246 48.5t-202 131t-135 196.5t-50 239t50 239t135 196t202 130.5t246 48.5q97 0 182.5 -20.5t147 -54.5t103 -67.5
t73.5 -70.5z" />
    <glyph glyph-name="H" unicode="H" horiz-adv-x="1257" 
d="M1114 1147v-1108q0 -14 -12 -26.5t-25 -12.5h-94q-13 0 -25 12.5t-12 26.5v416h-635v-416q0 -14 -12 -26.5t-25 -12.5h-94q-13 0 -25 12.5t-12 26.5v1108q0 14 12 26.5t25 12.5h94q13 0 25 -12.5t12 -26.5v-539h635v539q0 14 12 26.5t25 12.5h94q13 0 25 -12.5t12 -26.5z
" />
    <glyph glyph-name="I" unicode="I" 
d="M311 1147v-1108q0 -14 -12 -26.5t-25 -12.5h-94q-13 0 -25 12.5t-12 26.5v1108q0 14 12 26.5t25 12.5h94q13 0 25 -12.5t12 -26.5z" />
    <glyph glyph-name="J" unicode="J" horiz-adv-x="907" 
d="M182 203q98 -72 195 -72q58 0 105 21t72.5 53t38.5 63t13 56v823q0 14 12 26.5t25 12.5h94q13 0 25 -12.5t12 -26.5v-823q0 -152 -113 -249.5t-296 -97.5q-193 0 -318 129q-6 9 -6 19q0 26 18 37l72 43q12 6 25 6q10 0 26 -8z" />
    <glyph glyph-name="K" unicode="K" horiz-adv-x="1093" 
d="M475 604l588 -567q0 -14 -11 -25.5t-26 -11.5h-156q-14 0 -24 10l-535 516v-487q0 -14 -12 -26.5t-25 -12.5h-94q-13 0 -25 12.5t-12 26.5v1108q0 14 12 26.5t25 12.5h94q13 0 25 -12.5t12 -26.5v-475l490 504q10 10 24 10h144q15 0 26 -11.5t11 -25.5z" />
    <glyph glyph-name="L" unicode="L" horiz-adv-x="993" 
d="M883 0h-703q-13 0 -25 12.5t-12 26.5v1108q0 14 12 26.5t25 12.5h94q13 0 25 -12.5t12 -26.5v-993h572q14 0 26.5 -12t12.5 -25v-80q0 -13 -12.5 -25t-26.5 -12z" />
    <glyph glyph-name="M" unicode="M" horiz-adv-x="1548" 
d="M786 229h-24q-5 0 -8 1t-6 3t-4 3.5t-3.5 5t-3.5 4.5l-426 682v-889q0 -14 -12 -26.5t-25 -12.5h-94q-13 0 -25 12.5t-12 26.5v1108q0 14 12 26.5t25 12.5h148q15 0 26 -15l420 -665l420 665q11 15 27 15h147q13 0 25 -12.5t12 -26.5v-1108q0 -14 -12 -26.5t-25 -12.5
h-94q-13 0 -25 12.5t-12 26.5v889l-426 -682q-1 -1 -3 -4t-3 -4l-3 -3t-4 -3t-5 -2t-7 -1z" />
    <glyph glyph-name="N" unicode="N" horiz-adv-x="1314" 
d="M991 14l-680 897v-872q0 -14 -12 -26.5t-25 -12.5h-94q-13 0 -25 12.5t-12 26.5v1108q0 14 12 26.5t25 12.5h117q16 0 27 -15l680 -895v871q0 14 11.5 26.5t24.5 12.5h95q13 0 24.5 -12.5t11.5 -26.5v-1108q0 -14 -11.5 -26.5t-24.5 -12.5h-117q-16 0 -27 14z" />
    <glyph glyph-name="O" unicode="O" horiz-adv-x="1499" 
d="M750 1206q171 0 315 -82t227.5 -223.5t83.5 -308.5t-83.5 -308.5t-227.5 -224t-315 -82.5t-315.5 82.5t-228 224t-83.5 308.5t83.5 308.5t228 223.5t315.5 82zM750 131q123 0 228.5 62t167.5 168.5t62 230.5q0 128 -62 234.5t-167 166.5t-229 60t-229 -60t-167.5 -166.5
t-62.5 -234.5q0 -93 37 -178t98.5 -147t146.5 -99t177 -37z" />
    <glyph glyph-name="P" unicode="P" horiz-adv-x="1089" 
d="M860 774q0 135 -69.5 196.5t-186.5 61.5h-293v-514h293q118 0 187 60.5t69 195.5zM180 1186h420q22 0 43.5 -1t67.5 -9.5t84 -23t83 -45t76.5 -72.5t52.5 -109t21 -150q0 -66 -13 -121.5t-33.5 -95t-51 -71.5t-60.5 -51.5t-67 -34t-64.5 -21.5t-60 -11t-47 -4.5
t-31.5 -0.5h-289v-326q0 -14 -12 -26.5t-25 -12.5h-94q-13 0 -25 12.5t-12 26.5v1108q0 14 12 26.5t25 12.5z" />
    <glyph glyph-name="Q" unicode="Q" horiz-adv-x="1499" 
d="M750 131q123 0 228.5 62t167.5 168.5t62 230.5q0 128 -62 234.5t-167 166.5t-229 60t-229 -60t-167.5 -166.5t-62.5 -234.5q0 -93 37 -178t98.5 -147t146.5 -99t177 -37zM899 -219l-113 196h-36q-171 0 -315.5 82.5t-228 224t-83.5 308.5t83.5 308.5t228 223.5t315.5 82
t315 -82t227.5 -223.5t83.5 -308.5q0 -207 -125 -369.5t-321 -220.5l110 -209q0 -31 -28 -31h-84q-15 0 -29 19z" />
    <glyph glyph-name="R" unicode="R" horiz-adv-x="1085" 
d="M311 1032v-514h293q118 0 187 60.5t69 195.5t-69.5 196.5t-186.5 61.5h-293zM733 379l268 -344q0 -35 -34 -35h-115q-18 0 -27 12l-274 353h-240v-326q0 -14 -12 -26.5t-25 -12.5h-94q-13 0 -25 12.5t-12 26.5v1108q0 14 12 26.5t25 12.5h420q22 0 43.5 -1t67.5 -9.5
t84 -23t83 -45t76.5 -72.5t52.5 -109t21 -150q0 -79 -19 -144t-48 -106.5t-70 -72.5t-78 -47.5t-80 -26.5z" />
    <glyph glyph-name="S" unicode="S" horiz-adv-x="1058" 
d="M877 1061q12 -12 12 -23q0 -17 -10 -24l-68 -51q-14 -11 -27 -11q-7 0 -26 15q-110 86 -277 86q-91 0 -155 -44t-64 -126q0 -54 30 -94.5t78.5 -65t111 -48t127.5 -41.5t127.5 -47.5t111 -64.5t78.5 -94t30 -135q0 -36 -13 -75.5t-45 -83.5t-79.5 -78t-125.5 -56.5
t-173 -22.5q-271 0 -424 170q-6 15 -6 27q0 19 14 33l62 49q8 8 27 8q9 0 22 -10q142 -123 315 -123q61 0 109.5 15t75.5 36.5t44.5 47.5t23 45t5.5 32q0 39 -23.5 70t-64 53t-92.5 41t-109.5 38t-115 40.5t-109.5 53t-92.5 70t-64 96t-23.5 128.5q0 36 10 74t38 81.5
t71 76.5t116.5 55t166.5 22q138 0 232.5 -42.5t148.5 -102.5z" />
    <glyph glyph-name="T" unicode="T" horiz-adv-x="1142" 
d="M131 1186h881q14 0 26.5 -12t12.5 -25v-80q0 -13 -12.5 -25t-26.5 -12h-357v-993q0 -14 -12 -26.5t-25 -12.5h-94q-13 0 -25 12.5t-12 26.5v993h-356q-14 0 -26.5 12t-12.5 25v80q0 13 12.5 25t26.5 12z" />
    <glyph glyph-name="U" unicode="U" horiz-adv-x="1224" 
d="M612 -23q-16 0 -36 1t-70.5 10.5t-95 26t-98 52.5t-91.5 84.5t-64 127.5t-26 176v692q0 14 12 26.5t25 12.5h94q13 0 25 -12.5t12 -26.5v-692q0 -14 1 -29t5 -43t13.5 -53.5t23.5 -55.5t38 -54t55 -45t76.5 -32.5t100.5 -11.5q62 0 112.5 15.5t82.5 39t55.5 57t35.5 63
t18.5 63.5t8 52t1.5 34v692q0 14 12 26.5t25 12.5h94q13 0 25 -12.5t12 -26.5v-692q0 -97 -26 -176t-64 -127.5t-92 -84.5t-98.5 -52.5t-95 -26t-70.5 -10.5t-36 -1z" />
    <glyph glyph-name="V" unicode="V" horiz-adv-x="1228" 
d="M614 162l381 999q11 25 33 25h107q15 0 25.5 -11.5t10.5 -25.5l-428 -1120q-5 -11 -18 -20t-29 -9h-164q-16 0 -29 9t-18 20l-428 1120q0 14 11 25.5t26 11.5h107q21 0 32 -25z" />
    <glyph glyph-name="W" unicode="W" horiz-adv-x="1720" 
d="M803 1186h115q23 0 36 -29l287 -983l254 987q11 25 33 25h100q15 0 26 -11.5t11 -25.5l-287 -1120q-5 -11 -18 -20t-27 -9h-182q-14 0 -27 9t-18 20l-246 850l-246 -850q-5 -11 -18 -20t-27 -9h-182q-14 0 -27 9t-18 20l-287 1120q0 14 11 25.5t26 11.5h101q21 0 32 -25
l254 -987l287 983q13 29 37 29z" />
    <glyph glyph-name="X" unicode="X" horiz-adv-x="1040" 
d="M520 436l-266 -411q-17 -25 -33 -25h-127q-15 0 -26 11.5t-11 25.5l361 555l-361 557q0 14 11 25.5t26 11.5h127q16 0 33 -25l266 -413l266 413q17 25 33 25h127q15 0 26 -11.5t11 -25.5l-360 -557l360 -555q0 -14 -11 -25.5t-26 -11.5h-127q-16 0 -33 25z" />
    <glyph glyph-name="Y" unicode="Y" horiz-adv-x="1097" 
d="M633 399v-360q0 -14 -12 -26.5t-25 -12.5h-94q-13 0 -25 12.5t-12 26.5v360l-408 750q0 14 11 25.5t26 11.5h113q19 0 33 -25l309 -567l309 567q14 25 33 25h113q15 0 25.5 -11.5t10.5 -25.5z" />
    <glyph glyph-name="Z" unicode="Z" horiz-adv-x="1067" 
d="M100 182l664 850h-610q-14 0 -26.5 12t-12.5 25v80q0 13 12.5 25t26.5 12h761q14 0 26.5 -12t12.5 -25v-125q0 -8 -8 -20l-665 -850h655q14 0 26.5 -12t12.5 -25v-80q0 -13 -12.5 -25t-26.5 -12h-805q-14 0 -26.5 12t-12.5 25v125q0 8 8 20z" />
    <glyph glyph-name="bracketleft" unicode="[" horiz-adv-x="786" 
d="M180 1473h424q14 0 26.5 -12t12.5 -25v-80q0 -13 -12.5 -25t-26.5 -12h-293v-1466h293q14 0 26.5 -12t12.5 -25v-80q0 -13 -12.5 -25t-26.5 -12h-424q-13 0 -25 12.5t-12 26.5v1696q0 14 12 26.5t25 12.5z" />
    <glyph glyph-name="backslash" unicode="\" horiz-adv-x="1150" 
d="M319 1448l689 -1712q0 -14 -11 -25.5t-26 -11.5h-107q-22 0 -33 25l-688 1712q0 14 11 25.5t26 11.5h107q21 0 32 -25z" />
    <glyph glyph-name="bracketright" unicode="]" horiz-adv-x="786" 
d="M182 1473h424q13 0 25 -12.5t12 -26.5v-1696q0 -14 -12 -26.5t-25 -12.5h-424q-14 0 -26.5 12t-12.5 25v80q0 13 12.5 25t26.5 12h293v1466h-293q-14 0 -26.5 12t-12.5 25v80q0 13 12.5 25t26.5 12z" />
    <glyph glyph-name="asciicircum" unicode="^" horiz-adv-x="843" 
d="M338 1186h168q24 0 41 -29l153 -274q0 -18 -13.5 -31.5t-31.5 -13.5h-84q-24 0 -39 26l-110 193l-111 -193q-15 -26 -39 -26h-84q-18 0 -31.5 13.5t-13.5 31.5l154 274q17 29 41 29z" />
    <glyph glyph-name="underscore" unicode="_" horiz-adv-x="835" 
d="M653 -233h-471q-14 0 -26.5 11.5t-12.5 24.5v76q0 13 12.5 25t26.5 12h471q14 0 26.5 -12t12.5 -25v-76q0 -13 -12.5 -24.5t-26.5 -11.5z" />
    <glyph glyph-name="grave" unicode="`" horiz-adv-x="557" 
d="M260 981l-117 172q0 13 10.5 23t24.5 10h109q17 0 30 -21l97 -168q0 -14 -10 -24t-25 -10h-88q-13 0 -31 18z" />
    <glyph glyph-name="a" unicode="a" horiz-adv-x="1212" 
d="M1069 829v-790q0 -14 -12 -26.5t-25 -12.5h-94q-13 0 -25 12.5t-12 26.5v65q-45 -45 -96 -73t-103.5 -38.5t-81.5 -13t-71 -2.5q-121 0 -224 61t-163 166.5t-60 229.5t60 229.5t163 166.5t224 61q42 0 71 -2.5t81.5 -13t103.5 -38.5t96 -73v65q0 14 12 26.5t25 12.5h94
q13 0 25 -12.5t12 -26.5zM584 131q134 0 225.5 85.5t91.5 217.5t-91.5 217.5t-225.5 85.5q-132 0 -223 -85.5t-91 -217.5t91 -217.5t223 -85.5z" />
    <glyph glyph-name="b" unicode="b" horiz-adv-x="1212" 
d="M311 1186v-422q45 45 96 73t104 38.5t82 13t71 2.5q184 0 315 -134t131 -323t-131 -323t-315 -134q-42 0 -71 2.5t-82 13t-104 38.5t-96 73v-65q0 -14 -12 -26.5t-25 -12.5h-94q-13 0 -25 12.5t-12 26.5v1147q0 14 12 26.5t25 12.5h94q13 0 25 -12.5t12 -26.5zM629 131
q132 0 222.5 85.5t90.5 217.5t-90.5 217.5t-222.5 85.5q-131 0 -222.5 -82t-95.5 -209v-26q4 -126 95.5 -207.5t222.5 -81.5z" />
    <glyph glyph-name="c" unicode="c" horiz-adv-x="1085" 
d="M573 891q151 0 265.5 -69.5t165.5 -200.5q-7 -31 -35 -31h-113q-19 0 -29 16q-34 64 -102.5 97.5t-155.5 33.5q-122 0 -210.5 -86.5t-88.5 -216.5t88.5 -216.5t210.5 -86.5q87 0 155.5 33.5t102.5 97.5q10 17 29 17h113q28 0 35 -31q-52 -131 -166 -201t-265 -70
q-196 0 -333.5 134t-137.5 323t137.5 323t333.5 134z" />
    <glyph glyph-name="d" unicode="d" horiz-adv-x="1212" 
d="M901 764v422q0 14 12 26.5t25 12.5h94q13 0 25 -12.5t12 -26.5v-1147q0 -14 -12 -26.5t-25 -12.5h-94q-13 0 -25 12.5t-12 26.5v65q-45 -45 -96 -73t-103.5 -38.5t-81.5 -13t-71 -2.5q-121 0 -224 61t-163 166.5t-60 229.5t60 229.5t163 166.5t224 61q42 0 71 -2.5
t81.5 -13t103.5 -38.5t96 -73zM584 131q130 0 221.5 81.5t95.5 207.5v26q-4 127 -95 209t-222 82q-132 0 -223 -85.5t-91 -217.5t91 -217.5t223 -85.5z" />
    <glyph glyph-name="e" unicode="e" horiz-adv-x="1085" 
d="M270 504h561q-33 116 -111 174.5t-169 58.5t-169.5 -58.5t-111.5 -174.5zM758 166q8 4 20 4q13 0 25 -18l47 -66q6 -8 6 -23q0 -25 -25 -36q-137 -50 -268 -50q-199 0 -330 127t-131 330q0 192 127 324.5t322 132.5t321.5 -132.5t126.5 -324.5v-31q0 -14 -11.5 -26
t-24.5 -12h-693q12 -53 36.5 -94.5t54 -67.5t65.5 -42.5t69.5 -23t69.5 -6.5q93 0 193 35z" />
    <glyph glyph-name="f" unicode="f" horiz-adv-x="786" 
d="M109 868h157v58q0 92 26.5 160t60.5 101t80 52.5t71 23t47 3.5q45 0 94 -6q14 -3 25.5 -14t11.5 -23v-78q0 -12 -12.5 -23.5t-24.5 -11.5l-63 2q-41 0 -71.5 -18.5t-44.5 -45t-22 -53t-9 -45.5l-1 -18v-64h211q14 0 26.5 -12t12.5 -25v-79q0 -13 -12.5 -25t-26.5 -12
h-211v-676q0 -14 -12 -26.5t-25 -12.5h-94q-13 0 -25 12.5t-12 26.5v676h-157q-14 0 -26.5 12t-12.5 25v79q0 13 12.5 25t26.5 12z" />
    <glyph glyph-name="g" unicode="g" horiz-adv-x="1212" 
d="M584 737q-132 0 -223 -85.5t-91 -217.5t91 -217.5t223 -85.5q131 0 222 82t95 209v27q-4 126 -95 207t-222 81zM274 -332q-20 9 -20 33q0 12 4 20l39 68q8 14 29 14q8 0 20 -4q117 -53 246 -53q48 0 97 13t99 41.5t81.5 85.5t31.5 134v84q-45 -45 -96 -73t-103.5 -38.5
t-81.5 -13t-71 -2.5q-121 0 -224 61t-163 166.5t-60 229.5t60 229.5t163 166.5t224 61q42 0 71 -2.5t81.5 -13t103.5 -38.5t96 -73v65q0 14 12 26.5t25 12.5h94q13 0 25 -12.5t12 -26.5v-813q0 -123 -64.5 -220.5t-173.5 -150.5t-241 -53q-172 0 -316 76z" />
    <glyph glyph-name="h" unicode="h" horiz-adv-x="1081" 
d="M791 39v448q0 250 -211 250q-66 0 -120.5 -29t-85 -71.5t-47 -84.5t-16.5 -75v-438q0 -14 -12 -26.5t-25 -12.5h-94q-13 0 -25 12.5t-12 26.5v1147q0 14 12 26.5t25 12.5h94q13 0 25 -12.5t12 -26.5v-424q36 45 79 74t88 39.5t70.5 13t59.5 2.5q70 0 127.5 -17.5
t93 -43.5t61.5 -63t38.5 -68t20 -66.5t8.5 -51.5t1 -30v-512q0 -14 -11.5 -26.5t-24.5 -12.5h-95q-13 0 -24.5 12.5t-11.5 26.5z" />
    <glyph glyph-name="i" unicode="i" 
d="M125 1079q0 44 30.5 75.5t71.5 31.5q43 0 74 -31.5t31 -75.5q0 -41 -31 -70.5t-74 -29.5q-41 0 -71.5 29.5t-30.5 70.5zM311 829v-790q0 -14 -12 -26.5t-25 -12.5h-94q-13 0 -25 12.5t-12 26.5v790q0 14 12 26.5t25 12.5h94q13 0 25 -12.5t12 -26.5z" />
    <glyph glyph-name="j" unicode="j" 
d="M125 1079q0 44 30.5 75.5t71.5 31.5q43 0 74 -31.5t31 -75.5q0 -41 -31 -70.5t-74 -29.5q-41 0 -71.5 29.5t-30.5 70.5zM-61 -356q-14 0 -26.5 12t-12.5 25v79q0 13 12.5 25t26.5 12l34 -2q48 0 83 18t51 43.5t25 51t10 43.5l1 18v860q0 14 12 26.5t25 12.5h94
q13 0 25 -12.5t12 -26.5v-858q0 -68 -14 -122t-34 -87.5t-50 -58t-54.5 -36t-55.5 -18t-44 -7t-30 -0.5q-61 0 -90 2z" />
    <glyph glyph-name="k" unicode="k" horiz-adv-x="950" 
d="M492 442l409 -399q0 -19 -12 -31t-29 -12h-139q-5 0 -9.5 1t-9 4.5t-6.5 5.5l-7.5 7.5l-6.5 6.5l-371 356v-342q0 -14 -12 -26.5t-25 -12.5h-94q-13 0 -25 12.5t-12 26.5v1149q0 14 12 26.5t25 12.5h94q13 0 25 -12.5t12 -26.5v-688l344 344l5.5 5.5l6 6t5.5 5t6.5 4.5
t7 2t8.5 1h140q17 0 28.5 -12t11.5 -31z" />
    <glyph glyph-name="l" unicode="l" 
d="M311 1186v-1147q0 -14 -12 -26.5t-25 -12.5h-94q-13 0 -25 12.5t-12 26.5v1147q0 14 12 26.5t25 12.5h94q13 0 25 -12.5t12 -26.5z" />
    <glyph glyph-name="m" unicode="m" horiz-adv-x="1609" 
d="M733 39v475q0 24 -5 50.5t-19 58t-36 56.5t-60.5 41.5t-88.5 16.5q-55 0 -96.5 -21.5t-63 -51.5t-34.5 -70t-16 -68t-3 -55v-432q0 -14 -12 -26.5t-25 -12.5h-94q-13 0 -25 12.5t-12 26.5v790q0 14 12 26.5t25 12.5h94q13 0 25 -12.5t12 -26.5v-67q84 129 262 129
q157 0 263 -182q86 182 299 182q77 0 139.5 -23t101.5 -59t64.5 -83t36 -91.5t10.5 -87.5v-508q0 -14 -12 -26.5t-25 -12.5h-94q-13 0 -25 12.5t-12 26.5v475q0 24 -4.5 50.5t-18.5 58t-35.5 56.5t-59 41.5t-85.5 16.5q-53 0 -93.5 -18t-63 -44.5t-36.5 -63t-18 -66.5
t-4 -62v-444q0 -14 -12 -26.5t-25 -12.5h-94q-13 0 -25 12.5t-12 26.5z" />
    <glyph glyph-name="n" unicode="n" horiz-adv-x="1081" 
d="M791 39v448q0 250 -211 250q-66 0 -120.5 -29t-85 -71.5t-47 -84.5t-16.5 -75v-438q0 -14 -12 -26.5t-25 -12.5h-94q-13 0 -25 12.5t-12 26.5v790q0 14 12 26.5t25 12.5h94q13 0 25 -12.5t12 -26.5v-67q36 45 79 74t88 39.5t70.5 13t59.5 2.5q70 0 127.5 -17.5t93 -43.5
t61.5 -63t38.5 -68t20 -66.5t8.5 -51.5t1 -30v-512q0 -14 -11.5 -26.5t-24.5 -12.5h-95q-13 0 -24.5 12.5t-11.5 26.5z" />
    <glyph glyph-name="o" unicode="o" horiz-adv-x="1159" 
d="M580 891q199 0 338 -134t139 -323t-139 -323t-338 -134t-338.5 134t-139.5 323t139.5 323t338.5 134zM580 131q130 0 219.5 86t89.5 217t-89.5 217t-219.5 86t-220 -86t-90 -217t90 -217t220 -86z" />
    <glyph glyph-name="p" unicode="p" horiz-adv-x="1212" 
d="M311 104v-423q0 -14 -12 -26.5t-25 -12.5h-94q-13 0 -25 12.5t-12 26.5v1148q0 14 12 26.5t25 12.5h94q13 0 25 -12.5t12 -26.5v-65q45 45 96 73t104 38.5t82 13t71 2.5q184 0 315 -134t131 -323t-131 -323t-315 -134q-42 0 -71 2.5t-82 13t-104 38.5t-96 73zM629 737
q-131 0 -222.5 -81t-95.5 -207v-27q4 -127 95.5 -209t222.5 -82q132 0 222.5 85.5t90.5 217.5t-90.5 217.5t-222.5 85.5z" />
    <glyph glyph-name="q" unicode="q" horiz-adv-x="1212" 
d="M901 -319v423q-45 -45 -96 -73t-103.5 -38.5t-81.5 -13t-71 -2.5q-121 0 -224 61t-163 166.5t-60 229.5t60 229.5t163 166.5t224 61q42 0 71 -2.5t81.5 -13t103.5 -38.5t96 -73v65q0 14 12 26.5t25 12.5h94q13 0 25 -12.5t12 -26.5v-1148q0 -14 -12 -26.5t-25 -12.5h-94
q-13 0 -25 12.5t-12 26.5zM584 737q-132 0 -223 -85.5t-91 -217.5t91 -217.5t223 -85.5q131 0 222 82t95 209v27q-4 126 -95 207t-222 81z" />
    <glyph glyph-name="r" unicode="r" horiz-adv-x="763" 
d="M655 874q14 0 26.5 -11.5t12.5 -24.5v-80q0 -13 -12.5 -25t-26.5 -12q-68 -2 -126.5 -28.5t-97.5 -68t-67 -93.5t-40.5 -103t-12.5 -98v-291q0 -14 -12 -26.5t-25 -12.5h-94q-13 0 -25 12.5t-12 26.5v790q0 14 12 26.5t25 12.5h94q13 0 25 -12.5t12 -26.5v-137
q36 51 82.5 88.5t83 54.5t79.5 27t61 11t38 1z" />
    <glyph glyph-name="s" unicode="s" horiz-adv-x="839" 
d="M78 109q-6 6 -6 18q0 17 10 27l63 41q12 6 25 6q14 0 20 -6q30 -32 80 -50t84 -20l35 -2q213 0 213 104q0 37 -29 62.5t-75.5 40.5t-103 28.5t-113 33t-103 47.5t-75.5 78.5t-29 119.5q0 44 21.5 88t62 81.5t107 61t147.5 23.5q157 0 262 -82q16 -10 16 -31
q0 -18 -12 -30l-55 -56q-12 -6 -27 -6q-11 0 -21 6q-90 53 -165 53q-40 0 -75 -8.5t-64 -34.5t-29 -67t29 -69t75.5 -44.5t102.5 -30.5t112 -32.5t102.5 -45.5t75.5 -75t29 -115q0 -90 -97.5 -168t-262.5 -78q-114 0 -197 38t-133 94z" />
    <glyph glyph-name="t" unicode="t" horiz-adv-x="786" 
d="M266 868v283q0 25 29 35l102 28q13 0 25 -12t12 -26v-308h211q14 0 26.5 -12t12.5 -25v-79q0 -13 -12.5 -25t-26.5 -12h-211v-396q0 -20 1.5 -35t11.5 -42.5t28.5 -45.5t56 -32t89.5 -14h24q12 0 24.5 -11.5t12.5 -23.5v-78q0 -12 -12.5 -23.5t-24.5 -11.5q-27 -2 -94 -2
q-16 0 -29.5 0.5t-45 7t-56 18t-55 36t-51 58.5t-34.5 88t-14 122v385h-157q-14 0 -26.5 12t-12.5 25v79q0 13 12.5 25t26.5 12h157z" />
    <glyph glyph-name="u" unicode="u" horiz-adv-x="1081" 
d="M541 -23q-78 0 -141.5 17.5t-104.5 45.5t-72.5 67t-48 76t-26.5 79.5t-12.5 70.5t-2.5 56v440q0 14 12 26.5t25 12.5h94q13 0 25 -12.5t12 -26.5v-448q0 -27 4 -55t19.5 -64.5t40 -64t70 -47t106.5 -19.5t106.5 19.5t70 47t39.5 64t19 64.5t4 55v448q0 14 12 26.5
t25 12.5h94q13 0 25 -12.5t12 -26.5v-440q0 -28 -2.5 -56t-12.5 -70.5t-26.5 -79.5t-47.5 -76t-72.5 -66.5t-104.5 -45.5t-141 -18z" />
    <glyph glyph-name="v" unicode="v" horiz-adv-x="1003" 
d="M578 0h-152q-16 0 -29 9t-18 20l-318 802q0 14 11 25.5t26 11.5h109q23 0 33 -24l262 -682l262 682q10 24 33 24h108q15 0 26 -11.5t11 -25.5l-317 -802q-5 -11 -18 -20t-29 -9z" />
    <glyph glyph-name="w" unicode="w" horiz-adv-x="1462" 
d="M662 868h139q29 0 43 -34l207 -641l176 651q10 24 33 24h104q15 0 26 -12t11 -27l-240 -802q-3 -10 -17 -18.5t-28 -8.5h-127q-16 0 -29 8.5t-16 18.5l-213 639l-213 -639q-3 -10 -16 -18.5t-29 -8.5h-127q-14 0 -28 8.5t-17 18.5l-240 802q0 15 11 27t26 12h105
q23 0 33 -24l176 -651l206 641q14 34 44 34z" />
    <glyph glyph-name="x" unicode="x" horiz-adv-x="876" 
d="M438 307l-192 -282q-17 -25 -33 -25h-115q-15 0 -26 11.5t-11 25.5l271 399l-269 395q0 14 11 25.5t26 11.5h115q17 0 33 -24l190 -279l191 279q16 24 33 24h114q15 0 26 -11.5t11 -25.5l-268 -395l270 -399q0 -14 -11 -25.5t-26 -11.5h-114q-16 0 -33 25z" />
    <glyph glyph-name="y" unicode="y" horiz-adv-x="1003" 
d="M154 -356q-14 0 -26.5 12t-12.5 25v77q0 13 12.5 25t26.5 12h18q92 0 151.5 32.5t90.5 113.5l-353 890q0 14 11 25.5t26 11.5h109q23 0 33 -24l262 -682l262 682q10 24 33 24h108q15 0 26 -11.5t11 -25.5l-371 -931q-104 -258 -364 -258q-30 0 -53 2z" />
    <glyph glyph-name="z" unicode="z" horiz-adv-x="927" 
d="M119 186l502 529h-471q-14 0 -26.5 12t-12.5 25v79q0 13 12.5 25t26.5 12h628q14 0 26.5 -12t12.5 -25v-126q0 -9 -8 -21l-504 -530h473q14 0 26.5 -12t12.5 -25v-80q0 -13 -12.5 -25t-26.5 -12h-628q-14 0 -26.5 12t-12.5 25v129q0 8 8 20z" />
    <glyph glyph-name="braceleft" unicode="{" horiz-adv-x="821" 
d="M178 516q-12 0 -23.5 10.5t-11.5 22.5v74q0 12 11.5 22t23.5 10q44 3 76.5 28t47.5 59t24 67.5t10 56.5l2 23v278q0 62 12 111.5t29.5 81t43.5 54t48.5 34t51 17.5t43.5 7t34 1h39q14 0 26.5 -12t12.5 -25v-80q0 -13 -12.5 -25t-26.5 -12q-62 -5 -97.5 -47.5
t-35.5 -114.5v-323q0 -54 -19.5 -101.5t-47.5 -77t-52.5 -47t-40.5 -22.5q16 -5 40.5 -22.5t52.5 -47t47.5 -77t19.5 -101.5v-324q0 -72 35.5 -114t97.5 -47q14 0 26.5 -12t12.5 -25v-80q0 -13 -12.5 -25t-26.5 -12h-39q-28 0 -51 2.5t-65.5 19t-71.5 46t-51.5 91
t-22.5 146.5v279q0 9 -1.5 24t-10.5 54t-24 69.5t-47.5 56.5t-76.5 29z" />
    <glyph glyph-name="bar" unicode="|" 
d="M311 1434v-1696q0 -14 -12 -26.5t-25 -12.5h-94q-13 0 -25 12.5t-12 26.5v1696q0 14 12 26.5t25 12.5h94q13 0 25 -12.5t12 -26.5z" />
    <glyph glyph-name="braceright" unicode="}" horiz-adv-x="821" 
d="M643 516q-44 -3 -76.5 -28t-47.5 -58.5t-24 -67t-11 -56.5l-1 -23v-279q0 -85 -22.5 -146.5t-51.5 -91t-71.5 -46t-65.5 -19t-51 -2.5h-39q-14 0 -26.5 12t-12.5 25v80q0 13 12.5 25t26.5 12q62 5 97.5 47t35.5 114v324q0 54 19.5 101.5t47.5 77t52.5 47t40.5 22.5
q-16 5 -40.5 22.5t-52.5 47t-47.5 77t-19.5 101.5v323q0 72 -35.5 114.5t-97.5 47.5q-14 0 -26.5 12t-12.5 25v80q0 13 12.5 25t26.5 12h39q19 0 34 -1t43.5 -7t51 -17.5t48.5 -34t43.5 -54t29.5 -81t12 -111.5v-278q0 -9 1.5 -24t10.5 -54.5t24 -70t47.5 -56.5t76.5 -29
q12 0 23.5 -10t11.5 -22v-74q0 -12 -11.5 -22.5t-23.5 -10.5z" />
    <glyph glyph-name="asciitilde" unicode="~" horiz-adv-x="1013" 
d="M682 291q-61 0 -174.5 47t-157.5 47q-60 0 -67 -76q-6 -20 -29 -20h-78q-15 0 -24 10t-9 25q7 58 25.5 100.5t39.5 64t48 33.5t43 14.5t33 2.5q52 0 118.5 -24t124 -47.5t89.5 -23.5q60 0 67 76q6 21 29 21h78q15 0 23.5 -10t8.5 -25q-7 -58 -25.5 -100.5t-39 -64
t-47.5 -33.5t-43 -14.5t-33 -2.5z" />
    <glyph glyph-name="uni00A0" unicode="&#xa0;" horiz-adv-x="329" 
 />
    <glyph glyph-name="exclamdown" unicode="&#xa1;" horiz-adv-x="493" 
d="M143 1079q0 44 30.5 75.5t72.5 31.5q43 0 73.5 -31.5t30.5 -75.5q0 -41 -30.5 -70.5t-73.5 -29.5q-42 0 -72.5 29.5t-30.5 70.5zM317 829l13 -790q0 -14 -12 -26.5t-25 -12.5h-94q-13 0 -25 12.5t-12 26.5l12 790q0 14 12 26.5t25 12.5h70q13 0 24.5 -12.5t11.5 -26.5z
" />
    <glyph glyph-name="cent" unicode="&#xa2;" horiz-adv-x="1505" 
d="M872 1380v-182q166 -25 296 -124.5t194 -246.5q-7 -32 -37 -32h-121q-21 0 -30 18q-61 109 -167 174.5t-231 65.5q-191 0 -328 -133.5t-137 -327.5q0 -93 37.5 -178t100 -147t148.5 -99t179 -37q125 0 231 65.5t167 174.5q9 18 30 18h121q30 0 37 -33
q-63 -149 -193.5 -248t-296.5 -122v-183q0 -14 -11.5 -26.5t-24.5 -12.5h-95q-13 0 -24.5 12.5t-11.5 26.5v179q-117 13 -221 66t-179 133t-118.5 187t-43.5 224q0 155 74 289t202.5 219t285.5 102v178q0 14 11.5 26.5t24.5 12.5h95q13 0 24.5 -12.5t11.5 -26.5z" />
    <glyph glyph-name="sterling" unicode="&#xa3;" horiz-adv-x="1234" 
d="M1049 788q0 -14 -12 -26t-25 -12h-94q-13 0 -25 12t-12 26v9q0 120 -55 188t-152 68q-187 0 -187 -179q0 -42 9 -87.5t17.5 -72t27 -75t24.5 -64.5h185q14 0 26 -11.5t12 -24.5v-80q0 -13 -12 -25t-26 -12h-185q-31 -137 -125 -268h613q14 0 26.5 -12t12.5 -25v-80
q0 -13 -12.5 -25t-26.5 -12h-871q-14 0 -26.5 12t-12.5 25v80q0 13 12.5 25t26.5 12h84q7 7 19 23.5t46.5 85.5t65.5 159h-168q-14 0 -26.5 12t-12.5 25v80q0 13 12.5 24.5t26.5 11.5h172q-52 121 -67 180t-15 119q0 19 1.5 37t9 53.5t20.5 65t39.5 63.5t62.5 57.5
t93.5 39.5t128.5 16q70 0 127.5 -18t95.5 -46t66.5 -68t44 -77.5t25.5 -80.5t12.5 -71.5t3.5 -56.5z" />
    <glyph glyph-name="currency" unicode="&#xa4;" horiz-adv-x="987" 
d="M494 221q79 0 132.5 53.5t53.5 133.5t-53 133t-133 53t-133.5 -53.5t-53.5 -132.5q0 -80 53.5 -133.5t133.5 -53.5zM494 94q-52 0 -129 23l-41 -88q-17 -29 -45 -29h-91q-21 0 -33 13t-12 32l88 170q-71 96 -71 193q0 96 71 192l-88 170q0 19 12 32t33 13h91q28 0 45 -29
l41 -88q77 23 129 23t129 -23l41 88q17 29 45 29h90q21 0 33 -13t12 -32l-88 -170q71 -96 71 -192q0 -97 -71 -193l88 -170q0 -19 -12 -32t-33 -13h-90q-28 0 -45 29l-41 88q-77 -23 -129 -23z" />
    <glyph glyph-name="yen" unicode="&#xa5;" horiz-adv-x="1269" 
d="M918 154h-199v-115q0 -14 -12 -26.5t-25 -12.5h-94q-13 0 -25 12.5t-12 26.5v115h-199q-14 0 -25.5 10t-11.5 22v74q0 13 11.5 24t25.5 11h199v104l-29 52h-170q-14 0 -25.5 10t-11.5 22v74q0 13 11.5 24t25.5 11h94l-303 557q0 14 11 25.5t26 11.5h113q19 0 33 -25
l309 -567l309 567q14 25 33 25h113q15 0 25.5 -11.5t10.5 -25.5l-303 -557h95q14 0 25 -11t11 -24v-74q0 -12 -11 -22t-25 -10h-173l-26 -52v-104h199q14 0 25 -11t11 -24v-74q0 -12 -11 -22t-25 -10z" />
    <glyph glyph-name="brokenbar" unicode="&#xa6;" 
d="M311 1434v-658q0 -14 -12 -26.5t-25 -12.5h-94q-13 0 -25 12.5t-12 26.5v658q0 14 12 26.5t25 12.5h94q13 0 25 -12.5t12 -26.5zM311 395v-657q0 -14 -12 -26.5t-25 -12.5h-94q-13 0 -25 12.5t-12 26.5v657q0 14 12 26.5t25 12.5h94q13 0 25 -12.5t12 -26.5z" />
    <glyph glyph-name="section" unicode="&#xa7;" horiz-adv-x="1067" 
d="M479 -23q-114 0 -196 38t-133 94q-7 7 -7 18q0 16 11 27l63 41q12 6 25 6q14 0 20 -6q30 -32 80 -50t84 -20l35 -2q213 0 213 104q0 37 -29 63t-76 42t-103.5 30.5t-112.5 34.5t-103 48t-76 77t-29 115q0 52 29.5 103.5t85.5 88.5q-31 57 -31 123q0 44 21.5 88t62 81.5
t107 61t147.5 23.5q157 0 262 -82q17 -10 17 -30q0 -19 -12 -31l-56 -55q-14 -7 -26 -7q-9 0 -21 7q-90 53 -166 53q-39 0 -74.5 -8.5t-64.5 -35t-29 -67.5t29 -70t75.5 -46t102.5 -32t112.5 -34t103 -45.5t75.5 -73t29 -110.5q0 -48 -32.5 -98.5t-90.5 -86.5
q39 -51 39 -131q0 -90 -98 -168t-263 -78zM313 635q0 -67 75 -103.5t265 -66.5q105 0 105 80q0 34 -49 66.5t-114.5 52.5t-123 32.5t-82.5 12.5q-34 0 -55 -20t-21 -54z" />
    <glyph glyph-name="dieresis" unicode="&#xa8;" horiz-adv-x="821" 
d="M473 1081q0 43 29.5 74t70.5 31q43 0 74 -31t31 -74q0 -41 -31 -69.5t-74 -28.5q-41 0 -70.5 28.5t-29.5 69.5zM143 1081q0 43 30 74t71 31q43 0 73.5 -31t30.5 -74q0 -41 -30.5 -69.5t-73.5 -28.5q-42 0 -71.5 28.5t-29.5 69.5z" />
    <glyph glyph-name="copyright" unicode="&#xa9;" horiz-adv-x="1515" 
d="M758 1206q167 0 308.5 -82t223.5 -223.5t82 -308.5q0 -125 -48.5 -239t-130.5 -196.5t-196 -131t-239 -48.5t-239 48.5t-196.5 131t-131 196.5t-48.5 239t48.5 239t131 196t196.5 130.5t239 48.5zM758 94q135 0 249.5 67t181 181.5t66.5 249.5t-66.5 249.5t-181 181.5
t-249.5 67q-136 0 -250.5 -67t-181 -181.5t-66.5 -249.5t66.5 -249.5t181 -181.5t250.5 -67zM758 313q-120 0 -204.5 81.5t-84.5 197.5q0 117 84.5 198.5t204.5 81.5q89 0 161 -47.5t105 -124.5q0 -12 -8.5 -20t-20.5 -8h-94q-22 0 -29 14q-43 64 -118 64q-62 0 -105 -45
t-43 -113q0 -67 43 -111.5t105 -44.5q75 0 118 64q7 14 29 14h94q12 0 20.5 -8.5t8.5 -20.5q-33 -77 -105 -124.5t-161 -47.5z" />
    <glyph glyph-name="ordfeminine" unicode="&#xaa;" horiz-adv-x="706" 
d="M362 772q35 0 62 16t27 50q0 39 -27.5 55t-61.5 16q-15 0 -24 -0.5t-27 -4t-28 -10.5t-18.5 -21.5t-8.5 -34.5q0 -66 106 -66zM451 715v10q-49 -41 -119 -41q-85 0 -137 43t-52 115q0 69 48 112t122 43q97 0 138 -34q-2 61 -27.5 89.5t-93.5 28.5q-57 0 -99 -18
q-16 0 -28 18l-15 33q0 1 -2 6.5t-2 7.5q0 20 15 27q63 31 137 31q114 0 170.5 -47t56.5 -148v-276q0 -19 -22 -19h-70q-20 0 -20 19z" />
    <glyph glyph-name="guillemotleft" unicode="&#xab;" horiz-adv-x="1134" 
d="M143 418q0 18 9 33l194 360q10 20 31 20h94q15 0 24 -9.5t9 -24.5l-189 -346q-8 -13 -8 -33t8 -33l191 -350q0 -15 -9 -25t-24 -10h-94q-21 0 -31 20l-196 365q-9 15 -9 33zM629 418q0 20 8 33l194 360q10 20 31 20h94q15 0 24 -9.5t9 -24.5l-188 -346q-8 -13 -8 -33
t8 -33l190 -350q0 -15 -9 -25t-24 -10h-94q-20 0 -30 20l-197 365q-8 13 -8 33z" />
    <glyph glyph-name="logicalnot" unicode="&#xac;" horiz-adv-x="1064" 
d="M182 535h703q13 0 25 -12.5t12 -26.5v-344q0 -14 -12 -26.5t-25 -12.5h-94q-13 0 -25 12.5t-12 26.5v229h-572q-14 0 -26.5 12t-12.5 25v80q0 13 12.5 25t26.5 12z" />
    <glyph glyph-name="uni00AD" unicode="&#xad;" horiz-adv-x="405" 
 />
    <glyph glyph-name="registered" unicode="&#xae;" horiz-adv-x="1515" 
d="M893 473l123 -156q0 -12 -8.5 -20t-20.5 -8h-88q-16 0 -25 12l-102 135h-106v-119q0 -11 -8.5 -19.5t-20.5 -8.5h-80q-12 0 -20.5 8.5t-8.5 19.5v539q0 11 8.5 20t20.5 9h223q5 0 13 -0.5t32 -4.5t45.5 -11t47.5 -23t45 -37t32 -55.5t13 -77.5q0 -100 -26.5 -142.5
t-88.5 -60.5zM666 762v-203h92q54 0 82 21t28 79q0 60 -28.5 81.5t-81.5 21.5h-92zM758 1206q167 0 308.5 -82t223.5 -223.5t82 -308.5q0 -125 -48.5 -239t-130.5 -196.5t-196 -131t-239 -48.5t-239 48.5t-196.5 131t-131 196.5t-48.5 239t48.5 239t131 196t196.5 130.5
t239 48.5zM758 94q135 0 249.5 67t181 181.5t66.5 249.5t-66.5 249.5t-181 181.5t-249.5 67q-136 0 -250.5 -67t-181 -181.5t-66.5 -249.5t66.5 -249.5t181 -181.5t250.5 -67z" />
    <glyph glyph-name="macron" unicode="&#xaf;" horiz-adv-x="835" 
d="M653 1032h-471q-14 0 -26.5 12t-12.5 25v80q0 13 12.5 25t26.5 12h471q14 0 26.5 -12t12.5 -25v-80q0 -13 -12.5 -25t-26.5 -12z" />
    <glyph glyph-name="degree" unicode="&#xb0;" horiz-adv-x="778" 
d="M389 1186q101 0 173.5 -71.5t72.5 -172.5t-72.5 -173.5t-173.5 -72.5t-173.5 72.5t-72.5 173.5t72.5 172.5t173.5 71.5zM389 823q47 0 82 36t35 83q0 49 -34.5 83t-82.5 34q-51 0 -85 -33.5t-34 -83.5q0 -48 34.5 -83.5t84.5 -35.5z" />
    <glyph glyph-name="plusminus" unicode="&#xb1;" horiz-adv-x="851" 
d="M342 702v172q0 14 12 26.5t25 12.5h94q13 0 25 -12.5t12 -26.5v-172h160q14 0 26.5 -11.5t12.5 -24.5v-70q0 -13 -12.5 -25t-26.5 -12h-160v-172q0 -14 -12 -26.5t-25 -12.5h-94q-13 0 -25 12.5t-12 26.5v172h-160q-14 0 -26.5 12t-12.5 25v70q0 13 12.5 24.5t26.5 11.5
h160zM670 0h-488q-14 0 -26.5 12t-12.5 25v69q0 13 12.5 25t26.5 12h488q14 0 26.5 -12t12.5 -25v-69q0 -13 -12.5 -25t-26.5 -12z" />
    <glyph glyph-name="twosuperior" unicode="&#xb2;" horiz-adv-x="671" 
d="M330 768h176q22 0 22 -25v-63q0 -25 -22 -25h-318q-24 0 -24 25v68q0 14 8 18q95 80 145.5 132.5t61 71.5t10.5 36q0 67 -65 67q-60 0 -60 -61v-11q0 -11 -7 -17.5t-17 -6.5h-72q-11 0 -18 7t-7 17v25q0 9 2 23t13 39.5t28.5 46t53.5 36t84 15.5q47 0 83 -12.5t55.5 -31
t32 -43t16 -44t3.5 -39.5q0 -109 -184 -248z" />
    <glyph glyph-name="threesuperior" unicode="&#xb3;" horiz-adv-x="643" 
d="M295 989h12q19 0 30 1.5t23.5 12.5t12.5 33q0 18 -14.5 38t-47.5 20q-45 0 -57 -33q-7 -17 -23 -17h-63q-10 0 -17.5 7t-7.5 18q3 20 11.5 40t26.5 44t52.5 38.5t81.5 14.5q185 0 185 -172q0 -12 -3 -26t-16.5 -34t-34.5 -30q30 -15 42 -42t12 -48q0 -172 -185 -172
q-47 0 -81.5 14.5t-52.5 38.5t-26.5 44t-11.5 40q0 11 7.5 18t17.5 7h63q16 0 23 -17q12 -32 57 -32q33 0 47.5 20t14.5 37q0 22 -12.5 33t-23.5 12.5t-30 1.5h-12q-19 0 -19 19v53q0 18 19 18z" />
    <glyph glyph-name="acute" unicode="&#xb4;" horiz-adv-x="557" 
d="M414 1153l-117 -172q-18 -18 -31 -18h-88q-15 0 -25 10t-10 24l97 168q13 21 30 21h109q15 0 25 -10t10 -23z" />
    <glyph glyph-name="mu" unicode="&#xb5;" horiz-adv-x="1101" 
d="M311 829v-448q0 -27 4 -55t19.5 -64.5t40 -64t70 -47t106.5 -19.5t106.5 19.5t70 47t40 64t19.5 64.5t4 55v448q0 14 11.5 26.5t24.5 12.5h95q13 0 24.5 -12.5t11.5 -26.5v-440q0 -28 -2.5 -56t-12.5 -70.5t-26.5 -79.5t-47.5 -76t-72.5 -66.5t-104.5 -45.5t-141 -18
q-142 0 -240 60v-356q0 -14 -12 -26.5t-25 -12.5h-94q-13 0 -25 12.5t-12 26.5v1148q0 14 12 26.5t25 12.5h94q13 0 25 -12.5t12 -26.5z" />
    <glyph glyph-name="paragraph" unicode="&#xb6;" horiz-adv-x="1427" 
d="M578 1186h669q13 0 25 -12.5t12 -26.5v-1108q0 -14 -12 -26.5t-25 -12.5h-94q-13 0 -25 12.5t-12 26.5v993h-319v-993q0 -14 -12 -26.5t-25 -12.5h-94q-13 0 -25 12.5t-12 26.5v334q-10 0 -27.5 1t-68 8.5t-96.5 21.5t-102 44.5t-96.5 71.5t-68 108t-27.5 150t24 150.5
t62.5 109t84.5 72t92.5 44.5t85 22t62.5 9z" />
    <glyph glyph-name="periodcentered" unicode="&#xb7;" horiz-adv-x="479" 
d="M143 416q0 40 28 69t67 29q40 0 69 -29t29 -69t-29 -68.5t-69 -28.5t-67.5 28.5t-27.5 68.5z" />
    <glyph glyph-name="cedilla" unicode="&#xb8;" horiz-adv-x="573" 
d="M186 -139l23 116q7 21 24 21h80q11 0 18 -7.5t7 -19.5l-14 -77q4 -1 11.5 -3t25.5 -11.5t32 -23t25.5 -39.5t11.5 -59q0 -47 -17.5 -80t-46.5 -48.5t-56 -22t-56 -6.5q-24 0 -86 4q-25 4 -25 22v60q0 9 7.5 16.5t17.5 7.5q9 -1 23 -2.5t24 -2.5t14 -1q39 0 53.5 13
t14.5 49q0 24 -18 39.5t-36 19.5l-18 4l-10 2q-29 4 -29 29z" />
    <glyph glyph-name="onesuperior" unicode="&#xb9;" horiz-adv-x="557" 
d="M289 1053l-117 -31q-11 0 -20 8.5t-9 18.5v71q0 20 29 31l107 31q8 4 22 4h88q11 0 18 -7t7 -18v-440q0 -11 -7 -18t-18 -7h-76q-10 0 -17 7t-7 18v332z" />
    <glyph glyph-name="ordmasculine" unicode="&#xba;" horiz-adv-x="778" 
d="M389 1186q101 0 173.5 -71.5t72.5 -172.5t-72.5 -173.5t-173.5 -72.5t-173.5 72.5t-72.5 173.5t72.5 172.5t173.5 71.5zM389 823q47 0 82 36t35 83q0 49 -34.5 83t-82.5 34q-51 0 -85 -33.5t-34 -83.5q0 -48 34.5 -83.5t84.5 -35.5z" />
    <glyph glyph-name="guillemotright" unicode="&#xbb;" horiz-adv-x="1134" 
d="M991 418q0 -20 -8 -33l-197 -365q-10 -20 -30 -20h-94q-15 0 -24 10t-9 25l190 350q8 13 8 33t-8 33l-188 346q0 15 9 24.5t24 9.5h94q20 0 30 -20l195 -360q8 -13 8 -33zM506 418q0 -20 -8 -33l-197 -365q-10 -20 -31 -20h-94q-15 0 -24 10t-9 25l191 350q8 13 8 33
t-8 33l-189 346q0 15 9 24.5t24 9.5h94q21 0 31 -20l195 -360q8 -13 8 -33z" />
    <glyph glyph-name="onequarter" unicode="&#xbc;" horiz-adv-x="1363" 
d="M909 190h127v201zM274 35l637 1134q10 17 29 17h104q13 0 21 -10.5t8 -24.5l-637 -1135q-10 -16 -28 -16h-105q-13 0 -21 10.5t-8 24.5zM289 1053l-117 -31q-11 0 -20 8.5t-9 18.5v71q0 20 29 31l107 31q8 4 22 4h88q11 0 18 -7t7 -18v-440q0 -11 -7 -18t-18 -7h-76
q-10 0 -17 7t-7 18v332zM1161 190h37q9 0 16 -6.5t7 -15.5v-68q0 -9 -7 -15.5t-16 -6.5h-37v-53q0 -11 -7 -18t-17 -7h-76q-11 0 -18 7t-7 18v53h-223q-11 0 -18 7t-7 17v97q0 2 5 12l170 264q8 14 24 14h146q11 0 19.5 -8.5t8.5 -19.5v-271z" />
    <glyph glyph-name="onehalf" unicode="&#xbd;" horiz-adv-x="1368" 
d="M274 35l637 1134q10 17 29 17h104q13 0 21 -10.5t8 -24.5l-637 -1135q-10 -16 -28 -16h-105q-13 0 -21 10.5t-8 24.5zM289 1053l-117 -31q-11 0 -20 8.5t-9 18.5v71q0 20 29 31l107 31q8 4 22 4h88q11 0 18 -7t7 -18v-440q0 -11 -7 -18t-18 -7h-76q-10 0 -17 7t-7 18v332
zM1026 113h176q23 0 23 -25v-63q0 -25 -23 -25h-317q-25 0 -25 25v67q0 15 8 19q95 80 145.5 132t61 71t10.5 36q0 68 -65 68q-59 0 -59 -62v-10q0 -10 -7 -17t-18 -7h-72q-10 0 -17 7t-7 17v25q0 9 2 23t12.5 39.5t28 45.5t53.5 35.5t84 15.5q47 0 83 -12.5t55.5 -31
t32 -43t16 -44t3.5 -39.5q0 -108 -184 -247z" />
    <glyph glyph-name="threequarters" unicode="&#xbe;" horiz-adv-x="1388" 
d="M934 190h127v201zM291 35l637 1134q10 17 28 17h105q13 0 21 -10.5t8 -24.5l-637 -1135q-10 -16 -29 -16h-105q-13 0 -20.5 10.5t-7.5 24.5zM1186 190h37q9 0 15.5 -6.5t6.5 -15.5v-68q0 -9 -6.5 -15.5t-15.5 -6.5h-37v-53q0 -11 -7 -18t-18 -7h-76q-10 0 -17 7t-7 18v53
h-223q-11 0 -18 7t-7 17v97q0 4 4 12l170 264q8 14 25 14h145q11 0 20 -9t9 -19v-271zM295 989h12q19 0 30 1.5t23.5 12.5t12.5 33q0 18 -14.5 38t-47.5 20q-45 0 -57 -33q-7 -17 -23 -17h-63q-10 0 -17.5 7t-7.5 18q3 20 11.5 40t26.5 44t52.5 38.5t81.5 14.5
q185 0 185 -172q0 -12 -3 -26t-16.5 -34t-34.5 -30q30 -15 42 -42t12 -48q0 -172 -185 -172q-47 0 -81.5 14.5t-52.5 38.5t-26.5 44t-11.5 40q0 11 7.5 18t17.5 7h63q16 0 23 -17q12 -32 57 -32q33 0 47.5 20t14.5 37q0 22 -12.5 33t-23.5 12.5t-30 1.5h-12q-19 0 -19 19v53
q0 18 19 18z" />
    <glyph glyph-name="questiondown" unicode="&#xbf;" horiz-adv-x="1048" 
d="M399 838q13 20 31 20h105q12 0 23 -12.5t11 -26.5q-23 -47 -71.5 -109.5t-87 -109.5t-69 -113t-30.5 -129q0 -90 53.5 -147t167.5 -57q91 0 146.5 58t58.5 144q0 14 12 26.5t25 12.5h94q13 0 25 -12.5t12 -26.5q-1 -20 -3.5 -42t-11.5 -59t-24 -69t-43 -67.5t-64.5 -60.5
t-93.5 -41.5t-126 -16.5q-78 0 -141 17.5t-103.5 44.5t-70.5 64.5t-45 70.5t-23.5 71t-10.5 58.5t-2 38.5q1 62 30.5 130t64 116.5t85.5 117t76 109.5zM604 1100q0 -41 -30.5 -71t-71.5 -30q-43 0 -74 30t-31 71q0 44 31 75t74 31q42 0 72 -31t30 -75z" />
    <glyph glyph-name="Agrave" unicode="&#xc0;" horiz-adv-x="1228" 
d="M995 25l-77 200h-609l-76 -200q-11 -25 -32 -25h-107q-15 0 -26 11.5t-11 25.5l428 1120q5 11 18 20t29 9h164q16 0 29 -9t18 -20l428 -1120q0 -14 -10.5 -25.5t-25.5 -11.5h-107q-22 0 -33 25zM614 1024l-245 -645h491zM520 1309l-117 172q0 12 10 22t25 10h109
q19 0 31 -20l96 -168q0 -14 -10 -24.5t-25 -10.5h-88q-12 0 -31 19z" />
    <glyph glyph-name="Aacute" unicode="&#xc1;" horiz-adv-x="1228" 
d="M311 225l-78 -200q-11 -25 -32 -25h-107q-15 0 -26 11.5t-11 25.5l428 1120q5 11 18 20t29 9h164q16 0 29 -9t18 -20l428 -1120q0 -14 -10.5 -25.5t-25.5 -11.5h-107q-22 0 -33 25l-75 200h-609zM860 379l-246 645l-245 -645h491zM825 1481l-116 -172q-19 -19 -31 -19
h-88q-15 0 -25 10.5t-10 24.5l96 168q12 20 31 20h109q15 0 24.5 -9.5t9.5 -22.5z" />
    <glyph glyph-name="Acircumflex" unicode="&#xc2;" horiz-adv-x="1228" 
d="M311 225l-78 -200q-11 -25 -32 -25h-107q-15 0 -26 11.5t-11 25.5l428 1120q5 11 18 20t29 9h164q16 0 29 -9t18 -20l428 -1120q0 -14 -10.5 -25.5t-25.5 -11.5h-107q-22 0 -33 25l-75 200h-609zM860 379l-246 645l-245 -645h491zM530 1638h168q25 0 41 -28l154 -275
q0 -18 -13.5 -31.5t-31.5 -13.5h-84q-10 0 -21.5 8t-17.5 19l-111 192l-110 -192q-6 -11 -17.5 -19t-21.5 -8h-84q-18 0 -31.5 13.5t-13.5 31.5l153 275q16 28 41 28z" />
    <glyph glyph-name="Atilde" unicode="&#xc3;" horiz-adv-x="1228" 
d="M791 1290q-61 0 -174.5 47t-157.5 47q-61 0 -68 -75q-6 -21 -29 -21h-77q-15 0 -24 10t-9 25q7 58 25.5 100.5t39 64t47.5 33.5t43 14.5t33 2.5q67 0 182 -47t150 -47q61 0 68 76q6 20 28 20h78q15 0 24 -10t9 -25q-7 -58 -25.5 -100.5t-39 -64t-47.5 -33.5t-43 -14.5
t-33 -2.5zM995 25l-77 200h-609l-76 -200q-11 -25 -32 -25h-107q-15 0 -26 11.5t-11 25.5l428 1120q5 11 18 20t29 9h164q16 0 29 -9t18 -20l428 -1120q0 -14 -10.5 -25.5t-25.5 -11.5h-107q-22 0 -33 25zM614 1024l-245 -645h491z" />
    <glyph glyph-name="Adieresis" unicode="&#xc4;" horiz-adv-x="1228" 
d="M995 25l-77 200h-609l-76 -200q-11 -25 -32 -25h-107q-15 0 -26 11.5t-11 25.5l428 1120q5 11 18 20t29 9h164q16 0 29 -9t18 -20l428 -1120q0 -14 -10.5 -25.5t-25.5 -11.5h-107q-22 0 -33 25zM614 1024l-245 -645h491zM680 1389q0 43 29.5 73.5t70.5 30.5
q43 0 74 -30.5t31 -73.5q0 -41 -31 -70t-74 -29q-41 0 -70.5 29t-29.5 70zM350 1389q0 43 30 73.5t71 30.5q43 0 73.5 -30.5t30.5 -73.5q0 -41 -30.5 -70t-73.5 -29q-41 0 -71 29t-30 70z" />
    <glyph glyph-name="Aring" unicode="&#xc5;" horiz-adv-x="1228" 
d="M995 25l-77 200h-609l-76 -200q-11 -25 -32 -25h-107q-15 0 -26 11.5t-11 25.5l428 1120q5 11 18 20t29 9h164q16 0 29 -9t18 -20l428 -1120q0 -14 -10.5 -25.5t-25.5 -11.5h-107q-22 0 -33 25zM614 1024l-245 -645h491zM616 1780q101 0 173.5 -71.5t72.5 -172.5
t-72.5 -173.5t-173.5 -72.5t-173 72.5t-72 173.5t72 172.5t173 71.5zM616 1417q47 0 82 36t35 83q0 49 -34.5 83t-82.5 34q-51 0 -84.5 -33.5t-33.5 -83.5q0 -48 34 -83.5t84 -35.5z" />
    <glyph glyph-name="AE" unicode="&#xc6;" horiz-adv-x="1810" 
d="M922 428v604l-416 -604h416zM51 53l752 1106q17 27 49 27h809q14 0 26.5 -12t12.5 -25v-80q0 -13 -12.5 -25t-26.5 -12h-571v-377h526q14 0 26.5 -12t12.5 -25v-79q0 -13 -12.5 -25t-26.5 -12h-526v-348h571q14 0 26.5 -12t12.5 -25v-80q0 -13 -12.5 -25t-26.5 -12h-703
q-13 0 -24.5 12.5t-11.5 26.5v237h-516l-179 -258q-12 -18 -32 -18h-113q-14 0 -25.5 12t-11.5 25q0 4 6 16z" />
    <glyph glyph-name="Ccedilla" unicode="&#xc7;" horiz-adv-x="1427" 
d="M645 -139l23 123q-233 31 -389 203.5t-156 404.5q0 125 50 239t135 196t202 130.5t246 48.5q197 0 355 -104.5t230 -274.5q-7 -32 -36 -32h-121q-22 0 -31 18q-61 110 -166.5 175t-230.5 65q-191 0 -328 -133.5t-137 -327.5q0 -93 37.5 -178t100 -147t148.5 -99t179 -37
q125 0 230.5 65t166.5 175q9 18 31 18h121q29 0 36 -33q-68 -161 -214 -263.5t-330 -112.5l-15 -86q4 -1 11.5 -3t26 -11.5t32.5 -23t25.5 -39.5t11.5 -59q0 -47 -17.5 -80t-46.5 -48.5t-56 -22t-56 -6.5q-24 0 -86 4q-25 4 -25 22v60q0 9 7.5 16.5t17.5 7.5q9 -1 23 -2.5
t24 -2.5t14 -1q39 0 53.5 13t14.5 49q0 24 -18 39.5t-36 19.5l-18 4l-10 2q-29 4 -29 29z" />
    <glyph glyph-name="Egrave" unicode="&#xc8;" horiz-adv-x="1032" 
d="M311 154h572q14 0 26.5 -12t12.5 -25v-80q0 -13 -12.5 -25t-26.5 -12h-703q-13 0 -25 12.5t-12 26.5v1108q0 14 12 26.5t25 12.5h703q14 0 26.5 -12t12.5 -25v-80q0 -13 -12.5 -25t-26.5 -12h-572v-377h527q14 0 26.5 -12t12.5 -25v-79q0 -13 -12.5 -25t-26.5 -12h-527
v-348zM455 1309l-117 172q0 12 10 22t25 10h108q19 0 31 -20l96 -168q0 -14 -10 -24.5t-25 -10.5h-88q-11 0 -30 19z" />
    <glyph glyph-name="Eacute" unicode="&#xc9;" horiz-adv-x="1032" 
d="M311 154h572q14 0 26.5 -12t12.5 -25v-80q0 -13 -12.5 -25t-26.5 -12h-703q-13 0 -25 12.5t-12 26.5v1108q0 14 12 26.5t25 12.5h703q14 0 26.5 -12t12.5 -25v-80q0 -13 -12.5 -25t-26.5 -12h-572v-377h527q14 0 26.5 -12t12.5 -25v-79q0 -13 -12.5 -25t-26.5 -12h-527
v-348zM756 1481l-117 -172q-19 -19 -31 -19h-88q-15 0 -25 10.5t-10 24.5l97 168q12 20 30 20h109q15 0 25 -10t10 -22z" />
    <glyph glyph-name="Ecircumflex" unicode="&#xca;" horiz-adv-x="1032" 
d="M311 154h572q14 0 26.5 -12t12.5 -25v-80q0 -13 -12.5 -25t-26.5 -12h-703q-13 0 -25 12.5t-12 26.5v1108q0 14 12 26.5t25 12.5h703q14 0 26.5 -12t12.5 -25v-80q0 -13 -12.5 -25t-26.5 -12h-572v-377h527q14 0 26.5 -12t12.5 -25v-79q0 -13 -12.5 -25t-26.5 -12h-527
v-348zM463 1638h168q25 0 41 -28l153 -275q0 -18 -13.5 -31.5t-31.5 -13.5h-84q-10 0 -21.5 8t-17.5 19l-110 192l-111 -192q-6 -11 -17.5 -19t-21.5 -8h-84q-18 0 -31.5 13.5t-13.5 31.5l154 275q16 28 41 28z" />
    <glyph glyph-name="Edieresis" unicode="&#xcb;" horiz-adv-x="1032" 
d="M311 154h572q14 0 26.5 -12t12.5 -25v-80q0 -13 -12.5 -25t-26.5 -12h-703q-13 0 -25 12.5t-12 26.5v1108q0 14 12 26.5t25 12.5h703q14 0 26.5 -12t12.5 -25v-80q0 -13 -12.5 -25t-26.5 -12h-572v-377h527q14 0 26.5 -12t12.5 -25v-79q0 -13 -12.5 -25t-26.5 -12h-527
v-348zM610 1389q0 43 30 73.5t71 30.5q43 0 73.5 -30.5t30.5 -73.5q0 -41 -30.5 -70t-73.5 -29q-41 0 -71 29t-30 70zM281 1389q0 43 29.5 73.5t70.5 30.5q43 0 73.5 -30.5t30.5 -73.5q0 -41 -30.5 -70t-73.5 -29q-41 0 -70.5 29t-29.5 70z" />
    <glyph glyph-name="Igrave" unicode="&#xcc;" 
d="M311 1147v-1108q0 -14 -12 -26.5t-25 -12.5h-94q-13 0 -25 12.5t-12 26.5v1108q0 14 12 26.5t25 12.5h94q13 0 25 -12.5t12 -26.5zM137 1309l-117 172q0 12 10 22t25 10h109q19 0 31 -20l96 -168q0 -14 -10 -24.5t-25 -10.5h-88q-12 0 -31 19z" />
    <glyph glyph-name="Iacute" unicode="&#xcd;" 
d="M311 1147v-1108q0 -14 -12 -26.5t-25 -12.5h-94q-13 0 -25 12.5t-12 26.5v1108q0 14 12 26.5t25 12.5h94q13 0 25 -12.5t12 -26.5zM436 1481l-117 -172q-19 -19 -30 -19h-88q-15 0 -25 10.5t-10 24.5l96 168q12 20 31 20h108q15 0 25 -10t10 -22z" />
    <glyph glyph-name="Icircumflex" unicode="&#xce;" 
d="M311 1147v-1108q0 -14 -12 -26.5t-25 -12.5h-94q-13 0 -25 12.5t-12 26.5v1108q0 14 12 26.5t25 12.5h94q13 0 25 -12.5t12 -26.5zM143 1638h168q25 0 41 -28l154 -275q0 -18 -13.5 -31.5t-31.5 -13.5h-84q-10 0 -21.5 8t-17.5 19l-111 192l-110 -192q-6 -11 -17.5 -19
t-21.5 -8h-84q-18 0 -31.5 13.5t-13.5 31.5l153 275q16 28 41 28z" />
    <glyph glyph-name="Idieresis" unicode="&#xcf;" 
d="M311 1147v-1108q0 -14 -12 -26.5t-25 -12.5h-94q-13 0 -25 12.5t-12 26.5v1108q0 14 12 26.5t25 12.5h94q13 0 25 -12.5t12 -26.5zM291 1389q0 43 29.5 73.5t70.5 30.5q43 0 74 -30.5t31 -73.5q0 -41 -31 -70t-74 -29q-41 0 -70.5 29t-29.5 70zM-39 1389q0 43 29.5 73.5
t70.5 30.5q43 0 74 -30.5t31 -73.5q0 -41 -31 -70t-74 -29q-41 0 -70.5 29t-29.5 70z" />
    <glyph glyph-name="Eth" unicode="&#xd0;" horiz-adv-x="1323" 
d="M637 1186q182 0 316 -78.5t201 -211.5t67 -302q0 -170 -67 -303.5t-201 -212t-316 -78.5h-412q-15 0 -27 12.5t-12 26.5v471h-102q-14 0 -26.5 12t-12.5 25v80q0 13 12.5 25t26.5 12h102v483q0 14 12 26.5t27 12.5h412zM645 154q187 0 296.5 121t109.5 317t-109.5 318
t-296.5 122h-291v-368h183q15 0 26.5 -11.5t11.5 -25.5v-80q0 -14 -11.5 -25.5t-26.5 -11.5h-183v-356h291z" />
    <glyph glyph-name="Ntilde" unicode="&#xd1;" horiz-adv-x="1314" 
d="M991 14l-680 897v-872q0 -14 -12 -26.5t-25 -12.5h-94q-13 0 -25 12.5t-12 26.5v1108q0 14 12 26.5t25 12.5h117q16 0 27 -15l680 -895v871q0 14 11.5 26.5t24.5 12.5h95q13 0 24.5 -12.5t11.5 -26.5v-1108q0 -14 -11.5 -26.5t-24.5 -12.5h-117q-16 0 -27 14zM827 1290
q-61 0 -174 47t-157 47q-61 0 -68 -75q-6 -21 -29 -21h-77q-15 0 -24 10t-9 25q7 58 25.5 100.5t39 64t47.5 33.5t43 14.5t33 2.5q67 0 182 -47t150 -47q61 0 68 76q6 20 28 20h78q15 0 24 -10t9 -25q-7 -58 -25.5 -100.5t-39.5 -64t-48 -33.5t-43 -14.5t-33 -2.5z" />
    <glyph glyph-name="Ograve" unicode="&#xd2;" horiz-adv-x="1499" 
d="M750 1206q171 0 315 -82t227.5 -223.5t83.5 -308.5t-83.5 -308.5t-227.5 -224t-315 -82.5t-315.5 82.5t-228 224t-83.5 308.5t83.5 308.5t228 223.5t315.5 82zM750 131q123 0 228.5 62t167.5 168.5t62 230.5q0 128 -62 234.5t-167 166.5t-229 60t-229 -60t-167.5 -166.5
t-62.5 -234.5q0 -93 37 -178t98.5 -147t146.5 -99t177 -37zM643 1309l-117 172q0 12 10 22t25 10h109q18 0 30 -20l97 -168q0 -14 -10 -24.5t-25 -10.5h-88q-12 0 -31 19z" />
    <glyph glyph-name="Oacute" unicode="&#xd3;" horiz-adv-x="1499" 
d="M750 1206q171 0 315 -82t227.5 -223.5t83.5 -308.5t-83.5 -308.5t-227.5 -224t-315 -82.5t-315.5 82.5t-228 224t-83.5 308.5t83.5 308.5t228 223.5t315.5 82zM750 131q123 0 228.5 62t167.5 168.5t62 230.5q0 128 -62 234.5t-167 166.5t-229 60t-229 -60t-167.5 -166.5
t-62.5 -234.5q0 -93 37 -178t98.5 -147t146.5 -99t177 -37zM961 1481l-117 -172q-19 -19 -31 -19h-88q-15 0 -25 10.5t-10 24.5l96 168q12 20 31 20h109q15 0 25 -10t10 -22z" />
    <glyph glyph-name="Ocircumflex" unicode="&#xd4;" horiz-adv-x="1499" 
d="M750 1206q171 0 315 -82t227.5 -223.5t83.5 -308.5t-83.5 -308.5t-227.5 -224t-315 -82.5t-315.5 82.5t-228 224t-83.5 308.5t83.5 308.5t228 223.5t315.5 82zM750 131q123 0 228.5 62t167.5 168.5t62 230.5q0 128 -62 234.5t-167 166.5t-229 60t-229 -60t-167.5 -166.5
t-62.5 -234.5q0 -93 37 -178t98.5 -147t146.5 -99t177 -37zM666 1638h168q24 0 40 -28l154 -275q0 -18 -13.5 -31.5t-31.5 -13.5h-84q-10 0 -21.5 8t-17.5 19l-110 192l-111 -192q-6 -11 -17.5 -19t-21.5 -8h-84q-18 0 -31.5 13.5t-13.5 31.5l154 275q16 28 41 28z" />
    <glyph glyph-name="Otilde" unicode="&#xd5;" horiz-adv-x="1499" 
d="M750 1206q171 0 315 -82t227.5 -223.5t83.5 -308.5t-83.5 -308.5t-227.5 -224t-315 -82.5t-315.5 82.5t-228 224t-83.5 308.5t83.5 308.5t228 223.5t315.5 82zM750 131q123 0 228.5 62t167.5 168.5t62 230.5q0 128 -62 234.5t-167 166.5t-229 60t-229 -60t-167.5 -166.5
t-62.5 -234.5q0 -93 37 -178t98.5 -147t146.5 -99t177 -37zM909 1290q-61 0 -174 47t-157 47q-61 0 -68 -75q-6 -21 -29 -21h-78q-15 0 -23.5 10t-8.5 25q7 58 25.5 100.5t39 64t47.5 33.5t43 14.5t33 2.5q67 0 182 -47t150 -47q60 0 67 76q6 20 29 20h78q15 0 24 -10t9 -25
q-7 -58 -25.5 -100.5t-39.5 -64t-48 -33.5t-43 -14.5t-33 -2.5z" />
    <glyph glyph-name="Odieresis" unicode="&#xd6;" horiz-adv-x="1499" 
d="M750 1206q171 0 315 -82t227.5 -223.5t83.5 -308.5t-83.5 -308.5t-227.5 -224t-315 -82.5t-315.5 82.5t-228 224t-83.5 308.5t83.5 308.5t228 223.5t315.5 82zM750 131q123 0 228.5 62t167.5 168.5t62 230.5q0 128 -62 234.5t-167 166.5t-229 60t-229 -60t-167.5 -166.5
t-62.5 -234.5q0 -93 37 -178t98.5 -147t146.5 -99t177 -37zM813 1389q0 43 29.5 73.5t70.5 30.5q43 0 74 -30.5t31 -73.5q0 -41 -31 -70t-74 -29q-41 0 -70.5 29t-29.5 70zM483 1389q0 43 30 73.5t71 30.5q43 0 73.5 -30.5t30.5 -73.5q0 -41 -30.5 -70t-73.5 -29
q-41 0 -71 29t-30 70z" />
    <glyph glyph-name="multiply" unicode="&#xd7;" horiz-adv-x="815" 
d="M408 283l-150 -144q-10 -10 -27 -10q-14 0 -28 14l-49 52q-11 11 -11 26q0 16 11 27l149 149l-149 150q-11 11 -11 26q0 16 11 27l49 51q15 15 28 15q16 0 27 -11l150 -143l149 143q11 11 27 11q13 0 28 -15l50 -51q10 -10 10 -27q0 -16 -10 -26l-150 -150l150 -149
q10 -10 10 -27q0 -16 -10 -26l-50 -52q-14 -14 -28 -14q-17 0 -27 10z" />
    <glyph glyph-name="Oslash" unicode="&#xd8;" horiz-adv-x="1499" 
d="M365 -150l79 203q-147 79 -234 223.5t-87 315.5q0 167 83.5 308.5t228 223.5t315.5 82q78 0 149 -18l64 158q10 24 32 24h107q15 0 26 -11.5t11 -25.5l-82 -205q145 -81 232 -224t87 -312q0 -167 -83.5 -308.5t-227.5 -224t-315 -82.5q-68 0 -148 17l-61 -156
q-10 -24 -33 -24h-107q-15 0 -25.5 11t-10.5 25zM291 592q0 -119 58 -222.5t155 -166.5l338 839q-57 11 -92 11q-124 0 -229 -60t-167.5 -166.5t-62.5 -234.5zM750 131q123 0 228.5 62t167.5 168.5t62 230.5q0 122 -57.5 223.5t-153.5 163.5l-335 -840q39 -8 88 -8z" />
    <glyph glyph-name="Ugrave" unicode="&#xd9;" horiz-adv-x="1224" 
d="M612 -23q-16 0 -36 1t-70.5 10.5t-95 26t-98 52.5t-91.5 84.5t-64 127.5t-26 176v692q0 14 12 26.5t25 12.5h94q13 0 25 -12.5t12 -26.5v-692q0 -14 1 -29t5 -43t13.5 -53.5t23.5 -55.5t38 -54t55 -45t76.5 -32.5t100.5 -11.5q62 0 112.5 15.5t82.5 39t55.5 57t35.5 63
t18.5 63.5t8 52t1.5 34v692q0 14 12 26.5t25 12.5h94q13 0 25 -12.5t12 -26.5v-692q0 -97 -26 -176t-64 -127.5t-92 -84.5t-98.5 -52.5t-95 -26t-70.5 -10.5t-36 -1zM516 1309l-117 172q0 12 10 22t25 10h109q18 0 30 -20l97 -168q0 -14 -10 -24.5t-25 -10.5h-88
q-12 0 -31 19z" />
    <glyph glyph-name="Uacute" unicode="&#xda;" horiz-adv-x="1224" 
d="M612 -23q-16 0 -36 1t-70.5 10.5t-95 26t-98 52.5t-91.5 84.5t-64 127.5t-26 176v692q0 14 12 26.5t25 12.5h94q13 0 25 -12.5t12 -26.5v-692q0 -14 1 -29t5 -43t13.5 -53.5t23.5 -55.5t38 -54t55 -45t76.5 -32.5t100.5 -11.5q62 0 112.5 15.5t82.5 39t55.5 57t35.5 63
t18.5 63.5t8 52t1.5 34v692q0 14 12 26.5t25 12.5h94q13 0 25 -12.5t12 -26.5v-692q0 -97 -26 -176t-64 -127.5t-92 -84.5t-98.5 -52.5t-95 -26t-70.5 -10.5t-36 -1zM809 1481l-117 -172q-19 -19 -30 -19h-89q-15 0 -24.5 10.5t-9.5 24.5l96 168q12 20 31 20h108
q15 0 25 -10t10 -22z" />
    <glyph glyph-name="Ucircumflex" unicode="&#xdb;" horiz-adv-x="1224" 
d="M612 -23q-16 0 -36 1t-70.5 10.5t-95 26t-98 52.5t-91.5 84.5t-64 127.5t-26 176v692q0 14 12 26.5t25 12.5h94q13 0 25 -12.5t12 -26.5v-692q0 -14 1 -29t5 -43t13.5 -53.5t23.5 -55.5t38 -54t55 -45t76.5 -32.5t100.5 -11.5q62 0 112.5 15.5t82.5 39t55.5 57t35.5 63
t18.5 63.5t8 52t1.5 34v692q0 14 12 26.5t25 12.5h94q13 0 25 -12.5t12 -26.5v-692q0 -97 -26 -176t-64 -127.5t-92 -84.5t-98.5 -52.5t-95 -26t-70.5 -10.5t-36 -1zM526 1638h168q25 0 41 -28l154 -275q0 -18 -13.5 -31.5t-31.5 -13.5h-84q-10 0 -21.5 8t-17.5 19l-111 192
l-110 -192q-6 -11 -17.5 -19t-21.5 -8h-84q-18 0 -31.5 13.5t-13.5 31.5l153 275q16 28 41 28z" />
    <glyph glyph-name="Udieresis" unicode="&#xdc;" horiz-adv-x="1224" 
d="M612 -23q-16 0 -36 1t-70.5 10.5t-95 26t-98 52.5t-91.5 84.5t-64 127.5t-26 176v692q0 14 12 26.5t25 12.5h94q13 0 25 -12.5t12 -26.5v-692q0 -14 1 -29t5 -43t13.5 -53.5t23.5 -55.5t38 -54t55 -45t76.5 -32.5t100.5 -11.5q62 0 112.5 15.5t82.5 39t55.5 57t35.5 63
t18.5 63.5t8 52t1.5 34v692q0 14 12 26.5t25 12.5h94q13 0 25 -12.5t12 -26.5v-692q0 -97 -26 -176t-64 -127.5t-92 -84.5t-98.5 -52.5t-95 -26t-70.5 -10.5t-36 -1zM674 1389q0 43 29.5 73.5t70.5 30.5q43 0 74 -30.5t31 -73.5q0 -41 -31 -70t-74 -29q-41 0 -70.5 29
t-29.5 70zM344 1389q0 43 29.5 73.5t70.5 30.5q43 0 74 -30.5t31 -73.5q0 -41 -31 -70t-74 -29q-41 0 -70.5 29t-29.5 70z" />
    <glyph glyph-name="Yacute" unicode="&#xdd;" horiz-adv-x="1097" 
d="M633 399v-360q0 -14 -12 -26.5t-25 -12.5h-94q-13 0 -25 12.5t-12 26.5v360l-408 750q0 14 11 25.5t26 11.5h113q19 0 33 -25l309 -567l309 567q14 25 33 25h113q15 0 25.5 -11.5t10.5 -25.5zM774 1481l-117 -172q-19 -19 -30 -19h-88q-15 0 -25 10.5t-10 24.5l96 168
q12 20 31 20h108q15 0 25 -10t10 -22z" />
    <glyph glyph-name="Thorn" unicode="&#xde;" horiz-adv-x="1089" 
d="M311 1147v-154h289q17 0 31.5 -0.5t47 -4.5t60 -11t64.5 -21.5t67 -34t60.5 -51t51 -71t33.5 -95t13 -120.5q0 -84 -21 -151t-52.5 -109t-76.5 -73t-83 -45.5t-84 -23t-67.5 -9.5t-43.5 -1h-289v-133q0 -14 -12 -26.5t-25 -12.5h-94q-13 0 -25 12.5t-12 26.5v1108
q0 14 12 26.5t25 12.5h94q13 0 25 -12.5t12 -26.5zM860 582q0 135 -69.5 196.5t-186.5 61.5h-293v-514h293q118 0 187 60.5t69 195.5z" />
    <glyph glyph-name="germandbls" unicode="&#xdf;" horiz-adv-x="1138" 
d="M602 0h-27q-14 0 -26 12t-12 25v80q0 13 12 25t26 12h70q110 0 166.5 41t56.5 147t-56.5 148t-166.5 42h-76q-14 0 -26.5 12t-12.5 25v80q0 13 12.5 25t26.5 12h60q4 0 10.5 0.5t25.5 3.5t36 8.5t38 18.5t36 30t25.5 45.5t10.5 63.5q0 36 -10 65t-26 47t-35.5 31t-39 19
t-35.5 9.5t-26 4.5h-10h-127q-45 0 -80 -12.5t-54.5 -34.5t-32 -44t-17.5 -50.5t-6 -43t-1 -32.5v-776q0 -14 -12 -26.5t-25 -12.5h-94q-13 0 -25 12.5t-12 26.5v776q0 169 100.5 270t284.5 101h97q22 0 44.5 -1.5t59.5 -8.5t68.5 -19t66.5 -35t59 -54.5t40 -80t16 -108.5
q0 -208 -160 -258q36 -7 72 -28t69.5 -56t54.5 -92t21 -126q0 -74 -21.5 -130t-59 -91.5t-94 -57.5t-119 -31t-140.5 -9z" />
    <glyph glyph-name="agrave" unicode="&#xe0;" horiz-adv-x="1212" 
d="M1069 829v-790q0 -14 -12 -26.5t-25 -12.5h-94q-13 0 -25 12.5t-12 26.5v65q-45 -45 -96 -73t-103.5 -38.5t-81.5 -13t-71 -2.5q-121 0 -224 61t-163 166.5t-60 229.5t60 229.5t163 166.5t224 61q42 0 71 -2.5t81.5 -13t103.5 -38.5t96 -73v65q0 14 12 26.5t25 12.5h94
q13 0 25 -12.5t12 -26.5zM584 131q134 0 225.5 85.5t91.5 217.5t-91.5 217.5t-225.5 85.5q-132 0 -223 -85.5t-91 -217.5t91 -217.5t223 -85.5zM502 1004l-117 172q0 12 10 22t25 10h108q19 0 31 -20l96 -168q0 -14 -9.5 -24.5t-24.5 -10.5h-89q-11 0 -30 19z" />
    <glyph glyph-name="aacute" unicode="&#xe1;" horiz-adv-x="1212" 
d="M1069 829v-790q0 -14 -12 -26.5t-25 -12.5h-94q-13 0 -25 12.5t-12 26.5v65q-45 -45 -96 -73t-103.5 -38.5t-81.5 -13t-71 -2.5q-121 0 -224 61t-163 166.5t-60 229.5t60 229.5t163 166.5t224 61q42 0 71 -2.5t81.5 -13t103.5 -38.5t96 -73v65q0 14 12 26.5t25 12.5h94
q13 0 25 -12.5t12 -26.5zM584 131q134 0 225.5 85.5t91.5 217.5t-91.5 217.5t-225.5 85.5q-132 0 -223 -85.5t-91 -217.5t91 -217.5t223 -85.5zM772 1176l-117 -172q-19 -19 -30 -19h-88q-15 0 -25 10.5t-10 24.5l96 168q12 20 31 20h108q15 0 25 -10t10 -22z" />
    <glyph glyph-name="acircumflex" unicode="&#xe2;" horiz-adv-x="1212" 
d="M1069 829v-790q0 -14 -12 -26.5t-25 -12.5h-94q-13 0 -25 12.5t-12 26.5v65q-45 -45 -96 -73t-103.5 -38.5t-81.5 -13t-71 -2.5q-121 0 -224 61t-163 166.5t-60 229.5t60 229.5t163 166.5t224 61q42 0 71 -2.5t81.5 -13t103.5 -38.5t96 -73v65q0 14 12 26.5t25 12.5h94
q13 0 25 -12.5t12 -26.5zM584 131q134 0 225.5 85.5t91.5 217.5t-91.5 217.5t-225.5 85.5q-132 0 -223 -85.5t-91 -217.5t91 -217.5t223 -85.5zM475 1333h168q25 0 41 -28l154 -275q0 -18 -13.5 -31.5t-31.5 -13.5h-84q-10 0 -21.5 8t-17.5 19l-111 192l-110 -192
q-6 -11 -17.5 -19t-21.5 -8h-84q-18 0 -31.5 13.5t-13.5 31.5l153 275q16 28 41 28z" />
    <glyph glyph-name="atilde" unicode="&#xe3;" horiz-adv-x="1212" 
d="M1069 829v-790q0 -14 -12 -26.5t-25 -12.5h-94q-13 0 -25 12.5t-12 26.5v65q-45 -45 -96 -73t-103.5 -38.5t-81.5 -13t-71 -2.5q-121 0 -224 61t-163 166.5t-60 229.5t60 229.5t163 166.5t224 61q42 0 71 -2.5t81.5 -13t103.5 -38.5t96 -73v65q0 14 12 26.5t25 12.5h94
q13 0 25 -12.5t12 -26.5zM584 131q134 0 225.5 85.5t91.5 217.5t-91.5 217.5t-225.5 85.5q-132 0 -223 -85.5t-91 -217.5t91 -217.5t223 -85.5zM766 985q-61 0 -174.5 47t-157.5 47q-60 0 -67 -75q-6 -21 -29 -21h-78q-15 0 -24 10t-9 25q7 58 25.5 100.5t39.5 64t48 33.5
t43 14.5t33 2.5q67 0 182 -47t150 -47q60 0 67 75q6 21 29 21h78q15 0 23.5 -10t8.5 -25q-7 -58 -25.5 -100.5t-39 -64t-47.5 -33.5t-43 -14.5t-33 -2.5z" />
    <glyph glyph-name="adieresis" unicode="&#xe4;" horiz-adv-x="1212" 
d="M1069 829v-790q0 -14 -12 -26.5t-25 -12.5h-94q-13 0 -25 12.5t-12 26.5v65q-45 -45 -96 -73t-103.5 -38.5t-81.5 -13t-71 -2.5q-121 0 -224 61t-163 166.5t-60 229.5t60 229.5t163 166.5t224 61q42 0 71 -2.5t81.5 -13t103.5 -38.5t96 -73v65q0 14 12 26.5t25 12.5h94
q13 0 25 -12.5t12 -26.5zM584 131q134 0 225.5 85.5t91.5 217.5t-91.5 217.5t-225.5 85.5q-132 0 -223 -85.5t-91 -217.5t91 -217.5t223 -85.5zM657 1083q0 43 30 74t71 31q43 0 73.5 -31t30.5 -74q0 -41 -30.5 -69.5t-73.5 -28.5q-42 0 -71.5 28.5t-29.5 69.5zM328 1083
q0 43 29.5 74t70.5 31q43 0 73.5 -31t30.5 -74q0 -41 -30.5 -69.5t-73.5 -28.5q-41 0 -70.5 28.5t-29.5 69.5z" />
    <glyph glyph-name="aring" unicode="&#xe5;" horiz-adv-x="1212" 
d="M1069 829v-790q0 -14 -12 -26.5t-25 -12.5h-94q-13 0 -25 12.5t-12 26.5v65q-45 -45 -96 -73t-103.5 -38.5t-81.5 -13t-71 -2.5q-121 0 -224 61t-163 166.5t-60 229.5t60 229.5t163 166.5t224 61q42 0 71 -2.5t81.5 -13t103.5 -38.5t96 -73v65q0 14 12 26.5t25 12.5h94
q13 0 25 -12.5t12 -26.5zM584 131q134 0 225.5 85.5t91.5 217.5t-91.5 217.5t-225.5 85.5q-132 0 -223 -85.5t-91 -217.5t91 -217.5t223 -85.5zM582 1475q101 0 173 -71.5t72 -172.5t-72 -173.5t-173 -72.5t-173.5 72.5t-72.5 173.5t72.5 172.5t173.5 71.5zM582 1112
q47 0 81.5 35.5t34.5 83.5q0 49 -34 83t-82 34q-51 0 -85 -33.5t-34 -83.5q0 -48 34.5 -83.5t84.5 -35.5z" />
    <glyph glyph-name="ae" unicode="&#xe6;" horiz-adv-x="1703" 
d="M262 696q-6 -2 -10 -2q-12 0 -23 8t-16 19l-18 49q-1 3 -2.5 9t-3 10t-1.5 6q0 25 19 34q142 64 260 64q70 0 127 -11.5t120 -48.5t111 -100q62 74 150.5 116t193.5 42q195 0 322 -132.5t127 -324.5v-31q0 -14 -12 -26t-25 -12h-692q28 -109 106 -171.5t191 -62.5
q94 0 192 35q4 2 11 2q20 0 32 -18l47 -64q7 -9 7 -23q0 -25 -25 -36q-138 -50 -268 -50q-108 0 -201 40t-156 114q-43 -53 -87.5 -85.5t-97.5 -47t-95.5 -18t-112.5 -3.5q-155 0 -239 76.5t-84 208.5q0 96 50 164.5t125.5 99.5t166.5 31q121 0 256 -45q0 124 -65.5 174.5
t-207.5 50.5q-82 0 -172 -41zM506 131q30 0 62.5 5.5t69.5 18.5t61 41t24 66q0 29 -8.5 52t-20 37.5t-32 25t-36.5 15.5t-42 7.5t-39.5 3t-38.5 0.5t-38.5 -0.5t-39.5 -3t-42 -7.5t-36.5 -15.5t-32 -25t-20 -37.5t-8.5 -52q0 -31 10.5 -55t31.5 -37.5t40.5 -22t49 -12t45 -4
t40.5 -0.5zM889 504h561q-33 116 -111.5 174.5t-169.5 58.5t-169 -58.5t-111 -174.5z" />
    <glyph glyph-name="ccedilla" unicode="&#xe7;" horiz-adv-x="1085" 
d="M481 -139l23 123q-172 23 -287 151t-115 299q0 189 137.5 323t333.5 134q151 0 265.5 -69.5t165.5 -200.5q-7 -31 -35 -31h-113q-19 0 -29 16q-34 64 -102.5 97.5t-155.5 33.5q-122 0 -210.5 -86.5t-88.5 -216.5t88.5 -216.5t210.5 -86.5q87 0 155.5 33.5t102.5 97.5
q10 17 29 17h113q28 0 35 -31q-46 -118 -143 -186t-226 -80l-17 -88q4 -1 11.5 -3t26 -11.5t32.5 -23t25.5 -39.5t11.5 -59q0 -47 -17.5 -80t-46.5 -48.5t-56 -22t-56 -6.5q-24 0 -86 4q-25 4 -25 22v60q0 9 7.5 16.5t17.5 7.5q9 -1 23 -2.5t24 -2.5t14 -1q39 0 53.5 13
t14.5 49q0 24 -18 39.5t-36 19.5l-18 4l-10 2q-29 4 -29 29z" />
    <glyph glyph-name="egrave" unicode="&#xe8;" horiz-adv-x="1085" 
d="M270 504h561q-33 116 -111 174.5t-169 58.5t-169.5 -58.5t-111.5 -174.5zM758 166q8 4 20 4q13 0 25 -18l47 -66q6 -8 6 -23q0 -25 -25 -36q-137 -50 -268 -50q-199 0 -330 127t-131 330q0 192 127 324.5t322 132.5t321.5 -132.5t126.5 -324.5v-31q0 -14 -11.5 -26
t-24.5 -12h-693q12 -53 36.5 -94.5t54 -67.5t65.5 -42.5t69.5 -23t69.5 -6.5q93 0 193 35zM459 1004l-117 172q0 12 10 22t25 10h108q19 0 31 -20l96 -168q0 -14 -9.5 -24.5t-24.5 -10.5h-89q-11 0 -30 19z" />
    <glyph glyph-name="eacute" unicode="&#xe9;" horiz-adv-x="1085" 
d="M270 504h561q-33 116 -111 174.5t-169 58.5t-169.5 -58.5t-111.5 -174.5zM758 166q8 4 20 4q13 0 25 -18l47 -66q6 -8 6 -23q0 -25 -25 -36q-137 -50 -268 -50q-199 0 -330 127t-131 330q0 192 127 324.5t322 132.5t321.5 -132.5t126.5 -324.5v-31q0 -14 -11.5 -26
t-24.5 -12h-693q12 -53 36.5 -94.5t54 -67.5t65.5 -42.5t69.5 -23t69.5 -6.5q93 0 193 35zM764 1176l-117 -172q-19 -19 -31 -19h-88q-15 0 -24.5 10.5t-9.5 24.5l96 168q12 20 31 20h108q15 0 25 -10t10 -22z" />
    <glyph glyph-name="ecircumflex" unicode="&#xea;" horiz-adv-x="1085" 
d="M270 504h561q-33 116 -111 174.5t-169 58.5t-169.5 -58.5t-111.5 -174.5zM758 166q8 4 20 4q13 0 25 -18l47 -66q6 -8 6 -23q0 -25 -25 -36q-137 -50 -268 -50q-199 0 -330 127t-131 330q0 192 127 324.5t322 132.5t321.5 -132.5t126.5 -324.5v-31q0 -14 -11.5 -26
t-24.5 -12h-693q12 -53 36.5 -94.5t54 -67.5t65.5 -42.5t69.5 -23t69.5 -6.5q93 0 193 35zM467 1333h168q25 0 41 -28l153 -275q0 -18 -13.5 -31.5t-31.5 -13.5h-84q-23 0 -38 27l-111 192l-111 -192q-6 -11 -17.5 -19t-21.5 -8h-84q-18 0 -31.5 13.5t-13.5 31.5l154 275
q16 28 41 28z" />
    <glyph glyph-name="edieresis" unicode="&#xeb;" horiz-adv-x="1085" 
d="M270 504h561q-33 116 -111 174.5t-169 58.5t-169.5 -58.5t-111.5 -174.5zM758 166q8 4 20 4q13 0 25 -18l47 -66q6 -8 6 -23q0 -25 -25 -36q-137 -50 -268 -50q-199 0 -330 127t-131 330q0 192 127 324.5t322 132.5t321.5 -132.5t126.5 -324.5v-31q0 -14 -11.5 -26
t-24.5 -12h-693q12 -53 36.5 -94.5t54 -67.5t65.5 -42.5t69.5 -23t69.5 -6.5q93 0 193 35zM618 1083q0 43 30 74t71 31q43 0 73.5 -31t30.5 -74q0 -41 -30.5 -69.5t-73.5 -28.5q-42 0 -71.5 28.5t-29.5 69.5zM289 1083q0 43 29.5 74t70.5 31q43 0 74 -31t31 -74
q0 -41 -31 -69.5t-74 -28.5q-41 0 -70.5 28.5t-29.5 69.5z" />
    <glyph glyph-name="igrave" unicode="&#xec;" 
d="M311 829v-790q0 -14 -12 -26.5t-25 -12.5h-94q-13 0 -25 12.5t-12 26.5v790q0 14 12 26.5t25 12.5h94q13 0 25 -12.5t12 -26.5zM137 1004l-117 172q0 12 10 22t25 10h109q19 0 31 -20l96 -168q0 -14 -10 -24.5t-25 -10.5h-88q-12 0 -31 19z" />
    <glyph glyph-name="iacute" unicode="&#xed;" 
d="M143 39v790q0 14 12 26.5t25 12.5h94q13 0 25 -12.5t12 -26.5v-790q0 -14 -12 -26.5t-25 -12.5h-94q-13 0 -25 12.5t-12 26.5zM434 1176l-117 -172q-19 -19 -30 -19h-88q-15 0 -25 10.5t-10 24.5l96 168q12 20 31 20h108q15 0 25 -10t10 -22z" />
    <glyph glyph-name="icircumflex" unicode="&#xee;" 
d="M311 829v-790q0 -14 -12 -26.5t-25 -12.5h-94q-13 0 -25 12.5t-12 26.5v790q0 14 12 26.5t25 12.5h94q13 0 25 -12.5t12 -26.5zM143 1333h168q25 0 41 -28l154 -275q0 -18 -13.5 -31.5t-31.5 -13.5h-84q-10 0 -21.5 8t-17.5 19l-111 192l-110 -192q-6 -11 -17.5 -19
t-21.5 -8h-84q-18 0 -31.5 13.5t-13.5 31.5l153 275q16 28 41 28z" />
    <glyph glyph-name="idieresis" unicode="&#xef;" 
d="M311 829v-790q0 -14 -12 -26.5t-25 -12.5h-94q-13 0 -25 12.5t-12 26.5v790q0 14 12 26.5t25 12.5h94q13 0 25 -12.5t12 -26.5zM291 1083q0 43 29.5 74t70.5 31q43 0 74 -31t31 -74q0 -41 -31 -69.5t-74 -28.5q-41 0 -70.5 28.5t-29.5 69.5zM-39 1083q0 43 29.5 74
t70.5 31q43 0 74 -31t31 -74q0 -41 -31 -69.5t-74 -28.5q-41 0 -70.5 28.5t-29.5 69.5z" />
    <glyph glyph-name="eth" unicode="&#xf0;" horiz-adv-x="1054" 
d="M748 905h-191l-78 -125q119 0 212 -34.5t149 -93.5t84 -132t28 -155q0 -179 -120.5 -283.5t-303.5 -104.5q-184 0 -305 104.5t-121 283.5q0 134 86 270l168 270h-80q-14 0 -26 12t-12 25v80q0 13 12 25t26 12h179l65 106q11 19 33 19h117q14 0 25 -10.5t14 -24.5l-58 -90
h97q14 0 26 -12t12 -25v-80q0 -13 -12 -25t-26 -12zM526 131q114 0 186 68t72 178q0 114 -72 182t-186 68q-111 0 -183.5 -68.5t-72.5 -181.5q0 -110 71.5 -178t184.5 -68z" />
    <glyph glyph-name="ntilde" unicode="&#xf1;" horiz-adv-x="1081" 
d="M791 39v448q0 250 -211 250q-66 0 -120.5 -29t-85 -71.5t-47 -84.5t-16.5 -75v-438q0 -14 -12 -26.5t-25 -12.5h-94q-13 0 -25 12.5t-12 26.5v790q0 14 12 26.5t25 12.5h94q13 0 25 -12.5t12 -26.5v-67q36 45 79 74t88 39.5t70.5 13t59.5 2.5q70 0 127.5 -17.5t93 -43.5
t61.5 -63t38.5 -68t20 -66.5t8.5 -51.5t1 -30v-512q0 -14 -11.5 -26.5t-24.5 -12.5h-95q-13 0 -24.5 12.5t-11.5 26.5zM725 985q-61 0 -174.5 47t-157.5 47q-60 0 -67 -75q-6 -21 -29 -21h-78q-15 0 -24 10t-9 25q7 58 25.5 100.5t39.5 64t48 33.5t43 14.5t33 2.5
q67 0 182 -47t150 -47q60 0 67 75q6 21 29 21h78q15 0 23.5 -10t8.5 -25q-7 -58 -25.5 -100.5t-39 -64t-47.5 -33.5t-43 -14.5t-33 -2.5z" />
    <glyph glyph-name="ograve" unicode="&#xf2;" horiz-adv-x="1159" 
d="M580 891q199 0 338 -134t139 -323t-139 -323t-338 -134t-338.5 134t-139.5 323t139.5 323t338.5 134zM580 131q130 0 219.5 86t89.5 217t-89.5 217t-219.5 86t-220 -86t-90 -217t90 -217t220 -86zM469 1004l-117 172q0 12 10 22t25 10h109q18 0 30 -20l97 -168
q0 -14 -10 -24.5t-25 -10.5h-88q-12 0 -31 19z" />
    <glyph glyph-name="oacute" unicode="&#xf3;" horiz-adv-x="1159" 
d="M580 891q199 0 338 -134t139 -323t-139 -323t-338 -134t-338.5 134t-139.5 323t139.5 323t338.5 134zM580 131q130 0 219.5 86t89.5 217t-89.5 217t-219.5 86t-220 -86t-90 -217t90 -217t220 -86zM786 1176l-116 -172q-19 -19 -31 -19h-88q-15 0 -25 10.5t-10 24.5
l96 168q12 20 31 20h109q14 0 24 -10t10 -22z" />
    <glyph glyph-name="ocircumflex" unicode="&#xf4;" horiz-adv-x="1159" 
d="M580 891q199 0 338 -134t139 -323t-139 -323t-338 -134t-338.5 134t-139.5 323t139.5 323t338.5 134zM580 131q130 0 219.5 86t89.5 217t-89.5 217t-219.5 86t-220 -86t-90 -217t90 -217t220 -86zM496 1333h168q25 0 41 -28l153 -275q0 -18 -13.5 -31.5t-31.5 -13.5h-84
q-10 0 -21.5 8t-17.5 19l-110 192l-111 -192q-6 -11 -17.5 -19t-21.5 -8h-84q-18 0 -31.5 13.5t-13.5 31.5l154 275q16 28 41 28z" />
    <glyph glyph-name="otilde" unicode="&#xf5;" horiz-adv-x="1159" 
d="M580 891q199 0 338 -134t139 -323t-139 -323t-338 -134t-338.5 134t-139.5 323t139.5 323t338.5 134zM580 131q130 0 219.5 86t89.5 217t-89.5 217t-219.5 86t-220 -86t-90 -217t90 -217t220 -86zM735 985q-61 0 -174.5 47t-157.5 47q-60 0 -67 -75q-6 -21 -29 -21h-78
q-15 0 -23.5 10t-8.5 25q7 58 25.5 100.5t39 64t47.5 33.5t43 14.5t33 2.5q67 0 182 -47t150 -47q60 0 67 75q6 21 29 21h78q15 0 24 -10t9 -25q-7 -58 -25.5 -100.5t-39.5 -64t-48 -33.5t-43 -14.5t-33 -2.5z" />
    <glyph glyph-name="odieresis" unicode="&#xf6;" horiz-adv-x="1159" 
d="M580 891q199 0 338 -134t139 -323t-139 -323t-338 -134t-338.5 134t-139.5 323t139.5 323t338.5 134zM580 131q130 0 219.5 86t89.5 217t-89.5 217t-219.5 86t-220 -86t-90 -217t90 -217t220 -86zM643 1083q0 43 29.5 74t70.5 31q43 0 74 -31t31 -74q0 -41 -31 -69.5
t-74 -28.5q-41 0 -70.5 28.5t-29.5 69.5zM313 1083q0 43 30 74t71 31q43 0 73.5 -31t30.5 -74q0 -41 -30.5 -69.5t-73.5 -28.5q-42 0 -71.5 28.5t-29.5 69.5z" />
    <glyph glyph-name="divide" unicode="&#xf7;" horiz-adv-x="845" 
d="M664 279h-482q-14 0 -26.5 11.5t-12.5 24.5v80q0 13 12.5 25t26.5 12h482q14 0 26 -12t12 -25v-80q0 -13 -12 -24.5t-26 -11.5zM338 57q0 35 25 59.5t59 24.5q33 0 57.5 -24.5t24.5 -59.5q0 -33 -24.5 -56.5t-57.5 -23.5q-34 0 -59 23.5t-25 56.5zM338 653q0 33 25 56.5
t59 23.5q33 0 57.5 -23.5t24.5 -56.5q0 -35 -24.5 -59.5t-57.5 -24.5q-34 0 -59 24.5t-25 59.5z" />
    <glyph glyph-name="oslash" unicode="&#xf8;" horiz-adv-x="1159" 
d="M242 -158l82 205q-102 61 -162 163.5t-60 223.5q0 189 139.5 323t338.5 134q28 0 82 -8l59 149q11 25 33 25h106q15 0 26 -11.5t11 -25.5l-78 -191q109 -61 173.5 -166t64.5 -229q0 -189 -139 -323t-338 -134q-42 0 -99 11l-63 -158q-11 -25 -33 -25h-106q-15 0 -26 11.5
t-11 25.5zM580 131q130 0 219.5 86t89.5 217q0 78 -34.5 142.5t-94.5 105.5l-219 -549q12 -2 39 -2zM270 434q0 -150 113 -239l219 540q-4 0 -11.5 1t-10.5 1q-130 0 -220 -86t-90 -217z" />
    <glyph glyph-name="ugrave" unicode="&#xf9;" horiz-adv-x="1081" 
d="M541 -23q-78 0 -141.5 17.5t-104.5 45.5t-72.5 67t-48 76t-26.5 79.5t-12.5 70.5t-2.5 56v440q0 14 12 26.5t25 12.5h94q13 0 25 -12.5t12 -26.5v-448q0 -27 4 -55t19.5 -64.5t40 -64t70 -47t106.5 -19.5t106.5 19.5t70 47t39.5 64t19 64.5t4 55v448q0 14 12 26.5
t25 12.5h94q13 0 25 -12.5t12 -26.5v-440q0 -28 -2.5 -56t-12.5 -70.5t-26.5 -79.5t-47.5 -76t-72.5 -66.5t-104.5 -45.5t-141 -18zM444 1004l-116 172q0 12 10 22t24 10h109q19 0 31 -20l96 -168q0 -14 -10 -24.5t-25 -10.5h-88q-12 0 -31 19z" />
    <glyph glyph-name="uacute" unicode="&#xfa;" horiz-adv-x="1081" 
d="M541 -23q-78 0 -141.5 17.5t-104.5 45.5t-72.5 67t-48 76t-26.5 79.5t-12.5 70.5t-2.5 56v440q0 14 12 26.5t25 12.5h94q13 0 25 -12.5t12 -26.5v-448q0 -27 4 -55t19.5 -64.5t40 -64t70 -47t106.5 -19.5t106.5 19.5t70 47t39.5 64t19 64.5t4 55v448q0 14 12 26.5
t25 12.5h94q13 0 25 -12.5t12 -26.5v-440q0 -28 -2.5 -56t-12.5 -70.5t-26.5 -79.5t-47.5 -76t-72.5 -66.5t-104.5 -45.5t-141 -18zM733 1176l-117 -172q-19 -19 -30 -19h-88q-15 0 -25 10.5t-10 24.5l96 168q12 20 31 20h108q15 0 25 -10t10 -22z" />
    <glyph glyph-name="ucircumflex" unicode="&#xfb;" horiz-adv-x="1081" 
d="M541 -23q-78 0 -141.5 17.5t-104.5 45.5t-72.5 67t-48 76t-26.5 79.5t-12.5 70.5t-2.5 56v440q0 14 12 26.5t25 12.5h94q13 0 25 -12.5t12 -26.5v-448q0 -27 4 -55t19.5 -64.5t40 -64t70 -47t106.5 -19.5t106.5 19.5t70 47t39.5 64t19 64.5t4 55v448q0 14 12 26.5
t25 12.5h94q13 0 25 -12.5t12 -26.5v-440q0 -28 -2.5 -56t-12.5 -70.5t-26.5 -79.5t-47.5 -76t-72.5 -66.5t-104.5 -45.5t-141 -18zM457 1333h168q25 0 41 -28l153 -275q0 -18 -13.5 -31.5t-31.5 -13.5h-84q-10 0 -21.5 8t-17.5 19l-110 192l-111 -192q-6 -11 -17.5 -19
t-21.5 -8h-84q-18 0 -31.5 13.5t-13.5 31.5l154 275q16 28 41 28z" />
    <glyph glyph-name="udieresis" unicode="&#xfc;" horiz-adv-x="1081" 
d="M541 -23q-78 0 -141.5 17.5t-104.5 45.5t-72.5 67t-48 76t-26.5 79.5t-12.5 70.5t-2.5 56v440q0 14 12 26.5t25 12.5h94q13 0 25 -12.5t12 -26.5v-448q0 -27 4 -55t19.5 -64.5t40 -64t70 -47t106.5 -19.5t106.5 19.5t70 47t39.5 64t19 64.5t4 55v448q0 14 12 26.5
t25 12.5h94q13 0 25 -12.5t12 -26.5v-440q0 -28 -2.5 -56t-12.5 -70.5t-26.5 -79.5t-47.5 -76t-72.5 -66.5t-104.5 -45.5t-141 -18zM604 1083q0 43 30 74t71 31q43 0 73.5 -31t30.5 -74q0 -41 -30.5 -69.5t-73.5 -28.5q-42 0 -71.5 28.5t-29.5 69.5zM274 1083q0 43 30 74
t71 31q43 0 73.5 -31t30.5 -74q0 -41 -30.5 -69.5t-73.5 -28.5q-42 0 -71.5 28.5t-29.5 69.5z" />
    <glyph glyph-name="yacute" unicode="&#xfd;" horiz-adv-x="1003" 
d="M154 -356q-14 0 -26.5 12t-12.5 25v77q0 13 12.5 25t26.5 12h18q92 0 151.5 32.5t90.5 113.5l-353 890q0 14 11 25.5t26 11.5h109q23 0 33 -24l262 -682l262 682q10 24 33 24h108q15 0 26 -11.5t11 -25.5l-371 -931q-104 -258 -364 -258q-30 0 -53 2zM696 1176l-116 -172
q-19 -19 -31 -19h-88q-15 0 -25 10.5t-10 24.5l96 168q12 20 31 20h109q14 0 24 -10t10 -22z" />
    <glyph glyph-name="thorn" unicode="&#xfe;" horiz-adv-x="1212" 
d="M311 104v-423q0 -14 -12 -26.5t-25 -12.5h-94q-13 0 -25 12.5t-12 26.5v1507q0 14 12 26.5t25 12.5h94q13 0 25 -12.5t12 -26.5v-424q45 45 96 73t104 38.5t82 13t71 2.5q184 0 315 -134t131 -323t-131 -323t-315 -134q-42 0 -71 2.5t-82 13t-104 38.5t-96 73zM629 737
q-131 0 -222.5 -81t-95.5 -207v-27q4 -127 95.5 -209t222.5 -82q132 0 222.5 85.5t90.5 217.5t-90.5 217.5t-222.5 85.5z" />
    <glyph glyph-name="ydieresis" unicode="&#xff;" horiz-adv-x="1003" 
d="M154 -356q-14 0 -26.5 12t-12.5 25v77q0 13 12.5 25t26.5 12h18q92 0 151.5 32.5t90.5 113.5l-353 890q0 14 11 25.5t26 11.5h109q23 0 33 -24l262 -682l262 682q10 24 33 24h108q15 0 26 -11.5t11 -25.5l-371 -931q-104 -258 -364 -258q-30 0 -53 2zM565 1083
q0 43 30 74t71 31q43 0 73.5 -31t30.5 -74q0 -41 -30.5 -69.5t-73.5 -28.5q-42 0 -71.5 28.5t-29.5 69.5zM236 1083q0 43 29.5 74t70.5 31q43 0 73.5 -31t30.5 -74q0 -41 -30.5 -69.5t-73.5 -28.5q-41 0 -70.5 28.5t-29.5 69.5z" />
    <glyph glyph-name="Amacron" unicode="&#x100;" horiz-adv-x="1228" 
d="M995 25l-77 200h-609l-76 -200q-11 -25 -32 -25h-107q-15 0 -26 11.5t-11 25.5l428 1120q5 11 18 20t29 9h164q16 0 29 -9t18 -20l428 -1120q0 -14 -10.5 -25.5t-25.5 -11.5h-107q-22 0 -33 25zM614 1024l-245 -645h491zM850 1290h-471q-14 0 -26.5 12t-12.5 25v80
q0 13 12.5 25t26.5 12h471q14 0 26.5 -12t12.5 -25v-80q0 -13 -12.5 -25t-26.5 -12z" />
    <glyph glyph-name="amacron" unicode="&#x101;" horiz-adv-x="1212" 
d="M1069 829v-790q0 -14 -12 -26.5t-25 -12.5h-94q-13 0 -25 12.5t-12 26.5v65q-45 -45 -96 -73t-103.5 -38.5t-81.5 -13t-71 -2.5q-121 0 -224 61t-163 166.5t-60 229.5t60 229.5t163 166.5t224 61q42 0 71 -2.5t81.5 -13t103.5 -38.5t96 -73v65q0 14 12 26.5t25 12.5h94
q13 0 25 -12.5t12 -26.5zM584 131q134 0 225.5 85.5t91.5 217.5t-91.5 217.5t-225.5 85.5q-132 0 -223 -85.5t-91 -217.5t91 -217.5t223 -85.5zM819 985h-471q-14 0 -26.5 12t-12.5 25v80q0 13 12.5 25t26.5 12h471q14 0 26.5 -12t12.5 -25v-80q0 -13 -12.5 -25t-26.5 -12z
" />
    <glyph glyph-name="Abreve" unicode="&#x102;" horiz-adv-x="1228" 
d="M995 25l-77 200h-609l-76 -200q-11 -25 -32 -25h-107q-15 0 -26 11.5t-11 25.5l428 1120q5 11 18 20t29 9h164q16 0 29 -9t18 -20l428 -1120q0 -14 -10.5 -25.5t-25.5 -11.5h-107q-22 0 -33 25zM614 1024l-245 -645h491zM614 1290q-144 0 -236.5 62t-121.5 176
q0 14 11 25.5t24 11.5h86q22 0 33 -25q41 -121 204 -121q164 0 205 121q11 25 33 25h86q13 0 24 -11.5t11 -25.5q-29 -114 -122 -176t-237 -62z" />
    <glyph glyph-name="abreve" unicode="&#x103;" horiz-adv-x="1212" 
d="M1069 829v-790q0 -14 -12 -26.5t-25 -12.5h-94q-13 0 -25 12.5t-12 26.5v65q-45 -45 -96 -73t-103.5 -38.5t-81.5 -13t-71 -2.5q-121 0 -224 61t-163 166.5t-60 229.5t60 229.5t163 166.5t224 61q42 0 71 -2.5t81.5 -13t103.5 -38.5t96 -73v65q0 14 12 26.5t25 12.5h94
q13 0 25 -12.5t12 -26.5zM584 131q134 0 225.5 85.5t91.5 217.5t-91.5 217.5t-225.5 85.5q-132 0 -223 -85.5t-91 -217.5t91 -217.5t223 -85.5zM600 985q-144 0 -236.5 62t-121.5 176q0 14 10.5 25.5t23.5 11.5h86q22 0 33 -25q41 -121 205 -121t205 121q11 25 33 25h86
q13 0 23.5 -11.5t10.5 -25.5q-29 -114 -121.5 -176t-236.5 -62z" />
    <glyph glyph-name="Aogonek" unicode="&#x104;" horiz-adv-x="1228" 
d="M614 1024l-245 -645h491zM1139 -225q-62 -4 -88 -4q-29 0 -57.5 6.5t-59 22t-49.5 48.5t-19 80q0 24 6.5 44.5t16.5 34t22.5 24t24.5 17t22 10.5t16 6l7 2l-63 159h-609l-76 -200q-11 -25 -32 -25h-107q-15 0 -26 11.5t-11 25.5l428 1120q5 11 18 20t29 9h164q16 0 29 -9
t18 -20l428 -1120q0 -14 -10.5 -25.5t-25.5 -11.5h-58q-18 0 -48 -16t-30 -47q0 -35 17.5 -48.5t58.5 -13.5q29 0 64 6q9 0 15.5 -6t6.5 -14v-64q0 -8 -7 -14t-15 -8z" />
    <glyph glyph-name="aogonek" unicode="&#x105;" horiz-adv-x="1212" 
d="M1032 -45q-39 -2 -71.5 -20.5t-32.5 -51.5q0 -36 14 -48.5t53 -12.5q27 0 47 4q10 0 17.5 -7t7.5 -16v-59q0 -10 -7.5 -16.5t-17.5 -8.5q-33 -2 -71 -2q-22 0 -43.5 3.5t-46.5 14t-43.5 27t-30.5 46t-12 67.5q0 52 28 89.5t78 47.5v92q-45 -45 -96 -73t-103.5 -38.5
t-81.5 -13t-71 -2.5q-121 0 -224 61t-163 166.5t-60 229.5t60 229.5t163 166.5t224 61q42 0 71 -2.5t81.5 -13t103.5 -38.5t96 -73v65q0 14 12 26.5t25 12.5h94q13 0 25 -12.5t12 -26.5v-835q0 -14 -12 -26.5t-25 -12.5zM584 131q134 0 225.5 85.5t91.5 217.5t-91.5 217.5
t-225.5 85.5q-132 0 -223 -85.5t-91 -217.5t91 -217.5t223 -85.5z" />
    <glyph glyph-name="Cacute" unicode="&#x106;" horiz-adv-x="1427" 
d="M756 -23q-129 0 -246 48.5t-202 131t-135 196.5t-50 239t50 239t135 196t202 130.5t246 48.5q197 0 355 -104.5t230 -274.5q-7 -32 -36 -32h-121q-22 0 -31 18q-61 110 -166.5 175t-230.5 65q-191 0 -328 -133.5t-137 -327.5q0 -93 37.5 -178t100 -147t148.5 -99t179 -37
q125 0 230.5 65t166.5 175q9 18 31 18h121q29 0 36 -33q-72 -170 -230 -274.5t-355 -104.5zM958 1481l-116 -172q-19 -19 -31 -19h-88q-15 0 -25 10.5t-10 24.5l96 168q12 20 31 20h109q14 0 24 -9.5t10 -22.5z" />
    <glyph glyph-name="cacute" unicode="&#x107;" horiz-adv-x="1085" 
d="M573 891q151 0 265.5 -69.5t165.5 -200.5q-7 -31 -35 -31h-113q-19 0 -29 16q-34 64 -102.5 97.5t-155.5 33.5q-122 0 -210.5 -86.5t-88.5 -216.5t88.5 -216.5t210.5 -86.5q87 0 155.5 33.5t102.5 97.5q10 17 29 17h113q28 0 35 -31q-52 -131 -166 -201t-265 -70
q-196 0 -333.5 134t-137.5 323t137.5 323t333.5 134zM764 1176l-117 -172q-19 -19 -31 -19h-88q-15 0 -24.5 10.5t-9.5 24.5l96 168q12 20 31 20h108q15 0 25 -10t10 -22z" />
    <glyph glyph-name="Ccircumflex" unicode="&#x108;" horiz-adv-x="1427" 
d="M756 -23q-129 0 -246 48.5t-202 131t-135 196.5t-50 239t50 239t135 196t202 130.5t246 48.5q197 0 355 -104.5t230 -274.5q-7 -32 -36 -32h-121q-22 0 -31 18q-61 110 -166.5 175t-230.5 65q-191 0 -328 -133.5t-137 -327.5q0 -93 37.5 -178t100 -147t148.5 -99t179 -37
q125 0 230.5 65t166.5 175q9 18 31 18h121q29 0 36 -33q-72 -170 -230 -274.5t-355 -104.5zM672 1638h168q25 0 41 -28l153 -275q0 -18 -13.5 -31.5t-31.5 -13.5h-84q-10 0 -21.5 8t-17.5 19l-110 192l-111 -192q-6 -11 -17.5 -19t-21.5 -8h-84q-18 0 -31.5 13.5t-13.5 31.5
l154 275q16 28 41 28z" />
    <glyph glyph-name="ccircumflex" unicode="&#x109;" horiz-adv-x="1085" 
d="M573 891q151 0 265.5 -69.5t165.5 -200.5q-7 -31 -35 -31h-113q-19 0 -29 16q-34 64 -102.5 97.5t-155.5 33.5q-122 0 -210.5 -86.5t-88.5 -216.5t88.5 -216.5t210.5 -86.5q87 0 155.5 33.5t102.5 97.5q10 17 29 17h113q28 0 35 -31q-52 -131 -166 -201t-265 -70
q-196 0 -333.5 134t-137.5 323t137.5 323t333.5 134zM489 1333h168q25 0 41 -28l154 -275q0 -18 -13.5 -31.5t-31.5 -13.5h-84q-10 0 -21.5 8t-17.5 19l-111 192l-110 -192q-6 -11 -17.5 -19t-21.5 -8h-84q-18 0 -31.5 13.5t-13.5 31.5l154 275q16 28 40 28z" />
    <glyph glyph-name="Cdotaccent" unicode="&#x10a;" horiz-adv-x="1427" 
d="M756 -23q-129 0 -246 48.5t-202 131t-135 196.5t-50 239t50 239t135 196t202 130.5t246 48.5q197 0 355 -104.5t230 -274.5q-7 -32 -36 -32h-121q-22 0 -31 18q-61 110 -166.5 175t-230.5 65q-191 0 -328 -133.5t-137 -327.5q0 -93 37.5 -178t100 -147t148.5 -99t179 -37
q125 0 230.5 65t166.5 175q9 18 31 18h121q29 0 36 -33q-72 -170 -230 -274.5t-355 -104.5zM657 1389q0 43 30 73.5t71 30.5q43 0 73.5 -30.5t30.5 -73.5q0 -41 -30.5 -70t-73.5 -29q-41 0 -71 29t-30 70z" />
    <glyph glyph-name="cdotaccent" unicode="&#x10b;" horiz-adv-x="1085" 
d="M573 891q151 0 265.5 -69.5t165.5 -200.5q-7 -31 -35 -31h-113q-19 0 -29 16q-34 64 -102.5 97.5t-155.5 33.5q-122 0 -210.5 -86.5t-88.5 -216.5t88.5 -216.5t210.5 -86.5q87 0 155.5 33.5t102.5 97.5q10 17 29 17h113q28 0 35 -31q-52 -131 -166 -201t-265 -70
q-196 0 -333.5 134t-137.5 323t137.5 323t333.5 134zM473 1083q0 43 29.5 74t70.5 31q43 0 74 -31t31 -74q0 -41 -31 -69.5t-74 -28.5q-41 0 -70.5 28.5t-29.5 69.5z" />
    <glyph glyph-name="Ccaron" unicode="&#x10c;" horiz-adv-x="1427" 
d="M756 -23q-129 0 -246 48.5t-202 131t-135 196.5t-50 239t50 239t135 196t202 130.5t246 48.5q197 0 355 -104.5t230 -274.5q-7 -32 -36 -32h-121q-22 0 -31 18q-61 110 -166.5 175t-230.5 65q-191 0 -328 -133.5t-137 -327.5q0 -93 37.5 -178t100 -147t148.5 -99t179 -37
q125 0 230.5 65t166.5 175q9 18 31 18h121q29 0 36 -33q-72 -170 -230 -274.5t-355 -104.5zM842 1290h-168q-24 0 -41 29l-156 262q0 18 13.5 31.5t31.5 13.5h84q10 0 21.5 -8t17.5 -19l113 -180l110 180q6 11 17.5 19t21.5 8h84q18 0 31.5 -13.5t13.5 -31.5l-153 -262
q-17 -29 -41 -29z" />
    <glyph glyph-name="ccaron" unicode="&#x10d;" horiz-adv-x="1085" 
d="M573 891q151 0 265.5 -69.5t165.5 -200.5q-7 -31 -35 -31h-113q-19 0 -29 16q-34 64 -102.5 97.5t-155.5 33.5q-122 0 -210.5 -86.5t-88.5 -216.5t88.5 -216.5t210.5 -86.5q87 0 155.5 33.5t102.5 97.5q10 17 29 17h113q28 0 35 -31q-52 -131 -166 -201t-265 -70
q-196 0 -333.5 134t-137.5 323t137.5 323t333.5 134zM657 985h-168q-23 0 -40 29l-156 262q0 18 13.5 31.5t31.5 13.5h84q10 0 21.5 -8t17.5 -19l112 -180l111 180q6 11 17.5 19t21.5 8h84q18 0 31.5 -13.5t13.5 -31.5l-154 -262q-17 -29 -41 -29z" />
    <glyph glyph-name="Dcaron" unicode="&#x10e;" horiz-adv-x="1277" 
d="M600 1032h-289v-878h289q188 0 298 121t110 317t-110 318t-298 122zM592 0h-412q-13 0 -25 12.5t-12 26.5v1108q0 14 12 26.5t25 12.5h412q182 0 316 -78.5t201 -211.5t67 -302q0 -170 -67 -303.5t-201 -212t-316 -78.5zM614 1290h-168q-23 0 -40 29l-156 262
q0 18 13.5 31.5t31.5 13.5h84q10 0 21.5 -8t17.5 -19l112 -180l111 180q6 11 17.5 19t21.5 8h84q18 0 31.5 -13.5t13.5 -31.5l-154 -262q-17 -29 -41 -29z" />
    <glyph glyph-name="dcaron" unicode="&#x10f;" horiz-adv-x="1650" 
d="M901 764v422q0 14 12 26.5t25 12.5h94q13 0 25 -12.5t12 -26.5v-1147q0 -14 -12 -26.5t-25 -12.5h-94q-13 0 -25 12.5t-12 26.5v65q-45 -45 -96 -73t-103.5 -38.5t-81.5 -13t-71 -2.5q-121 0 -224 61t-163 166.5t-60 229.5t60 229.5t163 166.5t224 61q42 0 71 -2.5
t81.5 -13t103.5 -38.5t96 -73zM584 131q130 0 221.5 81.5t95.5 207.5v26q-4 127 -95 209t-222 82q-132 0 -223 -85.5t-91 -217.5t91 -217.5t223 -85.5zM1626 1198l-90 -197q-14 -14 -27 -14h-96q-24 0 -24 29l90 192q9 17 26 17h94q12 0 19.5 -8t7.5 -19z" />
    <glyph glyph-name="Dcroat" unicode="&#x110;" horiz-adv-x="1323" 
d="M637 1186q182 0 316 -78.5t201 -211.5t67 -302q0 -170 -67 -303.5t-201 -212t-316 -78.5h-412q-15 0 -27 12.5t-12 26.5v471h-102q-14 0 -26.5 12t-12.5 25v80q0 13 12.5 25t26.5 12h102v483q0 14 12 26.5t27 12.5h412zM645 154q187 0 296.5 121t109.5 317t-109.5 318
t-296.5 122h-291v-368h183q15 0 26.5 -11.5t11.5 -25.5v-80q0 -14 -11.5 -25.5t-26.5 -11.5h-183v-356h291z" />
    <glyph glyph-name="dcroat" unicode="&#x111;" horiz-adv-x="1234" 
d="M1151 985h-82v-946q0 -14 -12 -26.5t-25 -12.5h-94q-13 0 -25 12.5t-12 26.5v65q-45 -45 -96 -73t-103.5 -38.5t-81.5 -13t-71 -2.5q-121 0 -224 61t-163 166.5t-60 229.5t60 229.5t163 166.5t224 61q42 0 71 -2.5t81.5 -13t103.5 -38.5t96 -73v221h-108q-14 0 -26.5 12
t-12.5 25v80q0 13 12.5 25t26.5 12h108v47q0 14 12 26.5t25 12.5h94q13 0 25 -12.5t12 -26.5v-47h82q14 0 26.5 -12t12.5 -25v-80q0 -13 -12.5 -25t-26.5 -12zM584 131q130 0 221.5 81.5t95.5 207.5v26q-4 127 -95 209t-222 82q-132 0 -223 -85.5t-91 -217.5t91 -217.5
t223 -85.5z" />
    <glyph glyph-name="Emacron" unicode="&#x112;" horiz-adv-x="1032" 
d="M311 154h572q14 0 26.5 -12t12.5 -25v-80q0 -13 -12.5 -25t-26.5 -12h-703q-13 0 -25 12.5t-12 26.5v1108q0 14 12 26.5t25 12.5h703q14 0 26.5 -12t12.5 -25v-80q0 -13 -12.5 -25t-26.5 -12h-572v-377h527q14 0 26.5 -12t12.5 -25v-79q0 -13 -12.5 -25t-26.5 -12h-527
v-348zM770 1290h-471q-14 0 -26.5 12t-12.5 25v80q0 13 12.5 25t26.5 12h471q14 0 26.5 -12t12.5 -25v-80q0 -13 -12.5 -25t-26.5 -12z" />
    <glyph glyph-name="emacron" unicode="&#x113;" horiz-adv-x="1085" 
d="M270 504h561q-33 116 -111 174.5t-169 58.5t-169.5 -58.5t-111.5 -174.5zM758 166q8 4 20 4q13 0 25 -18l47 -66q6 -8 6 -23q0 -25 -25 -36q-137 -50 -268 -50q-199 0 -330 127t-131 330q0 192 127 324.5t322 132.5t321.5 -132.5t126.5 -324.5v-31q0 -14 -11.5 -26
t-24.5 -12h-693q12 -53 36.5 -94.5t54 -67.5t65.5 -42.5t69.5 -23t69.5 -6.5q93 0 193 35zM786 985h-471q-14 0 -26.5 12t-12.5 25v80q0 13 12.5 25t26.5 12h471q14 0 26.5 -12t12.5 -25v-80q0 -13 -12.5 -25t-26.5 -12z" />
    <glyph glyph-name="Edotaccent" unicode="&#x116;" horiz-adv-x="1032" 
d="M311 154h572q14 0 26.5 -12t12.5 -25v-80q0 -13 -12.5 -25t-26.5 -12h-703q-13 0 -25 12.5t-12 26.5v1108q0 14 12 26.5t25 12.5h703q14 0 26.5 -12t12.5 -25v-80q0 -13 -12.5 -25t-26.5 -12h-572v-377h527q14 0 26.5 -12t12.5 -25v-79q0 -13 -12.5 -25t-26.5 -12h-527
v-348zM436 1389q0 43 30 73.5t71 30.5q43 0 73.5 -30.5t30.5 -73.5q0 -41 -30.5 -70t-73.5 -29q-41 0 -71 29t-30 70z" />
    <glyph glyph-name="edotaccent" unicode="&#x117;" horiz-adv-x="1085" 
d="M270 504h561q-33 116 -111 174.5t-169 58.5t-169.5 -58.5t-111.5 -174.5zM758 166q8 4 20 4q13 0 25 -18l47 -66q6 -8 6 -23q0 -25 -25 -36q-137 -50 -268 -50q-199 0 -330 127t-131 330q0 192 127 324.5t322 132.5t321.5 -132.5t126.5 -324.5v-31q0 -14 -11.5 -26
t-24.5 -12h-693q12 -53 36.5 -94.5t54 -67.5t65.5 -42.5t69.5 -23t69.5 -6.5q93 0 193 35zM449 1083q0 43 29.5 74t70.5 31q43 0 73.5 -31t30.5 -74q0 -41 -30.5 -69.5t-73.5 -28.5q-41 0 -70.5 28.5t-29.5 69.5z" />
    <glyph glyph-name="Eogonek" unicode="&#x118;" horiz-adv-x="1032" 
d="M842 -223q-62 -4 -88 -4q-29 0 -56 6.5t-56 22t-46.5 48.5t-17.5 80q0 44 26 70h-424q-13 0 -25 12.5t-12 26.5v1108q0 14 12 26.5t25 12.5h703q14 0 26.5 -12t12.5 -25v-80q0 -13 -12.5 -25t-26.5 -12h-572v-377h527q14 0 26.5 -12t12.5 -25v-79q0 -13 -12.5 -25
t-26.5 -12h-527v-348h572q14 0 26.5 -12t12.5 -25v-80q0 -13 -12.5 -25t-26.5 -12h-117q-55 -16 -55 -61q0 -36 14 -49t53 -13q30 0 64 6q9 0 15.5 -6t6.5 -14v-64q0 -8 -7 -14t-15 -8z" />
    <glyph glyph-name="eogonek" unicode="&#x119;" horiz-adv-x="1085" 
d="M698 -242q-62 -4 -88 -4q-22 0 -43.5 3.5t-46.5 14t-43.5 27t-30.5 46t-12 67.5q0 46 19 78q-157 31 -254 150.5t-97 293.5q0 192 127 324.5t322 132.5t321.5 -132.5t126.5 -324.5v-31q0 -14 -11.5 -26t-24.5 -12h-693q12 -53 36.5 -94.5t54 -67.5t65.5 -42.5t69.5 -23
t69.5 -6.5q93 0 193 35q8 4 20 4q13 0 25 -18l47 -66q6 -8 6 -23q0 -25 -25 -36q-95 -36 -215 -47q-19 -6 -34 -21t-15 -39q0 -35 14 -48t54 -13q29 0 63 6q9 0 16 -6.5t7 -14.5v-63q0 -8 -7.5 -14.5t-15.5 -8.5zM270 504h561q-33 116 -111 174.5t-169 58.5t-169.5 -58.5
t-111.5 -174.5z" />
    <glyph glyph-name="Ecaron" unicode="&#x11a;" horiz-adv-x="1032" 
d="M311 154h572q14 0 26.5 -12t12.5 -25v-80q0 -13 -12.5 -25t-26.5 -12h-703q-13 0 -25 12.5t-12 26.5v1108q0 14 12 26.5t25 12.5h703q14 0 26.5 -12t12.5 -25v-80q0 -13 -12.5 -25t-26.5 -12h-572v-377h527q14 0 26.5 -12t12.5 -25v-79q0 -13 -12.5 -25t-26.5 -12h-527
v-348zM623 1290h-168q-24 0 -41 29l-156 262q0 18 13.5 31.5t31.5 13.5h84q10 0 21.5 -8t17.5 -19l113 -180l110 180q6 11 17.5 19t21.5 8h84q18 0 31.5 -13.5t13.5 -31.5l-153 -262q-17 -29 -41 -29z" />
    <glyph glyph-name="ecaron" unicode="&#x11b;" horiz-adv-x="1085" 
d="M270 504h561q-33 116 -111 174.5t-169 58.5t-169.5 -58.5t-111.5 -174.5zM758 166q8 4 20 4q13 0 25 -18l47 -66q6 -8 6 -23q0 -25 -25 -36q-137 -50 -268 -50q-199 0 -330 127t-131 330q0 192 127 324.5t322 132.5t321.5 -132.5t126.5 -324.5v-31q0 -14 -11.5 -26
t-24.5 -12h-693q12 -53 36.5 -94.5t54 -67.5t65.5 -42.5t69.5 -23t69.5 -6.5q93 0 193 35zM637 985h-168q-24 0 -41 29l-156 262q0 18 13.5 31.5t31.5 13.5h84q10 0 21.5 -8t17.5 -19l113 -180l111 180q15 27 38 27h84q18 0 31.5 -13.5t13.5 -31.5l-153 -262
q-17 -29 -41 -29z" />
    <glyph glyph-name="Gcircumflex" unicode="&#x11c;" horiz-adv-x="1456" 
d="M1262 993q12 -9 12 -26q0 -18 -14 -29l-68 -49q-12 -8 -21 -8q-12 0 -20 12q-136 160 -395 160q-191 0 -328 -133.5t-137 -327.5q0 -93 37.5 -178t100 -147t148.5 -99t179 -37q78 0 143.5 19t108 50t75.5 68t50 74t28 68t14 50l3 19h-263q-14 0 -26 12t-12 25v80
q0 13 12 25t26 12h392q14 0 26.5 -12t12.5 -25v-119q-16 -102 -55 -184.5t-85.5 -133.5t-108 -88.5t-110 -54.5t-105 -27t-79.5 -11t-47 -1q-129 0 -246 48.5t-202 131t-135 196.5t-50 239t50 239t135 196t202 130.5t246 48.5q97 0 182.5 -20.5t147 -54.5t103 -67.5
t73.5 -70.5zM672 1638h168q25 0 41 -28l153 -275q0 -18 -13.5 -31.5t-31.5 -13.5h-84q-10 0 -21.5 8t-17.5 19l-110 192l-111 -192q-6 -11 -17.5 -19t-21.5 -8h-84q-18 0 -31.5 13.5t-13.5 31.5l154 275q16 28 41 28z" />
    <glyph glyph-name="gcircumflex" unicode="&#x11d;" horiz-adv-x="1212" 
d="M584 737q-132 0 -223 -85.5t-91 -217.5t91 -217.5t223 -85.5q131 0 222 82t95 209v27q-4 126 -95 207t-222 81zM274 -332q-20 9 -20 33q0 12 4 20l39 68q8 14 29 14q8 0 20 -4q117 -53 246 -53q48 0 97 13t99 41.5t81.5 85.5t31.5 134v84q-45 -45 -96 -73t-103.5 -38.5
t-81.5 -13t-71 -2.5q-121 0 -224 61t-163 166.5t-60 229.5t60 229.5t163 166.5t224 61q42 0 71 -2.5t81.5 -13t103.5 -38.5t96 -73v65q0 14 12 26.5t25 12.5h94q13 0 25 -12.5t12 -26.5v-813q0 -123 -64.5 -220.5t-173.5 -150.5t-241 -53q-172 0 -316 76zM494 1333h168
q24 0 40 -28l154 -275q0 -18 -13.5 -31.5t-31.5 -13.5h-84q-10 0 -21.5 8t-17.5 19l-110 192l-111 -192q-6 -11 -17.5 -19t-21.5 -8h-84q-18 0 -31.5 13.5t-13.5 31.5l154 275q16 28 41 28z" />
    <glyph glyph-name="Gbreve" unicode="&#x11e;" horiz-adv-x="1456" 
d="M1262 993q12 -9 12 -26q0 -18 -14 -29l-68 -49q-12 -8 -21 -8q-12 0 -20 12q-136 160 -395 160q-191 0 -328 -133.5t-137 -327.5q0 -93 37.5 -178t100 -147t148.5 -99t179 -37q78 0 143.5 19t108 50t75.5 68t50 74t28 68t14 50l3 19h-263q-14 0 -26 12t-12 25v80
q0 13 12 25t26 12h392q14 0 26.5 -12t12.5 -25v-119q-16 -102 -55 -184.5t-85.5 -133.5t-108 -88.5t-110 -54.5t-105 -27t-79.5 -11t-47 -1q-129 0 -246 48.5t-202 131t-135 196.5t-50 239t50 239t135 196t202 130.5t246 48.5q97 0 182.5 -20.5t147 -54.5t103 -67.5
t73.5 -70.5zM756 1290q-144 0 -237 62t-122 176q0 14 11 25.5t24 11.5h86q22 0 33 -25q41 -121 205 -121t205 121q11 25 32 25h86q13 0 24 -11.5t11 -25.5q-29 -114 -121.5 -176t-236.5 -62z" />
    <glyph glyph-name="gbreve" unicode="&#x11f;" horiz-adv-x="1212" 
d="M584 737q-132 0 -223 -85.5t-91 -217.5t91 -217.5t223 -85.5q131 0 222 82t95 209v27q-4 126 -95 207t-222 81zM274 -332q-20 9 -20 33q0 12 4 20l39 68q8 14 29 14q8 0 20 -4q117 -53 246 -53q48 0 97 13t99 41.5t81.5 85.5t31.5 134v84q-45 -45 -96 -73t-103.5 -38.5
t-81.5 -13t-71 -2.5q-121 0 -224 61t-163 166.5t-60 229.5t60 229.5t163 166.5t224 61q42 0 71 -2.5t81.5 -13t103.5 -38.5t96 -73v65q0 14 12 26.5t25 12.5h94q13 0 25 -12.5t12 -26.5v-813q0 -123 -64.5 -220.5t-173.5 -150.5t-241 -53q-172 0 -316 76zM592 985
q-144 0 -237 62t-122 176q0 14 11 25.5t24 11.5h86q22 0 33 -25q41 -121 205 -121t205 121q11 25 32 25h86q13 0 24 -11.5t11 -25.5q-29 -114 -121.5 -176t-236.5 -62z" />
    <glyph glyph-name="Gdotaccent" unicode="&#x120;" horiz-adv-x="1456" 
d="M1262 993q12 -9 12 -26q0 -18 -14 -29l-68 -49q-12 -8 -21 -8q-12 0 -20 12q-136 160 -395 160q-191 0 -328 -133.5t-137 -327.5q0 -93 37.5 -178t100 -147t148.5 -99t179 -37q78 0 143.5 19t108 50t75.5 68t50 74t28 68t14 50l3 19h-263q-14 0 -26 12t-12 25v80
q0 13 12 25t26 12h392q14 0 26.5 -12t12.5 -25v-119q-16 -102 -55 -184.5t-85.5 -133.5t-108 -88.5t-110 -54.5t-105 -27t-79.5 -11t-47 -1q-129 0 -246 48.5t-202 131t-135 196.5t-50 239t50 239t135 196t202 130.5t246 48.5q97 0 182.5 -20.5t147 -54.5t103 -67.5
t73.5 -70.5zM657 1389q0 43 30 73.5t71 30.5q43 0 73.5 -30.5t30.5 -73.5q0 -41 -30.5 -70t-73.5 -29q-41 0 -71 29t-30 70z" />
    <glyph glyph-name="gdotaccent" unicode="&#x121;" horiz-adv-x="1212" 
d="M584 737q-132 0 -223 -85.5t-91 -217.5t91 -217.5t223 -85.5q131 0 222 82t95 209v27q-4 126 -95 207t-222 81zM274 -332q-20 9 -20 33q0 12 4 20l39 68q8 14 29 14q8 0 20 -4q117 -53 246 -53q48 0 97 13t99 41.5t81.5 85.5t31.5 134v84q-45 -45 -96 -73t-103.5 -38.5
t-81.5 -13t-71 -2.5q-121 0 -224 61t-163 166.5t-60 229.5t60 229.5t163 166.5t224 61q42 0 71 -2.5t81.5 -13t103.5 -38.5t96 -73v65q0 14 12 26.5t25 12.5h94q13 0 25 -12.5t12 -26.5v-813q0 -123 -64.5 -220.5t-173.5 -150.5t-241 -53q-172 0 -316 76zM487 1083
q0 43 30 74t71 31q43 0 73.5 -31t30.5 -74q0 -41 -30.5 -69.5t-73.5 -28.5q-42 0 -71.5 28.5t-29.5 69.5z" />
    <glyph glyph-name="uni0122" unicode="&#x122;" horiz-adv-x="1456" 
d="M1262 993q12 -9 12 -26q0 -18 -14 -29l-68 -49q-12 -8 -21 -8q-12 0 -20 12q-136 160 -395 160q-191 0 -328 -133.5t-137 -327.5q0 -93 37.5 -178t100 -147t148.5 -99t179 -37q78 0 143.5 19t108 50t75.5 68t50 74t28 68t14 50l3 19h-263q-14 0 -26 12t-12 25v80
q0 13 12 25t26 12h392q14 0 26.5 -12t12.5 -25v-119q-16 -102 -55 -184.5t-85.5 -133.5t-108 -88.5t-110 -54.5t-105 -27t-79.5 -11t-47 -1q-129 0 -246 48.5t-202 131t-135 196.5t-50 239t50 239t135 196t202 130.5t246 48.5q97 0 182.5 -20.5t147 -54.5t103 -67.5
t73.5 -70.5zM821 -141l-86 -170q-6 -19 -28 -19h-82q-14 0 -23.5 10.5t-9.5 24.5l67 166q3 9 12 14.5t17 5.5h98q15 0 25 -10t10 -22z" />
    <glyph glyph-name="uni0123" unicode="&#x123;" horiz-adv-x="1212" 
d="M584 737q-132 0 -223 -85.5t-91 -217.5t91 -217.5t223 -85.5q131 0 222 82t95 209v27q-4 126 -95 207t-222 81zM274 -332q-20 9 -20 33q0 12 4 20l39 68q8 14 29 14q8 0 20 -4q117 -53 246 -53q48 0 97 13t99 41.5t81.5 85.5t31.5 134v84q-45 -45 -96 -73t-103.5 -38.5
t-81.5 -13t-71 -2.5q-121 0 -224 61t-163 166.5t-60 229.5t60 229.5t163 166.5t224 61q42 0 71 -2.5t81.5 -13t103.5 -38.5t96 -73v65q0 14 12 26.5t25 12.5h94q13 0 25 -12.5t12 -26.5v-813q0 -123 -64.5 -220.5t-173.5 -150.5t-241 -53q-172 0 -316 76zM510 1018l117 172
q18 18 30 18h88q15 0 25 -10t10 -24l-96 -168q-13 -21 -31 -21h-108q-15 0 -25 10.5t-10 22.5z" />
    <glyph glyph-name="Hcircumflex" unicode="&#x124;" horiz-adv-x="1257" 
d="M1114 1147v-1108q0 -14 -12 -26.5t-25 -12.5h-94q-13 0 -25 12.5t-12 26.5v416h-635v-416q0 -14 -12 -26.5t-25 -12.5h-94q-13 0 -25 12.5t-12 26.5v1108q0 14 12 26.5t25 12.5h94q13 0 25 -12.5t12 -26.5v-539h635v539q0 14 12 26.5t25 12.5h94q13 0 25 -12.5t12 -26.5z
M545 1638h168q25 0 41 -28l153 -275q0 -18 -13.5 -31.5t-31.5 -13.5h-84q-10 0 -21.5 8t-17.5 19l-110 192l-111 -192q-6 -11 -17.5 -19t-21.5 -8h-84q-18 0 -31.5 13.5t-13.5 31.5l154 275q16 28 41 28z" />
    <glyph glyph-name="hcircumflex" unicode="&#x125;" horiz-adv-x="1081" 
d="M791 39v448q0 250 -211 250q-66 0 -120.5 -29t-85 -71.5t-47 -84.5t-16.5 -75v-438q0 -14 -12 -26.5t-25 -12.5h-94q-13 0 -25 12.5t-12 26.5v1147q0 14 12 26.5t25 12.5h94q13 0 25 -12.5t12 -26.5v-424q36 45 79 74t88 39.5t70.5 13t59.5 2.5q70 0 127.5 -17.5
t93 -43.5t61.5 -63t38.5 -68t20 -66.5t8.5 -51.5t1 -30v-512q0 -14 -11.5 -26.5t-24.5 -12.5h-95q-13 0 -24.5 12.5t-11.5 26.5zM367 1638h168q24 0 40 -28l154 -275q0 -18 -13.5 -31.5t-31.5 -13.5h-84q-10 0 -21.5 8t-17.5 19l-110 192l-111 -192q-6 -11 -17.5 -19
t-21.5 -8h-84q-18 0 -31.5 13.5t-13.5 31.5l154 275q16 28 41 28z" />
    <glyph glyph-name="Hbar" unicode="&#x126;" horiz-adv-x="1323" 
d="M1219 891h-72v-852q0 -14 -12 -26.5t-25 -12.5h-94q-13 0 -25 12.5t-12 26.5v416h-635v-416q0 -14 -12 -26.5t-25 -12.5h-94q-13 0 -25 12.5t-12 26.5v852h-72q-14 0 -26 12t-12 25v80q0 13 12 24.5t26 11.5h72v103q0 14 12 26.5t25 12.5h94q13 0 25 -12.5t12 -26.5v-103
h635v103q0 14 12 26.5t25 12.5h94q13 0 25 -12.5t12 -26.5v-103h72q14 0 26 -11.5t12 -24.5v-80q0 -13 -12 -25t-26 -12zM344 608h635v283h-635v-283z" />
    <glyph glyph-name="hbar" unicode="&#x127;" horiz-adv-x="1103" 
d="M442 985h-108v-223q36 45 79 74t88 39.5t70.5 13t59.5 2.5q70 0 127.5 -17.5t93 -43.5t61.5 -63t38.5 -68t20 -66.5t8.5 -51.5t1 -30v-512q0 -14 -12 -26.5t-25 -12.5h-94q-13 0 -25 12.5t-12 26.5v448q0 250 -211 250q-54 0 -100 -19.5t-76 -49t-51.5 -65.5t-31 -68.5
t-9.5 -57.5v-438q0 -14 -12 -26.5t-25 -12.5h-94q-13 0 -25 12.5t-12 26.5v946h-82q-14 0 -26.5 12t-12.5 25v80q0 13 12.5 25t26.5 12h82v47q0 14 12 26.5t25 12.5h94q13 0 25 -12.5t12 -26.5v-47h108q14 0 26.5 -12t12.5 -25v-80q0 -13 -12.5 -25t-26.5 -12z" />
    <glyph glyph-name="Itilde" unicode="&#x128;" 
d="M311 1147v-1108q0 -14 -12 -26.5t-25 -12.5h-94q-13 0 -25 12.5t-12 26.5v1108q0 14 12 26.5t25 12.5h94q13 0 25 -12.5t12 -26.5zM381 1290q-49 0 -101.5 23.5t-100.5 47t-87 23.5q-60 0 -67 -75q-6 -21 -29 -21h-78q-15 0 -24 10t-9 25q7 58 25.5 100.5t39.5 64
t48 33.5t43 14.5t33 2.5q52 0 107.5 -23.5t102 -47t78.5 -23.5q61 0 68 76q6 20 29 20h78q15 0 23.5 -10t8.5 -25q-7 -58 -25.5 -100.5t-39 -64t-47.5 -33.5t-43 -14.5t-33 -2.5z" />
    <glyph glyph-name="itilde" unicode="&#x129;" 
d="M311 829v-790q0 -14 -12 -26.5t-25 -12.5h-94q-13 0 -25 12.5t-12 26.5v790q0 14 12 26.5t25 12.5h94q13 0 25 -12.5t12 -26.5zM381 987q-49 0 -101.5 23.5t-100.5 47t-87 23.5q-60 0 -67 -75q-6 -21 -29 -21h-78q-15 0 -24 10t-9 25q7 58 25.5 100.5t39.5 64t48 33.5
t43 14.5t33 2.5q52 0 107.5 -23.5t102 -47t78.5 -23.5q61 0 68 76q6 20 29 20h78q15 0 23.5 -10t8.5 -25q-7 -58 -25.5 -100.5t-39 -64t-47.5 -33.5t-43 -14.5t-33 -2.5z" />
    <glyph glyph-name="Imacron" unicode="&#x12a;" 
d="M311 1147v-1108q0 -14 -12 -26.5t-25 -12.5h-94q-13 0 -25 12.5t-12 26.5v1108q0 14 12 26.5t25 12.5h94q13 0 25 -12.5t12 -26.5zM424 1290h-393q-14 0 -26.5 12t-12.5 25v80q0 13 12.5 25t26.5 12h393q14 0 26.5 -12t12.5 -25v-80q0 -13 -12.5 -25t-26.5 -12z" />
    <glyph glyph-name="imacron" unicode="&#x12b;" 
d="M311 829v-790q0 -14 -12 -26.5t-25 -12.5h-94q-13 0 -25 12.5t-12 26.5v790q0 14 12 26.5t25 12.5h94q13 0 25 -12.5t12 -26.5zM424 985h-393q-14 0 -26.5 12t-12.5 25v80q0 13 12.5 25t26.5 12h393q14 0 26.5 -12t12.5 -25v-80q0 -13 -12.5 -25t-26.5 -12z" />
    <glyph glyph-name="Iogonek" unicode="&#x12e;" 
d="M299 -225q-62 -4 -86 -4q-29 0 -57 6.5t-59 22t-49.5 48.5t-18.5 80q0 24 6.5 44.5t16.5 34t22 24t24 17t22 10.5t16 6l7 2v1081q0 14 12 26.5t25 12.5h94q13 0 25 -12.5t12 -26.5v-1108q0 -14 -12 -26.5t-25 -12.5h-34q-18 0 -48 -16t-30 -47q0 -35 17.5 -48.5
t58.5 -13.5q1 0 61 6q10 0 17.5 -6.5t7.5 -15.5v-60q0 -20 -25 -24z" />
    <glyph glyph-name="iogonek" unicode="&#x12f;" 
d="M125 1079q0 44 30.5 75.5t71.5 31.5q43 0 74 -31.5t31 -75.5q0 -41 -31 -70.5t-74 -29.5q-41 0 -71.5 29.5t-30.5 70.5zM299 -225q-62 -4 -86 -4q-29 0 -57 6.5t-59 22t-49.5 48.5t-18.5 80q0 24 6.5 44.5t16.5 34t22 24t24 17t22 10.5t16 6l7 2v763q0 14 12 26.5
t25 12.5h94q13 0 25 -12.5t12 -26.5v-790q0 -14 -12 -26.5t-25 -12.5h-34q-18 0 -48 -16t-30 -47q0 -35 17.5 -48.5t58.5 -13.5q1 0 61 6q10 0 17.5 -6.5t7.5 -15.5v-60q0 -20 -25 -24z" />
    <glyph glyph-name="Idotaccent" unicode="&#x130;" horiz-adv-x="456" 
d="M127 1391q0 44 30 75t72 31q43 0 74 -31t31 -75q0 -41 -31 -71t-74 -30q-41 0 -71.5 30t-30.5 71zM313 1147v-1108q0 -14 -12 -26.5t-25 -12.5h-94q-13 0 -25 12.5t-12 26.5v1108q0 14 12 26.5t25 12.5h94q13 0 25 -12.5t12 -26.5z" />
    <glyph glyph-name="dotlessi" unicode="&#x131;" 
d="M311 829v-790q0 -14 -12 -26.5t-25 -12.5h-94q-13 0 -25 12.5t-12 26.5v790q0 14 12 26.5t25 12.5h94q13 0 25 -12.5t12 -26.5z" />
    <glyph glyph-name="Jcircumflex" unicode="&#x134;" horiz-adv-x="907" 
d="M182 203q98 -72 195 -72q58 0 105 21t72.5 53t38.5 63t13 56v823q0 14 12 26.5t25 12.5h94q13 0 25 -12.5t12 -26.5v-823q0 -152 -113 -249.5t-296 -97.5q-193 0 -318 129q-6 9 -6 19q0 26 18 37l72 43q12 6 25 6q10 0 26 -8zM383 1638h168q25 0 41 -28l153 -275
q0 -18 -13.5 -31.5t-31.5 -13.5h-84q-23 0 -38 27l-111 192l-111 -192q-6 -11 -17.5 -19t-21.5 -8h-84q-18 0 -31.5 13.5t-13.5 31.5l154 275q16 28 41 28z" />
    <glyph glyph-name="jcircumflex" unicode="&#x135;" 
d="M-61 -356q-14 0 -26.5 12t-12.5 25v79q0 13 12.5 25t26.5 12l34 -2q48 0 83 18t51 43.5t25 51t10 43.5l1 18v860q0 14 12 26.5t25 12.5h94q13 0 25 -12.5t12 -26.5v-858q0 -68 -14 -122t-34 -87.5t-50 -58t-54.5 -36t-55.5 -18t-44 -7t-30 -0.5q-61 0 -90 2zM143 1333
h168q25 0 41 -28l154 -275q0 -18 -13.5 -31.5t-31.5 -13.5h-84q-10 0 -21.5 8t-17.5 19l-111 192l-110 -192q-6 -11 -17.5 -19t-21.5 -8h-84q-18 0 -31.5 13.5t-13.5 31.5l153 275q16 28 41 28z" />
    <glyph glyph-name="uni0136" unicode="&#x136;" horiz-adv-x="1093" 
d="M475 604l588 -567q0 -14 -11 -25.5t-26 -11.5h-156q-14 0 -24 10l-535 516v-487q0 -14 -12 -26.5t-25 -12.5h-94q-13 0 -25 12.5t-12 26.5v1108q0 14 12 26.5t25 12.5h94q13 0 25 -12.5t12 -26.5v-475l490 504q10 10 24 10h144q15 0 26 -11.5t11 -25.5zM664 -141
l-86 -170q-6 -19 -29 -19h-82q-14 0 -23.5 10.5t-9.5 24.5l68 166q7 20 28 20h99q15 0 25 -10t10 -22z" />
    <glyph glyph-name="uni0137" unicode="&#x137;" horiz-adv-x="950" 
d="M492 442l409 -399q0 -19 -12 -31t-29 -12h-139q-5 0 -9.5 1t-9 4.5t-6.5 5.5l-7.5 7.5l-6.5 6.5l-371 356v-342q0 -14 -12 -26.5t-25 -12.5h-94q-13 0 -25 12.5t-12 26.5v1149q0 14 12 26.5t25 12.5h94q13 0 25 -12.5t12 -26.5v-688l344 344l5.5 5.5l6 6t5.5 5t6.5 4.5
t7 2t8.5 1h140q17 0 28.5 -12t11.5 -31zM569 -141l-86 -170q-6 -19 -28 -19h-82q-14 0 -23.5 10.5t-9.5 24.5l68 166q7 20 28 20h99q15 0 24.5 -9.5t9.5 -22.5z" />
    <glyph glyph-name="kgreenlandic" unicode="&#x138;" horiz-adv-x="950" 
d="M492 442l409 -399q0 -19 -12 -31t-29 -12h-139q-5 0 -9.5 1t-9 4.5t-6.5 5.5l-7.5 7.5l-6.5 6.5l-371 356v-342q0 -14 -12 -26.5t-25 -12.5h-94q-13 0 -25 12.5t-12 26.5v790q0 14 12 26.5t25 12.5h94q13 0 25 -12.5t12 -26.5v-329l344 344l5.5 5.5l6 6t5.5 5t6.5 4.5
t7 2t8.5 1h140q17 0 28.5 -12t11.5 -31z" />
    <glyph glyph-name="Lacute" unicode="&#x139;" horiz-adv-x="993" 
d="M883 0h-703q-13 0 -25 12.5t-12 26.5v1108q0 14 12 26.5t25 12.5h94q13 0 25 -12.5t12 -26.5v-993h572q14 0 26.5 -12t12.5 -25v-80q0 -13 -12.5 -25t-26.5 -12zM451 1481l-117 -172q-19 -19 -31 -19h-88q-15 0 -25 10.5t-10 24.5l96 168q12 20 31 20h109q15 0 25 -10
t10 -22z" />
    <glyph glyph-name="lacute" unicode="&#x13a;" 
d="M311 1147v-1108q0 -14 -12 -26.5t-25 -12.5h-94q-13 0 -25 12.5t-12 26.5v1108q0 14 12 26.5t25 12.5h94q13 0 25 -12.5t12 -26.5zM436 1481l-117 -172q-19 -19 -30 -19h-88q-15 0 -25 10.5t-10 24.5l96 168q12 20 31 20h108q15 0 25 -10t10 -22z" />
    <glyph glyph-name="uni013B" unicode="&#x13b;" horiz-adv-x="993" 
d="M883 0h-703q-13 0 -25 12.5t-12 26.5v1108q0 14 12 26.5t25 12.5h94q13 0 25 -12.5t12 -26.5v-993h572q14 0 26.5 -12t12.5 -25v-80q0 -13 -12.5 -25t-26.5 -12zM606 -141l-86 -170q-6 -19 -28 -19h-82q-14 0 -23.5 10.5t-9.5 24.5l67 166q3 9 12 14.5t17 5.5h98
q15 0 25 -10t10 -22z" />
    <glyph glyph-name="uni013C" unicode="&#x13c;" 
d="M311 1147v-1108q0 -14 -12 -26.5t-25 -12.5h-94q-13 0 -25 12.5t-12 26.5v1108q0 14 12 26.5t25 12.5h94q13 0 25 -12.5t12 -26.5zM299 -141l-86 -170q-6 -19 -29 -19h-82q-14 0 -23 10.5t-9 24.5l67 166q3 9 12 14.5t17 5.5h98q15 0 25 -10t10 -22z" />
    <glyph glyph-name="Lcaron" unicode="&#x13d;" horiz-adv-x="993" 
d="M883 0h-703q-13 0 -25 12.5t-12 26.5v1108q0 14 12 26.5t25 12.5h94q13 0 25 -12.5t12 -26.5v-993h572q14 0 26.5 -12t12.5 -25v-80q0 -13 -12.5 -25t-26.5 -12zM897 1159l-90 -196q-15 -15 -27 -15h-96q-11 0 -18 8t-7 21l91 192q8 17 26 17h94q12 0 19.5 -8t7.5 -19z
" />
    <glyph glyph-name="lcaron" unicode="&#x13e;" horiz-adv-x="892" 
d="M311 1147v-1108q0 -14 -12 -26.5t-25 -12.5h-94q-13 0 -25 12.5t-12 26.5v1108q0 14 12 26.5t25 12.5h94q13 0 25 -12.5t12 -26.5zM868 1159l-90 -196q-15 -15 -26 -15h-97q-24 0 -24 29l90 192q9 17 27 17h94q12 0 19 -8t7 -19z" />
    <glyph glyph-name="Lslash" unicode="&#x141;" horiz-adv-x="1103" 
d="M578 639l-156 -31v-454h571q14 0 26.5 -12t12.5 -25v-80q0 -13 -12.5 -25t-26.5 -12h-702q-13 0 -25 12.5t-12 26.5v534l-152 -28q-13 0 -24.5 11.5t-11.5 23.5v67q0 13 10.5 22.5t25.5 12.5l152 29v436q0 14 12 26.5t25 12.5h94q13 0 25 -12.5t12 -26.5v-402l156 31
q14 0 25 -11t11 -24v-67q0 -12 -11 -22t-25 -13z" />
    <glyph glyph-name="lslash" unicode="&#x142;" horiz-adv-x="679" 
d="M578 639l-152 -31v-569q0 -14 -12 -26.5t-25 -12.5h-94q-13 0 -25 12.5t-12 26.5v536l-156 -30q-13 0 -24.5 11.5t-11.5 23.5v65q0 13 10.5 22.5t25.5 12.5l156 33v434q0 14 12 26.5t25 12.5h94q13 0 25 -12.5t12 -26.5v-402l152 31q14 0 25 -11t11 -24v-67
q0 -12 -11 -22t-25 -13z" />
    <glyph glyph-name="Nacute" unicode="&#x143;" horiz-adv-x="1314" 
d="M991 14l-680 897v-872q0 -14 -12 -26.5t-25 -12.5h-94q-13 0 -25 12.5t-12 26.5v1108q0 14 12 26.5t25 12.5h117q16 0 27 -15l680 -895v871q0 14 11.5 26.5t24.5 12.5h95q13 0 24.5 -12.5t11.5 -26.5v-1108q0 -14 -11.5 -26.5t-24.5 -12.5h-117q-16 0 -27 14zM870 1481
l-116 -172q-19 -19 -31 -19h-88q-15 0 -25 10.5t-10 24.5l96 168q12 20 31 20h109q14 0 24 -9.5t10 -22.5z" />
    <glyph glyph-name="nacute" unicode="&#x144;" horiz-adv-x="1081" 
d="M791 39v448q0 250 -211 250q-66 0 -120.5 -29t-85 -71.5t-47 -84.5t-16.5 -75v-438q0 -14 -12 -26.5t-25 -12.5h-94q-13 0 -25 12.5t-12 26.5v790q0 14 12 26.5t25 12.5h94q13 0 25 -12.5t12 -26.5v-67q36 45 79 74t88 39.5t70.5 13t59.5 2.5q70 0 127.5 -17.5t93 -43.5
t61.5 -63t38.5 -68t20 -66.5t8.5 -51.5t1 -30v-512q0 -14 -11.5 -26.5t-24.5 -12.5h-95q-13 0 -24.5 12.5t-11.5 26.5zM801 1176l-117 -172q-19 -19 -31 -19h-88q-15 0 -25 10.5t-10 24.5l97 168q12 20 30 20h109q15 0 25 -10t10 -22z" />
    <glyph glyph-name="uni0145" unicode="&#x145;" horiz-adv-x="1314" 
d="M991 14l-680 897v-872q0 -14 -12 -26.5t-25 -12.5h-94q-13 0 -25 12.5t-12 26.5v1108q0 14 12 26.5t25 12.5h117q16 0 27 -15l680 -895v871q0 14 11.5 26.5t24.5 12.5h95q13 0 24.5 -12.5t11.5 -26.5v-1108q0 -14 -11.5 -26.5t-24.5 -12.5h-117q-16 0 -27 14zM764 -141
l-86 -170q-6 -19 -29 -19h-82q-14 0 -23 10.5t-9 24.5l67 166q3 9 12 14.5t17 5.5h98q15 0 25 -10t10 -22z" />
    <glyph glyph-name="uni0146" unicode="&#x146;" horiz-adv-x="1081" 
d="M791 39v448q0 250 -211 250q-66 0 -120.5 -29t-85 -71.5t-47 -84.5t-16.5 -75v-438q0 -14 -12 -26.5t-25 -12.5h-94q-13 0 -25 12.5t-12 26.5v790q0 14 12 26.5t25 12.5h94q13 0 25 -12.5t12 -26.5v-67q36 45 79 74t88 39.5t70.5 13t59.5 2.5q70 0 127.5 -17.5t93 -43.5
t61.5 -63t38.5 -68t20 -66.5t8.5 -51.5t1 -30v-512q0 -14 -11.5 -26.5t-24.5 -12.5h-95q-13 0 -24.5 12.5t-11.5 26.5zM633 -143l-82 -166q-11 -21 -29 -21h-84q-16 0 -25.5 10.5t-9.5 24.5l66 164q3 9 13 15.5t18 6.5h98q15 0 25 -10t10 -24z" />
    <glyph glyph-name="Ncaron" unicode="&#x147;" horiz-adv-x="1314" 
d="M991 14l-680 897v-872q0 -14 -12 -26.5t-25 -12.5h-94q-13 0 -25 12.5t-12 26.5v1108q0 14 12 26.5t25 12.5h117q16 0 27 -15l680 -895v871q0 14 11.5 26.5t24.5 12.5h95q13 0 24.5 -12.5t11.5 -26.5v-1108q0 -14 -11.5 -26.5t-24.5 -12.5h-117q-16 0 -27 14zM741 1290
h-168q-24 0 -41 29l-155 262q0 18 13.5 31.5t31.5 13.5h84q10 0 21.5 -8t17.5 -19l112 -180l111 180q6 11 17.5 19t21.5 8h84q18 0 31.5 -13.5t13.5 -31.5l-154 -262q-17 -29 -41 -29z" />
    <glyph glyph-name="ncaron" unicode="&#x148;" horiz-adv-x="1081" 
d="M791 39v448q0 250 -211 250q-66 0 -120.5 -29t-85 -71.5t-47 -84.5t-16.5 -75v-438q0 -14 -12 -26.5t-25 -12.5h-94q-13 0 -25 12.5t-12 26.5v790q0 14 12 26.5t25 12.5h94q13 0 25 -12.5t12 -26.5v-67q36 45 79 74t88 39.5t70.5 13t59.5 2.5q70 0 127.5 -17.5t93 -43.5
t61.5 -63t38.5 -68t20 -66.5t8.5 -51.5t1 -30v-512q0 -14 -11.5 -26.5t-24.5 -12.5h-95q-13 0 -24.5 12.5t-11.5 26.5zM668 985h-168q-24 0 -41 29l-156 262q0 18 13.5 31.5t31.5 13.5h84q10 0 21.5 -8t17.5 -19l113 -180l110 180q6 11 17.5 19t21.5 8h84q18 0 31.5 -13.5
t13.5 -31.5l-153 -262q-17 -29 -41 -29z" />
    <glyph glyph-name="Eng" unicode="&#x14a;" horiz-adv-x="1314" 
d="M799 -356q-14 0 -26.5 12t-12.5 25v79q0 13 12.5 25t26.5 12l35 -2q48 0 83 18t51 43.5t25 51t10 43.5l1 18v27l-693 915v-872q0 -14 -12 -26.5t-25 -12.5h-94q-13 0 -25 12.5t-12 26.5v1108q0 14 12 26.5t25 12.5h117q16 0 27 -15l680 -895v871q0 14 11.5 26.5
t24.5 12.5h95q13 0 24.5 -12.5t11.5 -26.5v-1176q0 -68 -14 -122t-34 -87.5t-50 -58t-54.5 -36t-55.5 -18t-44 -7t-30 -0.5q-61 0 -90 2z" />
    <glyph glyph-name="eng" unicode="&#x14b;" horiz-adv-x="1081" 
d="M586 -356q-14 0 -26.5 12t-12.5 25v79q0 13 12.5 25t26.5 12l35 -2q48 0 83 18t51 43.5t25 51t10 43.5l1 18v518q0 250 -211 250q-66 0 -120.5 -29t-85 -71.5t-47 -84.5t-16.5 -75v-438q0 -14 -12 -26.5t-25 -12.5h-94q-13 0 -25 12.5t-12 26.5v790q0 14 12 26.5t25 12.5
h94q13 0 25 -12.5t12 -26.5v-67q36 45 79 74t88 39.5t70.5 13t59.5 2.5q70 0 127.5 -17.5t93 -43.5t61.5 -63t38.5 -68t20 -66.5t8.5 -51.5t1 -30v-580q0 -68 -14 -122t-34 -87.5t-50 -58t-54.5 -36t-55.5 -18t-44 -7t-30 -0.5q-61 0 -90 2z" />
    <glyph glyph-name="Omacron" unicode="&#x14c;" horiz-adv-x="1499" 
d="M750 1206q171 0 315 -82t227.5 -223.5t83.5 -308.5t-83.5 -308.5t-227.5 -224t-315 -82.5t-315.5 82.5t-228 224t-83.5 308.5t83.5 308.5t228 223.5t315.5 82zM750 131q123 0 228.5 62t167.5 168.5t62 230.5q0 128 -62 234.5t-167 166.5t-229 60t-229 -60t-167.5 -166.5
t-62.5 -234.5q0 -93 37 -178t98.5 -147t146.5 -99t177 -37zM985 1290h-471q-14 0 -26.5 12t-12.5 25v80q0 13 12.5 25t26.5 12h471q14 0 26.5 -12t12.5 -25v-80q0 -13 -12.5 -25t-26.5 -12z" />
    <glyph glyph-name="omacron" unicode="&#x14d;" horiz-adv-x="1159" 
d="M580 891q199 0 338 -134t139 -323t-139 -323t-338 -134t-338.5 134t-139.5 323t139.5 323t338.5 134zM580 131q130 0 219.5 86t89.5 217t-89.5 217t-219.5 86t-220 -86t-90 -217t90 -217t220 -86zM817 985h-471q-14 0 -26.5 12t-12.5 25v80q0 13 12.5 25t26.5 12h471
q14 0 26.5 -12t12.5 -25v-80q0 -13 -12.5 -25t-26.5 -12z" />
    <glyph glyph-name="Ohungarumlaut" unicode="&#x150;" horiz-adv-x="1499" 
d="M750 1206q171 0 315 -82t227.5 -223.5t83.5 -308.5t-83.5 -308.5t-227.5 -224t-315 -82.5t-315.5 82.5t-228 224t-83.5 308.5t83.5 308.5t228 223.5t315.5 82zM750 131q123 0 228.5 62t167.5 168.5t62 230.5q0 128 -62 234.5t-167 166.5t-229 60t-229 -60t-167.5 -166.5
t-62.5 -234.5q0 -93 37 -178t98.5 -147t146.5 -99t177 -37zM743 1464l-69 -155q-15 -19 -33 -19h-74q-15 0 -25 11t-10 26l43 152q3 8 13 14t18 6h101q14 0 25 -11t11 -24zM1036 1464l-69 -155q-15 -19 -33 -19h-74q-15 0 -25 11t-10 26l43 152q3 8 13 14t18 6h100
q15 0 26 -11.5t11 -23.5z" />
    <glyph glyph-name="ohungarumlaut" unicode="&#x151;" horiz-adv-x="1159" 
d="M580 891q199 0 338 -134t139 -323t-139 -323t-338 -134t-338.5 134t-139.5 323t139.5 323t338.5 134zM580 131q130 0 219.5 86t89.5 217t-89.5 217t-219.5 86t-220 -86t-90 -217t90 -217t220 -86zM575 1159l-69 -155q-15 -19 -33 -19h-74q-15 0 -24.5 11t-9.5 26l43 152
q3 8 12.5 14t17.5 6h101q14 0 25 -11t11 -24zM868 1159l-69 -155q-15 -19 -33 -19h-74q-15 0 -25 11t-10 26l43 152q3 8 13 14t18 6h100q15 0 26 -11t11 -24z" />
    <glyph glyph-name="OE" unicode="&#x152;" horiz-adv-x="1888" 
d="M1167 154h572q14 0 26.5 -12t12.5 -25v-80q0 -13 -12.5 -25t-26.5 -12h-809q-90 -23 -174 -23q-129 0 -246 48.5t-202 131t-135 196.5t-50 239t50 239t135 196t202 130.5t246 48.5q76 0 164 -20h819q14 0 26.5 -12t12.5 -25v-80q0 -13 -12.5 -25t-26.5 -12h-572v-377h527
q14 0 26.5 -12t12.5 -25v-79q0 -13 -12.5 -25t-26.5 -12h-527v-348zM756 131q133 0 243 72v776q-113 74 -243 74q-191 0 -328 -133.5t-137 -327.5q0 -93 37.5 -178t100 -147t148.5 -99t179 -37z" />
    <glyph glyph-name="oe" unicode="&#x153;" horiz-adv-x="1871" 
d="M1544 166q8 4 21 4q12 0 24 -18l47 -66q6 -8 6 -23q0 -26 -24 -36q-138 -50 -268 -50q-122 0 -221.5 49.5t-161.5 139.5q-66 -88 -167.5 -138.5t-219.5 -50.5q-199 0 -338.5 134t-139.5 323t139.5 323t338.5 134q119 0 221 -51.5t168 -141.5q60 90 155 141.5t213 51.5
q195 0 322 -132.5t127 -324.5v-31q0 -14 -12 -26t-25 -12h-692q12 -53 36.5 -94.5t54 -67.5t65.5 -42.5t69.5 -23t69.5 -6.5q92 0 192 35zM580 131q127 0 216 82t93 207v14q0 131 -89.5 217t-219.5 86t-220 -86t-90 -217t90 -217t220 -86zM1057 504h561
q-33 116 -111.5 174.5t-169.5 58.5t-169 -58.5t-111 -174.5z" />
    <glyph glyph-name="Racute" unicode="&#x154;" horiz-adv-x="1085" 
d="M311 1032v-514h293q118 0 187 60.5t69 195.5t-69.5 196.5t-186.5 61.5h-293zM733 379l268 -344q0 -35 -34 -35h-115q-18 0 -27 12l-274 353h-240v-326q0 -14 -12 -26.5t-25 -12.5h-94q-13 0 -25 12.5t-12 26.5v1108q0 14 12 26.5t25 12.5h420q22 0 43.5 -1t67.5 -9.5
t84 -23t83 -45t76.5 -72.5t52.5 -109t21 -150q0 -79 -19 -144t-48 -106.5t-70 -72.5t-78 -47.5t-80 -26.5zM651 1481l-116 -172q-19 -19 -31 -19h-88q-15 0 -25 10.5t-10 24.5l96 168q12 20 31 20h108q15 0 25 -10t10 -22z" />
    <glyph glyph-name="racute" unicode="&#x155;" horiz-adv-x="763" 
d="M655 874q14 0 26.5 -11.5t12.5 -24.5v-80q0 -13 -12.5 -25t-26.5 -12q-68 -2 -126.5 -28.5t-97.5 -68t-67 -93.5t-40.5 -103t-12.5 -98v-291q0 -14 -12 -26.5t-25 -12.5h-94q-13 0 -25 12.5t-12 26.5v790q0 14 12 26.5t25 12.5h94q13 0 25 -12.5t12 -26.5v-137
q36 51 82.5 88.5t83 54.5t79.5 27t61 11t38 1zM438 1176l-116 -172q-19 -19 -31 -19h-88q-15 0 -25 10.5t-10 24.5l96 168q12 20 31 20h108q15 0 25 -10t10 -22z" />
    <glyph glyph-name="uni0156" unicode="&#x156;" horiz-adv-x="1085" 
d="M311 1032v-514h293q118 0 187 60.5t69 195.5t-69.5 196.5t-186.5 61.5h-293zM733 379l268 -344q0 -35 -34 -35h-115q-18 0 -27 12l-274 353h-240v-326q0 -14 -12 -26.5t-25 -12.5h-94q-13 0 -25 12.5t-12 26.5v1108q0 14 12 26.5t25 12.5h420q22 0 43.5 -1t67.5 -9.5
t84 -23t83 -45t76.5 -72.5t52.5 -109t21 -150q0 -79 -19 -144t-48 -106.5t-70 -72.5t-78 -47.5t-80 -26.5zM639 -143l-82 -166q-11 -21 -29 -21h-84q-16 0 -25 10t-9 25l65 164q3 9 13 15.5t18 6.5h98q15 0 25 -10t10 -24z" />
    <glyph glyph-name="uni0157" unicode="&#x157;" horiz-adv-x="763" 
d="M655 874q14 0 26.5 -11.5t12.5 -24.5v-80q0 -13 -12.5 -25t-26.5 -12q-68 -2 -126.5 -28.5t-97.5 -68t-67 -93.5t-40.5 -103t-12.5 -98v-291q0 -14 -12 -26.5t-25 -12.5h-94q-13 0 -25 12.5t-12 26.5v790q0 14 12 26.5t25 12.5h94q13 0 25 -12.5t12 -26.5v-137
q36 51 82.5 88.5t83 54.5t79.5 27t61 11t38 1zM389 -143l-82 -166q-11 -21 -28 -21h-84q-16 0 -25.5 10.5t-9.5 24.5l65 164q3 9 13 15.5t18 6.5h98q15 0 25 -10t10 -24z" />
    <glyph glyph-name="Rcaron" unicode="&#x158;" horiz-adv-x="1085" 
d="M311 1032v-514h293q118 0 187 60.5t69 195.5t-69.5 196.5t-186.5 61.5h-293zM733 379l268 -344q0 -35 -34 -35h-115q-18 0 -27 12l-274 353h-240v-326q0 -14 -12 -26.5t-25 -12.5h-94q-13 0 -25 12.5t-12 26.5v1108q0 14 12 26.5t25 12.5h420q22 0 43.5 -1t67.5 -9.5
t84 -23t83 -45t76.5 -72.5t52.5 -109t21 -150q0 -79 -19 -144t-48 -106.5t-70 -72.5t-78 -47.5t-80 -26.5zM602 1290h-168q-24 0 -41 29l-153 274q0 18 13.5 31.5t31.5 13.5h84q24 0 39 -26l110 -193l111 193q15 26 39 26h84q18 0 31.5 -13.5t13.5 -31.5l-154 -274
q-17 -29 -41 -29z" />
    <glyph glyph-name="rcaron" unicode="&#x159;" horiz-adv-x="763" 
d="M655 874q14 0 26.5 -11.5t12.5 -24.5v-80q0 -13 -12.5 -25t-26.5 -12q-68 -2 -126.5 -28.5t-97.5 -68t-67 -93.5t-40.5 -103t-12.5 -98v-291q0 -14 -12 -26.5t-25 -12.5h-94q-13 0 -25 12.5t-12 26.5v790q0 14 12 26.5t25 12.5h94q13 0 25 -12.5t12 -26.5v-137
q36 51 82.5 88.5t83 54.5t79.5 27t61 11t38 1zM496 985h-154q-24 0 -39 27l-143 241q0 16 12 28.5t29 12.5h78q22 0 36 -24l103 -166l102 166q14 24 37 24h78q17 0 29 -12.5t12 -28.5l-141 -241q-15 -27 -39 -27z" />
    <glyph glyph-name="Sacute" unicode="&#x15a;" horiz-adv-x="1058" 
d="M877 1061q12 -12 12 -23q0 -17 -10 -24l-68 -51q-14 -11 -27 -11q-7 0 -26 15q-110 86 -277 86q-91 0 -155 -44t-64 -126q0 -54 30 -94.5t78.5 -65t111 -48t127.5 -41.5t127.5 -47.5t111 -64.5t78.5 -94t30 -135q0 -36 -13 -75.5t-45 -83.5t-79.5 -78t-125.5 -56.5
t-173 -22.5q-271 0 -424 170q-6 15 -6 27q0 19 14 33l62 49q8 8 27 8q9 0 22 -10q142 -123 315 -123q61 0 109.5 15t75.5 36.5t44.5 47.5t23 45t5.5 32q0 39 -23.5 70t-64 53t-92.5 41t-109.5 38t-115 40.5t-109.5 53t-92.5 70t-64 96t-23.5 128.5q0 36 10 74t38 81.5
t71 76.5t116.5 55t166.5 22q138 0 232.5 -42.5t148.5 -102.5zM702 1481l-116 -172q-19 -19 -31 -19h-88q-15 0 -25 10.5t-10 24.5l96 168q12 20 31 20h109q14 0 24 -9.5t10 -22.5z" />
    <glyph glyph-name="sacute" unicode="&#x15b;" horiz-adv-x="839" 
d="M78 109q-6 6 -6 18q0 17 10 27l63 41q12 6 25 6q14 0 20 -6q30 -32 80 -50t84 -20l35 -2q213 0 213 104q0 37 -29 62.5t-75.5 40.5t-103 28.5t-113 33t-103 47.5t-75.5 78.5t-29 119.5q0 44 21.5 88t62 81.5t107 61t147.5 23.5q157 0 262 -82q16 -10 16 -31
q0 -18 -12 -30l-55 -56q-12 -6 -27 -6q-11 0 -21 6q-90 53 -165 53q-40 0 -75 -8.5t-64 -34.5t-29 -67t29 -69t75.5 -44.5t102.5 -30.5t112 -32.5t102.5 -45.5t75.5 -75t29 -115q0 -90 -97.5 -168t-262.5 -78q-114 0 -197 38t-133 94zM600 1176l-117 -172q-19 -19 -30 -19
h-88q-15 0 -25 10.5t-10 24.5l96 168q12 20 31 20h108q15 0 25 -10t10 -22z" />
    <glyph glyph-name="Scircumflex" unicode="&#x15c;" horiz-adv-x="1058" 
d="M877 1061q12 -12 12 -23q0 -17 -10 -24l-68 -51q-14 -11 -27 -11q-7 0 -26 15q-110 86 -277 86q-91 0 -155 -44t-64 -126q0 -54 30 -94.5t78.5 -65t111 -48t127.5 -41.5t127.5 -47.5t111 -64.5t78.5 -94t30 -135q0 -36 -13 -75.5t-45 -83.5t-79.5 -78t-125.5 -56.5
t-173 -22.5q-271 0 -424 170q-6 15 -6 27q0 19 14 33l62 49q8 8 27 8q9 0 22 -10q142 -123 315 -123q61 0 109.5 15t75.5 36.5t44.5 47.5t23 45t5.5 32q0 39 -23.5 70t-64 53t-92.5 41t-109.5 38t-115 40.5t-109.5 53t-92.5 70t-64 96t-23.5 128.5q0 36 10 74t38 81.5
t71 76.5t116.5 55t166.5 22q138 0 232.5 -42.5t148.5 -102.5zM408 1638h167q25 0 41 -28l154 -275q0 -18 -13.5 -31.5t-31.5 -13.5h-84q-10 0 -21.5 8t-17.5 19l-110 192l-111 -192q-6 -11 -17.5 -19t-21.5 -8h-84q-18 0 -31.5 13.5t-13.5 31.5l154 275q16 28 41 28z" />
    <glyph glyph-name="scircumflex" unicode="&#x15d;" horiz-adv-x="839" 
d="M78 109q-6 6 -6 18q0 17 10 27l63 41q12 6 25 6q14 0 20 -6q30 -32 80 -50t84 -20l35 -2q213 0 213 104q0 37 -29 62.5t-75.5 40.5t-103 28.5t-113 33t-103 47.5t-75.5 78.5t-29 119.5q0 44 21.5 88t62 81.5t107 61t147.5 23.5q157 0 262 -82q16 -10 16 -31
q0 -18 -12 -30l-55 -56q-12 -6 -27 -6q-11 0 -21 6q-90 53 -165 53q-40 0 -75 -8.5t-64 -34.5t-29 -67t29 -69t75.5 -44.5t102.5 -30.5t112 -32.5t102.5 -45.5t75.5 -75t29 -115q0 -90 -97.5 -168t-262.5 -78q-114 0 -197 38t-133 94zM340 1333h168q25 0 41 -28l153 -275
q0 -18 -13.5 -31.5t-31.5 -13.5h-84q-23 0 -38 27l-111 192l-111 -192q-6 -11 -17.5 -19t-21.5 -8h-84q-18 0 -31.5 13.5t-13.5 31.5l154 275q16 28 41 28z" />
    <glyph glyph-name="Scedilla" unicode="&#x15e;" horiz-adv-x="1058" 
d="M877 1061q12 -12 12 -23q0 -17 -10 -24l-68 -51q-14 -11 -27 -11q-7 0 -26 15q-110 86 -277 86q-91 0 -155 -44t-64 -126q0 -54 30 -94.5t78.5 -65t111 -48t127.5 -41.5t127.5 -47.5t111 -64.5t78.5 -94t30 -135q0 -36 -13 -75.5t-45 -83.5t-79.5 -78t-125.5 -56.5
t-173 -22.5q-271 0 -424 170q-6 15 -6 27q0 19 14 33l62 49q8 8 27 8q9 0 22 -10q142 -123 315 -123q61 0 109.5 15t75.5 36.5t44.5 47.5t23 45t5.5 32q0 39 -23.5 70t-64 53t-92.5 41t-109.5 38t-115 40.5t-109.5 53t-92.5 70t-64 96t-23.5 128.5q0 36 10 74t38 81.5
t71 76.5t116.5 55t166.5 22q138 0 232.5 -42.5t148.5 -102.5zM592 -143l-82 -166q-14 -21 -31 -21h-80q-16 0 -25 10.5t-9 26.5l65 164q7 20 31 20h96q15 0 25 -10t10 -24z" />
    <glyph glyph-name="scedilla" unicode="&#x15f;" horiz-adv-x="839" 
d="M78 109q-6 6 -6 18q0 17 10 27l63 41q12 6 25 6q14 0 20 -6q30 -32 80 -50t84 -20l35 -2q213 0 213 104q0 37 -29 62.5t-75.5 40.5t-103 28.5t-113 33t-103 47.5t-75.5 78.5t-29 119.5q0 44 21.5 88t62 81.5t107 61t147.5 23.5q157 0 262 -82q16 -10 16 -31
q0 -18 -12 -30l-55 -56q-12 -6 -27 -6q-11 0 -21 6q-90 53 -165 53q-40 0 -75 -8.5t-64 -34.5t-29 -67t29 -69t75.5 -44.5t102.5 -30.5t112 -32.5t102.5 -45.5t75.5 -75t29 -115q0 -90 -97.5 -168t-262.5 -78q-114 0 -197 38t-133 94zM489 -143l-81 -166q-10 -21 -29 -21
h-84q-16 0 -25.5 10.5t-9.5 24.5l66 164q3 9 12.5 15.5t17.5 6.5h99q15 0 24.5 -10t9.5 -24z" />
    <glyph glyph-name="Scaron" unicode="&#x160;" horiz-adv-x="1058" 
d="M877 1061q12 -12 12 -23q0 -17 -10 -24l-68 -51q-14 -11 -27 -11q-7 0 -26 15q-110 86 -277 86q-91 0 -155 -44t-64 -126q0 -54 30 -94.5t78.5 -65t111 -48t127.5 -41.5t127.5 -47.5t111 -64.5t78.5 -94t30 -135q0 -36 -13 -75.5t-45 -83.5t-79.5 -78t-125.5 -56.5
t-173 -22.5q-271 0 -424 170q-6 15 -6 27q0 19 14 33l62 49q8 8 27 8q9 0 22 -10q142 -123 315 -123q61 0 109.5 15t75.5 36.5t44.5 47.5t23 45t5.5 32q0 39 -23.5 70t-64 53t-92.5 41t-109.5 38t-115 40.5t-109.5 53t-92.5 70t-64 96t-23.5 128.5q0 36 10 74t38 81.5
t71 76.5t116.5 55t166.5 22q138 0 232.5 -42.5t148.5 -102.5zM582 1290h-168q-24 0 -41 29l-154 274q0 18 13.5 31.5t31.5 13.5h84q24 0 39 -26l111 -193l110 193q15 26 39 26h84q18 0 31.5 -13.5t13.5 -31.5l-153 -274q-17 -29 -41 -29z" />
    <glyph glyph-name="scaron" unicode="&#x161;" horiz-adv-x="839" 
d="M78 109q-6 6 -6 18q0 17 10 27l63 41q12 6 25 6q14 0 20 -6q30 -32 80 -50t84 -20l35 -2q213 0 213 104q0 37 -29 62.5t-75.5 40.5t-103 28.5t-113 33t-103 47.5t-75.5 78.5t-29 119.5q0 44 21.5 88t62 81.5t107 61t147.5 23.5q157 0 262 -82q16 -10 16 -31
q0 -18 -12 -30l-55 -56q-12 -6 -27 -6q-11 0 -21 6q-90 53 -165 53q-40 0 -75 -8.5t-64 -34.5t-29 -67t29 -69t75.5 -44.5t102.5 -30.5t112 -32.5t102.5 -45.5t75.5 -75t29 -115q0 -90 -97.5 -168t-262.5 -78q-114 0 -197 38t-133 94zM475 985h-168q-24 0 -41 29l-153 274
q0 18 13.5 31.5t31.5 13.5h84q24 0 39 -26l110 -193l111 193q15 26 39 26h84q18 0 31.5 -13.5t13.5 -31.5l-154 -274q-17 -29 -41 -29z" />
    <glyph glyph-name="uni0162" unicode="&#x162;" horiz-adv-x="1142" 
d="M131 1186h881q14 0 26.5 -12t12.5 -25v-80q0 -13 -12.5 -25t-26.5 -12h-357v-993q0 -14 -12 -26.5t-25 -12.5h-94q-13 0 -25 12.5t-12 26.5v993h-356q-14 0 -26.5 12t-12.5 25v80q0 13 12.5 25t26.5 12zM643 -143l-82 -166q-11 -21 -29 -21h-83q-16 0 -25.5 10.5
t-9.5 24.5l65 164q3 9 13 15.5t18 6.5h98q15 0 25 -10t10 -24z" />
    <glyph glyph-name="uni0163" unicode="&#x163;" horiz-adv-x="786" 
d="M266 868v283q0 25 29 35l102 28q13 0 25 -12t12 -26v-308h211q14 0 26.5 -12t12.5 -25v-79q0 -13 -12.5 -25t-26.5 -12h-211v-396q0 -20 1.5 -35t11.5 -42.5t28.5 -45.5t56 -32t89.5 -14h24q12 0 24.5 -11.5t12.5 -23.5v-78q0 -12 -12.5 -23.5t-24.5 -11.5q-27 -2 -94 -2
q-16 0 -29.5 0.5t-45 7t-56 18t-55 36t-51 58.5t-34.5 88t-14 122v385h-157q-14 0 -26.5 12t-12.5 25v79q0 13 12.5 25t26.5 12h157zM549 -143l-82 -166q-11 -21 -29 -21h-84q-16 0 -25.5 10.5t-9.5 24.5l66 164q3 9 13 15.5t18 6.5h98q15 0 25 -10t10 -24z" />
    <glyph glyph-name="Tcaron" unicode="&#x164;" horiz-adv-x="1142" 
d="M131 1186h881q14 0 26.5 -12t12.5 -25v-80q0 -13 -12.5 -25t-26.5 -12h-357v-993q0 -14 -12 -26.5t-25 -12.5h-94q-13 0 -25 12.5t-12 26.5v993h-356q-14 0 -26.5 12t-12.5 25v80q0 13 12.5 25t26.5 12zM655 1290h-168q-24 0 -41 29l-153 274q0 18 13.5 31.5t31.5 13.5
h84q24 0 39 -26l110 -193l111 193q15 26 39 26h84q18 0 31.5 -13.5t13.5 -31.5l-154 -274q-17 -29 -41 -29z" />
    <glyph glyph-name="tcaron" unicode="&#x165;" horiz-adv-x="1050" 
d="M266 868v283q0 25 29 35l102 28q13 0 25 -12t12 -26v-308h211q14 0 26.5 -12t12.5 -25v-79q0 -13 -12.5 -25t-26.5 -12h-211v-396q0 -20 1.5 -35t11.5 -42.5t28.5 -45.5t56 -32t89.5 -14h24q12 0 24.5 -11.5t12.5 -23.5v-78q0 -12 -12.5 -23.5t-24.5 -11.5q-27 -2 -94 -2
q-16 0 -29.5 0.5t-45 7t-56 18t-55 36t-51 58.5t-34.5 88t-14 122v385h-157q-14 0 -26.5 12t-12.5 25v79q0 13 12.5 25t26.5 12h157zM1026 1192l-70 -158q-18 -18 -30 -18h-90q-15 0 -25 10.5t-10 24.5l51 153q13 21 31 21h108q15 0 25 -10.5t10 -22.5z" />
    <glyph glyph-name="Tbar" unicode="&#x166;" horiz-adv-x="1142" 
d="M862 446h-207v-407q0 -14 -12 -26.5t-25 -12.5h-94q-13 0 -25 12.5t-12 26.5v407h-206q-14 0 -26.5 12t-12.5 25v80q0 13 12.5 25t26.5 12h206v432h-356q-14 0 -26.5 12t-12.5 25v80q0 13 12.5 25t26.5 12h881q14 0 26.5 -12t12.5 -25v-80q0 -13 -12.5 -25t-26.5 -12
h-357v-432h207q14 0 26.5 -12t12.5 -25v-80q0 -13 -12.5 -25t-26.5 -12z" />
    <glyph glyph-name="tbar" unicode="&#x167;" horiz-adv-x="786" 
d="M645 410h-211v-91q0 -20 1.5 -35t11.5 -42.5t28.5 -45.5t56 -32t89.5 -14h24q12 0 24.5 -11.5t12.5 -23.5v-78q0 -12 -12.5 -23.5t-24.5 -11.5q-27 -2 -94 -2q-16 0 -29.5 0.5t-45 7t-56 18t-55 36t-51 58.5t-34.5 88t-14 122v80h-157q-14 0 -26.5 11.5t-12.5 24.5v80
q0 13 12.5 25t26.5 12h157v295h-157q-14 0 -26.5 12t-12.5 25v80q0 13 12.5 25t26.5 12h157v139q0 25 29 35l102 28q13 0 25 -12t12 -26v-164h211q14 0 26.5 -12t12.5 -25v-80q0 -13 -12.5 -25t-26.5 -12h-211v-295h211q14 0 26.5 -12t12.5 -25v-80q0 -13 -12.5 -24.5
t-26.5 -11.5z" />
    <glyph glyph-name="Utilde" unicode="&#x168;" horiz-adv-x="1224" 
d="M612 -23q-16 0 -36 1t-70.5 10.5t-95 26t-98 52.5t-91.5 84.5t-64 127.5t-26 176v692q0 14 12 26.5t25 12.5h94q13 0 25 -12.5t12 -26.5v-692q0 -14 1 -29t5 -43t13.5 -53.5t23.5 -55.5t38 -54t55 -45t76.5 -32.5t100.5 -11.5q62 0 112.5 15.5t82.5 39t55.5 57t35.5 63
t18.5 63.5t8 52t1.5 34v692q0 14 12 26.5t25 12.5h94q13 0 25 -12.5t12 -26.5v-692q0 -97 -26 -176t-64 -127.5t-92 -84.5t-98.5 -52.5t-95 -26t-70.5 -10.5t-36 -1zM788 1290q-61 0 -174 47t-157 47q-61 0 -68 -75q-6 -21 -29 -21h-77q-15 0 -24 10t-9 25q7 58 25.5 100.5
t39 64t47.5 33.5t43 14.5t33 2.5q67 0 182 -47t150 -47q61 0 68 76q6 20 28 20h78q15 0 24 -10t9 -25q-7 -58 -25.5 -100.5t-39.5 -64t-48 -33.5t-43 -14.5t-33 -2.5z" />
    <glyph glyph-name="utilde" unicode="&#x169;" horiz-adv-x="1081" 
d="M541 -23q-78 0 -141.5 17.5t-104.5 45.5t-72.5 67t-48 76t-26.5 79.5t-12.5 70.5t-2.5 56v440q0 14 12 26.5t25 12.5h94q13 0 25 -12.5t12 -26.5v-448q0 -27 4 -55t19.5 -64.5t40 -64t70 -47t106.5 -19.5t106.5 19.5t70 47t39.5 64t19 64.5t4 55v448q0 14 12 26.5
t25 12.5h94q13 0 25 -12.5t12 -26.5v-440q0 -28 -2.5 -56t-12.5 -70.5t-26.5 -79.5t-47.5 -76t-72.5 -66.5t-104.5 -45.5t-141 -18zM723 985q-61 0 -174.5 47t-157.5 47q-60 0 -67 -75q-6 -21 -29 -21h-78q-15 0 -24 10t-9 25q7 58 25.5 100.5t39.5 64t48 33.5t43 14.5
t33 2.5q67 0 182 -47t150 -47q60 0 67 75q6 21 29 21h78q15 0 23.5 -10t8.5 -25q-7 -58 -25.5 -100.5t-39 -64t-47.5 -33.5t-43 -14.5t-33 -2.5z" />
    <glyph glyph-name="Umacron" unicode="&#x16a;" horiz-adv-x="1224" 
d="M612 -23q-16 0 -36 1t-70.5 10.5t-95 26t-98 52.5t-91.5 84.5t-64 127.5t-26 176v692q0 14 12 26.5t25 12.5h94q13 0 25 -12.5t12 -26.5v-692q0 -14 1 -29t5 -43t13.5 -53.5t23.5 -55.5t38 -54t55 -45t76.5 -32.5t100.5 -11.5q62 0 112.5 15.5t82.5 39t55.5 57t35.5 63
t18.5 63.5t8 52t1.5 34v692q0 14 12 26.5t25 12.5h94q13 0 25 -12.5t12 -26.5v-692q0 -97 -26 -176t-64 -127.5t-92 -84.5t-98.5 -52.5t-95 -26t-70.5 -10.5t-36 -1zM848 1290h-471q-14 0 -26.5 12t-12.5 25v80q0 13 12.5 25t26.5 12h471q14 0 26.5 -12t12.5 -25v-80
q0 -13 -12.5 -25t-26.5 -12z" />
    <glyph glyph-name="umacron" unicode="&#x16b;" horiz-adv-x="1081" 
d="M541 -23q-78 0 -141.5 17.5t-104.5 45.5t-72.5 67t-48 76t-26.5 79.5t-12.5 70.5t-2.5 56v440q0 14 12 26.5t25 12.5h94q13 0 25 -12.5t12 -26.5v-448q0 -27 4 -55t19.5 -64.5t40 -64t70 -47t106.5 -19.5t106.5 19.5t70 47t39.5 64t19 64.5t4 55v448q0 14 12 26.5
t25 12.5h94q13 0 25 -12.5t12 -26.5v-440q0 -28 -2.5 -56t-12.5 -70.5t-26.5 -79.5t-47.5 -76t-72.5 -66.5t-104.5 -45.5t-141 -18zM776 985h-471q-14 0 -26.5 12t-12.5 25v80q0 13 12.5 25t26.5 12h471q14 0 26.5 -12t12.5 -25v-80q0 -13 -12.5 -25t-26.5 -12z" />
    <glyph glyph-name="Ubreve" unicode="&#x16c;" horiz-adv-x="1224" 
d="M612 -23q-16 0 -36 1t-70.5 10.5t-95 26t-98 52.5t-91.5 84.5t-64 127.5t-26 176v692q0 14 12 26.5t25 12.5h94q13 0 25 -12.5t12 -26.5v-692q0 -14 1 -29t5 -43t13.5 -53.5t23.5 -55.5t38 -54t55 -45t76.5 -32.5t100.5 -11.5q62 0 112.5 15.5t82.5 39t55.5 57t35.5 63
t18.5 63.5t8 52t1.5 34v692q0 14 12 26.5t25 12.5h94q13 0 25 -12.5t12 -26.5v-692q0 -97 -26 -176t-64 -127.5t-92 -84.5t-98.5 -52.5t-95 -26t-70.5 -10.5t-36 -1zM614 1290q-144 0 -236.5 62t-121.5 176q0 14 11 25.5t24 11.5h86q22 0 33 -25q41 -121 204 -121
q164 0 205 121q11 25 33 25h86q13 0 24 -11.5t11 -25.5q-29 -114 -122 -176t-237 -62z" />
    <glyph glyph-name="ubreve" unicode="&#x16d;" horiz-adv-x="1081" 
d="M541 -23q-78 0 -141.5 17.5t-104.5 45.5t-72.5 67t-48 76t-26.5 79.5t-12.5 70.5t-2.5 56v440q0 14 12 26.5t25 12.5h94q13 0 25 -12.5t12 -26.5v-448q0 -27 4 -55t19.5 -64.5t40 -64t70 -47t106.5 -19.5t106.5 19.5t70 47t39.5 64t19 64.5t4 55v448q0 14 12 26.5
t25 12.5h94q13 0 25 -12.5t12 -26.5v-440q0 -28 -2.5 -56t-12.5 -70.5t-26.5 -79.5t-47.5 -76t-72.5 -66.5t-104.5 -45.5t-141 -18zM541 985q-144 0 -237 62t-122 176q0 14 11 25.5t24 11.5h86q22 0 33 -25q41 -121 205 -121q163 0 204 121q11 25 33 25h86q13 0 24 -11.5
t11 -25.5q-29 -114 -121.5 -176t-236.5 -62z" />
    <glyph glyph-name="Uring" unicode="&#x16e;" horiz-adv-x="1224" 
d="M612 -23q-16 0 -36 1t-70.5 10.5t-95 26t-98 52.5t-91.5 84.5t-64 127.5t-26 176v692q0 14 12 26.5t25 12.5h94q13 0 25 -12.5t12 -26.5v-692q0 -14 1 -29t5 -43t13.5 -53.5t23.5 -55.5t38 -54t55 -45t76.5 -32.5t100.5 -11.5q62 0 112.5 15.5t82.5 39t55.5 57t35.5 63
t18.5 63.5t8 52t1.5 34v692q0 14 12 26.5t25 12.5h94q13 0 25 -12.5t12 -26.5v-692q0 -97 -26 -176t-64 -127.5t-92 -84.5t-98.5 -52.5t-95 -26t-70.5 -10.5t-36 -1zM610 1780q101 0 173.5 -71.5t72.5 -172.5t-72.5 -173.5t-173.5 -72.5t-173 72.5t-72 173.5t72 172.5
t173 71.5zM610 1417q47 0 82 36t35 83q0 49 -34.5 83t-82.5 34q-51 0 -84.5 -33.5t-33.5 -83.5q0 -48 34 -83.5t84 -35.5z" />
    <glyph glyph-name="uring" unicode="&#x16f;" horiz-adv-x="1081" 
d="M541 -23q-78 0 -141.5 17.5t-104.5 45.5t-72.5 67t-48 76t-26.5 79.5t-12.5 70.5t-2.5 56v440q0 14 12 26.5t25 12.5h94q13 0 25 -12.5t12 -26.5v-448q0 -27 4 -55t19.5 -64.5t40 -64t70 -47t106.5 -19.5t106.5 19.5t70 47t39.5 64t19 64.5t4 55v448q0 14 12 26.5
t25 12.5h94q13 0 25 -12.5t12 -26.5v-440q0 -28 -2.5 -56t-12.5 -70.5t-26.5 -79.5t-47.5 -76t-72.5 -66.5t-104.5 -45.5t-141 -18zM541 1475q101 0 173 -71.5t72 -172.5t-72 -173.5t-173 -72.5t-173.5 72.5t-72.5 173.5t72.5 172.5t173.5 71.5zM541 1112q47 0 81.5 35.5
t34.5 83.5q0 49 -34 83t-82 34q-51 0 -85 -33.5t-34 -83.5q0 -48 34.5 -83.5t84.5 -35.5z" />
    <glyph glyph-name="Uhungarumlaut" unicode="&#x170;" horiz-adv-x="1224" 
d="M612 -23q-16 0 -36 1t-70.5 10.5t-95 26t-98 52.5t-91.5 84.5t-64 127.5t-26 176v692q0 14 12 26.5t25 12.5h94q13 0 25 -12.5t12 -26.5v-692q0 -14 1 -29t5 -43t13.5 -53.5t23.5 -55.5t38 -54t55 -45t76.5 -32.5t100.5 -11.5q62 0 112.5 15.5t82.5 39t55.5 57t35.5 63
t18.5 63.5t8 52t1.5 34v692q0 14 12 26.5t25 12.5h94q13 0 25 -12.5t12 -26.5v-692q0 -97 -26 -176t-64 -127.5t-92 -84.5t-98.5 -52.5t-95 -26t-70.5 -10.5t-36 -1zM618 1464l-69 -155q-15 -19 -33 -19h-74q-15 0 -24.5 11t-9.5 26l43 152q3 8 12.5 14t17.5 6h101
q14 0 25 -11t11 -24zM911 1464l-69 -155q-15 -19 -33 -19h-74q-15 0 -25 11t-10 26l43 152q3 8 13 14t18 6h100q14 0 25.5 -11.5t11.5 -23.5z" />
    <glyph glyph-name="uhungarumlaut" unicode="&#x171;" horiz-adv-x="1081" 
d="M541 -23q-78 0 -141.5 17.5t-104.5 45.5t-72.5 67t-48 76t-26.5 79.5t-12.5 70.5t-2.5 56v440q0 14 12 26.5t25 12.5h94q13 0 25 -12.5t12 -26.5v-448q0 -27 4 -55t19.5 -64.5t40 -64t70 -47t106.5 -19.5t106.5 19.5t70 47t39.5 64t19 64.5t4 55v448q0 14 12 26.5
t25 12.5h94q13 0 25 -12.5t12 -26.5v-440q0 -28 -2.5 -56t-12.5 -70.5t-26.5 -79.5t-47.5 -76t-72.5 -66.5t-104.5 -45.5t-141 -18zM541 1151l-70 -156q-14 -18 -33 -18h-73q-15 0 -25 11t-10 26l43 151q3 9 12.5 15t17.5 6h101q14 0 25.5 -11t11.5 -24zM834 1151l-70 -156
q-14 -18 -33 -18h-74q-15 0 -24.5 11t-9.5 26l43 151q3 9 12.5 15t17.5 6h101q15 0 26 -11t11 -24z" />
    <glyph glyph-name="Uogonek" unicode="&#x172;" horiz-adv-x="1224" 
d="M1059 1186q13 0 24 -12t11 -27v-690q0 -107 -31 -191t-74.5 -132.5t-104 -82.5t-107 -47t-95.5 -20v-115q0 -13 -11.5 -24t-25.5 -13q-1 0 -10 -2.5t-16.5 -5t-18 -8t-17.5 -11.5t-12.5 -15.5t-5.5 -20.5q0 -35 18 -49.5t58 -14.5q3 0 27 3t37 3q22 0 22 -22v-60
q0 -9 -7 -15.5t-15 -8.5q-17 0 -49.5 -2t-39.5 -2q-28 0 -55.5 6.5t-57.5 22.5t-48.5 49t-18.5 79q0 33 11 58.5t26 39.5t30.5 23t26.5 12.5t11 4.5v88q-33 4 -65 12t-74 24.5t-78.5 39.5t-73 60t-62 83t-41.5 111.5t-16 142.5v690q0 15 11 27t24 12h94q15 0 27 -12t12 -27
v-690q0 -16 1.5 -34.5t8.5 -52t18.5 -63.5t35 -63.5t55.5 -57t82 -39.5t112 -16t112.5 16t82.5 39.5t55.5 57t35.5 63t18.5 63.5t8 52.5t1.5 34.5v690q0 15 12 27t27 12h94z" />
    <glyph glyph-name="uogonek" unicode="&#x173;" horiz-adv-x="1081" 
d="M621 -395q-62 -4 -86 -4q-29 0 -56 6.5t-56.5 22t-47 48.5t-17.5 80q0 33 11 59t27 39.5t31.5 23t26.5 12.5l11 2v90q-87 10 -151.5 47.5t-97.5 82t-53 102t-25 96.5t-5 77v440q0 14 12 26.5t25 12.5h94q13 0 25 -12.5t12 -26.5v-448q0 -27 4 -55t19.5 -64.5t40 -64
t70 -47t106.5 -19.5t106.5 19.5t70 47t39.5 64t19 64.5t4 55v448q0 14 12 26.5t25 12.5h94q13 0 25 -12.5t12 -26.5v-440q0 -26 -2 -52t-10.5 -65.5t-22.5 -74t-40.5 -72t-61 -66t-87.5 -49.5t-118 -28v-121q0 -25 -28 -29l-15 -2q-8 -1 -20 -4t-31.5 -19t-19.5 -40
q0 -36 14 -49t53 -13q27 0 62 6q10 0 17 -6.5t7 -15.5v-60q0 -20 -24 -24z" />
    <glyph glyph-name="Ydieresis" unicode="&#x178;" horiz-adv-x="1097" 
d="M633 399v-360q0 -14 -12 -26.5t-25 -12.5h-94q-13 0 -25 12.5t-12 26.5v360l-408 750q0 14 11 25.5t26 11.5h113q19 0 33 -25l309 -567l309 567q14 25 33 25h113q15 0 25.5 -11.5t10.5 -25.5zM614 1389q0 43 30 73.5t71 30.5q43 0 73.5 -30.5t30.5 -73.5q0 -41 -30.5 -70
t-73.5 -29q-41 0 -71 29t-30 70zM285 1389q0 43 29.5 73.5t70.5 30.5q43 0 73.5 -30.5t30.5 -73.5q0 -41 -30.5 -70t-73.5 -29q-41 0 -70.5 29t-29.5 70z" />
    <glyph glyph-name="Zacute" unicode="&#x179;" horiz-adv-x="1067" 
d="M100 182l664 850h-610q-14 0 -26.5 12t-12.5 25v80q0 13 12.5 25t26.5 12h761q14 0 26.5 -12t12.5 -25v-125q0 -8 -8 -20l-665 -850h655q14 0 26.5 -12t12.5 -25v-80q0 -13 -12.5 -25t-26.5 -12h-805q-14 0 -26.5 12t-12.5 25v125q0 8 8 20zM741 1481l-116 -172
q-19 -19 -31 -19h-88q-15 0 -25 10.5t-10 24.5l96 168q12 20 31 20h109q15 0 24.5 -9.5t9.5 -22.5z" />
    <glyph glyph-name="zacute" unicode="&#x17a;" horiz-adv-x="927" 
d="M680 1176l-117 -172q-19 -19 -31 -19h-88q-15 0 -24.5 10.5t-9.5 24.5l96 168q12 20 31 20h108q15 0 25 -10t10 -22zM119 186l502 529h-471q-14 0 -26.5 12t-12.5 25v79q0 13 12.5 25t26.5 12h628q14 0 26.5 -12t12.5 -25v-126q0 -9 -8 -21l-504 -530h473q14 0 26.5 -12
t12.5 -25v-80q0 -13 -12.5 -25t-26.5 -12h-628q-14 0 -26.5 12t-12.5 25v129q0 8 8 20z" />
    <glyph glyph-name="Zdotaccent" unicode="&#x17b;" horiz-adv-x="1067" 
d="M100 182l664 850h-610q-14 0 -26.5 12t-12.5 25v80q0 13 12.5 25t26.5 12h761q14 0 26.5 -12t12.5 -25v-125q0 -8 -8 -20l-665 -850h655q14 0 26.5 -12t12.5 -25v-80q0 -13 -12.5 -25t-26.5 -12h-805q-14 0 -26.5 12t-12.5 25v125q0 8 8 20zM434 1389q0 43 30 73.5
t71 30.5q43 0 73.5 -30.5t30.5 -73.5q0 -41 -30.5 -70t-73.5 -29q-41 0 -71 29t-30 70z" />
    <glyph glyph-name="zdotaccent" unicode="&#x17c;" horiz-adv-x="927" 
d="M119 186l502 529h-471q-14 0 -26.5 12t-12.5 25v79q0 13 12.5 25t26.5 12h628q14 0 26.5 -12t12.5 -25v-126q0 -9 -8 -21l-504 -530h473q14 0 26.5 -12t12.5 -25v-80q0 -13 -12.5 -25t-26.5 -12h-628q-14 0 -26.5 12t-12.5 25v129q0 8 8 20zM362 1083q0 43 30 74t71 31
q43 0 73.5 -31t30.5 -74q0 -41 -30.5 -69.5t-73.5 -28.5q-42 0 -71.5 28.5t-29.5 69.5z" />
    <glyph glyph-name="Zcaron" unicode="&#x17d;" horiz-adv-x="1067" 
d="M100 182l664 850h-610q-14 0 -26.5 12t-12.5 25v80q0 13 12.5 25t26.5 12h761q14 0 26.5 -12t12.5 -25v-125q0 -8 -8 -20l-665 -850h655q14 0 26.5 -12t12.5 -25v-80q0 -13 -12.5 -25t-26.5 -12h-805q-14 0 -26.5 12t-12.5 25v125q0 8 8 20zM618 1290h-167q-24 0 -41 29
l-154 274q0 18 13.5 31.5t31.5 13.5h84q24 0 39 -26l111 -193l110 193q15 26 39 26h84q18 0 31.5 -13.5t13.5 -31.5l-154 -274q-17 -29 -41 -29z" />
    <glyph glyph-name="zcaron" unicode="&#x17e;" horiz-adv-x="927" 
d="M119 186l502 529h-471q-14 0 -26.5 12t-12.5 25v79q0 13 12.5 25t26.5 12h628q14 0 26.5 -12t12.5 -25v-126q0 -9 -8 -21l-504 -530h473q14 0 26.5 -12t12.5 -25v-80q0 -13 -12.5 -25t-26.5 -12h-628q-14 0 -26.5 12t-12.5 25v129q0 8 8 20zM549 985h-168q-24 0 -41 29
l-154 274q0 18 13.5 31.5t31.5 13.5h84q24 0 39 -26l111 -193l110 193q15 26 39 26h84q18 0 31.5 -13.5t13.5 -31.5l-153 -274q-17 -29 -41 -29z" />
    <glyph glyph-name="florin" unicode="&#x192;" horiz-adv-x="757" 
d="M399 715l-176 -1069q-2 -8 -10.5 -14.5t-17.5 -6.5h-113q-10 0 -19.5 10t-9.5 21l176 1059h-143q-12 0 -22.5 9t-10.5 21l10 91q3 14 12 23t21 9h158l8 56q12 86 49 152.5t80 101t93 56t80.5 27t49.5 5.5q51 0 76 -2q13 0 23 -10.5t10 -22.5l-16 -90q-3 -13 -14 -23
t-23 -10h-8q-87 0 -152 -53t-80 -137l-8 -50h211q12 0 22.5 -9t10.5 -21l-17 -90q-3 -14 -12 -23.5t-21 -9.5h-217z" />
    <glyph glyph-name="uni0218" unicode="&#x218;" horiz-adv-x="1058" 
d="M877 1061q12 -12 12 -23q0 -17 -10 -24l-68 -51q-14 -11 -27 -11q-7 0 -26 15q-110 86 -277 86q-91 0 -155 -44t-64 -126q0 -54 30 -94.5t78.5 -65t111 -48t127.5 -41.5t127.5 -47.5t111 -64.5t78.5 -94t30 -135q0 -36 -13 -75.5t-45 -83.5t-79.5 -78t-125.5 -56.5
t-173 -22.5q-271 0 -424 170q-6 15 -6 27q0 19 14 33l62 49q8 8 27 8q9 0 22 -10q142 -123 315 -123q61 0 109.5 15t75.5 36.5t44.5 47.5t23 45t5.5 32q0 39 -23.5 70t-64 53t-92.5 41t-109.5 38t-115 40.5t-109.5 53t-92.5 70t-64 96t-23.5 128.5q0 36 10 74t38 81.5
t71 76.5t116.5 55t166.5 22q138 0 232.5 -42.5t148.5 -102.5zM588 -143l-82 -166q-10 -21 -29 -21h-84q-16 0 -25.5 10.5t-9.5 24.5l66 164q3 9 13 15.5t18 6.5h98q15 0 25 -10t10 -24z" />
    <glyph glyph-name="uni0219" unicode="&#x219;" horiz-adv-x="839" 
d="M78 109q-6 6 -6 18q0 17 10 27l63 41q12 6 25 6q14 0 20 -6q30 -32 80 -50t84 -20l35 -2q213 0 213 104q0 37 -29 62.5t-75.5 40.5t-103 28.5t-113 33t-103 47.5t-75.5 78.5t-29 119.5q0 44 21.5 88t62 81.5t107 61t147.5 23.5q157 0 262 -82q16 -10 16 -31
q0 -18 -12 -30l-55 -56q-12 -6 -27 -6q-11 0 -21 6q-90 53 -165 53q-40 0 -75 -8.5t-64 -34.5t-29 -67t29 -69t75.5 -44.5t102.5 -30.5t112 -32.5t102.5 -45.5t75.5 -75t29 -115q0 -90 -97.5 -168t-262.5 -78q-114 0 -197 38t-133 94zM494 -143l-82 -166q-10 -21 -29 -21
h-84q-16 0 -25.5 10.5t-9.5 24.5l66 164q3 9 12.5 15.5t17.5 6.5h99q15 0 25 -10t10 -24z" />
    <glyph glyph-name="uni021A" unicode="&#x21a;" horiz-adv-x="1142" 
d="M637 -143l-82 -166q-11 -21 -29 -21h-84q-16 0 -25 10t-9 25l65 164q3 9 13 15.5t18 6.5h98q15 0 25 -10t10 -24zM131 1186h881q14 0 26.5 -12t12.5 -25v-80q0 -13 -12.5 -25t-26.5 -12h-357v-993q0 -14 -12 -26.5t-25 -12.5h-94q-13 0 -25 12.5t-12 26.5v993h-356
q-14 0 -26.5 12t-12.5 25v80q0 13 12.5 25t26.5 12z" />
    <glyph glyph-name="uni021B" unicode="&#x21b;" horiz-adv-x="786" 
d="M266 868v283q0 25 29 35l102 28q13 0 25 -12t12 -26v-308h211q14 0 26.5 -12t12.5 -25v-79q0 -13 -12.5 -25t-26.5 -12h-211v-396q0 -20 1.5 -35t11.5 -42.5t28.5 -45.5t56 -32t89.5 -14h24q12 0 24.5 -11.5t12.5 -23.5v-78q0 -12 -12.5 -23.5t-24.5 -11.5q-27 -2 -94 -2
q-16 0 -29.5 0.5t-45 7t-56 18t-55 36t-51 58.5t-34.5 88t-14 122v385h-157q-14 0 -26.5 12t-12.5 25v79q0 13 12.5 25t26.5 12h157zM573 -143l-81 -166q-10 -21 -29 -21h-84q-16 0 -25.5 10.5t-9.5 24.5l66 164q3 9 12.5 15.5t17.5 6.5h99q15 0 24.5 -10t9.5 -24z" />
    <glyph glyph-name="circumflex" unicode="&#x2c6;" horiz-adv-x="843" 
d="M338 1186h168q24 0 41 -29l153 -274q0 -18 -13.5 -31.5t-31.5 -13.5h-84q-24 0 -39 26l-110 193l-111 -193q-15 -26 -39 -26h-84q-18 0 -31.5 13.5t-13.5 31.5l154 274q17 29 41 29z" />
    <glyph glyph-name="caron" unicode="&#x2c7;" horiz-adv-x="843" 
d="M506 838h-168q-25 0 -41 28l-154 275q0 18 13.5 31.5t31.5 13.5h84q10 0 21.5 -8t17.5 -19l111 -192l110 192q6 11 17.5 19t21.5 8h84q18 0 31.5 -13.5t13.5 -31.5l-153 -275q-16 -28 -41 -28z" />
    <glyph glyph-name="breve" unicode="&#x2d8;" horiz-adv-x="1003" 
d="M502 911q-144 0 -237 62t-122 176q0 14 11 25.5t24 11.5h86q22 0 33 -25q41 -121 205 -121t205 121q11 25 32 25h86q13 0 24 -11.5t11 -25.5q-29 -114 -121.5 -176t-236.5 -62z" />
    <glyph glyph-name="dotaccent" unicode="&#x2d9;" horiz-adv-x="489" 
d="M143 1081q0 43 29 74t70 31q43 0 73.5 -31t30.5 -74q0 -41 -30.5 -69.5t-73.5 -28.5q-41 0 -70 28.5t-29 69.5z" />
    <glyph glyph-name="ring" unicode="&#x2da;" horiz-adv-x="778" 
d="M389 1186q101 0 173.5 -71.5t72.5 -172.5t-72.5 -173.5t-173.5 -72.5t-173.5 72.5t-72.5 173.5t72.5 172.5t173.5 71.5zM389 823q47 0 82 36t35 83q0 49 -34.5 83t-82.5 34q-51 0 -85 -33.5t-34 -83.5q0 -48 34.5 -83.5t84.5 -35.5z" />
    <glyph glyph-name="ogonek" unicode="&#x2db;" horiz-adv-x="573" 
d="M406 -395q-62 -4 -87 -4q-29 0 -56 6.5t-56 22t-46.5 48.5t-17.5 80q0 33 11 59t26.5 39.5t31.5 23t27 12.5l11 2v77q0 11 8 19t18 8h89q10 0 18 -8t8 -19v-110q0 -25 -29 -29l-14 -2q-8 -1 -20 -4t-32 -19t-20 -40q0 -36 14.5 -49t53.5 -13q28 0 62 6q10 0 17 -6.5
t7 -15.5v-60q0 -20 -24 -24z" />
    <glyph glyph-name="tilde" unicode="&#x2dc;" horiz-adv-x="1013" 
d="M682 938q-61 0 -174.5 47t-157.5 47q-60 0 -67 -76q-6 -20 -29 -20h-78q-15 0 -24 10t-9 25q7 58 25.5 100.5t39.5 64t48 33.5t43 14.5t33 2.5q67 0 182 -47t150 -47q60 0 67 75q6 21 29 21h78q15 0 23.5 -10t8.5 -25q-7 -58 -25.5 -100.5t-39 -64t-47.5 -33.5t-43 -14.5
t-33 -2.5z" />
    <glyph glyph-name="hungarumlaut" unicode="&#x2dd;" horiz-adv-x="790" 
d="M354 1151l-69 -156q-14 -18 -33 -18h-74q-15 0 -25 11t-10 26l43 151q3 8 13 14.5t18 6.5h100q15 0 26 -11t11 -24zM647 1151l-69 -156q-14 -18 -33 -18h-74q-15 0 -25 11t-10 26l43 151q3 8 13 14.5t18 6.5h100q14 0 25.5 -11t11.5 -24z" />
    <glyph glyph-name="uni03A9" unicode="&#x3a9;" horiz-adv-x="1421" 
d="M711 1206q125 0 221.5 -48t155.5 -133t88.5 -194t29.5 -239q0 -106 -28 -225.5t-84 -212.5h145q14 0 26.5 -12t12.5 -25v-80q0 -13 -12.5 -25t-26.5 -12h-307q-14 0 -26.5 12t-12.5 25v100q0 16 16 29q129 119 129 426q0 461 -327 461q-78 0 -137 -27t-94.5 -70.5
t-58 -105.5t-30.5 -124t-8 -134q0 -307 129 -426q16 -13 16 -29v-100q0 -13 -12.5 -25t-26.5 -12h-307q-14 0 -26.5 12t-12.5 25v80q0 13 12.5 25t26.5 12h146q-56 93 -84.5 213t-28.5 225q0 130 29.5 239t88.5 194t156 133t222 48z" />
    <glyph glyph-name="pi" unicode="&#x3c0;" horiz-adv-x="1601" 
d="M182 868h1237q14 0 26.5 -12t12.5 -25v-79q0 -13 -12.5 -25t-26.5 -12h-262v-676q0 -14 -12 -26.5t-25 -12.5h-94q-13 0 -25 12.5t-12 26.5v676h-377v-676q0 -14 -12 -26.5t-25 -12.5h-94q-13 0 -25 12.5t-12 26.5v676h-262q-14 0 -26.5 12t-12.5 25v79q0 13 12.5 25
t26.5 12z" />
    <glyph glyph-name="endash" unicode="&#x2013;" horiz-adv-x="835" 
d="M653 322h-471q-14 0 -26.5 11.5t-12.5 24.5v80q0 13 12.5 25t26.5 12h471q14 0 26.5 -12t12.5 -25v-80q0 -13 -12.5 -24.5t-26.5 -11.5z" />
    <glyph glyph-name="emdash" unicode="&#x2014;" horiz-adv-x="976" 
d="M795 322h-613q-14 0 -26.5 11.5t-12.5 24.5v80q0 13 12.5 25t26.5 12h613q14 0 26.5 -12t12.5 -25v-80q0 -13 -12.5 -24.5t-26.5 -11.5z" />
    <glyph glyph-name="quoteleft" unicode="&#x2018;" horiz-adv-x="530" 
d="M143 950l97 236q10 20 28 20h84q16 0 25.5 -10.5t9.5 -24.5l-78 -233q-3 -9 -12.5 -16t-17.5 -7h-101q-15 0 -25 10.5t-10 24.5z" />
    <glyph glyph-name="quoteright" unicode="&#x2019;" horiz-adv-x="530" 
d="M387 1171l-96 -235q-11 -21 -29 -21h-84q-16 0 -25.5 10.5t-9.5 24.5l78 234q3 9 13 15.5t18 6.5h100q15 0 25 -10.5t10 -24.5z" />
    <glyph glyph-name="quotesinglbase" unicode="&#x201a;" horiz-adv-x="530" 
d="M387 109l-96 -236q-10 -20 -29 -20h-84q-16 0 -25.5 10t-9.5 24l78 234q3 9 13 15.5t18 6.5h100q15 0 25 -10t10 -24z" />
    <glyph glyph-name="quotedblleft" unicode="&#x201c;" horiz-adv-x="872" 
d="M143 950l97 236q10 20 28 20h84q16 0 25.5 -10.5t9.5 -24.5l-78 -233q-3 -9 -12.5 -16t-17.5 -7h-101q-15 0 -25 10.5t-10 24.5zM485 950l97 236q10 20 28 20h84q16 0 25.5 -10.5t9.5 -24.5l-78 -233q-3 -9 -12.5 -16t-17.5 -7h-101q-15 0 -25 10.5t-10 24.5z" />
    <glyph glyph-name="quotedblright" unicode="&#x201d;" horiz-adv-x="872" 
d="M729 1171l-96 -235q-11 -21 -29 -21h-84q-16 0 -25.5 10.5t-9.5 24.5l78 234q3 9 13 15.5t18 6.5h100q15 0 25 -10.5t10 -24.5zM387 1171l-96 -235q-11 -21 -29 -21h-84q-16 0 -25.5 10.5t-9.5 24.5l78 234q3 9 13 15.5t18 6.5h100q15 0 25 -10.5t10 -24.5z" />
    <glyph glyph-name="quotedblbase" unicode="&#x201e;" horiz-adv-x="872" 
d="M729 109l-96 -236q-10 -20 -29 -20h-84q-16 0 -25.5 10t-9.5 24l78 234q3 9 13 15.5t18 6.5h100q15 0 25 -10t10 -24zM387 109l-96 -236q-10 -20 -29 -20h-84q-16 0 -25.5 10t-9.5 24l78 234q3 9 13 15.5t18 6.5h100q15 0 25 -10t10 -24z" />
    <glyph glyph-name="dagger" unicode="&#x2020;" horiz-adv-x="1019" 
d="M594 1147v-275h244q14 0 26.5 -11.5t12.5 -24.5v-80q0 -13 -12.5 -25t-26.5 -12h-244v-981q0 -14 -12 -26.5t-25 -12.5h-94q-13 0 -25 12.5t-12 26.5v981h-244q-14 0 -26.5 12t-12.5 25v80q0 13 12.5 24.5t26.5 11.5h244v275q0 14 12 26.5t25 12.5h94q13 0 25 -12.5
t12 -26.5z" />
    <glyph glyph-name="daggerdbl" unicode="&#x2021;" horiz-adv-x="1019" 
d="M182 154h244v565h-244q-14 0 -26.5 12t-12.5 25v80q0 13 12.5 24.5t26.5 11.5h244v275q0 14 12 26.5t25 12.5h94q13 0 25 -12.5t12 -26.5v-275h244q14 0 26.5 -11.5t12.5 -24.5v-80q0 -13 -12.5 -25t-26.5 -12h-244v-565h244q14 0 26.5 -12t12.5 -25v-80q0 -13 -12.5 -25
t-26.5 -12h-244v-262q0 -14 -12 -26.5t-25 -12.5h-94q-13 0 -25 12.5t-12 26.5v262h-244q-14 0 -26.5 12t-12.5 25v80q0 13 12.5 25t26.5 12z" />
    <glyph glyph-name="bullet" unicode="&#x2022;" horiz-adv-x="479" 
d="M143 416q0 40 28 69t67 29q40 0 69 -29t29 -69t-29 -68.5t-69 -28.5t-67.5 28.5t-27.5 68.5z" />
    <glyph glyph-name="ellipsis" unicode="&#x2026;" horiz-adv-x="1746" 
d="M143 76q0 43 30 73.5t71 30.5q43 0 73.5 -30.5t30.5 -73.5q0 -41 -30.5 -70t-73.5 -29q-41 0 -71 29t-30 70zM772 76q0 43 29.5 73.5t70.5 30.5q43 0 74 -30.5t31 -73.5q0 -41 -31 -70t-74 -29q-41 0 -70.5 29t-29.5 70zM1399 76q0 43 29.5 73.5t70.5 30.5q43 0 74 -30.5
t31 -73.5q0 -41 -31 -70t-74 -29q-41 0 -70.5 29t-29.5 70z" />
    <glyph glyph-name="perthousand" unicode="&#x2030;" horiz-adv-x="2095" 
d="M1163 1155l-635 -1135q-10 -20 -28 -20h-94q-12 0 -21.5 10t-9.5 21l635 1134q10 21 28 21h95q12 0 21 -10t9 -21zM383 1186q98 0 169 -70t71 -168t-71 -168.5t-169 -70.5t-169 70.5t-71 168.5t71 168t169 70zM383 829q48 0 83.5 34.5t35.5 84.5q0 46 -36 81.5t-83 35.5
t-83 -35.5t-36 -81.5q0 -50 35.5 -84.5t83.5 -34.5zM1151 453q98 0 169 -70t71 -168t-71 -169t-169 -71t-169 71t-71 169t71 168t169 70zM1151 96q48 0 83.5 34.5t35.5 84.5q0 46 -36 81.5t-83 35.5t-83 -35.5t-36 -81.5q0 -50 35.5 -84.5t83.5 -34.5zM1712 453
q98 0 169 -70t71 -168t-71 -169t-169 -71t-168.5 71t-70.5 169t70.5 168t168.5 70zM1712 96q48 0 83.5 34.5t35.5 84.5q0 46 -36 81.5t-83 35.5t-83 -35.5t-36 -81.5q0 -50 35.5 -84.5t83.5 -34.5z" />
    <glyph glyph-name="guilsinglleft" unicode="&#x2039;" horiz-adv-x="817" 
d="M637 125l-461 190q-33 18 -33 50v145q0 29 33 47l461 191q16 0 26.5 -10t10.5 -27v-78q0 -26 -21 -33l-389 -164l389 -164q21 -7 21 -32v-78q0 -17 -10.5 -27t-26.5 -10z" />
    <glyph glyph-name="guilsinglright" unicode="&#x203a;" horiz-adv-x="817" 
d="M641 315l-461 -190q-16 0 -26.5 10t-10.5 27v78q0 25 21 32l389 164l-389 164q-21 7 -21 33v78q0 17 10.5 27t26.5 10l461 -191q33 -18 33 -47v-145q0 -32 -33 -50z" />
    <glyph glyph-name="fraction" unicode="&#x2044;" horiz-adv-x="1150" 
d="M143 -264l688 1712q11 25 33 25h107q15 0 26 -11.5t11 -25.5l-689 -1712q-11 -25 -32 -25h-107q-15 0 -26 11.5t-11 25.5z" />
    <glyph glyph-name="euro" unicode="&#x20ac;" horiz-adv-x="1617" 
d="M651 367h-168q63 -108 171 -172t235 -64q125 0 230.5 65t166.5 175q9 18 31 18h121q30 0 37 -33q-72 -170 -230.5 -274.5t-355.5 -104.5q-199 0 -359.5 108t-230.5 282h-121q-12 0 -23.5 10t-11.5 22v70q0 12 11.5 22.5t23.5 10.5h84q-6 44 -6 90q0 42 6 86h-84
q-12 0 -23.5 10.5t-11.5 22.5v69q0 12 11.5 22.5t23.5 10.5h119q70 175 231.5 284t360.5 109q197 0 355.5 -104.5t230.5 -274.5q-7 -32 -37 -32h-121q-22 0 -31 18q-61 110 -166.5 175t-230.5 65q-129 0 -239 -65.5t-171 -174.5h172q12 0 23.5 -10.5t11.5 -22.5v-69
q0 -12 -11.5 -22.5t-23.5 -10.5h-221q-6 -44 -6 -86q0 -51 8 -90h219q12 0 23.5 -10.5t11.5 -22.5v-70q0 -12 -11.5 -22t-23.5 -10z" />
    <glyph glyph-name="uni2116" unicode="&#x2116;" horiz-adv-x="2473" 
d="M991 14l-680 897v-872q0 -14 -12 -26.5t-25 -12.5h-94q-13 0 -25 12.5t-12 26.5v1108q0 14 12 26.5t25 12.5h117q16 0 27 -15l680 -895v871q0 14 11.5 26.5t24.5 12.5h95q13 0 24.5 -12.5t11.5 -26.5v-1108q0 -14 -11.5 -26.5t-24.5 -12.5h-117q-16 0 -27 14zM1853 1186
q199 0 338.5 -134t139.5 -323t-139.5 -323t-338.5 -134t-338 134t-139 323t139 323t338 134zM1853 426q130 0 220 86t90 217t-90 217t-220 86t-219.5 -86t-89.5 -217t89.5 -217t219.5 -86zM2101 0h-493q-14 0 -26.5 12t-12.5 25v80q0 13 12.5 25t26.5 12h493q14 0 26.5 -12
t12.5 -25v-80q0 -13 -12.5 -25t-26.5 -12z" />
    <glyph glyph-name="trademark" unicode="&#x2122;" horiz-adv-x="1351" 
d="M166 1186h350q23 0 23 -23v-78q0 -20 -23 -20h-117v-336q0 -9 -6.5 -14.5t-15.5 -5.5h-70q-20 0 -20 20v336h-121q-23 0 -23 20v78q0 23 23 23zM924 823q-13 0 -19 6l-153 172v-272q0 -9 -7 -14.5t-16 -5.5h-70q-20 0 -20 20v436q0 21 20 21h80q11 0 19 -8l166 -209
l166 209q8 8 18 8h80q20 0 20 -21v-436q0 -20 -20 -20h-70q-9 0 -15.5 5.5t-6.5 14.5v272l-154 -172q-6 -6 -18 -6z" />
    <glyph glyph-name="Omega" unicode="&#x2126;" horiz-adv-x="1421" 
d="M711 1206q125 0 221.5 -48t155.5 -133t88.5 -194t29.5 -239q0 -106 -28 -225.5t-84 -212.5h145q14 0 26.5 -12t12.5 -25v-80q0 -13 -12.5 -25t-26.5 -12h-307q-14 0 -26.5 12t-12.5 25v100q0 16 16 29q129 119 129 426q0 461 -327 461q-78 0 -137 -27t-94.5 -70.5
t-58 -105.5t-30.5 -124t-8 -134q0 -307 129 -426q16 -13 16 -29v-100q0 -13 -12.5 -25t-26.5 -12h-307q-14 0 -26.5 12t-12.5 25v80q0 13 12.5 25t26.5 12h146q-56 93 -84.5 213t-28.5 225q0 130 29.5 239t88.5 194t156 133t222 48z" />
    <glyph glyph-name="partialdiff" unicode="&#x2202;" horiz-adv-x="1216" 
d="M606 131q128 0 213.5 65t85.5 156q0 102 -83.5 164t-215.5 62q-67 0 -117 -9.5t-92 -33.5t-64 -70t-22 -113q0 -65 22 -109.5t64 -68t92 -33.5t117 -10zM340 1153q144 53 285 53q192 0 320 -112t128 -291v-764q0 -14 -12 -26.5t-25 -12.5h-94q-13 0 -25 12.5t-12 26.5v45
q-43 -37 -93 -61t-104 -33t-87.5 -11t-83.5 -2q-177 0 -285.5 99.5t-108.5 275.5t115 277.5t293 101.5q41 0 70.5 -2t79.5 -10.5t102 -30.5t102 -57v147q0 67 -25.5 121t-67.5 86.5t-92.5 50t-103.5 17.5q-137 0 -229 -35q-21 0 -31 18l-30 78l-4 12q0 18 18 27z" />
    <glyph glyph-name="Delta" unicode="&#x2206;" horiz-adv-x="1425" 
d="M1053 154l-340 831l-340 -831h680zM823 1161l459 -1124q0 -14 -11 -25.5t-26 -11.5h-1065q-15 0 -26 11.5t-11 25.5l459 1124q12 25 41 25h139q28 0 41 -25z" />
    <glyph glyph-name="product" unicode="&#x220f;" horiz-adv-x="1601" 
d="M182 1186h1237q14 0 26.5 -12t12.5 -25v-80q0 -13 -12.5 -25t-26.5 -12h-262v-993q0 -14 -12 -26.5t-25 -12.5h-94q-13 0 -25 12.5t-12 26.5v993h-377v-993q0 -14 -12 -26.5t-25 -12.5h-94q-13 0 -25 12.5t-12 26.5v993h-262q-14 0 -26.5 12t-12.5 25v80q0 13 12.5 25
t26.5 12z" />
    <glyph glyph-name="summation" unicode="&#x2211;" horiz-adv-x="1048" 
d="M334 592q0 15 -8 31l-179 385q-4 8 -4 16v129q0 13 10.5 23t22.5 10h696q12 0 22.5 -10t10.5 -23v-90q0 -12 -10.5 -21.5t-22.5 -9.5h-550l186 -409q8 -16 8 -31t-8 -31l-186 -407h550q12 0 22.5 -9.5t10.5 -21.5v-90q0 -13 -10.5 -23t-22.5 -10h-696q-12 0 -22.5 10
t-10.5 23v129q0 8 4 16l179 383q8 16 8 31z" />
    <glyph glyph-name="minus" unicode="&#x2212;" horiz-adv-x="835" 
d="M653 322h-471q-14 0 -26.5 11.5t-12.5 24.5v80q0 13 12.5 25t26.5 12h471q14 0 26.5 -12t12.5 -25v-80q0 -13 -12.5 -24.5t-26.5 -11.5z" />
    <glyph glyph-name="radical" unicode="&#x221a;" horiz-adv-x="1437" 
d="M1255 1032h-235l-391 -1003q-5 -11 -18 -20t-29 -9h-152q-16 0 -29 9t-18 20l-240 604q0 14 11 25.5t26 11.5h109q22 0 33 -25l184 -483l383 999q11 25 33 25h333q14 0 26.5 -12t12.5 -25v-80q0 -13 -12.5 -25t-26.5 -12z" />
    <glyph glyph-name="infinity" unicode="&#x221e;" horiz-adv-x="1863" 
d="M932 354q-156 -202 -395 -202q-188 0 -291 89.5t-103 250.5q0 160 103 249.5t291 89.5q239 0 395 -202q156 202 395 202q188 0 290.5 -89t102.5 -250t-102.5 -250.5t-290.5 -89.5q-239 0 -395 202zM872 492q-134 186 -329 186q-42 0 -79.5 -8.5t-73.5 -28t-57.5 -58
t-21.5 -91.5q0 -43 15 -77t38 -54t54.5 -33t62 -18t62.5 -5q194 0 329 187zM993 492q135 -187 328 -187q41 0 78.5 8.5t73.5 28t57.5 58.5t21.5 92t-21.5 91.5t-57.5 58t-73 28t-79 8.5q-194 0 -328 -186z" />
    <glyph glyph-name="integral" unicode="&#x222b;" horiz-adv-x="942" 
d="M760 1204q14 0 26.5 -12t12.5 -25v-80q0 -13 -12.5 -24.5t-26.5 -11.5l-35 2q-48 0 -83 -18t-51 -43.5t-25 -51t-10 -43.5l-1 -18v-908q0 -68 -14 -122t-34 -87.5t-50.5 -58t-54.5 -36t-55.5 -18t-44.5 -7t-30 -0.5q-61 0 -90 2q-14 0 -26.5 12t-12.5 25v79q0 13 12.5 25
t26.5 12l35 -2q48 0 83 18t51 43.5t25 51t10 43.5l1 18v908q0 68 14 122t34 87.5t50.5 58t54.5 36t55.5 18t44.5 7t30 0.5q61 0 90 -2z" />
    <glyph glyph-name="approxequal" unicode="&#x2248;" horiz-adv-x="1054" 
d="M682 444q-61 0 -174.5 47.5t-157.5 47.5q-60 0 -67 -76q-6 -21 -29 -21h-78q-15 0 -24 10t-9 25q7 58 25.5 100.5t39.5 64t48 33.5t43 14.5t33 2.5q67 0 182 -47t150 -47q60 0 67 76q6 20 29 20h78q15 0 23.5 -10t8.5 -25q-7 -58 -25.5 -100.5t-39 -64t-47.5 -33.5
t-43 -14.5t-33 -2.5zM723 102q-61 0 -174.5 47.5t-157.5 47.5q-60 0 -67 -76q-6 -21 -29 -21h-78q-15 0 -24 10t-9 25q7 58 25.5 100.5t39.5 64t48 33.5t43 14.5t33 2.5q67 0 182 -47t150 -47q60 0 67 76q6 20 29 20h78q15 0 23.5 -10t8.5 -25q-7 -58 -25.5 -100.5t-39 -64
t-47.5 -33.5t-43 -14.5t-33 -2.5z" />
    <glyph glyph-name="notequal" unicode="&#x2260;" horiz-adv-x="835" 
d="M215 31l29 98h-62q-14 0 -26.5 12t-12.5 25v80q0 13 12.5 25t26.5 12h109l67 219h-176q-14 0 -26.5 12t-12.5 25v79q0 13 12.5 25t26.5 12h224l43 136q10 20 28 20h92q12 0 21.5 -10t9.5 -21l-39 -125h92q14 0 26.5 -12t12.5 -25v-79q0 -13 -12.5 -25t-26.5 -12h-139
l-68 -219h207q14 0 26.5 -12t12.5 -25v-80q0 -13 -12.5 -25t-26.5 -12h-254l-32 -109q-10 -20 -29 -20h-92q-12 0 -21.5 10t-9.5 21z" />
    <glyph glyph-name="lessequal" unicode="&#x2264;" horiz-adv-x="817" 
d="M637 256l-461 190q-33 18 -33 50v145q0 29 33 47l461 191q16 0 26.5 -10t10.5 -27v-78q0 -26 -21 -33l-389 -164l389 -164q21 -7 21 -32v-78q0 -17 -10.5 -27t-26.5 -10zM635 0h-453q-14 0 -26.5 12t-12.5 25v80q0 13 12.5 25t26.5 12h453q14 0 26.5 -12t12.5 -25v-80
q0 -13 -12.5 -25t-26.5 -12z" />
    <glyph glyph-name="greaterequal" unicode="&#x2265;" horiz-adv-x="817" 
d="M641 446l-461 -190q-16 0 -26.5 10t-10.5 27v78q0 25 21 32l389 164l-389 164q-21 7 -21 33v78q0 17 10.5 27t26.5 10l461 -191q33 -18 33 -47v-145q0 -32 -33 -50zM635 0h-453q-14 0 -26.5 12t-12.5 25v80q0 13 12.5 25t26.5 12h453q14 0 26.5 -12t12.5 -25v-80
q0 -13 -12.5 -25t-26.5 -12z" />
    <glyph glyph-name="lozenge" unicode="&#x25ca;" horiz-adv-x="1228" 
d="M532 1186h164q26 0 45 -31l334 -524q10 -15 10 -41t-10 -41l-327 -518q-19 -31 -46 -31h-176q-26 0 -45 31l-327 518q-11 17 -11 41t11 41l333 524q19 31 45 31zM614 137l289 453l-289 452l-288 -452z" />
    <glyph glyph-name="NULL" horiz-adv-x="0" 
 />
    <glyph glyph-name="superstore" horiz-adv-x="1320" 
d="M657 1034q142 0 262 -69t189.5 -189t69.5 -262q0 -139 -69.5 -257.5t-189.5 -187.5t-262 -69q-139 0 -257.5 69t-187.5 187.5t-69 257.5q0 142 69 262t187.5 189t257.5 69zM877 184q65 0 65 56q0 33 -11.5 47t-37.5 14v272q0 88 -66 146q12 4 39 4t39 -4h23v133
q-149 -18 -236 -66q-31 5 -76 5q-101 0 -180 -29v-129h13q105 33 155 33q28 0 46 -1.5t46.5 -9t44 -27t15.5 -50.5l-168 -17q-43 -4 -75 -12t-65 -27.5t-51 -57t-18 -91.5q0 -85 58.5 -137t150.5 -52q61 0 88 6v111l-12 8q-18 -8 -48 -8q-37 0 -64.5 21t-27.5 63
q0 33 37 45.5t195 38.5v-145q0 -77 21.5 -108.5t80.5 -31.5h19z" />
    </font>
</defs>
</svg>
