<?xml version="1.0" standalone="no"?>
<!DOCTYPE svg PUBLIC "-//W3C//DTD SVG 1.1//EN" "http://www.w3.org/Graphics/SVG/1.1/DTD/svg11.dtd" >
<svg xmlns="http://www.w3.org/2000/svg" xmlns:xlink="http://www.w3.org/1999/xlink" version="1.1">
<metadata>
Created by FontForge 20170731 at Sun Jul 25 14:59:52 2021
 By Aleksey,,,
Copyright (c) 2019 by Typesketchbook. All rights reserved.
</metadata>
<defs>
<font id="GroldRounded-Light" horiz-adv-x="1232" >
  <font-face 
    font-family="Grold Rounded Light"
    font-weight="300"
    font-stretch="normal"
    units-per-em="2048"
    panose-1="2 0 0 0 0 0 0 0 0 0"
    ascent="1536"
    descent="-512"
    x-height="868"
    cap-height="1186"
    bbox="-111 -399 2316 1757"
    underline-thickness="71"
    underline-position="-294"
    unicode-range="U+000D-FB02"
  />
<missing-glyph horiz-adv-x="1286" 
d="M1122 0h-958v1434h958v-1434zM266 1341v-1249h754v1249h-754z" />
    <glyph glyph-name="fi" unicode="fi" horiz-adv-x="1218" 
d="M643 1260q13 -3 23 -12.5t10 -20.5v-53q0 -11 -11 -20t-22 -9l-49 2q-50 0 -86.5 -19.5t-53.5 -47.5t-26.5 -55.5t-10.5 -46.5l-1 -20v-90h229q11 0 22 -10t11 -22v-54q0 -11 -11 -20.5t-22 -9.5h-229v-719q0 -11 -9.5 -22t-21.5 -11h-66q-12 0 -22 11t-10 22v719h-176
q-11 0 -22 9.5t-11 20.5v54q0 12 11 22t22 10h176v62q0 65 13.5 118.5t33.5 87.5t48 60t53.5 38.5t53.5 20.5t43.5 9.5t28.5 1.5q35 0 82 -6zM918 1069q0 37 25.5 63.5t60.5 26.5q37 0 62.5 -26.5t25.5 -63.5q0 -34 -26 -59t-62 -25q-35 0 -60.5 25t-25.5 59zM1067 836v-803
q0 -11 -9.5 -22t-21.5 -11h-63q-12 0 -22.5 11t-10.5 22v803q0 11 10.5 21.5t22.5 10.5h63q12 0 21.5 -10.5t9.5 -21.5z" />
    <glyph glyph-name="fl" unicode="fl" horiz-adv-x="1218" 
d="M643 1260q13 -3 23 -12.5t10 -20.5v-53q0 -11 -11 -20t-22 -9l-49 2q-50 0 -86.5 -19.5t-53.5 -47.5t-26.5 -55.5t-10.5 -46.5l-1 -20v-90h229q11 0 22 -10t11 -22v-54q0 -11 -11 -20.5t-22 -9.5h-229v-719q0 -11 -9.5 -22t-21.5 -11h-66q-12 0 -22 11t-10 22v719h-176
q-11 0 -22 9.5t-11 20.5v54q0 12 11 22t22 10h176v62q0 65 13.5 118.5t33.5 87.5t48 60t53.5 38.5t53.5 20.5t43.5 9.5t28.5 1.5q35 0 82 -6zM1067 1192v-1159q0 -11 -9.5 -22t-21.5 -11h-63q-12 0 -22.5 11t-10.5 22v1159q0 11 10.5 22t22.5 11h63q12 0 21.5 -11t9.5 -22z
" />
    <glyph glyph-name=".notdef" horiz-adv-x="1286" 
d="M1122 0h-958v1434h958v-1434zM266 1341v-1249h754v1249h-754z" />
    <glyph glyph-name=".null" horiz-adv-x="0" 
 />
    <glyph glyph-name="nonmarkingreturn" horiz-adv-x="682" 
 />
    <glyph glyph-name="CR" unicode="&#xd;" horiz-adv-x="634" 
 />
    <glyph glyph-name="CR" horiz-adv-x="634" 
 />
    <glyph glyph-name="space" unicode=" " horiz-adv-x="329" 
 />
    <glyph glyph-name="exclam" unicode="!" horiz-adv-x="477" 
d="M152 117q0 34 25.5 59t60.5 25q36 0 62 -25t26 -59q0 -37 -25.5 -63.5t-62.5 -26.5q-35 0 -60.5 26.5t-25.5 63.5zM301 1153l-8 -803q0 -11 -9.5 -22t-21.5 -11h-47q-12 0 -22.5 11t-10.5 22l-8 803q0 11 10.5 22t22.5 11h63q12 0 21.5 -11t9.5 -22z" />
    <glyph glyph-name="quotedbl" unicode="&#x22;" horiz-adv-x="757" 
d="M166 819l-14 217v123q0 11 7 19t19 8h68q12 0 19 -8t7 -19v-123l-14 -217q0 -12 -8 -20t-19 -8h-38q-11 0 -19 8t-8 20zM500 819l-15 217v123q0 11 7.5 19t19.5 8h68q12 0 19 -8t7 -19v-123l-14 -217q0 -12 -8 -20t-19 -8h-39q-11 0 -18.5 8t-7.5 20z" />
    <glyph glyph-name="numbersign" unicode="#" horiz-adv-x="1538" 
d="M664 819l-168 -469h385l168 469h-385zM1227 936h127q11 0 21.5 -10.5t10.5 -22.5v-53q0 -12 -10.5 -21.5t-21.5 -9.5h-168l-168 -469h225q11 0 22 -10.5t11 -22.5v-53q0 -12 -11 -21.5t-22 -9.5h-266l-76 -210q-9 -23 -24 -23h-80q-12 0 -20.5 9t-8.5 20l72 204h-387
l-76 -210q-3 -8 -10.5 -15.5t-14.5 -7.5h-78q-12 0 -20 9t-8 20l73 204h-135q-11 0 -21.5 10.5t-10.5 22.5v53q0 12 10.5 21.5t21.5 9.5h176l168 469h-233q-11 0 -22 10.5t-11 22.5v53q0 12 11 21.5t22 9.5h276l82 227q3 8 10.5 15.5t14.5 7.5h80q12 0 20 -9t8 -20l-81 -221
h385l81 227q3 8 10.5 15.5t14.5 7.5h80q12 0 20.5 -9t8.5 -20z" />
    <glyph glyph-name="dollar" unicode="$" horiz-adv-x="1155" 
d="M612 1386v-184q183 -17 306 -135q8 -8 8 -20q0 -11 -8 -19l-50 -37q-11 -8 -20 -8q-10 0 -23 10q-61 47 -137.5 72t-152.5 25q-103 0 -176.5 -51.5t-73.5 -145.5q0 -48 20 -87t54.5 -65t80.5 -48.5t98 -38.5t106.5 -35t106.5 -37.5t98 -46.5t80.5 -61t54.5 -82t20 -109
q0 -33 -12 -69.5t-41 -77t-72 -73.5t-112.5 -56t-154.5 -27v-183q0 -11 -9.5 -22t-20.5 -11h-64q-12 0 -22.5 11t-10.5 22v187q-210 22 -327 153q-6 8 -6 19q0 14 12 26l47 39q12 6 20 6q7 0 19 -8q60 -54 149 -89.5t187 -35.5q68 0 122.5 17.5t85 42t50.5 54.5t26.5 52
t6.5 37q0 43 -24.5 77.5t-66 58.5t-95.5 44.5t-113.5 40t-119.5 41.5t-114 53t-95.5 70t-66 96.5t-24.5 128.5q0 32 8 65.5t31 72.5t58 70.5t94.5 55.5t135.5 31v184q0 11 10.5 22t22.5 11h64q11 0 20.5 -11t9.5 -22z" />
    <glyph glyph-name="percent" unicode="%" horiz-adv-x="1552" 
d="M383 1186q94 0 162.5 -67.5t68.5 -162.5q0 -94 -68.5 -162.5t-162.5 -68.5t-162.5 68.5t-68.5 162.5q0 95 68.5 162.5t162.5 67.5zM383 821q56 0 95.5 38.5t39.5 96.5q0 54 -40 95t-95 41t-95 -41t-40 -95q0 -58 39.5 -96.5t95.5 -38.5zM1171 436q94 0 162 -67t68 -160
q0 -95 -68 -163.5t-162 -68.5q-95 0 -163 68.5t-68 163.5q0 94 68 160.5t163 66.5zM1171 72q55 0 95.5 39t40.5 98q0 53 -41 93t-95 40q-57 0 -98 -40t-41 -93q0 -59 40.5 -98t98.5 -39zM399 29l633 1136q13 21 25 21h73q12 0 20.5 -9t8.5 -20l-633 -1137q-12 -20 -24 -20
h-74q-12 0 -20.5 9t-8.5 20z" />
    <glyph glyph-name="ampersand" unicode="&#x26;" horiz-adv-x="1378" 
d="M903 242l-409 393q-98 -60 -156.5 -147.5t-58.5 -174.5q0 -99 76.5 -159t207.5 -60q192 0 340 148zM1143 10l-152 148q-86 -92 -199 -136.5t-229 -44.5q-41 0 -87 6.5t-106 28.5t-106.5 57t-79 98t-32.5 144q0 70 31.5 142.5t78.5 128t90 93.5t78 60q-69 69 -97 136
t-28 114q0 21 1 36t7.5 48t18.5 58t37.5 56t60.5 51t91.5 34t127.5 14q91 0 161 -30.5t106.5 -71t60.5 -94.5t30.5 -88t8.5 -64q0 -10 -9 -18.5t-18 -8.5h-74q-10 0 -18 9t-8 18q-5 100 -71 165.5t-169 65.5q-217 0 -217 -178q0 -57 40 -124t103 -128l402 -389
q89 111 100 244q0 12 8.5 19t20.5 7h72q11 0 18.5 -7t7.5 -19q-22 -214 -123 -344l211 -205q4 -4 4 -12q0 -29 -28 -29h-101q-17 0 -24 10z" />
    <glyph glyph-name="quotesingle" unicode="'" horiz-adv-x="423" 
d="M166 819l-14 217v123q0 11 7 19t19 8h68q12 0 19 -8t7 -19v-123l-14 -217q0 -12 -8 -20t-19 -8h-38q-11 0 -19 8t-8 20z" />
    <glyph glyph-name="parenleft" unicode="(" horiz-adv-x="567" 
d="M152 565q0 425 141 885q8 23 24 23h72q12 0 19.5 -8.5t7.5 -20.5q-137 -462 -137 -879q0 -222 31.5 -412t101.5 -425q0 -12 -7.5 -20.5t-19.5 -8.5h-72q-17 0 -24 22q-73 237 -105 430.5t-32 413.5z" />
    <glyph glyph-name="parenright" unicode=")" horiz-adv-x="567" 
d="M416 565q0 -220 -32 -413.5t-105 -430.5q-7 -22 -25 -22h-72q-12 0 -19 8.5t-7 20.5q70 235 101.5 425t31.5 412q0 417 -137 879q0 12 7 20.5t19 8.5h72q16 0 24 -23q142 -464 142 -885z" />
    <glyph glyph-name="asterisk" unicode="*" horiz-adv-x="892" 
d="M446 797l-108 -164q-10 -17 -29 -17q-9 0 -22 9l-37 28q-12 9 -12 25q0 12 8 24l131 158l-205 53q-20 7 -20 33q0 11 2 15l20 57q7 20 33 20q2 0 10 -4l191 -84l-27 207q0 12 7.5 20.5t17.5 8.5h81q25 0 25 -29l-27 -207l191 84q8 4 10 4q26 0 33 -20l20 -57q2 -4 2 -15
q0 -26 -20 -33l-205 -53l131 -158q8 -12 8 -24q0 -16 -12 -25l-37 -28q-14 -9 -22 -9q-19 0 -29 17z" />
    <glyph glyph-name="plus" unicode="+" horiz-adv-x="827" 
d="M350 160v182h-178q-11 0 -21 9.5t-10 21.5v57q0 12 10 20.5t21 8.5h178v178q0 11 10.5 22t22.5 11h63q12 0 21.5 -11t9.5 -22v-178h178q11 0 21 -8.5t10 -20.5v-57q0 -12 -10 -21.5t-21 -9.5h-178v-182q0 -11 -9.5 -22t-21.5 -11h-63q-12 0 -22.5 11t-10.5 22z" />
    <glyph glyph-name="comma" unicode="," horiz-adv-x="512" 
d="M360 121l-104 -230q-9 -12 -20 -12h-64q-20 0 -20 25l81 225q3 14 21 14h84q22 0 22 -22z" />
    <glyph glyph-name="hyphen" unicode="-" horiz-adv-x="829" 
d="M645 334h-461q-11 0 -21.5 10.5t-10.5 22.5v53q0 12 10.5 21.5t21.5 9.5h461q11 0 22 -9.5t11 -21.5v-53q0 -12 -11 -22.5t-22 -10.5z" />
    <glyph glyph-name="period" unicode="." horiz-adv-x="387" 
d="M111 59q0 35 23.5 59.5t58.5 24.5t59 -24.5t24 -59.5t-24 -58.5t-59 -23.5t-58.5 23.5t-23.5 58.5z" />
    <glyph glyph-name="slash" unicode="/" horiz-adv-x="1132" 
d="M152 -272l694 1724q8 21 24 21h82q12 0 20.5 -9t8.5 -20l-694 -1725q-8 -20 -25 -20h-82q-12 0 -20 9t-8 20z" />
    <glyph glyph-name="zero" unicode="0" 
d="M616 1206q122 0 217 -48t152.5 -133t87 -194.5t29.5 -238.5q0 -130 -29.5 -240t-87 -194.5t-152.5 -132.5t-217 -48t-216.5 48t-152.5 132.5t-87 194.5t-29 240t29 239t87 194t152.5 133t216.5 48zM616 94q85 0 150 30t104 78t63.5 115.5t33 133.5t8.5 141t-8.5 141
t-33 133.5t-63.5 115.5t-104 78t-150 30t-150 -30t-103.5 -78t-63 -115.5t-33 -133.5t-8.5 -141t8.5 -141t33 -133.5t63 -115.5t103.5 -78t150 -30z" />
    <glyph glyph-name="one" unicode="1" horiz-adv-x="673" 
d="M78 1098l252 80q32 8 53 8h104q12 0 21.5 -11t9.5 -22v-1120q0 -11 -9.5 -22t-21.5 -11h-63q-12 0 -22.5 11t-10.5 22v1032l-307 -98q-11 0 -21 9t-10 19v74q0 9 8 17.5t17 11.5z" />
    <glyph glyph-name="two" unicode="2" horiz-adv-x="1021" 
d="M846 0h-674q-9 0 -17 7.5t-8 17.5v92q0 7 9 16q153 131 264 242t168 183t90 135.5t40 96t7 66.5q0 102 -62 168t-190 66q-99 0 -163 -62t-72 -154q0 -10 -8 -17t-19 -7h-74q-11 0 -18.5 7t-7.5 17q2 23 5.5 46.5t14 57.5t26 63.5t43 61t63 53.5t88 36t116.5 14
q76 0 138 -17.5t101 -43.5t68 -62.5t43.5 -69t23 -69.5t10 -56.5t1.5 -37.5q0 -72 -40.5 -160t-100.5 -168t-137.5 -161.5t-142.5 -139.5t-124 -104h539q9 0 16.5 -7t7.5 -16v-69q0 -10 -7.5 -17.5t-16.5 -7.5z" />
    <glyph glyph-name="three" unicode="3" horiz-adv-x="1003" 
d="M481 535h-49q-11 0 -22 10t-11 22v51q0 12 11 21.5t22 9.5h49q16 0 28.5 0.5t40 4.5t48 11t46 22.5t42 36.5t28 55.5t11.5 76.5q0 102 -62 168t-190 66q-208 0 -235 -209q0 -10 -8 -17.5t-19 -7.5h-74q-11 0 -18.5 7.5t-7.5 17.5q2 23 5.5 46t14 56.5t26 62.5t43 59.5
t63 52t88 35t116.5 13.5q76 0 138 -17.5t101 -43.5t68 -62.5t43.5 -69t23 -69.5t10 -56.5t1.5 -37.5q0 -9 -1.5 -23.5t-12 -54t-29 -72t-58 -64.5t-92.5 -44q54 -12 94 -43t58 -66.5t28.5 -69.5t11.5 -57l1 -22q0 -18 -1.5 -37.5t-10 -57t-23 -70t-43.5 -69t-68 -62.5
t-101 -43.5t-138 -17.5q-88 0 -155 26.5t-102.5 62.5t-59 85.5t-30.5 83t-9 68.5q0 10 7.5 17.5t18.5 7.5h74q11 0 19 -7.5t8 -17.5q27 -209 235 -209q128 0 190 66t62 168q0 42 -11.5 76.5t-28 55.5t-42 36.5t-46 22.5t-48 11t-40 4.5t-28.5 0.5z" />
    <glyph glyph-name="four" unicode="4" horiz-adv-x="1013" 
d="M172 360h500v709zM74 438l514 736q9 12 24 12h156q12 0 21.5 -11t9.5 -22v-793h112q11 0 22 -9.5t11 -20.5v-54q0 -12 -11 -22t-22 -10h-112v-211q0 -11 -9.5 -22t-21.5 -11h-63q-12 0 -22.5 11t-10.5 22v211h-576q-11 0 -22 10t-11 22v140q0 7 11 22z" />
    <glyph glyph-name="five" unicode="5" horiz-adv-x="978" 
d="M135 580v575q0 12 11 21.5t22 9.5h555q11 0 22 -9.5t11 -21.5v-53q0 -12 -11 -22.5t-22 -10.5h-461v-410q63 35 116.5 52.5t129.5 17.5q35 0 71 -5t91 -28t96 -61.5t71.5 -114.5t30.5 -178q0 -18 -1 -35t-8.5 -56.5t-21.5 -72t-43 -71.5t-69 -66t-104 -45.5t-144 -18.5
q-294 0 -366 228q0 9 8 17.5t18 8.5h88q16 0 23 -14q28 -62 81.5 -92.5t149.5 -30.5q116 0 189 68.5t73 181.5q0 31 -3.5 60.5t-18.5 69.5t-39.5 68.5t-71.5 49t-110 20.5q-138 0 -213 -86q-11 -8 -21 -8l-102 33q-27 8 -27 29z" />
    <glyph glyph-name="six" unicode="6" horiz-adv-x="1052" 
d="M524 94q129 0 210 75.5t81 199.5q0 127 -81.5 203.5t-209.5 76.5q-124 0 -205 -76.5t-81 -203.5q0 -123 80 -199t206 -76zM674 1153l-250 -399q32 12 113 12q186 0 295.5 -112.5t109.5 -286.5q0 -177 -119 -283.5t-297 -106.5q-179 0 -297 106.5t-118 283.5q0 124 84 260
l344 547q10 10 24 10h80q12 0 21.5 -10t9.5 -21z" />
    <glyph glyph-name="seven" unicode="7" horiz-adv-x="854" 
d="M797 1036l-387 -1018q-7 -18 -29 -18h-76q-19 0 -26 20l395 1049h-588q-11 0 -22 10.5t-11 22.5v53q0 12 11 21.5t22 9.5h682q11 0 22 -9.5t11 -21.5v-102q0 -9 -4 -17z" />
    <glyph glyph-name="eight" unicode="8" horiz-adv-x="1134" 
d="M567 1206q179 0 280 -91.5t101 -227.5q0 -37 -4.5 -64.5t-18.5 -63t-46 -69.5t-82 -65q58 -16 100.5 -49.5t64.5 -76t32 -84.5t10 -85q0 -172 -122.5 -262.5t-314.5 -90.5t-314 90.5t-122 262.5q0 43 10 85t32 84.5t64.5 76t100.5 49.5q-50 31 -82 65t-46.5 69.5
t-19 63.5t-4.5 64q0 136 101 227.5t280 91.5zM567 686q106 0 180 53.5t74 143.5q0 98 -73.5 152.5t-180.5 54.5t-180.5 -54.5t-73.5 -152.5q0 -90 74 -143.5t180 -53.5zM567 94q84 0 151.5 24t113 81t45.5 141q0 76 -45.5 130t-113.5 77.5t-151 23.5t-151 -23.5t-113 -77.5
t-45 -130q0 -64 25.5 -112.5t70 -77t98.5 -42.5t115 -14z" />
    <glyph glyph-name="nine" unicode="9" horiz-adv-x="1052" 
d="M528 1090q-128 0 -209 -75.5t-81 -199.5q0 -127 81 -203.5t209 -76.5q124 0 205.5 76.5t81.5 203.5q0 123 -80.5 199t-206.5 76zM379 31l250 399q-32 -12 -113 -12q-186 0 -295.5 112.5t-109.5 286.5q0 177 118.5 283t296.5 106q179 0 297.5 -106t118.5 -283
q0 -124 -84 -260l-344 -547q-10 -10 -25 -10h-79q-12 0 -21.5 10t-9.5 21z" />
    <glyph glyph-name="colon" unicode=":" horiz-adv-x="468" 
d="M152 59q0 36 23 60t58 24t59.5 -24.5t24.5 -59.5t-24.5 -58.5t-59.5 -23.5t-58 23.5t-23 58.5zM152 674q0 36 23 60t58 24t59.5 -24.5t24.5 -59.5t-24.5 -58.5t-59.5 -23.5t-58 23.5t-23 58.5z" />
    <glyph glyph-name="semicolon" unicode=";" horiz-adv-x="516" 
d="M199 674q0 35 23.5 59.5t58.5 24.5t59.5 -24.5t24.5 -59.5t-24.5 -58.5t-59.5 -23.5t-58.5 23.5t-23.5 58.5zM360 121l-104 -230q-9 -12 -20 -12h-64q-20 0 -20 25l81 225q3 14 21 14h84q22 0 22 -22z" />
    <glyph glyph-name="less" unicode="&#x3c;" horiz-adv-x="811" 
d="M627 137l-445 182q-30 17 -30 46v133q0 26 30 43l445 182q11 0 21.5 -9.5t10.5 -21.5v-67q0 -19 -20 -31l-395 -164l395 -164q20 -12 20 -30v-68q0 -12 -10.5 -21.5t-21.5 -9.5z" />
    <glyph glyph-name="equal" unicode="=" horiz-adv-x="829" 
d="M645 549h-461q-11 0 -21.5 10.5t-10.5 22.5v53q0 12 10.5 21.5t21.5 9.5h461q11 0 22 -9.5t11 -21.5v-53q0 -12 -11 -22.5t-22 -10.5zM645 102h-461q-11 0 -21.5 10.5t-10.5 22.5v53q0 12 10.5 21.5t21.5 9.5h461q11 0 22 -9.5t11 -21.5v-53q0 -12 -11 -22.5t-22 -10.5z
" />
    <glyph glyph-name="greater" unicode="&#x3e;" horiz-adv-x="811" 
d="M629 319l-445 -182q-11 0 -21.5 9.5t-10.5 21.5v68q0 18 20 30l395 164l-395 164q-20 12 -20 31v67q0 12 10.5 21.5t21.5 9.5l445 -182q30 -17 30 -43v-133q0 -29 -30 -46z" />
    <glyph glyph-name="question" unicode="?" horiz-adv-x="1044" 
d="M471 90q0 34 25.5 59t60.5 25q36 0 62 -25t26 -59q0 -37 -25.5 -63.5t-62.5 -26.5q-35 0 -60.5 26.5t-25.5 63.5zM506 393q25 45 74.5 107t87.5 108.5t68 113.5t30 134q0 102 -62 168t-190 66q-99 0 -163 -62t-72 -154q0 -10 -8 -17t-19 -7h-74q-11 0 -18.5 7t-7.5 17
q2 23 5.5 46.5t14 57.5t26 63.5t43 61t63 53.5t88 36t116.5 14q76 0 138 -17.5t101 -43.5t68 -62.5t43.5 -69t23 -69.5t10 -56.5t1.5 -37.5q0 -66 -29 -134.5t-63.5 -115.5t-88.5 -116.5t-81 -110.5q-10 -13 -25 -13h-69q-12 0 -21.5 11t-9.5 22z" />
    <glyph glyph-name="at" unicode="@" horiz-adv-x="1918" 
d="M934 170q97 0 167 71t70 173q0 99 -70 169t-167 70q-103 0 -173.5 -69.5t-70.5 -169.5q0 -103 70.5 -173.5t173.5 -70.5zM1303 725v-354q0 -47 17.5 -98t58 -91.5t94.5 -40.5q46 0 81.5 18.5t56 47t34 66.5t18 72t4.5 69q-1 191 -93.5 350t-255 251.5t-360.5 92.5
q-148 0 -279.5 -54.5t-225 -148.5t-147.5 -223t-54 -274q0 -142 54 -269t147.5 -218t224.5 -144t280 -53q103 0 220 30q22 0 22 -22v-51q0 -21 -22 -27q-104 -29 -220 -29q-168 0 -317.5 62t-256.5 167.5t-169.5 251.5t-62.5 308q0 161 62.5 307t169.5 252.5t257 169.5
t317 63q168 0 318.5 -63t257 -169.5t169 -252.5t62.5 -307q0 -13 -0.5 -26.5t-6 -53.5t-15 -73t-30.5 -74.5t-49.5 -70.5t-75.5 -49t-105 -20q-7 0 -20 1t-48 10.5t-65.5 26t-66 52t-56.5 84.5q-35 -56 -76 -92.5t-84 -53.5t-78.5 -22.5t-77.5 -5.5q-147 0 -249.5 108.5
t-102.5 258.5q0 149 102.5 254.5t249.5 105.5q150 0 260 -121v74q0 11 8.5 19t18.5 8h78q11 0 19 -8.5t8 -20.5z" />
    <glyph glyph-name="A" unicode="A" 
d="M731 1159l436 -1128q0 -12 -9 -21.5t-21 -9.5h-74q-20 0 -27 20l-84 216h-671l-84 -216q-7 -20 -27 -20h-74q-12 0 -21 9.5t-9 21.5l436 1128q12 27 43 27h143q31 0 43 -27zM616 1100l-290 -748h581z" />
    <glyph glyph-name="B" unicode="B" horiz-adv-x="1142" 
d="M279 117h374q125 0 188.5 47.5t63.5 169.5t-63.5 169.5t-188.5 47.5h-374v-434zM846 866q0 57 -21.5 98.5t-52 61t-61.5 30.5t-53 12l-21 1h-358v-401h358q8 0 22.5 1t50.5 11.5t63.5 29t50 59.5t22.5 97zM184 1186h443q32 0 66 -4t87.5 -22.5t93.5 -50t69.5 -93
t29.5 -144.5q0 -101 -44.5 -164.5t-117.5 -86.5q38 -8 74 -28t70.5 -53.5t55.5 -88t21 -121.5q0 -83 -22 -143.5t-58 -96t-94 -56t-117 -27.5t-139 -7h-418q-12 0 -22 11t-10 22v1120q0 11 10 22t22 11z" />
    <glyph glyph-name="C" unicode="C" horiz-adv-x="1423" 
d="M764 -23q-129 0 -246 48.5t-202 131t-135 196.5t-50 239t50 239t135 196t202 130.5t246 48.5q192 0 345 -98.5t220 -261.5q-3 -23 -24 -23h-91q-14 0 -20 13q-64 118 -177 186t-253 68q-135 0 -251 -64.5t-185.5 -179.5t-69.5 -254q0 -133 69.5 -248.5t186 -182.5
t250.5 -67q140 0 253 68t177 186q6 12 20 12h91q21 0 24 -22q-67 -163 -220 -262t-345 -99z" />
    <glyph glyph-name="D" unicode="D" horiz-adv-x="1284" 
d="M602 1069h-323v-952h323q204 0 324.5 131t120.5 344t-121 345t-324 132zM184 1186h410q137 0 247.5 -45t183 -125t111 -188t38.5 -234q0 -127 -38.5 -235.5t-111 -188.5t-183 -125t-247.5 -45h-410q-12 0 -22 11t-10 22v1120q0 11 10 22t22 11z" />
    <glyph glyph-name="E" unicode="E" horiz-adv-x="1034" 
d="M279 117h604q11 0 21.5 -10.5t10.5 -22.5v-53q0 -12 -10.5 -21.5t-21.5 -9.5h-699q-12 0 -22 11t-10 22v1120q0 11 10 22t22 11h699q11 0 21.5 -9.5t10.5 -21.5v-53q0 -12 -10.5 -22.5t-21.5 -10.5h-604v-432h557q11 0 21.5 -9.5t10.5 -21.5v-53q0 -12 -10.5 -22.5
t-21.5 -10.5h-557v-403z" />
    <glyph glyph-name="F" unicode="F" horiz-adv-x="1026" 
d="M836 473h-557v-440q0 -11 -9.5 -22t-21.5 -11h-64q-12 0 -22 11t-10 22v1120q0 11 10 22t22 11h699q11 0 21.5 -9.5t10.5 -21.5v-53q0 -12 -10.5 -22.5t-21.5 -10.5h-604v-479h557q11 0 21.5 -9.5t10.5 -21.5v-53q0 -12 -10.5 -22.5t-21.5 -10.5z" />
    <glyph glyph-name="G" unicode="G" horiz-adv-x="1488" 
d="M1280 1012q10 -10 10 -23q0 -12 -12 -24l-49 -39q-8 -6 -19 -6q-6 0 -16 10q-152 160 -430 160q-135 0 -251 -64.5t-185.5 -179.5t-69.5 -254q0 -133 69.5 -248.5t186 -182.5t250.5 -67q114 0 219 47.5t177.5 141.5t80.5 213h-283q-11 0 -21.5 9t-10.5 21v54
q0 12 10.5 22t21.5 10h379q11 0 22 -10t11 -22v-84q-12 -83 -39.5 -154t-61 -120.5t-78.5 -90t-86.5 -65.5t-90.5 -43t-84.5 -26.5t-76 -13.5t-56.5 -5.5t-33 -0.5q-129 0 -246 48.5t-202 131t-135 196.5t-50 239t50 239t135 196t202 130.5t246 48.5q190 0 308.5 -51.5
t207.5 -142.5z" />
    <glyph glyph-name="H" unicode="H" horiz-adv-x="1259" 
d="M1108 1153v-1120q0 -11 -9.5 -22t-21.5 -11h-63q-12 0 -22.5 11t-10.5 22v438h-702v-438q0 -11 -9.5 -22t-21.5 -11h-64q-12 0 -22 11t-10 22v1120q0 11 10 22t22 11h64q12 0 21.5 -11t9.5 -22v-565h702v565q0 11 10.5 22t22.5 11h63q12 0 21.5 -11t9.5 -22z" />
    <glyph glyph-name="I" unicode="I" horiz-adv-x="430" 
d="M279 1153v-1120q0 -11 -9.5 -22t-21.5 -11h-64q-12 0 -22 11t-10 22v1120q0 11 10 22t22 11h64q12 0 21.5 -11t9.5 -22z" />
    <glyph glyph-name="J" unicode="J" horiz-adv-x="899" 
d="M152 180q46 -38 114.5 -62t124.5 -24q65 0 115 24t75.5 60t37.5 70.5t12 64.5v840q0 11 10.5 22t22.5 11h63q12 0 21.5 -11t9.5 -22v-840q0 -150 -100.5 -243t-278.5 -93q-102 0 -188 38t-138 91q-4 8 -4 15q0 19 14 29l50 32q12 4 18 4q11 0 21 -6z" />
    <glyph glyph-name="K" unicode="K" horiz-adv-x="1073" 
d="M389 600l645 -573q0 -9 -8 -18t-18 -9h-125q-15 0 -25 10l-579 516v-493q0 -11 -9.5 -22t-21.5 -11h-64q-12 0 -22 11t-10 22v1120q0 11 10 22t22 11h64q12 0 21.5 -11t9.5 -22v-483l536 506q10 10 25 10h116q10 0 18.5 -9t8.5 -18z" />
    <glyph glyph-name="L" unicode="L" horiz-adv-x="995" 
d="M883 0h-699q-12 0 -22 11t-10 22v1120q0 11 10 22t22 11h64q12 0 21.5 -11t9.5 -22v-1036h604q11 0 21.5 -10.5t10.5 -22.5v-53q0 -12 -10.5 -21.5t-21.5 -9.5z" />
    <glyph glyph-name="M" unicode="M" horiz-adv-x="1560" 
d="M788 256h-16q-12 0 -22 14l-471 760v-997q0 -11 -9.5 -22t-21.5 -11h-64q-12 0 -22 11t-10 22v1120q0 11 10 22t22 11h127q7 0 23 -12l446 -719l447 719q16 12 22 12h127q12 0 22.5 -11t10.5 -22v-1120q0 -11 -10.5 -22t-22.5 -11h-63q-12 0 -21.5 11t-9.5 22v997
l-471 -760q-11 -14 -23 -14z" />
    <glyph glyph-name="N" unicode="N" horiz-adv-x="1320" 
d="M1026 12l-747 983v-962q0 -11 -9.5 -22t-21.5 -11h-64q-12 0 -22 11t-10 22v1120q0 11 10 22t22 11h95q12 0 22 -12l741 -973v952q0 11 9.5 22t21.5 11h64q12 0 22 -11t10 -22v-1120q0 -11 -10 -22t-22 -11h-88q-13 0 -23 12z" />
    <glyph glyph-name="O" unicode="O" horiz-adv-x="1515" 
d="M758 1206q171 0 315 -82t227.5 -223.5t83.5 -308.5t-83.5 -308.5t-227.5 -224t-315 -82.5t-315.5 82.5t-228 224t-83.5 308.5t83.5 308.5t228 223.5t315.5 82zM758 94q133 0 248 67t183 182.5t68 248.5q0 139 -68 254t-182.5 179.5t-248.5 64.5t-248.5 -64.5t-183 -179.5
t-68.5 -254q0 -100 40.5 -192t108 -159t160 -107t191.5 -40z" />
    <glyph glyph-name="P" unicode="P" horiz-adv-x="1093" 
d="M897 780q0 151 -77.5 220t-209.5 69h-331v-575h331q132 0 209.5 68t77.5 218zM279 377v-344q0 -11 -9.5 -22t-21.5 -11h-64q-12 0 -22 11t-10 22v1120q0 11 10 22t22 11h418q22 0 43 -1t66.5 -9.5t83 -22.5t82 -44.5t75 -71.5t51.5 -107t21 -148t-21 -148.5t-51.5 -107.5
t-75 -71.5t-82 -44.5t-83 -22.5t-66.5 -9.5t-43 -1h-323z" />
    <glyph glyph-name="Q" unicode="Q" horiz-adv-x="1515" 
d="M758 94q133 0 248 67t183 182.5t68 248.5q0 139 -68 254t-182.5 179.5t-248.5 64.5t-248.5 -64.5t-183 -179.5t-68.5 -254q0 -100 40.5 -192t108 -159t160 -107t191.5 -40zM915 -223l-116 203q-18 -3 -41 -3q-171 0 -315.5 82.5t-228 224t-83.5 308.5t83.5 308.5
t228 223.5t315.5 82t315 -82t227.5 -223.5t83.5 -308.5q0 -216 -135 -382t-344 -216l119 -209q0 -23 -20 -23h-68q-14 0 -21 15z" />
    <glyph glyph-name="R" unicode="R" horiz-adv-x="1089" 
d="M279 377v-344q0 -11 -9.5 -22t-21.5 -11h-64q-12 0 -22 11t-10 22v1120q0 11 10 22t22 11h418q22 0 43 -1t66.5 -9.5t83 -22.5t82 -44.5t75 -71.5t51.5 -107t21 -148q0 -85 -22 -153t-55 -109.5t-78.5 -71.5t-85.5 -43t-83 -20l281 -356q0 -29 -31 -29h-78q-12 0 -22 10
l-287 367h-284zM897 780q0 151 -77.5 220t-209.5 69h-331v-575h331q132 0 209.5 68t77.5 218z" />
    <glyph glyph-name="S" unicode="S" horiz-adv-x="1060" 
d="M772 993q-61 47 -138 72t-153 25q-103 0 -176.5 -51.5t-73.5 -145.5q0 -48 20 -87t54.5 -65t80.5 -48.5t98 -38.5t106.5 -35t106.5 -37.5t98 -46.5t80.5 -61t54.5 -82t20 -109q0 -34 -12.5 -72.5t-44 -81t-78.5 -75.5t-123 -55t-170 -22q-271 0 -418 160q-6 8 -6 19
q0 13 13 26l47 39q12 6 20 6q7 0 19 -8q61 -54 149 -89.5t186 -35.5q68 0 122.5 17.5t85 42t50.5 54.5t26.5 52t6.5 37q0 43 -24.5 77.5t-66 58.5t-95.5 44.5t-114 40t-119.5 41.5t-113.5 53t-95.5 70t-66 96.5t-24.5 128.5q0 35 9.5 71.5t37 78.5t69.5 74t113.5 53.5
t162.5 21.5q229 0 368 -139q8 -8 8 -20q0 -11 -8 -19l-49 -37q-11 -8 -20 -8q-10 0 -23 10z" />
    <glyph glyph-name="T" unicode="T" horiz-adv-x="1150" 
d="M512 1069h-379q-11 0 -22 10.5t-11 22.5v53q0 12 11 21.5t22 9.5h885q11 0 22 -9.5t11 -21.5v-53q0 -12 -11 -22.5t-22 -10.5h-379v-1036q0 -11 -9.5 -22t-21.5 -11h-63q-12 0 -22.5 11t-10.5 22v1036z" />
    <glyph glyph-name="U" unicode="U" horiz-adv-x="1228" 
d="M614 -23q-16 0 -35 1t-69 10.5t-94 26t-97 52t-91 83.5t-63.5 126t-25.5 175v702q0 11 10.5 22t22.5 11h64q11 0 20.5 -11t9.5 -22v-702q0 -18 1.5 -38t9.5 -57t21 -69.5t39 -69.5t61.5 -63t91.5 -43t124 -17t124 17t91.5 43t62 63t39.5 69.5t21 69.5t9.5 57t1.5 38v702
q0 11 9.5 22t20.5 11h64q12 0 22.5 -11t10.5 -22v-702q0 -97 -26 -175t-63.5 -126t-91 -83.5t-97 -52t-94 -26t-69.5 -10.5t-35 -1z" />
    <glyph glyph-name="V" unicode="V" 
d="M1167 1155l-436 -1128q-12 -27 -43 -27h-143q-31 0 -43 27l-436 1128q0 12 9 21.5t21 9.5h74q20 0 27 -21l419 -1079l420 1079q7 21 27 21h74q12 0 21 -9.5t9 -21.5z" />
    <glyph glyph-name="W" unicode="W" horiz-adv-x="1736" 
d="M819 1186h99q23 0 32 -25l316 -1057l280 1063q1 7 9 13t16 6h76q10 0 18 -9t8 -18l-299 -1136q-3 -8 -14.5 -15.5t-22.5 -7.5h-143q-11 0 -22.5 7.5t-14.5 15.5l-289 962l-288 -962q-3 -8 -14.5 -15.5t-22.5 -7.5h-144q-11 0 -22.5 7.5t-14.5 15.5l-299 1136q0 9 8.5 18
t18.5 9h76q8 0 15.5 -6t8.5 -13l281 -1063l315 1057q9 25 33 25z" />
    <glyph glyph-name="X" unicode="X" horiz-adv-x="1028" 
d="M514 487l-309 -475q-6 -12 -23 -12h-90q-10 0 -18 9t-8 18l364 565l-364 567q0 9 8 18t18 9h90q17 0 23 -12l309 -478l309 478q6 12 23 12h90q10 0 18.5 -9t8.5 -18l-365 -567l365 -565q0 -9 -8.5 -18t-18.5 -9h-90q-17 0 -23 12z" />
    <glyph glyph-name="Y" unicode="Y" horiz-adv-x="1085" 
d="M606 399v-366q0 -11 -9.5 -22t-21.5 -11h-63q-12 0 -22.5 11t-10.5 22v366l-413 756q0 12 9 21.5t21 9.5h80q16 0 27 -21l340 -616l340 616q11 21 26 21h80q12 0 21.5 -9.5t9.5 -21.5z" />
    <glyph glyph-name="Z" unicode="Z" horiz-adv-x="1073" 
d="M109 162l712 907h-663q-11 0 -22 10.5t-11 22.5v53q0 12 11 21.5t22 9.5h762q11 0 21.5 -9.5t10.5 -21.5v-115q0 -8 -8 -20l-708 -903h704q11 0 22 -10.5t11 -22.5v-53q0 -12 -11 -21.5t-22 -9.5h-807q-11 0 -22 9.5t-11 21.5v110q0 7 9 21z" />
    <glyph glyph-name="bracketleft" unicode="[" horiz-adv-x="686" 
d="M184 1473h318q11 0 22 -9.5t11 -21.5v-53q0 -12 -11 -22.5t-22 -10.5h-223v-1540h223q11 0 22 -10.5t11 -22.5v-53q0 -12 -11 -21.5t-22 -9.5h-318q-12 0 -22 11t-10 22v1708q0 11 10 22t22 11z" />
    <glyph glyph-name="backslash" unicode="\" horiz-adv-x="1132" 
d="M846 -281l-694 1723q0 12 9 21.5t21 9.5h78q20 0 27 -21l694 -1722q0 -12 -9.5 -21.5t-21.5 -9.5h-78q-19 0 -26 20z" />
    <glyph glyph-name="bracketright" unicode="]" horiz-adv-x="686" 
d="M184 1473h318q12 0 22.5 -11t10.5 -22v-1708q0 -11 -10.5 -22t-22.5 -11h-318q-11 0 -21.5 9.5t-10.5 21.5v53q0 12 10.5 22.5t21.5 10.5h224v1540h-224q-11 0 -21.5 10.5t-10.5 22.5v53q0 12 10.5 21.5t21.5 9.5z" />
    <glyph glyph-name="asciicircum" unicode="^" horiz-adv-x="823" 
d="M356 1186h111q18 0 31 -21l174 -268q0 -12 -10 -22.5t-23 -10.5h-68q-12 0 -26 21l-133 202l-133 -202q-14 -21 -27 -21h-68q-13 0 -22.5 10.5t-9.5 22.5l174 268q13 21 30 21z" />
    <glyph glyph-name="underscore" unicode="_" horiz-adv-x="829" 
d="M645 -201h-461q-11 0 -21.5 10.5t-10.5 22.5v53q0 12 10.5 21.5t21.5 9.5h461q11 0 22 -9.5t11 -21.5v-53q0 -12 -11 -22.5t-22 -10.5z" />
    <glyph glyph-name="grave" unicode="`" horiz-adv-x="524" 
d="M260 999l-108 162q0 10 7.5 17.5t18.5 7.5h82q16 0 25 -17l88 -157q0 -11 -7.5 -19t-19.5 -8h-61q-17 0 -25 14z" />
    <glyph glyph-name="a" unicode="a" 
d="M954 743v93q0 11 9.5 21.5t21.5 10.5h64q12 0 22 -10.5t10 -21.5v-809q-3 -11 -12.5 -19t-19.5 -8h-64q-10 0 -19 8t-12 19v98q-56 -52 -111 -84.5t-106 -45t-79.5 -15.5t-69.5 -3q-212 0 -344.5 132t-132.5 325t132.5 325t344.5 132q41 0 69.5 -3t79.5 -15.5t106 -45
t111 -84.5zM238 434q0 -148 103.5 -244t252.5 -96q152 0 256 96t104 244t-104 244t-256 96q-149 0 -252.5 -96t-103.5 -244z" />
    <glyph glyph-name="b" unicode="b" 
d="M279 1192v-449q56 52 111 84.5t106 45t79.5 15.5t69.5 3q212 0 344.5 -132t132.5 -325t-132.5 -325t-344.5 -132q-41 0 -69.5 3t-79.5 15.5t-106 45t-111 84.5v-98q-3 -11 -12 -19t-19 -8h-64q-10 0 -19.5 8t-12.5 19v1165q0 11 10 22t22 11h64q12 0 21.5 -11t9.5 -22z
M995 434q0 148 -103.5 244t-252.5 96q-152 0 -256 -96t-104 -244t104 -244t256 -96q149 0 252.5 96t103.5 244z" />
    <glyph glyph-name="c" unicode="c" horiz-adv-x="1085" 
d="M580 -23q-208 0 -338.5 132t-130.5 325t130.5 325t338.5 132q145 0 254 -64t161 -186q-3 -23 -24 -23h-80q-15 0 -21 13q-40 71 -119 107t-176 36q-148 0 -242.5 -95.5t-94.5 -244.5t94.5 -244.5t242.5 -95.5q97 0 176 36.5t119 107.5q6 12 21 12h80q21 0 24 -23
q-52 -122 -161 -186t-254 -64z" />
    <glyph glyph-name="d" unicode="d" 
d="M954 743v449q0 11 9.5 22t21.5 11h64q12 0 22 -11t10 -22v-1165q-3 -11 -12.5 -19t-19.5 -8h-64q-10 0 -19 8t-12 19v98q-56 -52 -111 -84.5t-106 -45t-79.5 -15.5t-69.5 -3q-212 0 -344.5 132t-132.5 325t132.5 325t344.5 132q41 0 69.5 -3t79.5 -15.5t106 -45
t111 -84.5zM238 434q0 -148 103.5 -244t252.5 -96q152 0 256 96t104 244t-104 244t-256 96q-149 0 -252.5 -96t-103.5 -244z" />
    <glyph glyph-name="e" unicode="e" horiz-adv-x="1103" 
d="M561 774q-66 0 -132.5 -28.5t-121.5 -94t-69 -155.5h645q-10 68 -44.5 123t-81 88t-97 50t-99.5 17zM1010 434v-18q0 -11 -9.5 -22t-21.5 -11h-741q11 -65 37.5 -116.5t61 -83t77 -52.5t82 -29t79.5 -8q93 0 199 35q8 4 17 4q10 0 18 -14l33 -53q4 -6 4 -17
q0 -21 -19 -29q-148 -43 -254 -43q-199 0 -330.5 127t-131.5 330q0 192 127.5 325.5t322.5 133.5t322 -133.5t127 -325.5z" />
    <glyph glyph-name="f" unicode="f" horiz-adv-x="788" 
d="M643 1260q13 -3 23 -12.5t10 -20.5v-53q0 -11 -11 -20t-22 -9l-49 2q-50 0 -86.5 -19.5t-53.5 -47.5t-26.5 -55.5t-10.5 -46.5l-1 -20v-90h229q11 0 22 -10t11 -22v-54q0 -11 -11 -20.5t-22 -9.5h-229v-719q0 -11 -9.5 -22t-21.5 -11h-66q-12 0 -22 11t-10 22v719h-176
q-11 0 -22 9.5t-11 20.5v54q0 12 11 22t22 10h176v62q0 65 13.5 118.5t33.5 87.5t48 60t53.5 38.5t53.5 20.5t43.5 9.5t28.5 1.5q35 0 82 -6z" />
    <glyph glyph-name="g" unicode="g" 
d="M238 434q0 -148 103.5 -244t252.5 -96q152 0 256 96t104 244t-104 244t-256 96q-149 0 -252.5 -96t-103.5 -244zM289 -319q-15 5 -15 24q0 9 5 16l28 50q7 10 23 10q6 0 14 -4q118 -51 258 -51q42 0 85.5 8t92.5 30.5t87 56t62.5 89.5t24.5 127v88q-56 -52 -111 -84.5
t-106 -45t-79.5 -15.5t-69.5 -3q-212 0 -344.5 132t-132.5 325t132.5 325t344.5 132q41 0 69.5 -3t79.5 -15.5t106 -45t111 -84.5v99q3 11 12 18.5t19 7.5h64q10 0 19.5 -7.5t12.5 -18.5v-809q0 -92 -38 -172t-103 -135t-153.5 -86t-186.5 -31q-163 0 -311 72z" />
    <glyph glyph-name="h" unicode="h" horiz-adv-x="1089" 
d="M279 1192v-459q111 158 323 158q70 0 127 -18.5t92.5 -47t63 -66.5t41 -72.5t21.5 -71t9.5 -55t1.5 -30.5v-497q0 -11 -9.5 -22t-20.5 -11h-64q-12 0 -22.5 11t-10.5 22v456q0 285 -245 285q-61 0 -113.5 -22t-87 -55.5t-59.5 -74t-36 -77.5t-11 -66v-446q0 -11 -9.5 -22
t-21.5 -11h-64q-12 0 -22 11t-10 22v1159q0 11 10 22t22 11h64q12 0 21.5 -11t9.5 -22z" />
    <glyph glyph-name="i" unicode="i" horiz-adv-x="430" 
d="M129 1069q0 37 25.5 63.5t60.5 26.5q37 0 62.5 -26.5t25.5 -63.5q0 -34 -26 -59t-62 -25q-35 0 -60.5 25t-25.5 59zM279 836v-803q0 -11 -9.5 -22t-21.5 -11h-64q-12 0 -22 11t-10 22v803q0 11 10 21.5t22 10.5h64q12 0 21.5 -10.5t9.5 -21.5z" />
    <glyph glyph-name="j" unicode="j" horiz-adv-x="430" 
d="M129 1069q0 37 25.5 63.5t60.5 26.5q37 0 62.5 -26.5t25.5 -63.5q0 -34 -26 -59t-62 -25q-35 0 -60.5 25t-25.5 59zM-78 -240l23 -2q56 0 98 21t62 51t31.5 60.5t13.5 51.5l2 21v873q0 11 10 21.5t22 10.5h64q12 0 21.5 -10.5t9.5 -21.5v-859q0 -67 -13.5 -121t-34 -88
t-49 -59.5t-53.5 -37.5t-54.5 -19.5t-44 -8.5t-28.5 -1h-78q-11 0 -23 10t-12 22v56q0 11 11 20.5t22 9.5z" />
    <glyph glyph-name="k" unicode="k" horiz-adv-x="937" 
d="M403 440l478 -405q0 -15 -9.5 -25t-23.5 -10h-109q-5 0 -10 2t-7.5 3.5t-7.5 6.5t-7 6l-428 363v-348q0 -11 -9.5 -22t-21.5 -11h-64q-12 0 -22 11t-10 22v1161q0 11 10 22t22 11h64q12 0 21.5 -11t9.5 -22v-692l399 348q2 2 5.5 5t6 5t5.5 4t6.5 3t7.5 1h108
q14 0 23.5 -9.5t9.5 -24.5z" />
    <glyph glyph-name="l" unicode="l" horiz-adv-x="430" 
d="M279 1192v-1159q0 -11 -9.5 -22t-21.5 -11h-64q-12 0 -22 11t-10 22v1159q0 11 10 22t22 11h64q12 0 21.5 -11t9.5 -22z" />
    <glyph glyph-name="m" unicode="m" horiz-adv-x="1638" 
d="M1380 33v485q0 27 -5.5 57.5t-21.5 67t-41 65t-68 47.5t-99 19q-61 0 -108 -20.5t-73.5 -50.5t-43 -71t-22 -76t-5.5 -71v-452q0 -11 -9.5 -22t-21.5 -11h-63q-12 0 -22.5 11t-10.5 22v485q0 27 -5.5 57.5t-22.5 67t-42.5 65t-70 47.5t-101.5 19q-51 0 -93.5 -23.5
t-70 -59t-46.5 -78t-27 -78.5t-8 -62v-440q0 -11 -9.5 -22t-21.5 -11h-64q-12 0 -22 11t-10 22v803q0 11 10 21.5t22 10.5h64q12 0 21.5 -10.5t9.5 -21.5v-88q27 39 57.5 66.5t56 42t56.5 22.5t51 10t47 2q102 0 170.5 -52t116.5 -155q80 207 325 207q94 0 165.5 -33.5
t109 -86.5t55.5 -108t18 -110v-520q0 -11 -9.5 -22t-20.5 -11h-64q-12 0 -22.5 11t-10.5 22z" />
    <glyph glyph-name="n" unicode="n" horiz-adv-x="1089" 
d="M279 836v-103q111 158 323 158q70 0 127 -18.5t92.5 -47t63 -66.5t41 -72.5t21.5 -71t9.5 -55t1.5 -30.5v-497q0 -11 -9.5 -22t-20.5 -11h-64q-12 0 -22.5 11t-10.5 22v456q0 285 -245 285q-61 0 -113.5 -22t-87 -55.5t-59.5 -74t-36 -77.5t-11 -66v-446q0 -11 -9.5 -22
t-21.5 -11h-64q-12 0 -22 11t-10 22v803q0 11 10 21.5t22 10.5h64q12 0 21.5 -10.5t9.5 -21.5z" />
    <glyph glyph-name="o" unicode="o" horiz-adv-x="1171" 
d="M586 891q131 0 240.5 -61.5t172 -166.5t62.5 -229t-62.5 -229t-172 -166.5t-240.5 -61.5t-240.5 61.5t-172 166.5t-62.5 229t62.5 229t172 166.5t240.5 61.5zM586 774q-147 0 -247.5 -96.5t-100.5 -243.5t100.5 -243.5t247.5 -96.5t247.5 96.5t100.5 243.5t-100.5 243.5
t-247.5 96.5z" />
    <glyph glyph-name="p" unicode="p" 
d="M279 125v-451q0 -11 -9.5 -21.5t-21.5 -10.5h-64q-12 0 -22 10.5t-10 21.5v1168q3 11 12.5 18.5t19.5 7.5h64q10 0 19 -7.5t12 -18.5v-99q56 52 111 84.5t106 45t79.5 15.5t69.5 3q212 0 344.5 -132t132.5 -325t-132.5 -325t-344.5 -132q-41 0 -69.5 3t-79.5 15.5
t-106 45t-111 84.5zM995 434q0 148 -103.5 244t-252.5 96q-152 0 -256 -96t-104 -244t104 -244t256 -96q149 0 252.5 96t103.5 244z" />
    <glyph glyph-name="q" unicode="q" 
d="M954 -326v451q-56 -52 -111 -84.5t-106 -45t-79.5 -15.5t-69.5 -3q-212 0 -344.5 132t-132.5 325t132.5 325t344.5 132q41 0 69.5 -3t79.5 -15.5t106 -45t111 -84.5v99q3 11 12 18.5t19 7.5h64q10 0 19.5 -7.5t12.5 -18.5v-1168q0 -11 -10 -21.5t-22 -10.5h-64
q-12 0 -21.5 10.5t-9.5 21.5zM238 434q0 -148 103.5 -244t252.5 -96q152 0 256 96t104 244t-104 244t-256 96q-149 0 -252.5 -96t-103.5 -244z" />
    <glyph glyph-name="r" unicode="r" horiz-adv-x="749" 
d="M649 754q-89 -5 -162.5 -48.5t-117 -106.5t-67 -132.5t-23.5 -132.5v-301q0 -11 -9.5 -22t-21.5 -11h-64q-12 0 -22 11t-10 22v803q0 11 10 21.5t22 10.5h64q12 0 21.5 -10.5t9.5 -21.5v-177q48 71 107.5 118t115 65.5t88 24t59.5 5.5q11 0 22 -10t11 -22v-54
q0 -12 -11 -22t-22 -10z" />
    <glyph glyph-name="s" unicode="s" horiz-adv-x="843" 
d="M662 811q12 -10 12 -25q0 -12 -10 -22l-37 -41q-6 -6 -17 -6t-20 6q-101 55 -199 55q-33 0 -62.5 -6t-58 -19.5t-45 -41t-16.5 -66.5q0 -41 24 -71.5t63 -47.5t88.5 -33t102 -27.5t102 -32.5t88.5 -46.5t63 -70t24 -103.5q0 -86 -97 -161t-259 -75q-108 0 -191 34.5
t-133 86.5q-4 8 -4 15q0 12 8 20l49 35q9 6 19 6t16 -6q35 -34 89 -53.5t91 -22.5l37 -2q24 0 44 1t61.5 7.5t69.5 18.5t50.5 38t22.5 62q0 42 -30.5 71.5t-79.5 47t-108 32t-118.5 34.5t-108.5 47.5t-79.5 78t-30.5 119.5q0 43 18 84.5t53.5 78t97.5 59t142 22.5
q167 0 269 -80z" />
    <glyph glyph-name="t" unicode="t" horiz-adv-x="788" 
d="M287 868v301q0 19 22 25l76 23q10 0 19.5 -10t9.5 -19v-320h231q11 0 22 -9.5t11 -20.5v-54q0 -12 -11 -22t-22 -10h-231v-437q0 -15 0.5 -27t5 -34t12.5 -38.5t24.5 -36t39 -32.5t58 -21.5t79.5 -8.5h10q11 0 22 -9t11 -20v-53q0 -12 -11 -22.5t-22 -10.5q-8 0 -35.5 -1
t-46.5 -1q-16 0 -29 0.5t-43 7t-53.5 18t-53 35.5t-49 57t-33 86.5t-13.5 119.5v428h-176q-11 0 -22 10t-11 22v54q0 11 11 20.5t22 9.5h176z" />
    <glyph glyph-name="u" unicode="u" horiz-adv-x="1089" 
d="M545 -23q-78 0 -141 18t-104 45.5t-72 66.5t-47 75.5t-25.5 79t-12 70t-2.5 55.5v449q0 11 10.5 21.5t22.5 10.5h64q12 0 21 -10.5t9 -21.5v-457q0 -31 5 -62.5t22.5 -73.5t46 -73.5t81.5 -53.5t122 -22t122 22t81 53.5t45.5 73.5t22.5 73.5t5 62.5v457q0 11 9.5 21.5
t21.5 10.5h63q12 0 22.5 -10.5t10.5 -21.5v-449q0 -28 -2.5 -55.5t-12 -70t-25.5 -79t-46.5 -76t-71.5 -66.5t-104 -45t-141 -18z" />
    <glyph glyph-name="v" unicode="v" horiz-adv-x="987" 
d="M561 0h-135q-31 0 -43 27l-313 811q0 12 9 21t21 9h76q20 0 27 -20l291 -762l290 762q7 20 27 20h76q12 0 21.5 -9t9.5 -21l-314 -811q-12 -27 -43 -27z" />
    <glyph glyph-name="w" unicode="w" horiz-adv-x="1490" 
d="M686 868h119q12 0 23.5 -8.5t15.5 -21.5l239 -691l205 703q1 7 9 12.5t16 5.5h82q10 0 18 -8.5t8 -17.5l-241 -819q-3 -9 -14 -16t-23 -7h-117q-26 0 -37 23l-244 708l-243 -708q-12 -23 -37 -23h-117q-12 0 -23 7t-14 16l-241 819q0 9 8 17.5t18 8.5h82q8 0 16 -5.5
t9 -12.5l205 -703l239 691q4 13 15.5 21.5t23.5 8.5z" />
    <glyph glyph-name="x" unicode="x" horiz-adv-x="860" 
d="M430 340l-209 -320q-12 -20 -26 -20h-97q-12 0 -20 9t-8 20l274 407l-274 404q0 11 8 19.5t20 8.5h92q15 0 27 -20l213 -316l213 316q12 20 27 20h92q12 0 20.5 -8.5t8.5 -19.5l-275 -404l275 -407q0 -11 -8.5 -20t-20.5 -9h-96q-15 0 -27 20z" />
    <glyph glyph-name="y" unicode="y" horiz-adv-x="987" 
d="M147 -242h9q97 0 163.5 37.5t106.5 124.5l-356 918q0 12 9 21t21 9h76q20 0 27 -20l291 -762l290 762q7 20 27 20h76q12 0 21.5 -9t9.5 -21l-365 -938q-29 -74 -73 -127t-95 -80t-98.5 -39t-96.5 -12h-43q-11 0 -21.5 10t-10.5 22v54q0 12 10.5 21t21.5 9z" />
    <glyph glyph-name="z" unicode="z" horiz-adv-x="935" 
d="M127 152l545 600h-520q-11 0 -22 10t-11 22v54q0 11 11 20.5t22 9.5h632q11 0 22 -9.5t11 -20.5v-101q0 -8 -8 -20l-545 -600h520q11 0 22 -10.5t11 -22.5v-53q0 -12 -11 -21.5t-22 -9.5h-632q-11 0 -22 9.5t-11 21.5v100q0 9 8 21z" />
    <glyph glyph-name="braceleft" unicode="{" horiz-adv-x="837" 
d="M381 -6v278q0 5 -0.5 14.5t-5 37t-11.5 52.5t-22.5 55t-35.5 52t-53 37t-73 15q-9 0 -18.5 9t-9.5 19v47q0 10 9.5 18.5t18.5 8.5q55 0 96 27t60 65.5t30.5 77t13.5 65.5l1 27v279q0 60 11 108t27.5 78t41 52t45.5 32.5t48 16.5t41 7t32 1h26q11 0 22 -9.5t11 -21.5v-53
q0 -12 -11 -22.5t-22 -10.5q-77 -2 -111 -41t-34 -125v-295q0 -72 -19 -132t-48 -95t-55.5 -55.5t-47.5 -26.5q21 -6 47.5 -26.5t55.5 -56t48 -95.5t19 -132v-294q0 -86 34 -125t111 -41q11 0 22 -10.5t11 -22.5v-53q0 -12 -11 -21.5t-22 -9.5h-26q-18 0 -32 1t-41 7
t-48 16.5t-45.5 32.5t-41 52t-27.5 78t-11 108z" />
    <glyph glyph-name="bar" unicode="|" horiz-adv-x="430" 
d="M279 1440v-1708q0 -11 -9.5 -22t-21.5 -11h-64q-12 0 -22 11t-10 22v1708q0 11 10 22t22 11h64q12 0 21.5 -11t9.5 -22z" />
    <glyph glyph-name="braceright" unicode="}" horiz-adv-x="837" 
d="M457 272v-278q0 -60 -11 -108t-27.5 -78t-41 -52t-45.5 -32.5t-48 -16.5t-41 -7t-32 -1h-27q-11 0 -21.5 9.5t-10.5 21.5v53q0 12 10.5 22.5t21.5 10.5q77 2 111.5 41t34.5 125v294q0 72 19 132t48 95.5t55.5 56t47.5 26.5q-21 6 -47.5 26.5t-55.5 55.5t-48 95t-19 132
v295q0 86 -34.5 125t-111.5 41q-11 0 -21.5 10.5t-10.5 22.5v53q0 12 10.5 21.5t21.5 9.5h27q18 0 32 -1t41 -7t48 -16.5t45.5 -32.5t41 -52t27.5 -78t11 -108v-279q0 -5 0.5 -14.5t5 -37t11.5 -52t22 -55t35 -52t53 -36.5t73 -15q10 0 19.5 -8.5t9.5 -18.5v-47
q0 -10 -10 -19t-19 -9q-40 0 -73 -14.5t-53 -37.5t-35 -51t-22.5 -56.5t-11.5 -51.5t-4 -38z" />
    <glyph glyph-name="asciitilde" unicode="~" horiz-adv-x="1015" 
d="M690 301q-62 0 -176.5 49t-167.5 49q-77 0 -92 -86q-3 -14 -21 -14h-57q-24 0 -24 25q7 52 25 90.5t37 57t44 29.5t39 13t29 2q65 0 181.5 -49t162.5 -49q77 0 92 86q3 14 20 14h58q24 0 24 -24q-7 -52 -25 -90.5t-37 -57.5t-44 -30t-39.5 -13t-28.5 -2z" />
    <glyph glyph-name="uni00A0" unicode="&#xa0;" horiz-adv-x="329" 
 />
    <glyph glyph-name="exclamdown" unicode="&#xa1;" horiz-adv-x="477" 
d="M152 1096q0 37 25.5 63.5t60.5 26.5q37 0 62.5 -26.5t25.5 -63.5q0 -34 -26 -59t-62 -25q-35 0 -60.5 25t-25.5 59zM293 862l8 -803q0 -11 -9.5 -21.5t-21.5 -10.5h-63q-12 0 -22.5 10.5t-10.5 21.5l8 803q0 11 10.5 22t22.5 11h47q12 0 21.5 -11t9.5 -22z" />
    <glyph glyph-name="cent" unicode="&#xa2;" horiz-adv-x="1501" 
d="M854 1386v-184q170 -17 303 -113t193 -243q-3 -23 -25 -23h-90q-15 0 -21 13q-64 118 -177 186t-253 68q-135 0 -250.5 -64.5t-185 -179.5t-69.5 -254q0 -133 69 -248.5t185.5 -182.5t250.5 -67q140 0 253 68t177 186q6 12 21 12h90q22 0 25 -22q-60 -148 -193 -243.5
t-303 -112.5v-185q0 -11 -9.5 -22t-21.5 -11h-63q-12 0 -22.5 11t-10.5 22v183q-160 13 -292 97.5t-207.5 220.5t-75.5 294q0 240 165.5 415t409.5 197v182q0 11 10.5 22t22.5 11h63q12 0 21.5 -11t9.5 -22z" />
    <glyph glyph-name="sterling" unicode="&#xa3;" horiz-adv-x="1253" 
d="M1069 0h-885q-11 0 -21.5 9.5t-10.5 21.5v53q0 12 10.5 22.5t21.5 10.5h92q14 19 35.5 51t64 116.5t56.5 151.5h-188q-11 0 -22 9.5t-11 21.5v53q0 12 11 22.5t22 10.5h196q-59 139 -74.5 203.5t-15.5 128.5q0 19 1 35.5t8 51.5t19 63t37.5 61.5t60 56t90 38t124.5 15.5
q70 0 126.5 -18t93.5 -46t65 -67.5t43 -76.5t23.5 -79.5t11 -70.5t2.5 -55q0 -11 -9.5 -22t-21.5 -11h-63q-12 0 -22.5 11t-10.5 22v12q0 133 -63.5 209t-174.5 76q-66 0 -111 -18.5t-66 -51t-28.5 -64.5t-7.5 -71q0 -54 11.5 -104.5t39.5 -127t35 -100.5h193
q11 0 21.5 -10.5t10.5 -22.5v-53q0 -12 -10.5 -21.5t-21.5 -9.5h-197q-38 -172 -143 -319h653q11 0 22 -10.5t11 -22.5v-53q0 -12 -11 -21.5t-22 -9.5z" />
    <glyph glyph-name="currency" unicode="&#xa4;" horiz-adv-x="991" 
d="M825 406q0 -50 -20 -105t-55 -90l90 -170q0 -18 -10.5 -29.5t-30.5 -11.5h-80q-26 0 -41 27l-45 94q-60 -33 -137 -33q-78 0 -138 33l-45 -94q-15 -27 -41 -27h-79q-20 0 -30.5 11.5t-10.5 29.5l90 170q-35 35 -55.5 90t-20.5 105t20.5 104.5t55.5 89.5l-90 170
q0 18 10.5 29.5t30.5 11.5h79q26 0 41 -27l45 -94q60 33 138 33q77 0 137 -33l45 94q15 27 41 27h80q20 0 30.5 -11.5t10.5 -29.5l-90 -170q35 -35 55 -89.5t20 -104.5zM694 406q0 86 -56 143t-142 57t-142.5 -57t-56.5 -143t56.5 -143.5t142.5 -57.5t142 57t56 144z" />
    <glyph glyph-name="yen" unicode="&#xa5;" horiz-adv-x="1257" 
d="M907 160h-215v-127q0 -11 -9.5 -22t-20.5 -11h-64q-12 0 -22.5 11t-10.5 22v127h-215q-9 0 -18.5 9t-9.5 19v48q0 10 9 18t19 8h215v137l-37 68h-178q-9 0 -18.5 9.5t-9.5 19.5v47q0 10 9 18t19 8h121l-319 586q0 12 9 21.5t21 9.5h80q16 0 27 -21l340 -616l340 616
q11 21 26 21h80q12 0 21.5 -9.5t9.5 -21.5l-322 -586h123q10 0 19.5 -8t9.5 -18v-47q0 -10 -10 -19.5t-19 -9.5h-178l-37 -68v-137h215q10 0 19.5 -8t9.5 -18v-48q0 -10 -10 -19t-19 -9z" />
    <glyph glyph-name="brokenbar" unicode="&#xa6;" horiz-adv-x="430" 
d="M279 401v-669q0 -11 -9.5 -22t-21.5 -11h-64q-12 0 -22 11t-10 22v669q0 11 10 22t22 11h64q12 0 21.5 -11t9.5 -22zM279 1440v-670q0 -11 -9.5 -22t-21.5 -11h-64q-12 0 -22 11t-10 22v670q0 11 10 22t22 11h64q12 0 21.5 -11t9.5 -22z" />
    <glyph glyph-name="section" unicode="&#xa7;" horiz-adv-x="1040" 
d="M518 1206q166 0 268 -80q13 -10 13 -24q0 -12 -11 -23l-36 -41q-6 -6 -17 -6t-20 6q-102 56 -199 56q-33 0 -62.5 -6t-58 -19.5t-45 -41t-16.5 -66.5q0 -47 30.5 -79.5t79.5 -50.5t108.5 -33.5t118.5 -34.5t108 -45.5t79.5 -74.5t30.5 -115q0 -44 -28.5 -90t-80.5 -80
q56 -56 56 -145q0 -86 -97.5 -161t-259.5 -75q-108 0 -190.5 34.5t-132.5 86.5q-4 8 -4 15q0 12 8 20l49 35q9 6 18 6q11 0 17 -6q35 -34 89 -53.5t91 -22.5l37 -2q24 0 44 1t61.5 7.5t69.5 18.5t50.5 38t22.5 62q0 42 -30.5 71.5t-79.5 47t-108 32t-118.5 34.5t-108.5 47.5
t-79.5 78t-30.5 119.5q0 49 23.5 97t70.5 83q-41 53 -41 136q0 43 18 84.5t53.5 77.5t97.5 58.5t142 22.5zM281 645q0 -62 50 -96t185 -74q116 -33 158 -33q39 0 63.5 24.5t24.5 65.5q0 57 -62 92t-180 66q-113 31 -166 31q-31 0 -52 -21.5t-21 -54.5z" />
    <glyph glyph-name="dieresis" unicode="&#xa8;" horiz-adv-x="761" 
d="M152 1102q0 36 23 60t58 24t59.5 -24.5t24.5 -59.5t-24.5 -58.5t-59.5 -23.5t-58 23.5t-23 58.5zM444 1102q0 35 23.5 59.5t58.5 24.5t59.5 -24.5t24.5 -59.5t-24.5 -58.5t-59.5 -23.5t-58.5 23.5t-23.5 58.5z" />
    <glyph glyph-name="copyright" unicode="&#xa9;" horiz-adv-x="1533" 
d="M768 1206q166 0 307.5 -82t224 -223.5t82.5 -308.5q0 -125 -49 -239t-131 -196.5t-195.5 -131t-238.5 -48.5t-239 48.5t-196.5 131t-131.5 196.5t-49 239q0 167 82.5 308.5t224.5 223.5t309 82zM768 55q146 0 269.5 72t195.5 195.5t72 269.5t-72 269.5t-195.5 195
t-269.5 71.5q-147 0 -270.5 -71.5t-195 -195t-71.5 -269.5t71.5 -269.5t195 -195.5t270.5 -72zM768 324q-115 0 -197 79.5t-82 188.5q0 111 82 190.5t197 79.5q77 0 142.5 -40t101.5 -105q0 -9 -6 -15t-15 -6h-69q-14 0 -21 11q-41 69 -137 69q-74 0 -124 -51.5t-50 -132.5
q0 -79 50 -130.5t124 -51.5q100 0 141 69q7 10 21 10h65q21 0 21 -20q-36 -65 -101.5 -105t-142.5 -40z" />
    <glyph glyph-name="ordfeminine" unicode="&#xaa;" horiz-adv-x="704" 
d="M362 778q37 0 68 17t31 47q0 37 -31 52t-68 15q-118 0 -118 -67q0 -64 118 -64zM203 1159q68 27 131 27q99 0 159 -47t60 -142v-274q0 -14 -18 -14h-58q-16 0 -16 14v16q-45 -43 -131 -43q-82 0 -130 40.5t-48 109.5q0 147 167 147q93 0 142 -47v29q-5 65 -33.5 93
t-99.5 28q-44 0 -97 -19q-14 0 -22 13l-12 34q-4 11 -4 15q0 15 10 20z" />
    <glyph glyph-name="guillemotleft" unicode="&#xab;" horiz-adv-x="1126" 
d="M152 408q0 12 6 24l198 367q10 16 23 16h67q25 0 25 -27l-195 -356q-6 -12 -6 -24q0 -13 6 -25l195 -356q0 -27 -25 -27h-67q-13 0 -23 16l-198 367q-6 12 -6 25zM655 408q0 10 7 24l198 367q10 16 23 16h67q25 0 25 -27l-195 -356q-6 -12 -6 -24q0 -13 6 -25l195 -356
q0 -27 -25 -27h-67q-13 0 -23 16l-198 367q-7 14 -7 25z" />
    <glyph glyph-name="logicalnot" unicode="&#xac;" horiz-adv-x="1067" 
d="M184 516h699q12 0 22 -11t10 -22v-338q0 -11 -10 -21.5t-22 -10.5h-64q-12 0 -21.5 10.5t-9.5 21.5v254h-604q-11 0 -21.5 10.5t-10.5 22.5v53q0 12 10.5 21.5t21.5 9.5z" />
    <glyph glyph-name="uni00AD" unicode="&#xad;" horiz-adv-x="405" 
 />
    <glyph glyph-name="registered" unicode="&#xae;" horiz-adv-x="1533" 
d="M651 778v-229h119q65 0 100 24.5t35 88.5q0 38 -11.5 62.5t-33.5 35.5t-42 14.5t-48 3.5h-119zM768 1206q166 0 307.5 -82t224 -223.5t82.5 -308.5q0 -125 -49 -239t-131 -196.5t-195.5 -131t-238.5 -48.5t-239 48.5t-196.5 131t-131.5 196.5t-49 239q0 167 82.5 308.5
t224.5 223.5t309 82zM768 55q146 0 269.5 72t195.5 195.5t72 269.5t-72 269.5t-195.5 195t-269.5 71.5q-147 0 -270.5 -71.5t-195 -195t-71.5 -269.5t71.5 -269.5t195 -195.5t270.5 -72zM883 471l121 -154q0 -7 -5.5 -12.5t-13.5 -5.5h-67q-16 0 -25 12l-113 146h-129v-138
q0 -8 -5.5 -14t-14.5 -6h-60q-9 0 -14.5 6t-5.5 14v535q0 8 5.5 14t14.5 6h197q21 0 35 -0.5t41.5 -4.5t46.5 -11t42.5 -21.5t38 -34.5t24.5 -52t10 -72q0 -97 -27 -142t-96 -65z" />
    <glyph glyph-name="macron" unicode="&#xaf;" horiz-adv-x="829" 
d="M645 1069h-461q-11 0 -21.5 10.5t-10.5 22.5v53q0 12 10.5 21.5t21.5 9.5h461q11 0 22 -9.5t11 -21.5v-53q0 -12 -11 -22.5t-22 -10.5z" />
    <glyph glyph-name="degree" unicode="&#xb0;" horiz-adv-x="772" 
d="M385 1186q97 0 166.5 -68.5t69.5 -165.5q0 -95 -69.5 -164t-166.5 -69q-95 0 -164 69t-69 164q0 96 69 165t164 69zM385 840q45 0 79 34t34 78q0 47 -33.5 80t-79.5 33q-47 0 -80 -33t-33 -80q0 -45 33 -78.5t80 -33.5z" />
    <glyph glyph-name="plusminus" unicode="&#xb1;" horiz-adv-x="847" 
d="M360 393v182h-178q-11 0 -20.5 9.5t-9.5 21.5v58q0 12 9.5 20t20.5 8h178v178q0 11 10.5 22t22.5 11h64q11 0 20.5 -11t9.5 -22v-178h179q11 0 20.5 -8t9.5 -20v-58q0 -12 -9.5 -21.5t-20.5 -9.5h-179v-182q0 -11 -9.5 -22t-20.5 -11h-64q-12 0 -22.5 11t-10.5 22zM664 0
h-480q-11 0 -21.5 10.5t-10.5 22.5v53q0 12 10.5 21.5t21.5 9.5h480q11 0 21.5 -9.5t10.5 -21.5v-53q0 -12 -10.5 -22.5t-21.5 -10.5z" />
    <glyph glyph-name="twosuperior" unicode="&#xb2;" horiz-adv-x="655" 
d="M152 1020v14q0 10 1.5 22t10 37t24 44t48.5 34t77 15q43 0 76.5 -11.5t51.5 -28.5t29.5 -39.5t15 -40.5t3.5 -36q0 -61 -58.5 -136.5t-141.5 -139.5h198q6 0 11.5 -5.5t5.5 -11.5v-43q0 -6 -5.5 -11t-11.5 -5h-303q-6 0 -11 5t-5 11v49q0 12 8 17q76 60 125 108t69 80
t25.5 48.5t5.5 33.5q0 32 -19 56t-69 24q-26 0 -42.5 -9t-23 -25.5t-8 -27.5t-1.5 -28q0 -6 -5.5 -11t-11.5 -5h-53q-6 0 -11 5t-5 11z" />
    <glyph glyph-name="threesuperior" unicode="&#xb3;" horiz-adv-x="628" 
d="M307 782q33 0 53 14t24.5 27.5t4.5 26.5q0 24 -8 39t-24 20.5t-27.5 7t-30.5 1.5h-10q-6 0 -11.5 5t-5.5 11v45q0 6 5.5 11t11.5 5h10q19 0 30.5 1.5t27.5 7t24 20.5t8 39q0 13 -4.5 26t-24.5 27t-53 14q-34 0 -49.5 -16.5t-17.5 -40.5q0 -6 -5.5 -11t-11.5 -5h-55
q-6 0 -11 5t-5 11q2 52 38 92.5t119 40.5q52 0 87 -12.5t51.5 -35t23 -45t6.5 -50.5q0 -71 -71 -107q71 -36 71 -106q0 -28 -6.5 -50.5t-23 -45t-51.5 -35t-87 -12.5q-83 0 -119 40.5t-38 92.5q0 6 5 11t11 5h55q6 0 11.5 -5t5.5 -11q2 -24 17.5 -41t49.5 -17z" />
    <glyph glyph-name="acute" unicode="&#xb4;" horiz-adv-x="524" 
d="M373 1161l-109 -162q-8 -14 -24 -14h-62q-12 0 -19 8t-7 19l88 157q8 17 24 17h82q12 0 19.5 -8t7.5 -17z" />
    <glyph glyph-name="mu" unicode="&#xb5;" horiz-adv-x="1110" 
d="M279 836v-457q0 -31 5 -62.5t22.5 -73.5t45.5 -73.5t81 -53.5t122 -22t122 22t81 53.5t45.5 73.5t22.5 73.5t5 62.5v457q0 11 9.5 21.5t21.5 10.5h64q12 0 22 -10.5t10 -21.5v-449q0 -28 -2.5 -55.5t-12 -70t-25.5 -79t-46.5 -76t-71.5 -66.5t-104 -45t-141 -18
q-173 0 -276 89v-392q0 -11 -9.5 -21.5t-21.5 -10.5h-64q-12 0 -22 10.5t-10 21.5v1162q0 11 10 21.5t22 10.5h64q12 0 21.5 -10.5t9.5 -21.5z" />
    <glyph glyph-name="paragraph" unicode="&#xb6;" horiz-adv-x="1437" 
d="M580 1186h675q12 0 21.5 -11t9.5 -22v-1120q0 -11 -9.5 -22t-21.5 -11h-63q-12 0 -22.5 11t-10.5 22v1036h-379v-1036q0 -11 -9.5 -22t-20.5 -11h-64q-12 0 -22.5 11t-10.5 22v354q-10 0 -28.5 1t-70.5 8.5t-99 21.5t-105 43.5t-99.5 70t-70 106t-28.5 146.5
q0 82 23.5 148.5t61.5 107t83.5 70.5t91 44t83.5 22t61 9z" />
    <glyph glyph-name="periodcentered" unicode="&#xb7;" horiz-adv-x="458" 
d="M152 410q0 34 21.5 56.5t53.5 22.5q34 0 57 -22.5t23 -56.5q0 -32 -23 -55t-57 -23q-32 0 -53.5 22.5t-21.5 55.5z" />
    <glyph glyph-name="cedilla" unicode="&#xb8;" horiz-adv-x="573" 
d="M197 -156l20 140q6 16 21 16l67 -4q21 0 21 -23l-13 -84q4 -1 11.5 -3.5t26.5 -13.5t33 -25t26 -40t12 -57q0 -45 -17 -76.5t-45 -46t-53.5 -20.5t-52.5 -6q-53 0 -82 2q-20 4 -20 18v51q0 8 5.5 14.5t14.5 6.5q40 -4 57 -4q49 0 69.5 14t20.5 55q0 23 -23 39.5t-46 21.5
l-23 5l-12 2q-18 4 -18 18z" />
    <glyph glyph-name="onesuperior" unicode="&#xb9;" horiz-adv-x="540" 
d="M172 1151l104 31q8 4 23 4h74q6 0 11 -5.5t5 -11.5v-432q0 -6 -5 -11t-11 -5h-56q-6 0 -11 5t-5 11v359l-129 -33q-8 0 -14 5.5t-6 12.5v49q0 14 20 21z" />
    <glyph glyph-name="ordmasculine" unicode="&#xba;" horiz-adv-x="772" 
d="M385 1186q97 0 166.5 -68.5t69.5 -165.5q0 -95 -69.5 -164t-166.5 -69q-95 0 -164 69t-69 164q0 96 69 165t164 69zM385 840q45 0 79 34t34 78q0 47 -33.5 80t-79.5 33q-47 0 -80 -33t-33 -80q0 -45 33 -78.5t80 -33.5z" />
    <glyph glyph-name="guillemotright" unicode="&#xbb;" horiz-adv-x="1126" 
d="M975 408q0 -13 -6 -25l-199 -367q-10 -16 -22 -16h-68q-25 0 -25 27l195 356q6 12 6 25q0 12 -6 24l-195 356q0 27 25 27h68q12 0 22 -16l199 -367q6 -12 6 -24zM471 408q0 -13 -6 -25l-199 -367q-10 -16 -22 -16h-68q-24 0 -24 27l194 356q6 12 6 25q0 12 -6 24
l-194 356q0 27 24 27h68q12 0 22 -16l199 -367q6 -12 6 -24z" />
    <glyph glyph-name="onequarter" unicode="&#xbc;" horiz-adv-x="1376" 
d="M909 156h166v235zM301 23l645 1148q10 15 29 15h63q19 0 19 -23l-641 -1149q-9 -14 -29 -14h-68q-18 0 -18 23zM172 1151l104 31q8 4 23 4h74q6 0 11 -5.5t5 -11.5v-432q0 -6 -5 -11t-11 -5h-56q-6 0 -11 5t-5 11v359l-129 -33q-8 0 -14 5.5t-6 12.5v49q0 14 20 21z
M823 186l187 267q9 12 24 12h113q6 0 11 -5t5 -11v-293h45q6 0 11.5 -5.5t5.5 -11.5v-43q0 -6 -5.5 -11t-11.5 -5h-45v-64q0 -6 -5 -11t-11 -5h-55q-6 0 -11.5 5t-5.5 11v64h-239q-6 0 -11.5 5t-5.5 11v80q0 6 4 10z" />
    <glyph glyph-name="onehalf" unicode="&#xbd;" horiz-adv-x="1343" 
d="M301 23l645 1148q10 15 29 15h63q19 0 19 -23l-641 -1149q-9 -14 -29 -14h-68q-18 0 -18 23zM172 1151l104 31q8 4 23 4h74q6 0 11 -5.5t5 -11.5v-432q0 -6 -5 -11t-11 -5h-56q-6 0 -11 5t-5 11v359l-129 -33q-8 0 -14 5.5t-6 12.5v49q0 14 20 21zM840 342v14
q0 10 1.5 22t10 37t24 44t48.5 34t77 15q53 0 91 -16.5t55 -43t24 -50t7 -46.5q0 -61 -59 -136t-142 -140h199q6 0 11 -5.5t5 -11.5v-43q0 -6 -5 -11t-11 -5h-304q-6 0 -11 5t-5 11v50q0 11 8 16q76 60 125.5 108t69 79.5t25.5 49t6 33.5q0 32 -19.5 56t-69.5 24
q-26 0 -42.5 -9t-23 -25.5t-8 -27.5t-1.5 -28q0 -6 -5.5 -11t-11.5 -5h-53q-6 0 -11 5t-5 11z" />
    <glyph glyph-name="threequarters" unicode="&#xbe;" horiz-adv-x="1372" 
d="M905 156h166v235zM297 23l645 1148q10 15 29 15h63q19 0 19 -23l-641 -1149q-9 -14 -29 -14h-68q-18 0 -18 23zM819 186l187 267q9 12 24 12h113q6 0 11 -5t5 -11v-293h45q6 0 11.5 -5.5t5.5 -11.5v-43q0 -6 -5.5 -11t-11.5 -5h-45v-64q0 -6 -5 -11t-11 -5h-56
q-6 0 -11 5t-5 11v64h-240q-6 0 -11 5t-5 11v80q0 6 4 10zM307 782q33 0 53 14t24.5 27.5t4.5 26.5q0 24 -8 39t-24 20.5t-27.5 7t-30.5 1.5h-10q-6 0 -11.5 5t-5.5 11v45q0 6 5.5 11t11.5 5h10q19 0 30.5 1.5t27.5 7t24 20.5t8 39q0 13 -4.5 26t-24.5 27t-53 14
q-34 0 -49.5 -16.5t-17.5 -40.5q0 -6 -5.5 -11t-11.5 -5h-55q-6 0 -11 5t-5 11q2 52 38 92.5t119 40.5q52 0 87 -12.5t51.5 -35t23 -45t6.5 -50.5q0 -71 -71 -107q71 -36 71 -106q0 -28 -6.5 -50.5t-23 -45t-51.5 -35t-87 -12.5q-83 0 -119 40.5t-38 92.5q0 6 5 11t11 5h55
q6 0 11.5 -5t5.5 -11q2 -24 17.5 -41t49.5 -17z" />
    <glyph glyph-name="questiondown" unicode="&#xbf;" horiz-adv-x="1044" 
d="M573 1116q0 -34 -25.5 -59t-60.5 -25q-36 0 -62 25t-26 59q0 37 25.5 63.5t62.5 26.5q35 0 60.5 -26.5t25.5 -63.5zM539 813q-25 -45 -74.5 -107t-87.5 -108.5t-68 -113.5t-30 -134q0 -102 61.5 -167.5t189.5 -65.5q99 0 163.5 61.5t72.5 153.5q0 10 8 17t19 7h73
q11 0 19 -7t8 -17q-2 -23 -5.5 -46.5t-14 -57.5t-26 -63.5t-43 -61t-63 -53.5t-88 -36t-116.5 -14q-76 0 -138 17.5t-101 43.5t-68 62.5t-43.5 69t-23 69.5t-10 56.5t-1.5 37.5q0 66 29 134.5t63.5 116t88.5 117t81 110.5q9 12 24 12h70q12 0 21.5 -11t9.5 -22z" />
    <glyph glyph-name="Agrave" unicode="&#xc0;" 
d="M731 1159l436 -1128q0 -12 -9 -21.5t-21 -9.5h-74q-20 0 -27 20l-84 216h-671l-84 -216q-7 -20 -27 -20h-74q-12 0 -21 9.5t-9 21.5l436 1128q12 27 43 27h143q31 0 43 -27zM616 1100l-290 -748h581zM543 1305l-109 161q0 10 8 17.5t19 7.5h82q16 0 24 -16l88 -158
q0 -11 -7 -19t-19 -8h-62q-15 0 -24 15z" />
    <glyph glyph-name="Aacute" unicode="&#xc1;" 
d="M66 31l436 1128q12 27 43 27h143q31 0 43 -27l436 -1128q0 -12 -9 -21.5t-21 -9.5h-74q-20 0 -27 20l-84 216h-671l-84 -216q-7 -20 -27 -20h-74q-12 0 -21 9.5t-9 21.5zM907 352l-291 748l-290 -748h581zM799 1466l-109 -161q-9 -15 -24 -15h-62q-12 0 -19 8t-7 19
l88 158q8 16 24 16h82q12 0 19.5 -7.5t7.5 -17.5z" />
    <glyph glyph-name="Acircumflex" unicode="&#xc2;" 
d="M66 31l436 1128q12 27 43 27h143q31 0 43 -27l436 -1128q0 -12 -9 -21.5t-21 -9.5h-74q-20 0 -27 20l-84 216h-671l-84 -216q-7 -20 -27 -20h-74q-12 0 -21 9.5t-9 21.5zM907 352l-291 748l-290 -748h581zM561 1612h111q17 0 30 -21l175 -268q0 -12 -10 -22.5t-23 -10.5
h-68q-12 0 -26 21l-134 202l-133 -202q-14 -21 -26 -21h-68q-13 0 -23 10.5t-10 22.5l174 268q13 21 31 21z" />
    <glyph glyph-name="Atilde" unicode="&#xc3;" 
d="M731 1159l436 -1128q0 -12 -9 -21.5t-21 -9.5h-74q-20 0 -27 20l-84 216h-671l-84 -216q-7 -20 -27 -20h-74q-12 0 -21 9.5t-9 21.5l436 1128q12 27 43 27h143q31 0 43 -27zM616 1100l-290 -748h581zM801 1290q-62 0 -176.5 49.5t-167.5 49.5q-77 0 -92 -86
q-3 -15 -21 -15h-57q-25 0 -25 25q7 52 25 90.5t37 57t44 29.5t39 13t29 2q65 0 181.5 -49t162.5 -49q77 0 92 86q3 14 21 14h57q25 0 25 -24q-7 -52 -25 -90.5t-37 -57.5t-44 -30t-39.5 -13t-28.5 -2z" />
    <glyph glyph-name="Adieresis" unicode="&#xc4;" 
d="M731 1159l436 -1128q0 -12 -9 -21.5t-21 -9.5h-74q-20 0 -27 20l-84 216h-671l-84 -216q-7 -20 -27 -20h-74q-12 0 -21 9.5t-9 21.5l436 1128q12 27 43 27h143q31 0 43 -27zM616 1100l-290 -748h581zM389 1372q0 35 23.5 59.5t58.5 24.5t59.5 -24.5t24.5 -59.5
t-24.5 -58.5t-59.5 -23.5t-58.5 23.5t-23.5 58.5zM682 1372q0 35 23.5 59.5t58.5 24.5t59.5 -24.5t24.5 -59.5t-24.5 -58.5t-59.5 -23.5t-58.5 23.5t-23.5 58.5z" />
    <glyph glyph-name="Aring" unicode="&#xc5;" 
d="M66 31l436 1128q12 27 43 27h143q31 0 43 -27l436 -1128q0 -12 -9 -21.5t-21 -9.5h-74q-20 0 -27 20l-84 216h-671l-84 -216q-7 -20 -27 -20h-74q-12 0 -21 9.5t-9 21.5zM907 352l-291 748l-290 -748h581zM616 1757q97 0 166.5 -68.5t69.5 -164.5q0 -95 -69.5 -164.5
t-166.5 -69.5q-95 0 -164 69.5t-69 164.5q0 96 68.5 164.5t164.5 68.5zM616 1411q45 0 79 34t34 79q0 47 -33.5 79.5t-79.5 32.5q-47 0 -79.5 -32.5t-32.5 -79.5q0 -45 33 -79t79 -34z" />
    <glyph glyph-name="AE" unicode="&#xc6;" horiz-adv-x="1849" 
d="M967 403v666l-482 -666h482zM401 287l-194 -269q-12 -18 -33 -18h-102q-8 0 -13.5 5.5t-5.5 12.5q0 5 2 9l815 1132q20 27 50 27h778q11 0 22 -9.5t11 -21.5v-53q0 -12 -11 -22.5t-22 -10.5h-604v-432h557q11 0 21.5 -9.5t10.5 -21.5v-53q0 -12 -10.5 -22.5t-21.5 -10.5
h-557v-403h604q11 0 22 -9.5t11 -21.5v-53q0 -12 -11 -22.5t-22 -10.5h-699q-12 0 -22 11t-10 22v254h-566z" />
    <glyph glyph-name="Ccedilla" unicode="&#xc7;" horiz-adv-x="1423" 
d="M670 -156l18 138q-116 13 -219.5 66t-177.5 133.5t-117 187.5t-43 223q0 125 50 239t135 196t202 130.5t246 48.5q192 0 345 -98.5t220 -261.5q-3 -23 -24 -23h-91q-14 0 -20 13q-64 118 -177 186t-253 68q-135 0 -251 -64.5t-185.5 -179.5t-69.5 -254
q0 -133 69.5 -248.5t186 -182.5t250.5 -67q140 0 253 68t177 186q6 12 20 12h91q21 0 24 -22q-63 -156 -206 -252.5t-324 -105.5l-13 -91q4 -1 11.5 -3.5t26.5 -13.5t33 -25t26 -40t12 -57q0 -45 -17 -76.5t-45 -46t-53.5 -20.5t-52.5 -6q-53 0 -82 2q-20 4 -20 18v51
q0 8 5.5 14.5t14.5 6.5q40 -4 57 -4q49 0 70 14t21 55q0 23 -23.5 39.5t-46.5 21.5l-23 5l-12 2q-18 4 -18 18z" />
    <glyph glyph-name="Egrave" unicode="&#xc8;" horiz-adv-x="1034" 
d="M279 117h604q11 0 21.5 -10.5t10.5 -22.5v-53q0 -12 -10.5 -21.5t-21.5 -9.5h-699q-12 0 -22 11t-10 22v1120q0 11 10 22t22 11h699q11 0 21.5 -9.5t10.5 -21.5v-53q0 -12 -10.5 -22.5t-21.5 -10.5h-604v-432h557q11 0 21.5 -9.5t10.5 -21.5v-53q0 -12 -10.5 -22.5
t-21.5 -10.5h-557v-403zM489 1305l-108 161q0 10 7.5 17.5t19.5 7.5h81q17 0 25 -16l88 -158q0 -11 -7.5 -19t-19.5 -8h-61q-16 0 -25 15z" />
    <glyph glyph-name="Eacute" unicode="&#xc9;" horiz-adv-x="1034" 
d="M279 117h604q11 0 21.5 -10.5t10.5 -22.5v-53q0 -12 -10.5 -21.5t-21.5 -9.5h-699q-12 0 -22 11t-10 22v1120q0 11 10 22t22 11h699q11 0 21.5 -9.5t10.5 -21.5v-53q0 -12 -10.5 -22.5t-21.5 -10.5h-604v-432h557q11 0 21.5 -9.5t10.5 -21.5v-53q0 -12 -10.5 -22.5
t-21.5 -10.5h-557v-403zM705 1466l-109 -161q-9 -15 -25 -15h-61q-12 0 -19.5 8t-7.5 19l88 158q8 16 25 16h82q12 0 19.5 -7.5t7.5 -17.5z" />
    <glyph glyph-name="Ecircumflex" unicode="&#xca;" horiz-adv-x="1034" 
d="M279 117h604q11 0 21.5 -10.5t10.5 -22.5v-53q0 -12 -10.5 -21.5t-21.5 -9.5h-699q-12 0 -22 11t-10 22v1120q0 11 10 22t22 11h699q11 0 21.5 -9.5t10.5 -21.5v-53q0 -12 -10.5 -22.5t-21.5 -10.5h-604v-432h557q11 0 21.5 -9.5t10.5 -21.5v-53q0 -12 -10.5 -22.5
t-21.5 -10.5h-557v-403zM483 1612h111q18 0 31 -21l174 -268q0 -12 -10 -22.5t-23 -10.5h-68q-12 0 -26 21l-133 202l-133 -202q-14 -21 -27 -21h-68q-13 0 -22.5 10.5t-9.5 22.5l174 268q13 21 30 21z" />
    <glyph glyph-name="Edieresis" unicode="&#xcb;" horiz-adv-x="1034" 
d="M279 117h604q11 0 21.5 -10.5t10.5 -22.5v-53q0 -12 -10.5 -21.5t-21.5 -9.5h-699q-12 0 -22 11t-10 22v1120q0 11 10 22t22 11h699q11 0 21.5 -9.5t10.5 -21.5v-53q0 -12 -10.5 -22.5t-21.5 -10.5h-604v-432h557q11 0 21.5 -9.5t10.5 -21.5v-53q0 -12 -10.5 -22.5
t-21.5 -10.5h-557v-403zM297 1372q0 35 23.5 59.5t58.5 24.5t59.5 -24.5t24.5 -59.5t-24.5 -58.5t-59.5 -23.5t-58.5 23.5t-23.5 58.5zM590 1372q0 35 23.5 59.5t58.5 24.5t59.5 -24.5t24.5 -59.5t-24.5 -58.5t-59.5 -23.5t-58.5 23.5t-23.5 58.5z" />
    <glyph glyph-name="Igrave" unicode="&#xcc;" horiz-adv-x="430" 
d="M279 1153v-1120q0 -11 -9.5 -22t-21.5 -11h-64q-12 0 -22 11t-10 22v1120q0 11 10 22t22 11h64q12 0 21.5 -11t9.5 -22zM152 1305l-109 161q0 10 7.5 17.5t19.5 7.5h82q16 0 24 -16l88 -158q0 -11 -7 -19t-19 -8h-62q-15 0 -24 15z" />
    <glyph glyph-name="Iacute" unicode="&#xcd;" horiz-adv-x="430" 
d="M279 1153v-1120q0 -11 -9.5 -22t-21.5 -11h-64q-12 0 -22 11t-10 22v1120q0 11 10 22t22 11h64q12 0 21.5 -11t9.5 -22zM387 1466l-108 -161q-9 -15 -25 -15h-61q-12 0 -19.5 8t-7.5 19l88 158q8 16 25 16h81q12 0 19.5 -7.5t7.5 -17.5z" />
    <glyph glyph-name="Icircumflex" unicode="&#xce;" horiz-adv-x="430" 
d="M279 1153v-1120q0 -11 -9.5 -22t-21.5 -11h-64q-12 0 -22 11t-10 22v1120q0 11 10 22t22 11h64q12 0 21.5 -11t9.5 -22zM158 1612h110q18 0 31 -21l174 -268q0 -12 -10 -22.5t-23 -10.5h-67q-13 0 -27 21l-133 202l-133 -202q-14 -21 -27 -21h-67q-13 0 -23 10.5
t-10 22.5l174 268q13 21 31 21z" />
    <glyph glyph-name="Idieresis" unicode="&#xcf;" horiz-adv-x="430" 
d="M279 1153v-1120q0 -11 -9.5 -22t-21.5 -11h-64q-12 0 -22 11t-10 22v1120q0 11 10 22t22 11h64q12 0 21.5 -11t9.5 -22zM-14 1372q0 35 23.5 59.5t58.5 24.5t59.5 -24.5t24.5 -59.5t-24.5 -58.5t-59.5 -23.5t-58.5 23.5t-23.5 58.5zM279 1372q0 36 23 60t58 24
t59.5 -24.5t24.5 -59.5t-24.5 -58.5t-59.5 -23.5t-58 23.5t-23 58.5z" />
    <glyph glyph-name="Eth" unicode="&#xd0;" horiz-adv-x="1333" 
d="M643 1186q137 0 247.5 -45t183 -125t111 -188t38.5 -234q0 -127 -38.5 -235.5t-111 -188.5t-183 -125t-247.5 -45h-410q-12 0 -22 11t-10 22v495h-115q-11 0 -22 10.5t-11 22.5v53q0 12 11 21.5t22 9.5h115v508q0 11 10 22t22 11h410zM651 117q204 0 324.5 131t120.5 344
t-121 345t-324 132h-323v-424h180q11 0 22 -9.5t11 -21.5v-53q0 -12 -11 -22.5t-22 -10.5h-180v-411h323z" />
    <glyph glyph-name="Ntilde" unicode="&#xd1;" horiz-adv-x="1320" 
d="M1026 12l-747 983v-962q0 -11 -9.5 -22t-21.5 -11h-64q-12 0 -22 11t-10 22v1120q0 11 10 22t22 11h95q12 0 22 -12l741 -973v952q0 11 9.5 22t21.5 11h64q12 0 22 -11t10 -22v-1120q0 -11 -10 -22t-22 -11h-88q-13 0 -23 12zM852 1290q-62 0 -176.5 49.5t-167.5 49.5
q-77 0 -92 -86q-3 -15 -21 -15h-57q-25 0 -25 25q7 52 25 90.5t37 57t44 29.5t39 13t29 2q65 0 181.5 -49t162.5 -49q78 0 93 86q3 14 20 14h57q25 0 25 -24q-7 -52 -25 -90.5t-37 -57.5t-44 -30t-39.5 -13t-28.5 -2z" />
    <glyph glyph-name="Ograve" unicode="&#xd2;" horiz-adv-x="1515" 
d="M758 1206q171 0 315 -82t227.5 -223.5t83.5 -308.5t-83.5 -308.5t-227.5 -224t-315 -82.5t-315.5 82.5t-228 224t-83.5 308.5t83.5 308.5t228 223.5t315.5 82zM758 94q133 0 248 67t183 182.5t68 248.5q0 139 -68 254t-182.5 179.5t-248.5 64.5t-248.5 -64.5t-183 -179.5
t-68.5 -254q0 -100 40.5 -192t108 -159t160 -107t191.5 -40zM682 1305l-109 161q0 10 7.5 17.5t19.5 7.5h82q17 0 25 -16l88 -158q0 -11 -7.5 -19t-19.5 -8h-61q-16 0 -25 15z" />
    <glyph glyph-name="Oacute" unicode="&#xd3;" horiz-adv-x="1515" 
d="M758 1206q171 0 315 -82t227.5 -223.5t83.5 -308.5t-83.5 -308.5t-227.5 -224t-315 -82.5t-315.5 82.5t-228 224t-83.5 308.5t83.5 308.5t228 223.5t315.5 82zM758 94q133 0 248 67t183 182.5t68 248.5q0 139 -68 254t-182.5 179.5t-248.5 64.5t-248.5 -64.5t-183 -179.5
t-68.5 -254q0 -100 40.5 -192t108 -159t160 -107t191.5 -40zM936 1466l-109 -161q-9 -15 -24 -15h-62q-12 0 -19 8t-7 19l88 158q8 16 24 16h82q11 0 19 -7.5t8 -17.5z" />
    <glyph glyph-name="Ocircumflex" unicode="&#xd4;" horiz-adv-x="1515" 
d="M758 1206q171 0 315 -82t227.5 -223.5t83.5 -308.5t-83.5 -308.5t-227.5 -224t-315 -82.5t-315.5 82.5t-228 224t-83.5 308.5t83.5 308.5t228 223.5t315.5 82zM758 94q133 0 248 67t183 182.5t68 248.5q0 139 -68 254t-182.5 179.5t-248.5 64.5t-248.5 -64.5t-183 -179.5
t-68.5 -254q0 -100 40.5 -192t108 -159t160 -107t191.5 -40zM702 1612h111q18 0 31 -21l174 -268q0 -12 -10 -22.5t-23 -10.5h-67q-13 0 -27 21l-133 202l-133 -202q-14 -21 -27 -21h-68q-13 0 -22.5 10.5t-9.5 22.5l174 268q13 21 30 21z" />
    <glyph glyph-name="Otilde" unicode="&#xd5;" horiz-adv-x="1515" 
d="M758 1206q171 0 315 -82t227.5 -223.5t83.5 -308.5t-83.5 -308.5t-227.5 -224t-315 -82.5t-315.5 82.5t-228 224t-83.5 308.5t83.5 308.5t228 223.5t315.5 82zM758 94q133 0 248 67t183 182.5t68 248.5q0 139 -68 254t-182.5 179.5t-248.5 64.5t-248.5 -64.5t-183 -179.5
t-68.5 -254q0 -100 40.5 -192t108 -159t160 -107t191.5 -40zM938 1290q-62 0 -176.5 49.5t-167.5 49.5q-77 0 -92 -86q-3 -15 -21 -15h-57q-25 0 -25 25q7 52 25 90.5t37 57t44 29.5t39 13t29 2q65 0 182 -49t163 -49q77 0 92 86q3 14 20 14h57q25 0 25 -24
q-7 -52 -25 -90.5t-37 -57.5t-44 -30t-39.5 -13t-28.5 -2z" />
    <glyph glyph-name="Odieresis" unicode="&#xd6;" horiz-adv-x="1515" 
d="M758 1206q171 0 315 -82t227.5 -223.5t83.5 -308.5t-83.5 -308.5t-227.5 -224t-315 -82.5t-315.5 82.5t-228 224t-83.5 308.5t83.5 308.5t228 223.5t315.5 82zM758 94q133 0 248 67t183 182.5t68 248.5q0 139 -68 254t-182.5 179.5t-248.5 64.5t-248.5 -64.5t-183 -179.5
t-68.5 -254q0 -100 40.5 -192t108 -159t160 -107t191.5 -40zM532 1372q0 35 23.5 59.5t58.5 24.5t59.5 -24.5t24.5 -59.5t-24.5 -58.5t-59.5 -23.5t-58.5 23.5t-23.5 58.5zM825 1372q0 35 23.5 59.5t58.5 24.5t59.5 -24.5t24.5 -59.5t-24.5 -58.5t-59.5 -23.5t-58.5 23.5
t-23.5 58.5z" />
    <glyph glyph-name="multiply" unicode="&#xd7;" horiz-adv-x="831" 
d="M416 303l-178 -170q-6 -6 -19 -6q-6 0 -18 8l-43 43q-6 6 -6 19q0 7 6 16l178 178l-178 178q-6 9 -6 17q0 12 6 18l43 43q12 8 18 8q13 0 19 -6l178 -170l178 170q6 6 18 6q7 0 19 -8l43 -43q6 -6 6 -18q0 -8 -6 -17l-178 -178l178 -178q6 -9 6 -16q0 -13 -6 -19l-43 -43
q-12 -8 -19 -8q-12 0 -18 6z" />
    <glyph glyph-name="Oslash" unicode="&#xd8;" horiz-adv-x="1515" 
d="M391 -158l80 201q-155 78 -247.5 225t-92.5 324q0 167 83.5 308.5t228 223.5t315.5 82q90 0 170 -24l67 168q8 20 25 20h82q12 0 20 -9t8 -20l-81 -204q153 -78 244 -223.5t91 -321.5q0 -167 -83.5 -308.5t-227.5 -224t-315 -82.5q-79 0 -166 23l-66 -166q-8 -20 -24 -20
h-82q-12 0 -20.5 8.5t-8.5 19.5zM258 592q0 -137 70.5 -252.5t187.5 -181.5l369 915q-70 17 -127 17q-134 0 -248.5 -64.5t-183 -179.5t-68.5 -254zM758 94q133 0 248 67t183 182.5t68 248.5q0 140 -69 255t-184 179l-367 -917q59 -15 121 -15z" />
    <glyph glyph-name="Ugrave" unicode="&#xd9;" horiz-adv-x="1228" 
d="M614 -23q-16 0 -35 1t-69 10.5t-94 26t-97 52t-91 83.5t-63.5 126t-25.5 175v702q0 11 10.5 22t22.5 11h64q11 0 20.5 -11t9.5 -22v-702q0 -18 1.5 -38t9.5 -57t21 -69.5t39 -69.5t61.5 -63t91.5 -43t124 -17t124 17t91.5 43t62 63t39.5 69.5t21 69.5t9.5 57t1.5 38v702
q0 11 9.5 22t20.5 11h64q12 0 22.5 -11t10.5 -22v-702q0 -97 -26 -175t-63.5 -126t-91 -83.5t-97 -52t-94 -26t-69.5 -10.5t-35 -1zM543 1305l-109 161q0 10 8 17.5t19 7.5h82q16 0 24 -16l88 -158q0 -11 -7 -19t-19 -8h-62q-15 0 -24 15z" />
    <glyph glyph-name="Uacute" unicode="&#xda;" horiz-adv-x="1228" 
d="M614 -23q-16 0 -35 1t-69 10.5t-94 26t-97 52t-91 83.5t-63.5 126t-25.5 175v702q0 11 10.5 22t22.5 11h64q11 0 20.5 -11t9.5 -22v-702q0 -18 1.5 -38t9.5 -57t21 -69.5t39 -69.5t61.5 -63t91.5 -43t124 -17t124 17t91.5 43t62 63t39.5 69.5t21 69.5t9.5 57t1.5 38v702
q0 11 9.5 22t20.5 11h64q12 0 22.5 -11t10.5 -22v-702q0 -97 -26 -175t-63.5 -126t-91 -83.5t-97 -52t-94 -26t-69.5 -10.5t-35 -1zM797 1466l-109 -161q-9 -15 -24 -15h-62q-12 0 -19.5 8t-7.5 19l89 158q8 16 24 16h82q12 0 19.5 -7.5t7.5 -17.5z" />
    <glyph glyph-name="Ucircumflex" unicode="&#xdb;" horiz-adv-x="1228" 
d="M614 -23q-16 0 -35 1t-69 10.5t-94 26t-97 52t-91 83.5t-63.5 126t-25.5 175v702q0 11 10.5 22t22.5 11h64q11 0 20.5 -11t9.5 -22v-702q0 -18 1.5 -38t9.5 -57t21 -69.5t39 -69.5t61.5 -63t91.5 -43t124 -17t124 17t91.5 43t62 63t39.5 69.5t21 69.5t9.5 57t1.5 38v702
q0 11 9.5 22t20.5 11h64q12 0 22.5 -11t10.5 -22v-702q0 -97 -26 -175t-63.5 -126t-91 -83.5t-97 -52t-94 -26t-69.5 -10.5t-35 -1zM561 1612h111q17 0 30 -21l175 -268q0 -12 -10 -22.5t-23 -10.5h-68q-12 0 -26 21l-134 202l-133 -202q-14 -21 -26 -21h-68q-13 0 -23 10.5
t-10 22.5l174 268q13 21 31 21z" />
    <glyph glyph-name="Udieresis" unicode="&#xdc;" horiz-adv-x="1228" 
d="M614 -23q-16 0 -35 1t-69 10.5t-94 26t-97 52t-91 83.5t-63.5 126t-25.5 175v702q0 11 10.5 22t22.5 11h64q11 0 20.5 -11t9.5 -22v-702q0 -18 1.5 -38t9.5 -57t21 -69.5t39 -69.5t61.5 -63t91.5 -43t124 -17t124 17t91.5 43t62 63t39.5 69.5t21 69.5t9.5 57t1.5 38v702
q0 11 9.5 22t20.5 11h64q12 0 22.5 -11t10.5 -22v-702q0 -97 -26 -175t-63.5 -126t-91 -83.5t-97 -52t-94 -26t-69.5 -10.5t-35 -1zM389 1372q0 35 23.5 59.5t58.5 24.5t59.5 -24.5t24.5 -59.5t-24.5 -58.5t-59.5 -23.5t-58.5 23.5t-23.5 58.5zM682 1372q0 35 23.5 59.5
t58.5 24.5t59.5 -24.5t24.5 -59.5t-24.5 -58.5t-59.5 -23.5t-58.5 23.5t-23.5 58.5z" />
    <glyph glyph-name="Yacute" unicode="&#xdd;" horiz-adv-x="1085" 
d="M606 399v-366q0 -11 -9.5 -22t-21.5 -11h-63q-12 0 -22.5 11t-10.5 22v366l-413 756q0 12 9 21.5t21 9.5h80q16 0 27 -21l340 -616l340 616q11 21 26 21h80q12 0 21.5 -9.5t9.5 -21.5zM731 1466l-108 -161q-9 -15 -25 -15h-61q-12 0 -19.5 8t-7.5 19l88 158q8 16 25 16
h82q11 0 18.5 -7.5t7.5 -17.5z" />
    <glyph glyph-name="Thorn" unicode="&#xde;" horiz-adv-x="1093" 
d="M279 1153v-172h323q22 0 43 -1t66.5 -9t83 -22.5t82 -44.5t75 -71t51.5 -107t21 -148t-21 -148.5t-51.5 -107.5t-75 -71.5t-82 -45t-83 -23t-66.5 -9.5t-43 -1h-323v-139q0 -11 -9.5 -22t-21.5 -11h-64q-12 0 -22 11t-10 22v1120q0 11 10 22t22 11h64q12 0 21.5 -11
t9.5 -22zM897 575q0 151 -77.5 220t-209.5 69h-331v-575h331q132 0 209.5 68t77.5 218z" />
    <glyph glyph-name="germandbls" unicode="&#xdf;" horiz-adv-x="1142" 
d="M584 119h59q128 0 192 45t64 168t-64.5 171t-191.5 48h-65q-11 0 -22 10.5t-11 22.5v53q0 12 11 21.5t22 9.5h55q4 0 12 0.5t30 4t42 10.5t44.5 21.5t42.5 34.5t30 52.5t12 72.5q0 42 -11.5 76.5t-30.5 55t-41.5 36t-45.5 22.5t-42 10.5t-31 3.5l-11 1h-139
q-44 0 -79.5 -11.5t-57.5 -28t-38 -42.5t-23.5 -46.5t-11.5 -48.5t-4.5 -40.5t-0.5 -30.5v-788q0 -11 -9.5 -22t-21.5 -11h-64q-12 0 -22 11t-10 22v788q0 169 94 267t276 98h101q31 0 67 -4.5t89 -23t94 -48t70.5 -87.5t29.5 -134q0 -109 -43.5 -181t-118.5 -87
q117 -27 169 -97t52 -194q0 -83 -22 -143.5t-58.5 -96t-94.5 -56t-118 -27.5t-141 -7h-14q-11 0 -22 10.5t-11 22.5v55q0 12 11 21.5t22 9.5z" />
    <glyph glyph-name="agrave" unicode="&#xe0;" 
d="M954 743v93q0 11 9.5 21.5t21.5 10.5h64q12 0 22 -10.5t10 -21.5v-809q-3 -11 -12.5 -19t-19.5 -8h-64q-10 0 -19 8t-12 19v98q-56 -52 -111 -84.5t-106 -45t-79.5 -15.5t-69.5 -3q-212 0 -344.5 132t-132.5 325t132.5 325t344.5 132q41 0 69.5 -3t79.5 -15.5t106 -45
t111 -84.5zM238 434q0 -148 103.5 -244t252.5 -96q152 0 256 96t104 244t-104 244t-256 96q-149 0 -252.5 -96t-103.5 -244zM514 999l-108 162q0 10 7.5 17.5t18.5 7.5h82q16 0 25 -17l88 -157q0 -11 -7.5 -19t-19.5 -8h-61q-17 0 -25 14z" />
    <glyph glyph-name="aacute" unicode="&#xe1;" 
d="M954 743v93q0 11 9.5 21.5t21.5 10.5h64q12 0 22 -10.5t10 -21.5v-809q-3 -11 -12.5 -19t-19.5 -8h-64q-10 0 -19 8t-12 19v98q-56 -52 -111 -84.5t-106 -45t-79.5 -15.5t-69.5 -3q-212 0 -344.5 132t-132.5 325t132.5 325t344.5 132q41 0 69.5 -3t79.5 -15.5t106 -45
t111 -84.5zM238 434q0 -148 103.5 -244t252.5 -96q152 0 256 96t104 244t-104 244t-256 96q-149 0 -252.5 -96t-103.5 -244zM774 1161l-108 -162q-8 -14 -25 -14h-61q-12 0 -19.5 8t-7.5 19l88 157q9 17 25 17h82q11 0 18.5 -7.5t7.5 -17.5z" />
    <glyph glyph-name="acircumflex" unicode="&#xe2;" 
d="M954 743v93q0 11 9.5 21.5t21.5 10.5h64q12 0 22 -10.5t10 -21.5v-809q-3 -11 -12.5 -19t-19.5 -8h-64q-10 0 -19 8t-12 19v98q-56 -52 -111 -84.5t-106 -45t-79.5 -15.5t-69.5 -3q-212 0 -344.5 132t-132.5 325t132.5 325t344.5 132q41 0 69.5 -3t79.5 -15.5t106 -45
t111 -84.5zM238 434q0 -148 103.5 -244t252.5 -96q152 0 256 96t104 244t-104 244t-256 96q-149 0 -252.5 -96t-103.5 -244zM537 1307h110q18 0 31 -21l174 -268q0 -12 -10 -22.5t-23 -10.5h-67q-13 0 -27 21l-133 202l-133 -202q-14 -21 -27 -21h-67q-13 0 -23 10.5
t-10 22.5l174 268q13 21 31 21z" />
    <glyph glyph-name="atilde" unicode="&#xe3;" 
d="M954 743v93q0 11 9.5 21.5t21.5 10.5h64q12 0 22 -10.5t10 -21.5v-809q-3 -11 -12.5 -19t-19.5 -8h-64q-10 0 -19 8t-12 19v98q-56 -52 -111 -84.5t-106 -45t-79.5 -15.5t-69.5 -3q-212 0 -344.5 132t-132.5 325t132.5 325t344.5 132q41 0 69.5 -3t79.5 -15.5t106 -45
t111 -84.5zM238 434q0 -148 103.5 -244t252.5 -96q152 0 256 96t104 244t-104 244t-256 96q-149 0 -252.5 -96t-103.5 -244zM762 985q-62 0 -176.5 49t-167.5 49q-77 0 -92 -86q-3 -14 -21 -14h-57q-25 0 -25 25q7 52 25 90.5t37 57t44 29.5t39 13t29 2q65 0 181.5 -49
t162.5 -49q78 0 93 86q3 14 20 14h57q25 0 25 -24q-7 -52 -25 -90.5t-37 -57.5t-44 -30t-39.5 -13t-28.5 -2z" />
    <glyph glyph-name="adieresis" unicode="&#xe4;" 
d="M954 743v93q0 11 9.5 21.5t21.5 10.5h64q12 0 22 -10.5t10 -21.5v-809q-3 -11 -12.5 -19t-19.5 -8h-64q-10 0 -19 8t-12 19v98q-56 -52 -111 -84.5t-106 -45t-79.5 -15.5t-69.5 -3q-212 0 -344.5 132t-132.5 325t132.5 325t344.5 132q41 0 69.5 -3t79.5 -15.5t106 -45
t111 -84.5zM238 434q0 -148 103.5 -244t252.5 -96q152 0 256 96t104 244t-104 244t-256 96q-149 0 -252.5 -96t-103.5 -244zM367 1067q0 35 23.5 59.5t58.5 24.5t59 -24.5t24 -59.5t-24 -58.5t-59 -23.5t-58.5 23.5t-23.5 58.5zM659 1067q0 35 23.5 59.5t58.5 24.5
t59.5 -24.5t24.5 -59.5t-24.5 -58.5t-59.5 -23.5t-58.5 23.5t-23.5 58.5z" />
    <glyph glyph-name="aring" unicode="&#xe5;" 
d="M954 743v93q0 11 9.5 21.5t21.5 10.5h64q12 0 22 -10.5t10 -21.5v-809q-3 -11 -12.5 -19t-19.5 -8h-64q-10 0 -19 8t-12 19v98q-56 -52 -111 -84.5t-106 -45t-79.5 -15.5t-69.5 -3q-212 0 -344.5 132t-132.5 325t132.5 325t344.5 132q41 0 69.5 -3t79.5 -15.5t106 -45
t111 -84.5zM238 434q0 -148 103.5 -244t252.5 -96q152 0 256 96t104 244t-104 244t-256 96q-149 0 -252.5 -96t-103.5 -244zM604 1452q97 0 166.5 -68.5t69.5 -164.5q0 -95 -69.5 -164.5t-166.5 -69.5q-95 0 -164 69.5t-69 164.5q0 96 68.5 164.5t164.5 68.5zM604 1106
q45 0 79 34t34 79q0 47 -33.5 79.5t-79.5 32.5q-47 0 -79.5 -32.5t-32.5 -79.5q0 -45 33 -79t79 -34z" />
    <glyph glyph-name="ae" unicode="&#xe6;" horiz-adv-x="1744" 
d="M504 94q34 0 72 7t80.5 23.5t70 50t27.5 79.5q0 35 -12 63t-29.5 45.5t-46.5 30t-52 18.5t-58 9t-52.5 3.5t-46.5 0.5q-16 0 -29 -1t-42 -5t-50.5 -15.5t-44 -29t-35 -48.5t-12.5 -71q0 -33 11 -59t26.5 -42.5t41 -28.5t46 -17.5t50.5 -8.5t45.5 -3.5t39.5 -0.5z
M1202 774q-66 0 -132.5 -28.5t-121.5 -94t-69 -155.5h645q-10 68 -44.5 123t-81 88t-97 50t-99.5 17zM207 838q127 53 256 53q52 0 95 -6.5t93.5 -25.5t96.5 -59t83 -100q60 90 156 141.5t215 51.5q195 0 322 -133.5t127 -325.5v-18q0 -11 -9.5 -22t-21.5 -11h-741
q11 -65 37.5 -116.5t61 -83t77.5 -52.5t82.5 -29t79.5 -8q92 0 198 35q8 4 17 4q10 0 18 -14l33 -53q4 -6 4 -17q0 -21 -19 -29q-148 -43 -254 -43q-117 0 -214.5 46t-159.5 129q-86 -175 -373 -175q-162 0 -256 68.5t-94 208.5q0 93 47 160t119.5 97t160.5 30
q189 0 291 -45q0 156 -72 217t-235 61q-99 0 -180 -37q-4 -2 -8 -2q-9 0 -17.5 6.5t-11.5 14.5l-14 37q-4 12 -4 18q0 21 14 27z" />
    <glyph glyph-name="ccedilla" unicode="&#xe7;" horiz-adv-x="1085" 
d="M477 -156l19 140q-175 26 -280 151.5t-105 298.5q0 193 130.5 325t338.5 132q145 0 254 -64t161 -186q-3 -23 -24 -23h-80q-15 0 -21 13q-40 71 -119 107t-176 36q-148 0 -242.5 -95.5t-94.5 -244.5t94.5 -244.5t242.5 -95.5q97 0 176 36.5t119 107.5q6 12 21 12h80
q21 0 24 -23q-50 -117 -151.5 -180.5t-237.5 -69.5l-12 -88q4 -1 11.5 -3.5t26 -13.5t33 -25t26 -40t11.5 -57q0 -45 -17 -76.5t-44.5 -46t-53 -20.5t-52.5 -6q-53 0 -82 2q-21 4 -21 18v51q0 8 6 14.5t15 6.5q40 -4 57 -4q49 0 69.5 14t20.5 55q0 23 -23 39.5t-46 21.5
l-23 5l-12 2q-19 4 -19 18z" />
    <glyph glyph-name="egrave" unicode="&#xe8;" horiz-adv-x="1103" 
d="M561 774q-66 0 -132.5 -28.5t-121.5 -94t-69 -155.5h645q-10 68 -44.5 123t-81 88t-97 50t-99.5 17zM1010 434v-18q0 -11 -9.5 -22t-21.5 -11h-741q11 -65 37.5 -116.5t61 -83t77 -52.5t82 -29t79.5 -8q93 0 199 35q8 4 17 4q10 0 18 -14l33 -53q4 -6 4 -17
q0 -21 -19 -29q-148 -43 -254 -43q-199 0 -330.5 127t-131.5 330q0 192 127.5 325.5t322.5 133.5t322 -133.5t127 -325.5zM500 999l-109 162q0 9 7.5 17t19.5 8h82q16 0 24 -17l88 -157q0 -11 -7 -19t-19 -8h-62q-16 0 -24 14z" />
    <glyph glyph-name="eacute" unicode="&#xe9;" horiz-adv-x="1103" 
d="M561 774q-66 0 -132.5 -28.5t-121.5 -94t-69 -155.5h645q-10 68 -44.5 123t-81 88t-97 50t-99.5 17zM1010 434v-18q0 -11 -9.5 -22t-21.5 -11h-741q11 -65 37.5 -116.5t61 -83t77 -52.5t82 -29t79.5 -8q93 0 199 35q8 4 17 4q10 0 18 -14l33 -53q4 -6 4 -17
q0 -21 -19 -29q-148 -43 -254 -43q-199 0 -330.5 127t-131.5 330q0 192 127.5 325.5t322.5 133.5t322 -133.5t127 -325.5zM729 1161l-108 -162q-8 -14 -25 -14h-61q-12 0 -19.5 8t-7.5 19l88 157q8 17 25 17h81q12 0 19.5 -8t7.5 -17z" />
    <glyph glyph-name="ecircumflex" unicode="&#xea;" horiz-adv-x="1103" 
d="M561 774q-66 0 -132.5 -28.5t-121.5 -94t-69 -155.5h645q-10 68 -44.5 123t-81 88t-97 50t-99.5 17zM1010 434v-18q0 -11 -9.5 -22t-21.5 -11h-741q11 -65 37.5 -116.5t61 -83t77 -52.5t82 -29t79.5 -8q93 0 199 35q8 4 17 4q10 0 18 -14l33 -53q4 -6 4 -17
q0 -21 -19 -29q-148 -43 -254 -43q-199 0 -330.5 127t-131.5 330q0 192 127.5 325.5t322.5 133.5t322 -133.5t127 -325.5zM514 1307h111q17 0 30 -21l174 -268q0 -12 -9.5 -22.5t-22.5 -10.5h-68q-13 0 -27 21l-133 202l-133 -202q-14 -21 -26 -21h-68q-13 0 -23 10.5
t-10 22.5l174 268q13 21 31 21z" />
    <glyph glyph-name="edieresis" unicode="&#xeb;" horiz-adv-x="1103" 
d="M561 774q-66 0 -132.5 -28.5t-121.5 -94t-69 -155.5h645q-10 68 -44.5 123t-81 88t-97 50t-99.5 17zM1010 434v-18q0 -11 -9.5 -22t-21.5 -11h-741q11 -65 37.5 -116.5t61 -83t77 -52.5t82 -29t79.5 -8q93 0 199 35q8 4 17 4q10 0 18 -14l33 -53q4 -6 4 -17
q0 -21 -19 -29q-148 -43 -254 -43q-199 0 -330.5 127t-131.5 330q0 192 127.5 325.5t322.5 133.5t322 -133.5t127 -325.5zM324 1067q0 35 23.5 59.5t58.5 24.5t59 -24.5t24 -59.5t-24 -58.5t-59 -23.5t-58.5 23.5t-23.5 58.5zM616 1067q0 35 23.5 59.5t58.5 24.5t59.5 -24.5
t24.5 -59.5t-24.5 -58.5t-59.5 -23.5t-58.5 23.5t-23.5 58.5z" />
    <glyph glyph-name="igrave" unicode="&#xec;" horiz-adv-x="430" 
d="M279 836v-803q0 -11 -9.5 -22t-21.5 -11h-64q-12 0 -22 11t-10 22v803q0 11 10 21.5t22 10.5h64q12 0 21.5 -10.5t9.5 -21.5zM150 999l-109 162q0 9 7.5 17t19.5 8h82q16 0 24 -17l88 -157q0 -11 -7 -19t-19 -8h-62q-16 0 -24 14z" />
    <glyph glyph-name="iacute" unicode="&#xed;" horiz-adv-x="430" 
d="M152 33v803q0 11 9 21.5t21 10.5h64q12 0 22.5 -10.5t10.5 -21.5v-803q0 -11 -10.5 -22t-22.5 -11h-64q-11 0 -20.5 11t-9.5 22zM389 1161l-108 -162q-8 -14 -25 -14h-61q-12 0 -19.5 8t-7.5 19l88 157q8 17 25 17h81q12 0 19.5 -8t7.5 -17z" />
    <glyph glyph-name="icircumflex" unicode="&#xee;" horiz-adv-x="430" 
d="M279 836v-803q0 -11 -9.5 -22t-21.5 -11h-64q-12 0 -22 11t-10 22v803q0 11 10 21.5t22 10.5h64q12 0 21.5 -10.5t9.5 -21.5zM158 1307h110q18 0 31 -21l174 -268q0 -12 -10 -22.5t-23 -10.5h-67q-13 0 -27 21l-133 202l-133 -202q-14 -21 -27 -21h-67q-13 0 -23 10.5
t-10 22.5l174 268q13 21 31 21z" />
    <glyph glyph-name="idieresis" unicode="&#xef;" horiz-adv-x="430" 
d="M279 836v-803q0 -11 -9.5 -22t-21.5 -11h-64q-12 0 -22 11t-10 22v803q0 11 10 21.5t22 10.5h64q12 0 21.5 -10.5t9.5 -21.5zM-14 1067q0 35 23.5 59.5t58.5 24.5t59.5 -24.5t24.5 -59.5t-24.5 -58.5t-59.5 -23.5t-58.5 23.5t-23.5 58.5zM279 1067q0 36 23 60t58 24
t59.5 -24.5t24.5 -59.5t-24.5 -58.5t-59.5 -23.5t-58 23.5t-23 58.5z" />
    <glyph glyph-name="eth" unicode="&#xf0;" horiz-adv-x="1052" 
d="M719 928h-187l-108 -174q32 12 113 12q186 0 295.5 -112.5t109.5 -286.5q0 -177 -119 -283.5t-297 -106.5q-179 0 -297 106.5t-118 283.5q0 124 84 260l188 301h-107q-11 0 -21.5 10.5t-10.5 22.5v53q0 12 10.5 21t21.5 9h181l82 130q10 10 24 10h80q12 0 21.5 -10
t9.5 -21l-68 -109h113q11 0 22 -9.5t11 -20.5v-53q0 -12 -11 -22.5t-22 -10.5zM524 94q129 0 210 75.5t81 199.5q0 127 -81.5 203.5t-209.5 76.5q-124 0 -205 -76.5t-81 -203.5q0 -123 80 -199t206 -76z" />
    <glyph glyph-name="ntilde" unicode="&#xf1;" horiz-adv-x="1089" 
d="M279 836v-103q111 158 323 158q70 0 127 -18.5t92.5 -47t63 -66.5t41 -72.5t21.5 -71t9.5 -55t1.5 -30.5v-497q0 -11 -9.5 -22t-20.5 -11h-64q-12 0 -22.5 11t-10.5 22v456q0 285 -245 285q-61 0 -113.5 -22t-87 -55.5t-59.5 -74t-36 -77.5t-11 -66v-446q0 -11 -9.5 -22
t-21.5 -11h-64q-12 0 -22 11t-10 22v803q0 11 10 21.5t22 10.5h64q12 0 21.5 -10.5t9.5 -21.5zM731 985q-62 0 -176.5 49t-167.5 49q-77 0 -92 -86q-3 -14 -21 -14h-57q-24 0 -24 25q7 52 25 90.5t37 57t44 29.5t39 13t29 2q65 0 181.5 -49t162.5 -49q77 0 92 86q3 14 20 14
h58q24 0 24 -24q-7 -52 -25 -90.5t-37 -57.5t-44 -30t-39.5 -13t-28.5 -2z" />
    <glyph glyph-name="ograve" unicode="&#xf2;" horiz-adv-x="1171" 
d="M586 891q131 0 240.5 -61.5t172 -166.5t62.5 -229t-62.5 -229t-172 -166.5t-240.5 -61.5t-240.5 61.5t-172 166.5t-62.5 229t62.5 229t172 166.5t240.5 61.5zM586 774q-147 0 -247.5 -96.5t-100.5 -243.5t100.5 -243.5t247.5 -96.5t247.5 96.5t100.5 243.5t-100.5 243.5
t-247.5 96.5zM512 999l-109 162q0 9 7.5 17t19.5 8h82q16 0 25 -17l88 -157q0 -11 -7.5 -19t-19.5 -8h-61q-17 0 -25 14z" />
    <glyph glyph-name="oacute" unicode="&#xf3;" horiz-adv-x="1171" 
d="M586 891q131 0 240.5 -61.5t172 -166.5t62.5 -229t-62.5 -229t-172 -166.5t-240.5 -61.5t-240.5 61.5t-172 166.5t-62.5 229t62.5 229t172 166.5t240.5 61.5zM586 774q-147 0 -247.5 -96.5t-100.5 -243.5t100.5 -243.5t247.5 -96.5t247.5 96.5t100.5 243.5t-100.5 243.5
t-247.5 96.5zM772 1161l-108 -162q-8 -14 -25 -14h-61q-12 0 -19.5 8t-7.5 19l88 157q9 17 25 17h81q11 0 19 -8t8 -17z" />
    <glyph glyph-name="ocircumflex" unicode="&#xf4;" horiz-adv-x="1171" 
d="M586 891q131 0 240.5 -61.5t172 -166.5t62.5 -229t-62.5 -229t-172 -166.5t-240.5 -61.5t-240.5 61.5t-172 166.5t-62.5 229t62.5 229t172 166.5t240.5 61.5zM586 774q-147 0 -247.5 -96.5t-100.5 -243.5t100.5 -243.5t247.5 -96.5t247.5 96.5t100.5 243.5t-100.5 243.5
t-247.5 96.5zM530 1307h111q18 0 31 -21l174 -268q0 -12 -10 -22.5t-23 -10.5h-68q-12 0 -26 21l-133 202l-133 -202q-14 -21 -27 -21h-68q-13 0 -22.5 10.5t-9.5 22.5l174 268q13 21 30 21z" />
    <glyph glyph-name="otilde" unicode="&#xf5;" horiz-adv-x="1171" 
d="M586 891q131 0 240.5 -61.5t172 -166.5t62.5 -229t-62.5 -229t-172 -166.5t-240.5 -61.5t-240.5 61.5t-172 166.5t-62.5 229t62.5 229t172 166.5t240.5 61.5zM586 774q-147 0 -247.5 -96.5t-100.5 -243.5t100.5 -243.5t247.5 -96.5t247.5 96.5t100.5 243.5t-100.5 243.5
t-247.5 96.5zM772 985q-62 0 -176.5 49t-167.5 49q-77 0 -92 -86q-3 -14 -21 -14h-57q-25 0 -25 25q7 52 25 90.5t37.5 57t44.5 29.5t39 13t29 2q65 0 181.5 -49t162.5 -49q77 0 92 86q3 14 20 14h58q24 0 24 -24q-7 -52 -25 -90.5t-37 -57.5t-44 -30t-39.5 -13t-28.5 -2z
" />
    <glyph glyph-name="odieresis" unicode="&#xf6;" horiz-adv-x="1171" 
d="M586 891q131 0 240.5 -61.5t172 -166.5t62.5 -229t-62.5 -229t-172 -166.5t-240.5 -61.5t-240.5 61.5t-172 166.5t-62.5 229t62.5 229t172 166.5t240.5 61.5zM586 774q-147 0 -247.5 -96.5t-100.5 -243.5t100.5 -243.5t247.5 -96.5t247.5 96.5t100.5 243.5t-100.5 243.5
t-247.5 96.5zM356 1067q0 35 23.5 59.5t58.5 24.5t59.5 -24.5t24.5 -59.5t-24.5 -58.5t-59.5 -23.5t-58.5 23.5t-23.5 58.5zM649 1067q0 35 23.5 59.5t58.5 24.5t59.5 -24.5t24.5 -59.5t-24.5 -58.5t-59.5 -23.5t-58.5 23.5t-23.5 58.5z" />
    <glyph glyph-name="divide" unicode="&#xf7;" horiz-adv-x="829" 
d="M645 289h-461q-11 0 -21.5 10.5t-10.5 22.5v53q0 12 10.5 21.5t21.5 9.5h461q11 0 22 -9.5t11 -21.5v-53q0 -12 -11 -22.5t-22 -10.5zM346 45q0 29 19.5 49.5t48.5 20.5t49 -20.5t20 -49.5t-20 -48.5t-49 -19.5t-48.5 19.5t-19.5 48.5zM346 647q0 29 19.5 49.5t48.5 20.5
t49 -20.5t20 -49.5t-20 -48t-49 -19t-48.5 19t-19.5 48z" />
    <glyph glyph-name="oslash" unicode="&#xf8;" horiz-adv-x="1171" 
d="M252 -166l84 209q-104 61 -164.5 164.5t-60.5 226.5q0 124 62.5 229t172 166.5t240.5 61.5q30 0 92 -8l63 153q3 8 10.5 14.5t14.5 6.5h82q12 0 20.5 -9t8.5 -20l-76 -186q119 -58 189.5 -167t70.5 -241q0 -124 -62.5 -229t-172 -166.5t-240.5 -61.5q-66 0 -131 19
l-68 -170q-3 -8 -10.5 -14.5t-14.5 -6.5h-81q-12 0 -20.5 9t-8.5 20zM934 434q0 98 -48.5 176.5t-129.5 122.5l-256 -631q36 -8 86 -8q147 0 247.5 96.5t100.5 243.5zM586 774q-147 0 -247.5 -96.5t-100.5 -243.5q0 -88 38.5 -160t104.5 -118l252 614q-32 4 -47 4z" />
    <glyph glyph-name="ugrave" unicode="&#xf9;" horiz-adv-x="1089" 
d="M545 -23q-78 0 -141 18t-104 45.5t-72 66.5t-47 75.5t-25.5 79t-12 70t-2.5 55.5v449q0 11 10.5 21.5t22.5 10.5h64q12 0 21 -10.5t9 -21.5v-457q0 -31 5 -62.5t22.5 -73.5t46 -73.5t81.5 -53.5t122 -22t122 22t81 53.5t45.5 73.5t22.5 73.5t5 62.5v457q0 11 9.5 21.5
t21.5 10.5h63q12 0 22.5 -10.5t10.5 -21.5v-449q0 -28 -2.5 -55.5t-12 -70t-25.5 -79t-46.5 -76t-71.5 -66.5t-104 -45t-141 -18zM473 999l-108 162q0 10 7.5 17.5t18.5 7.5h82q17 0 25 -17l88 -157q0 -11 -7.5 -19t-19.5 -8h-61q-17 0 -25 14z" />
    <glyph glyph-name="uacute" unicode="&#xfa;" horiz-adv-x="1089" 
d="M545 -23q-78 0 -141 18t-104 45.5t-72 66.5t-47 75.5t-25.5 79t-12 70t-2.5 55.5v449q0 11 10.5 21.5t22.5 10.5h64q12 0 21 -10.5t9 -21.5v-457q0 -31 5 -62.5t22.5 -73.5t46 -73.5t81.5 -53.5t122 -22t122 22t81 53.5t45.5 73.5t22.5 73.5t5 62.5v457q0 11 9.5 21.5
t21.5 10.5h63q12 0 22.5 -10.5t10.5 -21.5v-449q0 -28 -2.5 -55.5t-12 -70t-25.5 -79t-46.5 -76t-71.5 -66.5t-104 -45t-141 -18zM715 1161l-109 -162q-8 -14 -24 -14h-62q-12 0 -19 8t-7 19l88 157q8 17 24 17h82q12 0 19.5 -8t7.5 -17z" />
    <glyph glyph-name="ucircumflex" unicode="&#xfb;" horiz-adv-x="1089" 
d="M545 -23q-78 0 -141 18t-104 45.5t-72 66.5t-47 75.5t-25.5 79t-12 70t-2.5 55.5v449q0 11 10.5 21.5t22.5 10.5h64q12 0 21 -10.5t9 -21.5v-457q0 -31 5 -62.5t22.5 -73.5t46 -73.5t81.5 -53.5t122 -22t122 22t81 53.5t45.5 73.5t22.5 73.5t5 62.5v457q0 11 9.5 21.5
t21.5 10.5h63q12 0 22.5 -10.5t10.5 -21.5v-449q0 -28 -2.5 -55.5t-12 -70t-25.5 -79t-46.5 -76t-71.5 -66.5t-104 -45t-141 -18zM483 1307h111q18 0 31 -21l174 -268q0 -12 -10 -22.5t-23 -10.5h-68q-12 0 -26 21l-133 202l-133 -202q-14 -21 -27 -21h-68q-13 0 -22.5 10.5
t-9.5 22.5l174 268q13 21 30 21z" />
    <glyph glyph-name="udieresis" unicode="&#xfc;" horiz-adv-x="1089" 
d="M545 -23q-78 0 -141 18t-104 45.5t-72 66.5t-47 75.5t-25.5 79t-12 70t-2.5 55.5v449q0 11 10.5 21.5t22.5 10.5h64q12 0 21 -10.5t9 -21.5v-457q0 -31 5 -62.5t22.5 -73.5t46 -73.5t81.5 -53.5t122 -22t122 22t81 53.5t45.5 73.5t22.5 73.5t5 62.5v457q0 11 9.5 21.5
t21.5 10.5h63q12 0 22.5 -10.5t10.5 -21.5v-449q0 -28 -2.5 -55.5t-12 -70t-25.5 -79t-46.5 -76t-71.5 -66.5t-104 -45t-141 -18zM315 1067q0 35 23.5 59.5t58.5 24.5t59.5 -24.5t24.5 -59.5t-24.5 -58.5t-59.5 -23.5t-58.5 23.5t-23.5 58.5zM608 1067q0 35 23.5 59.5
t58.5 24.5t59.5 -24.5t24.5 -59.5t-24.5 -58.5t-59.5 -23.5t-58.5 23.5t-23.5 58.5z" />
    <glyph glyph-name="yacute" unicode="&#xfd;" horiz-adv-x="987" 
d="M688 1161l-108 -162q-8 -14 -25 -14h-61q-12 0 -19.5 8t-7.5 19l88 157q9 17 25 17h82q11 0 18.5 -7.5t7.5 -17.5zM147 -242h9q97 0 163.5 37.5t106.5 124.5l-356 918q0 12 9 21t21 9h76q20 0 27 -20l291 -762l290 762q7 20 27 20h76q12 0 21.5 -9t9.5 -21l-365 -938
q-29 -74 -73 -127t-95 -80t-98.5 -39t-96.5 -12h-43q-11 0 -21.5 10t-10.5 22v54q0 12 10.5 21t21.5 9z" />
    <glyph glyph-name="thorn" unicode="&#xfe;" 
d="M279 125v-451q0 -11 -9.5 -21.5t-21.5 -10.5h-64q-12 0 -22 10.5t-10 21.5v1526q3 11 12.5 19t19.5 8h64q10 0 19 -8t12 -19v-457q56 52 111 84.5t106 45t79.5 15.5t69.5 3q212 0 344.5 -132t132.5 -325t-132.5 -325t-344.5 -132q-41 0 -69.5 3t-79.5 15.5t-106 45
t-111 84.5zM995 434q0 148 -103.5 244t-252.5 96q-152 0 -256 -96t-104 -244t104 -244t256 -96q149 0 252.5 96t103.5 244z" />
    <glyph glyph-name="ydieresis" unicode="&#xff;" horiz-adv-x="987" 
d="M147 -242h9q97 0 163.5 37.5t106.5 124.5l-356 918q0 12 9 21t21 9h76q20 0 27 -20l291 -762l290 762q7 20 27 20h76q12 0 21.5 -9t9.5 -21l-365 -938q-29 -74 -73 -127t-95 -80t-98.5 -39t-96.5 -12h-43q-11 0 -21.5 10t-10.5 22v54q0 12 10.5 21t21.5 9zM262 1067
q0 35 23.5 59.5t58.5 24.5t59.5 -24.5t24.5 -59.5t-24.5 -58.5t-59.5 -23.5t-58.5 23.5t-23.5 58.5zM555 1067q0 35 23.5 59.5t58.5 24.5t59.5 -24.5t24.5 -59.5t-24.5 -58.5t-59.5 -23.5t-58.5 23.5t-23.5 58.5z" />
    <glyph glyph-name="Amacron" unicode="&#x100;" 
d="M731 1159l436 -1128q0 -12 -9 -21.5t-21 -9.5h-74q-20 0 -27 20l-84 216h-671l-84 -216q-7 -20 -27 -20h-74q-12 0 -21 9.5t-9 21.5l436 1128q12 27 43 27h143q31 0 43 -27zM616 1100l-290 -748h581zM848 1290h-461q-11 0 -22 10.5t-11 22.5v53q0 12 11 21.5t22 9.5h461
q11 0 22 -9.5t11 -21.5v-53q0 -12 -11 -22.5t-22 -10.5z" />
    <glyph glyph-name="amacron" unicode="&#x101;" 
d="M954 743v93q0 11 9.5 21.5t21.5 10.5h64q12 0 22 -10.5t10 -21.5v-809q-3 -11 -12.5 -19t-19.5 -8h-64q-10 0 -19 8t-12 19v98q-56 -52 -111 -84.5t-106 -45t-79.5 -15.5t-69.5 -3q-212 0 -344.5 132t-132.5 325t132.5 325t344.5 132q41 0 69.5 -3t79.5 -15.5t106 -45
t111 -84.5zM238 434q0 -148 103.5 -244t252.5 -96q152 0 256 96t104 244t-104 244t-256 96q-149 0 -252.5 -96t-103.5 -244zM836 985h-461q-11 0 -22 10.5t-11 22.5v53q0 12 11 21.5t22 9.5h461q11 0 21.5 -9.5t10.5 -21.5v-53q0 -12 -10.5 -22.5t-21.5 -10.5z" />
    <glyph glyph-name="Abreve" unicode="&#x102;" 
d="M731 1159l436 -1128q0 -12 -9 -21.5t-21 -9.5h-74q-20 0 -27 20l-84 216h-671l-84 -216q-7 -20 -27 -20h-74q-12 0 -21 9.5t-9 21.5l436 1128q12 27 43 27h143q31 0 43 -27zM616 1100l-290 -748h581zM616 1290q-140 0 -229 57.5t-117 165.5q0 9 8 18t17 9h70q17 0 24 -18
q45 -127 227 -127q183 0 228 127q7 18 24 18h70q9 0 17 -9t8 -18q-28 -108 -117.5 -165.5t-229.5 -57.5z" />
    <glyph glyph-name="abreve" unicode="&#x103;" 
d="M954 743v93q0 11 9.5 21.5t21.5 10.5h64q12 0 22 -10.5t10 -21.5v-809q-3 -11 -12.5 -19t-19.5 -8h-64q-10 0 -19 8t-12 19v98q-56 -52 -111 -84.5t-106 -45t-79.5 -15.5t-69.5 -3q-212 0 -344.5 132t-132.5 325t132.5 325t344.5 132q41 0 69.5 -3t79.5 -15.5t106 -45
t111 -84.5zM238 434q0 -148 103.5 -244t252.5 -96q152 0 256 96t104 244t-104 244t-256 96q-149 0 -252.5 -96t-103.5 -244zM614 985q-140 0 -229 57.5t-117 165.5q0 9 8 18t17 9h69q18 0 25 -18q45 -127 227 -127q183 0 228 127q7 18 24 18h70q9 0 17 -9t8 -18
q-28 -108 -117.5 -165.5t-229.5 -57.5z" />
    <glyph glyph-name="Aogonek" unicode="&#x104;" 
d="M616 1100l-290 -748h581zM1143 -221q-29 -2 -78 -2q-27 0 -52.5 6t-53.5 20.5t-45 46t-17 76.5q0 31 12.5 57t29.5 41.5t34.5 26.5t30 16.5t12.5 6.5l-64 162h-671l-84 -216q-7 -20 -27 -20h-74q-12 0 -21 9.5t-9 21.5l436 1128q12 27 43 27h143q31 0 43 -27l436 -1128
q0 -12 -9 -21.5t-21 -9.5h-45q-4 0 -10 -1t-22 -6t-28.5 -11.5t-22.5 -19t-10 -28.5q0 -41 21 -55t70 -14q33 0 53 2q8 0 16 -7t8 -16v-41q0 -9 -8 -16.5t-16 -7.5z" />
    <glyph glyph-name="aogonek" unicode="&#x105;" 
d="M238 434q0 -148 103.5 -244t252.5 -96q152 0 256 96t104 244t-104 244t-256 96q-149 0 -252.5 -96t-103.5 -244zM1053 -279h-49q-27 0 -52.5 6t-53.5 21t-45 46.5t-17 76.5q0 31 12 57t29.5 41t35 25t29.5 14l12 4v113q-56 -52 -111 -84.5t-106 -45t-79.5 -15.5t-69.5 -3
q-212 0 -344.5 132t-132.5 325t132.5 325t344.5 132q41 0 69.5 -3t79.5 -15.5t106 -45t111 -84.5v93q0 11 9.5 21.5t21.5 10.5h64q12 0 22 -10.5t10 -21.5v-859q-3 -12 -8 -16t-24 -10q-2 -1 -18 -5t-29.5 -8.5t-29 -12.5t-25 -20t-9.5 -26q0 -41 20.5 -55t69.5 -14h25
q8 0 16 -7t8 -16v-41q0 -9 -8 -17t-16 -8z" />
    <glyph glyph-name="Cacute" unicode="&#x106;" horiz-adv-x="1423" 
d="M764 -23q-129 0 -246 48.5t-202 131t-135 196.5t-50 239t50 239t135 196t202 130.5t246 48.5q192 0 345 -98.5t220 -261.5q-3 -23 -24 -23h-91q-14 0 -20 13q-64 118 -177 186t-253 68q-135 0 -251 -64.5t-185.5 -179.5t-69.5 -254q0 -133 69.5 -248.5t186 -182.5
t250.5 -67q140 0 253 68t177 186q6 12 20 12h91q21 0 24 -22q-67 -163 -220 -262t-345 -99zM940 1466l-109 -161q-9 -15 -24 -15h-62q-12 0 -19 8t-7 19l88 158q8 16 24 16h82q11 0 19 -7.5t8 -17.5z" />
    <glyph glyph-name="cacute" unicode="&#x107;" horiz-adv-x="1085" 
d="M580 -23q-208 0 -338.5 132t-130.5 325t130.5 325t338.5 132q145 0 254 -64t161 -186q-3 -23 -24 -23h-80q-15 0 -21 13q-40 71 -119 107t-176 36q-148 0 -242.5 -95.5t-94.5 -244.5t94.5 -244.5t242.5 -95.5q97 0 176 36.5t119 107.5q6 12 21 12h80q21 0 24 -23
q-52 -122 -161 -186t-254 -64zM748 1161l-109 -162q-8 -14 -25 -14h-61q-12 0 -19.5 8t-7.5 19l88 157q8 17 25 17h82q11 0 19 -8t8 -17z" />
    <glyph glyph-name="Ccircumflex" unicode="&#x108;" horiz-adv-x="1423" 
d="M711 1612h110q18 0 31 -21l174 -268q0 -12 -10 -22.5t-23 -10.5h-67q-13 0 -27 21l-133 202l-133 -202q-14 -21 -27 -21h-67q-13 0 -23 10.5t-10 22.5l174 268q13 21 31 21zM764 -23q-129 0 -246 48.5t-202 131t-135 196.5t-50 239t50 239t135 196t202 130.5t246 48.5
q192 0 345 -98.5t220 -261.5q-3 -23 -24 -23h-91q-14 0 -20 13q-64 118 -177 186t-253 68q-135 0 -251 -64.5t-185.5 -179.5t-69.5 -254q0 -133 69.5 -248.5t186 -182.5t250.5 -67q140 0 253 68t177 186q6 12 20 12h91q21 0 24 -22q-67 -163 -220 -262t-345 -99z" />
    <glyph glyph-name="ccircumflex" unicode="&#x109;" horiz-adv-x="1085" 
d="M580 -23q-208 0 -338.5 132t-130.5 325t130.5 325t338.5 132q145 0 254 -64t161 -186q-3 -23 -24 -23h-80q-15 0 -21 13q-40 71 -119 107t-176 36q-148 0 -242.5 -95.5t-94.5 -244.5t94.5 -244.5t242.5 -95.5q97 0 176 36.5t119 107.5q6 12 21 12h80q21 0 24 -23
q-52 -122 -161 -186t-254 -64zM524 1307h111q18 0 31 -21l174 -268q0 -12 -10 -22.5t-23 -10.5h-68q-12 0 -26 21l-133 202l-134 -202q-14 -21 -26 -21h-68q-13 0 -23 10.5t-10 22.5l175 268q13 21 30 21z" />
    <glyph glyph-name="Cdotaccent" unicode="&#x10a;" horiz-adv-x="1423" 
d="M764 -23q-129 0 -246 48.5t-202 131t-135 196.5t-50 239t50 239t135 196t202 130.5t246 48.5q192 0 345 -98.5t220 -261.5q-3 -23 -24 -23h-91q-14 0 -20 13q-64 118 -177 186t-253 68q-135 0 -251 -64.5t-185.5 -179.5t-69.5 -254q0 -133 69.5 -248.5t186 -182.5
t250.5 -67q140 0 253 68t177 186q6 12 20 12h91q21 0 24 -22q-67 -163 -220 -262t-345 -99zM686 1372q0 35 23.5 59.5t58.5 24.5t59.5 -24.5t24.5 -59.5t-24.5 -58.5t-59.5 -23.5t-58.5 23.5t-23.5 58.5z" />
    <glyph glyph-name="cdotaccent" unicode="&#x10b;" horiz-adv-x="1085" 
d="M580 -23q-208 0 -338.5 132t-130.5 325t130.5 325t338.5 132q145 0 254 -64t161 -186q-3 -23 -24 -23h-80q-15 0 -21 13q-40 71 -119 107t-176 36q-148 0 -242.5 -95.5t-94.5 -244.5t94.5 -244.5t242.5 -95.5q97 0 176 36.5t119 107.5q6 12 21 12h80q21 0 24 -23
q-52 -122 -161 -186t-254 -64zM500 1067q0 35 23.5 59.5t58.5 24.5t59.5 -24.5t24.5 -59.5t-24.5 -58.5t-59.5 -23.5t-58.5 23.5t-23.5 58.5z" />
    <glyph glyph-name="Ccaron" unicode="&#x10c;" horiz-adv-x="1423" 
d="M764 -23q-129 0 -246 48.5t-202 131t-135 196.5t-50 239t50 239t135 196t202 130.5t246 48.5q192 0 345 -98.5t220 -261.5q-3 -23 -24 -23h-91q-14 0 -20 13q-64 118 -177 186t-253 68q-135 0 -251 -64.5t-185.5 -179.5t-69.5 -254q0 -133 69.5 -248.5t186 -182.5
t250.5 -67q140 0 253 68t177 186q6 12 20 12h91q21 0 24 -22q-67 -163 -220 -262t-345 -99zM817 1290h-110q-18 0 -31 21l-174 268q0 12 10 22.5t23 10.5h67q13 0 27 -21l133 -202l133 202q14 21 27 21h67q13 0 23 -10.5t10 -22.5l-174 -268q-13 -21 -31 -21z" />
    <glyph glyph-name="ccaron" unicode="&#x10d;" horiz-adv-x="1085" 
d="M580 -23q-208 0 -338.5 132t-130.5 325t130.5 325t338.5 132q145 0 254 -64t161 -186q-3 -23 -24 -23h-80q-15 0 -21 13q-40 71 -119 107t-176 36q-148 0 -242.5 -95.5t-94.5 -244.5t94.5 -244.5t242.5 -95.5q97 0 176 36.5t119 107.5q6 12 21 12h80q21 0 24 -23
q-52 -122 -161 -186t-254 -64zM635 991h-111q-17 0 -30 21l-175 268q0 12 10 22.5t23 10.5h68q12 0 26 -21l134 -202l133 202q14 21 26 21h68q13 0 23 -10.5t10 -22.5l-174 -268q-13 -21 -31 -21z" />
    <glyph glyph-name="Dcaron" unicode="&#x10e;" horiz-adv-x="1284" 
d="M602 1069h-323v-952h323q204 0 324.5 131t120.5 344t-121 345t-324 132zM184 1186h410q137 0 247.5 -45t183 -125t111 -188t38.5 -234q0 -127 -38.5 -235.5t-111 -188.5t-183 -125t-247.5 -45h-410q-12 0 -22 11t-10 22v1120q0 11 10 22t22 11zM586 1290h-111
q-18 0 -31 21l-174 268q0 12 10 22.5t23 10.5h68q12 0 26 -21l133 -202l134 202q14 21 26 21h68q13 0 23 -10.5t10 -22.5l-175 -268q-13 -21 -30 -21z" />
    <glyph glyph-name="dcaron" unicode="&#x10f;" horiz-adv-x="1691" 
d="M954 743v449q0 11 9.5 22t21.5 11h64q12 0 22 -11t10 -22v-1165q-3 -11 -12.5 -19t-19.5 -8h-64q-10 0 -19 8t-12 19v98q-56 -52 -111 -84.5t-106 -45t-79.5 -15.5t-69.5 -3q-212 0 -344.5 132t-132.5 325t132.5 325t344.5 132q41 0 69.5 -3t79.5 -15.5t106 -45
t111 -84.5zM238 434q0 -148 103.5 -244t252.5 -96q152 0 256 96t104 244t-104 244t-256 96q-149 0 -252.5 -96t-103.5 -244zM1659 1200l-94 -199q-8 -14 -25 -14h-55q-12 0 -19.5 8t-7.5 19l76 194q8 17 25 17h73q12 0 19.5 -7.5t7.5 -17.5z" />
    <glyph glyph-name="Dcroat" unicode="&#x110;" horiz-adv-x="1333" 
d="M643 1186q137 0 247.5 -45t183 -125t111 -188t38.5 -234q0 -127 -38.5 -235.5t-111 -188.5t-183 -125t-247.5 -45h-410q-12 0 -22 11t-10 22v495h-115q-11 0 -22 10.5t-11 22.5v53q0 12 11 21.5t22 9.5h115v508q0 11 10 22t22 11h410zM651 117q204 0 324.5 131t120.5 344
t-121 345t-324 132h-323v-424h180q11 0 22 -9.5t11 -21.5v-53q0 -12 -11 -22.5t-22 -10.5h-180v-411h323z" />
    <glyph glyph-name="dcroat" unicode="&#x111;" horiz-adv-x="1243" 
d="M1157 1004h-76v-977q-3 -11 -12.5 -19t-19.5 -8h-64q-10 0 -19 8t-12 19v98q-56 -52 -111 -84.5t-106 -45t-79.5 -15.5t-69.5 -3q-212 0 -344.5 132t-132.5 325t132.5 325t344.5 132q41 0 69.5 -3t79.5 -15.5t106 -45t111 -84.5v261h-114q-11 0 -22 10t-11 22v54
q0 11 11 20.5t22 9.5h114v72q0 11 9.5 22t21.5 11h64q12 0 22 -11t10 -22v-72h76q11 0 22 -9.5t11 -20.5v-54q0 -12 -11 -22t-22 -10zM238 434q0 -148 103.5 -244t252.5 -96q152 0 256 96t104 244t-104 244t-256 96q-149 0 -252.5 -96t-103.5 -244z" />
    <glyph glyph-name="Emacron" unicode="&#x112;" horiz-adv-x="1034" 
d="M279 117h604q11 0 21.5 -10.5t10.5 -22.5v-53q0 -12 -10.5 -21.5t-21.5 -9.5h-699q-12 0 -22 11t-10 22v1120q0 11 10 22t22 11h699q11 0 21.5 -9.5t10.5 -21.5v-53q0 -12 -10.5 -22.5t-21.5 -10.5h-604v-432h557q11 0 21.5 -9.5t10.5 -21.5v-53q0 -12 -10.5 -22.5
t-21.5 -10.5h-557v-403zM758 1290h-461q-11 0 -22 10.5t-11 22.5v53q0 12 11 21.5t22 9.5h461q11 0 22 -9.5t11 -21.5v-53q0 -12 -11 -22.5t-22 -10.5z" />
    <glyph glyph-name="emacron" unicode="&#x113;" horiz-adv-x="1103" 
d="M561 774q-66 0 -132.5 -28.5t-121.5 -94t-69 -155.5h645q-10 68 -44.5 123t-81 88t-97 50t-99.5 17zM1010 434v-18q0 -11 -9.5 -22t-21.5 -11h-741q11 -65 37.5 -116.5t61 -83t77 -52.5t82 -29t79.5 -8q93 0 199 35q8 4 17 4q10 0 18 -14l33 -53q4 -6 4 -17
q0 -21 -19 -29q-148 -43 -254 -43q-199 0 -330.5 127t-131.5 330q0 192 127.5 325.5t322.5 133.5t322 -133.5t127 -325.5zM782 985h-460q-11 0 -22 10.5t-11 22.5v53q0 12 11 21.5t22 9.5h460q11 0 22 -9.5t11 -21.5v-53q0 -12 -11 -22.5t-22 -10.5z" />
    <glyph glyph-name="Edotaccent" unicode="&#x116;" horiz-adv-x="1034" 
d="M279 117h604q11 0 21.5 -10.5t10.5 -22.5v-53q0 -12 -10.5 -21.5t-21.5 -9.5h-699q-12 0 -22 11t-10 22v1120q0 11 10 22t22 11h699q11 0 21.5 -9.5t10.5 -21.5v-53q0 -12 -10.5 -22.5t-21.5 -10.5h-604v-432h557q11 0 21.5 -9.5t10.5 -21.5v-53q0 -12 -10.5 -22.5
t-21.5 -10.5h-557v-403zM461 1372q0 35 23.5 59.5t58.5 24.5t59.5 -24.5t24.5 -59.5t-24.5 -58.5t-59.5 -23.5t-58.5 23.5t-23.5 58.5z" />
    <glyph glyph-name="edotaccent" unicode="&#x117;" horiz-adv-x="1103" 
d="M561 774q-66 0 -132.5 -28.5t-121.5 -94t-69 -155.5h645q-10 68 -44.5 123t-81 88t-97 50t-99.5 17zM1010 434v-18q0 -11 -9.5 -22t-21.5 -11h-741q11 -65 37.5 -116.5t61 -83t77 -52.5t82 -29t79.5 -8q93 0 199 35q8 4 17 4q10 0 18 -14l33 -53q4 -6 4 -17
q0 -21 -19 -29q-148 -43 -254 -43q-199 0 -330.5 127t-131.5 330q0 192 127.5 325.5t322.5 133.5t322 -133.5t127 -325.5zM481 1067q0 35 23.5 59.5t58.5 24.5t59.5 -24.5t24.5 -59.5t-24.5 -58.5t-59.5 -23.5t-58.5 23.5t-23.5 58.5z" />
    <glyph glyph-name="Eogonek" unicode="&#x118;" horiz-adv-x="1034" 
d="M602 0h-418q-12 0 -22 11t-10 22v1120q0 11 10 22t22 11h699q11 0 21.5 -9.5t10.5 -21.5v-53q0 -12 -10.5 -22.5t-21.5 -10.5h-604v-432h557q11 0 21.5 -9.5t10.5 -21.5v-53q0 -12 -10.5 -22.5t-21.5 -10.5h-557v-403h604q11 0 21.5 -10.5t10.5 -22.5v-53
q0 -12 -10.5 -21.5t-21.5 -9.5h-109q-94 -14 -94 -70q0 -41 20.5 -55t69.5 -14q33 0 53 2q8 0 16.5 -7t8.5 -16v-41q0 -9 -8.5 -16.5t-16.5 -7.5q-29 -2 -78 -2q-27 0 -52.5 6t-53 20.5t-44.5 46t-17 76.5q0 44 24 78z" />
    <glyph glyph-name="eogonek" unicode="&#x119;" horiz-adv-x="1103" 
d="M688 -238q-29 -2 -78 -2q-27 0 -52.5 6t-53.5 21t-45 46.5t-17 76.5t21 80q-158 31 -255 150.5t-97 293.5q0 192 127.5 325.5t322.5 133.5t322 -133.5t127 -325.5v-18q0 -11 -9.5 -22t-21.5 -11h-741q11 -65 37.5 -116.5t61 -83t77 -52.5t82 -29t79.5 -8q93 0 199 35
q8 4 17 4q10 0 18 -14l33 -53q4 -6 4 -17q0 -21 -19 -29q-121 -38 -233 -43q-49 -9 -49 -59q0 -41 21 -55.5t69 -14.5q33 0 53 2q8 0 16.5 -7t8.5 -15v-41q0 -9 -8.5 -17t-16.5 -8zM561 774q-66 0 -132.5 -28.5t-121.5 -94t-69 -155.5h645q-10 68 -44.5 123t-81 88t-97 50
t-99.5 17z" />
    <glyph glyph-name="Ecaron" unicode="&#x11a;" horiz-adv-x="1034" 
d="M279 117h604q11 0 21.5 -10.5t10.5 -22.5v-53q0 -12 -10.5 -21.5t-21.5 -9.5h-699q-12 0 -22 11t-10 22v1120q0 11 10 22t22 11h699q11 0 21.5 -9.5t10.5 -21.5v-53q0 -12 -10.5 -22.5t-21.5 -10.5h-604v-432h557q11 0 21.5 -9.5t10.5 -21.5v-53q0 -12 -10.5 -22.5
t-21.5 -10.5h-557v-403zM610 1290h-110q-18 0 -31 21l-174 268q0 12 10 22.5t23 10.5h67q13 0 27 -21l133 -202l133 202q14 21 27 21h67q13 0 23 -10.5t10 -22.5l-174 -268q-13 -21 -31 -21z" />
    <glyph glyph-name="ecaron" unicode="&#x11b;" horiz-adv-x="1103" 
d="M561 774q-66 0 -132.5 -28.5t-121.5 -94t-69 -155.5h645q-10 68 -44.5 123t-81 88t-97 50t-99.5 17zM1010 434v-18q0 -11 -9.5 -22t-21.5 -11h-741q11 -65 37.5 -116.5t61 -83t77 -52.5t82 -29t79.5 -8q93 0 199 35q8 4 17 4q10 0 18 -14l33 -53q4 -6 4 -17
q0 -21 -19 -29q-148 -43 -254 -43q-199 0 -330.5 127t-131.5 330q0 192 127.5 325.5t322.5 133.5t322 -133.5t127 -325.5zM614 991h-110q-18 0 -31 21l-174 268q0 12 10 22.5t23 10.5h67q13 0 27 -21l133 -202l133 202q14 21 27 21h67q13 0 23 -10.5t10 -22.5l-174 -268
q-13 -21 -31 -21z" />
    <glyph glyph-name="Gcircumflex" unicode="&#x11c;" horiz-adv-x="1488" 
d="M1280 1012q10 -10 10 -23q0 -12 -12 -24l-49 -39q-8 -6 -19 -6q-6 0 -16 10q-152 160 -430 160q-135 0 -251 -64.5t-185.5 -179.5t-69.5 -254q0 -133 69.5 -248.5t186 -182.5t250.5 -67q114 0 219 47.5t177.5 141.5t80.5 213h-283q-11 0 -21.5 9t-10.5 21v54
q0 12 10.5 22t21.5 10h379q11 0 22 -10t11 -22v-84q-12 -83 -39.5 -154t-61 -120.5t-78.5 -90t-86.5 -65.5t-90.5 -43t-84.5 -26.5t-76 -13.5t-56.5 -5.5t-33 -0.5q-129 0 -246 48.5t-202 131t-135 196.5t-50 239t50 239t135 196t202 130.5t246 48.5q190 0 308.5 -51.5
t207.5 -142.5zM711 1612h110q18 0 31 -21l174 -268q0 -12 -10 -22.5t-23 -10.5h-67q-13 0 -27 21l-133 202l-133 -202q-14 -21 -27 -21h-67q-13 0 -23 10.5t-10 22.5l174 268q13 21 31 21z" />
    <glyph glyph-name="gcircumflex" unicode="&#x11d;" 
d="M238 434q0 -148 103.5 -244t252.5 -96q152 0 256 96t104 244t-104 244t-256 96q-149 0 -252.5 -96t-103.5 -244zM289 -319q-15 5 -15 24q0 9 5 16l28 50q7 10 23 10q6 0 14 -4q118 -51 258 -51q42 0 85.5 8t92.5 30.5t87 56t62.5 89.5t24.5 127v88q-56 -52 -111 -84.5
t-106 -45t-79.5 -15.5t-69.5 -3q-212 0 -344.5 132t-132.5 325t132.5 325t344.5 132q41 0 69.5 -3t79.5 -15.5t106 -45t111 -84.5v99q3 11 12 18.5t19 7.5h64q10 0 19.5 -7.5t12.5 -18.5v-809q0 -92 -38 -172t-103 -135t-153.5 -86t-186.5 -31q-163 0 -311 72zM537 1307h110
q18 0 31 -21l174 -268q0 -12 -10 -22.5t-23 -10.5h-67q-13 0 -27 21l-133 202l-133 -202q-14 -21 -27 -21h-67q-13 0 -23 10.5t-10 22.5l174 268q13 21 31 21z" />
    <glyph glyph-name="Gbreve" unicode="&#x11e;" horiz-adv-x="1488" 
d="M1280 1012q10 -10 10 -23q0 -12 -12 -24l-49 -39q-8 -6 -19 -6q-6 0 -16 10q-152 160 -430 160q-135 0 -251 -64.5t-185.5 -179.5t-69.5 -254q0 -133 69.5 -248.5t186 -182.5t250.5 -67q114 0 219 47.5t177.5 141.5t80.5 213h-283q-11 0 -21.5 9t-10.5 21v54
q0 12 10.5 22t21.5 10h379q11 0 22 -10t11 -22v-84q-12 -83 -39.5 -154t-61 -120.5t-78.5 -90t-86.5 -65.5t-90.5 -43t-84.5 -26.5t-76 -13.5t-56.5 -5.5t-33 -0.5q-129 0 -246 48.5t-202 131t-135 196.5t-50 239t50 239t135 196t202 130.5t246 48.5q190 0 308.5 -51.5
t207.5 -142.5zM766 1290q-140 0 -229 57.5t-117 165.5q0 9 7.5 18t16.5 9h70q18 0 25 -18q45 -127 227 -127t227 127q7 18 25 18h69q9 0 17 -9t8 -18q-28 -108 -117 -165.5t-229 -57.5z" />
    <glyph glyph-name="gbreve" unicode="&#x11f;" 
d="M238 434q0 -148 103.5 -244t252.5 -96q152 0 256 96t104 244t-104 244t-256 96q-149 0 -252.5 -96t-103.5 -244zM289 -319q-15 5 -15 24q0 9 5 16l28 50q7 10 23 10q6 0 14 -4q118 -51 258 -51q42 0 85.5 8t92.5 30.5t87 56t62.5 89.5t24.5 127v88q-56 -52 -111 -84.5
t-106 -45t-79.5 -15.5t-69.5 -3q-212 0 -344.5 132t-132.5 325t132.5 325t344.5 132q41 0 69.5 -3t79.5 -15.5t106 -45t111 -84.5v99q3 11 12 18.5t19 7.5h64q10 0 19.5 -7.5t12.5 -18.5v-809q0 -92 -38 -172t-103 -135t-153.5 -86t-186.5 -31q-163 0 -311 72zM590 985
q-140 0 -229 57.5t-117 165.5q0 9 7.5 18t16.5 9h70q17 0 24 -18q45 -127 228 -127q182 0 227 127q7 18 25 18h69q9 0 17 -9t8 -18q-28 -108 -117 -165.5t-229 -57.5z" />
    <glyph glyph-name="Gdotaccent" unicode="&#x120;" horiz-adv-x="1488" 
d="M1280 1012q10 -10 10 -23q0 -12 -12 -24l-49 -39q-8 -6 -19 -6q-6 0 -16 10q-152 160 -430 160q-135 0 -251 -64.5t-185.5 -179.5t-69.5 -254q0 -133 69.5 -248.5t186 -182.5t250.5 -67q114 0 219 47.5t177.5 141.5t80.5 213h-283q-11 0 -21.5 9t-10.5 21v54
q0 12 10.5 22t21.5 10h379q11 0 22 -10t11 -22v-84q-12 -83 -39.5 -154t-61 -120.5t-78.5 -90t-86.5 -65.5t-90.5 -43t-84.5 -26.5t-76 -13.5t-56.5 -5.5t-33 -0.5q-129 0 -246 48.5t-202 131t-135 196.5t-50 239t50 239t135 196t202 130.5t246 48.5q190 0 308.5 -51.5
t207.5 -142.5zM686 1372q0 35 23.5 59.5t58.5 24.5t59.5 -24.5t24.5 -59.5t-24.5 -58.5t-59.5 -23.5t-58.5 23.5t-23.5 58.5z" />
    <glyph glyph-name="gdotaccent" unicode="&#x121;" 
d="M238 434q0 -148 103.5 -244t252.5 -96q152 0 256 96t104 244t-104 244t-256 96q-149 0 -252.5 -96t-103.5 -244zM289 -319q-15 5 -15 24q0 9 5 16l28 50q7 10 23 10q6 0 14 -4q118 -51 258 -51q42 0 85.5 8t92.5 30.5t87 56t62.5 89.5t24.5 127v88q-56 -52 -111 -84.5
t-106 -45t-79.5 -15.5t-69.5 -3q-212 0 -344.5 132t-132.5 325t132.5 325t344.5 132q41 0 69.5 -3t79.5 -15.5t106 -45t111 -84.5v99q3 11 12 18.5t19 7.5h64q10 0 19.5 -7.5t12.5 -18.5v-809q0 -92 -38 -172t-103 -135t-153.5 -86t-186.5 -31q-163 0 -311 72zM508 1067
q0 35 23.5 59.5t58.5 24.5t59.5 -24.5t24.5 -59.5t-24.5 -58.5t-59.5 -23.5t-58.5 23.5t-23.5 58.5z" />
    <glyph glyph-name="uni0122" unicode="&#x122;" horiz-adv-x="1488" 
d="M1280 1012q10 -10 10 -23q0 -12 -12 -24l-49 -39q-8 -6 -19 -6q-6 0 -16 10q-152 160 -430 160q-135 0 -251 -64.5t-185.5 -179.5t-69.5 -254q0 -133 69.5 -248.5t186 -182.5t250.5 -67q114 0 219 47.5t177.5 141.5t80.5 213h-283q-11 0 -21.5 9t-10.5 21v54
q0 12 10.5 22t21.5 10h379q11 0 22 -10t11 -22v-84q-12 -83 -39.5 -154t-61 -120.5t-78.5 -90t-86.5 -65.5t-90.5 -43t-84.5 -26.5t-76 -13.5t-56.5 -5.5t-33 -0.5q-129 0 -246 48.5t-202 131t-135 196.5t-50 239t50 239t135 196t202 130.5t246 48.5q190 0 308.5 -51.5
t207.5 -142.5zM817 -133l-76 -152q-8 -14 -24 -14h-64q-12 0 -19 8t-7 19l55 147q8 16 25 16h84q11 0 18.5 -7.5t7.5 -16.5z" />
    <glyph glyph-name="uni0123" unicode="&#x123;" 
d="M238 434q0 -148 103.5 -244t252.5 -96q152 0 256 96t104 244t-104 244t-256 96q-149 0 -252.5 -96t-103.5 -244zM289 -319q-15 5 -15 24q0 9 5 16l28 50q7 10 23 10q6 0 14 -4q118 -51 258 -51q42 0 85.5 8t92.5 30.5t87 56t62.5 89.5t24.5 127v88q-56 -52 -111 -84.5
t-106 -45t-79.5 -15.5t-69.5 -3q-212 0 -344.5 132t-132.5 325t132.5 325t344.5 132q41 0 69.5 -3t79.5 -15.5t106 -45t111 -84.5v99q3 11 12 18.5t19 7.5h64q10 0 19.5 -7.5t12.5 -18.5v-809q0 -92 -38 -172t-103 -135t-153.5 -86t-186.5 -31q-163 0 -311 72zM565 1010
l109 161q9 15 24 15h62q12 0 19 -8t7 -19l-88 -158q-8 -16 -24 -16h-82q-12 0 -19.5 7.5t-7.5 17.5z" />
    <glyph glyph-name="Hcircumflex" unicode="&#x124;" horiz-adv-x="1259" 
d="M1108 1153v-1120q0 -11 -9.5 -22t-21.5 -11h-63q-12 0 -22.5 11t-10.5 22v438h-702v-438q0 -11 -9.5 -22t-21.5 -11h-64q-12 0 -22 11t-10 22v1120q0 11 10 22t22 11h64q12 0 21.5 -11t9.5 -22v-565h702v565q0 11 10.5 22t22.5 11h63q12 0 21.5 -11t9.5 -22zM573 1612
h111q18 0 31 -21l174 -268q0 -12 -10 -22.5t-23 -10.5h-68q-12 0 -26 21l-133 202l-133 -202q-14 -21 -27 -21h-68q-13 0 -22.5 10.5t-9.5 22.5l174 268q13 21 30 21z" />
    <glyph glyph-name="hcircumflex" unicode="&#x125;" horiz-adv-x="1089" 
d="M279 1192v-459q111 158 323 158q70 0 127 -18.5t92.5 -47t63 -66.5t41 -72.5t21.5 -71t9.5 -55t1.5 -30.5v-497q0 -11 -9.5 -22t-20.5 -11h-64q-12 0 -22.5 11t-10.5 22v456q0 285 -245 285q-61 0 -113.5 -22t-87 -55.5t-59.5 -74t-36 -77.5t-11 -66v-446q0 -11 -9.5 -22
t-21.5 -11h-64q-12 0 -22 11t-10 22v1159q0 11 10 22t22 11h64q12 0 21.5 -11t9.5 -22zM383 1612h111q17 0 30 -21l174 -268q0 -12 -9.5 -22.5t-22.5 -10.5h-68q-13 0 -27 21l-133 202l-133 -202q-14 -21 -26 -21h-68q-13 0 -23 10.5t-10 22.5l174 268q13 21 31 21z" />
    <glyph glyph-name="Hbar" unicode="&#x126;" horiz-adv-x="1333" 
d="M1227 907h-82v-874q0 -11 -9.5 -22t-21.5 -11h-63q-12 0 -22.5 11t-10.5 22v438h-703v-438q0 -11 -9.5 -22t-20.5 -11h-64q-12 0 -22.5 11t-10.5 22v874h-82q-11 0 -21.5 10.5t-10.5 22.5v53q0 12 10.5 21.5t21.5 9.5h82v129q0 11 10.5 22t22.5 11h64q11 0 20.5 -11
t9.5 -22v-129h703v129q0 11 10.5 22t22.5 11h63q12 0 21.5 -11t9.5 -22v-129h82q11 0 22 -9.5t11 -21.5v-53q0 -12 -11 -22.5t-22 -10.5zM315 588h703v319h-703v-319z" />
    <glyph glyph-name="hbar" unicode="&#x127;" horiz-adv-x="1099" 
d="M403 1004h-114v-271q111 158 323 158q70 0 127 -18.5t93 -47t63 -66.5t40.5 -72.5t22 -71t10 -55t1.5 -30.5v-497q0 -11 -9.5 -22t-21.5 -11h-64q-12 0 -22 11t-10 22v456q0 34 -3 63t-17 73t-38.5 74t-73 52.5t-114.5 22.5q-61 0 -113.5 -22t-87 -55.5t-59.5 -74
t-36 -77.5t-11 -66v-446q0 -11 -9.5 -22t-21.5 -11h-63q-12 0 -22.5 11t-10.5 22v971h-76q-11 0 -22 10t-11 22v54q0 11 11 20.5t22 9.5h76v72q0 11 10.5 22t22.5 11h63q12 0 21.5 -11t9.5 -22v-72h114q11 0 22 -9.5t11 -20.5v-54q0 -12 -11 -22t-22 -10z" />
    <glyph glyph-name="Itilde" unicode="&#x128;" horiz-adv-x="430" 
d="M279 1153v-1120q0 -11 -9.5 -22t-21.5 -11h-64q-12 0 -22 11t-10 22v1120q0 11 10 22t22 11h64q12 0 21.5 -11t9.5 -22zM348 1290q-48 0 -94 25t-83.5 49.5t-66.5 24.5q-77 0 -92 -86q-3 -15 -20 -15h-58q-24 0 -24 25q7 52 25 90.5t37 57t44 29.5t39 13t29 2
q44 0 90.5 -24.5t86 -49t67.5 -24.5q77 0 92 86q3 14 20 14h58q24 0 24 -24q-7 -52 -25 -90.5t-37 -57.5t-44 -30t-39.5 -13t-28.5 -2z" />
    <glyph glyph-name="itilde" unicode="&#x129;" horiz-adv-x="430" 
d="M279 836v-803q0 -11 -9.5 -22t-21.5 -11h-64q-12 0 -22 11t-10 22v803q0 11 10 21.5t22 10.5h64q12 0 21.5 -10.5t9.5 -21.5zM348 987q-38 0 -75.5 15.5t-62 33.5t-53.5 33.5t-53 15.5q-77 0 -92 -86q-3 -14 -20 -14h-58q-24 0 -24 25q7 52 25 90.5t37 57t44 29.5t39 13
t29 2q44 0 90.5 -24.5t86 -49t67.5 -24.5q77 0 92 86q3 14 20 14h58q24 0 24 -24q-7 -52 -25 -90.5t-37 -57.5t-44 -30t-39.5 -13t-28.5 -2z" />
    <glyph glyph-name="Imacron" unicode="&#x12a;" horiz-adv-x="430" 
d="M279 1153v-1120q0 -11 -9.5 -22t-21.5 -11h-64q-12 0 -22 11t-10 22v1120q0 11 10 22t22 11h64q12 0 21.5 -11t9.5 -22zM410 1290h-387q-11 0 -22 10.5t-11 22.5v53q0 12 11 21.5t22 9.5h387q11 0 21.5 -9.5t10.5 -21.5v-53q0 -12 -10.5 -22.5t-21.5 -10.5z" />
    <glyph glyph-name="imacron" unicode="&#x12b;" horiz-adv-x="430" 
d="M279 836v-803q0 -11 -9.5 -22t-21.5 -11h-64q-12 0 -22 11t-10 22v803q0 11 10 21.5t22 10.5h64q12 0 21.5 -10.5t9.5 -21.5zM410 985h-387q-11 0 -22 10.5t-11 22.5v53q0 12 11 21.5t22 9.5h387q11 0 21.5 -9.5t10.5 -21.5v-53q0 -12 -10.5 -22.5t-21.5 -10.5z" />
    <glyph glyph-name="Iogonek" unicode="&#x12e;" horiz-adv-x="430" 
d="M279 1153v-1124q0 -27 -33 -27q-49 0 -80 -19t-31 -55q0 -41 20.5 -55t69.5 -14h54q8 0 16 -7t8 -16v-41q0 -9 -8 -16.5t-16 -7.5h-78q-27 0 -52.5 6t-53.5 20.5t-45 46t-17 76.5q0 31 12.5 57t29.5 41t34.5 25t30.5 14l12 4v1092q0 11 10 22t22 11h64q12 0 21.5 -11
t9.5 -22z" />
    <glyph glyph-name="iogonek" unicode="&#x12f;" horiz-adv-x="430" 
d="M279 836v-807q0 -27 -33 -27q-49 0 -80 -19t-31 -55q0 -41 20.5 -55t69.5 -14h54q8 0 16 -7t8 -16v-41q0 -9 -8 -16.5t-16 -7.5h-78q-27 0 -52.5 6t-53.5 20.5t-45 46t-17 76.5q0 31 12.5 57t29.5 41t34.5 25t30.5 14l12 4v775q0 11 10 21.5t22 10.5h64q12 0 21.5 -10.5
t9.5 -21.5zM129 1069q0 37 25.5 63.5t60.5 26.5q37 0 62.5 -26.5t25.5 -63.5q0 -34 -26 -59t-62 -25q-35 0 -60.5 25t-25.5 59z" />
    <glyph glyph-name="Idotaccent" unicode="&#x130;" horiz-adv-x="430" 
d="M129 1374q0 37 25.5 63.5t60.5 26.5q37 0 62.5 -26.5t25.5 -63.5q0 -34 -26 -59t-62 -25q-35 0 -60.5 25t-25.5 59zM279 1153v-1120q0 -11 -9.5 -22t-21.5 -11h-64q-12 0 -22 11t-10 22v1120q0 11 10 22t22 11h64q12 0 21.5 -11t9.5 -22z" />
    <glyph glyph-name="dotlessi" unicode="&#x131;" horiz-adv-x="430" 
d="M279 836v-803q0 -11 -9.5 -22t-21.5 -11h-64q-12 0 -22 11t-10 22v803q0 11 10 21.5t22 10.5h64q12 0 21.5 -10.5t9.5 -21.5z" />
    <glyph glyph-name="Jcircumflex" unicode="&#x134;" horiz-adv-x="899" 
d="M152 180q46 -38 114.5 -62t124.5 -24q65 0 115 24t75.5 60t37.5 70.5t12 64.5v840q0 11 10.5 22t22.5 11h63q12 0 21.5 -11t9.5 -22v-840q0 -150 -100.5 -243t-278.5 -93q-102 0 -188 38t-138 91q-4 8 -4 15q0 19 14 29l50 32q12 4 18 4q11 0 21 -6zM422 1612h110
q18 0 31 -21l174 -268q0 -12 -9.5 -22.5t-22.5 -10.5h-68q-13 0 -27 21l-133 202l-133 -202q-14 -21 -27 -21h-67q-13 0 -23 10.5t-10 22.5l174 268q13 21 31 21z" />
    <glyph glyph-name="jcircumflex" unicode="&#x135;" horiz-adv-x="430" 
d="M-78 -240l23 -2q56 0 98 21t62 51t31.5 60.5t13.5 51.5l2 21v873q0 11 10 21.5t22 10.5h64q12 0 21.5 -10.5t9.5 -21.5v-859q0 -67 -13.5 -121t-34 -88t-49 -59.5t-53.5 -37.5t-54.5 -19.5t-44 -8.5t-28.5 -1h-78q-11 0 -23 10t-12 22v56q0 11 11 20.5t22 9.5zM158 1307
h110q18 0 31 -21l174 -268q0 -12 -10 -22.5t-23 -10.5h-67q-13 0 -27 21l-133 202l-133 -202q-14 -21 -27 -21h-67q-13 0 -23 10.5t-10 22.5l174 268q13 21 31 21z" />
    <glyph glyph-name="uni0136" unicode="&#x136;" horiz-adv-x="1073" 
d="M389 600l645 -573q0 -9 -8 -18t-18 -9h-125q-15 0 -25 10l-579 516v-493q0 -11 -9.5 -22t-21.5 -11h-64q-12 0 -22 11t-10 22v1120q0 11 10 22t22 11h64q12 0 21.5 -11t9.5 -22v-483l536 506q10 10 25 10h116q10 0 18.5 -9t8.5 -18zM653 -133l-75 -152q-8 -14 -25 -14
h-64q-12 0 -19 8t-7 19l55 147q8 16 25 16h84q11 0 18.5 -7.5t7.5 -16.5z" />
    <glyph glyph-name="uni0137" unicode="&#x137;" horiz-adv-x="937" 
d="M403 440l478 -405q0 -15 -9.5 -25t-23.5 -10h-109q-5 0 -10 2t-7.5 3.5t-7.5 6.5t-7 6l-428 363v-348q0 -11 -9.5 -22t-21.5 -11h-64q-12 0 -22 11t-10 22v1161q0 11 10 22t22 11h64q12 0 21.5 -11t9.5 -22v-692l399 348q2 2 5.5 5t6 5t5.5 4t6.5 3t7.5 1h108
q14 0 23.5 -9.5t9.5 -24.5zM571 -133l-75 -152q-8 -14 -25 -14h-63q-12 0 -19.5 8t-7.5 19l55 147q8 16 25 16h84q11 0 18.5 -7.5t7.5 -16.5z" />
    <glyph glyph-name="kgreenlandic" unicode="&#x138;" horiz-adv-x="937" 
d="M403 440l478 -405q0 -15 -9.5 -25t-23.5 -10h-109q-5 0 -10 2t-7.5 3.5t-7.5 6.5t-7 6l-428 363v-348q0 -11 -9.5 -22t-21.5 -11h-64q-12 0 -22 11t-10 22v803q0 11 10 21.5t22 10.5h64q12 0 21.5 -10.5t9.5 -21.5v-334l399 348q2 2 5.5 5t6 5t5.5 4t6.5 3t7.5 1h108
q14 0 23.5 -9.5t9.5 -24.5z" />
    <glyph glyph-name="Lacute" unicode="&#x139;" horiz-adv-x="995" 
d="M883 0h-699q-12 0 -22 11t-10 22v1120q0 11 10 22t22 11h64q12 0 21.5 -11t9.5 -22v-1036h604q11 0 21.5 -10.5t10.5 -22.5v-53q0 -12 -10.5 -21.5t-21.5 -9.5zM399 1466l-108 -161q-9 -15 -25 -15h-61q-12 0 -19.5 8t-7.5 19l88 158q8 16 25 16h82q11 0 18.5 -7.5
t7.5 -17.5z" />
    <glyph glyph-name="lacute" unicode="&#x13a;" horiz-adv-x="430" 
d="M279 1153v-1120q0 -11 -9.5 -22t-21.5 -11h-64q-12 0 -22 11t-10 22v1120q0 11 10 22t22 11h64q12 0 21.5 -11t9.5 -22zM387 1466l-108 -161q-9 -15 -25 -15h-61q-12 0 -19.5 8t-7.5 19l88 158q8 16 25 16h81q12 0 19.5 -7.5t7.5 -17.5z" />
    <glyph glyph-name="uni013B" unicode="&#x13b;" horiz-adv-x="995" 
d="M883 0h-699q-12 0 -22 11t-10 22v1120q0 11 10 22t22 11h64q12 0 21.5 -11t9.5 -22v-1036h604q11 0 21.5 -10.5t10.5 -22.5v-53q0 -12 -10.5 -21.5t-21.5 -9.5zM596 -133l-76 -152q-8 -14 -24 -14h-64q-12 0 -19 8t-7 19l55 147q8 16 24 16h84q12 0 19.5 -7.5t7.5 -16.5z
" />
    <glyph glyph-name="uni013C" unicode="&#x13c;" horiz-adv-x="430" 
d="M281 -133l-76 -152q-8 -14 -25 -14h-63q-12 0 -19.5 8t-7.5 19l55 147q8 16 25 16h84q12 0 19.5 -7.5t7.5 -16.5zM279 1153v-1120q0 -11 -9.5 -22t-21.5 -11h-64q-12 0 -22 11t-10 22v1120q0 11 10 22t22 11h64q12 0 21.5 -11t9.5 -22z" />
    <glyph glyph-name="Lcaron" unicode="&#x13d;" horiz-adv-x="995" 
d="M883 0h-699q-12 0 -22 11t-10 22v1120q0 11 10 22t22 11h64q12 0 21.5 -11t9.5 -22v-1036h604q11 0 21.5 -10.5t10.5 -22.5v-53q0 -12 -10.5 -21.5t-21.5 -9.5zM885 1161l-109 -198q-9 -15 -24 -15h-56q-12 0 -19 8t-7 19l90 194q8 17 24 17h74q12 0 19.5 -8t7.5 -17z
" />
    <glyph glyph-name="lcaron" unicode="&#x13e;" horiz-adv-x="888" 
d="M279 1153v-1120q0 -11 -9.5 -22t-21.5 -11h-64q-12 0 -22 11t-10 22v1120q0 11 10 22t22 11h64q12 0 21.5 -11t9.5 -22zM856 1161l-94 -198q-9 -15 -25 -15h-55q-12 0 -19.5 8t-7.5 19l76 194q9 17 25 17h73q11 0 19 -8t8 -17z" />
    <glyph glyph-name="Lslash" unicode="&#x141;" horiz-adv-x="1132" 
d="M590 662l-174 -37v-508h604q11 0 22 -10.5t11 -22.5v-53q0 -12 -11 -21.5t-22 -9.5h-698q-12 0 -22.5 11t-10.5 22v565l-183 -39q-11 0 -21.5 10.5t-10.5 22.5v53q0 11 10.5 20t21.5 11l183 39v438q0 11 10.5 22t22.5 11h63q12 0 21.5 -11t9.5 -22v-412l174 37
q11 0 22 -9.5t11 -20.5v-54q0 -11 -11 -20.5t-22 -11.5z" />
    <glyph glyph-name="lslash" unicode="&#x142;" horiz-adv-x="696" 
d="M106 676l179 37v440q0 11 10 22t22 11h64q12 0 21.5 -11t9.5 -22v-414l178 39q11 0 22 -9.5t11 -20.5v-54q0 -11 -11 -20.5t-22 -11.5l-178 -39v-590q0 -11 -9.5 -22t-21.5 -11h-64q-12 0 -22 11t-10 22v563l-179 -37q-11 0 -21.5 10.5t-10.5 22.5v53q0 11 10.5 20
t21.5 11z" />
    <glyph glyph-name="Nacute" unicode="&#x143;" horiz-adv-x="1320" 
d="M1026 12l-747 983v-962q0 -11 -9.5 -22t-21.5 -11h-64q-12 0 -22 11t-10 22v1120q0 11 10 22t22 11h95q12 0 22 -12l741 -973v952q0 11 9.5 22t21.5 11h64q12 0 22 -11t10 -22v-1120q0 -11 -10 -22t-22 -11h-88q-13 0 -23 12zM836 1466l-109 -161q-9 -15 -25 -15h-61
q-12 0 -19.5 8t-7.5 19l88 158q8 16 25 16h82q11 0 19 -7.5t8 -17.5z" />
    <glyph glyph-name="nacute" unicode="&#x144;" horiz-adv-x="1089" 
d="M279 836v-103q111 158 323 158q70 0 127 -18.5t92.5 -47t63 -66.5t41 -72.5t21.5 -71t9.5 -55t1.5 -30.5v-497q0 -11 -9.5 -22t-20.5 -11h-64q-12 0 -22.5 11t-10.5 22v456q0 285 -245 285q-61 0 -113.5 -22t-87 -55.5t-59.5 -74t-36 -77.5t-11 -66v-446q0 -11 -9.5 -22
t-21.5 -11h-64q-12 0 -22 11t-10 22v803q0 11 10 21.5t22 10.5h64q12 0 21.5 -10.5t9.5 -21.5zM766 1161l-109 -162q-8 -14 -24 -14h-62q-12 0 -19 8t-7 19l88 157q9 17 24 17h82q11 0 19 -8t8 -17z" />
    <glyph glyph-name="uni0145" unicode="&#x145;" horiz-adv-x="1320" 
d="M1026 12l-747 983v-962q0 -11 -9.5 -22t-21.5 -11h-64q-12 0 -22 11t-10 22v1120q0 11 10 22t22 11h95q12 0 22 -12l741 -973v952q0 11 9.5 22t21.5 11h64q12 0 22 -11t10 -22v-1120q0 -11 -10 -22t-22 -11h-88q-13 0 -23 12zM760 -133l-76 -152q-8 -14 -25 -14h-63
q-12 0 -19.5 8t-7.5 19l56 147q8 16 24 16h84q12 0 19.5 -7.5t7.5 -16.5z" />
    <glyph glyph-name="uni0146" unicode="&#x146;" horiz-adv-x="1089" 
d="M279 836v-103q111 158 323 158q70 0 127 -18.5t92.5 -47t63 -66.5t41 -72.5t21.5 -71t9.5 -55t1.5 -30.5v-497q0 -11 -9.5 -22t-20.5 -11h-64q-12 0 -22.5 11t-10.5 22v456q0 285 -245 285q-61 0 -113.5 -22t-87 -55.5t-59.5 -74t-36 -77.5t-11 -66v-446q0 -11 -9.5 -22
t-21.5 -11h-64q-12 0 -22 11t-10 22v803q0 11 10 21.5t22 10.5h64q12 0 21.5 -10.5t9.5 -21.5zM616 -133l-75 -152q-8 -14 -25 -14h-63q-12 0 -19.5 8t-7.5 19l55 147q8 16 25 16h84q12 0 19 -7.5t7 -16.5z" />
    <glyph glyph-name="Ncaron" unicode="&#x147;" horiz-adv-x="1320" 
d="M1026 12l-747 983v-962q0 -11 -9.5 -22t-21.5 -11h-64q-12 0 -22 11t-10 22v1120q0 11 10 22t22 11h95q12 0 22 -12l741 -973v952q0 11 9.5 22t21.5 11h64q12 0 22 -11t10 -22v-1120q0 -11 -10 -22t-22 -11h-88q-13 0 -23 12zM717 1290h-111q-18 0 -31 21l-174 268
q0 12 10 22.5t23 10.5h68q12 0 26 -21l134 -202l133 202q14 21 26 21h68q13 0 23 -10.5t10 -22.5l-174 -268q-13 -21 -31 -21z" />
    <glyph glyph-name="ncaron" unicode="&#x148;" horiz-adv-x="1089" 
d="M279 836v-103q111 158 323 158q70 0 127 -18.5t92.5 -47t63 -66.5t41 -72.5t21.5 -71t9.5 -55t1.5 -30.5v-497q0 -11 -9.5 -22t-20.5 -11h-64q-12 0 -22.5 11t-10.5 22v456q0 285 -245 285q-61 0 -113.5 -22t-87 -55.5t-59.5 -74t-36 -77.5t-11 -66v-446q0 -11 -9.5 -22
t-21.5 -11h-64q-12 0 -22 11t-10 22v803q0 11 10 21.5t22 10.5h64q12 0 21.5 -10.5t9.5 -21.5zM639 985h-111q-17 0 -30 21l-174 268q0 12 9.5 22.5t22.5 10.5h68q13 0 27 -21l133 -203l133 203q14 21 26 21h68q13 0 23 -10.5t10 -22.5l-174 -268q-13 -21 -31 -21z" />
    <glyph glyph-name="Eng" unicode="&#x14a;" horiz-adv-x="1320" 
d="M813 -240l23 -2q56 0 98 21t61.5 51t31.5 60.5t13 51.5l2 21v31l-763 1001v-962q0 -11 -9.5 -22t-21.5 -11h-64q-12 0 -22 11t-10 22v1120q0 11 10 22t22 11h95q12 0 22 -12l741 -973v952q0 11 9.5 22t21.5 11h64q12 0 22 -11t10 -22v-1176q0 -67 -13.5 -121t-33.5 -88
t-49 -59.5t-54 -37.5t-54 -19.5t-43.5 -8.5t-28.5 -1h-78q-11 0 -23 10t-12 22v56q0 11 11 20.5t22 9.5z" />
    <glyph glyph-name="eng" unicode="&#x14b;" horiz-adv-x="1089" 
d="M602 -240l23 -2q56 0 98 21t61.5 51t31.5 60.5t14 51.5l1 21v526q0 285 -245 285q-61 0 -113.5 -22t-87 -55.5t-59.5 -74t-36 -77.5t-11 -66v-446q0 -11 -9.5 -22t-21.5 -11h-64q-12 0 -22 11t-10 22v803q0 11 10 21.5t22 10.5h64q12 0 21.5 -10.5t9.5 -21.5v-103
q111 158 323 158q70 0 127 -18.5t92.5 -47t63 -66.5t41 -72.5t21.5 -71t9.5 -55t1.5 -30.5v-553q0 -67 -13.5 -121t-33.5 -88t-49 -59.5t-54 -37.5t-54 -19.5t-43.5 -8.5t-28.5 -1h-78q-11 0 -23 10t-12 22v56q0 11 11 20.5t22 9.5z" />
    <glyph glyph-name="Omacron" unicode="&#x14c;" horiz-adv-x="1515" 
d="M758 1206q171 0 315 -82t227.5 -223.5t83.5 -308.5t-83.5 -308.5t-227.5 -224t-315 -82.5t-315.5 82.5t-228 224t-83.5 308.5t83.5 308.5t228 223.5t315.5 82zM758 94q133 0 248 67t183 182.5t68 248.5q0 139 -68 254t-182.5 179.5t-248.5 64.5t-248.5 -64.5t-183 -179.5
t-68.5 -254q0 -100 40.5 -192t108 -159t160 -107t191.5 -40zM989 1290h-461q-11 0 -21.5 10.5t-10.5 22.5v53q0 12 10.5 21.5t21.5 9.5h461q11 0 22 -9.5t11 -21.5v-53q0 -12 -11 -22.5t-22 -10.5z" />
    <glyph glyph-name="omacron" unicode="&#x14d;" horiz-adv-x="1171" 
d="M586 891q131 0 240.5 -61.5t172 -166.5t62.5 -229t-62.5 -229t-172 -166.5t-240.5 -61.5t-240.5 61.5t-172 166.5t-62.5 229t62.5 229t172 166.5t240.5 61.5zM586 774q-147 0 -247.5 -96.5t-100.5 -243.5t100.5 -243.5t247.5 -96.5t247.5 96.5t100.5 243.5t-100.5 243.5
t-247.5 96.5zM819 985h-461q-11 0 -21.5 10.5t-10.5 22.5v53q0 12 10.5 21.5t21.5 9.5h461q11 0 22 -9.5t11 -21.5v-53q0 -12 -11 -22.5t-22 -10.5z" />
    <glyph glyph-name="Ohungarumlaut" unicode="&#x150;" horiz-adv-x="1515" 
d="M758 1206q171 0 315 -82t227.5 -223.5t83.5 -308.5t-83.5 -308.5t-227.5 -224t-315 -82.5t-315.5 82.5t-228 224t-83.5 308.5t83.5 308.5t228 223.5t315.5 82zM758 94q133 0 248 67t183 182.5t68 248.5q0 139 -68 254t-182.5 179.5t-248.5 64.5t-248.5 -64.5t-183 -179.5
t-68.5 -254q0 -100 40.5 -192t108 -159t160 -107t191.5 -40zM731 1475l-76 -170q-9 -15 -24 -15h-58q-12 0 -19 8t-7 19l55 166q8 16 25 16h78q11 0 18.5 -7.5t7.5 -16.5zM1051 1475l-76 -170q-9 -15 -25 -15h-57q-12 0 -19.5 8t-7.5 19l56 166q8 16 24 16h78
q12 0 19.5 -7.5t7.5 -16.5z" />
    <glyph glyph-name="ohungarumlaut" unicode="&#x151;" horiz-adv-x="1171" 
d="M586 891q131 0 240.5 -61.5t172 -166.5t62.5 -229t-62.5 -229t-172 -166.5t-240.5 -61.5t-240.5 61.5t-172 166.5t-62.5 229t62.5 229t172 166.5t240.5 61.5zM586 774q-147 0 -247.5 -96.5t-100.5 -243.5t100.5 -243.5t247.5 -96.5t247.5 96.5t100.5 243.5t-100.5 243.5
t-247.5 96.5zM551 1169l-76 -170q-8 -14 -24 -14h-58q-12 0 -19 8t-7 19l55 166q8 16 24 16h78q12 0 19.5 -8t7.5 -17zM870 1169l-75 -170q-8 -14 -25 -14h-57q-12 0 -19.5 8t-7.5 19l55 166q8 16 25 16h78q11 0 18.5 -7.5t7.5 -17.5z" />
    <glyph glyph-name="OE" unicode="&#x152;" horiz-adv-x="1937" 
d="M1182 117h604q11 0 22 -10.5t11 -22.5v-53q0 -12 -11 -21.5t-22 -9.5h-852q-87 -23 -170 -23q-129 0 -246 48.5t-202 131t-135 196.5t-50 239t50 239t135 196t202 130.5t246 48.5q78 0 166 -20h856q11 0 22 -9.5t11 -21.5v-53q0 -12 -11 -22.5t-22 -10.5h-604v-432h557
q11 0 22 -9.5t11 -21.5v-53q0 -12 -11 -22.5t-22 -10.5h-557v-403zM764 94q162 0 291 90v811q-132 95 -291 95q-135 0 -251 -64.5t-185.5 -179.5t-69.5 -254q0 -133 69.5 -248.5t186 -182.5t250.5 -67z" />
    <glyph glyph-name="oe" unicode="&#x153;" horiz-adv-x="1927" 
d="M1833 434v-18q0 -11 -9.5 -22t-21.5 -11h-741q11 -65 37.5 -116.5t61 -83t77.5 -52.5t82.5 -29t79.5 -8q92 0 198 35q8 4 17 4q10 0 18 -14l33 -53q4 -6 4 -17q0 -22 -18 -29q-148 -43 -254 -43q-132 0 -239.5 58.5t-166.5 161.5q-63 -101 -170 -160.5t-235 -59.5
q-131 0 -240.5 61.5t-172 166.5t-62.5 229t62.5 229t172 166.5t240.5 61.5q129 0 236.5 -60.5t170.5 -162.5q58 104 160.5 164.5t230.5 60.5q195 0 322 -133.5t127 -325.5zM586 774q-147 0 -247.5 -96.5t-100.5 -243.5t100.5 -243.5t247.5 -96.5t247.5 96.5t100.5 243.5
t-100.5 243.5t-247.5 96.5zM1384 774q-66 0 -132.5 -28.5t-121.5 -94t-69 -155.5h645q-10 68 -44.5 123t-81 88t-97 50t-99.5 17z" />
    <glyph glyph-name="Racute" unicode="&#x154;" horiz-adv-x="1089" 
d="M279 377v-344q0 -11 -9.5 -22t-21.5 -11h-64q-12 0 -22 11t-10 22v1120q0 11 10 22t22 11h418q22 0 43 -1t66.5 -9.5t83 -22.5t82 -44.5t75 -71.5t51.5 -107t21 -148q0 -85 -22 -153t-55 -109.5t-78.5 -71.5t-85.5 -43t-83 -20l281 -356q0 -29 -31 -29h-78q-12 0 -22 10
l-287 367h-284zM897 780q0 151 -77.5 220t-209.5 69h-331v-575h331q132 0 209.5 68t77.5 218zM637 1466l-109 -161q-9 -15 -24 -15h-62q-12 0 -19 8t-7 19l88 158q8 16 24 16h82q12 0 19.5 -7.5t7.5 -17.5z" />
    <glyph glyph-name="racute" unicode="&#x155;" horiz-adv-x="749" 
d="M649 754q-89 -5 -162.5 -48.5t-117 -106.5t-67 -132.5t-23.5 -132.5v-301q0 -11 -9.5 -22t-21.5 -11h-64q-12 0 -22 11t-10 22v803q0 11 10 21.5t22 10.5h64q12 0 21.5 -10.5t9.5 -21.5v-177q48 71 107.5 118t115 65.5t88 24t59.5 5.5q11 0 22 -10t11 -22v-54
q0 -12 -11 -22t-22 -10zM391 1161l-108 -162q-8 -14 -25 -14h-61q-12 0 -19.5 8t-7.5 19l88 157q8 17 25 17h82q11 0 18.5 -7.5t7.5 -17.5z" />
    <glyph glyph-name="uni0156" unicode="&#x156;" horiz-adv-x="1089" 
d="M279 377v-344q0 -11 -9.5 -22t-21.5 -11h-64q-12 0 -22 11t-10 22v1120q0 11 10 22t22 11h418q22 0 43 -1t66.5 -9.5t83 -22.5t82 -44.5t75 -71.5t51.5 -107t21 -148q0 -85 -22 -153t-55 -109.5t-78.5 -71.5t-85.5 -43t-83 -20l281 -356q0 -29 -31 -29h-78q-12 0 -22 10
l-287 367h-284zM897 780q0 151 -77.5 220t-209.5 69h-331v-575h331q132 0 209.5 68t77.5 218zM612 -133l-75 -152q-8 -14 -25 -14h-63q-12 0 -19.5 8t-7.5 19l55 147q8 16 25 16h84q12 0 19 -7.5t7 -16.5z" />
    <glyph glyph-name="uni0157" unicode="&#x157;" horiz-adv-x="749" 
d="M649 754q-89 -5 -162.5 -48.5t-117 -106.5t-67 -132.5t-23.5 -132.5v-301q0 -11 -9.5 -22t-21.5 -11h-64q-12 0 -22 11t-10 22v803q0 11 10 21.5t22 10.5h64q12 0 21.5 -10.5t9.5 -21.5v-177q48 71 107.5 118t115 65.5t88 24t59.5 5.5q11 0 22 -10t11 -22v-54
q0 -12 -11 -22t-22 -10zM360 -133l-75 -152q-8 -14 -25 -14h-63q-12 0 -19.5 8t-7.5 19l55 147q8 16 25 16h84q12 0 19 -7.5t7 -16.5z" />
    <glyph glyph-name="Rcaron" unicode="&#x158;" horiz-adv-x="1089" 
d="M279 377v-344q0 -11 -9.5 -22t-21.5 -11h-64q-12 0 -22 11t-10 22v1120q0 11 10 22t22 11h418q22 0 43 -1t66.5 -9.5t83 -22.5t82 -44.5t75 -71.5t51.5 -107t21 -148q0 -85 -22 -153t-55 -109.5t-78.5 -71.5t-85.5 -43t-83 -20l281 -356q0 -29 -31 -29h-78q-12 0 -22 10
l-287 367h-284zM897 780q0 151 -77.5 220t-209.5 69h-331v-575h331q132 0 209.5 68t77.5 218zM567 1290h-110q-18 0 -31 21l-174 268q0 12 10 22.5t23 10.5h67q13 0 27 -21l133 -202l133 202q14 21 27 21h67q13 0 23 -10.5t10 -22.5l-174 -268q-13 -21 -31 -21z" />
    <glyph glyph-name="rcaron" unicode="&#x159;" horiz-adv-x="749" 
d="M649 754q-89 -5 -162.5 -48.5t-117 -106.5t-67 -132.5t-23.5 -132.5v-301q0 -11 -9.5 -22t-21.5 -11h-64q-12 0 -22 11t-10 22v803q0 11 10 21.5t22 10.5h64q12 0 21.5 -10.5t9.5 -21.5v-177q48 71 107.5 118t115 65.5t88 24t59.5 5.5q11 0 22 -10t11 -22v-54
q0 -12 -11 -22t-22 -10zM469 977h-111q-18 0 -30 20l-174 269q0 12 9.5 22t22.5 10h68q14 0 27 -20l133 -203l133 203q13 20 26 20h68q13 0 23 -10t10 -22l-174 -269q-12 -20 -31 -20z" />
    <glyph glyph-name="Sacute" unicode="&#x15a;" horiz-adv-x="1060" 
d="M772 993q-61 47 -138 72t-153 25q-103 0 -176.5 -51.5t-73.5 -145.5q0 -48 20 -87t54.5 -65t80.5 -48.5t98 -38.5t106.5 -35t106.5 -37.5t98 -46.5t80.5 -61t54.5 -82t20 -109q0 -34 -12.5 -72.5t-44 -81t-78.5 -75.5t-123 -55t-170 -22q-271 0 -418 160q-6 8 -6 19
q0 13 13 26l47 39q12 6 20 6q7 0 19 -8q61 -54 149 -89.5t186 -35.5q68 0 122.5 17.5t85 42t50.5 54.5t26.5 52t6.5 37q0 43 -24.5 77.5t-66 58.5t-95.5 44.5t-114 40t-119.5 41.5t-113.5 53t-95.5 70t-66 96.5t-24.5 128.5q0 35 9.5 71.5t37 78.5t69.5 74t113.5 53.5
t162.5 21.5q229 0 368 -139q8 -8 8 -20q0 -11 -8 -19l-49 -37q-11 -8 -20 -8q-10 0 -23 10zM678 1466l-109 -161q-9 -15 -24 -15h-62q-12 0 -19 8t-7 19l88 158q8 16 24 16h82q11 0 19 -7.5t8 -17.5z" />
    <glyph glyph-name="sacute" unicode="&#x15b;" horiz-adv-x="843" 
d="M662 811q12 -10 12 -25q0 -12 -10 -22l-37 -41q-6 -6 -17 -6t-20 6q-101 55 -199 55q-33 0 -62.5 -6t-58 -19.5t-45 -41t-16.5 -66.5q0 -41 24 -71.5t63 -47.5t88.5 -33t102 -27.5t102 -32.5t88.5 -46.5t63 -70t24 -103.5q0 -86 -97 -161t-259 -75q-108 0 -191 34.5
t-133 86.5q-4 8 -4 15q0 12 8 20l49 35q9 6 19 6t16 -6q35 -34 89 -53.5t91 -22.5l37 -2q24 0 44 1t61.5 7.5t69.5 18.5t50.5 38t22.5 62q0 42 -30.5 71.5t-79.5 47t-108 32t-118.5 34.5t-108.5 47.5t-79.5 78t-30.5 119.5q0 43 18 84.5t53.5 78t97.5 59t142 22.5
q167 0 269 -80zM567 1161l-108 -162q-8 -14 -25 -14h-61q-12 0 -19.5 8t-7.5 19l88 157q8 17 25 17h82q11 0 18.5 -7.5t7.5 -17.5z" />
    <glyph glyph-name="Scircumflex" unicode="&#x15c;" horiz-adv-x="1060" 
d="M772 993q-61 47 -138 72t-153 25q-103 0 -176.5 -51.5t-73.5 -145.5q0 -48 20 -87t54.5 -65t80.5 -48.5t98 -38.5t106.5 -35t106.5 -37.5t98 -46.5t80.5 -61t54.5 -82t20 -109q0 -34 -12.5 -72.5t-44 -81t-78.5 -75.5t-123 -55t-170 -22q-271 0 -418 160q-6 8 -6 19
q0 13 13 26l47 39q12 6 20 6q7 0 19 -8q61 -54 149 -89.5t186 -35.5q68 0 122.5 17.5t85 42t50.5 54.5t26.5 52t6.5 37q0 43 -24.5 77.5t-66 58.5t-95.5 44.5t-114 40t-119.5 41.5t-113.5 53t-95.5 70t-66 96.5t-24.5 128.5q0 35 9.5 71.5t37 78.5t69.5 74t113.5 53.5
t162.5 21.5q229 0 368 -139q8 -8 8 -20q0 -11 -8 -19l-49 -37q-11 -8 -20 -8q-10 0 -23 10zM432 1612h111q17 0 30 -21l175 -268q0 -12 -10 -22.5t-23 -10.5h-68q-12 0 -26 21l-134 202l-133 -202q-14 -21 -26 -21h-68q-13 0 -23 10.5t-10 22.5l174 268q13 21 31 21z" />
    <glyph glyph-name="scircumflex" unicode="&#x15d;" horiz-adv-x="843" 
d="M662 811q12 -10 12 -25q0 -12 -10 -22l-37 -41q-6 -6 -17 -6t-20 6q-101 55 -199 55q-33 0 -62.5 -6t-58 -19.5t-45 -41t-16.5 -66.5q0 -41 24 -71.5t63 -47.5t88.5 -33t102 -27.5t102 -32.5t88.5 -46.5t63 -70t24 -103.5q0 -86 -97 -161t-259 -75q-108 0 -191 34.5
t-133 86.5q-4 8 -4 15q0 12 8 20l49 35q9 6 19 6t16 -6q35 -34 89 -53.5t91 -22.5l37 -2q24 0 44 1t61.5 7.5t69.5 18.5t50.5 38t22.5 62q0 42 -30.5 71.5t-79.5 47t-108 32t-118.5 34.5t-108.5 47.5t-79.5 78t-30.5 119.5q0 43 18 84.5t53.5 78t97.5 59t142 22.5
q167 0 269 -80zM344 1307h111q17 0 30 -21l174 -268q0 -12 -9.5 -22.5t-22.5 -10.5h-68q-13 0 -27 21l-133 202l-133 -202q-14 -21 -26 -21h-68q-13 0 -23 10.5t-10 22.5l174 268q13 21 31 21z" />
    <glyph glyph-name="Scedilla" unicode="&#x15e;" horiz-adv-x="1060" 
d="M772 993q-61 47 -138 72t-153 25q-103 0 -176.5 -51.5t-73.5 -145.5q0 -48 20 -87t54.5 -65t80.5 -48.5t98 -38.5t106.5 -35t106.5 -37.5t98 -46.5t80.5 -61t54.5 -82t20 -109q0 -34 -12.5 -72.5t-44 -81t-78.5 -75.5t-123 -55t-170 -22q-271 0 -418 160q-6 8 -6 19
q0 13 13 26l47 39q12 6 20 6q7 0 19 -8q61 -54 149 -89.5t186 -35.5q68 0 122.5 17.5t85 42t50.5 54.5t26.5 52t6.5 37q0 43 -24.5 77.5t-66 58.5t-95.5 44.5t-114 40t-119.5 41.5t-113.5 53t-95.5 70t-66 96.5t-24.5 128.5q0 35 9.5 71.5t37 78.5t69.5 74t113.5 53.5
t162.5 21.5q229 0 368 -139q8 -8 8 -20q0 -11 -8 -19l-49 -37q-11 -8 -20 -8q-10 0 -23 10zM578 -133l-84 -162q-8 -14 -25 -14h-66q-12 0 -19 7.5t-7 18.5l63 158q8 16 25 16h86q12 0 19.5 -7.5t7.5 -16.5z" />
    <glyph glyph-name="scedilla" unicode="&#x15f;" horiz-adv-x="843" 
d="M662 811q12 -10 12 -25q0 -12 -10 -22l-37 -41q-6 -6 -17 -6t-20 6q-101 55 -199 55q-33 0 -62.5 -6t-58 -19.5t-45 -41t-16.5 -66.5q0 -41 24 -71.5t63 -47.5t88.5 -33t102 -27.5t102 -32.5t88.5 -46.5t63 -70t24 -103.5q0 -86 -97 -161t-259 -75q-108 0 -191 34.5
t-133 86.5q-4 8 -4 15q0 12 8 20l49 35q9 6 19 6t16 -6q35 -34 89 -53.5t91 -22.5l37 -2q24 0 44 1t61.5 7.5t69.5 18.5t50.5 38t22.5 62q0 42 -30.5 71.5t-79.5 47t-108 32t-118.5 34.5t-108.5 47.5t-79.5 78t-30.5 119.5q0 43 18 84.5t53.5 78t97.5 59t142 22.5
q167 0 269 -80zM487 -133l-75 -152q-8 -14 -25 -14h-63q-12 0 -19.5 8t-7.5 19l55 147q8 16 25 16h84q11 0 18.5 -7.5t7.5 -16.5z" />
    <glyph glyph-name="Scaron" unicode="&#x160;" horiz-adv-x="1060" 
d="M772 993q-61 47 -138 72t-153 25q-103 0 -176.5 -51.5t-73.5 -145.5q0 -48 20 -87t54.5 -65t80.5 -48.5t98 -38.5t106.5 -35t106.5 -37.5t98 -46.5t80.5 -61t54.5 -82t20 -109q0 -34 -12.5 -72.5t-44 -81t-78.5 -75.5t-123 -55t-170 -22q-271 0 -418 160q-6 8 -6 19
q0 13 13 26l47 39q12 6 20 6q7 0 19 -8q61 -54 149 -89.5t186 -35.5q68 0 122.5 17.5t85 42t50.5 54.5t26.5 52t6.5 37q0 43 -24.5 77.5t-66 58.5t-95.5 44.5t-114 40t-119.5 41.5t-113.5 53t-95.5 70t-66 96.5t-24.5 128.5q0 35 9.5 71.5t37 78.5t69.5 74t113.5 53.5
t162.5 21.5q229 0 368 -139q8 -8 8 -20q0 -11 -8 -19l-49 -37q-11 -8 -20 -8q-10 0 -23 10zM549 1290h-111q-17 0 -30 21l-175 268q0 12 10 22.5t23 10.5h68q12 0 26 -21l134 -202l133 202q14 21 26 21h68q13 0 23 -10.5t10 -22.5l-174 -268q-13 -21 -31 -21z" />
    <glyph glyph-name="scaron" unicode="&#x161;" horiz-adv-x="843" 
d="M662 811q12 -10 12 -25q0 -12 -10 -22l-37 -41q-6 -6 -17 -6t-20 6q-101 55 -199 55q-33 0 -62.5 -6t-58 -19.5t-45 -41t-16.5 -66.5q0 -41 24 -71.5t63 -47.5t88.5 -33t102 -27.5t102 -32.5t88.5 -46.5t63 -70t24 -103.5q0 -86 -97 -161t-259 -75q-108 0 -191 34.5
t-133 86.5q-4 8 -4 15q0 12 8 20l49 35q9 6 19 6t16 -6q35 -34 89 -53.5t91 -22.5l37 -2q24 0 44 1t61.5 7.5t69.5 18.5t50.5 38t22.5 62q0 42 -30.5 71.5t-79.5 47t-108 32t-118.5 34.5t-108.5 47.5t-79.5 78t-30.5 119.5q0 43 18 84.5t53.5 78t97.5 59t142 22.5
q167 0 269 -80zM469 985h-111q-17 0 -30 21l-174 268q0 12 9.5 22.5t22.5 10.5h68q13 0 27 -21l133 -203l133 203q14 21 26 21h68q13 0 23 -10.5t10 -22.5l-174 -268q-13 -21 -31 -21z" />
    <glyph glyph-name="uni0162" unicode="&#x162;" horiz-adv-x="1150" 
d="M512 1069h-379q-11 0 -22 10.5t-11 22.5v53q0 12 11 21.5t22 9.5h885q11 0 22 -9.5t11 -21.5v-53q0 -12 -11 -22.5t-22 -10.5h-379v-1036q0 -11 -9.5 -22t-21.5 -11h-63q-12 0 -22.5 11t-10.5 22v1036zM633 -133l-76 -152q-8 -14 -25 -14h-63q-12 0 -19.5 8t-7.5 19
l56 147q8 16 24 16h84q12 0 19.5 -7.5t7.5 -16.5z" />
    <glyph glyph-name="uni0163" unicode="&#x163;" horiz-adv-x="788" 
d="M287 868v301q0 19 22 25l76 23q10 0 19.5 -10t9.5 -19v-320h231q11 0 22 -9.5t11 -20.5v-54q0 -12 -11 -22t-22 -10h-231v-437q0 -15 0.5 -27t5 -34t12.5 -38.5t24.5 -36t39 -32.5t58 -21.5t79.5 -8.5h10q11 0 22 -9t11 -20v-53q0 -12 -11 -22.5t-22 -10.5q-8 0 -35.5 -1
t-46.5 -1q-16 0 -29 0.5t-43 7t-53.5 18t-53 35.5t-49 57t-33 86.5t-13.5 119.5v428h-176q-11 0 -22 10t-11 22v54q0 11 11 20.5t22 9.5h176zM586 -133l-76 -152q-8 -14 -25 -14h-63q-12 0 -19.5 8t-7.5 19l56 147q8 16 24 16h84q12 0 19.5 -7.5t7.5 -16.5z" />
    <glyph glyph-name="Tcaron" unicode="&#x164;" horiz-adv-x="1150" 
d="M512 1069h-379q-11 0 -22 10.5t-11 22.5v53q0 12 11 21.5t22 9.5h885q11 0 22 -9.5t11 -21.5v-53q0 -12 -11 -22.5t-22 -10.5h-379v-1036q0 -11 -9.5 -22t-21.5 -11h-63q-12 0 -22.5 11t-10.5 22v1036zM631 1290h-111q-18 0 -31 21l-174 268q0 12 10 22.5t23 10.5h68
q12 0 26 -21l133 -202l134 202q14 21 26 21h68q13 0 23 -10.5t10 -22.5l-174 -268q-13 -21 -31 -21z" />
    <glyph glyph-name="tcaron" unicode="&#x165;" horiz-adv-x="1054" 
d="M287 868v301q0 19 22 25l76 23q10 0 19.5 -10t9.5 -19v-320h231q11 0 22 -9.5t11 -20.5v-54q0 -12 -11 -22t-22 -10h-231v-437q0 -15 0.5 -27t5 -34t12.5 -38.5t24.5 -36t39 -32.5t58 -21.5t79.5 -8.5h10q11 0 22 -9t11 -20v-53q0 -12 -11 -22.5t-22 -10.5q-8 0 -35.5 -1
t-46.5 -1q-16 0 -29 0.5t-43 7t-53.5 18t-53 35.5t-49 57t-33 86.5t-13.5 119.5v428h-176q-11 0 -22 10t-11 22v54q0 11 11 20.5t22 9.5h176zM1022 1200l-72 -162q-8 -14 -24 -14h-62q-12 0 -19 8t-7 19l47 157q9 17 24 17h86q11 0 19 -7.5t8 -17.5z" />
    <glyph glyph-name="Tbar" unicode="&#x166;" horiz-adv-x="1150" 
d="M870 463h-231v-430q0 -11 -9.5 -22t-21.5 -11h-63q-12 0 -22.5 11t-10.5 22v430h-231q-11 0 -22 10.5t-11 22.5v53q0 12 11 21.5t22 9.5h231v489h-379q-11 0 -22 10.5t-11 22.5v53q0 12 11 21.5t22 9.5h885q11 0 22 -9.5t11 -21.5v-53q0 -12 -11 -22.5t-22 -10.5h-379
v-489h231q11 0 22 -9.5t11 -21.5v-53q0 -12 -11 -22.5t-22 -10.5z" />
    <glyph glyph-name="tbar" unicode="&#x167;" horiz-adv-x="788" 
d="M111 565h176v330h-176q-11 0 -22 10.5t-11 22.5v53q0 12 11 21.5t22 9.5h176v157q0 19 22 25l76 23q10 0 19.5 -10t9.5 -19v-176h231q11 0 22 -9.5t11 -21.5v-53q0 -12 -11 -22.5t-22 -10.5h-231v-330h231q11 0 22 -9.5t11 -20.5v-54q0 -12 -11 -22t-22 -10h-231v-134
q0 -15 0.5 -27t5 -34t12.5 -38.5t24.5 -36t39 -32.5t58 -21.5t79.5 -8.5h10q11 0 22 -9t11 -20v-53q0 -12 -11 -22.5t-22 -10.5q-8 0 -35.5 -1t-46.5 -1q-16 0 -29 0.5t-43 7t-53.5 18t-53 35.5t-49 57t-33 86.5t-13.5 119.5v125h-176q-11 0 -22 10t-11 22v54q0 11 11 20.5
t22 9.5z" />
    <glyph glyph-name="Utilde" unicode="&#x168;" horiz-adv-x="1228" 
d="M614 -23q-16 0 -35 1t-69 10.5t-94 26t-97 52t-91 83.5t-63.5 126t-25.5 175v702q0 11 10.5 22t22.5 11h64q11 0 20.5 -11t9.5 -22v-702q0 -18 1.5 -38t9.5 -57t21 -69.5t39 -69.5t61.5 -63t91.5 -43t124 -17t124 17t91.5 43t62 63t39.5 69.5t21 69.5t9.5 57t1.5 38v702
q0 11 9.5 22t20.5 11h64q12 0 22.5 -11t10.5 -22v-702q0 -97 -26 -175t-63.5 -126t-91 -83.5t-97 -52t-94 -26t-69.5 -10.5t-35 -1zM799 1290q-62 0 -176.5 49.5t-167.5 49.5q-78 0 -93 -86q-3 -15 -20 -15h-57q-25 0 -25 25q7 52 25 90.5t37 57t44 29.5t39 13t29 2
q65 0 181.5 -49t162.5 -49q77 0 92 86q3 14 21 14h57q25 0 25 -24q-7 -52 -25 -90.5t-37 -57.5t-44 -30t-39.5 -13t-28.5 -2z" />
    <glyph glyph-name="utilde" unicode="&#x169;" horiz-adv-x="1089" 
d="M545 -23q-78 0 -141 18t-104 45.5t-72 66.5t-47 75.5t-25.5 79t-12 70t-2.5 55.5v449q0 11 10.5 21.5t22.5 10.5h64q12 0 21 -10.5t9 -21.5v-457q0 -31 5 -62.5t22.5 -73.5t46 -73.5t81.5 -53.5t122 -22t122 22t81 53.5t45.5 73.5t22.5 73.5t5 62.5v457q0 11 9.5 21.5
t21.5 10.5h63q12 0 22.5 -10.5t10.5 -21.5v-449q0 -28 -2.5 -55.5t-12 -70t-25.5 -79t-46.5 -76t-71.5 -66.5t-104 -45t-141 -18zM731 985q-62 0 -176.5 49t-167.5 49q-77 0 -92 -86q-3 -14 -21 -14h-57q-24 0 -24 25q7 52 25 90.5t37 57t44 29.5t39 13t29 2q65 0 181.5 -49
t162.5 -49q77 0 92 86q3 14 20 14h58q24 0 24 -24q-7 -52 -25 -90.5t-37 -57.5t-44 -30t-39.5 -13t-28.5 -2z" />
    <glyph glyph-name="Umacron" unicode="&#x16a;" horiz-adv-x="1228" 
d="M614 -23q-16 0 -35 1t-69 10.5t-94 26t-97 52t-91 83.5t-63.5 126t-25.5 175v702q0 11 10.5 22t22.5 11h64q11 0 20.5 -11t9.5 -22v-702q0 -18 1.5 -38t9.5 -57t21 -69.5t39 -69.5t61.5 -63t91.5 -43t124 -17t124 17t91.5 43t62 63t39.5 69.5t21 69.5t9.5 57t1.5 38v702
q0 11 9.5 22t20.5 11h64q12 0 22.5 -11t10.5 -22v-702q0 -97 -26 -175t-63.5 -126t-91 -83.5t-97 -52t-94 -26t-69.5 -10.5t-35 -1zM846 1290h-461q-11 0 -22 10.5t-11 22.5v53q0 12 11 21.5t22 9.5h461q11 0 22 -9.5t11 -21.5v-53q0 -12 -11 -22.5t-22 -10.5z" />
    <glyph glyph-name="umacron" unicode="&#x16b;" horiz-adv-x="1089" 
d="M545 -23q-78 0 -141 18t-104 45.5t-72 66.5t-47 75.5t-25.5 79t-12 70t-2.5 55.5v449q0 11 10.5 21.5t22.5 10.5h64q12 0 21 -10.5t9 -21.5v-457q0 -31 5 -62.5t22.5 -73.5t46 -73.5t81.5 -53.5t122 -22t122 22t81 53.5t45.5 73.5t22.5 73.5t5 62.5v457q0 11 9.5 21.5
t21.5 10.5h63q12 0 22.5 -10.5t10.5 -21.5v-449q0 -28 -2.5 -55.5t-12 -70t-25.5 -79t-46.5 -76t-71.5 -66.5t-104 -45t-141 -18zM776 985h-461q-11 0 -21.5 10.5t-10.5 22.5v53q0 12 10.5 21.5t21.5 9.5h461q11 0 22 -9.5t11 -21.5v-53q0 -12 -11 -22.5t-22 -10.5z" />
    <glyph glyph-name="Ubreve" unicode="&#x16c;" horiz-adv-x="1228" 
d="M614 -23q-16 0 -35 1t-69 10.5t-94 26t-97 52t-91 83.5t-63.5 126t-25.5 175v702q0 11 10.5 22t22.5 11h64q11 0 20.5 -11t9.5 -22v-702q0 -18 1.5 -38t9.5 -57t21 -69.5t39 -69.5t61.5 -63t91.5 -43t124 -17t124 17t91.5 43t62 63t39.5 69.5t21 69.5t9.5 57t1.5 38v702
q0 11 9.5 22t20.5 11h64q12 0 22.5 -11t10.5 -22v-702q0 -97 -26 -175t-63.5 -126t-91 -83.5t-97 -52t-94 -26t-69.5 -10.5t-35 -1zM614 1290q-140 0 -229 57.5t-117 165.5q0 9 8 18t17 9h69q18 0 25 -18q45 -127 227 -127q183 0 228 127q7 18 24 18h70q9 0 17 -9t8 -18
q-28 -108 -117.5 -165.5t-229.5 -57.5z" />
    <glyph glyph-name="ubreve" unicode="&#x16d;" horiz-adv-x="1089" 
d="M545 -23q-78 0 -141 18t-104 45.5t-72 66.5t-47 75.5t-25.5 79t-12 70t-2.5 55.5v449q0 11 10.5 21.5t22.5 10.5h64q12 0 21 -10.5t9 -21.5v-457q0 -31 5 -62.5t22.5 -73.5t46 -73.5t81.5 -53.5t122 -22t122 22t81 53.5t45.5 73.5t22.5 73.5t5 62.5v457q0 11 9.5 21.5
t21.5 10.5h63q12 0 22.5 -10.5t10.5 -21.5v-449q0 -28 -2.5 -55.5t-12 -70t-25.5 -79t-46.5 -76t-71.5 -66.5t-104 -45t-141 -18zM547 985q-140 0 -229 57.5t-117 165.5q0 9 7.5 18t16.5 9h70q17 0 24 -18q45 -127 228 -127q182 0 227 127q7 18 25 18h69q9 0 17 -9t8 -18
q-28 -108 -117 -165.5t-229 -57.5z" />
    <glyph glyph-name="Uring" unicode="&#x16e;" horiz-adv-x="1228" 
d="M614 -23q-16 0 -35 1t-69 10.5t-94 26t-97 52t-91 83.5t-63.5 126t-25.5 175v702q0 11 10.5 22t22.5 11h64q11 0 20.5 -11t9.5 -22v-702q0 -18 1.5 -38t9.5 -57t21 -69.5t39 -69.5t61.5 -63t91.5 -43t124 -17t124 17t91.5 43t62 63t39.5 69.5t21 69.5t9.5 57t1.5 38v702
q0 11 9.5 22t20.5 11h64q12 0 22.5 -11t10.5 -22v-702q0 -97 -26 -175t-63.5 -126t-91 -83.5t-97 -52t-94 -26t-69.5 -10.5t-35 -1zM616 1757q97 0 166.5 -68.5t69.5 -164.5q0 -95 -69.5 -164.5t-166.5 -69.5q-95 0 -164 69.5t-69 164.5q0 96 68.5 164.5t164.5 68.5z
M616 1411q45 0 79 34t34 79q0 47 -33.5 79.5t-79.5 32.5q-47 0 -79.5 -32.5t-32.5 -79.5q0 -45 33 -79t79 -34z" />
    <glyph glyph-name="uring" unicode="&#x16f;" horiz-adv-x="1089" 
d="M545 -23q-78 0 -141 18t-104 45.5t-72 66.5t-47 75.5t-25.5 79t-12 70t-2.5 55.5v449q0 11 10.5 21.5t22.5 10.5h64q12 0 21 -10.5t9 -21.5v-457q0 -31 5 -62.5t22.5 -73.5t46 -73.5t81.5 -53.5t122 -22t122 22t81 53.5t45.5 73.5t22.5 73.5t5 62.5v457q0 11 9.5 21.5
t21.5 10.5h63q12 0 22.5 -10.5t10.5 -21.5v-449q0 -28 -2.5 -55.5t-12 -70t-25.5 -79t-46.5 -76t-71.5 -66.5t-104 -45t-141 -18zM545 1452q97 0 166 -68t69 -165q0 -95 -69 -164.5t-166 -69.5q-95 0 -164.5 69.5t-69.5 164.5q0 96 69 164.5t165 68.5zM545 1106
q45 0 78.5 34t33.5 79q0 47 -33 79.5t-79 32.5q-47 0 -80 -32.5t-33 -79.5q0 -45 33 -79t80 -34z" />
    <glyph glyph-name="Uhungarumlaut" unicode="&#x170;" horiz-adv-x="1228" 
d="M614 -23q-16 0 -35 1t-69 10.5t-94 26t-97 52t-91 83.5t-63.5 126t-25.5 175v702q0 11 10.5 22t22.5 11h64q11 0 20.5 -11t9.5 -22v-702q0 -18 1.5 -38t9.5 -57t21 -69.5t39 -69.5t61.5 -63t91.5 -43t124 -17t124 17t91.5 43t62 63t39.5 69.5t21 69.5t9.5 57t1.5 38v702
q0 11 9.5 22t20.5 11h64q12 0 22.5 -11t10.5 -22v-702q0 -97 -26 -175t-63.5 -126t-91 -83.5t-97 -52t-94 -26t-69.5 -10.5t-35 -1zM596 1475l-76 -170q-9 -15 -24 -15h-58q-12 0 -19 8t-7 19l55 166q8 16 25 16h77q12 0 19.5 -7.5t7.5 -16.5zM915 1475l-75 -170
q-9 -15 -25 -15h-57q-12 0 -19.5 8t-7.5 19l55 166q8 16 25 16h78q11 0 18.5 -7.5t7.5 -16.5z" />
    <glyph glyph-name="uhungarumlaut" unicode="&#x171;" horiz-adv-x="1089" 
d="M545 -23q-78 0 -141 18t-104 45.5t-72 66.5t-47 75.5t-25.5 79t-12 70t-2.5 55.5v449q0 11 10.5 21.5t22.5 10.5h64q12 0 21 -10.5t9 -21.5v-457q0 -31 5 -62.5t22.5 -73.5t46 -73.5t81.5 -53.5t122 -22t122 22t81 53.5t45.5 73.5t22.5 73.5t5 62.5v457q0 11 9.5 21.5
t21.5 10.5h63q12 0 22.5 -10.5t10.5 -21.5v-449q0 -28 -2.5 -55.5t-12 -70t-25.5 -79t-46.5 -76t-71.5 -66.5t-104 -45t-141 -18zM526 1169l-75 -170q-8 -14 -25 -14h-57q-12 0 -19.5 8t-7.5 19l55 166q8 16 25 16h78q11 0 18.5 -7.5t7.5 -17.5zM846 1169l-76 -170
q-8 -14 -25 -14h-57q-12 0 -19 8t-7 19l55 166q8 16 24 16h78q11 0 19 -8t8 -17z" />
    <glyph glyph-name="Uogonek" unicode="&#x172;" horiz-adv-x="1228" 
d="M1057 1186q12 0 22.5 -11t10.5 -22v-702q0 -108 -32.5 -193t-78 -133t-108 -81t-108.5 -45t-93 -17v-134q0 -14 -19 -18l-14 -2q-10 -2 -25.5 -5.5t-41 -20.5t-25.5 -40q0 -41 20.5 -55t69.5 -14q17 0 57 4q9 0 15 -6.5t6 -14.5v-51q0 -14 -21 -18q-29 -2 -82 -2
q-27 0 -52.5 6t-53.5 20.5t-45 46t-17 76.5q0 49 30 84.5t60 46.5l29 11v86q-32 4 -63 10.5t-74.5 22t-81 37t-76 58.5t-66 83t-44.5 112.5t-17 145.5v702q0 11 10.5 22t22.5 11h64q11 0 20.5 -11t9.5 -22v-702q0 -18 1.5 -38t9.5 -57t21 -69.5t39 -69.5t61.5 -63t91.5 -43
t124 -17t124 17t91.5 43t62 63t39.5 69.5t21 69.5t9.5 57t1.5 38v702q0 11 9.5 22t20.5 11h64z" />
    <glyph glyph-name="uogonek" unicode="&#x173;" horiz-adv-x="1089" 
d="M948 387q0 -40 -4.5 -79t-25.5 -98.5t-56.5 -104.5t-104.5 -81.5t-163 -43.5v-132q0 -14 -19 -18l-14 -2q-10 -2 -25.5 -5.5t-41 -20.5t-25.5 -40q0 -41 20.5 -55t69.5 -14q17 0 57 4q9 0 15 -6.5t6 -14.5v-51q0 -14 -21 -18q-29 -2 -81 -2q-27 0 -52.5 6t-53.5 20.5
t-45 46t-17 76.5q0 31 12 57t29.5 41t35 25.5t29.5 14.5l12 4v86q-66 6 -120 27t-89 49t-61.5 66t-40 72t-21.5 74t-10 65.5t-2 51.5v449q0 11 10.5 21.5t22.5 10.5h64q12 0 21 -10.5t9 -21.5v-457q0 -31 5 -62.5t22.5 -73.5t46 -73.5t81.5 -53.5t122 -22t122 22t81 53.5
t45.5 73.5t22.5 73.5t5 62.5v457q0 11 9.5 21.5t21.5 10.5h63q12 0 22.5 -10.5t10.5 -21.5v-449z" />
    <glyph glyph-name="Ydieresis" unicode="&#x178;" horiz-adv-x="1085" 
d="M606 399v-366q0 -11 -9.5 -22t-21.5 -11h-63q-12 0 -22.5 11t-10.5 22v366l-413 756q0 12 9 21.5t21 9.5h80q16 0 27 -21l340 -616l340 616q11 21 26 21h80q12 0 21.5 -9.5t9.5 -21.5zM315 1372q0 35 23.5 59.5t58.5 24.5t59.5 -24.5t24.5 -59.5t-24.5 -58.5t-59.5 -23.5
t-58.5 23.5t-23.5 58.5zM608 1372q0 35 23.5 59.5t58.5 24.5t59.5 -24.5t24.5 -59.5t-24.5 -58.5t-59.5 -23.5t-58.5 23.5t-23.5 58.5z" />
    <glyph glyph-name="Zacute" unicode="&#x179;" horiz-adv-x="1073" 
d="M109 162l712 907h-663q-11 0 -22 10.5t-11 22.5v53q0 12 11 21.5t22 9.5h762q11 0 21.5 -9.5t10.5 -21.5v-115q0 -8 -8 -20l-708 -903h704q11 0 22 -10.5t11 -22.5v-53q0 -12 -11 -21.5t-22 -9.5h-807q-11 0 -22 9.5t-11 21.5v110q0 7 9 21zM719 1466l-109 -161
q-9 -15 -24 -15h-62q-12 0 -19 8t-7 19l88 158q8 16 24 16h82q12 0 19.5 -7.5t7.5 -17.5z" />
    <glyph glyph-name="zacute" unicode="&#x17a;" horiz-adv-x="935" 
d="M127 152l545 600h-520q-11 0 -22 10t-11 22v54q0 11 11 20.5t22 9.5h632q11 0 22 -9.5t11 -20.5v-101q0 -8 -8 -20l-545 -600h520q11 0 22 -10.5t11 -22.5v-53q0 -12 -11 -21.5t-22 -9.5h-632q-11 0 -22 9.5t-11 21.5v100q0 9 8 21zM645 1161l-108 -162q-8 -14 -25 -14
h-61q-12 0 -19.5 8t-7.5 19l88 157q8 17 25 17h81q12 0 19.5 -8t7.5 -17z" />
    <glyph glyph-name="Zdotaccent" unicode="&#x17b;" horiz-adv-x="1073" 
d="M109 162l712 907h-663q-11 0 -22 10.5t-11 22.5v53q0 12 11 21.5t22 9.5h762q11 0 21.5 -9.5t10.5 -21.5v-115q0 -8 -8 -20l-708 -903h704q11 0 22 -10.5t11 -22.5v-53q0 -12 -11 -21.5t-22 -9.5h-807q-11 0 -22 9.5t-11 21.5v110q0 7 9 21zM457 1372q0 35 23.5 59.5
t58.5 24.5t59.5 -24.5t24.5 -59.5t-24.5 -58.5t-59.5 -23.5t-58.5 23.5t-23.5 58.5z" />
    <glyph glyph-name="zdotaccent" unicode="&#x17c;" horiz-adv-x="935" 
d="M127 152l545 600h-520q-11 0 -22 10t-11 22v54q0 11 11 20.5t22 9.5h632q11 0 22 -9.5t11 -20.5v-101q0 -8 -8 -20l-545 -600h520q11 0 22 -10.5t11 -22.5v-53q0 -12 -11 -21.5t-22 -9.5h-632q-11 0 -22 9.5t-11 21.5v100q0 9 8 21zM385 1067q0 35 23.5 59.5t58.5 24.5
t59.5 -24.5t24.5 -59.5t-24.5 -58.5t-59.5 -23.5t-58.5 23.5t-23.5 58.5z" />
    <glyph glyph-name="Zcaron" unicode="&#x17d;" horiz-adv-x="1073" 
d="M109 162l712 907h-663q-11 0 -22 10.5t-11 22.5v53q0 12 11 21.5t22 9.5h762q11 0 21.5 -9.5t10.5 -21.5v-115q0 -8 -8 -20l-708 -903h704q11 0 22 -10.5t11 -22.5v-53q0 -12 -11 -21.5t-22 -9.5h-807q-11 0 -22 9.5t-11 21.5v110q0 7 9 21zM596 1290h-111q-17 0 -30 21
l-174 268q0 12 9.5 22.5t22.5 10.5h68q13 0 27 -21l133 -202l133 202q14 21 26 21h68q13 0 23 -10.5t10 -22.5l-174 -268q-13 -21 -31 -21z" />
    <glyph glyph-name="zcaron" unicode="&#x17e;" horiz-adv-x="935" 
d="M127 152l545 600h-520q-11 0 -22 10t-11 22v54q0 11 11 20.5t22 9.5h632q11 0 22 -9.5t11 -20.5v-101q0 -8 -8 -20l-545 -600h520q11 0 22 -10.5t11 -22.5v-53q0 -12 -11 -21.5t-22 -9.5h-632q-11 0 -22 9.5t-11 21.5v100q0 9 8 21zM526 985h-110q-18 0 -31 21l-174 268
q0 12 10 22.5t23 10.5h67q13 0 27 -21l133 -203l133 203q14 21 27 21h67q13 0 23 -10.5t10 -22.5l-174 -268q-13 -21 -31 -21z" />
    <glyph glyph-name="florin" unicode="&#x192;" horiz-adv-x="757" 
d="M674 1143h-53q-76 0 -135 -61t-78 -158l-11 -56h236q9 0 16.5 -7t7.5 -17l-14 -70q-7 -24 -27 -24h-237l-189 -1108q-2 -6 -8.5 -11.5t-13.5 -5.5h-82q-9 0 -16 7.5t-7 15.5l185 1102h-162q-9 0 -17 7t-8 17l9 70q7 24 26 24h172l11 58q16 78 47.5 140t67.5 98.5
t77.5 60.5t75.5 32.5t63 8.5q26 0 80 -4q9 0 17 -7.5t8 -17.5l-15 -70q-7 -24 -26 -24z" />
    <glyph glyph-name="uni0218" unicode="&#x218;" horiz-adv-x="1060" 
d="M772 993q-61 47 -138 72t-153 25q-103 0 -176.5 -51.5t-73.5 -145.5q0 -48 20 -87t54.5 -65t80.5 -48.5t98 -38.5t106.5 -35t106.5 -37.5t98 -46.5t80.5 -61t54.5 -82t20 -109q0 -34 -12.5 -72.5t-44 -81t-78.5 -75.5t-123 -55t-170 -22q-271 0 -418 160q-6 8 -6 19
q0 13 13 26l47 39q12 6 20 6q7 0 19 -8q61 -54 149 -89.5t186 -35.5q68 0 122.5 17.5t85 42t50.5 54.5t26.5 52t6.5 37q0 43 -24.5 77.5t-66 58.5t-95.5 44.5t-114 40t-119.5 41.5t-113.5 53t-95.5 70t-66 96.5t-24.5 128.5q0 35 9.5 71.5t37 78.5t69.5 74t113.5 53.5
t162.5 21.5q229 0 368 -139q8 -8 8 -20q0 -11 -8 -19l-49 -37q-11 -8 -20 -8q-10 0 -23 10zM569 -133l-75 -152q-8 -14 -25 -14h-63q-12 0 -19.5 8t-7.5 19l55 147q8 16 25 16h84q11 0 18.5 -7.5t7.5 -16.5z" />
    <glyph glyph-name="uni0219" unicode="&#x219;" horiz-adv-x="843" 
d="M662 811q12 -10 12 -25q0 -12 -10 -22l-37 -41q-6 -6 -17 -6t-20 6q-101 55 -199 55q-33 0 -62.5 -6t-58 -19.5t-45 -41t-16.5 -66.5q0 -41 24 -71.5t63 -47.5t88.5 -33t102 -27.5t102 -32.5t88.5 -46.5t63 -70t24 -103.5q0 -86 -97 -161t-259 -75q-108 0 -191 34.5
t-133 86.5q-4 8 -4 15q0 12 8 20l49 35q9 6 19 6t16 -6q35 -34 89 -53.5t91 -22.5l37 -2q24 0 44 1t61.5 7.5t69.5 18.5t50.5 38t22.5 62q0 42 -30.5 71.5t-79.5 47t-108 32t-118.5 34.5t-108.5 47.5t-79.5 78t-30.5 119.5q0 43 18 84.5t53.5 78t97.5 59t142 22.5
q167 0 269 -80zM492 -133l-76 -152q-8 -14 -25 -14h-63q-12 0 -19.5 8t-7.5 19l55 147q8 16 25 16h84q12 0 19.5 -7.5t7.5 -16.5z" />
    <glyph glyph-name="uni021A" unicode="&#x21a;" horiz-adv-x="1150" 
d="M629 -133l-76 -152q-8 -14 -25 -14h-63q-12 0 -19.5 8t-7.5 19l56 147q8 16 24 16h84q12 0 19.5 -7.5t7.5 -16.5zM512 1069h-379q-11 0 -22 10.5t-11 22.5v53q0 12 11 21.5t22 9.5h885q11 0 22 -9.5t11 -21.5v-53q0 -12 -11 -22.5t-22 -10.5h-379v-1036q0 -11 -9.5 -22
t-21.5 -11h-63q-12 0 -22.5 11t-10.5 22v1036z" />
    <glyph glyph-name="uni021B" unicode="&#x21b;" horiz-adv-x="788" 
d="M287 868v301q0 19 22 25l76 23q10 0 19.5 -10t9.5 -19v-320h231q11 0 22 -9.5t11 -20.5v-54q0 -12 -11 -22t-22 -10h-231v-437q0 -15 0.5 -27t5 -34t12.5 -38.5t24.5 -36t39 -32.5t58 -21.5t79.5 -8.5h10q11 0 22 -9t11 -20v-53q0 -12 -11 -22.5t-22 -10.5q-8 0 -35.5 -1
t-46.5 -1q-16 0 -29 0.5t-43 7t-53.5 18t-53 35.5t-49 57t-33 86.5t-13.5 119.5v428h-176q-11 0 -22 10t-11 22v54q0 11 11 20.5t22 9.5h176zM559 -133l-76 -152q-8 -14 -24 -14h-64q-12 0 -19 8t-7 19l55 147q8 16 25 16h83q12 0 19.5 -7.5t7.5 -16.5z" />
    <glyph glyph-name="circumflex" unicode="&#x2c6;" horiz-adv-x="823" 
d="M356 1186h111q18 0 31 -21l174 -268q0 -12 -10 -22.5t-23 -10.5h-68q-12 0 -26 21l-133 202l-133 -202q-14 -21 -27 -21h-68q-13 0 -22.5 10.5t-9.5 22.5l174 268q13 21 30 21z" />
    <glyph glyph-name="caron" unicode="&#x2c7;" horiz-adv-x="823" 
d="M467 864h-111q-17 0 -30 21l-174 268q0 12 9.5 22.5t22.5 10.5h68q13 0 27 -21l133 -202l133 202q14 21 26 21h68q13 0 23 -10.5t10 -22.5l-174 -268q-13 -21 -31 -21z" />
    <glyph glyph-name="breve" unicode="&#x2d8;" horiz-adv-x="995" 
d="M498 936q-140 0 -229 57.5t-117 165.5q0 9 7.5 18t16.5 9h70q16 0 24 -19q45 -127 228 -127q182 0 227 127q8 19 25 19h69q9 0 17 -9t8 -18q-28 -108 -117 -165.5t-229 -57.5z" />
    <glyph glyph-name="dotaccent" unicode="&#x2d9;" horiz-adv-x="468" 
d="M152 1102q0 36 23 60t58 24t59.5 -24.5t24.5 -59.5t-24.5 -58.5t-59.5 -23.5t-58 23.5t-23 58.5z" />
    <glyph glyph-name="ring" unicode="&#x2da;" horiz-adv-x="772" 
d="M385 1186q97 0 166.5 -68.5t69.5 -165.5q0 -95 -69.5 -164t-166.5 -69q-95 0 -164 69t-69 164q0 96 69 165t164 69zM385 840q45 0 79 34t34 78q0 47 -33.5 80t-79.5 33q-47 0 -80 -33t-33 -80q0 -45 33 -78.5t80 -33.5z" />
    <glyph glyph-name="ogonek" unicode="&#x2db;" horiz-adv-x="573" 
d="M291 -14h67q21 0 21 -23v-115q0 -14 -19 -18l-14 -2q-10 -2 -25.5 -5.5t-41 -20.5t-25.5 -40q0 -41 20.5 -55t69.5 -14q17 0 57 4q9 0 15 -6.5t6 -14.5v-51q0 -14 -21 -18q-29 -2 -82 -2q-27 0 -52.5 6t-53 20.5t-44.5 46t-17 76.5q0 31 12 57t29.5 41t35 25.5t29.5 14.5
l12 4v67q0 23 21 23z" />
    <glyph glyph-name="tilde" unicode="&#x2dc;" horiz-adv-x="1015" 
d="M690 971q-62 0 -176.5 49t-167.5 49q-77 0 -92 -86q-3 -14 -21 -14h-57q-24 0 -24 24q7 52 25 90.5t37 57.5t44 30t39.5 13t28.5 2q65 0 181.5 -49.5t162.5 -49.5q77 0 92 87q3 14 20 14h58q24 0 24 -25q-7 -52 -25 -90.5t-37 -57t-44 -29.5t-39 -13t-29 -2z" />
    <glyph glyph-name="hungarumlaut" unicode="&#x2dd;" horiz-adv-x="806" 
d="M336 1161l-76 -170q-8 -14 -24 -14h-58q-12 0 -19 8t-7 19l55 165q9 17 24 17h78q11 0 19 -8t8 -17zM655 1161l-75 -170q-8 -14 -25 -14h-57q-12 0 -19.5 8t-7.5 19l55 165q8 17 25 17h78q11 0 18.5 -7.5t7.5 -17.5z" />
    <glyph glyph-name="uni03A9" unicode="&#x3a9;" horiz-adv-x="1433" 
d="M717 1206q125 0 220 -48t152.5 -133t86 -194t28.5 -239q0 -107 -32 -236t-97 -239h176q11 0 21 -8.5t10 -18.5v-61q0 -10 -10 -19.5t-21 -9.5h-295q-11 0 -20.5 9.5t-9.5 19.5v86q0 13 12 22q71 71 105 196.5t34 258.5q0 498 -360 498q-85 0 -150.5 -29t-104.5 -76
t-63.5 -114t-33.5 -134t-9 -145q0 -133 34.5 -258.5t105.5 -196.5q12 -9 12 -22v-86q0 -10 -10 -19.5t-21 -9.5h-295q-11 0 -20.5 9.5t-9.5 19.5v61q0 10 9.5 18.5t20.5 8.5h176q-65 110 -97 239t-32 236q0 130 29 239t86.5 194t152.5 133t220 48z" />
    <glyph glyph-name="pi" unicode="&#x3c0;" horiz-adv-x="1589" 
d="M1405 752h-268v-719q0 -11 -10.5 -22t-22.5 -11h-64q-11 0 -20.5 11t-9.5 22v719h-430v-719q0 -11 -9.5 -22t-21.5 -11h-64q-12 0 -22 11t-10 22v719h-269q-11 0 -21.5 10t-10.5 22v54q0 12 10.5 21t21.5 9h1221q11 0 22 -9.5t11 -20.5v-54q0 -12 -11 -22t-22 -10z" />
    <glyph glyph-name="endash" unicode="&#x2013;" horiz-adv-x="829" 
d="M645 334h-461q-11 0 -21.5 10.5t-10.5 22.5v53q0 12 10.5 21.5t21.5 9.5h461q11 0 22 -9.5t11 -21.5v-53q0 -12 -11 -22.5t-22 -10.5z" />
    <glyph glyph-name="emdash" unicode="&#x2014;" horiz-adv-x="952" 
d="M768 334h-584q-11 0 -21.5 10.5t-10.5 22.5v53q0 12 10.5 21.5t21.5 9.5h584q11 0 22 -9.5t11 -21.5v-53q0 -12 -11 -22.5t-22 -10.5z" />
    <glyph glyph-name="quoteleft" unicode="&#x2018;" horiz-adv-x="499" 
d="M152 975l86 215q10 16 22 16h64q24 0 24 -26l-72 -215q-7 -17 -22 -17h-76q-10 0 -18 8t-8 19z" />
    <glyph glyph-name="quoteright" unicode="&#x2019;" horiz-adv-x="499" 
d="M348 1180l-86 -215q-10 -17 -22 -17h-64q-24 0 -24 27l71 215q3 7 10.5 11.5t12.5 4.5h76q10 0 18 -8t8 -18z" />
    <glyph glyph-name="quotesinglbase" unicode="&#x201a;" horiz-adv-x="499" 
d="M348 111l-86 -215q-10 -17 -22 -17h-64q-24 0 -24 27l71 215q3 7 10.5 11.5t12.5 4.5h76q10 0 18 -7.5t8 -18.5z" />
    <glyph glyph-name="quotedblleft" unicode="&#x201c;" horiz-adv-x="819" 
d="M152 975l86 215q10 16 22 16h64q24 0 24 -26l-72 -215q-7 -17 -22 -17h-76q-10 0 -18 8t-8 19zM471 975l86 215q10 16 23 16h63q12 0 18.5 -7.5t6.5 -18.5l-72 -215q-3 -7 -10.5 -12t-12.5 -5h-75q-10 0 -18.5 8t-8.5 19z" />
    <glyph glyph-name="quotedblright" unicode="&#x201d;" horiz-adv-x="819" 
d="M668 1180l-86 -215q-10 -17 -23 -17h-63q-11 0 -18 8t-7 19l72 215q6 16 22 16h76q11 0 19 -8t8 -18zM348 1180l-86 -215q-10 -17 -22 -17h-64q-24 0 -24 27l71 215q3 7 10.5 11.5t12.5 4.5h76q10 0 18 -8t8 -18z" />
    <glyph glyph-name="quotedblbase" unicode="&#x201e;" horiz-adv-x="819" 
d="M668 111l-86 -215q-10 -17 -23 -17h-63q-11 0 -18 8t-7 19l72 215q6 16 22 16h76q11 0 19 -8t8 -18zM348 111l-86 -215q-10 -17 -22 -17h-64q-24 0 -24 27l71 215q3 7 10.5 11.5t12.5 4.5h76q10 0 18 -7.5t8 -18.5z" />
    <glyph glyph-name="dagger" unicode="&#x2020;" horiz-adv-x="983" 
d="M555 1153v-281h244q11 0 21.5 -9t10.5 -21v-54q0 -12 -10.5 -22t-21.5 -10h-244v-1024q0 -11 -9.5 -22t-21.5 -11h-63q-12 0 -22.5 11t-10.5 22v1024h-244q-11 0 -21.5 10t-10.5 22v54q0 12 10.5 21t21.5 9h244v281q0 11 10.5 22t22.5 11h63q12 0 21.5 -11t9.5 -22z" />
    <glyph glyph-name="daggerdbl" unicode="&#x2021;" horiz-adv-x="983" 
d="M184 117h244v639h-244q-11 0 -21.5 10t-10.5 22v54q0 12 10.5 21t21.5 9h244v281q0 11 10.5 22t22.5 11h63q12 0 21.5 -11t9.5 -22v-281h244q11 0 21.5 -9t10.5 -21v-54q0 -12 -10.5 -22t-21.5 -10h-244v-639h244q11 0 21.5 -9.5t10.5 -21.5v-53q0 -12 -10.5 -22.5
t-21.5 -10.5h-244v-268q0 -11 -9.5 -22t-21.5 -11h-63q-12 0 -22.5 11t-10.5 22v268h-244q-11 0 -21.5 10.5t-10.5 22.5v53q0 12 10.5 21.5t21.5 9.5z" />
    <glyph glyph-name="bullet" unicode="&#x2022;" horiz-adv-x="458" 
d="M152 410q0 34 21.5 56.5t53.5 22.5q34 0 57 -22.5t23 -56.5q0 -32 -23 -55t-57 -23q-32 0 -53.5 22.5t-21.5 55.5z" />
    <glyph glyph-name="ellipsis" unicode="&#x2026;" horiz-adv-x="1775" 
d="M152 57q0 36 25 61t59 25q36 0 61 -25t25 -61q0 -34 -25.5 -57t-60.5 -23q-34 0 -59 23.5t-25 56.5zM803 57q0 36 25 61t59 25q36 0 61 -25t25 -61q0 -34 -25.5 -57t-60.5 -23q-34 0 -59 23.5t-25 56.5zM1454 57q0 36 25 61t59 25q36 0 61 -25t25 -61q0 -34 -25.5 -57
t-60.5 -23q-34 0 -59 23.5t-25 56.5z" />
    <glyph glyph-name="perthousand" unicode="&#x2030;" horiz-adv-x="2105" 
d="M383 1186q94 0 162.5 -67.5t68.5 -162.5q0 -94 -68.5 -162.5t-162.5 -68.5t-162.5 68.5t-68.5 162.5q0 95 68.5 162.5t162.5 67.5zM383 821q56 0 95.5 38.5t39.5 96.5q0 54 -40 95t-95 41t-95 -41t-40 -95q0 -58 39.5 -96.5t95.5 -38.5zM1171 436q94 0 162 -67t68 -160
q0 -95 -68 -163.5t-162 -68.5q-95 0 -163 68.5t-68 163.5q0 94 68 160.5t163 66.5zM1171 72q55 0 95.5 39t40.5 98q0 53 -41 93t-95 40q-57 0 -98 -40t-41 -93q0 -59 40.5 -98t98.5 -39zM399 29l633 1136q13 21 25 21h73q12 0 20.5 -9t8.5 -20l-633 -1137q-12 -20 -24 -20
h-74q-12 0 -20.5 9t-8.5 20zM1724 436q94 0 162 -67t68 -160q0 -95 -68 -163.5t-162 -68.5q-95 0 -163 68.5t-68 163.5q0 94 68 160.5t163 66.5zM1724 72q55 0 95.5 39t40.5 98q0 53 -41 93t-95 40q-57 0 -98 -40t-41 -93q0 -59 40.5 -98t98.5 -39z" />
    <glyph glyph-name="guilsinglleft" unicode="&#x2039;" horiz-adv-x="811" 
d="M627 137l-445 182q-30 17 -30 46v133q0 26 30 43l445 182q11 0 21.5 -9.5t10.5 -21.5v-67q0 -19 -20 -31l-395 -164l395 -164q20 -12 20 -30v-68q0 -12 -10.5 -21.5t-21.5 -9.5z" />
    <glyph glyph-name="guilsinglright" unicode="&#x203a;" horiz-adv-x="811" 
d="M629 319l-445 -182q-11 0 -21.5 9.5t-10.5 21.5v68q0 18 20 30l395 164l-395 164q-20 12 -20 31v67q0 12 10.5 21.5t21.5 9.5l445 -182q30 -17 30 -43v-133q0 -29 -30 -46z" />
    <glyph glyph-name="fraction" unicode="&#x2044;" horiz-adv-x="1132" 
d="M152 -272l694 1724q8 21 24 21h82q12 0 20.5 -9t8.5 -20l-694 -1725q-8 -20 -25 -20h-82q-12 0 -20 9t-8 20z" />
    <glyph glyph-name="euro" unicode="&#x20ac;" horiz-adv-x="1619" 
d="M641 367h-188q66 -123 186.5 -198t263.5 -75q140 0 253 68t177 186q6 12 21 12h90q21 0 24 -22q-67 -163 -220 -262t-345 -99q-199 0 -359.5 108t-230.5 282h-129q-11 0 -21.5 10t-10.5 20v49q0 12 10.5 21.5t21.5 9.5h97q-11 68 -11 115q0 59 11 110h-97
q-11 0 -21.5 10.5t-10.5 20.5v49q0 12 10.5 21.5t21.5 9.5h127q70 175 231.5 284t360.5 109q192 0 345 -98.5t220 -261.5q-3 -23 -24 -23h-90q-14 0 -21 13q-64 118 -177 186t-253 68q-146 0 -268 -75.5t-186 -201.5h192q11 0 21 -9.5t10 -21.5v-49q0 -11 -10 -21t-21 -10
h-231q-13 -57 -13 -110q0 -60 15 -115h229q11 0 21 -9.5t10 -21.5v-49q0 -10 -10 -20t-21 -10z" />
    <glyph glyph-name="uni2116" unicode="&#x2116;" horiz-adv-x="2467" 
d="M1026 12l-747 983v-962q0 -11 -9.5 -22t-21.5 -11h-64q-12 0 -22 11t-10 22v1120q0 11 10 22t22 11h95q12 0 22 -12l741 -973v952q0 11 9.5 22t21.5 11h64q12 0 22 -11t10 -22v-1120q0 -11 -10 -22t-22 -11h-88q-13 0 -23 12zM1841 1206q131 0 240 -61t172 -166t63 -229
t-62.5 -229t-172 -166.5t-240.5 -61.5t-240.5 61.5t-172 166.5t-62.5 229t63 229t172 166t240 61zM1841 1090q-147 0 -247.5 -96.5t-100.5 -243.5t100.5 -243.5t247.5 -96.5t247.5 96.5t100.5 243.5t-100.5 243.5t-247.5 96.5zM2099 0h-516q-11 0 -22 10.5t-11 22.5v53
q0 12 11 21.5t22 9.5h516q11 0 22 -9.5t11 -21.5v-53q0 -12 -11 -22.5t-22 -10.5z" />
    <glyph glyph-name="trademark" unicode="&#x2122;" horiz-adv-x="1366" 
d="M170 1186h346q19 0 19 -19v-67q0 -17 -19 -17h-125v-346q0 -16 -18 -16h-58q-16 0 -16 16v346h-129q-18 0 -18 17v67q0 19 18 19zM936 827q-11 0 -18 7l-168 213v-310q0 -16 -19 -16h-57q-17 0 -17 16v432q0 17 17 17h74q8 0 14 -6l174 -222l174 222q6 6 14 6h74
q16 0 16 -17v-432q0 -16 -16 -16h-57q-19 0 -19 16v310l-168 -213q-7 -7 -18 -7z" />
    <glyph glyph-name="Omega" unicode="&#x2126;" horiz-adv-x="1433" 
d="M717 1206q125 0 220 -48t152.5 -133t86 -194t28.5 -239q0 -107 -32 -236t-97 -239h176q11 0 21 -8.5t10 -18.5v-61q0 -10 -10 -19.5t-21 -9.5h-295q-11 0 -20.5 9.5t-9.5 19.5v86q0 13 12 22q71 71 105 196.5t34 258.5q0 498 -360 498q-85 0 -150.5 -29t-104.5 -76
t-63.5 -114t-33.5 -134t-9 -145q0 -133 34.5 -258.5t105.5 -196.5q12 -9 12 -22v-86q0 -10 -10 -19.5t-21 -9.5h-295q-11 0 -20.5 9.5t-9.5 19.5v61q0 10 9.5 18.5t20.5 8.5h176q-65 110 -97 239t-32 236q0 130 29 239t86.5 194t152.5 133t220 48z" />
    <glyph glyph-name="partialdiff" unicode="&#x2202;" horiz-adv-x="1214" 
d="M604 94q143 0 237.5 74t94.5 176q0 115 -92.5 184.5t-239.5 69.5q-75 0 -129.5 -10.5t-101 -37.5t-70.5 -78.5t-24 -127.5q0 -74 24 -124.5t70.5 -77t101.5 -37.5t129 -11zM387 1049q-17 0 -25 14l-24 61q-2 6 -2 11q0 14 12 22q157 49 277 49q189 0 313.5 -109.5
t124.5 -285.5v-778q0 -11 -9.5 -22t-21.5 -11h-63q-12 0 -22.5 11t-10.5 22v69q-54 -44 -106.5 -71.5t-105.5 -38t-84 -13t-81 -2.5q-182 0 -294.5 91t-112.5 276q0 173 110 272t285 99q292 0 389 -123v192q0 75 -28.5 135.5t-75 96.5t-102.5 55t-116 19q-103 0 -227 -41z
" />
    <glyph glyph-name="Delta" unicode="&#x2206;" horiz-adv-x="1423" 
d="M811 1159l461 -1128q0 -12 -9.5 -21.5t-21.5 -9.5h-1059q-12 0 -21 9.5t-9 21.5l458 1128q12 27 43 27h115q31 0 43 -27zM711 1063l-383 -946h768z" />
    <glyph glyph-name="product" unicode="&#x220f;" horiz-adv-x="1589" 
d="M1405 1069h-268v-1036q0 -11 -10.5 -22t-22.5 -11h-64q-11 0 -20.5 11t-9.5 22v1036h-430v-1036q0 -11 -9.5 -22t-21.5 -11h-64q-12 0 -22 11t-10 22v1036h-269q-11 0 -21.5 10.5t-10.5 22.5v53q0 12 10.5 21.5t21.5 9.5h1221q11 0 22 -9.5t11 -21.5v-53q0 -12 -11 -22.5
t-22 -10.5z" />
    <glyph glyph-name="summation" unicode="&#x2211;" horiz-adv-x="1050" 
d="M358 592q0 11 -10 31l-192 413q-4 8 -4 17v102q0 12 10.5 21.5t21.5 9.5h682q11 0 22 -9.5t11 -21.5v-53q0 -12 -11 -22.5t-22 -10.5h-587l202 -446q11 -22 11 -31t-11 -31l-202 -444h587q11 0 22 -10.5t11 -22.5v-53q0 -12 -11 -21.5t-22 -9.5h-682q-11 0 -21.5 9.5
t-10.5 21.5v102q0 9 4 17l192 411q10 20 10 31z" />
    <glyph glyph-name="minus" unicode="&#x2212;" horiz-adv-x="829" 
d="M645 334h-461q-11 0 -21.5 10.5t-10.5 22.5v53q0 12 10.5 21.5t21.5 9.5h461q11 0 22 -9.5t11 -21.5v-53q0 -12 -11 -22.5t-22 -10.5z" />
    <glyph glyph-name="radical" unicode="&#x221a;" horiz-adv-x="1380" 
d="M1196 1069h-182l-404 -1042q-12 -27 -43 -27h-135q-31 0 -43 27l-237 612q0 12 9 21.5t21 9.5h76q20 0 27 -21l215 -563l418 1079q7 21 26 21h252q11 0 22 -9.5t11 -21.5v-53q0 -12 -11 -22.5t-22 -10.5z" />
    <glyph glyph-name="infinity" unicode="&#x221e;" horiz-adv-x="1892" 
d="M901 487q-150 215 -358 215q-47 0 -89.5 -10t-84 -32.5t-66 -67t-24.5 -105.5t24.5 -105.5t66 -67t84 -32.5t89.5 -10q208 0 358 215zM946 371q-165 -215 -409 -215q-185 0 -285 86.5t-100 244.5t100 245t285 87q244 0 409 -215q165 215 410 215q185 0 285 -87t100 -245
t-100 -244.5t-285 -86.5q-245 0 -410 215zM991 487q150 -215 359 -215q47 0 89.5 10t84 32.5t66 67t24.5 105.5t-24.5 105.5t-66 67t-84 32.5t-89.5 10q-209 0 -359 -215z" />
    <glyph glyph-name="integral" unicode="&#x222b;" horiz-adv-x="954" 
d="M770 1087l-22 3q-56 0 -98 -21t-62 -51t-31.5 -60.5t-13.5 -51.5l-2 -21v-908q0 -67 -13.5 -121t-34 -88t-49 -59.5t-53.5 -37.5t-54.5 -19.5t-44 -8.5t-28.5 -1h-78q-11 0 -22.5 10t-11.5 22v56q0 12 10.5 21t21.5 9l23 -2q56 0 98 21t62 51t31.5 60.5t13.5 51.5l2 21
v907q0 67 13.5 121t33.5 88.5t49 59.5t54 37.5t54 19.5t43.5 8.5t28.5 1.5h78q11 0 23 -10t12 -22v-56q0 -12 -11 -21.5t-22 -9.5z" />
    <glyph glyph-name="approxequal" unicode="&#x2248;" horiz-adv-x="1015" 
d="M690 453q-62 0 -176.5 49t-167.5 49q-77 0 -92 -86q-3 -14 -21 -14h-57q-24 0 -24 24q7 52 25 90.5t37 57.5t44 30t39.5 13t28.5 2q65 0 181.5 -49.5t162.5 -49.5q77 0 92 86q3 15 20 15h58q24 0 24 -25q-7 -52 -25 -90.5t-37 -57t-44 -29.5t-39 -13t-29 -2zM690 104
q-62 0 -176.5 49.5t-167.5 49.5q-77 0 -92 -86q-3 -15 -21 -15h-57q-24 0 -24 25q7 52 25 90.5t37 57t44 29.5t39 13t29 2q65 0 181.5 -49t162.5 -49q77 0 92 86q3 15 20 15h58q24 0 24 -25q-7 -52 -25 -90.5t-37 -57.5t-44 -30t-39.5 -13t-28.5 -2z" />
    <glyph glyph-name="notequal" unicode="&#x2260;" horiz-adv-x="829" 
d="M209 29l31 104h-56q-11 0 -21.5 10.5t-10.5 22.5v53q0 12 10.5 21.5t21.5 9.5h92l82 270h-174q-11 0 -21.5 10.5t-10.5 22.5v53q0 12 10.5 21.5t21.5 9.5h209l43 139q3 8 10.5 14.5t14.5 6.5h82q12 0 20 -9t8 -20l-41 -131h115q11 0 22 -9.5t11 -21.5v-53
q0 -12 -11 -22.5t-22 -10.5h-149l-82 -270h231q11 0 22 -9.5t11 -21.5v-53q0 -12 -11 -22.5t-22 -10.5h-268l-33 -113q-8 -20 -25 -20h-81q-12 0 -20.5 9t-8.5 20z" />
    <glyph glyph-name="lessequal" unicode="&#x2264;" horiz-adv-x="811" 
d="M627 270l-445 183q-30 17 -30 45v133q0 26 30 43l445 182q11 0 21.5 -9.5t10.5 -21.5v-67q0 -19 -20 -31l-395 -164l395 -164q20 -12 20 -30v-68q0 -12 -10.5 -21.5t-21.5 -9.5zM627 0h-443q-11 0 -21.5 10.5t-10.5 22.5v53q0 12 10.5 21.5t21.5 9.5h443q11 0 21.5 -9.5
t10.5 -21.5v-53q0 -12 -10.5 -22.5t-21.5 -10.5z" />
    <glyph glyph-name="greaterequal" unicode="&#x2265;" horiz-adv-x="811" 
d="M629 453l-445 -183q-11 0 -21.5 9.5t-10.5 21.5v68q0 18 20 30l395 164l-395 164q-20 12 -20 31v67q0 12 10.5 21.5t21.5 9.5l445 -182q30 -17 30 -43v-133q0 -28 -30 -45zM627 0h-443q-11 0 -21.5 10.5t-10.5 22.5v53q0 12 10.5 21.5t21.5 9.5h443q11 0 21.5 -9.5
t10.5 -21.5v-53q0 -12 -10.5 -22.5t-21.5 -10.5z" />
    <glyph glyph-name="lozenge" unicode="&#x25ca;" horiz-adv-x="1236" 
d="M1085 590q0 -22 -8 -35q-56 -85 -181 -264.5t-183 -267.5q-15 -23 -35 -23h-119q-20 0 -35 23q-58 88 -183 267.5t-181 264.5q-8 13 -8 35t8 35q55 84 180.5 266.5t183.5 271.5q15 23 35 23h119q20 0 35 -23q58 -89 183.5 -271.5t180.5 -266.5q8 -13 8 -35zM946 590
l-328 479l-327 -479l327 -479z" />
    <glyph glyph-name="NULL" horiz-adv-x="0" 
 />
    <glyph glyph-name="superstore" horiz-adv-x="1337" 
d="M666 1034q107 0 203 -41t165.5 -110.5t110.5 -165.5t41 -203q0 -139 -69 -257.5t-189 -187.5t-262 -69q-139 0 -257.5 69t-187.5 187.5t-69 257.5q0 142 69 262t187.5 189t257.5 69zM885 184q65 0 65 56q0 33 -11.5 47t-37.5 14v272q0 88 -65 146q12 4 38 4q27 0 39 -4
h23v133q-149 -18 -236 -66q-31 5 -75 5q-102 0 -181 -29v-129h13q105 33 155 33q28 0 46 -1.5t46.5 -9t44 -27t15.5 -50.5l-168 -17q-43 -4 -75 -12t-65 -27.5t-51 -57t-18 -91.5q0 -85 58.5 -137t150.5 -52q61 0 88 6v111l-12 8q-18 -8 -47 -8q-37 0 -65 21t-28 63
q0 33 37 45.5t195 38.5v-145q0 -77 21.5 -108.5t80.5 -31.5h19z" />
    </font>
</defs>
</svg>
