<?xml version="1.0" standalone="no"?>
<!DOCTYPE svg PUBLIC "-//W3C//DTD SVG 1.1//EN" "http://www.w3.org/Graphics/SVG/1.1/DTD/svg11.dtd" >
<svg xmlns="http://www.w3.org/2000/svg" xmlns:xlink="http://www.w3.org/1999/xlink" version="1.1">
<metadata>
Created by FontForge 20170731 at Sun Jul 25 14:59:49 2021
 By Aleksey,,,
Copyright (c) 2019 by Typesketchbook. All rights reserved.
</metadata>
<defs>
<font id="GroldRounded-ExtraBold" horiz-adv-x="524" >
  <font-face 
    font-family="Grold Rounded ExtraBold"
    font-weight="800"
    font-stretch="normal"
    units-per-em="2048"
    panose-1="2 0 0 0 0 0 0 0 0 0"
    ascent="1536"
    descent="-512"
    x-height="868"
    cap-height="1186"
    bbox="-98 -408 2220 1827"
    underline-thickness="71"
    underline-position="-294"
    unicode-range="U+000D-FB02"
  />
<missing-glyph horiz-adv-x="1286" 
d="M1122 0h-958v1434h958v-1434zM266 1341v-1249h754v1249h-754z" />
    <glyph glyph-name="fi" unicode="fi" horiz-adv-x="1282" 
d="M102 868h86v52q0 71 16 128t38.5 92t57 61t62 38t62.5 18.5t49.5 7.5t32.5 1q44 0 123 -9q23 0 41 -17t18 -40v-137q0 -23 -18 -40t-41 -17q-14 2 -43 2q-27 0 -46.5 -9.5t-28 -22.5t-13.5 -26t-6 -22v-10v-50h133q26 0 45.5 -18.5t19.5 -44.5v-154q0 -26 -19.5 -44.5
t-45.5 -18.5h-133v-522q0 -26 -19 -46t-45 -20h-176q-26 0 -45 20t-19 46v522h-86q-26 0 -45.5 18.5t-19.5 44.5v154q0 26 19.5 44.5t45.5 18.5zM854 1102q0 71 49 120.5t119 49.5t119 -49.5t49 -120.5q0 -69 -49 -118.5t-119 -49.5t-119 49.5t-49 118.5zM870 66v737
q0 26 19 45.5t45 19.5h176q26 0 45 -19.5t19 -45.5v-737q0 -26 -19 -46t-45 -20h-176q-26 0 -45 20t-19 46z" />
    <glyph glyph-name="fl" unicode="fl" horiz-adv-x="1282" 
d="M102 868h86v52q0 71 16 128t38.5 92t57 61t62 38t62.5 18.5t49.5 7.5t32.5 1q44 0 123 -9q23 0 41 -17t18 -40v-137q0 -23 -18 -40t-41 -17q-14 2 -43 2q-27 0 -46.5 -9.5t-28 -22.5t-13.5 -26t-6 -22v-10v-50h133q26 0 45.5 -18.5t19.5 -44.5v-154q0 -26 -19.5 -44.5
t-45.5 -18.5h-133v-522q0 -26 -19 -46t-45 -20h-176q-26 0 -45 20t-19 46v522h-86q-26 0 -45.5 18.5t-19.5 44.5v154q0 26 19.5 44.5t45.5 18.5zM870 66v1095q0 26 19 46t45 20h176q26 0 45 -20t19 -46v-1095q0 -26 -19 -46t-45 -20h-176q-26 0 -45 20t-19 46z" />
    <glyph glyph-name=".notdef" horiz-adv-x="1286" 
d="M1122 0h-958v1434h958v-1434zM266 1341v-1249h754v1249h-754z" />
    <glyph glyph-name=".null" horiz-adv-x="0" 
 />
    <glyph glyph-name="nonmarkingreturn" horiz-adv-x="682" 
 />
    <glyph glyph-name="CR" unicode="&#xd;" horiz-adv-x="634" 
 />
    <glyph glyph-name="CR" horiz-adv-x="634" 
 />
    <glyph glyph-name="space" unicode=" " horiz-adv-x="329" 
 />
    <glyph glyph-name="exclam" unicode="!" horiz-adv-x="557" 
d="M111 84q0 69 49 118.5t119 49.5t118.5 -49.5t48.5 -118.5q0 -71 -48.5 -120.5t-118.5 -49.5t-119 49.5t-49 120.5zM143 383l-16 737q0 27 18.5 46.5t44.5 19.5h177q26 0 44.5 -19.5t18.5 -46.5l-16 -737q0 -26 -19 -46t-45 -20h-143q-26 0 -45 20t-19 46z" />
    <glyph glyph-name="quotedbl" unicode="&#x22;" horiz-adv-x="897" 
d="M127 682l-16 225v215q0 27 17.5 45.5t43.5 18.5h168q25 0 43 -19t18 -45v-215l-16 -225q0 -26 -18 -45t-43 -19h-136q-26 0 -43.5 18.5t-17.5 45.5zM512 682l-16 225v215q0 27 17.5 45.5t43.5 18.5h168q25 0 43 -19t18 -45v-215l-16 -225q0 -26 -18 -45t-43 -19h-136
q-26 0 -43.5 18.5t-17.5 45.5z" />
    <glyph glyph-name="numbersign" unicode="#" horiz-adv-x="1447" 
d="M672 692l-78 -209h178l78 209h-178zM1053 483h127q26 0 45.5 -18.5t19.5 -44.5v-156q0 -26 -19.5 -44.5t-45.5 -18.5h-232l-65 -168q-18 -33 -56 -33h-151q-26 0 -43 17.5t-17 43.5l54 140h-181l-61 -168q-18 -33 -55 -33h-152q-26 0 -42.5 17.5t-16.5 43.5l51 140h-37
q-26 0 -45.5 18.5t-19.5 44.5v156q0 26 19.5 44.5t45.5 18.5h139q20 60 78 209h-125q-26 0 -45.5 19t-19.5 45v157q0 26 19.5 45t45.5 19h226l63 176q18 33 55 33h160q26 0 42.5 -17.5t16.5 -44.5l-53 -147h170l64 176q18 33 55 33h160q26 0 42.5 -17.5t16.5 -44.5l-53 -147
h39q26 0 45.5 -19t19.5 -45v-157q0 -26 -19.5 -45t-45.5 -19h-144z" />
    <glyph glyph-name="dollar" unicode="$" horiz-adv-x="1155" 
d="M428 -154v148q-199 39 -303 178q-14 17 -14 41q0 39 30 59l115 86q22 15 47 15q17 0 39 -15q107 -100 248 -100q83 0 116 26.5t33 59.5q0 25 -26 45.5t-69 35t-98 33.5t-112 38.5t-112 52t-98 72t-69 101t-26 136.5q0 33 8 68.5t29.5 78t54 78t86 65.5t121.5 44v145
q0 26 19 46t45 20h176q26 0 44.5 -19.5t18.5 -46.5v-153q144 -39 244 -148q18 -22 18 -39q0 -29 -18 -47l-119 -94q-22 -16 -45 -16q-21 0 -47 22q-36 30 -76 44.5t-66.5 17t-72.5 2.5q-48 0 -81.5 -22.5t-33.5 -59.5q0 -31 33.5 -56t87.5 -44t119 -40t130 -51.5t119 -70.5
t87.5 -104t33.5 -146q0 -42 -17 -89.5t-51.5 -97t-98 -90t-146.5 -59.5v-150q0 -26 -18.5 -45.5t-44.5 -19.5h-176q-26 0 -45 19.5t-19 45.5z" />
    <glyph glyph-name="percent" unicode="%" horiz-adv-x="1470" 
d="M1092 514q113 0 190.5 -77t77.5 -189q0 -114 -77.5 -192.5t-190.5 -78.5q-114 0 -192.5 78.5t-78.5 192.5q0 112 78.5 189t192.5 77zM1092 188q24 0 40.5 17t16.5 43q0 23 -17 40t-40 17q-26 0 -43 -16.5t-17 -40.5q0 -26 17 -43t43 -17zM381 1186q113 0 190.5 -77
t77.5 -189q0 -114 -77.5 -192.5t-190.5 -78.5q-114 0 -192 78.5t-78 192.5q0 112 78 189t192 77zM381 860q24 0 40.5 17t16.5 43q0 23 -17 40t-40 17q-26 0 -42.5 -16.5t-16.5 -40.5q0 -26 16.5 -43t42.5 -17zM322 61l612 1092q18 33 55 33h127q26 0 43 -18t17 -44
l-613 -1091q-18 -33 -55 -33h-127q-26 0 -42.5 17.5t-16.5 43.5z" />
    <glyph glyph-name="ampersand" unicode="&#x26;" horiz-adv-x="1323" 
d="M551 262q37 0 86.5 11t77.5 32q-39 39 -125 118.5t-107 98.5q-67 -49 -67 -157q0 -53 42 -78t93 -25zM1034 905q0 -27 -19 -43t-48 -16h-168q-28 0 -48 19t-20 46q0 37 -24.5 62.5t-63.5 25.5q-52 0 -74 -28.5t-22 -57.5q0 -59 27.5 -98t119.5 -127q122 -113 183 -174
q16 50 16 104q0 27 17.5 45.5t43.5 18.5h179q26 0 43.5 -18.5t17.5 -45.5q-13 -215 -76 -335l197 -189q8 -20 8 -33q0 -26 -17 -43.5t-42 -17.5h-209q-22 0 -51 25l-70 67q-186 -115 -346 -115q-31 0 -66.5 3.5t-82.5 14.5t-91 28t-88 47t-76.5 68t-52.5 94.5t-20 123.5
q0 63 19.5 124t51.5 108t61 80t58 57q-59 69 -59 186q0 22 1.5 42.5t10 60t22.5 72t44 70t70 63.5t104 43.5t143 17.5q100 0 175.5 -32t115.5 -75.5t65.5 -101t32 -95t8.5 -71.5z" />
    <glyph glyph-name="quotesingle" unicode="'" horiz-adv-x="512" 
d="M127 682l-16 225v215q0 27 17.5 45.5t43.5 18.5h168q25 0 43 -19t18 -45v-215l-16 -225q0 -26 -18 -45t-43 -19h-136q-26 0 -43.5 18.5t-17.5 45.5z" />
    <glyph glyph-name="parenleft" unicode="(" horiz-adv-x="661" 
d="M111 565q0 406 141 862q18 48 61 48h174q28 0 46 -18.5t18 -47.5q-137 -441 -137 -844q0 -199 33 -388t102 -410q0 -29 -18 -47.5t-46 -18.5h-174q-44 0 -61 47q-71 229 -105 421.5t-34 395.5z" />
    <glyph glyph-name="parenright" unicode=")" horiz-adv-x="661" 
d="M551 565q0 -203 -34 -395.5t-105 -421.5q-17 -47 -62 -47h-174q-28 0 -45.5 18.5t-17.5 47.5q69 221 102 410t33 388q0 403 -137 844q0 29 17.5 47.5t45.5 18.5h174q44 0 62 -48q141 -456 141 -862z" />
    <glyph glyph-name="asterisk" unicode="*" horiz-adv-x="935" 
d="M391 1186h154q23 0 37 -16t14 -40l-14 -137l112 47q12 4 25 4q23 0 41 -12.5t24 -32.5l37 -120q4 -16 4 -23q0 -24 -13 -42t-34 -26l-121 -30l72 -84q19 -19 19 -47q0 -33 -29 -58l-84 -61q-19 -16 -43 -16q-38 0 -62 34l-61 90l-63 -90q-24 -34 -62 -34q-24 0 -43 16
l-84 61q-29 25 -29 58q0 28 19 47l74 84l-123 30q-21 8 -34 26t-13 42q0 7 4 23l37 120q17 45 65 45q13 0 25 -4l112 -47l-14 137q0 23 14.5 39.5t36.5 16.5z" />
    <glyph glyph-name="plus" unicode="+" horiz-adv-x="851" 
d="M274 172v129h-114q-24 0 -42 17.5t-18 41.5v140q0 24 18 41.5t42 17.5h114v127q0 26 19 46t45 20h176q26 0 45 -20t19 -46v-127h114q24 0 42 -17.5t18 -41.5v-140q0 -24 -18 -41.5t-42 -17.5h-114v-129q0 -26 -19 -46t-45 -20h-176q-26 0 -45 20t-19 46z" />
    <glyph glyph-name="comma" unicode="," horiz-adv-x="669" 
d="M559 233l-168 -346q-26 -34 -57 -34h-164q-25 0 -42 18t-17 45l137 344q6 15 21 26t32 11h197q26 0 43.5 -18.5t17.5 -45.5z" />
    <glyph glyph-name="hyphen" unicode="-" horiz-adv-x="851" 
d="M676 287h-500q-26 0 -45.5 18.5t-19.5 44.5v154q0 26 19.5 44.5t45.5 18.5h500q26 0 45.5 -18.5t19.5 -44.5v-154q0 -26 -19.5 -44.5t-45.5 -18.5z" />
    <glyph glyph-name="period" unicode="." horiz-adv-x="561" 
d="M111 147q0 72 49.5 122t120.5 50t120.5 -50t49.5 -122q0 -71 -49.5 -120.5t-120.5 -49.5t-120.5 49.5t-49.5 120.5z" />
    <glyph glyph-name="slash" unicode="/" horiz-adv-x="1200" 
d="M111 -240l682 1680q12 35 53 35h182q26 0 44 -18.5t18 -43.5l-682 -1679q-12 -35 -54 -35h-182q-26 0 -43.5 18t-17.5 43z" />
    <glyph glyph-name="zero" unicode="0" horiz-adv-x="1204" 
d="M602 1206q128 0 227.5 -47.5t161 -132t92.5 -194.5t31 -240q0 -131 -31 -241t-92.5 -194.5t-161 -132t-227.5 -47.5t-227.5 47.5t-161 132t-92.5 194.5t-31 241q0 130 31 240t92.5 194.5t161 132t227.5 47.5zM602 258q201 0 201 334t-201 334t-201 -334t201 -334z" />
    <glyph glyph-name="one" unicode="1" horiz-adv-x="702" 
d="M55 1112l238 66q32 8 53 8h182q26 0 45 -20t19 -46v-1054q0 -26 -19 -46t-45 -20h-176q-26 0 -44.5 19.5t-18.5 46.5v823l-213 -55q-27 0 -45.5 17.5t-18.5 43.5v158q0 45 43 59z" />
    <glyph glyph-name="two" unicode="2" horiz-adv-x="1001" 
d="M119 272q456 394 456 543q0 47 -25 78t-81 31q-42 0 -67 -34t-25 -81v-12q0 -25 -18.5 -44.5t-43.5 -19.5h-184q-24 0 -42.5 19.5t-18.5 44.5v10q0 17 1 35.5t9 61t22 78.5t43 79t69 73.5t104 51t143 20.5q83 0 150.5 -19t110 -47.5t74 -69.5t47 -76.5t24.5 -77.5
t10.5 -64t1.5 -43q0 -60 -23 -125.5t-57.5 -121t-80.5 -111.5t-86 -96t-81 -74h274q26 0 46 -19t20 -45v-154q0 -26 -19.5 -44.5t-46.5 -18.5h-667q-26 0 -45 20t-19 46v157q0 28 25 49z" />
    <glyph glyph-name="three" unicode="3" horiz-adv-x="995" 
d="M485 465h-12q-23 0 -41 17t-18 40v140q0 23 18 40t41 17h12q11 0 23.5 2.5t31 10.5t30.5 29.5t12 53.5q0 47 -25.5 78t-81.5 31q-41 0 -66.5 -33.5t-25.5 -69.5v-12q0 -25 -18 -42t-43 -17h-185q-25 0 -43 17t-18 42v10q0 17 1 35t9 59t22 76t43 77t69 71t104 49t143 20
q83 0 150.5 -19t110 -47.5t74 -69.5t47 -76.5t24.5 -77.5t10.5 -64t1.5 -43q0 -7 -0.5 -18.5t-6.5 -43t-16.5 -58.5t-33.5 -55t-54 -42q30 -19 52 -48.5t33 -57.5t17.5 -53.5t7.5 -41.5l1 -16q0 -21 -1.5 -43t-10.5 -64t-24.5 -78t-47 -77t-74 -69.5t-110 -47.5t-150.5 -19
q-79 0 -143 20t-104 49t-69 71t-43 77.5t-22 76.5t-9 59t-1 35v10q0 25 18 42t43 17h185q25 0 43 -17t18 -42v-13q0 -36 25.5 -69t66.5 -33q56 0 81.5 31t25.5 78q0 32 -12 53.5t-30.5 29.5t-31 10.5t-23.5 2.5z" />
    <glyph glyph-name="four" unicode="4" horiz-adv-x="985" 
d="M365 492h167v247zM37 500l442 659q20 27 53 27h236q29 0 48.5 -20.5t19.5 -49.5v-624h55q26 0 45.5 -19t19.5 -45v-154q0 -26 -19.5 -44.5t-45.5 -18.5h-55v-145q0 -26 -19 -46t-45 -20h-176q-26 0 -45 20t-19 46v145h-444q-26 0 -45.5 18.5t-19.5 44.5v187q0 21 14 39z
" />
    <glyph glyph-name="five" unicode="5" horiz-adv-x="1001" 
d="M115 590v532q0 26 19.5 45t45.5 19h576q26 0 45.5 -19t19.5 -45v-153q0 -26 -19.5 -45t-45.5 -19h-338v-127q56 23 129 23q34 0 74.5 -7.5t98.5 -35t102.5 -71.5t77 -128t32.5 -194q0 -8 -1 -22t-9.5 -54.5t-23.5 -77t-47.5 -81t-77 -77t-116.5 -54.5t-161 -22
q-92 0 -166 25t-118 61t-76 85.5t-45.5 88.5t-20.5 80q0 29 17 48.5t44 19.5h195q34 0 53 -37q13 -36 42.5 -63t76.5 -27q51 0 83.5 37.5t32.5 91.5q0 20 -5 40.5t-17.5 43.5t-39 37t-63.5 14q-30 -2 -63 -14q-25 -10 -35 -10l-209 22q-29 3 -48 22.5t-19 47.5z" />
    <glyph glyph-name="six" unicode="6" horiz-adv-x="1040" 
d="M520 545q-61 0 -104 -41.5t-43 -100.5q0 -61 42.5 -103t104.5 -42t105 42t43 103q0 59 -43.5 100.5t-104.5 41.5zM770 1126l-190 -305q172 -12 281.5 -134.5t109.5 -291.5q0 -173 -132 -295.5t-319 -122.5q-188 0 -319 122t-131 296q0 133 86 273l301 483q18 33 55 33
h195q24 0 42 -17t21 -41z" />
    <glyph glyph-name="seven" unicode="7" horiz-adv-x="843" 
d="M176 88l316 817h-414q-26 0 -46 19t-20 45v153q0 26 20 45t46 19h688q26 0 45.5 -19t19.5 -45v-159q0 -16 -6 -31l-350 -907q-4 -11 -19 -18t-30 -7h-190q-25 0 -45.5 19t-20.5 44q0 7 6 25z" />
    <glyph glyph-name="eight" unicode="8" horiz-adv-x="1101" 
d="M551 1206q191 0 302.5 -101t111.5 -245q0 -73 -29.5 -137t-89.5 -100q77 -46 121.5 -113.5t44.5 -149.5q0 -97 -35.5 -171.5t-99 -120t-146 -68.5t-180.5 -23t-180.5 23t-146 68.5t-99 120t-35.5 171.5q0 82 44.5 149.5t121.5 113.5q-60 36 -89.5 100t-29.5 137
q0 144 111.5 245t302.5 101zM551 745q46 0 78.5 26t32.5 65t-32 63.5t-79 24.5t-79 -24.5t-32 -63.5t32.5 -65t78.5 -26zM551 262q70 0 114 30t44 89q0 56 -44.5 86.5t-113.5 30.5t-113.5 -30.5t-44.5 -86.5q0 -59 44 -89t114 -30z" />
    <glyph glyph-name="nine" unicode="9" horiz-adv-x="1040" 
d="M520 639q61 0 104.5 41t43.5 100q0 61 -43 103.5t-105 42.5t-104.5 -42.5t-42.5 -103.5q0 -59 43 -100t104 -41zM270 57l191 305q-172 12 -281.5 134.5t-109.5 291.5q0 173 131.5 295.5t318.5 122.5q124 0 228 -56t163.5 -152t59.5 -210q0 -132 -86 -272l-301 -483
q-8 -14 -23.5 -23.5t-32.5 -9.5h-194q-24 0 -42.5 16.5t-21.5 40.5z" />
    <glyph glyph-name="colon" unicode=":" horiz-adv-x="561" 
d="M111 147q0 72 49 122t121 50q71 0 120.5 -50t49.5 -122q0 -71 -49.5 -120.5t-120.5 -49.5q-72 0 -121 49.5t-49 120.5zM111 668q0 71 49 120.5t121 49.5q71 0 120.5 -50t49.5 -120q0 -72 -49.5 -121t-120.5 -49q-72 0 -121 49t-49 121z" />
    <glyph glyph-name="semicolon" unicode=";" horiz-adv-x="698" 
d="M248 668q0 71 49 120.5t121 49.5q70 0 120 -50t50 -120q0 -72 -49.5 -121t-120.5 -49q-72 0 -121 49t-49 121zM559 233l-168 -346q-26 -34 -57 -34h-164q-25 0 -42 18t-17 45l137 344q6 15 21 26t32 11h197q26 0 43.5 -18.5t17.5 -45.5z" />
    <glyph glyph-name="less" unicode="&#x3c;" horiz-adv-x="845" 
d="M666 84l-512 211q-43 21 -43 65v197q0 45 43 66l512 206q29 0 49 -19t20 -48v-146q0 -45 -41 -61l-245 -98l245 -99q41 -16 41 -61v-145q0 -29 -20 -48.5t-49 -19.5z" />
    <glyph glyph-name="equal" unicode="=" horiz-adv-x="851" 
d="M676 88h-500q-26 0 -45.5 19t-19.5 45v153q0 26 19.5 45t45.5 19h500q26 0 45.5 -19t19.5 -45v-153q0 -26 -19.5 -45t-45.5 -19zM676 483h-500q-26 0 -45.5 19t-19.5 45v153q0 26 19.5 45t45.5 19h500q26 0 45.5 -19t19.5 -45v-153q0 -26 -19.5 -45t-45.5 -19z" />
    <glyph glyph-name="greater" unicode="&#x3e;" horiz-adv-x="845" 
d="M692 295l-512 -211q-29 0 -49 19.5t-20 48.5v145q0 45 41 61l245 99l-245 98q-41 16 -41 61v146q0 29 20 48t49 19l512 -206q43 -21 43 -66v-197q0 -44 -43 -65z" />
    <glyph glyph-name="question" unicode="?" horiz-adv-x="1028" 
d="M338 147q0 69 49 118.5t119 49.5t119 -49.5t49 -118.5q0 -71 -49 -120.5t-119 -49.5t-119 49.5t-49 120.5zM672 383q-13 -33 -56 -33h-188q-26 0 -43.5 18.5t-17.5 45.5q11 50 41 99t63.5 86.5t66 73t53.5 72t21 70.5q0 47 -25 78t-81 31q-42 0 -66 -34t-24 -81v-57
q0 -25 -18.5 -44.5t-43.5 -19.5h-182q-24 0 -42.5 19.5t-18.5 44.5v55q0 13 0.5 25t4 41.5t9.5 55.5t20 61t32.5 63.5t48.5 58t67 49.5t90 32.5t115 12.5q83 0 150.5 -19t110.5 -47.5t74.5 -69.5t47 -76.5t25 -77.5t11 -64t1.5 -43q0 -62 -27.5 -122t-63 -101.5t-83 -100
t-72.5 -102.5z" />
    <glyph glyph-name="at" unicode="@" horiz-adv-x="1828" 
d="M891 254q60 0 102.5 47t42.5 113q0 62 -42.5 106.5t-102.5 44.5q-61 0 -104.5 -44.5t-43.5 -106.5q0 -66 43.5 -113t104.5 -47zM1051 731q3 19 17 32t34 13h153q22 0 37 -15.5t15 -37.5v-342q2 -29 4.5 -46.5t10 -43t23.5 -38.5t39 -13q93 0 93 192q0 150 -74 276.5
t-203 199.5t-285 73q-157 0 -286 -74.5t-202 -201.5t-73 -279q0 -151 73 -278t202.5 -202t285.5 -75q113 0 232 43q22 0 36.5 -15.5t14.5 -37.5v-127q0 -22 -13 -33t-40 -18q-135 -37 -230 -37q-164 0 -313 62.5t-256.5 168t-171 251t-63.5 304.5q0 156 63.5 299t171 247
t256.5 166t313 62q163 0 311 -59.5t256 -162t172 -246.5t64 -306q0 -13 -0.5 -29.5t-7.5 -60t-18.5 -81.5t-37 -85t-59.5 -80t-90 -55.5t-125 -22.5q-181 0 -254 117q-109 -117 -268 -117t-264 114.5t-105 281.5q0 160 105.5 273.5t263.5 113.5q112 0 193 -70z" />
    <glyph glyph-name="A" unicode="A" horiz-adv-x="1204" 
d="M483 1186h238q45 0 63 -41l396 -1079q0 -26 -19 -46t-45 -20h-194q-20 0 -37 12t-23 31l-53 150h-414l-53 -150q-6 -19 -22.5 -31t-36.5 -12h-195q-26 0 -44.5 19.5t-18.5 46.5l395 1079q18 41 63 41zM602 772l-106 -299h213z" />
    <glyph glyph-name="B" unicode="B" horiz-adv-x="1124" 
d="M414 281h213q116 0 116 96q0 50 -29.5 70t-86.5 20h-213v-186zM621 905h-207v-168h207q3 0 8.5 0.5t19.5 5t24.5 12.5t19.5 25t9 41q0 37 -20 58t-40 23zM174 1186h447q8 0 22 -0.5t54 -6.5t76 -16.5t80.5 -34t76.5 -54.5t54 -81.5t22 -113.5q0 -99 -41.5 -164t-94.5 -97
q185 -87 185 -264q0 -354 -484 -354h-397q-26 0 -44.5 19.5t-18.5 46.5v1054q0 27 18.5 46.5t44.5 19.5z" />
    <glyph glyph-name="C" unicode="C" horiz-adv-x="1372" 
d="M719 -23q-173 0 -318 82t-228 223.5t-83 309.5q0 126 49 240t133 196t200.5 130t246.5 48q212 0 375.5 -119t224.5 -309q-2 -25 -21 -43t-45 -18h-202q-37 0 -54 35q-39 78 -113.5 126t-164.5 48q-132 0 -225 -98t-93 -236t93 -236t225 -98q90 0 164.5 48t113.5 126
q17 35 54 35h202q26 0 45 -18t21 -43q-61 -190 -224.5 -309.5t-375.5 -119.5z" />
    <glyph glyph-name="D" unicode="D" horiz-adv-x="1239" 
d="M174 1186h401q173 0 309 -78t210.5 -213t74.5 -303t-74.5 -302.5t-210.5 -212t-309 -77.5h-401q-26 0 -44.5 19.5t-18.5 46.5v1054q0 27 18.5 46.5t44.5 19.5zM582 903h-168v-620h168q129 0 203.5 86t74.5 223t-74.5 224t-203.5 87z" />
    <glyph glyph-name="E" unicode="E" horiz-adv-x="1028" 
d="M414 281h471q26 0 45.5 -19t19.5 -45v-154q0 -26 -19.5 -44.5t-45.5 -18.5h-711q-26 0 -44.5 19.5t-18.5 46.5v1054q0 27 18.5 46.5t44.5 19.5h711q26 0 45.5 -19t19.5 -45v-153q0 -26 -19.5 -45t-45.5 -19h-471v-180h428q26 0 45.5 -18.5t19.5 -44.5v-154
q0 -26 -19.5 -45t-45.5 -19h-428v-163z" />
    <glyph glyph-name="F" unicode="F" horiz-adv-x="1019" 
d="M885 905h-471v-227h428q26 0 45.5 -19t19.5 -45v-153q0 -26 -19.5 -45t-45.5 -19h-428v-331q0 -26 -19 -46t-45 -20h-176q-26 0 -44.5 19.5t-18.5 46.5v1054q0 27 18.5 46.5t44.5 19.5h711q26 0 45.5 -19t19.5 -45v-153q0 -26 -19.5 -45t-45.5 -19z" />
    <glyph glyph-name="G" unicode="G" horiz-adv-x="1390" 
d="M795 686h454q24 0 42 -17t18 -40v-180q-12 -96 -50 -174t-85.5 -126t-111 -83.5t-114.5 -51.5t-108.5 -25.5t-79.5 -10.5t-41 -1q-173 0 -318 82t-228 223.5t-83 309.5q0 126 49 240t133 196t200.5 130t246.5 48q81 0 156.5 -18t130 -44.5t104 -63t79.5 -67t56 -63.5
q21 -25 21 -49q0 -28 -25 -49l-129 -86q-19 -14 -37 -14q-24 0 -37 16q-59 76 -144 117t-175 41q-132 0 -225 -98t-93 -236t93 -236t225 -98q61 0 111 18t77.5 43.5t46.5 51t25 43.5l6 18h-190q-24 0 -42 17t-18 40v140q0 23 18 40t42 17z" />
    <glyph glyph-name="H" unicode="H" horiz-adv-x="1214" 
d="M801 397h-387v-331q0 -26 -19 -46t-45 -20h-176q-26 0 -44.5 19.5t-18.5 46.5v1054q0 27 18.5 46.5t44.5 19.5h176q26 0 45 -20t19 -46v-440h387v440q0 27 18.5 46.5t44.5 19.5h176q26 0 45 -20t19 -46v-1054q0 -26 -19 -46t-45 -20h-176q-26 0 -44.5 19.5t-18.5 46.5
v331z" />
    <glyph glyph-name="I" unicode="I" 
d="M111 66v1054q0 27 18.5 46.5t44.5 19.5h176q26 0 45 -20t19 -46v-1054q0 -26 -19 -46t-45 -20h-176q-26 0 -44.5 19.5t-18.5 46.5z" />
    <glyph glyph-name="J" unicode="J" horiz-adv-x="921" 
d="M20 164q-12 15 -12 39q0 20 9.5 36.5t23.5 22.5l137 76q11 8 33 8q24 0 47 -20q68 -68 139 -68q58 0 89.5 32t31.5 58v772q0 26 19 46t45 20h176q26 0 44.5 -19.5t18.5 -46.5v-786q0 -145 -122.5 -251t-311.5 -106q-67 0 -128 18t-106.5 48.5t-76.5 59.5t-56 61z" />
    <glyph glyph-name="K" unicode="K" horiz-adv-x="1087" 
d="M668 600l419 -534q0 -27 -18.5 -46.5t-44.5 -19.5h-244q-29 0 -59 43l-307 391v-368q0 -26 -19 -46t-45 -20h-176q-26 0 -44.5 19.5t-18.5 46.5v1054q0 27 18.5 46.5t44.5 19.5h176q26 0 45 -20t19 -46v-350l264 373q30 43 59 43h228q26 0 44.5 -19.5t18.5 -46.5z" />
    <glyph glyph-name="L" unicode="L" horiz-adv-x="989" 
d="M414 281h471q26 0 45.5 -19t19.5 -45v-154q0 -26 -19.5 -44.5t-45.5 -18.5h-711q-26 0 -44.5 19.5t-18.5 46.5v1054q0 27 18.5 46.5t44.5 19.5h176q26 0 45 -20t19 -46v-839z" />
    <glyph glyph-name="M" unicode="M" horiz-adv-x="1478" 
d="M754 154h-29q-22 0 -33 18l-278 436v-542q0 -26 -19 -46t-45 -20h-176q-26 0 -44.5 19.5t-18.5 46.5v1054q0 27 18.5 46.5t44.5 19.5h201q28 0 49 -25l315 -497l316 497q21 25 49 25h201q26 0 44.5 -19.5t18.5 -46.5v-1054q0 -27 -18.5 -46.5t-44.5 -19.5h-177
q-26 0 -44.5 19.5t-18.5 46.5v542l-279 -436q-11 -18 -32 -18z" />
    <glyph glyph-name="N" unicode="N" horiz-adv-x="1275" 
d="M850 25l-436 591v-550q0 -26 -19 -46t-45 -20h-176q-26 0 -44.5 19.5t-18.5 46.5v1054q0 27 18.5 46.5t44.5 19.5h184q29 0 50 -25l454 -616v575q0 26 19 46t45 20h176q26 0 44.5 -19.5t18.5 -46.5v-1054q0 -27 -18.5 -46.5t-44.5 -19.5h-203q-28 0 -49 25z" />
    <glyph glyph-name="O" unicode="O" horiz-adv-x="1437" 
d="M90 592q0 126 49 240t133 196t200.5 130t246.5 48t246.5 -48t200.5 -130t133 -196t49 -240q0 -168 -83 -309.5t-228 -223.5t-318 -82t-318 82t-228 223.5t-83 309.5zM1036 592q0 138 -92.5 236t-224.5 98t-225 -98t-93 -236t93 -236t225 -98t224.5 98t92.5 236z" />
    <glyph glyph-name="P" unicode="P" horiz-adv-x="1083" 
d="M739 750q0 80 -40 117.5t-105 37.5h-180v-307h180q65 0 105 36.5t40 115.5zM111 66v1054q0 27 18.5 46.5t44.5 19.5h416q10 0 26.5 -1t65 -10t92.5 -24t97.5 -48t92 -77t65 -116t26.5 -160q0 -87 -25.5 -158.5t-66.5 -115t-90.5 -76t-99.5 -48t-91 -24.5t-66 -10l-26 -1
h-176v-251q0 -26 -19 -46t-45 -20h-176q-26 0 -44.5 19.5t-18.5 46.5z" />
    <glyph glyph-name="Q" unicode="Q" horiz-adv-x="1437" 
d="M90 592q0 126 49 240t133 196t200.5 130t246.5 48t246.5 -48t200.5 -130t133 -196t49 -240q0 -182 -97 -331t-258 -224l111 -189q0 -25 -17 -43t-40 -18h-187q-31 0 -53 37l-92 153q-172 1 -316 83t-226.5 223t-82.5 309zM1036 592q0 138 -92.5 236t-224.5 98t-225 -98
t-93 -236t93 -236t225 -98t224.5 98t92.5 236z" />
    <glyph glyph-name="R" unicode="R" horiz-adv-x="1093" 
d="M414 905v-307h180q65 0 105 36.5t40 115.5q0 80 -40 117.5t-105 37.5h-180zM748 25l-242 292h-92v-251q0 -26 -19 -46t-45 -20h-176q-26 0 -44.5 19.5t-18.5 46.5v1054q0 27 18.5 46.5t44.5 19.5h416q10 0 26.5 -1t65 -10t92.5 -24t97.5 -48t92 -77t65 -116t26.5 -160
q0 -265 -230 -375l244 -309q0 -28 -18 -47t-45 -19h-207q-30 0 -51 25z" />
    <glyph glyph-name="S" unicode="S" horiz-adv-x="1060" 
d="M72 172q-15 18 -15 41q0 38 31 59l115 86q22 15 47 15q16 0 39 -15q107 -100 248 -100q83 0 116 26.5t33 59.5q0 25 -26 45.5t-69 35t-98 33.5t-112 38.5t-112 52t-98 72t-69 101t-26 136.5q0 39 11 81.5t42 91.5t77 86.5t124.5 63t177.5 25.5q105 0 194.5 -30
t136.5 -64.5t83 -75.5q18 -22 18 -39q0 -29 -18 -47l-119 -94q-22 -16 -45 -16q-21 0 -47 22q-36 30 -76 44.5t-66.5 17t-72.5 2.5q-48 0 -81.5 -22.5t-33.5 -59.5q0 -31 33.5 -56t87.5 -44t119 -40t130 -51.5t119 -70.5t87.5 -104t33.5 -146q0 -40 -14 -84.5t-49 -93
t-86 -86.5t-133 -63t-183 -25q-90 0 -167 17.5t-131 47t-91 60.5t-65 67z" />
    <glyph glyph-name="T" unicode="T" horiz-adv-x="1118" 
d="M408 905h-283q-26 0 -46 19t-20 45v153q0 26 20 45t46 19h868q26 0 46 -19t20 -45v-153q0 -26 -20 -45t-46 -19h-282v-839q0 -26 -19 -46t-45 -20h-176q-26 0 -44.5 19.5t-18.5 46.5v839z" />
    <glyph glyph-name="U" unicode="U" horiz-adv-x="1191" 
d="M596 -23q-10 0 -28 1t-70 10t-99 25t-104.5 52t-98.5 85t-69.5 129.5t-28.5 179.5v661q0 26 19 46t45 20h176q26 0 44.5 -19.5t18.5 -46.5v-659q0 -4 0.5 -11.5t5 -28.5t12 -40t22 -42.5t34.5 -40.5t51.5 -28.5t69.5 -11.5t69.5 11t51.5 29t34.5 39.5t22 43.5t11.5 40
t5 29l1 11v659q0 27 18.5 46.5t44.5 19.5h176q26 0 45 -20t19 -46v-661q0 -99 -27.5 -179.5t-71.5 -129.5t-97 -85t-106 -52t-97 -25t-71 -10z" />
    <glyph glyph-name="V" unicode="V" horiz-adv-x="1204" 
d="M721 0h-238q-45 0 -63 41l-395 1079q0 27 18.5 46.5t44.5 19.5h195q20 0 36.5 -12t22.5 -31l260 -729l260 729q6 19 23 31t37 12h194q26 0 45 -20t19 -46l-396 -1079q-18 -41 -63 -41z" />
    <glyph glyph-name="W" unicode="W" horiz-adv-x="1708" 
d="M762 1186h184q45 0 62 -45q19 -75 87.5 -345.5t102.5 -398.5l166 750q12 39 55 39h203q26 0 43.5 -19.5t17.5 -46.5l-276 -1079q-8 -18 -25.5 -29.5t-38.5 -11.5h-272q-45 0 -63 41l-154 571l-154 -571q-18 -41 -63 -41h-272q-21 0 -38.5 11.5t-25.5 29.5l-276 1079
q0 27 17.5 46.5t43.5 19.5h203q43 0 55 -39l166 -750q34 128 102.5 398.5t87.5 345.5q17 45 62 45z" />
    <glyph glyph-name="X" unicode="X" horiz-adv-x="1085" 
d="M543 334l-187 -291q-28 -43 -59 -43h-207q-26 0 -44.5 19.5t-18.5 46.5l344 524l-346 530q0 27 18.5 46.5t44.5 19.5h207q31 0 59 -43l189 -297l188 297q28 43 60 43h206q26 0 45 -20t19 -46l-346 -530l344 -524q0 -26 -19 -46t-45 -20h-207q-31 0 -59 43z" />
    <glyph glyph-name="Y" unicode="Y" horiz-adv-x="1134" 
d="M416 66v333l-391 721q0 27 18.5 46.5t44.5 19.5h193q20 0 36.5 -12t22.5 -31l227 -434l228 434q6 19 22.5 31t36.5 12h193q26 0 44.5 -19.5t18.5 -46.5l-391 -721v-333q0 -26 -19 -46t-45 -20h-176q-26 0 -44.5 19.5t-18.5 46.5z" />
    <glyph glyph-name="Z" unicode="Z" horiz-adv-x="1040" 
d="M72 268l481 637h-410q-26 0 -45.5 19t-19.5 45v153q0 26 19.5 45t45.5 19h752q26 0 46 -19t20 -45v-164q0 -20 -13 -36l-487 -641h454q26 0 46 -19t20 -45v-154q0 -26 -19.5 -44.5t-46.5 -18.5h-790q-27 0 -46.5 18.5t-19.5 44.5v168q0 21 13 37z" />
    <glyph glyph-name="bracketleft" unicode="[" horiz-adv-x="806" 
d="M414 -45h217q26 0 45.5 -19t19.5 -45v-129q0 -26 -19.5 -44.5t-45.5 -18.5h-457q-26 0 -44.5 19.5t-18.5 45.5v1645q0 27 18.5 46.5t44.5 19.5h457q26 0 45.5 -19t19.5 -45v-127q0 -26 -19.5 -44.5t-45.5 -18.5h-217v-1266z" />
    <glyph glyph-name="backslash" unicode="\" horiz-adv-x="1200" 
d="M408 1440l682 -1680q0 -25 -18 -43t-44 -18h-182q-41 0 -53 35l-682 1679q0 25 17.5 43.5t43.5 18.5h182q42 0 54 -35z" />
    <glyph glyph-name="bracketright" unicode="]" horiz-adv-x="806" 
d="M176 -45h217v1266h-217q-26 0 -45.5 18.5t-19.5 44.5v127q0 26 19.5 45t45.5 19h457q26 0 44.5 -19.5t18.5 -46.5v-1645q0 -26 -18.5 -45.5t-44.5 -19.5h-457q-26 0 -45.5 18.5t-19.5 44.5v129q0 26 19.5 45t45.5 19z" />
    <glyph glyph-name="asciicircum" unicode="^" horiz-adv-x="798" 
d="M293 1186h213q19 0 34.5 -12.5t22.5 -28.5l125 -264q0 -27 -18 -45.5t-45 -18.5h-127q-40 0 -58 37l-41 92l-41 -92q-18 -37 -57 -37h-127q-27 0 -45 18.5t-18 45.5l125 264q7 16 22.5 28.5t34.5 12.5z" />
    <glyph glyph-name="underscore" unicode="_" horiz-adv-x="851" 
d="M676 -332h-500q-26 0 -45.5 19t-19.5 45v153q0 26 19.5 45t45.5 19h500q26 0 45.5 -19t19.5 -45v-153q0 -26 -19.5 -45t-45.5 -19z" />
    <glyph glyph-name="grave" unicode="`" horiz-adv-x="667" 
d="M281 780l-170 338q0 28 19 48t46 20h186q19 0 36.5 -11t23.5 -28l135 -338q0 -28 -19 -48t-46 -20h-154q-37 0 -57 39z" />
    <glyph glyph-name="a" unicode="a" horiz-adv-x="1146" 
d="M551 258q77 0 129.5 50t52.5 126t-52.5 126t-129.5 50q-74 0 -126 -50t-52 -126t52 -126t126 -50zM733 801q0 27 19 47t45 20h176q26 0 44.5 -19.5t18.5 -45.5v-737q0 -27 -18.5 -46.5t-44.5 -19.5h-176q-26 0 -45 20.5t-19 47.5q-77 -91 -225 -91q-121 0 -222 61.5
t-158.5 166.5t-57.5 229t57.5 229t158.5 166.5t222 61.5q71 0 126 -19.5t99 -70.5z" />
    <glyph glyph-name="b" unicode="b" horiz-adv-x="1146" 
d="M596 258q74 0 126 50t52 126t-52 126t-126 50q-77 0 -129.5 -50t-52.5 -126t52.5 -126t129.5 -50zM111 66v1095q0 27 18.5 46.5t44.5 19.5h176q26 0 45 -20t19 -46v-360q44 51 99 70.5t126 19.5q121 0 222 -61.5t158.5 -166.5t57.5 -229t-57.5 -229t-158.5 -166.5
t-222 -61.5q-148 0 -225 91q0 -27 -19 -47.5t-45 -20.5h-176q-26 0 -44.5 19.5t-18.5 46.5z" />
    <glyph glyph-name="c" unicode="c" horiz-adv-x="1036" 
d="M541 -23q-193 0 -332 134.5t-139 322.5t139 322.5t332 134.5q151 0 273.5 -91.5t172.5 -234.5q0 -28 -19 -46.5t-48 -18.5h-193q-30 0 -51 28q-43 82 -139 82q-69 0 -117.5 -50.5t-48.5 -125.5t48.5 -125.5t117.5 -50.5q98 0 141 82q22 29 51 29h191q29 0 48 -19t19 -47
q-50 -143 -172.5 -234.5t-273.5 -91.5z" />
    <glyph glyph-name="d" unicode="d" horiz-adv-x="1146" 
d="M551 258q77 0 129.5 50t52.5 126t-52.5 126t-129.5 50q-74 0 -126 -50t-52 -126t52 -126t126 -50zM1036 1161v-1095q0 -27 -18.5 -46.5t-44.5 -19.5h-176q-26 0 -45 20.5t-19 47.5q-77 -91 -225 -91q-121 0 -222 61.5t-158.5 166.5t-57.5 229t57.5 229t158.5 166.5
t222 61.5q71 0 126 -19.5t99 -70.5v360q0 26 19 46t45 20h176q26 0 44.5 -19.5t18.5 -46.5z" />
    <glyph glyph-name="e" unicode="e" horiz-adv-x="1030" 
d="M676 535q-28 100 -139 100q-108 0 -140 -100h279zM913 334h-497q13 -37 47 -56.5t74 -19.5q106 0 178 25q6 2 18 2q39 0 60 -27l77 -108q13 -20 13 -41q0 -44 -39 -64q-149 -68 -303 -68q-196 0 -333.5 134t-137.5 323t137.5 323t333.5 134q116 0 213.5 -53t160 -161
t62.5 -251v-27q0 -26 -19 -45.5t-45 -19.5z" />
    <glyph glyph-name="f" unicode="f" horiz-adv-x="759" 
d="M102 868h86v52q0 71 16 128t38.5 92t57 61t62 38t62.5 18.5t49.5 7.5t32.5 1q44 0 123 -9q23 0 41 -17t18 -40v-137q0 -23 -18 -40t-41 -17q-14 2 -43 2q-27 0 -46.5 -9.5t-28 -22.5t-13.5 -26t-6 -22v-10v-50h133q26 0 45.5 -18.5t19.5 -44.5v-154q0 -26 -19.5 -44.5
t-45.5 -18.5h-133v-522q0 -26 -19 -46t-45 -20h-176q-26 0 -45 20t-19 46v522h-86q-26 0 -45.5 18.5t-19.5 44.5v154q0 26 19.5 44.5t45.5 18.5z" />
    <glyph glyph-name="g" unicode="g" horiz-adv-x="1146" 
d="M551 610q-74 0 -126 -50t-52 -126t52 -126t126 -50q77 0 129.5 50t52.5 126t-52.5 126t-129.5 50zM358 -84q94 -43 209 -43q54 0 110 33.5t56 85.5v76q-77 -91 -225 -91q-121 0 -222 61.5t-158.5 166.5t-57.5 229t57.5 229t158.5 166.5t222 61.5q71 0 126 -19.5t99 -70.5
q0 27 19 47t45 20h176q26 0 44.5 -19.5t18.5 -45.5v-787q0 -123 -63.5 -220.5t-170.5 -150.5t-237 -53q-158 0 -313 80q-17 8 -28 25t-11 37q0 21 8 37l68 116q18 33 51 33q6 0 18 -4z" />
    <glyph glyph-name="h" unicode="h" horiz-adv-x="1040" 
d="M111 66v1075q0 26 18.5 45.5t44.5 19.5h176q26 0 45 -19.5t19 -45.5v-342q20 31 52 52t65 28.5t49.5 9.5t27.5 2q69 0 124.5 -19t90.5 -47t60.5 -66.5t38 -71t19.5 -68t8 -50.5t1 -24v-479q0 -27 -18.5 -46.5t-44.5 -19.5h-176q-26 0 -45 20t-19 46v413q0 18 -0.5 29
t-6 32.5t-16 34.5t-32.5 24t-53 11q-34 0 -60 -15.5t-39 -38.5t-19.5 -45t-6.5 -40v-405q0 -26 -19 -46t-45 -20h-176q-26 0 -44.5 19.5t-18.5 46.5z" />
    <glyph glyph-name="i" unicode="i" 
d="M94 1102q0 71 49 120.5t119 49.5t119 -49.5t49 -120.5q0 -69 -49 -118.5t-119 -49.5t-119 49.5t-49 118.5zM111 66v737q0 26 18.5 45.5t44.5 19.5h176q26 0 45 -19.5t19 -45.5v-737q0 -26 -19 -46t-45 -20h-176q-26 0 -44.5 19.5t-18.5 46.5z" />
    <glyph glyph-name="j" unicode="j" 
d="M94 1102q0 71 49 120.5t119 49.5t119 -49.5t49 -120.5q0 -69 -49 -118.5t-119 -49.5t-119 49.5t-49 118.5zM-27 -336q-22 0 -39.5 17t-17.5 40v142q0 23 18 40t41 17l45 -4q41 1 63.5 23.5t24.5 44.5l3 22v797q0 26 18.5 45.5t44.5 19.5h176q26 0 45 -19.5t19 -45.5v-799
q0 -71 -15.5 -128t-38.5 -92t-57 -61t-61.5 -38t-62 -18.5t-49.5 -7.5t-32 -1q-70 0 -125 6z" />
    <glyph glyph-name="k" unicode="k" horiz-adv-x="958" 
d="M682 444l260 -378q0 -27 -18.5 -46.5t-44.5 -19.5h-230q-33 0 -59 43l-176 254v-231q0 -26 -19 -46t-45 -20h-176q-26 0 -44.5 19.5t-18.5 46.5v1095q0 27 18.5 46.5t44.5 19.5h176q26 0 45 -20t19 -46v-567l143 231q22 43 59 43h222q26 0 44.5 -19.5t18.5 -45.5z" />
    <glyph glyph-name="l" unicode="l" 
d="M111 66v1095q0 27 18.5 46.5t44.5 19.5h176q26 0 45 -20t19 -46v-1095q0 -26 -19 -46t-45 -20h-176q-26 0 -44.5 19.5t-18.5 46.5z" />
    <glyph glyph-name="m" unicode="m" horiz-adv-x="1476" 
d="M598 66v434q0 17 -3 33t-11 35t-26.5 30.5t-45.5 11.5q-32 0 -53.5 -16.5t-30 -44t-11.5 -47t-3 -39.5v-397q0 -26 -19 -46t-45 -20h-176q-26 0 -44.5 19.5t-18.5 46.5v737q0 26 18.5 45.5t44.5 19.5h176q26 0 45 -21t19 -48q20 31 52 52t65 28.5t49.5 9.5t27.5 2
q141 -3 215 -111q24 31 57 54t60 33.5t57 16.5t41.5 6.5t20.5 0.5q80 0 141.5 -27t95.5 -65.5t55.5 -88.5t28 -89t6.5 -74v-481q0 -27 -18.5 -46.5t-44.5 -19.5h-176q-26 0 -45 20t-19 46v434q0 110 -84 110q-98 0 -98 -151v-393q0 -27 -18.5 -46.5t-44.5 -19.5h-176
q-26 0 -45 20t-19 46z" />
    <glyph glyph-name="n" unicode="n" horiz-adv-x="1040" 
d="M647 66v413q0 18 -0.5 29t-6 32.5t-16 34.5t-32.5 24t-53 11q-29 0 -52 -12t-36 -29t-22 -38.5t-12 -38t-3 -29.5v-397q0 -26 -19 -46t-45 -20h-176q-26 0 -44.5 19.5t-18.5 46.5v737q0 26 18.5 45.5t44.5 19.5h176q26 0 45 -21t19 -48q20 31 52 52t65 28.5t49.5 9.5
t27.5 2q69 0 124.5 -19t90.5 -47t60.5 -66.5t38 -71t19.5 -68t8 -50.5t1 -24v-479q0 -27 -18.5 -46.5t-44.5 -19.5h-176q-26 0 -45 20t-19 46z" />
    <glyph glyph-name="o" unicode="o" horiz-adv-x="1093" 
d="M547 891q199 0 338 -134t139 -323t-139 -323t-338 -134t-338 134t-139 323t139 323t338 134zM547 258q74 0 124 50.5t50 125.5t-50 125.5t-124 50.5t-124 -50.5t-50 -125.5t50 -125.5t124 -50.5z" />
    <glyph glyph-name="p" unicode="p" horiz-adv-x="1146" 
d="M596 610q-77 0 -129.5 -50t-52.5 -126t52.5 -126t129.5 -50q74 0 126 50t52 126t-52 126t-126 50zM111 -293v1096q0 26 18.5 45.5t44.5 19.5h176q26 0 45 -20t19 -47q44 51 99 70.5t126 19.5q121 0 222 -61.5t158.5 -166.5t57.5 -229t-57.5 -229t-158.5 -166.5
t-222 -61.5q-148 0 -225 91v-361q0 -26 -19 -45.5t-45 -19.5h-176q-26 0 -44.5 19.5t-18.5 45.5z" />
    <glyph glyph-name="q" unicode="q" horiz-adv-x="1146" 
d="M551 610q-74 0 -126 -50t-52 -126t52 -126t126 -50q77 0 129.5 50t52.5 126t-52.5 126t-129.5 50zM1036 803v-1096q0 -26 -18.5 -45.5t-44.5 -19.5h-176q-26 0 -45 19.5t-19 45.5v361q-77 -91 -225 -91q-121 0 -222 61.5t-158.5 166.5t-57.5 229t57.5 229t158.5 166.5
t222 61.5q71 0 126 -19.5t99 -70.5q0 27 19 47t45 20h176q26 0 44.5 -19.5t18.5 -45.5z" />
    <glyph glyph-name="r" unicode="r" horiz-adv-x="759" 
d="M657 594l-32 2q-54 0 -96.5 -23.5t-66.5 -59t-36 -71.5t-12 -67v-309q0 -26 -19 -46t-45 -20h-176q-26 0 -44.5 19.5t-18.5 46.5v737q0 26 18.5 45.5t44.5 19.5h176q26 0 45 -21t19 -48v-11q20 31 52 52t64.5 28.5t49.5 10t28 2.5q33 0 49 -2q28 -3 47 -21.5t19 -44.5
v-154q0 -27 -19.5 -46t-46.5 -19z" />
    <glyph glyph-name="s" unicode="s" horiz-adv-x="837" 
d="M57 143q-12 15 -12 41t23 49l106 62q17 10 37 10q29 0 39 -12q24 -28 60 -44t60 -18l23 -2q84 0 84 33q0 19 -31 34t-77.5 26t-100.5 32t-100.5 49t-77.5 81t-31 124q0 111 97.5 197t267.5 86q158 0 281 -127q26 -26 26 -53q0 -37 -24 -58l-95 -55q-24 -16 -43 -16
q-17 0 -30 8q-61 49 -121 49q-17 0 -27.5 -1.5t-19.5 -9.5t-9 -22q0 -16 23 -29t60 -24.5t81.5 -25t89 -35t81.5 -50.5t60 -76.5t23 -107.5q0 -46 -24.5 -94t-71 -90.5t-124 -69.5t-171.5 -27q-203 0 -332 166z" />
    <glyph glyph-name="t" unicode="t" horiz-adv-x="759" 
d="M188 868v242q0 25 14.5 43t37.5 21l186 38q26 0 46 -19.5t20 -45.5v-279h133q26 0 45.5 -18.5t19.5 -44.5v-154q0 -26 -19.5 -44.5t-45.5 -18.5h-133v-240q0 -4 0.5 -10t5 -21.5t13 -27.5t28 -21.5t45.5 -9.5q16 0 43 2q24 0 42.5 -16t18.5 -39v-142q0 -23 -17 -40
t-40 -17q-55 -6 -125 -6q-18 0 -32.5 1t-49.5 7.5t-62.5 18.5t-62 38t-57 61t-38.5 92t-16 128v242h-86q-26 0 -45.5 18.5t-19.5 44.5v154q0 26 19.5 44.5t45.5 18.5h86z" />
    <glyph glyph-name="u" unicode="u" horiz-adv-x="1044" 
d="M522 -23q-78 0 -143 17.5t-107.5 45.5t-75 67t-50.5 77t-29 80.5t-14 73t-3 59.5v406q0 26 19 45.5t45 19.5h176q26 0 44.5 -19.5t18.5 -45.5v-414q0 -19 3.5 -37t14 -41.5t36.5 -38t65 -14.5t65 14.5t36.5 38t14 41.5t3.5 37v414q0 26 19 45.5t45 19.5h176
q26 0 44.5 -19.5t18.5 -45.5v-406q0 -29 -3 -59.5t-14 -73t-29 -80.5t-50.5 -77t-75 -67t-107.5 -45.5t-143 -17.5z" />
    <glyph glyph-name="v" unicode="v" horiz-adv-x="978" 
d="M586 0h-193q-45 0 -63 41l-301 762q0 26 18.5 45.5t44.5 19.5h195q20 0 36.5 -12t22.5 -31l143 -426l144 426q6 19 22.5 31t36.5 12h195q26 0 44.5 -19.5t18.5 -45.5l-301 -762q-18 -41 -63 -41z" />
    <glyph glyph-name="w" unicode="w" horiz-adv-x="1343" 
d="M918 373l88 454q3 17 20 29t37 12h190q25 0 43.5 -19t18.5 -44l-225 -760q-6 -20 -24 -32.5t-40 -12.5h-201q-22 0 -40.5 12.5t-22.5 32.5l-90 342l-90 -342q-4 -20 -23 -32.5t-41 -12.5h-201q-22 0 -39.5 12.5t-23.5 32.5l-225 760q0 25 18 44t43 19h191q20 0 37 -12
t20 -29l88 -454l100 450q5 19 22.5 32t39.5 13h168q22 0 39 -13t22 -32z" />
    <glyph glyph-name="x" unicode="x" horiz-adv-x="888" 
d="M444 195l-98 -152q-26 -43 -59 -43h-195q-26 0 -44.5 19.5t-18.5 46.5l252 370l-252 367q0 26 18.5 45.5t44.5 19.5h195q33 0 59 -43l98 -147l99 147q26 43 59 43h195q26 0 44.5 -19.5t18.5 -45.5l-252 -367l252 -370q0 -27 -18.5 -46.5t-44.5 -19.5h-195q-33 0 -59 43z
" />
    <glyph glyph-name="y" unicode="y" horiz-adv-x="978" 
d="M143 -354q-25 2 -42 18.5t-17 40.5v150q0 25 19 43t44 18q16 -2 48 -2q45 0 84 31t57 78l-307 780q0 26 18.5 45.5t44.5 19.5h195q20 0 36.5 -12t22.5 -31l143 -426l144 426q6 19 22.5 31t36.5 12h195q26 0 44.5 -19.5t18.5 -45.5l-344 -875q-29 -74 -66 -128t-73 -83.5
t-79.5 -47t-77 -22.5t-74.5 -5q-47 0 -93 4z" />
    <glyph glyph-name="z" unicode="z" horiz-adv-x="888" 
d="M90 268l307 320h-254q-26 0 -45.5 18.5t-19.5 44.5v154q0 26 19.5 44.5t45.5 18.5h602q27 0 46.5 -18.5t19.5 -44.5v-164q0 -22 -12 -37l-307 -323h253q26 0 46 -19t20 -45v-154q0 -26 -19.5 -44.5t-46.5 -18.5h-602q-26 0 -45.5 18.5t-19.5 44.5v168q0 22 12 37z" />
    <glyph glyph-name="braceleft" unicode="{" horiz-adv-x="827" 
d="M111 522v131q0 26 19.5 45t45.5 19q36 0 56.5 31.5t23.5 63.5l2 32v286q0 70 14.5 126t35.5 91.5t52.5 61t58 38t61 19.5t52 8t39.5 1h80q26 0 46 -19t20 -45v-127q0 -26 -19.5 -44.5t-46.5 -18.5h-20q-29 0 -49.5 -17t-20.5 -47v-350q0 -156 -100 -219q100 -63 100 -219
v-353q0 -29 20.5 -46t49.5 -17h20q26 0 46 -19t20 -45v-127q0 -26 -19.5 -44.5t-46.5 -18.5h-80q-22 0 -39.5 1t-52 8t-61 19t-58 38t-52.5 61t-35.5 91t-14.5 126v289q0 5 -0.5 13.5t-5 30.5t-12 39t-24.5 30.5t-40 13.5q-26 0 -45.5 18.5t-19.5 44.5z" />
    <glyph glyph-name="bar" unicode="|" 
d="M111 -236v1645q0 27 18.5 46.5t44.5 19.5h176q26 0 45 -20t19 -46v-1645q0 -26 -19 -45.5t-45 -19.5h-176q-26 0 -44.5 19.5t-18.5 45.5z" />
    <glyph glyph-name="braceright" unicode="}" horiz-adv-x="827" 
d="M717 653v-131q0 -26 -19.5 -44.5t-46.5 -18.5q-36 0 -56.5 -31.5t-22.5 -63.5l-3 -32v-289q0 -70 -14.5 -126t-35.5 -91t-52.5 -61t-58 -38t-61 -19t-52 -8t-39.5 -1h-80q-26 0 -45.5 18.5t-19.5 44.5v127q0 26 19.5 45t45.5 19h21q29 0 49 16.5t20 46.5v353
q0 156 101 219q-101 63 -101 219v350q0 30 -20 47t-49 17h-21q-26 0 -45.5 18.5t-19.5 44.5v127q0 26 19.5 45t45.5 19h80q22 0 39.5 -1t52 -8t61 -19.5t58 -38t52.5 -61t35.5 -91.5t14.5 -126v-286q0 -5 0.5 -13.5t5 -30.5t12 -39t24.5 -30.5t40 -13.5q26 0 46 -19t20 -45z
" />
    <glyph glyph-name="asciitilde" unicode="~" horiz-adv-x="989" 
d="M649 258q-59 1 -113 23.5t-89 44.5t-50 22q-23 0 -30 -41q-9 -39 -58 -39h-137q-26 0 -43.5 18.5t-17.5 45.5q6 56 21.5 101.5t36 73.5t44.5 49t46.5 31t41 15.5t29.5 6.5l12 1q49 0 93.5 -14.5t69.5 -31.5t49.5 -31.5t39.5 -14.5q24 0 31 41q9 39 57 39h135
q26 0 44 -18.5t18 -44.5q-8 -77 -34.5 -133.5t-58.5 -83t-63.5 -41.5t-52.5 -17z" />
    <glyph glyph-name="uni00A0" unicode="&#xa0;" horiz-adv-x="329" 
 />
    <glyph glyph-name="exclamdown" unicode="&#xa1;" horiz-adv-x="557" 
d="M111 1016q0 71 49 120.5t119 49.5t118.5 -49.5t48.5 -120.5q0 -69 -48.5 -118.5t-118.5 -49.5t-119 49.5t-49 118.5zM127 -20l16 737q0 26 19 45.5t45 19.5h143q26 0 45 -19.5t19 -45.5l16 -737q0 -27 -18.5 -46.5t-44.5 -19.5h-177q-26 0 -44.5 19.5t-18.5 46.5z" />
    <glyph glyph-name="cent" unicode="&#xa2;" horiz-adv-x="1449" 
d="M582 -154v150q-207 51 -339 216t-132 380t132 380t339 216v149q0 27 18.5 46.5t44.5 19.5h178q26 0 45 -20t19 -46v-147q162 -37 282 -147t170 -265q-2 -25 -20.5 -43t-44.5 -18h-203q-35 0 -53 35q-39 78 -114 126t-165 48q-132 0 -224.5 -98t-92.5 -236t92.5 -236
t224.5 -98q90 0 165 48t114 126q18 35 53 35h203q26 0 44.5 -18t20.5 -43q-50 -156 -170 -265.5t-282 -146.5v-148q0 -26 -19 -45.5t-45 -19.5h-178q-26 0 -44.5 19.5t-18.5 45.5z" />
    <glyph glyph-name="sterling" unicode="&#xa3;" horiz-adv-x="1202" 
d="M1065 756q0 -26 -19 -46t-45 -20h-188q-26 0 -44.5 19.5t-18.5 46.5v35q0 48 -23 81t-65 33q-52 0 -69.5 -29t-17.5 -79q0 -33 22 -92t26 -76h147q22 0 38.5 -16t16.5 -38v-131q0 -22 -16.5 -37.5t-38.5 -15.5h-147q-18 -66 -45 -110h448q26 0 46 -19t20 -45v-154
q0 -26 -19.5 -44.5t-46.5 -18.5h-850q-26 0 -45.5 18.5t-19.5 44.5v154q0 26 19.5 45t45.5 19h88q33 28 62 110h-119q-22 0 -38.5 15.5t-16.5 37.5v131q0 22 16.5 38t38.5 16h108q-43 97 -43 172q0 23 1 42.5t9 62t22 75.5t43.5 73.5t70 67.5t105 45.5t145.5 18.5
q74 0 135 -18t101 -46t70.5 -68t47 -78.5t26.5 -83t13 -75t4 -61.5z" />
    <glyph glyph-name="currency" unicode="&#xa4;" horiz-adv-x="991" 
d="M850 424q0 -98 -57 -186l88 -170q0 -28 -18.5 -48t-45.5 -20h-135q-20 0 -37 11t-24 30l-29 57q-44 -12 -96 -12q-54 0 -97 12l-28 -57q-7 -19 -24.5 -30t-37.5 -11h-135q-27 0 -45 20t-18 48l88 170q-58 90 -58 186t58 186l-88 170q0 28 18 48t45 20h135q20 0 37.5 -11
t24.5 -30l28 -57q44 12 97 12q52 0 96 -12l29 57q7 19 24 30t37 11h135q27 0 45.5 -20t18.5 -48l-88 -170q57 -88 57 -186zM618 424q0 52 -35.5 87.5t-86.5 35.5t-87 -35.5t-36 -87.5t36 -87.5t87 -35.5t86.5 35.5t35.5 87.5z" />
    <glyph glyph-name="yen" unicode="&#xa5;" horiz-adv-x="1306" 
d="M967 145h-162v-79q0 -26 -19 -46t-45 -20h-176q-26 0 -44.5 19.5t-18.5 46.5v79h-162q-22 0 -37.5 15t-15.5 37v125q0 22 15.5 36.5t37.5 14.5h162v26l-19 35h-143q-22 0 -37.5 14.5t-15.5 36.5v125q0 22 15.5 37t37.5 15h18l-247 458q0 27 18.5 46.5t44.5 19.5h193
q20 0 36.5 -12t22.5 -31l227 -434l228 434q6 19 22.5 31t36.5 12h193q26 0 44.5 -19.5t18.5 -46.5l-250 -458h21q21 0 37 -15.5t16 -36.5v-125q0 -21 -16 -36t-37 -15h-144l-18 -35v-26h162q21 0 37 -15t16 -36v-125q0 -21 -16 -36.5t-37 -15.5z" />
    <glyph glyph-name="brokenbar" unicode="&#xa6;" 
d="M111 756v653q0 27 18.5 46.5t44.5 19.5h176q26 0 45 -20t19 -46v-653q0 -26 -19 -46t-45 -20h-176q-26 0 -44.5 19.5t-18.5 46.5zM111 -236v654q0 26 18.5 45.5t44.5 19.5h176q26 0 45 -19.5t19 -45.5v-654q0 -26 -19 -45.5t-45 -19.5h-176q-26 0 -44.5 19.5t-18.5 45.5z
" />
    <glyph glyph-name="section" unicode="&#xa7;" horiz-adv-x="1046" 
d="M428 602q0 -21 34.5 -39t86.5 -18q84 0 84 33q0 26 -44 43.5t-93 17.5q-33 0 -50.5 -7t-17.5 -30zM455 -23q-203 0 -332 166q-12 15 -12 41q0 27 22 49l107 62q17 10 36 10q29 0 39 -12q24 -28 60 -44t60 -18l24 -2q84 0 84 33q0 19 -31 34t-77.5 26t-100.5 32t-100.5 49
t-77.5 81t-31 124q0 59 29 114t84 95q-23 51 -23 107q0 111 97.5 196.5t267.5 85.5q157 0 280 -127q27 -27 27 -53q0 -36 -25 -57l-94 -56q-24 -16 -43 -16q-18 0 -31 8q-61 49 -121 49q-17 0 -27 -1.5t-19 -9t-9 -21.5q0 -19 31 -34.5t77.5 -27t100.5 -33.5t100.5 -50.5
t77.5 -81.5t31 -122q0 -50 -30.5 -104.5t-86.5 -95.5q27 -52 27 -115q0 -46 -24.5 -94t-71 -90.5t-124 -69.5t-171.5 -27z" />
    <glyph glyph-name="dieresis" unicode="&#xa8;" horiz-adv-x="915" 
d="M111 1030q0 65 45.5 110.5t109.5 45.5t110 -46t46 -110t-46 -110t-110 -46t-109.5 45.5t-45.5 110.5zM494 1030q0 65 45.5 110.5t109.5 45.5q65 0 110.5 -46t45.5 -110t-45.5 -110t-110.5 -46q-64 0 -109.5 45.5t-45.5 110.5z" />
    <glyph glyph-name="copyright" unicode="&#xa9;" horiz-adv-x="1449" 
d="M725 1206q167 0 308.5 -82t223.5 -223.5t82 -308.5q0 -125 -48.5 -239t-130.5 -196.5t-196 -131t-239 -48.5t-239 48.5t-196 131t-130.5 196.5t-48.5 239q0 167 82 308.5t223.5 223.5t308.5 82zM725 131q125 0 231 62t168 168t62 231t-62 231t-168 168t-231 62
q-126 0 -232 -62t-167.5 -168t-61.5 -231t61.5 -231t167.5 -168t232 -62zM723 293q-129 0 -219 87t-90 212q0 124 90.5 212.5t218.5 88.5q100 0 180.5 -61.5t116.5 -159.5q0 -20 -13 -32.5t-32 -12.5h-129q-26 0 -41 22q-25 49 -84 49q-41 0 -69.5 -30.5t-28.5 -75.5
q0 -44 28.5 -74.5t69.5 -30.5q58 0 84 50q15 22 41 22h129q19 0 32 -12.5t13 -32.5q-36 -98 -116.5 -159.5t-180.5 -61.5z" />
    <glyph glyph-name="ordfeminine" unicode="&#xaa;" horiz-adv-x="729" 
d="M618 958v-299q0 -15 -10.5 -25.5t-25.5 -10.5h-109q-15 0 -26 10.5t-11 25.5q-52 -49 -133 -49q-192 0 -192 195q0 59 33.5 97.5t77 52.5t93.5 14q54 0 113 -31q0 43 -19 62.5t-73 19.5t-105 -19q-4 -2 -12 -2q-27 0 -41 27l-24 61q-4 8 -4 21q0 25 18 37q79 41 174 41
q130 0 203 -56.5t73 -171.5zM365 770q71 0 71 35q0 18 -13.5 27.5t-25 10.5t-32.5 1q-22 0 -34.5 -1t-26 -10.5t-13.5 -27.5q0 -35 74 -35z" />
    <glyph glyph-name="guillemotleft" unicode="&#xab;" horiz-adv-x="1204" 
d="M418 442q0 -21 8 -34l184 -342q0 -28 -16.5 -47t-42.5 -19h-176q-36 0 -56 39l-200 369q-8 13 -8 34q0 22 8 35l198 363q20 39 56 39h176q26 0 42.5 -19t16.5 -47l-182 -336q-8 -13 -8 -35zM901 442q0 -21 8 -34l185 -342q0 -28 -17 -47t-43 -19h-176q-35 0 -55 39
l-201 369q-8 13 -8 34q0 22 8 35l199 363q20 39 55 39h176q26 0 43 -19t17 -47l-183 -336q-8 -13 -8 -35z" />
    <glyph glyph-name="logicalnot" unicode="&#xac;" horiz-adv-x="1060" 
d="M647 332h-471q-26 0 -45.5 18.5t-19.5 44.5v154q0 26 19.5 44.5t45.5 18.5h711q26 0 44.5 -19.5t18.5 -45.5v-385q0 -27 -18.5 -46.5t-44.5 -19.5h-176q-26 0 -45 20t-19 46v170z" />
    <glyph glyph-name="uni00AD" unicode="&#xad;" horiz-adv-x="405" 
 />
    <glyph glyph-name="registered" unicode="&#xae;" horiz-adv-x="1449" 
d="M725 1206q167 0 308.5 -82t223.5 -223.5t82 -308.5q0 -125 -48.5 -239t-130.5 -196.5t-196 -131t-239 -48.5t-239 48.5t-196 131t-130.5 196.5t-48.5 239q0 167 82 308.5t223.5 223.5t308.5 82zM725 131q125 0 231 62t168 168t62 231t-62 231t-168 168t-231 62
q-126 0 -232 -62t-167.5 -168t-61.5 -231t61.5 -231t167.5 -168t232 -62zM670 743v-139h43q29 0 47 17t18 53q0 69 -65 69h-43zM891 489l110 -147q0 -20 -13 -32.5t-32 -12.5h-137q-20 0 -37 20l-98 123h-14v-98q0 -20 -13 -32.5t-32 -12.5h-119q-19 0 -32 12.5t-13 32.5
v520q0 19 12 32t31 13h233q5 0 14 -0.5t35 -5t49.5 -12.5t52.5 -25.5t50 -41t35 -62t14 -86.5q0 -120 -96 -185z" />
    <glyph glyph-name="macron" unicode="&#xaf;" horiz-adv-x="851" 
d="M676 905h-500q-26 0 -45.5 19t-19.5 45v153q0 26 19.5 45t45.5 19h500q26 0 45.5 -19t19.5 -45v-153q0 -26 -19.5 -45t-45.5 -19z" />
    <glyph glyph-name="degree" unicode="&#xb0;" horiz-adv-x="759" 
d="M381 1186q113 0 190.5 -77t77.5 -189q0 -114 -77.5 -192.5t-190.5 -78.5q-114 0 -192 78.5t-78 192.5q0 112 78 189t192 77zM381 842q31 0 52.5 23t21.5 55q0 30 -21.5 51.5t-52.5 21.5q-32 0 -55 -22t-23 -51q0 -32 23 -55t55 -23z" />
    <glyph glyph-name="plusminus" unicode="&#xb1;" horiz-adv-x="872" 
d="M285 414v129h-115q-24 0 -41.5 17.5t-17.5 41.5v139q0 25 17.5 42.5t41.5 17.5h115v127q0 26 18.5 45.5t44.5 19.5h176q26 0 45 -19.5t19 -45.5v-127h114q24 0 42 -18t18 -42v-139q0 -24 -18 -41.5t-42 -17.5h-114v-129q0 -26 -19 -46t-45 -20h-176q-26 0 -44.5 19.5
t-18.5 46.5zM170 258h532q24 0 42 -17.5t18 -41.5v-140q0 -24 -18 -41.5t-42 -17.5h-532q-24 0 -41.5 17.5t-17.5 41.5v140q0 24 17.5 41.5t41.5 17.5z" />
    <glyph glyph-name="twosuperior" unicode="&#xb2;" horiz-adv-x="653" 
d="M111 958v41q0 8 0.5 17t5 28.5t11.5 36.5t22.5 37t35.5 34.5t52.5 24t72.5 9.5q53 0 94 -13.5t64 -33t37.5 -46.5t19 -49t4.5 -45q0 -119 -120 -208h96q15 0 26 -11t11 -26v-95q0 -15 -11 -25.5t-26 -10.5h-342q-15 0 -26 10.5t-11 25.5v89q0 19 12 28q138 116 166.5 145
t28.5 52q0 26 -27 26q-26 0 -26 -30v-11q0 -13 -9.5 -22.5t-23.5 -9.5h-105q-13 0 -22.5 9t-9.5 23z" />
    <glyph glyph-name="threesuperior" unicode="&#xb3;" horiz-adv-x="624" 
d="M514 813q0 -22 -4.5 -43t-18.5 -46.5t-36.5 -44.5t-61.5 -31.5t-90 -12.5q-52 0 -90.5 17t-57 39t-29.5 51t-13 44.5t-2 26.5q0 14 9.5 23.5t22.5 9.5h95q24 0 32 -27q8 -28 35 -28q37 0 37 36q0 31 -31 31h-10q-11 0 -19 8t-8 19v69q0 10 8 18.5t19 8.5h10q33 0 33 31
q0 7 -2 14.5t-11.5 16t-25.5 8.5q-27 0 -35 -29q-8 -27 -32 -27h-95q-13 0 -22.5 9.5t-9.5 23.5q0 11 2 26.5t13 44.5t29.5 51t57 39t90.5 17q51 0 90 -12.5t61.5 -31.5t36.5 -44.5t18.5 -46.5t4.5 -43q0 -72 -49 -108q49 -34 49 -107z" />
    <glyph glyph-name="acute" unicode="&#xb4;" horiz-adv-x="632" 
d="M522 1118l-135 -217q-33 -37 -65 -37h-144q-29 0 -48 20t-19 48l106 215q9 17 26 28t36 11h178q27 0 46 -20t19 -48z" />
    <glyph glyph-name="mu" unicode="&#xb5;" horiz-adv-x="1064" 
d="M111 -293v1096q0 26 18.5 45.5t44.5 19.5h176q26 0 45 -19.5t19 -45.5v-414q0 -19 3.5 -37t13.5 -41.5t36 -38t65 -14.5t65 14.5t36.5 38t14 41.5t3.5 37v414q0 26 19 45.5t45 19.5h176q26 0 44.5 -19.5t18.5 -45.5v-406q0 -29 -3 -59.5t-14 -73t-29 -80.5t-50.5 -77
t-75 -67t-107.5 -45.5t-143 -17.5q-61 0 -118 13v-283q0 -26 -19 -45.5t-45 -19.5h-176q-26 0 -44.5 19.5t-18.5 45.5z" />
    <glyph glyph-name="paragraph" unicode="&#xb6;" horiz-adv-x="1361" 
d="M563 1186h625q26 0 44.5 -19.5t18.5 -46.5v-1054q0 -27 -18.5 -46.5t-44.5 -19.5h-176q-26 0 -45 20t-19 46v839h-112v-839q0 -26 -19 -46t-45 -20h-176q-26 0 -45 20t-19 46v260q-23 1 -50.5 5t-70 16.5t-81.5 31t-80 52t-71 76t-49 106.5t-19 141q0 69 15.5 128.5
t41.5 100.5t60 74.5t71.5 54.5t75 36t71.5 22t60 11t42 5h15z" />
    <glyph glyph-name="periodcentered" unicode="&#xb7;" horiz-adv-x="561" 
d="M111 440q0 71 49 120.5t121 49.5q71 0 120.5 -50t49.5 -120q0 -72 -49.5 -122t-120.5 -50q-72 0 -121 50t-49 122z" />
    <glyph glyph-name="cedilla" unicode="&#xb8;" horiz-adv-x="604" 
d="M147 -111l31 109q10 33 39 33h119q17 0 29 -12t12 -31l-15 -47q5 -1 14 -3.5t32 -14t40 -26t31.5 -42.5t14.5 -62q0 -45 -21 -80t-49.5 -53.5t-65 -30t-61 -15t-43.5 -3.5q-24 0 -107 10q-15 2 -25.5 12.5t-10.5 26.5v86q0 16 11 27.5t28 11.5l51 -6q53 0 53 37
q0 14 -9 23.5t-17 12.5l-9 3l-43 6q-29 4 -29 28z" />
    <glyph glyph-name="onesuperior" unicode="&#xb9;" horiz-adv-x="575" 
d="M291 1186h131q19 0 31 -12t12 -31v-451q0 -19 -12 -31t-31 -12h-133q-19 0 -31 12t-12 31v279l-96 -25q-16 0 -27.5 11t-11.5 28v123q0 30 28 37l121 37q20 4 31 4z" />
    <glyph glyph-name="ordmasculine" unicode="&#xba;" horiz-adv-x="759" 
d="M381 1186q113 0 190.5 -77t77.5 -189q0 -114 -77.5 -192.5t-190.5 -78.5q-114 0 -192 78.5t-78 192.5q0 112 78 189t192 77zM381 842q31 0 52.5 23t21.5 55q0 30 -21.5 51.5t-52.5 21.5q-32 0 -55 -22t-23 -51q0 -32 23 -55t55 -23z" />
    <glyph glyph-name="guillemotright" unicode="&#xbb;" horiz-adv-x="1204" 
d="M786 442q0 22 -8 35l-182 336q0 28 16.5 47t42.5 19h176q36 0 56 -39l198 -363q9 -15 9 -35q0 -19 -9 -34l-200 -369q-20 -39 -56 -39h-176q-26 0 -42.5 19t-16.5 47l184 342q8 13 8 34zM303 442q0 22 -8 35l-182 336q0 28 16.5 47t42.5 19h176q35 0 55 -39l199 -363
q8 -13 8 -35q0 -21 -8 -34l-201 -369q-20 -39 -55 -39h-176q-26 0 -42.5 19t-16.5 47l184 342q8 13 8 34z" />
    <glyph glyph-name="onequarter" unicode="&#xbc;" horiz-adv-x="1353" 
d="M942 256h70v98zM1190 492v-236h16q15 0 26 -11t11 -26v-96q0 -15 -11 -26t-26 -11h-16v-43q0 -19 -12 -31t-31 -12h-135q-19 0 -31 12t-12 31v43h-185q-15 0 -27 12t-12 27v102q0 9 9 27l168 262q14 21 36 21h187q19 0 32 -13t13 -32zM291 1186h131q19 0 31 -12t12 -31
v-451q0 -19 -12 -31t-31 -12h-133q-19 0 -31 12t-12 31v279l-96 -25q-16 0 -27.5 11t-11.5 28v123q0 30 28 37l121 37q20 4 31 4zM246 53l620 1106q17 27 45 27h152q21 0 33 -15t12 -38l-621 -1106q-17 -27 -45 -27h-151q-21 0 -33 15t-12 38z" />
    <glyph glyph-name="onehalf" unicode="&#xbd;" horiz-adv-x="1331" 
d="M291 1186h131q19 0 31 -12t12 -31v-451q0 -19 -12 -31t-31 -12h-133q-19 0 -31 12t-12 31v279l-96 -25q-16 0 -27.5 11t-11.5 28v123q0 30 28 37l121 37q20 4 31 4zM236 53l620 1106q17 27 45 27h152q21 0 33 -15t12 -38l-621 -1106q-17 -27 -45 -27h-151q-21 0 -33 15
t-12 38zM788 336v41q0 12 2 27.5t13 46t30.5 53.5t60 41t95.5 18q53 0 94 -13.5t64 -33t37.5 -46t19 -48.5t4.5 -45q0 -120 -121 -209h97q15 0 26 -11t11 -26v-94q0 -15 -11 -26t-26 -11h-342q-15 0 -26 11t-11 26v88q0 20 12 29q140 117 167.5 145t27.5 51q0 27 -27 27
t-27 -31v-10q0 -14 -9.5 -23.5t-22.5 -9.5h-105q-13 0 -23 9.5t-10 23.5z" />
    <glyph glyph-name="threequarters" unicode="&#xbe;" horiz-adv-x="1320" 
d="M909 256h70v98zM1157 492v-236h17q15 0 25.5 -11t10.5 -26v-96q0 -15 -10.5 -26t-25.5 -11h-17v-43q0 -19 -12 -31t-31 -12h-135q-19 0 -31 12t-12 31v43h-184q-15 0 -27 12t-12 27v102q0 11 8 27l168 262q14 21 37 21h186q19 0 32 -13t13 -32zM213 53l621 1106
q17 27 45 27h151q21 0 33 -15t12 -38l-620 -1106q-17 -27 -45 -27h-152q-21 0 -33 15t-12 38zM514 813q0 -22 -4.5 -43t-18.5 -46.5t-36.5 -44.5t-61.5 -31.5t-90 -12.5q-52 0 -90.5 17t-57 39t-29.5 51t-13 44.5t-2 26.5q0 14 9.5 23.5t22.5 9.5h95q24 0 32 -27
q8 -28 35 -28q37 0 37 36q0 31 -31 31h-10q-11 0 -19 8t-8 19v69q0 10 8 18.5t19 8.5h10q33 0 33 31q0 7 -2 14.5t-11.5 16t-25.5 8.5q-27 0 -35 -29q-8 -27 -32 -27h-95q-13 0 -22.5 9.5t-9.5 23.5q0 11 2 26.5t13 44.5t29.5 51t57 39t90.5 17q51 0 90 -12.5t61.5 -31.5
t36.5 -44.5t18.5 -46.5t4.5 -43q0 -72 -49 -108q49 -34 49 -107z" />
    <glyph glyph-name="questiondown" unicode="&#xbf;" horiz-adv-x="1028" 
d="M690 1036q0 -69 -49 -118.5t-119 -49.5t-119 49.5t-49 118.5q0 71 49 120.5t119 49.5t119 -49.5t49 -120.5zM356 801q13 33 56 33h188q26 0 44 -19t18 -45q-11 -50 -41 -99t-63.5 -86.5t-66 -73t-54 -72t-21.5 -70.5q0 -47 25 -78t81 -31q42 0 66 34t24 81v57
q0 25 18.5 44.5t43.5 19.5h182q25 0 43.5 -19.5t18.5 -44.5v-55q0 -18 -1 -36t-8.5 -61t-21 -78.5t-42.5 -79t-68.5 -74t-103.5 -51t-143 -20.5q-83 0 -150.5 19t-110 47.5t-74.5 69.5t-47.5 77t-24.5 78t-10.5 64t-1.5 43q0 62 27.5 122t62.5 101.5t82.5 100t72.5 102.5z
" />
    <glyph glyph-name="Agrave" unicode="&#xc0;" horiz-adv-x="1204" 
d="M483 1186h238q45 0 63 -41l396 -1079q0 -26 -19 -46t-45 -20h-194q-20 0 -37 12t-23 31l-53 150h-414l-53 -150q-6 -19 -22.5 -31t-36.5 -12h-195q-26 0 -44.5 19.5t-18.5 46.5l395 1079q18 41 63 41zM602 772l-106 -299h213zM430 1327l-135 217q0 28 19 48t46 20h179
q41 0 61 -39l107 -215q0 -28 -19.5 -48t-48.5 -20h-143q-33 0 -66 37z" />
    <glyph glyph-name="Aacute" unicode="&#xc1;" horiz-adv-x="1204" 
d="M483 1186h238q45 0 63 -41l396 -1079q0 -26 -19 -46t-45 -20h-194q-20 0 -37 12t-23 31l-53 150h-414l-53 -150q-6 -19 -22.5 -31t-36.5 -12h-195q-26 0 -44.5 19.5t-18.5 46.5l395 1079q18 41 63 41zM709 473l-107 299l-106 -299h213zM909 1544l-135 -217
q-33 -37 -65 -37h-144q-29 0 -48 20t-19 48l106 215q9 17 26 28t36 11h178q27 0 46 -20t19 -48z" />
    <glyph glyph-name="Acircumflex" unicode="&#xc2;" horiz-adv-x="1204" 
d="M483 1186h238q45 0 63 -41l396 -1079q0 -26 -19 -46t-45 -20h-194q-20 0 -37 12t-23 31l-53 150h-414l-53 -150q-6 -19 -22.5 -31t-36.5 -12h-195q-26 0 -44.5 19.5t-18.5 46.5l395 1079q18 41 63 41zM709 473l-107 299l-106 -299h213zM496 1659h213q19 0 34.5 -12.5
t22.5 -28.5l125 -264q0 -27 -18.5 -45.5t-45.5 -18.5h-127q-38 0 -57 37l-41 92l-41 -92q-19 -37 -57 -37h-127q-27 0 -45.5 18.5t-18.5 45.5l125 264q6 16 22.5 28.5t35.5 12.5z" />
    <glyph glyph-name="Atilde" unicode="&#xc3;" horiz-adv-x="1204" 
d="M760 1280q-59 1 -113 23.5t-89 44.5t-50 22q-24 0 -31 -41q-9 -39 -57 -39h-137q-26 0 -44 19t-18 45q8 77 34.5 133.5t59 83t64 42t53.5 17.5l21 2q49 0 93.5 -14.5t69.5 -31.5t49.5 -31.5t39.5 -14.5q23 0 30 41q9 39 58 39h135q26 0 43.5 -18.5t17.5 -45.5
q-8 -77 -34 -133.5t-58.5 -82.5t-63.5 -41t-52 -17zM483 1186h238q45 0 63 -41l396 -1079q0 -26 -19 -46t-45 -20h-194q-20 0 -37 12t-23 31l-53 150h-414l-53 -150q-6 -19 -22.5 -31t-36.5 -12h-195q-26 0 -44.5 19.5t-18.5 46.5l395 1079q18 41 63 41zM602 772l-106 -299
h213z" />
    <glyph glyph-name="Adieresis" unicode="&#xc4;" horiz-adv-x="1204" 
d="M483 1186h238q45 0 63 -41l396 -1079q0 -26 -19 -46t-45 -20h-194q-20 0 -37 12t-23 31l-53 150h-414l-53 -150q-6 -19 -22.5 -31t-36.5 -12h-195q-26 0 -44.5 19.5t-18.5 46.5l395 1079q18 41 63 41zM602 772l-106 -299h213zM258 1446q0 64 46 110t110 46t109.5 -45.5
t45.5 -110.5t-45.5 -110.5t-109.5 -45.5t-110 46t-46 110zM641 1446q0 64 45.5 110t110.5 46q64 0 109.5 -45.5t45.5 -110.5t-45.5 -110.5t-109.5 -45.5q-65 0 -110.5 46t-45.5 110z" />
    <glyph glyph-name="Aring" unicode="&#xc5;" horiz-adv-x="1204" 
d="M483 1186h238q45 0 63 -41l396 -1079q0 -26 -19 -46t-45 -20h-194q-20 0 -37 12t-23 31l-53 150h-414l-53 -150q-6 -19 -22.5 -31t-36.5 -12h-195q-26 0 -44.5 19.5t-18.5 46.5l395 1079q18 41 63 41zM602 772l-106 -299h213zM602 1827q113 0 190.5 -77t77.5 -189
q0 -114 -77.5 -192.5t-190.5 -78.5q-114 0 -192 78.5t-78 192.5q0 112 78 189t192 77zM602 1483q31 0 52.5 23t21.5 55q0 29 -22 51t-52 22q-32 0 -55 -22t-23 -51q0 -32 23 -55t55 -23z" />
    <glyph glyph-name="AE" unicode="&#xc6;" horiz-adv-x="1746" 
d="M1604 905h-471v-180h428q26 0 45.5 -18.5t19.5 -44.5v-154q0 -26 -19.5 -45t-45.5 -19h-428v-163h471q26 0 45.5 -19t19.5 -45v-154q0 -26 -19.5 -44.5t-45.5 -18.5h-711q-26 0 -45 20t-19 46v178h-364l-127 -213q-21 -31 -55 -31h-207q-26 0 -45 18.5t-19 44.5
q0 16 11 31l636 1059q22 33 58 33h887q26 0 45.5 -19t19.5 -45v-153q0 -26 -19.5 -45t-45.5 -19zM829 524v322l-196 -322h196z" />
    <glyph glyph-name="Ccedilla" unicode="&#xc7;" horiz-adv-x="1372" 
d="M590 -111l26 97q-227 34 -376.5 205t-149.5 401q0 126 49 240t133 196t200.5 130t246.5 48q212 0 375.5 -119t224.5 -309q-2 -25 -21 -43t-45 -18h-202q-37 0 -54 35q-39 78 -113.5 126t-164.5 48q-132 0 -225 -98t-93 -236t93 -236t225 -98q90 0 164.5 48t113.5 126
q17 35 54 35h202q26 0 45 -18t21 -43q-55 -167 -188.5 -280.5t-313.5 -139.5l-12 -45q5 -1 14 -3.5t31.5 -14t40 -26t31.5 -42.5t14 -62q0 -45 -21 -80t-49.5 -53.5t-65 -30t-61 -15t-43.5 -3.5q-24 0 -106 10q-15 2 -26 12.5t-11 26.5v86q0 16 11 27.5t28 11.5l51 -6
q53 0 53 37q0 14 -8.5 23.5t-17.5 12.5l-8 3l-44 6q-28 3 -28 28z" />
    <glyph glyph-name="Egrave" unicode="&#xc8;" horiz-adv-x="1028" 
d="M414 281h471q26 0 45.5 -19t19.5 -45v-154q0 -26 -19.5 -44.5t-45.5 -18.5h-711q-26 0 -44.5 19.5t-18.5 46.5v1054q0 27 18.5 46.5t44.5 19.5h711q26 0 45.5 -19t19.5 -45v-153q0 -26 -19.5 -45t-45.5 -19h-471v-180h428q26 0 45.5 -18.5t19.5 -44.5v-154
q0 -26 -19.5 -45t-45.5 -19h-428v-163zM379 1327l-135 217q0 28 19 48t46 20h178q19 0 36 -11t26 -28l106 -215q0 -28 -19 -48t-48 -20h-144q-32 0 -65 37z" />
    <glyph glyph-name="Eacute" unicode="&#xc9;" horiz-adv-x="1028" 
d="M414 281h471q26 0 45.5 -19t19.5 -45v-154q0 -26 -19.5 -44.5t-45.5 -18.5h-711q-26 0 -44.5 19.5t-18.5 46.5v1054q0 27 18.5 46.5t44.5 19.5h711q26 0 45.5 -19t19.5 -45v-153q0 -26 -19.5 -45t-45.5 -19h-471v-180h428q26 0 45.5 -18.5t19.5 -44.5v-154
q0 -26 -19.5 -45t-45.5 -19h-428v-163zM825 1544l-135 -217q-33 -37 -65 -37h-144q-29 0 -48 20t-19 48l106 215q9 17 26 28t36 11h178q27 0 46 -20t19 -48z" />
    <glyph glyph-name="Ecircumflex" unicode="&#xca;" horiz-adv-x="1028" 
d="M414 281h471q26 0 45.5 -19t19.5 -45v-154q0 -26 -19.5 -44.5t-45.5 -18.5h-711q-26 0 -44.5 19.5t-18.5 46.5v1054q0 27 18.5 46.5t44.5 19.5h711q26 0 45.5 -19t19.5 -45v-153q0 -26 -19.5 -45t-45.5 -19h-471v-180h428q26 0 45.5 -18.5t19.5 -44.5v-154
q0 -26 -19.5 -45t-45.5 -19h-428v-163zM438 1659h213q19 0 35.5 -12.5t22.5 -28.5l125 -264q0 -27 -18.5 -45.5t-45.5 -18.5h-127q-39 0 -57 37l-41 92l-41 -92q-18 -37 -58 -37h-127q-27 0 -45 18.5t-18 45.5l125 264q7 16 22.5 28.5t34.5 12.5z" />
    <glyph glyph-name="Edieresis" unicode="&#xcb;" horiz-adv-x="1028" 
d="M414 281h471q26 0 45.5 -19t19.5 -45v-154q0 -26 -19.5 -44.5t-45.5 -18.5h-711q-26 0 -44.5 19.5t-18.5 46.5v1054q0 27 18.5 46.5t44.5 19.5h711q26 0 45.5 -19t19.5 -45v-153q0 -26 -19.5 -45t-45.5 -19h-471v-180h428q26 0 45.5 -18.5t19.5 -44.5v-154
q0 -26 -19.5 -45t-45.5 -19h-428v-163zM190 1446q0 64 46 110t110 46t110 -46t46 -110t-46 -110t-110 -46t-110 46t-46 110zM573 1446q0 64 45.5 110t110.5 46t110.5 -46t45.5 -110t-45.5 -110t-110.5 -46t-110.5 46t-45.5 110z" />
    <glyph glyph-name="Igrave" unicode="&#xcc;" 
d="M111 66v1054q0 27 18.5 46.5t44.5 19.5h176q26 0 45 -20t19 -46v-1054q0 -26 -19 -46t-45 -20h-176q-26 0 -44.5 19.5t-18.5 46.5zM96 1327l-135 217q0 28 19 48t47 20h178q41 0 61 -39l107 -215q0 -28 -19.5 -48t-48.5 -20h-143q-33 0 -66 37z" />
    <glyph glyph-name="Iacute" unicode="&#xcd;" 
d="M111 66v1054q0 27 18.5 46.5t44.5 19.5h176q26 0 45 -20t19 -46v-1054q0 -26 -19 -46t-45 -20h-176q-26 0 -44.5 19.5t-18.5 46.5zM567 1544l-135 -217q-33 -37 -65 -37h-144q-29 0 -48 20t-19 48l106 215q9 17 26 28t36 11h178q27 0 46 -20t19 -48z" />
    <glyph glyph-name="Icircumflex" unicode="&#xce;" 
d="M111 66v1054q0 27 18.5 46.5t44.5 19.5h176q26 0 45 -20t19 -46v-1054q0 -26 -19 -46t-45 -20h-176q-26 0 -44.5 19.5t-18.5 46.5zM156 1659h213q19 0 34.5 -12.5t22.5 -28.5l125 -264q0 -27 -18.5 -45.5t-45.5 -18.5h-127q-38 0 -57 37l-41 92l-41 -92q-19 -37 -57 -37
h-127q-27 0 -45.5 18.5t-18.5 45.5l125 264q6 16 22.5 28.5t35.5 12.5z" />
    <glyph glyph-name="Idieresis" unicode="&#xcf;" 
d="M111 66v1054q0 27 18.5 46.5t44.5 19.5h176q26 0 45 -20t19 -46v-1054q0 -26 -19 -46t-45 -20h-176q-26 0 -44.5 19.5t-18.5 46.5zM-84 1446q0 64 46 110t110 46t109.5 -45.5t45.5 -110.5t-45.5 -110.5t-109.5 -45.5t-110 46t-46 110zM299 1446q0 64 45.5 110t110.5 46
q64 0 109.5 -45.5t45.5 -110.5t-45.5 -110.5t-109.5 -45.5q-65 0 -110.5 46t-45.5 110z" />
    <glyph glyph-name="Eth" unicode="&#xd0;" horiz-adv-x="1273" 
d="M610 1186q173 0 309 -78t210.5 -213.5t74.5 -302.5q0 -169 -74.5 -303.5t-210.5 -211.5t-309 -77h-401q-26 0 -45 20t-19 46v389h-67q-27 0 -46.5 18.5t-19.5 44.5v154q0 26 19.5 44.5t46.5 18.5h67v385q0 26 19 46t45 20h401zM616 283q129 0 204 86t75 223t-75 224
t-204 87h-167v-168h129q26 0 45.5 -18.5t19.5 -44.5v-154q0 -26 -19.5 -44.5t-45.5 -18.5h-129v-172h167z" />
    <glyph glyph-name="Ntilde" unicode="&#xd1;" horiz-adv-x="1275" 
d="M850 25l-436 591v-550q0 -26 -19 -46t-45 -20h-176q-26 0 -44.5 19.5t-18.5 46.5v1054q0 27 18.5 46.5t44.5 19.5h184q29 0 50 -25l454 -616v575q0 26 19 46t45 20h176q26 0 44.5 -19.5t18.5 -46.5v-1054q0 -27 -18.5 -46.5t-44.5 -19.5h-203q-28 0 -49 25zM817 1280
q-59 1 -113 23.5t-89 44.5t-50 22q-23 0 -30 -41q-9 -39 -58 -39h-137q-26 0 -43.5 18.5t-17.5 45.5q6 56 21.5 101.5t36 73.5t44.5 49t46.5 31t41 15.5t29.5 6.5l12 1q49 0 93.5 -14.5t69.5 -31.5t49.5 -31.5t39.5 -14.5q24 0 31 41q9 39 57 39h135q26 0 44 -19t18 -45
q-8 -77 -34.5 -133.5t-58.5 -82.5t-63.5 -41t-52.5 -17z" />
    <glyph glyph-name="Ograve" unicode="&#xd2;" horiz-adv-x="1437" 
d="M90 592q0 126 49 240t133 196t200.5 130t246.5 48t246.5 -48t200.5 -130t133 -196t49 -240q0 -168 -83 -309.5t-228 -223.5t-318 -82t-318 82t-228 223.5t-83 309.5zM1036 592q0 138 -92.5 236t-224.5 98t-225 -98t-93 -236t93 -236t225 -98t224.5 98t92.5 236zM553 1327
l-135 217q0 28 19 48t46 20h179q41 0 61 -39l106 -215q0 -28 -19 -48t-48 -20h-144q-32 0 -65 37z" />
    <glyph glyph-name="Oacute" unicode="&#xd3;" horiz-adv-x="1437" 
d="M90 592q0 126 49 240t133 196t200.5 130t246.5 48t246.5 -48t200.5 -130t133 -196t49 -240q0 -168 -83 -309.5t-228 -223.5t-318 -82t-318 82t-228 223.5t-83 309.5zM1036 592q0 138 -92.5 236t-224.5 98t-225 -98t-93 -236t93 -236t225 -98t224.5 98t92.5 236z
M1018 1544l-135 -217q-33 -37 -66 -37h-143q-29 0 -48.5 20t-19.5 48l107 215q20 39 61 39h178q28 0 47 -20t19 -48z" />
    <glyph glyph-name="Ocircumflex" unicode="&#xd4;" horiz-adv-x="1437" 
d="M90 592q0 126 49 240t133 196t200.5 130t246.5 48t246.5 -48t200.5 -130t133 -196t49 -240q0 -168 -83 -309.5t-228 -223.5t-318 -82t-318 82t-228 223.5t-83 309.5zM1036 592q0 138 -92.5 236t-224.5 98t-225 -98t-93 -236t93 -236t225 -98t224.5 98t92.5 236zM610 1659
h213q19 0 35.5 -12.5t22.5 -28.5l125 -264q0 -27 -18.5 -45.5t-45.5 -18.5h-127q-39 0 -57 37l-41 92l-41 -92q-18 -37 -58 -37h-126q-27 0 -45.5 18.5t-18.5 45.5l125 264q7 16 22.5 28.5t34.5 12.5z" />
    <glyph glyph-name="Otilde" unicode="&#xd5;" horiz-adv-x="1437" 
d="M90 592q0 126 49 240t133 196t200.5 130t246.5 48t246.5 -48t200.5 -130t133 -196t49 -240q0 -168 -83 -309.5t-228 -223.5t-318 -82t-318 82t-228 223.5t-83 309.5zM1036 592q0 138 -92.5 236t-224.5 98t-225 -98t-93 -236t93 -236t225 -98t224.5 98t92.5 236zM877 1280
q-59 1 -113 23.5t-89 44.5t-50 22q-24 0 -31 -41q-9 -39 -57 -39h-138q-26 0 -43.5 18.5t-17.5 45.5q6 56 21.5 101.5t36 73.5t44.5 49t46.5 31t41 15.5t30.5 6.5l11 1q49 0 93.5 -14.5t69.5 -31.5t49.5 -31.5t39.5 -14.5q24 0 31 41q9 39 57 39h135q26 0 44 -19t18 -45
q-8 -77 -34 -133.5t-58.5 -82.5t-63.5 -41t-52 -17z" />
    <glyph glyph-name="Odieresis" unicode="&#xd6;" horiz-adv-x="1437" 
d="M90 592q0 126 49 240t133 196t200.5 130t246.5 48t246.5 -48t200.5 -130t133 -196t49 -240q0 -168 -83 -309.5t-228 -223.5t-318 -82t-318 82t-228 223.5t-83 309.5zM1036 592q0 138 -92.5 236t-224.5 98t-225 -98t-93 -236t93 -236t225 -98t224.5 98t92.5 236zM375 1446
q0 65 45.5 110.5t109.5 45.5t110 -46t46 -110t-46 -110t-110 -46t-109.5 45.5t-45.5 110.5zM758 1446q0 65 45.5 110.5t109.5 45.5q65 0 110.5 -46t45.5 -110t-45.5 -110t-110.5 -46q-64 0 -109.5 45.5t-45.5 110.5z" />
    <glyph glyph-name="multiply" unicode="&#xd7;" horiz-adv-x="827" 
d="M414 236l-109 -111q-19 -19 -43 -19q-22 0 -49 23l-84 90q-18 22 -18 45t18 45l107 107l-107 106q-18 22 -18 45t18 45l84 90q27 23 49 23q25 0 43 -18l109 -111l108 111q18 18 43 18q22 0 49 -23l84 -90q19 -23 19 -45t-19 -45l-106 -106l106 -107q19 -23 19 -45
t-19 -45l-84 -90q-27 -23 -49 -23q-24 0 -43 19z" />
    <glyph glyph-name="Oslash" unicode="&#xd8;" horiz-adv-x="1437" 
d="M319 -121l74 184q-140 80 -221.5 221t-81.5 308q0 126 49 240t133 196t200.5 130t246.5 48q63 0 125 -12l53 131q13 27 39 27h127q20 0 33.5 -13.5t13.5 -33.5l-72 -183q142 -81 226 -221.5t84 -308.5t-83 -309.5t-228 -223.5t-318 -82q-69 0 -133 15l-54 -133
q-14 -27 -40 -27h-125q-21 0 -34.5 13t-13.5 34zM1036 592q0 74 -29 140t-81 112l-234 -586h27q132 0 224.5 98t92.5 236zM401 592q0 -151 105 -248l231 582h-18q-132 0 -225 -98t-93 -236z" />
    <glyph glyph-name="Ugrave" unicode="&#xd9;" horiz-adv-x="1191" 
d="M596 -23q-10 0 -28 1t-70 10t-99 25t-104.5 52t-98.5 85t-69.5 129.5t-28.5 179.5v661q0 26 19 46t45 20h176q26 0 44.5 -19.5t18.5 -46.5v-659q0 -4 0.5 -11.5t5 -28.5t12 -40t22 -42.5t34.5 -40.5t51.5 -28.5t69.5 -11.5t69.5 11t51.5 29t34.5 39.5t22 43.5t11.5 40
t5 29l1 11v659q0 27 18.5 46.5t44.5 19.5h176q26 0 45 -20t19 -46v-661q0 -99 -27.5 -179.5t-71.5 -129.5t-97 -85t-106 -52t-97 -25t-71 -10zM432 1327l-135 217q0 28 19 48t46 20h179q41 0 61 -39l107 -215q0 -28 -19.5 -48t-48.5 -20h-143q-33 0 -66 37z" />
    <glyph glyph-name="Uacute" unicode="&#xda;" horiz-adv-x="1191" 
d="M596 -23q-10 0 -28 1t-70 10t-99 25t-104.5 52t-98.5 85t-69.5 129.5t-28.5 179.5v661q0 26 19 46t45 20h176q26 0 44.5 -19.5t18.5 -46.5v-659q0 -4 0.5 -11.5t5 -28.5t12 -40t22 -42.5t34.5 -40.5t51.5 -28.5t69.5 -11.5t69.5 11t51.5 29t34.5 39.5t22 43.5t11.5 40
t5 29l1 11v659q0 27 18.5 46.5t44.5 19.5h176q26 0 45 -20t19 -46v-661q0 -99 -27.5 -179.5t-71.5 -129.5t-97 -85t-106 -52t-97 -25t-71 -10zM893 1544l-135 -217q-33 -37 -66 -37h-143q-29 0 -48.5 20t-19.5 48l107 215q20 39 61 39h178q28 0 47 -20t19 -48z" />
    <glyph glyph-name="Ucircumflex" unicode="&#xdb;" horiz-adv-x="1191" 
d="M596 -23q-10 0 -28 1t-70 10t-99 25t-104.5 52t-98.5 85t-69.5 129.5t-28.5 179.5v661q0 26 19 46t45 20h176q26 0 44.5 -19.5t18.5 -46.5v-659q0 -4 0.5 -11.5t5 -28.5t12 -40t22 -42.5t34.5 -40.5t51.5 -28.5t69.5 -11.5t69.5 11t51.5 29t34.5 39.5t22 43.5t11.5 40
t5 29l1 11v659q0 27 18.5 46.5t44.5 19.5h176q26 0 45 -20t19 -46v-661q0 -99 -27.5 -179.5t-71.5 -129.5t-97 -85t-106 -52t-97 -25t-71 -10zM489 1659h213q19 0 35.5 -12.5t22.5 -28.5l125 -264q0 -27 -18.5 -45.5t-45.5 -18.5h-127q-38 0 -57 37l-41 92l-41 -92
q-19 -37 -57 -37h-127q-27 0 -45.5 18.5t-18.5 45.5l125 264q7 16 22.5 28.5t34.5 12.5z" />
    <glyph glyph-name="Udieresis" unicode="&#xdc;" horiz-adv-x="1191" 
d="M596 -23q-10 0 -28 1t-70 10t-99 25t-104.5 52t-98.5 85t-69.5 129.5t-28.5 179.5v661q0 26 19 46t45 20h176q26 0 44.5 -19.5t18.5 -46.5v-659q0 -4 0.5 -11.5t5 -28.5t12 -40t22 -42.5t34.5 -40.5t51.5 -28.5t69.5 -11.5t69.5 11t51.5 29t34.5 39.5t22 43.5t11.5 40
t5 29l1 11v659q0 27 18.5 46.5t44.5 19.5h176q26 0 45 -20t19 -46v-661q0 -99 -27.5 -179.5t-71.5 -129.5t-97 -85t-106 -52t-97 -25t-71 -10zM254 1446q0 64 46 110t110 46t109.5 -45.5t45.5 -110.5t-45.5 -110.5t-109.5 -45.5t-110 46t-46 110zM637 1446q0 64 45.5 110
t110.5 46q64 0 109.5 -45.5t45.5 -110.5t-45.5 -110.5t-109.5 -45.5q-65 0 -110.5 46t-45.5 110z" />
    <glyph glyph-name="Yacute" unicode="&#xdd;" horiz-adv-x="1134" 
d="M416 66v333l-391 721q0 27 18.5 46.5t44.5 19.5h193q20 0 36.5 -12t22.5 -31l227 -434l228 434q6 19 22.5 31t36.5 12h193q26 0 44.5 -19.5t18.5 -46.5l-391 -721v-333q0 -26 -19 -46t-45 -20h-176q-26 0 -44.5 19.5t-18.5 46.5zM870 1544l-135 -217q-33 -37 -65 -37
h-144q-29 0 -48 20t-19 48l106 215q9 17 26 28t36 11h178q27 0 46 -20t19 -48z" />
    <glyph glyph-name="Thorn" unicode="&#xde;" horiz-adv-x="1083" 
d="M111 66v1054q0 27 18.5 46.5t44.5 19.5h176q26 0 45 -20t19 -46v-92h176q10 0 26.5 -1t65 -10t92.5 -24t97.5 -48t92 -77t65 -116t26.5 -160q0 -87 -25.5 -158t-66.5 -114.5t-90.5 -75.5t-99.5 -46.5t-91 -23t-66 -9.5l-26 -1h-176v-98q0 -26 -19 -46t-45 -20h-176
q-26 0 -44.5 19.5t-18.5 46.5zM739 592q0 80 -40 118t-105 38h-180v-308h180q65 0 105 36.5t40 115.5z" />
    <glyph glyph-name="germandbls" unicode="&#xdf;" horiz-adv-x="1124" 
d="M555 737h66q3 0 8.5 0.5t19.5 5t24.5 12.5t19.5 25t9 41q0 37 -21.5 58t-42.5 23l-22 3h-116q-29 0 -48 -11t-27 -28t-10.5 -29.5t-2.5 -23.5v-747q0 -26 -19 -46t-45 -20h-174q-26 0 -44.5 19.5t-18.5 46.5v753q0 72 25.5 137t73.5 116.5t124 82t170 31.5h104
q8 0 22.5 -0.5t56 -6.5t79 -16.5t83.5 -34t79 -54.5t55.5 -81.5t22.5 -113.5q0 -99 -41.5 -164t-94.5 -97q185 -87 185 -264q0 -354 -484 -354h-22q-27 0 -46.5 18.5t-19.5 44.5v154q0 26 20 45t46 19h78q116 0 116 96q0 50 -29.5 70t-86.5 20h-72q-26 0 -44.5 17.5
t-18.5 43.5v148q0 26 18.5 43.5t44.5 17.5z" />
    <glyph glyph-name="agrave" unicode="&#xe0;" horiz-adv-x="1146" 
d="M551 258q77 0 129.5 50t52.5 126t-52.5 126t-129.5 50q-74 0 -126 -50t-52 -126t52 -126t126 -50zM733 801q0 27 19 47t45 20h176q26 0 44.5 -19.5t18.5 -45.5v-737q0 -27 -18.5 -46.5t-44.5 -19.5h-176q-26 0 -45 20.5t-19 47.5q-77 -91 -225 -91q-121 0 -222 61.5
t-158.5 166.5t-57.5 229t57.5 229t158.5 166.5t222 61.5q71 0 126 -19.5t99 -70.5zM408 1036l-136 217q0 28 19 48t47 20h178q19 0 36 -11t26 -28l106 -215q0 -28 -19.5 -48t-48.5 -20h-143q-32 0 -65 37z" />
    <glyph glyph-name="aacute" unicode="&#xe1;" horiz-adv-x="1146" 
d="M551 258q77 0 129.5 50t52.5 126t-52.5 126t-129.5 50q-74 0 -126 -50t-52 -126t52 -126t126 -50zM733 801q0 27 19 47t45 20h176q26 0 44.5 -19.5t18.5 -45.5v-737q0 -27 -18.5 -46.5t-44.5 -19.5h-176q-26 0 -45 20.5t-19 47.5q-77 -91 -225 -91q-121 0 -222 61.5
t-158.5 166.5t-57.5 229t57.5 229t158.5 166.5t222 61.5q71 0 126 -19.5t99 -70.5zM846 1253l-135 -217q-33 -37 -66 -37h-143q-29 0 -48.5 20t-19.5 48l107 215q20 39 61 39h178q28 0 47 -20t19 -48z" />
    <glyph glyph-name="acircumflex" unicode="&#xe2;" horiz-adv-x="1146" 
d="M551 258q77 0 129.5 50t52.5 126t-52.5 126t-129.5 50q-74 0 -126 -50t-52 -126t52 -126t126 -50zM733 801q0 27 19 47t45 20h176q26 0 44.5 -19.5t18.5 -45.5v-737q0 -27 -18.5 -46.5t-44.5 -19.5h-176q-26 0 -45 20.5t-19 47.5q-77 -91 -225 -91q-121 0 -222 61.5
t-158.5 166.5t-57.5 229t57.5 229t158.5 166.5t222 61.5q71 0 126 -19.5t99 -70.5zM446 1368h213q19 0 35.5 -12.5t22.5 -28.5l125 -264q0 -27 -18.5 -45.5t-45.5 -18.5h-127q-39 0 -57 37l-41 92l-41 -92q-18 -37 -57 -37h-127q-27 0 -45.5 18.5t-18.5 45.5l125 264
q7 16 22.5 28.5t34.5 12.5z" />
    <glyph glyph-name="atilde" unicode="&#xe3;" horiz-adv-x="1146" 
d="M551 258q77 0 129.5 50t52.5 126t-52.5 126t-129.5 50q-74 0 -126 -50t-52 -126t52 -126t126 -50zM733 801q0 27 19 47t45 20h176q26 0 44.5 -19.5t18.5 -45.5v-737q0 -27 -18.5 -46.5t-44.5 -19.5h-176q-26 0 -45 20.5t-19 47.5q-77 -91 -225 -91q-121 0 -222 61.5
t-158.5 166.5t-57.5 229t57.5 229t158.5 166.5t222 61.5q71 0 126 -19.5t99 -70.5zM741 999q-46 1 -90 15t-71.5 31t-52.5 31t-38 14q-23 0 -30 -41q-9 -39 -58 -39h-137q-26 0 -43.5 18.5t-17.5 44.5q8 77 34.5 134t59 83.5t64 42t52.5 17.5l21 2q49 0 93.5 -14.5
t69.5 -31.5t49.5 -31.5t39.5 -14.5q25 0 31 40q9 39 57 39h135q26 0 44 -18.5t18 -44.5q-8 -77 -34.5 -133.5t-58.5 -83t-63.5 -41.5t-52.5 -17z" />
    <glyph glyph-name="adieresis" unicode="&#xe4;" horiz-adv-x="1146" 
d="M551 258q77 0 129.5 50t52.5 126t-52.5 126t-129.5 50q-74 0 -126 -50t-52 -126t52 -126t126 -50zM733 801q0 27 19 47t45 20h176q26 0 44.5 -19.5t18.5 -45.5v-737q0 -27 -18.5 -46.5t-44.5 -19.5h-176q-26 0 -45 20.5t-19 47.5q-77 -91 -225 -91q-121 0 -222 61.5
t-158.5 166.5t-57.5 229t57.5 229t158.5 166.5t222 61.5q71 0 126 -19.5t99 -70.5zM221 1155q0 65 45.5 110.5t110.5 45.5q64 0 109.5 -45.5t45.5 -110.5t-45.5 -110.5t-109.5 -45.5q-65 0 -110.5 45.5t-45.5 110.5zM604 1155q0 65 46 110.5t110 45.5t109.5 -45.5
t45.5 -110.5t-45.5 -110.5t-109.5 -45.5t-110 45.5t-46 110.5z" />
    <glyph glyph-name="aring" unicode="&#xe5;" horiz-adv-x="1146" 
d="M551 258q77 0 129.5 50t52.5 126t-52.5 126t-129.5 50q-74 0 -126 -50t-52 -126t52 -126t126 -50zM733 801q0 27 19 47t45 20h176q26 0 44.5 -19.5t18.5 -45.5v-737q0 -27 -18.5 -46.5t-44.5 -19.5h-176q-26 0 -45 20.5t-19 47.5q-77 -91 -225 -91q-121 0 -222 61.5
t-158.5 166.5t-57.5 229t57.5 229t158.5 166.5t222 61.5q71 0 126 -19.5t99 -70.5zM555 1536q113 0 190.5 -77t77.5 -189q0 -114 -77.5 -192.5t-190.5 -78.5q-114 0 -192 78.5t-78 192.5q0 112 78 189t192 77zM555 1192q31 0 52.5 23t21.5 55q0 30 -21.5 51.5t-52.5 21.5
q-32 0 -55 -22t-23 -51q0 -32 23 -55t55 -23z" />
    <glyph glyph-name="ae" unicode="&#xe6;" horiz-adv-x="1523" 
d="M475 252q105 0 105 41q0 17 -10 27t-29.5 14t-32.5 5t-33 1t-33 -1t-32 -5t-29 -14t-10 -27q0 -41 104 -41zM891 535h278q-28 100 -139 100q-107 0 -139 -100zM250 590q-8 -2 -17 -2q-42 0 -65 39l-39 98q-6 9 -6 31q0 32 31 59q122 76 290 76q172 0 295 -98
q132 98 295 98q116 0 213.5 -53t160 -161t62.5 -251v-27q0 -26 -18.5 -45.5t-44.5 -19.5h-498q13 -37 47 -56.5t74 -19.5q106 0 178 25q6 2 19 2q38 0 59 -27l78 -108q12 -18 12 -41q0 -44 -39 -64q-149 -68 -303 -68q-169 0 -313 113q-14 -10 -35.5 -23.5t-65 -36.5
t-98 -38t-106.5 -15q-164 0 -255 77.5t-91 217.5q0 74 30 127t80.5 80t104 39t114.5 12q80 0 164 -22q-6 54 -43.5 78t-116.5 24q-87 0 -153 -20z" />
    <glyph glyph-name="ccedilla" unicode="&#xe7;" horiz-adv-x="1036" 
d="M399 -111l29 103q-155 36 -256.5 159t-101.5 283q0 188 139 322.5t332 134.5q151 0 273.5 -91.5t172.5 -234.5q0 -28 -19 -46.5t-48 -18.5h-193q-30 0 -51 28q-43 82 -139 82q-69 0 -117.5 -50.5t-48.5 -125.5t48.5 -125.5t117.5 -50.5q98 0 141 82q22 29 51 29h191
q29 0 48 -19t19 -47q-43 -122 -138.5 -207t-219.5 -110l-15 -45q5 -1 14 -3.5t31.5 -14t40 -26t31.5 -42.5t14 -62q0 -45 -20.5 -80t-49.5 -53.5t-65 -30t-60.5 -15t-43.5 -3.5q-24 0 -107 10q-15 2 -26 12.5t-11 26.5v86q0 16 11 27.5t28 11.5l52 -6q53 0 53 37
q0 14 -9 23.5t-17 12.5l-9 3l-43 6q-29 4 -29 28z" />
    <glyph glyph-name="egrave" unicode="&#xe8;" horiz-adv-x="1030" 
d="M676 535q-28 100 -139 100q-108 0 -140 -100h279zM913 334h-497q13 -37 47 -56.5t74 -19.5q106 0 178 25q6 2 18 2q39 0 60 -27l77 -108q13 -20 13 -41q0 -44 -39 -64q-149 -68 -303 -68q-196 0 -333.5 134t-137.5 323t137.5 323t333.5 134q116 0 213.5 -53t160 -161
t62.5 -251v-27q0 -26 -19 -45.5t-45 -19.5zM387 1036l-135 217q0 28 19 48t46 20h179q41 0 61 -39l107 -215q0 -28 -19.5 -48t-48.5 -20h-143q-33 0 -66 37z" />
    <glyph glyph-name="eacute" unicode="&#xe9;" horiz-adv-x="1030" 
d="M676 535q-28 100 -139 100q-108 0 -140 -100h279zM913 334h-497q13 -37 47 -56.5t74 -19.5q106 0 178 25q6 2 18 2q39 0 60 -27l77 -108q13 -20 13 -41q0 -44 -39 -64q-149 -68 -303 -68q-196 0 -333.5 134t-137.5 323t137.5 323t333.5 134q116 0 213.5 -53t160 -161
t62.5 -251v-27q0 -26 -19 -45.5t-45 -19.5zM829 1253l-135 -217q-33 -37 -65 -37h-144q-29 0 -48 20t-19 48l106 215q9 17 26 28t36 11h178q27 0 46 -20t19 -48z" />
    <glyph glyph-name="ecircumflex" unicode="&#xea;" horiz-adv-x="1030" 
d="M676 535q-28 100 -139 100q-108 0 -140 -100h279zM913 334h-497q13 -37 47 -56.5t74 -19.5q106 0 178 25q6 2 18 2q39 0 60 -27l77 -108q13 -20 13 -41q0 -44 -39 -64q-149 -68 -303 -68q-196 0 -333.5 134t-137.5 323t137.5 323t333.5 134q116 0 213.5 -53t160 -161
t62.5 -251v-27q0 -26 -19 -45.5t-45 -19.5zM434 1368h213q19 0 35.5 -12.5t22.5 -28.5l124 -264q0 -27 -18 -45.5t-45 -18.5h-127q-39 0 -57 37l-41 92l-41 -92q-18 -37 -58 -37h-127q-27 0 -45 18.5t-18 45.5l125 264q7 16 22.5 28.5t34.5 12.5z" />
    <glyph glyph-name="edieresis" unicode="&#xeb;" horiz-adv-x="1030" 
d="M676 535q-28 100 -139 100q-108 0 -140 -100h279zM913 334h-497q13 -37 47 -56.5t74 -19.5q106 0 178 25q6 2 18 2q39 0 60 -27l77 -108q13 -20 13 -41q0 -44 -39 -64q-149 -68 -303 -68q-196 0 -333.5 134t-137.5 323t137.5 323t333.5 134q116 0 213.5 -53t160 -161
t62.5 -251v-27q0 -26 -19 -45.5t-45 -19.5zM203 1155q0 65 45.5 110.5t109.5 45.5t110 -45.5t46 -110.5t-46 -110.5t-110 -45.5t-109.5 45.5t-45.5 110.5zM586 1155q0 65 45.5 110.5t109.5 45.5q65 0 110.5 -45.5t45.5 -110.5t-45.5 -110.5t-110.5 -45.5q-64 0 -109.5 45.5
t-45.5 110.5z" />
    <glyph glyph-name="igrave" unicode="&#xec;" 
d="M111 66v737q0 26 18.5 45.5t44.5 19.5h176q26 0 45 -19.5t19 -45.5v-737q0 -26 -19 -46t-45 -20h-176q-26 0 -44.5 19.5t-18.5 46.5zM94 1036l-135 217q0 28 19 48t47 20h178q41 0 61 -39l107 -215q0 -28 -19.5 -48t-48.5 -20h-143q-33 0 -66 37z" />
    <glyph glyph-name="iacute" unicode="&#xed;" 
d="M414 803v-737q0 -26 -19 -46t-45 -20h-176q-26 0 -44.5 19.5t-18.5 46.5v737q0 26 18.5 45.5t44.5 19.5h176q26 0 45 -19.5t19 -45.5zM565 1253l-135 -217q-33 -37 -65 -37h-144q-29 0 -48 20t-19 48l106 215q9 17 26 28t36 11h178q27 0 46 -20t19 -48z" />
    <glyph glyph-name="icircumflex" unicode="&#xee;" 
d="M111 66v737q0 26 18.5 45.5t44.5 19.5h176q26 0 45 -19.5t19 -45.5v-737q0 -26 -19 -46t-45 -20h-176q-26 0 -44.5 19.5t-18.5 46.5zM156 1368h213q19 0 34.5 -12.5t22.5 -28.5l125 -264q0 -27 -18.5 -45.5t-45.5 -18.5h-127q-38 0 -57 37l-41 92l-41 -92
q-19 -37 -57 -37h-127q-27 0 -45.5 18.5t-18.5 45.5l125 264q6 16 22.5 28.5t35.5 12.5z" />
    <glyph glyph-name="idieresis" unicode="&#xef;" 
d="M111 66v737q0 26 18.5 45.5t44.5 19.5h176q26 0 45 -19.5t19 -45.5v-737q0 -26 -19 -46t-45 -20h-176q-26 0 -44.5 19.5t-18.5 46.5zM-84 1155q0 65 46 110.5t110 45.5t109.5 -45.5t45.5 -110.5t-45.5 -110.5t-109.5 -45.5t-110 45.5t-46 110.5zM299 1155
q0 65 45.5 110.5t110.5 45.5q64 0 109.5 -45.5t45.5 -110.5t-45.5 -110.5t-109.5 -45.5q-65 0 -110.5 45.5t-45.5 110.5z" />
    <glyph glyph-name="eth" unicode="&#xf0;" horiz-adv-x="1040" 
d="M791 881h-175l-36 -60q172 -12 281.5 -134.5t109.5 -291.5q0 -173 -132 -295.5t-319 -122.5q-188 0 -319 122t-131 296q0 133 86 273l133 213h-35q-18 0 -31.5 13.5t-13.5 31.5v106q0 18 13.5 31.5t31.5 13.5h156l47 74q18 33 55 33h195q24 0 42 -17t21 -41l-31 -49h52
q19 0 33 -13t14 -32v-106q0 -19 -14 -32t-33 -13zM520 545q-61 0 -104 -41.5t-43 -100.5q0 -61 42.5 -103t104.5 -42t105 42t43 103q0 59 -43.5 100.5t-104.5 41.5z" />
    <glyph glyph-name="ntilde" unicode="&#xf1;" horiz-adv-x="1040" 
d="M692 999q-46 1 -90 15t-71.5 31t-52.5 31t-38 14q-23 0 -30 -41q-9 -39 -58 -39h-137q-26 0 -43.5 18.5t-17.5 44.5q8 77 34.5 134t59 83.5t64 42t52.5 17.5l21 2q49 0 93.5 -14.5t69.5 -31.5t49.5 -31.5t39.5 -14.5q25 0 31 40q9 39 57 39h135q26 0 44 -18.5t18 -44.5
q-8 -77 -34.5 -133.5t-58.5 -83t-63.5 -41.5t-52.5 -17zM647 66v413q0 18 -0.5 29t-6 32.5t-16 34.5t-32.5 24t-53 11q-29 0 -52 -12t-36 -29t-22 -38.5t-12 -38t-3 -29.5v-397q0 -26 -19 -46t-45 -20h-176q-26 0 -44.5 19.5t-18.5 46.5v737q0 26 18.5 45.5t44.5 19.5h176
q26 0 45 -21t19 -48q20 31 52 52t65 28.5t49.5 9.5t27.5 2q69 0 124.5 -19t90.5 -47t60.5 -66.5t38 -71t19.5 -68t8 -50.5t1 -24v-479q0 -27 -18.5 -46.5t-44.5 -19.5h-176q-26 0 -45 20t-19 46z" />
    <glyph glyph-name="ograve" unicode="&#xf2;" horiz-adv-x="1093" 
d="M547 891q199 0 338 -134t139 -323t-139 -323t-338 -134t-338 134t-139 323t139 323t338 134zM547 258q74 0 124 50.5t50 125.5t-50 125.5t-124 50.5t-124 -50.5t-50 -125.5t50 -125.5t124 -50.5zM379 1036l-135 217q0 28 19 48t46 20h178q19 0 36 -11t26 -28l106 -215
q0 -28 -19 -48t-48 -20h-144q-32 0 -65 37z" />
    <glyph glyph-name="oacute" unicode="&#xf3;" horiz-adv-x="1093" 
d="M547 891q199 0 338 -134t139 -323t-139 -323t-338 -134t-338 134t-139 323t139 323t338 134zM547 258q74 0 124 50.5t50 125.5t-50 125.5t-124 50.5t-124 -50.5t-50 -125.5t50 -125.5t124 -50.5zM860 1253l-135 -217q-33 -37 -66 -37h-143q-29 0 -48 20t-19 48l106 215
q20 39 61 39h179q27 0 46 -20t19 -48z" />
    <glyph glyph-name="ocircumflex" unicode="&#xf4;" horiz-adv-x="1093" 
d="M547 891q199 0 338 -134t139 -323t-139 -323t-338 -134t-338 134t-139 323t139 323t338 134zM547 258q74 0 124 50.5t50 125.5t-50 125.5t-124 50.5t-124 -50.5t-50 -125.5t50 -125.5t124 -50.5zM440 1368h213q19 0 35.5 -12.5t22.5 -28.5l125 -264q0 -27 -18.5 -45.5
t-45.5 -18.5h-127q-39 0 -57 37l-41 92l-41 -92q-18 -37 -57 -37h-127q-27 0 -45.5 18.5t-18.5 45.5l125 264q7 16 22.5 28.5t34.5 12.5z" />
    <glyph glyph-name="otilde" unicode="&#xf5;" horiz-adv-x="1093" 
d="M547 891q199 0 338 -134t139 -323t-139 -323t-338 -134t-338 134t-139 323t139 323t338 134zM547 258q74 0 124 50.5t50 125.5t-50 125.5t-124 50.5t-124 -50.5t-50 -125.5t50 -125.5t124 -50.5zM700 999q-46 1 -90 15t-71 31t-52 31t-38 14q-24 0 -31 -41
q-9 -39 -58 -39h-137q-26 0 -43.5 18.5t-17.5 44.5q8 77 34.5 134t59 83.5t64 42t52.5 17.5l21 2q49 0 93.5 -14.5t69.5 -31.5t49.5 -31.5t39.5 -14.5q25 0 31 40q9 39 57 39h135q26 0 44 -18.5t18 -44.5q-8 -77 -34.5 -133.5t-58.5 -83t-63.5 -41.5t-52.5 -17z" />
    <glyph glyph-name="odieresis" unicode="&#xf6;" horiz-adv-x="1093" 
d="M547 891q199 0 338 -134t139 -323t-139 -323t-338 -134t-338 134t-139 323t139 323t338 134zM547 258q74 0 124 50.5t50 125.5t-50 125.5t-124 50.5t-124 -50.5t-50 -125.5t50 -125.5t124 -50.5zM199 1155q0 65 45.5 110.5t109.5 45.5t110 -45.5t46 -110.5t-46 -110.5
t-110 -45.5t-109.5 45.5t-45.5 110.5zM582 1155q0 65 45.5 110.5t109.5 45.5q65 0 110.5 -45.5t45.5 -110.5t-45.5 -110.5t-110.5 -45.5q-64 0 -109.5 45.5t-45.5 110.5z" />
    <glyph glyph-name="divide" unicode="&#xf7;" horiz-adv-x="851" 
d="M676 295h-500q-26 0 -45.5 18.5t-19.5 44.5v131q0 26 19.5 45t45.5 19h500q26 0 45.5 -19t19.5 -45v-131q0 -26 -19.5 -44.5t-45.5 -18.5zM285 729q0 57 42 99t99 42t99 -42t42 -99q0 -58 -42 -100.5t-99 -42.5t-99 42.5t-42 100.5zM285 121q0 57 42 99t99 42t99 -42
t42 -99q0 -58 -42 -101t-99 -43t-99 43t-42 101z" />
    <glyph glyph-name="oslash" unicode="&#xf8;" horiz-adv-x="1093" 
d="M209 -125l72 178q-98 62 -154.5 162.5t-56.5 218.5q0 189 139 323t338 134q33 0 71 -6l50 123q9 24 39 24h129q18 0 30.5 -12.5t12.5 -30.5l-70 -172q99 -63 157 -164t58 -219q0 -189 -139 -323t-338 -134q-32 0 -76 7l-51 -127q-9 -25 -39 -25h-129q-18 0 -30.5 12.5
t-12.5 30.5zM721 434q0 52 -29 96l-108 -270q60 12 98.5 60t38.5 114zM373 434q0 -54 24 -94l107 266q-58 -14 -94.5 -61t-36.5 -111z" />
    <glyph glyph-name="ugrave" unicode="&#xf9;" horiz-adv-x="1044" 
d="M522 -23q-78 0 -143 17.5t-107.5 45.5t-75 67t-50.5 77t-29 80.5t-14 73t-3 59.5v406q0 26 19 45.5t45 19.5h176q26 0 44.5 -19.5t18.5 -45.5v-414q0 -19 3.5 -37t14 -41.5t36.5 -38t65 -14.5t65 14.5t36.5 38t14 41.5t3.5 37v414q0 26 19 45.5t45 19.5h176
q26 0 44.5 -19.5t18.5 -45.5v-406q0 -29 -3 -59.5t-14 -73t-29 -80.5t-50.5 -77t-75 -67t-107.5 -45.5t-143 -17.5zM352 1036l-135 217q0 28 19 48t47 20h178q41 0 61 -39l107 -215q0 -28 -19.5 -48t-48.5 -20h-143q-33 0 -66 37z" />
    <glyph glyph-name="uacute" unicode="&#xfa;" horiz-adv-x="1044" 
d="M522 -23q-78 0 -143 17.5t-107.5 45.5t-75 67t-50.5 77t-29 80.5t-14 73t-3 59.5v406q0 26 19 45.5t45 19.5h176q26 0 44.5 -19.5t18.5 -45.5v-414q0 -19 3.5 -37t14 -41.5t36.5 -38t65 -14.5t65 14.5t36.5 38t14 41.5t3.5 37v414q0 26 19 45.5t45 19.5h176
q26 0 44.5 -19.5t18.5 -45.5v-406q0 -29 -3 -59.5t-14 -73t-29 -80.5t-50.5 -77t-75 -67t-107.5 -45.5t-143 -17.5zM827 1253l-135 -217q-33 -37 -65 -37h-144q-29 0 -48 20t-19 48l106 215q9 17 26 28t36 11h178q27 0 46 -20t19 -48z" />
    <glyph glyph-name="ucircumflex" unicode="&#xfb;" horiz-adv-x="1044" 
d="M522 -23q-78 0 -143 17.5t-107.5 45.5t-75 67t-50.5 77t-29 80.5t-14 73t-3 59.5v406q0 26 19 45.5t45 19.5h176q26 0 44.5 -19.5t18.5 -45.5v-414q0 -19 3.5 -37t14 -41.5t36.5 -38t65 -14.5t65 14.5t36.5 38t14 41.5t3.5 37v414q0 26 19 45.5t45 19.5h176
q26 0 44.5 -19.5t18.5 -45.5v-406q0 -29 -3 -59.5t-14 -73t-29 -80.5t-50.5 -77t-75 -67t-107.5 -45.5t-143 -17.5zM418 1368h213q19 0 34.5 -12.5t22.5 -28.5l125 -264q0 -27 -18 -45.5t-45 -18.5h-127q-39 0 -58 37l-41 92l-41 -92q-19 -37 -57 -37h-127q-27 0 -45 18.5
t-18 45.5l124 264q6 16 22.5 28.5t35.5 12.5z" />
    <glyph glyph-name="udieresis" unicode="&#xfc;" horiz-adv-x="1044" 
d="M522 -23q-78 0 -143 17.5t-107.5 45.5t-75 67t-50.5 77t-29 80.5t-14 73t-3 59.5v406q0 26 19 45.5t45 19.5h176q26 0 44.5 -19.5t18.5 -45.5v-414q0 -19 3.5 -37t14 -41.5t36.5 -38t65 -14.5t65 14.5t36.5 38t14 41.5t3.5 37v414q0 26 19 45.5t45 19.5h176
q26 0 44.5 -19.5t18.5 -45.5v-406q0 -29 -3 -59.5t-14 -73t-29 -80.5t-50.5 -77t-75 -67t-107.5 -45.5t-143 -17.5zM176 1155q0 65 46 110.5t110 45.5t109.5 -45.5t45.5 -110.5t-45.5 -110.5t-109.5 -45.5t-110 45.5t-46 110.5zM559 1155q0 65 45.5 110.5t110.5 45.5
q64 0 109.5 -45.5t45.5 -110.5t-45.5 -110.5t-109.5 -45.5q-65 0 -110.5 45.5t-45.5 110.5z" />
    <glyph glyph-name="yacute" unicode="&#xfd;" horiz-adv-x="978" 
d="M143 -354q-25 2 -42 18.5t-17 40.5v150q0 25 19 43t44 18q16 -2 48 -2q45 0 84 31t57 78l-307 780q0 26 18.5 45.5t44.5 19.5h195q20 0 36.5 -12t22.5 -31l143 -426l144 426q6 19 22.5 31t36.5 12h195q26 0 44.5 -19.5t18.5 -45.5l-344 -875q-29 -74 -66 -128t-73 -83.5
t-79.5 -47t-77 -22.5t-74.5 -5q-47 0 -93 4zM815 1253l-135 -217q-33 -37 -66 -37h-143q-29 0 -48.5 20t-19.5 48l107 215q20 39 61 39h179q27 0 46 -20t19 -48z" />
    <glyph glyph-name="thorn" unicode="&#xfe;" horiz-adv-x="1146" 
d="M111 -293v1413q0 27 18.5 46.5t44.5 19.5h176q26 0 45 -20t19 -46v-319q44 51 99 70.5t126 19.5q121 0 222 -61.5t158.5 -166.5t57.5 -229t-57.5 -229t-158.5 -166.5t-222 -61.5q-148 0 -225 91v-361q0 -26 -19 -45.5t-45 -19.5h-176q-26 0 -44.5 19.5t-18.5 45.5z
M596 610q-77 0 -129.5 -50t-52.5 -126t52.5 -126t129.5 -50q74 0 126 50t52 126t-52 126t-126 50z" />
    <glyph glyph-name="ydieresis" unicode="&#xff;" horiz-adv-x="978" 
d="M143 -354q-25 2 -42 18.5t-17 40.5v150q0 25 19 43t44 18q16 -2 48 -2q45 0 84 31t57 78l-307 780q0 26 18.5 45.5t44.5 19.5h195q20 0 36.5 -12t22.5 -31l143 -426l144 426q6 19 22.5 31t36.5 12h195q26 0 44.5 -19.5t18.5 -45.5l-344 -875q-29 -74 -66 -128t-73 -83.5
t-79.5 -47t-77 -22.5t-74.5 -5q-47 0 -93 4zM145 1155q0 65 45.5 110.5t110.5 45.5t110.5 -45.5t45.5 -110.5t-45.5 -110.5t-110.5 -45.5t-110.5 45.5t-45.5 110.5zM528 1155q0 65 46 110.5t110 45.5t110 -45.5t46 -110.5t-46 -110.5t-110 -45.5t-110 45.5t-46 110.5z" />
    <glyph glyph-name="Amacron" unicode="&#x100;" horiz-adv-x="1204" 
d="M483 1186h238q45 0 63 -41l396 -1079q0 -26 -19 -46t-45 -20h-194q-20 0 -37 12t-23 31l-53 150h-414l-53 -150q-6 -19 -22.5 -31t-36.5 -12h-195q-26 0 -44.5 19.5t-18.5 46.5l395 1079q18 41 63 41zM602 772l-106 -299h213zM850 1290h-494q-26 0 -45.5 19t-19.5 45v153
q0 26 19.5 45t45.5 19h494q26 0 45.5 -19t19.5 -45v-153q0 -26 -19.5 -45t-45.5 -19z" />
    <glyph glyph-name="amacron" unicode="&#x101;" horiz-adv-x="1146" 
d="M551 258q77 0 129.5 50t52.5 126t-52.5 126t-129.5 50q-74 0 -126 -50t-52 -126t52 -126t126 -50zM733 801q0 27 19 47t45 20h176q26 0 44.5 -19.5t18.5 -45.5v-737q0 -27 -18.5 -46.5t-44.5 -19.5h-176q-26 0 -45 20.5t-19 47.5q-77 -91 -225 -91q-121 0 -222 61.5
t-158.5 166.5t-57.5 229t57.5 229t158.5 166.5t222 61.5q71 0 126 -19.5t99 -70.5zM819 999h-493q-26 0 -46 19t-20 45v154q0 26 19.5 44.5t46.5 18.5h493q27 0 46.5 -18.5t19.5 -44.5v-154q0 -26 -20 -45t-46 -19z" />
    <glyph glyph-name="Abreve" unicode="&#x102;" horiz-adv-x="1204" 
d="M483 1186h238q45 0 63 -41l396 -1079q0 -26 -19 -46t-45 -20h-194q-20 0 -37 12t-23 31l-53 150h-414l-53 -150q-6 -19 -22.5 -31t-36.5 -12h-195q-26 0 -44.5 19.5t-18.5 46.5l395 1079q18 41 63 41zM602 772l-106 -299h213zM598 1290q-169 0 -272.5 85t-120.5 241
q0 25 17.5 43t43.5 18h166q46 0 64 -61q21 -66 102 -66t102 66q18 61 64 61h166q26 0 43.5 -18t17.5 -43q-17 -156 -120.5 -241t-272.5 -85z" />
    <glyph glyph-name="abreve" unicode="&#x103;" horiz-adv-x="1146" 
d="M551 258q77 0 129.5 50t52.5 126t-52.5 126t-129.5 50q-74 0 -126 -50t-52 -126t52 -126t126 -50zM733 801q0 27 19 47t45 20h176q26 0 44.5 -19.5t18.5 -45.5v-737q0 -27 -18.5 -46.5t-44.5 -19.5h-176q-26 0 -45 20.5t-19 47.5q-77 -91 -225 -91q-121 0 -222 61.5
t-158.5 166.5t-57.5 229t57.5 229t158.5 166.5t222 61.5q71 0 126 -19.5t99 -70.5zM604 999q-169 0 -272.5 85t-120.5 241q0 25 17.5 43t43.5 18h166q46 0 64 -61q20 -65 102 -65q83 0 103 65q18 61 63 61h166q26 0 43.5 -18t17.5 -43q-17 -156 -120.5 -241t-272.5 -85z" />
    <glyph glyph-name="Aogonek" unicode="&#x104;" horiz-adv-x="1204" 
d="M1065 -246q-13 -1 -47 -4.5t-57 -3.5q-19 0 -43.5 3.5t-61 15t-65 30t-49.5 53.5t-21 80q0 33 13.5 60t29 42t38 26.5t31.5 14.5t17 5l-41 117h-414l-53 -150q-6 -19 -22.5 -31t-36.5 -12h-195q-26 0 -44.5 19.5t-18.5 46.5l395 1079q18 41 63 41h238q45 0 63 -41
l396 -1079q0 -26 -19 -46t-45 -20h-65q-40 -4 -56 -10q-4 -1 -9.5 -3t-15 -12t-9.5 -24q0 -37 53 -37l51 8q17 0 28 -11.5t11 -27.5v-90q0 -16 -11.5 -26.5t-27.5 -12.5zM602 772l-106 -299h213z" />
    <glyph glyph-name="aogonek" unicode="&#x105;" horiz-adv-x="1146" 
d="M977 -311q-12 -1 -38.5 -3.5t-49.5 -2.5q-19 0 -43.5 3.5t-61 15t-65 30t-49.5 53.5t-21 80q0 88 84 131v72q-77 -91 -225 -91q-121 0 -222 61.5t-158.5 166.5t-57.5 229t57.5 229t158.5 166.5t222 61.5q71 0 126 -19.5t99 -70.5q0 27 19 47t45 20h176q26 0 44.5 -19.5
t18.5 -45.5v-832q0 -25 -24 -28q-54 -7 -88 -17q-4 -1 -10 -3t-15.5 -12t-9.5 -24q0 -37 53 -37l35 3q17 0 28 -11.5t11 -27.5v-86q0 -16 -11.5 -26.5t-27.5 -12.5zM551 258q77 0 129.5 50t52.5 126t-52.5 126t-129.5 50q-74 0 -126 -50t-52 -126t52 -126t126 -50z" />
    <glyph glyph-name="Cacute" unicode="&#x106;" horiz-adv-x="1372" 
d="M719 -23q-173 0 -318 82t-228 223.5t-83 309.5q0 126 49 240t133 196t200.5 130t246.5 48q212 0 375.5 -119t224.5 -309q-2 -25 -21 -43t-45 -18h-202q-37 0 -54 35q-39 78 -113.5 126t-164.5 48q-132 0 -225 -98t-93 -236t93 -236t225 -98q90 0 164.5 48t113.5 126
q17 35 54 35h202q26 0 45 -18t21 -43q-61 -190 -224.5 -309.5t-375.5 -119.5zM1004 1544l-136 -217q-33 -37 -65 -37h-144q-29 0 -48 20t-19 48l106 215q9 17 26 28t36 11h178q28 0 47 -20t19 -48z" />
    <glyph glyph-name="cacute" unicode="&#x107;" horiz-adv-x="1036" 
d="M541 -23q-193 0 -332 134.5t-139 322.5t139 322.5t332 134.5q151 0 273.5 -91.5t172.5 -234.5q0 -28 -19 -46.5t-48 -18.5h-193q-30 0 -51 28q-43 82 -139 82q-69 0 -117.5 -50.5t-48.5 -125.5t48.5 -125.5t117.5 -50.5q98 0 141 82q22 29 51 29h191q29 0 48 -19t19 -47
q-50 -143 -172.5 -234.5t-273.5 -91.5zM825 1253l-135 -217q-33 -37 -65 -37h-144q-29 0 -48 20t-19 48l106 215q9 17 26 28t36 11h178q27 0 46 -20t19 -48z" />
    <glyph glyph-name="Ccircumflex" unicode="&#x108;" horiz-adv-x="1372" 
d="M719 -23q-173 0 -318 82t-228 223.5t-83 309.5q0 126 49 240t133 196t200.5 130t246.5 48q212 0 375.5 -119t224.5 -309q-2 -25 -21 -43t-45 -18h-202q-37 0 -54 35q-39 78 -113.5 126t-164.5 48q-132 0 -225 -98t-93 -236t93 -236t225 -98q90 0 164.5 48t113.5 126
q17 35 54 35h202q26 0 45 -18t21 -43q-61 -190 -224.5 -309.5t-375.5 -119.5zM606 1659h213q19 0 35.5 -12.5t22.5 -28.5l124 -264q0 -27 -18 -45.5t-45 -18.5h-127q-39 0 -57 37l-41 92l-41 -92q-18 -37 -58 -37h-127q-27 0 -45 18.5t-18 45.5l125 264q7 16 22.5 28.5
t34.5 12.5z" />
    <glyph glyph-name="ccircumflex" unicode="&#x109;" horiz-adv-x="1036" 
d="M541 -23q-193 0 -332 134.5t-139 322.5t139 322.5t332 134.5q151 0 273.5 -91.5t172.5 -234.5q0 -28 -19 -46.5t-48 -18.5h-193q-30 0 -51 28q-43 82 -139 82q-69 0 -117.5 -50.5t-48.5 -125.5t48.5 -125.5t117.5 -50.5q98 0 141 82q22 29 51 29h191q29 0 48 -19t19 -47
q-50 -143 -172.5 -234.5t-273.5 -91.5zM436 1368h213q19 0 35.5 -12.5t22.5 -28.5l124 -264q0 -27 -18 -45.5t-45 -18.5h-127q-39 0 -57 37l-41 92l-41 -92q-18 -37 -58 -37h-127q-27 0 -45 18.5t-18 45.5l125 264q7 16 22.5 28.5t34.5 12.5z" />
    <glyph glyph-name="Cdotaccent" unicode="&#x10a;" horiz-adv-x="1372" 
d="M719 -23q-173 0 -318 82t-228 223.5t-83 309.5q0 126 49 240t133 196t200.5 130t246.5 48q212 0 375.5 -119t224.5 -309q-2 -25 -21 -43t-45 -18h-202q-37 0 -54 35q-39 78 -113.5 126t-164.5 48q-132 0 -225 -98t-93 -236t93 -236t225 -98q90 0 164.5 48t113.5 126
q17 35 54 35h202q26 0 45 -18t21 -43q-61 -190 -224.5 -309.5t-375.5 -119.5zM563 1446q0 64 45.5 110t110.5 46q64 0 109.5 -45.5t45.5 -110.5t-45.5 -110.5t-109.5 -45.5q-65 0 -110.5 46t-45.5 110z" />
    <glyph glyph-name="cdotaccent" unicode="&#x10b;" horiz-adv-x="1036" 
d="M541 -23q-193 0 -332 134.5t-139 322.5t139 322.5t332 134.5q151 0 273.5 -91.5t172.5 -234.5q0 -28 -19 -46.5t-48 -18.5h-193q-30 0 -51 28q-43 82 -139 82q-69 0 -117.5 -50.5t-48.5 -125.5t48.5 -125.5t117.5 -50.5q98 0 141 82q22 29 51 29h191q29 0 48 -19t19 -47
q-50 -143 -172.5 -234.5t-273.5 -91.5zM385 1155q0 65 45.5 110.5t110.5 45.5q64 0 109.5 -45.5t45.5 -110.5t-45.5 -110.5t-109.5 -45.5q-65 0 -110.5 45.5t-45.5 110.5z" />
    <glyph glyph-name="Ccaron" unicode="&#x10c;" horiz-adv-x="1372" 
d="M719 -23q-173 0 -318 82t-228 223.5t-83 309.5q0 126 49 240t133 196t200.5 130t246.5 48q212 0 375.5 -119t224.5 -309q-2 -25 -21 -43t-45 -18h-202q-37 0 -54 35q-39 78 -113.5 126t-164.5 48q-132 0 -225 -98t-93 -236t93 -236t225 -98q90 0 164.5 48t113.5 126
q17 35 54 35h202q26 0 45 -18t21 -43q-61 -190 -224.5 -309.5t-375.5 -119.5zM827 1290h-213q-19 0 -34.5 12.5t-22.5 28.5l-125 264q0 27 18.5 45.5t45.5 18.5h127q39 0 57 -37l41 -92l41 92q18 37 57 37h127q27 0 45.5 -18.5t18.5 -45.5l-125 -264q-6 -16 -22.5 -28.5
t-35.5 -12.5z" />
    <glyph glyph-name="ccaron" unicode="&#x10d;" horiz-adv-x="1036" 
d="M541 -23q-193 0 -332 134.5t-139 322.5t139 322.5t332 134.5q151 0 273.5 -91.5t172.5 -234.5q0 -28 -19 -46.5t-48 -18.5h-193q-30 0 -51 28q-43 82 -139 82q-69 0 -117.5 -50.5t-48.5 -125.5t48.5 -125.5t117.5 -50.5q98 0 141 82q22 29 51 29h191q29 0 48 -19t19 -47
q-50 -143 -172.5 -234.5t-273.5 -91.5zM651 999h-213q-19 0 -34.5 12.5t-22.5 28.5l-125 265q0 27 18 45t45 18h127q40 0 58 -37l41 -92l41 92q18 37 57 37h127q28 0 46 -18t18 -45l-125 -265q-6 -16 -22.5 -28.5t-35.5 -12.5z" />
    <glyph glyph-name="Dcaron" unicode="&#x10e;" horiz-adv-x="1239" 
d="M174 1186h401q173 0 309 -78t210.5 -213t74.5 -303t-74.5 -302.5t-210.5 -212t-309 -77.5h-401q-26 0 -44.5 19.5t-18.5 46.5v1054q0 27 18.5 46.5t44.5 19.5zM582 903h-168v-620h168q129 0 203.5 86t74.5 223t-74.5 224t-203.5 87zM645 1290h-213q-19 0 -34.5 12.5
t-22.5 28.5l-125 264q0 27 18 45.5t45 18.5h127q40 0 58 -37l41 -92l41 92q18 37 57 37h127q27 0 45 -18.5t18 -45.5l-125 -264q-7 -16 -22.5 -28.5t-34.5 -12.5z" />
    <glyph glyph-name="dcaron" unicode="&#x10f;" horiz-adv-x="1554" 
d="M551 258q77 0 129.5 50t52.5 126t-52.5 126t-129.5 50q-74 0 -126 -50t-52 -126t52 -126t126 -50zM1036 1161v-1095q0 -27 -18.5 -46.5t-44.5 -19.5h-176q-26 0 -45 20.5t-19 47.5q-77 -91 -225 -91q-121 0 -222 61.5t-158.5 166.5t-57.5 229t57.5 229t158.5 166.5
t222 61.5q71 0 126 -19.5t99 -70.5v360q0 26 19 46t45 20h176q26 0 44.5 -19.5t18.5 -46.5zM1554 1171l-133 -270q-23 -31 -55 -31h-166q-24 0 -39.5 16t-15.5 40l104 268q8 14 22 23.5t27 9.5h201q22 0 38.5 -16.5t16.5 -39.5z" />
    <glyph glyph-name="Dcroat" unicode="&#x110;" horiz-adv-x="1273" 
d="M610 1186q173 0 309 -78t210.5 -213.5t74.5 -302.5q0 -169 -74.5 -303.5t-210.5 -211.5t-309 -77h-401q-26 0 -45 20t-19 46v389h-67q-27 0 -46.5 18.5t-19.5 44.5v154q0 26 19.5 44.5t46.5 18.5h67v385q0 26 19 46t45 20h401zM616 283q129 0 204 86t75 223t-75 224
t-204 87h-167v-168h129q26 0 45.5 -18.5t19.5 -44.5v-154q0 -26 -19.5 -44.5t-45.5 -18.5h-129v-172h167z" />
    <glyph glyph-name="dcroat" unicode="&#x111;" horiz-adv-x="1148" 
d="M1085 944h-49v-878q0 -27 -18.5 -46.5t-44.5 -19.5h-176q-26 0 -45 20.5t-19 47.5q-77 -91 -225 -91q-121 0 -222 61.5t-158.5 166.5t-57.5 229t57.5 229t158.5 166.5t222 61.5q71 0 126 -19.5t99 -70.5v143h-63q-22 0 -38 15t-16 36v123q0 21 16 36t38 15h63
q3 24 21.5 41t42.5 17h176q23 0 41.5 -17.5t21.5 -40.5h49q21 0 36.5 -15t15.5 -36v-123q0 -21 -15.5 -36t-36.5 -15zM551 258q77 0 129.5 50t52.5 126t-52.5 126t-129.5 50q-74 0 -126 -50t-52 -126t52 -126t126 -50z" />
    <glyph glyph-name="Emacron" unicode="&#x112;" horiz-adv-x="1028" 
d="M414 281h471q26 0 45.5 -19t19.5 -45v-154q0 -26 -19.5 -44.5t-45.5 -18.5h-711q-26 0 -44.5 19.5t-18.5 46.5v1054q0 27 18.5 46.5t44.5 19.5h711q26 0 45.5 -19t19.5 -45v-153q0 -26 -19.5 -45t-45.5 -19h-471v-180h428q26 0 45.5 -18.5t19.5 -44.5v-154
q0 -26 -19.5 -45t-45.5 -19h-428v-163zM786 1290h-493q-26 0 -46 19t-20 45v153q0 26 20 45t46 19h493q26 0 46 -19t20 -45v-153q0 -26 -20 -45t-46 -19z" />
    <glyph glyph-name="emacron" unicode="&#x113;" horiz-adv-x="1030" 
d="M676 535q-28 100 -139 100q-108 0 -140 -100h279zM913 334h-497q13 -37 47 -56.5t74 -19.5q106 0 178 25q6 2 18 2q39 0 60 -27l77 -108q13 -20 13 -41q0 -44 -39 -64q-149 -68 -303 -68q-196 0 -333.5 134t-137.5 323t137.5 323t333.5 134q116 0 213.5 -53t160 -161
t62.5 -251v-27q0 -26 -19 -45.5t-45 -19.5zM776 999h-491q-26 0 -46 19t-20 45v154q0 26 19.5 44.5t46.5 18.5h491q27 0 46.5 -18.5t19.5 -44.5v-154q0 -26 -20 -45t-46 -19z" />
    <glyph glyph-name="Edotaccent" unicode="&#x116;" horiz-adv-x="1028" 
d="M414 281h471q26 0 45.5 -19t19.5 -45v-154q0 -26 -19.5 -44.5t-45.5 -18.5h-711q-26 0 -44.5 19.5t-18.5 46.5v1054q0 27 18.5 46.5t44.5 19.5h711q26 0 45.5 -19t19.5 -45v-153q0 -26 -19.5 -45t-45.5 -19h-471v-180h428q26 0 45.5 -18.5t19.5 -44.5v-154
q0 -26 -19.5 -45t-45.5 -19h-428v-163zM381 1446q0 64 45.5 110t110.5 46q64 0 109.5 -45.5t45.5 -110.5t-45.5 -110.5t-109.5 -45.5q-65 0 -110.5 46t-45.5 110z" />
    <glyph glyph-name="edotaccent" unicode="&#x117;" horiz-adv-x="1030" 
d="M676 535q-28 100 -139 100q-108 0 -140 -100h279zM913 334h-497q13 -37 47 -56.5t74 -19.5q106 0 178 25q6 2 18 2q39 0 60 -27l77 -108q13 -20 13 -41q0 -44 -39 -64q-149 -68 -303 -68q-196 0 -333.5 134t-137.5 323t137.5 323t333.5 134q116 0 213.5 -53t160 -161
t62.5 -251v-27q0 -26 -19 -45.5t-45 -19.5zM389 1155q0 65 45.5 110.5t110.5 45.5q64 0 109.5 -45.5t45.5 -110.5t-45.5 -110.5t-109.5 -45.5q-65 0 -110.5 45.5t-45.5 110.5z" />
    <glyph glyph-name="Eogonek" unicode="&#x118;" horiz-adv-x="1028" 
d="M836 -236q-13 -1 -47.5 -4.5t-57.5 -3.5q-18 0 -43 3.5t-61 15t-65 30.5t-49.5 54t-20.5 80q0 37 12 61h-330q-26 0 -44.5 19.5t-18.5 46.5v1054q0 27 18.5 46.5t44.5 19.5h711q26 0 45.5 -19t19.5 -45v-153q0 -26 -19.5 -45t-45.5 -19h-471v-180h428q26 0 45.5 -18.5
t19.5 -44.5v-154q0 -26 -19.5 -45t-45.5 -19h-428v-163h471q26 0 45.5 -19t19.5 -45v-154q0 -26 -19.5 -44.5t-45.5 -18.5h-119q-4 -1 -10 -3t-15.5 -12t-9.5 -24q0 -37 53 -37l52 8q17 0 27.5 -11t10.5 -27v-91q0 -16 -11 -26.5t-27 -12.5z" />
    <glyph glyph-name="eogonek" unicode="&#x119;" horiz-adv-x="1030" 
d="M729 -250q-13 -1 -47 -4.5t-57 -3.5q-19 0 -43.5 3.5t-61 15t-65 30t-49.5 53.5t-21 80q0 44 18 74q-147 42 -240 162t-93 274q0 189 137.5 323t333.5 134q116 0 213.5 -53t160 -161t62.5 -251v-27q0 -26 -19 -45.5t-45 -19.5h-497q13 -37 47 -56.5t74 -19.5
q106 0 178 25q6 2 18 2q39 0 60 -27l77 -108q13 -20 13 -41q0 -44 -39 -64q-82 -40 -191 -57q-28 -19 -28 -41q0 -37 53 -37l51 8q17 0 28 -11.5t11 -27.5v-90q0 -16 -11.5 -26.5t-27.5 -12.5zM676 535q-28 100 -139 100q-108 0 -140 -100h279z" />
    <glyph glyph-name="Ecaron" unicode="&#x11a;" horiz-adv-x="1028" 
d="M414 281h471q26 0 45.5 -19t19.5 -45v-154q0 -26 -19.5 -44.5t-45.5 -18.5h-711q-26 0 -44.5 19.5t-18.5 46.5v1054q0 27 18.5 46.5t44.5 19.5h711q26 0 45.5 -19t19.5 -45v-153q0 -26 -19.5 -45t-45.5 -19h-471v-180h428q26 0 45.5 -18.5t19.5 -44.5v-154
q0 -26 -19.5 -45t-45.5 -19h-428v-163zM641 1290h-213q-19 0 -34.5 12.5t-22.5 28.5l-125 264q0 27 18 45.5t45 18.5h127q40 0 58 -37l41 -92l40 92q19 37 58 37h127q27 0 45 -18.5t18 -45.5l-125 -264q-7 -16 -22.5 -28.5t-34.5 -12.5z" />
    <glyph glyph-name="ecaron" unicode="&#x11b;" horiz-adv-x="1030" 
d="M676 535q-28 100 -139 100q-108 0 -140 -100h279zM913 334h-497q13 -37 47 -56.5t74 -19.5q106 0 178 25q6 2 18 2q39 0 60 -27l77 -108q13 -20 13 -41q0 -44 -39 -64q-149 -68 -303 -68q-196 0 -333.5 134t-137.5 323t137.5 323t333.5 134q116 0 213.5 -53t160 -161
t62.5 -251v-27q0 -26 -19 -45.5t-45 -19.5zM657 999h-213q-19 0 -34.5 12.5t-22.5 28.5l-125 265q0 27 18 45t46 18h127q39 0 57 -37l41 -92l41 92q18 37 57 37h127q28 0 46 -18t18 -45l-125 -265q-6 -16 -22.5 -28.5t-35.5 -12.5z" />
    <glyph glyph-name="Gcircumflex" unicode="&#x11c;" horiz-adv-x="1390" 
d="M795 686h454q24 0 42 -17t18 -40v-180q-12 -96 -50 -174t-85.5 -126t-111 -83.5t-114.5 -51.5t-108.5 -25.5t-79.5 -10.5t-41 -1q-173 0 -318 82t-228 223.5t-83 309.5q0 126 49 240t133 196t200.5 130t246.5 48q81 0 156.5 -18t130 -44.5t104 -63t79.5 -67t56 -63.5
q21 -25 21 -49q0 -28 -25 -49l-129 -86q-19 -14 -37 -14q-24 0 -37 16q-59 76 -144 117t-175 41q-132 0 -225 -98t-93 -236t93 -236t225 -98q61 0 111 18t77.5 43.5t46.5 51t25 43.5l6 18h-190q-24 0 -42 17t-18 40v140q0 23 18 40t42 17zM606 1659h213q19 0 35.5 -12.5
t22.5 -28.5l124 -264q0 -27 -18 -45.5t-45 -18.5h-127q-39 0 -57 37l-41 92l-41 -92q-18 -37 -58 -37h-127q-27 0 -45 18.5t-18 45.5l125 264q7 16 22.5 28.5t34.5 12.5z" />
    <glyph glyph-name="gcircumflex" unicode="&#x11d;" horiz-adv-x="1146" 
d="M551 610q-74 0 -126 -50t-52 -126t52 -126t126 -50q77 0 129.5 50t52.5 126t-52.5 126t-129.5 50zM358 -84q94 -43 209 -43q54 0 110 33.5t56 85.5v76q-77 -91 -225 -91q-121 0 -222 61.5t-158.5 166.5t-57.5 229t57.5 229t158.5 166.5t222 61.5q71 0 126 -19.5t99 -70.5
q0 27 19 47t45 20h176q26 0 44.5 -19.5t18.5 -45.5v-787q0 -123 -63.5 -220.5t-170.5 -150.5t-237 -53q-158 0 -313 80q-17 8 -28 25t-11 37q0 21 8 37l68 116q18 33 51 33q6 0 18 -4zM449 1368h213q19 0 34.5 -12.5t22.5 -28.5l125 -264q0 -27 -18.5 -45.5t-45.5 -18.5
h-127q-39 0 -57 37l-41 92l-41 -92q-18 -37 -57 -37h-127q-27 0 -45.5 18.5t-18.5 45.5l125 264q6 16 22.5 28.5t35.5 12.5z" />
    <glyph glyph-name="Gbreve" unicode="&#x11e;" horiz-adv-x="1390" 
d="M795 686h454q24 0 42 -17t18 -40v-180q-12 -96 -50 -174t-85.5 -126t-111 -83.5t-114.5 -51.5t-108.5 -25.5t-79.5 -10.5t-41 -1q-173 0 -318 82t-228 223.5t-83 309.5q0 126 49 240t133 196t200.5 130t246.5 48q81 0 156.5 -18t130 -44.5t104 -63t79.5 -67t56 -63.5
q21 -25 21 -49q0 -28 -25 -49l-129 -86q-19 -14 -37 -14q-24 0 -37 16q-59 76 -144 117t-175 41q-132 0 -225 -98t-93 -236t93 -236t225 -98q61 0 111 18t77.5 43.5t46.5 51t25 43.5l6 18h-190q-24 0 -42 17t-18 40v140q0 23 18 40t42 17zM719 1290q-169 0 -272.5 85
t-120.5 241q0 25 17.5 43t43.5 18h166q45 0 63 -61q21 -66 103 -66q81 0 102 66q18 61 64 61h166q26 0 43.5 -18t17.5 -43q-17 -156 -120.5 -241t-272.5 -85z" />
    <glyph glyph-name="gbreve" unicode="&#x11f;" horiz-adv-x="1146" 
d="M588 999q-169 0 -272.5 85t-120.5 241q0 25 17.5 43t43.5 18h166q45 0 63 -61q20 -65 103 -65q82 0 102 65q18 61 64 61h166q26 0 43.5 -18t17.5 -43q-17 -156 -120.5 -241t-272.5 -85zM551 610q-74 0 -126 -50t-52 -126t52 -126t126 -50q77 0 129.5 50t52.5 126
t-52.5 126t-129.5 50zM358 -84q94 -43 209 -43q54 0 110 33.5t56 85.5v76q-77 -91 -225 -91q-121 0 -222 61.5t-158.5 166.5t-57.5 229t57.5 229t158.5 166.5t222 61.5q71 0 126 -19.5t99 -70.5q0 27 19 47t45 20h176q26 0 44.5 -19.5t18.5 -45.5v-787q0 -123 -63.5 -220.5
t-170.5 -150.5t-237 -53q-158 0 -313 80q-17 8 -28 25t-11 37q0 21 8 37l68 116q18 33 51 33q6 0 18 -4z" />
    <glyph glyph-name="Gdotaccent" unicode="&#x120;" horiz-adv-x="1390" 
d="M795 686h454q24 0 42 -17t18 -40v-180q-12 -96 -50 -174t-85.5 -126t-111 -83.5t-114.5 -51.5t-108.5 -25.5t-79.5 -10.5t-41 -1q-173 0 -318 82t-228 223.5t-83 309.5q0 126 49 240t133 196t200.5 130t246.5 48q81 0 156.5 -18t130 -44.5t104 -63t79.5 -67t56 -63.5
q21 -25 21 -49q0 -28 -25 -49l-129 -86q-19 -14 -37 -14q-24 0 -37 16q-59 76 -144 117t-175 41q-132 0 -225 -98t-93 -236t93 -236t225 -98q61 0 111 18t77.5 43.5t46.5 51t25 43.5l6 18h-190q-24 0 -42 17t-18 40v140q0 23 18 40t42 17zM563 1446q0 64 45.5 110t110.5 46
q64 0 109.5 -45.5t45.5 -110.5t-45.5 -110.5t-109.5 -45.5q-65 0 -110.5 46t-45.5 110z" />
    <glyph glyph-name="gdotaccent" unicode="&#x121;" horiz-adv-x="1146" 
d="M551 610q-74 0 -126 -50t-52 -126t52 -126t126 -50q77 0 129.5 50t52.5 126t-52.5 126t-129.5 50zM358 -84q94 -43 209 -43q54 0 110 33.5t56 85.5v76q-77 -91 -225 -91q-121 0 -222 61.5t-158.5 166.5t-57.5 229t57.5 229t158.5 166.5t222 61.5q71 0 126 -19.5t99 -70.5
q0 27 19 47t45 20h176q26 0 44.5 -19.5t18.5 -45.5v-787q0 -123 -63.5 -220.5t-170.5 -150.5t-237 -53q-158 0 -313 80q-17 8 -28 25t-11 37q0 21 8 37l68 116q18 33 51 33q6 0 18 -4zM362 1155q0 65 46 110.5t110 45.5t110 -45.5t46 -110.5t-46 -110.5t-110 -45.5
t-110 45.5t-46 110.5z" />
    <glyph glyph-name="uni0122" unicode="&#x122;" horiz-adv-x="1390" 
d="M795 686h454q24 0 42 -17t18 -40v-180q-12 -96 -50 -174t-85.5 -126t-111 -83.5t-114.5 -51.5t-108.5 -25.5t-79.5 -10.5t-41 -1q-173 0 -318 82t-228 223.5t-83 309.5q0 126 49 240t133 196t200.5 130t246.5 48q81 0 156.5 -18t130 -44.5t104 -63t79.5 -67t56 -63.5
q21 -25 21 -49q0 -28 -25 -49l-129 -86q-19 -14 -37 -14q-24 0 -37 16q-59 76 -144 117t-175 41q-132 0 -225 -98t-93 -236t93 -236t225 -98q61 0 111 18t77.5 43.5t46.5 51t25 43.5l6 18h-190q-24 0 -42 17t-18 40v140q0 23 18 40t42 17zM846 -176l-86 -176q-7 -17 -26 -27
t-40 -10h-137q-29 0 -47 19.5t-18 47.5l73 175q20 38 62 38h153q28 0 47 -19.5t19 -47.5z" />
    <glyph glyph-name="uni0123" unicode="&#x123;" horiz-adv-x="1146" 
d="M551 610q-74 0 -126 -50t-52 -126t52 -126t126 -50q77 0 129.5 50t52.5 126t-52.5 126t-129.5 50zM358 -84q94 -43 209 -43q54 0 110 33.5t56 85.5v76q-77 -91 -225 -91q-121 0 -222 61.5t-158.5 166.5t-57.5 229t57.5 229t158.5 166.5t222 61.5q71 0 126 -19.5t99 -70.5
q0 27 19 47t45 20h176q26 0 44.5 -19.5t18.5 -45.5v-787q0 -123 -63.5 -220.5t-170.5 -150.5t-237 -53q-158 0 -313 80q-17 8 -28 25t-11 37q0 21 8 37l68 116q18 33 51 33q6 0 18 -4zM440 1067l135 217q33 37 66 37h143q29 0 48.5 -20t19.5 -48l-107 -215q-20 -39 -61 -39
h-178q-28 0 -47 20t-19 48z" />
    <glyph glyph-name="Hcircumflex" unicode="&#x124;" horiz-adv-x="1214" 
d="M801 397h-387v-331q0 -26 -19 -46t-45 -20h-176q-26 0 -44.5 19.5t-18.5 46.5v1054q0 27 18.5 46.5t44.5 19.5h176q26 0 45 -20t19 -46v-440h387v440q0 27 18.5 46.5t44.5 19.5h176q26 0 45 -20t19 -46v-1054q0 -26 -19 -46t-45 -20h-176q-26 0 -44.5 19.5t-18.5 46.5
v331zM500 1659h213q19 0 34.5 -12.5t22.5 -28.5l125 -264q0 -27 -18.5 -45.5t-45.5 -18.5h-126q-39 0 -58 37l-41 92l-41 -92q-19 -37 -57 -37h-127q-27 0 -45.5 18.5t-18.5 45.5l125 264q6 16 22.5 28.5t35.5 12.5z" />
    <glyph glyph-name="hcircumflex" unicode="&#x125;" horiz-adv-x="1040" 
d="M111 66v1075q0 26 18.5 45.5t44.5 19.5h176q26 0 45 -19.5t19 -45.5v-342q20 31 52 52t65 28.5t49.5 9.5t27.5 2q69 0 124.5 -19t90.5 -47t60.5 -66.5t38 -71t19.5 -68t8 -50.5t1 -24v-479q0 -27 -18.5 -46.5t-44.5 -19.5h-176q-26 0 -45 20t-19 46v413q0 18 -0.5 29
t-6 32.5t-16 34.5t-32.5 24t-53 11q-34 0 -60 -15.5t-39 -38.5t-19.5 -45t-6.5 -40v-405q0 -26 -19 -46t-45 -20h-176q-26 0 -44.5 19.5t-18.5 46.5zM334 1659h213q19 0 34.5 -12.5t22.5 -28.5l125 -264q0 -27 -18 -45.5t-45 -18.5h-127q-39 0 -58 37l-41 92l-41 -92
q-19 -37 -57 -37h-127q-27 0 -45 18.5t-18 45.5l124 264q6 16 22.5 28.5t35.5 12.5z" />
    <glyph glyph-name="Hbar" unicode="&#x126;" horiz-adv-x="1243" 
d="M1145 795h-27v-729q0 -27 -18.5 -46.5t-44.5 -19.5h-176q-26 0 -45 20t-19 46v331h-387v-331q0 -27 -18.5 -46.5t-44.5 -19.5h-177q-26 0 -44.5 19.5t-18.5 46.5v729h-27q-26 0 -45.5 18.5t-19.5 44.5v154q0 26 19.5 44.5t45.5 18.5h27v45q0 27 18.5 46.5t44.5 19.5h177
q26 0 44.5 -19.5t18.5 -46.5v-45h387v45q0 26 19 46t45 20h176q26 0 44.5 -19.5t18.5 -46.5v-45h27q26 0 45.5 -18.5t19.5 -44.5v-154q0 -26 -19.5 -44.5t-45.5 -18.5zM428 680h387v115h-387v-115z" />
    <glyph glyph-name="hbar" unicode="&#x127;" horiz-adv-x="1042" 
d="M479 944h-63v-145q20 31 52 52t65 28.5t49.5 9.5t27.5 2q69 0 124.5 -19t90.5 -47t60.5 -66.5t38 -71t19.5 -68t8 -50.5t1 -24v-479q0 -27 -18.5 -46.5t-44.5 -19.5h-176q-26 0 -45 20t-19 46v413q0 18 -0.5 29t-6 32.5t-16 34.5t-32.5 24t-53 11q-34 0 -60 -15.5
t-39 -38.5t-19.5 -45t-6.5 -40v-405q0 -26 -19 -46t-45 -20h-176q-26 0 -44.5 19.5t-18.5 46.5v878h-47q-22 0 -38 15t-16 36v123q0 21 16 36t38 15h47q3 24 21 41t42 17h176q23 0 42 -17.5t22 -40.5h63q22 0 37.5 -14.5t15.5 -36.5v-123q0 -22 -15.5 -36.5t-37.5 -14.5z
" />
    <glyph glyph-name="Itilde" unicode="&#x128;" 
d="M111 66v1054q0 27 18.5 46.5t44.5 19.5h176q26 0 45 -20t19 -46v-1054q0 -26 -19 -46t-45 -20h-176q-26 0 -44.5 19.5t-18.5 46.5zM389 1290q-43 0 -76 14t-49.5 31t-38 31t-43.5 14q-20 0 -26 -39q-9 -38 -58 -38h-135q-26 0 -43.5 18.5t-17.5 44.5q7 75 33 130.5
t57.5 81.5t62.5 41t51 17l21 2q47 0 82.5 -14t52 -31t36 -31t36.5 -14q20 0 26 39q9 39 58 39h135q26 0 43.5 -18.5t17.5 -44.5q-5 -55 -20 -99.5t-35.5 -72t-43.5 -48t-45.5 -30.5t-40.5 -15.5t-29 -6.5z" />
    <glyph glyph-name="itilde" unicode="&#x129;" 
d="M111 66v737q0 26 18.5 45.5t44.5 19.5h176q26 0 45 -19.5t19 -45.5v-737q0 -26 -19 -46t-45 -20h-176q-26 0 -44.5 19.5t-18.5 46.5zM389 999q-35 0 -63 9.5t-45.5 22.5t-32.5 26.5t-31.5 23t-34.5 9.5q-20 0 -26 -39q-9 -39 -58 -39h-135q-26 0 -43.5 18.5t-17.5 44.5
q5 55 20 99.5t35.5 72t43.5 48t45.5 30.5t40.5 15.5t29 6.5l11 1q47 0 82.5 -14t52 -31.5t36 -31.5t36.5 -14q20 0 26 39q9 39 58 39h135q26 0 43.5 -18.5t17.5 -44.5q-5 -55 -20 -99.5t-35.5 -72t-43.5 -48t-45.5 -30.5t-40.5 -15.5t-29 -6.5z" />
    <glyph glyph-name="Imacron" unicode="&#x12a;" 
d="M111 66v1054q0 27 18.5 46.5t44.5 19.5h176q26 0 45 -20t19 -46v-1054q0 -26 -19 -46t-45 -20h-176q-26 0 -44.5 19.5t-18.5 46.5zM481 1290h-438q-26 0 -46 19t-20 45v153q0 26 20 45t46 19h438q26 0 46 -19t20 -45v-153q0 -26 -20 -45t-46 -19z" />
    <glyph glyph-name="imacron" unicode="&#x12b;" 
d="M111 66v737q0 26 18.5 45.5t44.5 19.5h176q26 0 45 -19.5t19 -45.5v-737q0 -26 -19 -46t-45 -20h-176q-26 0 -44.5 19.5t-18.5 46.5zM481 999h-438q-26 0 -46 19t-20 45v154q0 26 19.5 44.5t46.5 18.5h438q27 0 46.5 -18.5t19.5 -44.5v-154q0 -26 -20 -45t-46 -19z" />
    <glyph glyph-name="Iogonek" unicode="&#x12e;" 
d="M391 -246q-13 -1 -47 -4.5t-57 -3.5q-19 0 -43.5 3.5t-61 15t-65 30t-49.5 53.5t-21 80q0 78 64 117v1075q0 27 18.5 46.5t44.5 19.5h176q26 0 45 -20t19 -46v-1054q0 -26 -19 -46t-45 -20q-25 0 -44 -13.5t-19 -35.5q0 -37 53 -37l51 8q17 0 28 -11.5t11 -27.5v-90
q0 -16 -11.5 -26.5t-27.5 -12.5z" />
    <glyph glyph-name="iogonek" unicode="&#x12f;" 
d="M391 -246q-13 -1 -47 -4.5t-57 -3.5q-19 0 -43.5 3.5t-61 15t-65 30t-49.5 53.5t-21 80q0 78 64 117v758q0 26 18.5 45.5t44.5 19.5h176q26 0 45 -19.5t19 -45.5v-737q0 -26 -19 -46t-45 -20q-25 0 -44 -13.5t-19 -35.5q0 -37 53 -37l51 8q17 0 28 -11.5t11 -27.5v-90
q0 -16 -11.5 -26.5t-27.5 -12.5zM94 1102q0 71 49 120.5t119 49.5t119 -49.5t49 -120.5q0 -69 -49 -118.5t-119 -49.5t-119 49.5t-49 118.5z" />
    <glyph glyph-name="Idotaccent" unicode="&#x130;" 
d="M94 1397q0 71 49 120.5t119 49.5t119 -49.5t49 -120.5q0 -69 -49 -118.5t-119 -49.5t-119 49.5t-49 118.5zM111 66v1032q0 26 18.5 45.5t44.5 19.5h176q26 0 45 -19.5t19 -45.5v-1032q0 -26 -19 -46t-45 -20h-176q-26 0 -44.5 19.5t-18.5 46.5z" />
    <glyph glyph-name="dotlessi" unicode="&#x131;" 
d="M111 66v737q0 26 18.5 45.5t44.5 19.5h176q26 0 45 -19.5t19 -45.5v-737q0 -26 -19 -46t-45 -20h-176q-26 0 -44.5 19.5t-18.5 46.5z" />
    <glyph glyph-name="Jcircumflex" unicode="&#x134;" horiz-adv-x="921" 
d="M20 164q-12 15 -12 39q0 20 9.5 36.5t23.5 22.5l137 76q11 8 33 8q24 0 47 -20q68 -68 139 -68q58 0 89.5 32t31.5 58v772q0 26 19 46t45 20h176q26 0 44.5 -19.5t18.5 -46.5v-786q0 -145 -122.5 -251t-311.5 -106q-67 0 -128 18t-106.5 48.5t-76.5 59.5t-56 61z
M395 1659h213q19 0 35.5 -12.5t22.5 -28.5l125 -264q0 -27 -18.5 -45.5t-45.5 -18.5h-127q-38 0 -57 37l-41 92l-41 -92q-19 -37 -58 -37h-127q-27 0 -45 18.5t-18 45.5l125 264q7 16 22.5 28.5t34.5 12.5z" />
    <glyph glyph-name="jcircumflex" unicode="&#x135;" 
d="M-27 -336q-22 0 -39.5 17t-17.5 40v142q0 23 18 40t41 17l45 -4q41 1 63.5 23.5t24.5 44.5l3 22v797q0 26 18.5 45.5t44.5 19.5h176q26 0 45 -19.5t19 -45.5v-799q0 -71 -15.5 -128t-38.5 -92t-57 -61t-61.5 -38t-62 -18.5t-49.5 -7.5t-32 -1q-70 0 -125 6zM156 1368h213
q19 0 34.5 -12.5t22.5 -28.5l125 -264q0 -27 -18.5 -45.5t-45.5 -18.5h-127q-38 0 -57 37l-41 92l-41 -92q-19 -37 -57 -37h-127q-27 0 -45.5 18.5t-18.5 45.5l125 264q6 16 22.5 28.5t35.5 12.5z" />
    <glyph glyph-name="uni0136" unicode="&#x136;" horiz-adv-x="1087" 
d="M668 600l419 -534q0 -27 -18.5 -46.5t-44.5 -19.5h-244q-29 0 -59 43l-307 391v-368q0 -26 -19 -46t-45 -20h-176q-26 0 -44.5 19.5t-18.5 46.5v1054q0 27 18.5 46.5t44.5 19.5h176q26 0 45 -20t19 -46v-350l264 373q30 43 59 43h228q26 0 44.5 -19.5t18.5 -46.5z
M700 -176l-86 -176q-7 -17 -25.5 -27t-39.5 -10h-137q-29 0 -47.5 19.5t-18.5 47.5l74 175q20 38 61 38h154q28 0 46.5 -19.5t18.5 -47.5z" />
    <glyph glyph-name="uni0137" unicode="&#x137;" horiz-adv-x="958" 
d="M682 444l260 -378q0 -27 -18.5 -46.5t-44.5 -19.5h-230q-33 0 -59 43l-176 254v-231q0 -26 -19 -46t-45 -20h-176q-26 0 -44.5 19.5t-18.5 46.5v1095q0 27 18.5 46.5t44.5 19.5h176q26 0 45 -20t19 -46v-567l143 231q22 43 59 43h222q26 0 44.5 -19.5t18.5 -45.5z
M614 -176l-86 -176q-7 -17 -25.5 -27t-39.5 -10h-137q-29 0 -47.5 19.5t-18.5 47.5l74 175q20 38 61 38h154q28 0 46.5 -19.5t18.5 -47.5z" />
    <glyph glyph-name="kgreenlandic" unicode="&#x138;" horiz-adv-x="958" 
d="M682 444l260 -378q0 -27 -18.5 -46.5t-44.5 -19.5h-230q-33 0 -59 43l-176 254v-231q0 -26 -19 -46t-45 -20h-176q-26 0 -44.5 19.5t-18.5 46.5v737q0 26 18.5 45.5t44.5 19.5h176q26 0 45 -19.5t19 -45.5v-209l143 231q22 43 59 43h222q26 0 44.5 -19.5t18.5 -45.5z" />
    <glyph glyph-name="Lacute" unicode="&#x139;" horiz-adv-x="989" 
d="M414 281h471q26 0 45.5 -19t19.5 -45v-154q0 -26 -19.5 -44.5t-45.5 -18.5h-711q-26 0 -44.5 19.5t-18.5 46.5v1054q0 27 18.5 46.5t44.5 19.5h176q26 0 45 -20t19 -46v-839zM569 1544l-135 -217q-33 -37 -65 -37h-144q-29 0 -48 20t-19 48l106 215q9 17 26 28t36 11h178
q27 0 46 -20t19 -48z" />
    <glyph glyph-name="lacute" unicode="&#x13a;" 
d="M111 66v1054q0 27 18.5 46.5t44.5 19.5h176q26 0 45 -20t19 -46v-1054q0 -26 -19 -46t-45 -20h-176q-26 0 -44.5 19.5t-18.5 46.5zM567 1544l-135 -217q-33 -37 -65 -37h-144q-29 0 -48 20t-19 48l106 215q9 17 26 28t36 11h178q27 0 46 -20t19 -48z" />
    <glyph glyph-name="uni013B" unicode="&#x13b;" horiz-adv-x="989" 
d="M414 281h471q26 0 45.5 -19t19.5 -45v-154q0 -26 -19.5 -44.5t-45.5 -18.5h-711q-26 0 -44.5 19.5t-18.5 46.5v1054q0 27 18.5 46.5t44.5 19.5h176q26 0 45 -20t19 -46v-839zM641 -176l-86 -176q-7 -17 -26 -27t-40 -10h-137q-29 0 -47 19.5t-18 47.5l73 175q20 38 62 38
h153q28 0 47 -19.5t19 -47.5z" />
    <glyph glyph-name="uni013C" unicode="&#x13c;" 
d="M111 66v1054q0 27 18.5 46.5t44.5 19.5h176q26 0 45 -20t19 -46v-1054q0 -26 -19 -46t-45 -20h-176q-26 0 -44.5 19.5t-18.5 46.5zM381 -176l-86 -176q-7 -17 -26 -27t-40 -10h-137q-29 0 -47 19.5t-18 47.5l73 175q20 38 62 38h153q28 0 47 -19.5t19 -47.5z" />
    <glyph glyph-name="Lcaron" unicode="&#x13d;" horiz-adv-x="989" 
d="M414 281h471q26 0 45.5 -19t19.5 -45v-154q0 -26 -19.5 -44.5t-45.5 -18.5h-711q-26 0 -44.5 19.5t-18.5 46.5v1054q0 27 18.5 46.5t44.5 19.5h176q26 0 45 -20t19 -46v-839zM918 1130l-134 -274q-23 -31 -55 -31h-139q-24 0 -39.5 16t-15.5 40l104 272q8 14 22 23.5
t27 9.5h174q22 0 39 -16.5t17 -39.5z" />
    <glyph glyph-name="lcaron" unicode="&#x13e;" horiz-adv-x="931" 
d="M111 66v1054q0 27 18.5 46.5t44.5 19.5h176q26 0 45 -20t19 -46v-1054q0 -26 -19 -46t-45 -20h-176q-26 0 -44.5 19.5t-18.5 46.5zM932 1130l-133 -270q-23 -31 -56 -31h-165q-24 0 -40 16t-16 40l105 268q8 14 22 23.5t27 9.5h201q22 0 38.5 -16.5t16.5 -39.5z" />
    <glyph glyph-name="Lslash" unicode="&#x141;" horiz-adv-x="1073" 
d="M498 281h471q26 0 45.5 -19t19.5 -45v-154q0 -26 -19.5 -44.5t-45.5 -18.5h-711q-26 0 -44.5 19.5t-18.5 46.5v413l-97 -18q-26 0 -45.5 18.5t-19.5 44.5v158q0 26 19.5 44.5t45.5 18.5l97 19v356q0 27 18.5 46.5t44.5 19.5h176q26 0 45 -20t19 -46v-299l100 19
q26 0 46 -19t20 -45v-158q0 -25 -19 -41.5t-47 -21.5l-100 -18v-256z" />
    <glyph glyph-name="lslash" unicode="&#x142;" horiz-adv-x="696" 
d="M598 555l-98 -18v-471q0 -26 -19 -46t-45 -20h-176q-26 0 -44.5 19.5t-18.5 46.5v413l-99 -18q-26 0 -45.5 18.5t-19.5 44.5v158q0 26 19.5 44.5t45.5 18.5l99 19v356q0 27 18.5 46.5t44.5 19.5h176q26 0 45 -20t19 -46v-299l98 19q26 0 46 -19t20 -45v-158
q0 -25 -19 -41.5t-47 -21.5z" />
    <glyph glyph-name="Nacute" unicode="&#x143;" horiz-adv-x="1275" 
d="M850 25l-436 591v-550q0 -26 -19 -46t-45 -20h-176q-26 0 -44.5 19.5t-18.5 46.5v1054q0 27 18.5 46.5t44.5 19.5h184q29 0 50 -25l454 -616v575q0 26 19 46t45 20h176q26 0 44.5 -19.5t18.5 -46.5v-1054q0 -27 -18.5 -46.5t-44.5 -19.5h-203q-28 0 -49 25zM928 1544
l-135 -217q-33 -37 -66 -37h-143q-29 0 -48.5 20t-19.5 48l107 215q20 39 61 39h178q28 0 47 -20t19 -48z" />
    <glyph glyph-name="nacute" unicode="&#x144;" horiz-adv-x="1040" 
d="M647 66v413q0 18 -0.5 29t-6 32.5t-16 34.5t-32.5 24t-53 11q-29 0 -52 -12t-36 -29t-22 -38.5t-12 -38t-3 -29.5v-397q0 -26 -19 -46t-45 -20h-176q-26 0 -44.5 19.5t-18.5 46.5v737q0 26 18.5 45.5t44.5 19.5h176q26 0 45 -21t19 -48q20 31 52 52t65 28.5t49.5 9.5
t27.5 2q69 0 124.5 -19t90.5 -47t60.5 -66.5t38 -71t19.5 -68t8 -50.5t1 -24v-479q0 -27 -18.5 -46.5t-44.5 -19.5h-176q-26 0 -45 20t-19 46zM817 1253l-135 -217q-33 -37 -66 -37h-143q-29 0 -48 20t-19 48l106 215q20 39 61 39h179q27 0 46 -20t19 -48z" />
    <glyph glyph-name="uni0145" unicode="&#x145;" horiz-adv-x="1275" 
d="M850 25l-436 591v-550q0 -26 -19 -46t-45 -20h-176q-26 0 -44.5 19.5t-18.5 46.5v1054q0 27 18.5 46.5t44.5 19.5h184q29 0 50 -25l454 -616v575q0 26 19 46t45 20h176q26 0 44.5 -19.5t18.5 -46.5v-1054q0 -27 -18.5 -46.5t-44.5 -19.5h-203q-28 0 -49 25zM788 -176
l-86 -176q-7 -17 -25.5 -27t-39.5 -10h-137q-29 0 -47.5 19.5t-18.5 47.5l74 175q20 38 61 38h154q28 0 46.5 -19.5t18.5 -47.5z" />
    <glyph glyph-name="uni0146" unicode="&#x146;" horiz-adv-x="1040" 
d="M647 66v413q0 18 -0.5 29t-6 32.5t-16 34.5t-32.5 24t-53 11q-29 0 -52 -12t-36 -29t-22 -38.5t-12 -38t-3 -29.5v-397q0 -26 -19 -46t-45 -20h-176q-26 0 -44.5 19.5t-18.5 46.5v737q0 26 18.5 45.5t44.5 19.5h176q26 0 45 -21t19 -48q20 31 52 52t65 28.5t49.5 9.5
t27.5 2q69 0 124.5 -19t90.5 -47t60.5 -66.5t38 -71t19.5 -68t8 -50.5t1 -24v-479q0 -27 -18.5 -46.5t-44.5 -19.5h-176q-26 0 -45 20t-19 46zM649 -176l-86 -176q-7 -17 -25.5 -27t-39.5 -10h-138q-29 0 -47 19.5t-18 47.5l74 175q20 38 61 38h154q28 0 46.5 -19.5
t18.5 -47.5z" />
    <glyph glyph-name="Ncaron" unicode="&#x147;" horiz-adv-x="1275" 
d="M850 25l-436 591v-550q0 -26 -19 -46t-45 -20h-176q-26 0 -44.5 19.5t-18.5 46.5v1054q0 27 18.5 46.5t44.5 19.5h184q29 0 50 -25l454 -616v575q0 26 19 46t45 20h176q26 0 44.5 -19.5t18.5 -46.5v-1054q0 -27 -18.5 -46.5t-44.5 -19.5h-203q-28 0 -49 25zM760 1290
h-213q-19 0 -35.5 12.5t-22.5 28.5l-124 264q0 27 18 45.5t45 18.5h127q39 0 57 -37l41 -92l41 92q18 37 58 37h127q27 0 45 -18.5t18 -45.5l-125 -264q-7 -16 -22.5 -28.5t-34.5 -12.5z" />
    <glyph glyph-name="ncaron" unicode="&#x148;" horiz-adv-x="1040" 
d="M647 66v413q0 18 -0.5 29t-6 32.5t-16 34.5t-32.5 24t-53 11q-29 0 -52 -12t-36 -29t-22 -38.5t-12 -38t-3 -29.5v-397q0 -26 -19 -46t-45 -20h-176q-26 0 -44.5 19.5t-18.5 46.5v737q0 26 18.5 45.5t44.5 19.5h176q26 0 45 -21t19 -48q20 31 52 52t65 28.5t49.5 9.5
t27.5 2q69 0 124.5 -19t90.5 -47t60.5 -66.5t38 -71t19.5 -68t8 -50.5t1 -24v-479q0 -27 -18.5 -46.5t-44.5 -19.5h-176q-26 0 -45 20t-19 46zM664 999h-213q-19 0 -35.5 12.5t-22.5 28.5l-125 265q0 27 18 45t46 18h127q39 0 57 -37l41 -92l41 92q18 37 57 37h127
q28 0 46 -18t18 -45l-125 -265q-7 -16 -22.5 -28.5t-34.5 -12.5z" />
    <glyph glyph-name="Eng" unicode="&#x14a;" horiz-adv-x="1275" 
d="M725 -336q-22 0 -39.5 17t-17.5 40v142q0 23 18 40t41 17l45 -4q26 1 44.5 10.5t27 22.5t13 26t5.5 22v9l-448 610v-550q0 -26 -19 -46t-45 -20h-176q-26 0 -44.5 19.5t-18.5 46.5v1054q0 27 18.5 46.5t44.5 19.5h184q29 0 50 -25l454 -616v575q0 26 19 46t45 20h176
q26 0 44.5 -19.5t18.5 -46.5v-1116q0 -71 -15.5 -128t-38.5 -92t-56.5 -61t-61 -38t-62 -18.5t-49.5 -7.5t-32 -1q-70 0 -125 6z" />
    <glyph glyph-name="eng" unicode="&#x14b;" horiz-adv-x="1040" 
d="M510 -336q-22 0 -39.5 17t-17.5 40v142q0 23 18 40t41 17l45 -4q26 1 44.5 10.5t27 22.5t13 26t4.5 22l1 9v473q0 18 -0.5 29t-6 32.5t-16 34.5t-32.5 24t-53 11q-29 0 -52 -12t-36 -29t-22 -38.5t-12 -38t-3 -29.5v-397q0 -26 -19 -46t-45 -20h-176q-26 0 -44.5 19.5
t-18.5 46.5v737q0 26 18.5 45.5t44.5 19.5h176q26 0 45 -21t19 -48q20 31 52 52t65 28.5t49.5 9.5t27.5 2q69 0 124.5 -19t90.5 -47t60.5 -66.5t38 -71t19.5 -68t8 -50.5t1 -24v-541q0 -71 -15.5 -128t-38.5 -92t-56.5 -61t-61 -38t-62 -18.5t-49.5 -7.5t-32 -1
q-69 0 -125 6z" />
    <glyph glyph-name="Omacron" unicode="&#x14c;" horiz-adv-x="1437" 
d="M90 592q0 126 49 240t133 196t200.5 130t246.5 48t246.5 -48t200.5 -130t133 -196t49 -240q0 -168 -83 -309.5t-228 -223.5t-318 -82t-318 82t-228 223.5t-83 309.5zM1036 592q0 138 -92.5 236t-224.5 98t-225 -98t-93 -236t93 -236t225 -98t224.5 98t92.5 236zM967 1290
h-494q-26 0 -45.5 19t-19.5 45v153q0 26 19.5 45t45.5 19h494q26 0 45.5 -19t19.5 -45v-153q0 -26 -19.5 -45t-45.5 -19z" />
    <glyph glyph-name="omacron" unicode="&#x14d;" horiz-adv-x="1093" 
d="M547 891q199 0 338 -134t139 -323t-139 -323t-338 -134t-338 134t-139 323t139 323t338 134zM547 258q74 0 124 50.5t50 125.5t-50 125.5t-124 50.5t-124 -50.5t-50 -125.5t50 -125.5t124 -50.5zM795 999h-492q-26 0 -45.5 19t-19.5 45v154q0 26 19.5 44.5t45.5 18.5h492
q26 0 45.5 -18.5t19.5 -44.5v-154q0 -26 -19.5 -45t-45.5 -19z" />
    <glyph glyph-name="Ohungarumlaut" unicode="&#x150;" horiz-adv-x="1437" 
d="M90 592q0 126 49 240t133 196t200.5 130t246.5 48t246.5 -48t200.5 -130t133 -196t49 -240q0 -168 -83 -309.5t-228 -223.5t-318 -82t-318 82t-228 223.5t-83 309.5zM1036 592q0 138 -92.5 236t-224.5 98t-225 -98t-93 -236t93 -236t225 -98t224.5 98t92.5 236zM754 1544
l-88 -215q-7 -17 -24 -28t-36 -11h-155q-28 0 -47 20t-19 48l59 215q20 39 60 39h184q28 0 47 -20t19 -48zM1151 1544l-88 -215q-8 -17 -24 -28t-35 -11h-156q-28 0 -47 20t-19 48l60 215q20 39 59 39h184q28 0 47 -20t19 -48z" />
    <glyph glyph-name="ohungarumlaut" unicode="&#x151;" horiz-adv-x="1093" 
d="M547 891q199 0 338 -134t139 -323t-139 -323t-338 -134t-338 134t-139 323t139 323t338 134zM547 258q74 0 124 50.5t50 125.5t-50 125.5t-124 50.5t-124 -50.5t-50 -125.5t50 -125.5t124 -50.5zM586 1253l-88 -215q-7 -17 -24 -28t-36 -11h-155q-28 0 -47 20t-19 48
l59 215q20 39 60 39h184q28 0 47 -20t19 -48zM983 1253l-88 -215q-8 -17 -24 -28t-35 -11h-156q-28 0 -47 20t-19 48l60 215q20 39 59 39h185q27 0 46 -20t19 -48z" />
    <glyph glyph-name="OE" unicode="&#x152;" horiz-adv-x="1755" 
d="M1141 281h471q26 0 45.5 -19t19.5 -45v-154q0 -26 -19.5 -44.5t-45.5 -18.5h-717q-90 -23 -176 -23q-173 0 -318 82t-228 223.5t-83 309.5q0 126 49 240t133 196t200.5 130t246.5 48q78 0 166 -20h727q26 0 45.5 -19t19.5 -45v-153q0 -26 -19.5 -45t-45.5 -19h-471v-180
h428q26 0 45.5 -18.5t19.5 -44.5v-154q0 -26 -19.5 -45t-45.5 -19h-428v-163zM719 258q61 0 119 25v618q-58 25 -119 25q-132 0 -225 -98t-93 -236t93 -236t225 -98z" />
    <glyph glyph-name="oe" unicode="&#x153;" horiz-adv-x="1681" 
d="M1565 334h-498q13 -37 47 -56.5t74 -19.5q106 0 178 25q6 2 18 2q39 0 60 -27l78 -108q12 -18 12 -41q0 -44 -39 -64q-149 -68 -303 -68q-188 0 -322 121q-137 -121 -323 -121q-199 0 -338 134t-139 323t139 323t338 134q187 0 323 -123q136 123 322 123q116 0 213.5 -53
t160 -161t62.5 -251v-27q0 -26 -18.5 -45.5t-44.5 -19.5zM547 258q74 0 124 51.5t50 130.5q0 72 -51 121t-123 49q-74 0 -124 -50.5t-50 -125.5t50 -125.5t124 -50.5zM1327 535q-28 100 -139 100q-107 0 -139 -100h278z" />
    <glyph glyph-name="Racute" unicode="&#x154;" horiz-adv-x="1093" 
d="M414 905v-307h180q65 0 105 36.5t40 115.5q0 80 -40 117.5t-105 37.5h-180zM748 25l-242 292h-92v-251q0 -26 -19 -46t-45 -20h-176q-26 0 -44.5 19.5t-18.5 46.5v1054q0 27 18.5 46.5t44.5 19.5h416q10 0 26.5 -1t65 -10t92.5 -24t97.5 -48t92 -77t65 -116t26.5 -160
q0 -265 -230 -375l244 -309q0 -28 -18 -47t-45 -19h-207q-30 0 -51 25zM760 1544l-135 -217q-33 -37 -66 -37h-143q-29 0 -48.5 20t-19.5 48l107 215q20 39 61 39h178q28 0 47 -20t19 -48z" />
    <glyph glyph-name="racute" unicode="&#x155;" horiz-adv-x="759" 
d="M657 594l-32 2q-54 0 -96.5 -23.5t-66.5 -59t-36 -71.5t-12 -67v-309q0 -26 -19 -46t-45 -20h-176q-26 0 -44.5 19.5t-18.5 46.5v737q0 26 18.5 45.5t44.5 19.5h176q26 0 45 -21t19 -48v-11q20 31 52 52t64.5 28.5t49.5 10t28 2.5q33 0 49 -2q28 -3 47 -21.5t19 -44.5
v-154q0 -27 -19.5 -46t-46.5 -19zM559 1253l-135 -217q-33 -37 -66 -37h-143q-29 0 -48.5 20t-19.5 48l107 215q20 39 61 39h179q27 0 46 -20t19 -48z" />
    <glyph glyph-name="uni0156" unicode="&#x156;" horiz-adv-x="1093" 
d="M414 905v-307h180q65 0 105 36.5t40 115.5q0 80 -40 117.5t-105 37.5h-180zM748 25l-242 292h-92v-251q0 -26 -19 -46t-45 -20h-176q-26 0 -44.5 19.5t-18.5 46.5v1054q0 27 18.5 46.5t44.5 19.5h416q10 0 26.5 -1t65 -10t92.5 -24t97.5 -48t92 -77t65 -116t26.5 -160
q0 -265 -230 -375l244 -309q0 -28 -18 -47t-45 -19h-207q-30 0 -51 25zM707 -176l-86 -176q-7 -17 -26 -27t-40 -10h-137q-29 0 -47.5 19.5t-18.5 47.5l74 175q20 38 61 38h154q28 0 47 -19.5t19 -47.5z" />
    <glyph glyph-name="uni0157" unicode="&#x157;" horiz-adv-x="759" 
d="M657 594l-32 2q-54 0 -96.5 -23.5t-66.5 -59t-36 -71.5t-12 -67v-309q0 -26 -19 -46t-45 -20h-176q-26 0 -44.5 19.5t-18.5 46.5v737q0 26 18.5 45.5t44.5 19.5h176q26 0 45 -21t19 -48v-11q20 31 52 52t64.5 28.5t49.5 10t28 2.5q33 0 49 -2q28 -3 47 -21.5t19 -44.5
v-154q0 -27 -19.5 -46t-46.5 -19zM500 -176l-86 -176q-7 -17 -26 -27t-40 -10h-137q-29 0 -47.5 19.5t-18.5 47.5l74 175q20 38 62 38h153q28 0 47 -19.5t19 -47.5z" />
    <glyph glyph-name="Rcaron" unicode="&#x158;" horiz-adv-x="1093" 
d="M414 905v-307h180q65 0 105 36.5t40 115.5q0 80 -40 117.5t-105 37.5h-180zM748 25l-242 292h-92v-251q0 -26 -19 -46t-45 -20h-176q-26 0 -44.5 19.5t-18.5 46.5v1054q0 27 18.5 46.5t44.5 19.5h416q10 0 26.5 -1t65 -10t92.5 -24t97.5 -48t92 -77t65 -116t26.5 -160
q0 -265 -230 -375l244 -309q0 -28 -18 -47t-45 -19h-207q-30 0 -51 25zM610 1290h-213q-19 0 -34.5 12.5t-22.5 28.5l-125 264q0 27 18.5 45.5t45.5 18.5h127q38 0 57 -37l41 -92l41 92q19 37 57 37h127q27 0 45.5 -18.5t18.5 -45.5l-125 -264q-6 -16 -22.5 -28.5
t-35.5 -12.5z" />
    <glyph glyph-name="rcaron" unicode="&#x159;" horiz-adv-x="759" 
d="M657 594l-32 2q-54 0 -96.5 -23.5t-66.5 -59t-36 -71.5t-12 -67v-309q0 -26 -19 -46t-45 -20h-176q-26 0 -44.5 19.5t-18.5 46.5v737q0 26 18.5 45.5t44.5 19.5h176q26 0 45 -21t19 -48v-11q20 31 52 52t64.5 28.5t49.5 10t28 2.5q33 0 49 -2q28 -3 47 -21.5t19 -44.5
v-154q0 -27 -19.5 -46t-46.5 -19zM520 999h-213q-19 0 -34.5 12.5t-22.5 28.5l-125 265q0 27 18 45t45 18h127q39 0 58 -37l41 -92l41 92q19 37 57 37h127q27 0 45 -18t18 -45l-124 -265q-6 -16 -22.5 -28.5t-35.5 -12.5z" />
    <glyph glyph-name="Sacute" unicode="&#x15a;" horiz-adv-x="1060" 
d="M72 172q-15 18 -15 41q0 38 31 59l115 86q22 15 47 15q16 0 39 -15q107 -100 248 -100q83 0 116 26.5t33 59.5q0 25 -26 45.5t-69 35t-98 33.5t-112 38.5t-112 52t-98 72t-69 101t-26 136.5q0 39 11 81.5t42 91.5t77 86.5t124.5 63t177.5 25.5q105 0 194.5 -30
t136.5 -64.5t83 -75.5q18 -22 18 -39q0 -29 -18 -47l-119 -94q-22 -16 -45 -16q-21 0 -47 22q-36 30 -76 44.5t-66.5 17t-72.5 2.5q-48 0 -81.5 -22.5t-33.5 -59.5q0 -31 33.5 -56t87.5 -44t119 -40t130 -51.5t119 -70.5t87.5 -104t33.5 -146q0 -40 -14 -84.5t-49 -93
t-86 -86.5t-133 -63t-183 -25q-90 0 -167 17.5t-131 47t-91 60.5t-65 67zM807 1544l-135 -217q-33 -37 -66 -37h-143q-29 0 -48.5 20t-19.5 48l107 215q20 39 61 39h178q28 0 47 -20t19 -48z" />
    <glyph glyph-name="sacute" unicode="&#x15b;" horiz-adv-x="837" 
d="M57 143q-12 15 -12 41t23 49l106 62q17 10 37 10q29 0 39 -12q24 -28 60 -44t60 -18l23 -2q84 0 84 33q0 19 -31 34t-77.5 26t-100.5 32t-100.5 49t-77.5 81t-31 124q0 111 97.5 197t267.5 86q158 0 281 -127q26 -26 26 -53q0 -37 -24 -58l-95 -55q-24 -16 -43 -16
q-17 0 -30 8q-61 49 -121 49q-17 0 -27.5 -1.5t-19.5 -9.5t-9 -22q0 -16 23 -29t60 -24.5t81.5 -25t89 -35t81.5 -50.5t60 -76.5t23 -107.5q0 -46 -24.5 -94t-71 -90.5t-124 -69.5t-171.5 -27q-203 0 -332 166zM715 1253l-135 -217q-33 -37 -66 -37h-143q-29 0 -48.5 20
t-19.5 48l107 215q20 39 61 39h178q28 0 47 -20t19 -48z" />
    <glyph glyph-name="Scircumflex" unicode="&#x15c;" horiz-adv-x="1060" 
d="M72 172q-15 18 -15 41q0 38 31 59l115 86q22 15 47 15q16 0 39 -15q107 -100 248 -100q83 0 116 26.5t33 59.5q0 25 -26 45.5t-69 35t-98 33.5t-112 38.5t-112 52t-98 72t-69 101t-26 136.5q0 39 11 81.5t42 91.5t77 86.5t124.5 63t177.5 25.5q105 0 194.5 -30
t136.5 -64.5t83 -75.5q18 -22 18 -39q0 -29 -18 -47l-119 -94q-22 -16 -45 -16q-21 0 -47 22q-36 30 -76 44.5t-66.5 17t-72.5 2.5q-48 0 -81.5 -22.5t-33.5 -59.5q0 -31 33.5 -56t87.5 -44t119 -40t130 -51.5t119 -70.5t87.5 -104t33.5 -146q0 -40 -14 -84.5t-49 -93
t-86 -86.5t-133 -63t-183 -25q-90 0 -167 17.5t-131 47t-91 60.5t-65 67zM401 1659h213q19 0 35.5 -12.5t22.5 -28.5l125 -264q0 -27 -18.5 -45.5t-45.5 -18.5h-127q-38 0 -57 37l-41 92l-41 -92q-19 -37 -57 -37h-127q-27 0 -45.5 18.5t-18.5 45.5l125 264q7 16 22.5 28.5
t34.5 12.5z" />
    <glyph glyph-name="scircumflex" unicode="&#x15d;" horiz-adv-x="837" 
d="M57 143q-12 15 -12 41t23 49l106 62q17 10 37 10q29 0 39 -12q24 -28 60 -44t60 -18l23 -2q84 0 84 33q0 19 -31 34t-77.5 26t-100.5 32t-100.5 49t-77.5 81t-31 124q0 111 97.5 197t267.5 86q158 0 281 -127q26 -26 26 -53q0 -37 -24 -58l-95 -55q-24 -16 -43 -16
q-17 0 -30 8q-61 49 -121 49q-17 0 -27.5 -1.5t-19.5 -9.5t-9 -22q0 -16 23 -29t60 -24.5t81.5 -25t89 -35t81.5 -50.5t60 -76.5t23 -107.5q0 -46 -24.5 -94t-71 -90.5t-124 -69.5t-171.5 -27q-203 0 -332 166zM305 1368h213q19 0 34.5 -12.5t22.5 -28.5l125 -264
q0 -27 -18 -45.5t-45 -18.5h-127q-38 0 -57 37l-41 92l-41 -92q-19 -37 -58 -37h-127q-27 0 -45 18.5t-18 45.5l125 264q7 16 22.5 28.5t34.5 12.5z" />
    <glyph glyph-name="Scedilla" unicode="&#x15e;" horiz-adv-x="1060" 
d="M72 172q-15 18 -15 41q0 38 31 59l115 86q22 15 47 15q16 0 39 -15q107 -100 248 -100q83 0 116 26.5t33 59.5q0 25 -26 45.5t-69 35t-98 33.5t-112 38.5t-112 52t-98 72t-69 101t-26 136.5q0 39 11 81.5t42 91.5t77 86.5t124.5 63t177.5 25.5q105 0 194.5 -30
t136.5 -64.5t83 -75.5q18 -22 18 -39q0 -29 -18 -47l-119 -94q-22 -16 -45 -16q-21 0 -47 22q-36 30 -76 44.5t-66.5 17t-72.5 2.5q-48 0 -81.5 -22.5t-33.5 -59.5q0 -31 33.5 -56t87.5 -44t119 -40t130 -51.5t119 -70.5t87.5 -104t33.5 -146q0 -40 -14 -84.5t-49 -93
t-86 -86.5t-133 -63t-183 -25q-90 0 -167 17.5t-131 47t-91 60.5t-65 67zM651 -176l-86 -176q-7 -17 -25.5 -27t-39.5 -10h-152q-29 0 -47 19.5t-18 47.5l59 175q20 38 61 38h183q28 0 46.5 -19.5t18.5 -47.5z" />
    <glyph glyph-name="scedilla" unicode="&#x15f;" horiz-adv-x="837" 
d="M57 143q-12 15 -12 41t23 49l106 62q17 10 37 10q29 0 39 -12q24 -28 60 -44t60 -18l23 -2q84 0 84 33q0 19 -31 34t-77.5 26t-100.5 32t-100.5 49t-77.5 81t-31 124q0 111 97.5 197t267.5 86q158 0 281 -127q26 -26 26 -53q0 -37 -24 -58l-95 -55q-24 -16 -43 -16
q-17 0 -30 8q-61 49 -121 49q-17 0 -27.5 -1.5t-19.5 -9.5t-9 -22q0 -16 23 -29t60 -24.5t81.5 -25t89 -35t81.5 -50.5t60 -76.5t23 -107.5q0 -46 -24.5 -94t-71 -90.5t-124 -69.5t-171.5 -27q-203 0 -332 166zM553 -176l-86 -176q-7 -17 -26 -27t-40 -10h-137
q-29 0 -47 19.5t-18 47.5l73 175q20 38 62 38h153q28 0 47 -19.5t19 -47.5z" />
    <glyph glyph-name="Scaron" unicode="&#x160;" horiz-adv-x="1060" 
d="M72 172q-15 18 -15 41q0 38 31 59l115 86q22 15 47 15q16 0 39 -15q107 -100 248 -100q83 0 116 26.5t33 59.5q0 25 -26 45.5t-69 35t-98 33.5t-112 38.5t-112 52t-98 72t-69 101t-26 136.5q0 39 11 81.5t42 91.5t77 86.5t124.5 63t177.5 25.5q105 0 194.5 -30
t136.5 -64.5t83 -75.5q18 -22 18 -39q0 -29 -18 -47l-119 -94q-22 -16 -45 -16q-21 0 -47 22q-36 30 -76 44.5t-66.5 17t-72.5 2.5q-48 0 -81.5 -22.5t-33.5 -59.5q0 -31 33.5 -56t87.5 -44t119 -40t130 -51.5t119 -70.5t87.5 -104t33.5 -146q0 -40 -14 -84.5t-49 -93
t-86 -86.5t-133 -63t-183 -25q-90 0 -167 17.5t-131 47t-91 60.5t-65 67zM618 1290h-212q-19 0 -35.5 12.5t-22.5 28.5l-125 264q0 27 18.5 45.5t45.5 18.5h127q38 0 57 -37l41 -92l41 92q19 37 57 37h127q27 0 45.5 -18.5t18.5 -45.5l-125 -264q-6 -16 -22.5 -28.5
t-35.5 -12.5z" />
    <glyph glyph-name="scaron" unicode="&#x161;" horiz-adv-x="837" 
d="M57 143q-12 15 -12 41t23 49l106 62q17 10 37 10q29 0 39 -12q24 -28 60 -44t60 -18l23 -2q84 0 84 33q0 19 -31 34t-77.5 26t-100.5 32t-100.5 49t-77.5 81t-31 124q0 111 97.5 197t267.5 86q158 0 281 -127q26 -26 26 -53q0 -37 -24 -58l-95 -55q-24 -16 -43 -16
q-17 0 -30 8q-61 49 -121 49q-17 0 -27.5 -1.5t-19.5 -9.5t-9 -22q0 -16 23 -29t60 -24.5t81.5 -25t89 -35t81.5 -50.5t60 -76.5t23 -107.5q0 -46 -24.5 -94t-71 -90.5t-124 -69.5t-171.5 -27q-203 0 -332 166zM528 999h-213q-19 0 -34.5 12.5t-22.5 28.5l-125 265
q0 27 18.5 45t45.5 18h127q38 0 57 -37l41 -92l41 92q19 37 57 37h127q27 0 45.5 -18t18.5 -45l-125 -265q-6 -16 -22.5 -28.5t-35.5 -12.5z" />
    <glyph glyph-name="uni0162" unicode="&#x162;" horiz-adv-x="1118" 
d="M408 905h-283q-26 0 -46 19t-20 45v153q0 26 20 45t46 19h868q26 0 46 -19t20 -45v-153q0 -26 -20 -45t-46 -19h-282v-839q0 -26 -19 -46t-45 -20h-176q-26 0 -44.5 19.5t-18.5 46.5v839zM676 -176l-86 -176q-7 -17 -26 -27t-40 -10h-137q-29 0 -47 19.5t-18 47.5l73 175
q20 38 62 38h153q28 0 47 -19.5t19 -47.5z" />
    <glyph glyph-name="uni0163" unicode="&#x163;" horiz-adv-x="759" 
d="M188 868v242q0 25 14.5 43t37.5 21l186 38q26 0 46 -19.5t20 -45.5v-279h133q26 0 45.5 -18.5t19.5 -44.5v-154q0 -26 -19.5 -44.5t-45.5 -18.5h-133v-240q0 -4 0.5 -10t5 -21.5t13 -27.5t28 -21.5t45.5 -9.5q16 0 43 2q24 0 42.5 -16t18.5 -39v-142q0 -23 -17 -40
t-40 -17q-55 -6 -125 -6q-18 0 -32.5 1t-49.5 7.5t-62.5 18.5t-62 38t-57 61t-38.5 92t-16 128v242h-86q-26 0 -45.5 18.5t-19.5 44.5v154q0 26 19.5 44.5t45.5 18.5h86zM559 -176l-86 -176q-7 -17 -25.5 -27t-39.5 -10h-138q-29 0 -47 19.5t-18 47.5l74 175q20 38 61 38
h154q28 0 46.5 -19.5t18.5 -47.5z" />
    <glyph glyph-name="Tcaron" unicode="&#x164;" horiz-adv-x="1118" 
d="M408 905h-283q-26 0 -46 19t-20 45v153q0 26 20 45t46 19h868q26 0 46 -19t20 -45v-153q0 -26 -20 -45t-46 -19h-282v-839q0 -26 -19 -46t-45 -20h-176q-26 0 -44.5 19.5t-18.5 46.5v839zM666 1290h-213q-19 0 -35.5 12.5t-22.5 28.5l-125 264q0 27 18.5 45.5t45.5 18.5
h127q39 0 57 -37l41 -92l41 92q18 37 57 37h127q27 0 45.5 -18.5t18.5 -45.5l-125 -264q-7 -16 -22.5 -28.5t-34.5 -12.5z" />
    <glyph glyph-name="tcaron" unicode="&#x165;" horiz-adv-x="1009" 
d="M188 868v242q0 25 14.5 43t37.5 21l186 38q26 0 46 -19.5t20 -45.5v-279h133q26 0 45.5 -18.5t19.5 -44.5v-154q0 -26 -19.5 -44.5t-45.5 -18.5h-133v-240q0 -4 0.5 -10t5 -21.5t13 -27.5t28 -21.5t45.5 -9.5q16 0 43 2q24 0 42.5 -16t18.5 -39v-142q0 -23 -17 -40
t-40 -17q-55 -6 -125 -6q-18 0 -32.5 1t-49.5 7.5t-62.5 18.5t-62 38t-57 61t-38.5 92t-16 128v242h-86q-26 0 -45.5 18.5t-19.5 44.5v154q0 26 19.5 44.5t45.5 18.5h86zM1010 1159l-90 -184q-33 -37 -66 -37h-143q-29 0 -48.5 20t-19.5 48l66 182q20 39 61 39h174
q28 0 47 -20t19 -48z" />
    <glyph glyph-name="Tbar" unicode="&#x166;" horiz-adv-x="1118" 
d="M862 391h-151v-325q0 -26 -19 -46t-45 -20h-176q-26 0 -44.5 19.5t-18.5 46.5v325h-152q-26 0 -46 19t-20 45v153q0 26 20 45t46 19h152v233h-283q-26 0 -46 19t-20 45v153q0 26 20 45t46 19h868q26 0 46 -19t20 -45v-153q0 -26 -20 -45t-46 -19h-282v-233h151
q26 0 46 -19t20 -45v-153q0 -26 -20 -45t-46 -19z" />
    <glyph glyph-name="tbar" unicode="&#x167;" horiz-adv-x="759" 
d="M625 365h-133v-17q0 -4 0.5 -10t5 -21.5t13 -27.5t28 -21.5t45.5 -9.5q16 0 43 2q24 0 42.5 -16t18.5 -39v-142q0 -23 -17 -40t-40 -17q-55 -6 -125 -6q-18 0 -32.5 1t-49.5 7.5t-62.5 18.5t-62 38t-57 61t-38.5 92t-16 128v19h-86q-26 0 -45.5 18.5t-19.5 44.5v152
q0 26 19.5 44.5t45.5 18.5h86v70h-86q-26 0 -45.5 18.5t-19.5 44.5v154q0 26 19.5 44.5t45.5 18.5h86v117q0 25 14.5 43t37.5 21l186 38q26 0 46 -19.5t20 -45.5v-154h133q26 0 45.5 -18.5t19.5 -44.5v-154q0 -26 -19.5 -44.5t-45.5 -18.5h-133v-70h133q26 0 45.5 -18.5
t19.5 -44.5v-152q0 -26 -19.5 -44.5t-45.5 -18.5z" />
    <glyph glyph-name="Utilde" unicode="&#x168;" horiz-adv-x="1191" 
d="M596 -23q-10 0 -28 1t-70 10t-99 25t-104.5 52t-98.5 85t-69.5 129.5t-28.5 179.5v661q0 26 19 46t45 20h176q26 0 44.5 -19.5t18.5 -46.5v-659q0 -4 0.5 -11.5t5 -28.5t12 -40t22 -42.5t34.5 -40.5t51.5 -28.5t69.5 -11.5t69.5 11t51.5 29t34.5 39.5t22 43.5t11.5 40
t5 29l1 11v659q0 27 18.5 46.5t44.5 19.5h176q26 0 45 -20t19 -46v-661q0 -99 -27.5 -179.5t-71.5 -129.5t-97 -85t-106 -52t-97 -25t-71 -10zM754 1280q-59 1 -113 23.5t-89 44.5t-50 22q-24 0 -31 -41q-9 -39 -57 -39h-138q-26 0 -43.5 18.5t-17.5 45.5q6 56 21.5 101.5
t36 73.5t44.5 49t46.5 31t41 15.5t29.5 6.5l12 1q49 0 93.5 -14.5t69.5 -31.5t49.5 -31.5t39.5 -14.5q24 0 31 41q9 39 57 39h136q26 0 43.5 -18.5t17.5 -45.5q-8 -77 -34 -133.5t-58.5 -82.5t-63.5 -41t-52 -17z" />
    <glyph glyph-name="utilde" unicode="&#x169;" horiz-adv-x="1044" 
d="M522 -23q-78 0 -143 17.5t-107.5 45.5t-75 67t-50.5 77t-29 80.5t-14 73t-3 59.5v406q0 26 19 45.5t45 19.5h176q26 0 44.5 -19.5t18.5 -45.5v-414q0 -19 3.5 -37t14 -41.5t36.5 -38t65 -14.5t65 14.5t36.5 38t14 41.5t3.5 37v414q0 26 19 45.5t45 19.5h176
q26 0 44.5 -19.5t18.5 -45.5v-406q0 -29 -3 -59.5t-14 -73t-29 -80.5t-50.5 -77t-75 -67t-107.5 -45.5t-143 -17.5zM676 954q-59 1 -113 23.5t-89 44.5t-50 22q-25 0 -31 -40q-9 -39 -57 -39h-137q-26 0 -44 18.5t-18 44.5q6 56 21.5 101.5t36.5 74t44.5 49.5t46.5 31
t41.5 15.5t30.5 6.5l11 1q63 0 115.5 -23.5t86 -46.5t50.5 -23q23 0 30 41q9 39 58 39h135q26 0 43.5 -18.5t17.5 -44.5q-8 -77 -34 -133.5t-58.5 -83t-63.5 -41.5t-52 -17z" />
    <glyph glyph-name="Umacron" unicode="&#x16a;" horiz-adv-x="1191" 
d="M596 -23q-10 0 -28 1t-70 10t-99 25t-104.5 52t-98.5 85t-69.5 129.5t-28.5 179.5v661q0 26 19 46t45 20h176q26 0 44.5 -19.5t18.5 -46.5v-659q0 -4 0.5 -11.5t5 -28.5t12 -40t22 -42.5t34.5 -40.5t51.5 -28.5t69.5 -11.5t69.5 11t51.5 29t34.5 39.5t22 43.5t11.5 40
t5 29l1 11v659q0 27 18.5 46.5t44.5 19.5h176q26 0 45 -20t19 -46v-661q0 -99 -27.5 -179.5t-71.5 -129.5t-97 -85t-106 -52t-97 -25t-71 -10zM844 1290h-494q-26 0 -45.5 19t-19.5 45v153q0 26 19.5 45t45.5 19h494q26 0 45.5 -19t19.5 -45v-153q0 -26 -19.5 -45t-45.5 -19
z" />
    <glyph glyph-name="umacron" unicode="&#x16b;" horiz-adv-x="1044" 
d="M522 -23q-78 0 -143 17.5t-107.5 45.5t-75 67t-50.5 77t-29 80.5t-14 73t-3 59.5v406q0 26 19 45.5t45 19.5h176q26 0 44.5 -19.5t18.5 -45.5v-414q0 -19 3.5 -37t14 -41.5t36.5 -38t65 -14.5t65 14.5t36.5 38t14 41.5t3.5 37v414q0 26 19 45.5t45 19.5h176
q26 0 44.5 -19.5t18.5 -45.5v-406q0 -29 -3 -59.5t-14 -73t-29 -80.5t-50.5 -77t-75 -67t-107.5 -45.5t-143 -17.5zM770 999h-494q-26 0 -45.5 19t-19.5 45v154q0 26 19.5 44.5t45.5 18.5h494q27 0 46.5 -18.5t19.5 -44.5v-154q0 -26 -20 -45t-46 -19z" />
    <glyph glyph-name="Ubreve" unicode="&#x16c;" horiz-adv-x="1191" 
d="M596 -23q-10 0 -28 1t-70 10t-99 25t-104.5 52t-98.5 85t-69.5 129.5t-28.5 179.5v661q0 26 19 46t45 20h176q26 0 44.5 -19.5t18.5 -46.5v-659q0 -4 0.5 -11.5t5 -28.5t12 -40t22 -42.5t34.5 -40.5t51.5 -28.5t69.5 -11.5t69.5 11t51.5 29t34.5 39.5t22 43.5t11.5 40
t5 29l1 11v659q0 27 18.5 46.5t44.5 19.5h176q26 0 45 -20t19 -46v-661q0 -99 -27.5 -179.5t-71.5 -129.5t-97 -85t-106 -52t-97 -25t-71 -10zM598 1290q-169 0 -272.5 85t-120.5 241q0 25 17.5 43t43.5 18h166q46 0 64 -61q21 -66 102 -66t102 66q18 61 64 61h166
q26 0 43.5 -18t17.5 -43q-17 -156 -120.5 -241t-272.5 -85z" />
    <glyph glyph-name="ubreve" unicode="&#x16d;" horiz-adv-x="1044" 
d="M522 -23q-78 0 -143 17.5t-107.5 45.5t-75 67t-50.5 77t-29 80.5t-14 73t-3 59.5v406q0 26 19 45.5t45 19.5h176q26 0 44.5 -19.5t18.5 -45.5v-414q0 -19 3.5 -37t14 -41.5t36.5 -38t65 -14.5t65 14.5t36.5 38t14 41.5t3.5 37v414q0 26 19 45.5t45 19.5h176
q26 0 44.5 -19.5t18.5 -45.5v-406q0 -29 -3 -59.5t-14 -73t-29 -80.5t-50.5 -77t-75 -67t-107.5 -45.5t-143 -17.5zM524 999q-169 0 -272.5 85t-120.5 241q0 25 18 43t44 18h165q46 0 64 -61q20 -65 102 -65q83 0 103 65q18 61 63 61h166q26 0 44 -18t18 -43
q-17 -156 -120.5 -241t-273.5 -85z" />
    <glyph glyph-name="Uring" unicode="&#x16e;" horiz-adv-x="1191" 
d="M596 -23q-10 0 -28 1t-70 10t-99 25t-104.5 52t-98.5 85t-69.5 129.5t-28.5 179.5v661q0 26 19 46t45 20h176q26 0 44.5 -19.5t18.5 -46.5v-659q0 -4 0.5 -11.5t5 -28.5t12 -40t22 -42.5t34.5 -40.5t51.5 -28.5t69.5 -11.5t69.5 11t51.5 29t34.5 39.5t22 43.5t11.5 40
t5 29l1 11v659q0 27 18.5 46.5t44.5 19.5h176q26 0 45 -20t19 -46v-661q0 -99 -27.5 -179.5t-71.5 -129.5t-97 -85t-106 -52t-97 -25t-71 -10zM596 1827q113 0 190.5 -77t77.5 -189q0 -114 -77.5 -192.5t-190.5 -78.5q-114 0 -192 78.5t-78 192.5q0 112 78 189t192 77z
M596 1483q31 0 52.5 23t21.5 55q0 29 -22 51t-52 22q-32 0 -55 -22t-23 -51q0 -32 23 -55t55 -23z" />
    <glyph glyph-name="uring" unicode="&#x16f;" horiz-adv-x="1044" 
d="M522 -23q-78 0 -143 17.5t-107.5 45.5t-75 67t-50.5 77t-29 80.5t-14 73t-3 59.5v406q0 26 19 45.5t45 19.5h176q26 0 44.5 -19.5t18.5 -45.5v-414q0 -19 3.5 -37t14 -41.5t36.5 -38t65 -14.5t65 14.5t36.5 38t14 41.5t3.5 37v414q0 26 19 45.5t45 19.5h176
q26 0 44.5 -19.5t18.5 -45.5v-406q0 -29 -3 -59.5t-14 -73t-29 -80.5t-50.5 -77t-75 -67t-107.5 -45.5t-143 -17.5zM524 1536q113 0 191 -77t78 -189q0 -114 -78 -192.5t-191 -78.5q-114 0 -192 78.5t-78 192.5q0 112 78 189t192 77zM524 1192q31 0 52.5 23t21.5 55
q0 30 -22 51.5t-52 21.5q-32 0 -55 -22t-23 -51q0 -32 23 -55t55 -23z" />
    <glyph glyph-name="Uhungarumlaut" unicode="&#x170;" horiz-adv-x="1191" 
d="M596 -23q-10 0 -28 1t-70 10t-99 25t-104.5 52t-98.5 85t-69.5 129.5t-28.5 179.5v661q0 26 19 46t45 20h176q26 0 44.5 -19.5t18.5 -46.5v-659q0 -4 0.5 -11.5t5 -28.5t12 -40t22 -42.5t34.5 -40.5t51.5 -28.5t69.5 -11.5t69.5 11t51.5 29t34.5 39.5t22 43.5t11.5 40
t5 29l1 11v659q0 27 18.5 46.5t44.5 19.5h176q26 0 45 -20t19 -46v-661q0 -99 -27.5 -179.5t-71.5 -129.5t-97 -85t-106 -52t-97 -25t-71 -10zM1047 1544l-89 -215q-8 -17 -24 -28t-35 -11h-156q-27 0 -46 20t-19 48l59 215q20 39 60 39h184q28 0 47 -20t19 -48zM649 1544
l-88 -215q-8 -17 -24 -28t-35 -11h-156q-27 0 -46 20t-19 48l59 215q20 39 59 39h185q27 0 46 -20t19 -48z" />
    <glyph glyph-name="uhungarumlaut" unicode="&#x171;" horiz-adv-x="1044" 
d="M522 -23q-78 0 -143 17.5t-107.5 45.5t-75 67t-50.5 77t-29 80.5t-14 73t-3 59.5v406q0 26 19 45.5t45 19.5h176q26 0 44.5 -19.5t18.5 -45.5v-414q0 -19 3.5 -37t14 -41.5t36.5 -38t65 -14.5t65 14.5t36.5 38t14 41.5t3.5 37v414q0 26 19 45.5t45 19.5h176
q26 0 44.5 -19.5t18.5 -45.5v-406q0 -29 -3 -59.5t-14 -73t-29 -80.5t-50.5 -77t-75 -67t-107.5 -45.5t-143 -17.5zM516 1253l-88 -215q-8 -17 -24 -28t-35 -11h-156q-28 0 -47 20t-19 48l60 215q20 39 59 39h185q27 0 46 -20t19 -48zM913 1253l-88 -215q-8 -17 -24 -28
t-35 -11h-156q-27 0 -46 20t-19 48l59 215q20 39 60 39h184q27 0 46 -20t19 -48z" />
    <glyph glyph-name="Uogonek" unicode="&#x172;" horiz-adv-x="1191" 
d="M1030 1186q26 0 45 -20t19 -46v-661q0 -98 -27.5 -177t-67.5 -127.5t-96 -85t-103 -53t-98 -26.5v-103q0 -25 -28 -28l-49 -6q-4 -1 -10 -3t-15.5 -12t-9.5 -24q0 -37 53 -37l51 8q17 0 28 -11.5t11 -27.5v-90q0 -16 -11.5 -26.5t-27.5 -12.5q-13 -1 -47 -4.5t-57 -3.5
q-19 0 -43.5 3.5t-61 15t-65 30t-49.5 53.5t-21 80q0 34 13.5 61.5t33 43t38.5 26t33 14.5l13 3v53q-50 11 -96 28t-100.5 53.5t-94 85.5t-66 126.5t-26.5 173.5v661q0 26 19 46t45 20h176q26 0 44.5 -19.5t18.5 -46.5v-659q0 -4 0.5 -11.5t5 -28.5t12 -40t22 -42.5
t34.5 -40.5t51.5 -28.5t69.5 -11.5t69.5 11t51.5 29t34.5 39.5t22 43.5t11.5 40t5 29l1 11v659q0 27 18.5 46.5t44.5 19.5h176z" />
    <glyph glyph-name="uogonek" unicode="&#x173;" horiz-adv-x="1044" 
d="M635 -383q-13 -1 -47.5 -4.5t-57.5 -3.5q-19 0 -43.5 3.5t-60.5 15t-65 30t-49.5 53.5t-20.5 80q0 34 13.5 61.5t32.5 43t38.5 26t32.5 14.5l14 3v47q-82 14 -144 52.5t-94.5 83.5t-52.5 101t-25.5 96t-5.5 78v406q0 26 19 45.5t45 19.5h176q26 0 44.5 -19.5t18.5 -45.5
v-414q0 -19 3.5 -37t14 -41.5t36.5 -38t65 -14.5t65 14.5t36.5 38t14 41.5t3.5 37v414q0 26 19 45.5t45 19.5h176q26 0 44.5 -19.5t18.5 -45.5v-406q0 -37 -5 -76t-24 -93.5t-50 -99t-88.5 -83.5t-133.5 -55v-103q0 -24 -29 -28l-49 -6q-4 -1 -10 -3t-15.5 -12t-9.5 -24
q0 -17 14.5 -27t39.5 -10l51 8q17 0 28 -11.5t11 -27.5v-90q0 -16 -11.5 -26.5t-27.5 -12.5z" />
    <glyph glyph-name="Ydieresis" unicode="&#x178;" horiz-adv-x="1134" 
d="M416 66v333l-391 721q0 27 18.5 46.5t44.5 19.5h193q20 0 36.5 -12t22.5 -31l227 -434l228 434q6 19 22.5 31t36.5 12h193q26 0 44.5 -19.5t18.5 -46.5l-391 -721v-333q0 -26 -19 -46t-45 -20h-176q-26 0 -44.5 19.5t-18.5 46.5zM223 1446q0 64 45.5 110t110.5 46
t110.5 -46t45.5 -110t-45.5 -110t-110.5 -46t-110.5 46t-45.5 110zM606 1446q0 64 46 110t110 46t110 -46t46 -110t-46 -110t-110 -46t-110 46t-46 110z" />
    <glyph glyph-name="Zacute" unicode="&#x179;" horiz-adv-x="1040" 
d="M72 268l481 637h-410q-26 0 -45.5 19t-19.5 45v153q0 26 19.5 45t45.5 19h752q26 0 46 -19t20 -45v-164q0 -20 -13 -36l-487 -641h454q26 0 46 -19t20 -45v-154q0 -26 -19.5 -44.5t-46.5 -18.5h-790q-27 0 -46.5 18.5t-19.5 44.5v168q0 21 13 37zM825 1544l-135 -217
q-33 -37 -65 -37h-144q-29 0 -48 20t-19 48l106 215q9 17 26 28t36 11h178q27 0 46 -20t19 -48z" />
    <glyph glyph-name="zacute" unicode="&#x17a;" horiz-adv-x="888" 
d="M90 268l307 320h-254q-26 0 -45.5 18.5t-19.5 44.5v154q0 26 19.5 44.5t45.5 18.5h602q27 0 46.5 -18.5t19.5 -44.5v-164q0 -22 -12 -37l-307 -323h253q26 0 46 -19t20 -45v-154q0 -26 -19.5 -44.5t-46.5 -18.5h-602q-26 0 -45.5 18.5t-19.5 44.5v168q0 22 12 37z
M735 1253l-135 -217q-33 -37 -65 -37h-144q-29 0 -48 20t-19 48l106 215q9 17 26 28t36 11h178q27 0 46 -20t19 -48z" />
    <glyph glyph-name="Zdotaccent" unicode="&#x17b;" horiz-adv-x="1040" 
d="M72 268l481 637h-410q-26 0 -45.5 19t-19.5 45v153q0 26 19.5 45t45.5 19h752q26 0 46 -19t20 -45v-164q0 -20 -13 -36l-487 -641h454q26 0 46 -19t20 -45v-154q0 -26 -19.5 -44.5t-46.5 -18.5h-790q-27 0 -46.5 18.5t-19.5 44.5v168q0 21 13 37zM362 1446q0 64 46 110
t110 46t110 -46t46 -110t-46 -110t-110 -46t-110 46t-46 110z" />
    <glyph glyph-name="zdotaccent" unicode="&#x17c;" horiz-adv-x="888" 
d="M90 268l307 320h-254q-26 0 -45.5 18.5t-19.5 44.5v154q0 26 19.5 44.5t45.5 18.5h602q27 0 46.5 -18.5t19.5 -44.5v-164q0 -22 -12 -37l-307 -323h253q26 0 46 -19t20 -45v-154q0 -26 -19.5 -44.5t-46.5 -18.5h-602q-26 0 -45.5 18.5t-19.5 44.5v168q0 22 12 37z
M276 1122q0 70 49 119t119 49t119 -49t49 -119t-49 -119t-119 -49t-119 49t-49 119z" />
    <glyph glyph-name="Zcaron" unicode="&#x17d;" horiz-adv-x="1040" 
d="M72 268l481 637h-410q-26 0 -45.5 19t-19.5 45v153q0 26 19.5 45t45.5 19h752q26 0 46 -19t20 -45v-164q0 -20 -13 -36l-487 -641h454q26 0 46 -19t20 -45v-154q0 -26 -19.5 -44.5t-46.5 -18.5h-790q-27 0 -46.5 18.5t-19.5 44.5v168q0 21 13 37zM625 1290h-213
q-19 0 -35.5 12.5t-22.5 28.5l-125 264q0 27 18.5 45.5t45.5 18.5h127q38 0 57 -37l41 -92l41 92q19 37 57 37h127q27 0 45.5 -18.5t18.5 -45.5l-125 -264q-7 -16 -22.5 -28.5t-34.5 -12.5z" />
    <glyph glyph-name="zcaron" unicode="&#x17e;" horiz-adv-x="888" 
d="M90 268l307 320h-254q-26 0 -45.5 18.5t-19.5 44.5v154q0 26 19.5 44.5t45.5 18.5h602q27 0 46.5 -18.5t19.5 -44.5v-164q0 -22 -12 -37l-307 -323h253q26 0 46 -19t20 -45v-154q0 -26 -19.5 -44.5t-46.5 -18.5h-602q-26 0 -45.5 18.5t-19.5 44.5v168q0 22 12 37z
M553 999h-213q-19 0 -34.5 12.5t-22.5 28.5l-125 265q0 27 18 45t45 18h127q40 0 58 -37l40 -92l41 92q19 37 58 37h127q27 0 45 -18t18 -45l-125 -265q-7 -16 -22.5 -28.5t-34.5 -12.5z" />
    <glyph glyph-name="florin" unicode="&#x192;" horiz-adv-x="772" 
d="M686 1004q-24 4 -45 4q-27 0 -48.5 -9.5t-33 -23t-18.5 -27.5t-9 -24l-2 -9l-10 -47h121q27 0 46.5 -18.5t19.5 -44.5l-25 -154q-5 -28 -22 -45.5t-44 -17.5h-141l-143 -905q-3 -20 -20.5 -29.5t-39.5 -9.5h-184q-26 0 -43.5 19t-17.5 46l143 879h-72q-26 0 -45.5 18.5
t-19.5 44.5l24 154q5 28 22 45.5t44 17.5h92l10 54q12 70 37 127t53.5 92t66.5 60.5t67.5 37.5t65.5 18.5t51 7.5t32 1q56 0 102 -6q27 -2 46.5 -19t19.5 -43l-16 -131q-3 -27 -20.5 -45t-43.5 -18z" />
    <glyph glyph-name="uni0218" unicode="&#x218;" horiz-adv-x="1060" 
d="M653 -176l-86 -176q-7 -17 -25.5 -27t-39.5 -10h-137q-29 0 -47.5 19.5t-18.5 47.5l74 175q20 38 61 38h154q28 0 46.5 -19.5t18.5 -47.5zM72 172q-15 18 -15 41q0 38 31 59l115 86q22 15 47 15q16 0 39 -15q107 -100 248 -100q83 0 116 26.5t33 59.5q0 25 -26 45.5
t-69 35t-98 33.5t-112 38.5t-112 52t-98 72t-69 101t-26 136.5q0 39 11 81.5t42 91.5t77 86.5t124.5 63t177.5 25.5q105 0 194.5 -30t136.5 -64.5t83 -75.5q18 -22 18 -39q0 -29 -18 -47l-119 -94q-22 -16 -45 -16q-21 0 -47 22q-36 30 -76 44.5t-66.5 17t-72.5 2.5
q-48 0 -81.5 -22.5t-33.5 -59.5q0 -31 33.5 -56t87.5 -44t119 -40t130 -51.5t119 -70.5t87.5 -104t33.5 -146q0 -40 -14 -84.5t-49 -93t-86 -86.5t-133 -63t-183 -25q-90 0 -167 17.5t-131 47t-91 60.5t-65 67z" />
    <glyph glyph-name="uni0219" unicode="&#x219;" horiz-adv-x="837" 
d="M57 143q-12 15 -12 41t23 49l106 62q17 10 37 10q29 0 39 -12q24 -28 60 -44t60 -18l23 -2q84 0 84 33q0 19 -31 34t-77.5 26t-100.5 32t-100.5 49t-77.5 81t-31 124q0 111 97.5 197t267.5 86q158 0 281 -127q26 -26 26 -53q0 -37 -24 -58l-95 -55q-24 -16 -43 -16
q-17 0 -30 8q-61 49 -121 49q-17 0 -27.5 -1.5t-19.5 -9.5t-9 -22q0 -16 23 -29t60 -24.5t81.5 -25t89 -35t81.5 -50.5t60 -76.5t23 -107.5q0 -46 -24.5 -94t-71 -90.5t-124 -69.5t-171.5 -27q-203 0 -332 166zM516 -176l-86 -176q-7 -17 -25.5 -27t-39.5 -10h-138
q-29 0 -47 19.5t-18 47.5l74 175q20 38 61 38h154q28 0 46.5 -19.5t18.5 -47.5z" />
    <glyph glyph-name="uni021A" unicode="&#x21a;" horiz-adv-x="1118" 
d="M668 -176l-86 -176q-7 -17 -26 -27t-40 -10h-137q-29 0 -47.5 19.5t-18.5 47.5l74 175q20 38 62 38h153q28 0 47 -19.5t19 -47.5zM408 905h-283q-26 0 -46 19t-20 45v153q0 26 20 45t46 19h868q26 0 46 -19t20 -45v-153q0 -26 -20 -45t-46 -19h-282v-839q0 -26 -19 -46
t-45 -20h-176q-26 0 -44.5 19.5t-18.5 46.5v839z" />
    <glyph glyph-name="uni021B" unicode="&#x21b;" horiz-adv-x="759" 
d="M188 868v242q0 25 14.5 43t37.5 21l186 38q26 0 46 -19.5t20 -45.5v-279h133q26 0 45.5 -18.5t19.5 -44.5v-154q0 -26 -19.5 -44.5t-45.5 -18.5h-133v-240q0 -4 0.5 -10t5 -21.5t13 -27.5t28 -21.5t45.5 -9.5q16 0 43 2q24 0 42.5 -16t18.5 -39v-142q0 -23 -17 -40
t-40 -17q-55 -6 -125 -6q-18 0 -32.5 1t-49.5 7.5t-62.5 18.5t-62 38t-57 61t-38.5 92t-16 128v242h-86q-26 0 -45.5 18.5t-19.5 44.5v154q0 26 19.5 44.5t45.5 18.5h86zM561 -176l-86 -176q-7 -17 -25.5 -27t-39.5 -10h-138q-29 0 -47 19.5t-18 47.5l74 175q20 38 61 38
h154q28 0 46.5 -19.5t18.5 -47.5z" />
    <glyph glyph-name="circumflex" unicode="&#x2c6;" horiz-adv-x="798" 
d="M293 1186h213q19 0 34.5 -12.5t22.5 -28.5l125 -264q0 -27 -18 -45.5t-45 -18.5h-127q-40 0 -58 37l-41 92l-41 -92q-18 -37 -57 -37h-127q-27 0 -45 18.5t-18 45.5l125 264q7 16 22.5 28.5t34.5 12.5z" />
    <glyph glyph-name="caron" unicode="&#x2c7;" horiz-adv-x="798" 
d="M506 817h-213q-19 0 -34.5 12.5t-22.5 28.5l-125 264q0 27 18 45.5t45 18.5h127q39 0 57 -37l41 -92l41 92q18 37 58 37h127q27 0 45 -18.5t18 -45.5l-125 -264q-7 -16 -22.5 -28.5t-34.5 -12.5z" />
    <glyph glyph-name="breve" unicode="&#x2d8;" horiz-adv-x="1007" 
d="M504 799q-170 0 -273 84.5t-120 240.5q0 25 17.5 43.5t43.5 18.5h166q44 0 63 -62q20 -65 103 -65q82 0 102 65q19 62 64 62h166q26 0 43.5 -18.5t17.5 -43.5q-17 -156 -120 -240.5t-273 -84.5z" />
    <glyph glyph-name="dotaccent" unicode="&#x2d9;" horiz-adv-x="561" 
d="M111 1014q0 72 49.5 122t120.5 50t120.5 -50t49.5 -122q0 -70 -49.5 -120t-120.5 -50t-120.5 50t-49.5 120z" />
    <glyph glyph-name="ring" unicode="&#x2da;" horiz-adv-x="759" 
d="M381 1186q113 0 190.5 -77t77.5 -189q0 -114 -77.5 -192.5t-190.5 -78.5q-114 0 -192 78.5t-78 192.5q0 112 78 189t192 77zM381 842q31 0 52.5 23t21.5 55q0 30 -21.5 51.5t-52.5 21.5q-32 0 -55 -22t-23 -51q0 -32 23 -55t55 -23z" />
    <glyph glyph-name="ogonek" unicode="&#x2db;" horiz-adv-x="604" 
d="M455 -383q-13 -1 -47.5 -4.5t-57.5 -3.5q-19 0 -43.5 3.5t-60.5 15t-65 30t-49.5 53.5t-20.5 80q0 34 13.5 61.5t32.5 43t38.5 26t32.5 14.5l14 3v47q0 19 12 31t29 12h139q17 0 29 -12t12 -31v-99q0 -24 -29 -28l-49 -6q-4 -1 -10 -3t-15.5 -12t-9.5 -24q0 -37 53 -37
l52 8q17 0 28 -11.5t11 -27.5v-90q0 -16 -11.5 -26.5t-27.5 -12.5z" />
    <glyph glyph-name="tilde" unicode="&#x2dc;" horiz-adv-x="989" 
d="M649 834q-59 1 -113 23.5t-89 44.5t-50 22q-23 0 -30 -41q-9 -39 -58 -39h-137q-26 0 -43.5 18.5t-17.5 44.5q8 77 34.5 134t59 83.5t64 42t52.5 17.5l21 2q49 0 93.5 -14.5t69.5 -31.5t49.5 -31.5t39.5 -14.5q24 0 31 41q9 39 57 39h135q26 0 44 -19t18 -45
q-8 -77 -34.5 -133.5t-58.5 -82.5t-63.5 -41t-52.5 -17z" />
    <glyph glyph-name="hungarumlaut" unicode="&#x2dd;" horiz-adv-x="987" 
d="M479 1118l-88 -215q-8 -17 -24 -28t-35 -11h-156q-27 0 -46 20t-19 48l59 215q20 39 59 39h185q27 0 46 -20t19 -48zM877 1118l-89 -215q-8 -17 -24 -28t-35 -11h-156q-27 0 -46 20t-19 48l59 215q20 39 60 39h184q28 0 47 -20t19 -48z" />
    <glyph glyph-name="uni03A9" unicode="&#x3a9;" horiz-adv-x="1359" 
d="M680 1206q128 0 228 -48.5t161 -133t92 -194t31 -238.5q0 -155 -66 -311h58q26 0 45.5 -19t19.5 -45v-154q0 -26 -19.5 -44.5t-45.5 -18.5h-363q-26 0 -45.5 18.5t-19.5 44.5v177q0 28 24 49q55 44 81 128.5t26 178.5q0 64 -9 118t-31 104.5t-64.5 79t-102.5 28.5
t-102.5 -28.5t-64.5 -79t-31 -104.5t-9 -118q0 -94 26 -178.5t81 -128.5q24 -21 24 -49v-177q0 -26 -19.5 -44.5t-45.5 -18.5h-363q-26 0 -45.5 18.5t-19.5 44.5v154q0 26 19.5 45t45.5 19h57q-65 153 -65 311q0 129 31 238.5t92 194t161 133t228 48.5z" />
    <glyph glyph-name="pi" unicode="&#x3c0;" horiz-adv-x="1568" 
d="M1393 588h-197v-522q0 -27 -18.5 -46.5t-44.5 -19.5h-177q-26 0 -44.5 19.5t-18.5 46.5v522h-217v-522q0 -26 -19 -46t-45 -20h-176q-26 0 -44.5 19.5t-18.5 46.5v522h-197q-26 0 -45.5 18.5t-19.5 44.5v154q0 26 19.5 44.5t45.5 18.5h1217q26 0 45.5 -18.5t19.5 -44.5
v-154q0 -26 -19.5 -44.5t-45.5 -18.5z" />
    <glyph glyph-name="endash" unicode="&#x2013;" horiz-adv-x="851" 
d="M676 287h-500q-26 0 -45.5 18.5t-19.5 44.5v154q0 26 19.5 44.5t45.5 18.5h500q26 0 45.5 -18.5t19.5 -44.5v-154q0 -26 -19.5 -44.5t-45.5 -18.5z" />
    <glyph glyph-name="emdash" unicode="&#x2014;" horiz-adv-x="999" 
d="M823 287h-647q-26 0 -45.5 18.5t-19.5 44.5v154q0 26 19.5 44.5t45.5 18.5h647q27 0 46.5 -18.5t19.5 -44.5v-154q0 -26 -19.5 -44.5t-46.5 -18.5z" />
    <glyph glyph-name="quoteleft" unicode="&#x2018;" horiz-adv-x="624" 
d="M111 864l122 303q7 17 24 28t36 11h156q28 0 46.5 -19.5t18.5 -47.5l-94 -303q-20 -39 -60 -39h-184q-28 0 -46.5 19.5t-18.5 47.5z" />
    <glyph glyph-name="quoteright" unicode="&#x2019;" horiz-adv-x="624" 
d="M514 1139l-123 -303q-8 -17 -24 -28t-35 -11h-156q-28 0 -46.5 19.5t-18.5 47.5l94 303q20 39 59 39h185q28 0 46.5 -19.5t18.5 -47.5z" />
    <glyph glyph-name="quotesinglbase" unicode="&#x201a;" horiz-adv-x="624" 
d="M514 139l-123 -303q-8 -17 -24 -28t-35 -11h-156q-27 0 -46 20t-19 48l94 303q20 39 59 39h185q27 0 46 -20t19 -48z" />
    <glyph glyph-name="quotedblleft" unicode="&#x201c;" horiz-adv-x="1017" 
d="M111 864l122 303q7 17 24 28t36 11h156q28 0 46.5 -19.5t18.5 -47.5l-94 -303q-20 -39 -60 -39h-184q-28 0 -46.5 19.5t-18.5 47.5zM504 864l123 303q8 17 24 28t35 11h156q28 0 46.5 -19.5t18.5 -47.5l-94 -303q-20 -39 -59 -39h-185q-28 0 -46.5 19.5t-18.5 47.5z" />
    <glyph glyph-name="quotedblright" unicode="&#x201d;" horiz-adv-x="1017" 
d="M907 1139l-123 -303q-8 -17 -24 -28t-35 -11h-156q-28 0 -46.5 19.5t-18.5 47.5l94 303q20 39 59 39h185q28 0 46.5 -19.5t18.5 -47.5zM514 1139l-123 -303q-8 -17 -24 -28t-35 -11h-156q-28 0 -46.5 19.5t-18.5 47.5l94 303q20 39 59 39h185q28 0 46.5 -19.5t18.5 -47.5
z" />
    <glyph glyph-name="quotedblbase" unicode="&#x201e;" horiz-adv-x="1017" 
d="M907 139l-123 -303q-8 -17 -24 -28t-35 -11h-156q-27 0 -46 20t-19 48l94 303q20 39 59 39h185q27 0 46 -20t19 -48zM514 139l-123 -303q-8 -17 -24 -28t-35 -11h-156q-27 0 -46 20t-19 48l94 303q20 39 59 39h185q27 0 46 -20t19 -48z" />
    <glyph glyph-name="dagger" unicode="&#x2020;" horiz-adv-x="954" 
d="M778 633h-149v-850q0 -26 -19 -46t-45 -20h-176q-26 0 -44.5 19.5t-18.5 46.5v850h-150q-26 0 -45.5 18.5t-19.5 44.5v154q0 26 19.5 44.5t45.5 18.5h150v207q0 27 18.5 46.5t44.5 19.5h176q26 0 45 -20t19 -46v-207h149q27 0 46.5 -18.5t19.5 -44.5v-154
q0 -26 -19.5 -44.5t-46.5 -18.5z" />
    <glyph glyph-name="daggerdbl" unicode="&#x2021;" horiz-adv-x="954" 
d="M778 0h-149v-217q0 -26 -19 -46t-45 -20h-176q-26 0 -44.5 19.5t-18.5 46.5v217h-150q-26 0 -45.5 18.5t-19.5 44.5v154q0 26 19.5 45t45.5 19h150v352h-150q-26 0 -45.5 18.5t-19.5 44.5v154q0 26 19.5 44.5t45.5 18.5h150v207q0 27 18.5 46.5t44.5 19.5h176
q26 0 45 -20t19 -46v-207h149q27 0 46.5 -18.5t19.5 -44.5v-154q0 -26 -19.5 -44.5t-46.5 -18.5h-149v-352h149q26 0 46 -19t20 -45v-154q0 -26 -19.5 -44.5t-46.5 -18.5z" />
    <glyph glyph-name="bullet" unicode="&#x2022;" horiz-adv-x="561" 
d="M111 440q0 71 49 120.5t121 49.5q71 0 120.5 -50t49.5 -120q0 -72 -49.5 -122t-120.5 -50q-72 0 -121 50t-49 122z" />
    <glyph glyph-name="ellipsis" unicode="&#x2026;" horiz-adv-x="1681" 
d="M111 147q0 72 49.5 122t120.5 50q72 0 122 -50t50 -122q0 -71 -50 -120.5t-122 -49.5q-71 0 -120.5 49.5t-49.5 120.5zM672 147q0 72 49.5 122t120.5 50t120.5 -50t49.5 -122q0 -71 -50 -120.5t-120 -49.5t-120 49.5t-50 120.5zM1231 147q0 72 49.5 122t120.5 50
t120.5 -50t49.5 -122q0 -71 -49.5 -120.5t-120.5 -49.5t-120.5 49.5t-49.5 120.5z" />
    <glyph glyph-name="perthousand" unicode="&#x2030;" horiz-adv-x="2072" 
d="M1092 514q113 0 190.5 -77t77.5 -189q0 -114 -77.5 -192.5t-190.5 -78.5q-114 0 -192.5 78.5t-78.5 192.5q0 112 78.5 189t192.5 77zM1092 188q24 0 40.5 17t16.5 43q0 23 -17 40t-40 17q-26 0 -43 -16.5t-17 -40.5q0 -26 17 -43t43 -17zM381 1186q113 0 190.5 -77
t77.5 -189q0 -114 -77.5 -192.5t-190.5 -78.5q-114 0 -192 78.5t-78 192.5q0 112 78 189t192 77zM381 860q24 0 40.5 17t16.5 43q0 23 -17 40t-40 17q-26 0 -42.5 -16.5t-16.5 -40.5q0 -26 16.5 -43t42.5 -17zM322 61l612 1092q18 33 55 33h127q26 0 43 -18t17 -44
l-613 -1091q-18 -33 -55 -33h-127q-26 0 -42.5 17.5t-16.5 43.5zM1694 514q113 0 190.5 -77t77.5 -189q0 -114 -77.5 -192.5t-190.5 -78.5q-114 0 -192.5 78.5t-78.5 192.5q0 112 78.5 189t192.5 77zM1694 188q24 0 40.5 17t16.5 43q0 23 -17 40t-40 17q-26 0 -43 -16.5
t-17 -40.5q0 -26 17 -43t43 -17z" />
    <glyph glyph-name="guilsinglleft" unicode="&#x2039;" horiz-adv-x="845" 
d="M666 84l-512 211q-43 21 -43 65v197q0 45 43 66l512 206q29 0 49 -19t20 -48v-146q0 -45 -41 -61l-245 -98l245 -99q41 -16 41 -61v-145q0 -29 -20 -48.5t-49 -19.5z" />
    <glyph glyph-name="guilsinglright" unicode="&#x203a;" horiz-adv-x="845" 
d="M692 295l-512 -211q-29 0 -49 19.5t-20 48.5v145q0 45 41 61l245 99l-245 98q-41 16 -41 61v146q0 29 20 48t49 19l512 -206q43 -21 43 -66v-197q0 -44 -43 -65z" />
    <glyph glyph-name="fraction" unicode="&#x2044;" horiz-adv-x="1200" 
d="M111 -240l682 1680q12 35 53 35h182q26 0 44 -18.5t18 -43.5l-682 -1679q-12 -35 -54 -35h-182q-26 0 -43.5 18t-17.5 43z" />
    <glyph glyph-name="euro" unicode="&#x20ac;" horiz-adv-x="1538" 
d="M655 340h-37q88 -82 209 -82q90 0 165 48t114 126q18 35 53 35h203q26 0 44.5 -18t20.5 -43q-61 -190 -224.5 -309.5t-375.5 -119.5q-192 0 -346 99.5t-229 263.5h-92q-20 0 -34.5 14t-14.5 33v113q0 20 14.5 33.5t34.5 13.5h41q-2 14 -2 45q0 27 2 41h-41
q-20 0 -34.5 14t-14.5 33v113q0 20 14.5 33.5t34.5 13.5h90q73 165 228 265.5t349 100.5q212 0 375.5 -119t224.5 -309q-2 -25 -20.5 -43t-44.5 -18h-203q-35 0 -53 35q-39 78 -114 126t-165 48q-124 0 -213 -86h41q21 0 35.5 -13.5t14.5 -33.5v-113q0 -19 -15 -33t-35 -14
h-143q-2 -14 -2 -41q0 -31 2 -45h143q21 0 35.5 -13.5t14.5 -33.5v-113q0 -19 -15 -33t-35 -14z" />
    <glyph glyph-name="uni2116" unicode="&#x2116;" horiz-adv-x="2330" 
d="M850 25l-436 591v-550q0 -26 -19 -46t-45 -20h-176q-26 0 -44.5 19.5t-18.5 46.5v1054q0 27 18.5 46.5t44.5 19.5h184q29 0 50 -25l454 -616v575q0 26 19 46t45 20h176q26 0 44.5 -19.5t18.5 -46.5v-1054q0 -27 -18.5 -46.5t-44.5 -19.5h-203q-28 0 -49 25zM1743 1186
q199 0 338 -134t139 -323t-139 -323t-338 -134t-338 134t-139 323t139 323t338 134zM1743 553q74 0 124 50.5t50 125.5t-50 125.5t-124 50.5t-124 -50.5t-50 -125.5t50 -125.5t124 -50.5zM1993 -23h-500q-26 0 -46 19t-20 45v113q0 26 19.5 44.5t46.5 18.5h500
q26 0 45.5 -18.5t19.5 -44.5v-113q0 -26 -19.5 -45t-45.5 -19z" />
    <glyph glyph-name="trademark" unicode="&#x2122;" horiz-adv-x="1341" 
d="M244 696v297h-97q-15 0 -25.5 11t-10.5 26v119q0 15 10.5 26t25.5 11h371q15 0 26 -11t11 -26v-119q0 -15 -11 -26t-26 -11h-92v-297q0 -15 -11 -26t-26 -11h-108q-15 0 -26 11t-11 26zM932 752h-12q-9 0 -15 6l-102 106v-168q0 -15 -11 -26t-26 -11h-109q-15 0 -25.5 11
t-10.5 26v453q0 15 10.5 26t25.5 11h105q18 0 29 -15l135 -163l135 163q11 15 29 15h104q15 0 26 -11t11 -26v-453q0 -15 -11 -26t-26 -11h-109q-15 0 -25.5 11t-10.5 26v168l-103 -106q-6 -6 -14 -6z" />
    <glyph glyph-name="Omega" unicode="&#x2126;" horiz-adv-x="1359" 
d="M680 1206q128 0 228 -48.5t161 -133t92 -194t31 -238.5q0 -155 -66 -311h58q26 0 45.5 -19t19.5 -45v-154q0 -26 -19.5 -44.5t-45.5 -18.5h-363q-26 0 -45.5 18.5t-19.5 44.5v177q0 28 24 49q55 44 81 128.5t26 178.5q0 64 -9 118t-31 104.5t-64.5 79t-102.5 28.5
t-102.5 -28.5t-64.5 -79t-31 -104.5t-9 -118q0 -94 26 -178.5t81 -128.5q24 -21 24 -49v-177q0 -26 -19.5 -44.5t-45.5 -18.5h-363q-26 0 -45.5 18.5t-19.5 44.5v154q0 26 19.5 45t45.5 19h57q-65 153 -65 311q0 129 31 238.5t92 194t161 133t228 48.5z" />
    <glyph glyph-name="partialdiff" unicode="&#x2202;" horiz-adv-x="1200" 
d="M598 258q188 0 188 127q0 68 -50.5 94.5t-137.5 26.5q-184 0 -184 -121q0 -127 184 -127zM297 1128q140 78 315 78q132 0 240.5 -53.5t173 -152.5t64.5 -224v-710q0 -26 -19 -46t-45 -20h-176q-26 0 -45 21.5t-19 48.5q-93 -93 -249 -93q-190 0 -308 109.5t-118 298.5
q0 187 118 294t308 107q161 0 249 -69v63q0 50 -33 85.5t-71.5 48t-73.5 12.5q-135 0 -235 -56q-43 0 -56 37l-51 146q-4 8 -4 18q0 39 35 57z" />
    <glyph glyph-name="Delta" unicode="&#x2206;" horiz-adv-x="1427" 
d="M713 793l-207 -510h414zM1253 0h-1079q-26 0 -44.5 19.5t-18.5 46.5l436 1075q17 45 63 45h205q47 0 64 -45l438 -1075q0 -26 -19 -46t-45 -20z" />
    <glyph glyph-name="product" unicode="&#x220f;" horiz-adv-x="1568" 
d="M1393 905h-197v-839q0 -27 -18.5 -46.5t-44.5 -19.5h-177q-26 0 -44.5 19.5t-18.5 46.5v839h-217v-839q0 -26 -19 -46t-45 -20h-176q-26 0 -44.5 19.5t-18.5 46.5v839h-197q-26 0 -45.5 19t-19.5 45v153q0 26 19.5 45t45.5 19h1217q26 0 45.5 -19t19.5 -45v-153
q0 -26 -19.5 -45t-45.5 -19z" />
    <glyph glyph-name="summation" unicode="&#x2211;" horiz-adv-x="1038" 
d="M291 594q0 20 -10 37l-164 301q-6 10 -6 31v159q0 26 19.5 45t45.5 19h686q26 0 46 -19t20 -45v-153q0 -26 -20 -45t-46 -19h-407l149 -274q10 -17 10 -37t-10 -37l-149 -276h407q26 0 46 -19t20 -45v-154q0 -26 -19.5 -44.5t-46.5 -18.5h-686q-26 0 -45.5 18.5
t-19.5 44.5v160q0 21 6 31l164 303q10 17 10 37z" />
    <glyph glyph-name="minus" unicode="&#x2212;" horiz-adv-x="851" 
d="M676 287h-500q-26 0 -45.5 18.5t-19.5 44.5v154q0 26 19.5 44.5t45.5 18.5h500q26 0 45.5 -18.5t19.5 -44.5v-154q0 -26 -19.5 -44.5t-45.5 -18.5z" />
    <glyph glyph-name="radical" unicode="&#x221a;" horiz-adv-x="1425" 
d="M1249 905h-235l-332 -864q-8 -18 -25.5 -29.5t-38.5 -11.5h-192q-21 0 -38.5 11.5t-25.5 29.5l-251 614q0 27 18.5 46.5t44.5 19.5h195q20 0 36.5 -12t22.5 -31l94 -279l256 744q6 19 23 31t37 12h411q26 0 46 -19t20 -45v-153q0 -26 -20 -45t-46 -19z" />
    <glyph glyph-name="infinity" unicode="&#x221e;" horiz-adv-x="1765" 
d="M748 508q-77 86 -209 86q-50 0 -87.5 -21t-37.5 -67q0 -45 40.5 -65.5t94.5 -20.5t109.5 25t89.5 63zM883 289q-138 -150 -344 -150q-199 0 -313.5 96.5t-114.5 268.5q0 177 114 273.5t314 96.5q209 0 344 -149q135 149 344 149q200 0 314 -96.5t114 -273.5
q0 -172 -114.5 -268.5t-313.5 -96.5q-206 0 -344 150zM1018 508q34 -38 89.5 -63t109.5 -25t94.5 20.5t40.5 65.5q0 46 -37.5 67t-87.5 21q-132 0 -209 -86z" />
    <glyph glyph-name="integral" unicode="&#x222b;" horiz-adv-x="913" 
d="M745 1200q22 0 40 -17t18 -40v-142q0 -23 -18 -40t-42 -17l-45 4q-26 -1 -44.5 -10.5t-27 -22.5t-13 -26t-5.5 -22v-9v-854q0 -71 -15.5 -128t-38.5 -92t-56.5 -61t-61 -38t-62 -18.5t-49.5 -7.5t-32 -1q-70 0 -125 6q-22 0 -39.5 17t-17.5 40v142q0 23 18 40t41 17
l45 -4q26 1 44.5 10.5t27 22.5t13 26t4.5 22l1 9v854q0 71 15.5 128t38.5 92t57 61t61.5 38t62 18.5t49.5 7.5t32 1q69 0 124 -6z" />
    <glyph glyph-name="approxequal" unicode="&#x2248;" horiz-adv-x="989" 
d="M649 416q-59 1 -113 23.5t-89 44.5t-50 22q-23 0 -30 -41q-9 -39 -58 -39h-137q-26 0 -43.5 18.5t-17.5 44.5q8 77 34.5 134t59 83.5t64 42t52.5 17.5l21 2q49 0 93.5 -14.5t69.5 -31.5t49.5 -31.5t39.5 -14.5q24 0 31 41q9 39 57 39h135q26 0 44 -19t18 -45
q-8 -77 -34.5 -133.5t-58.5 -82.5t-63.5 -41t-52.5 -17zM649 27q-59 1 -113 23.5t-89 44.5t-50 22q-23 0 -30 -41q-9 -39 -58 -39h-137q-26 0 -43.5 18.5t-17.5 44.5q8 77 34.5 134t59 83.5t64 42t52.5 17.5l21 2q49 0 93.5 -14.5t69.5 -31.5t49.5 -31.5t39.5 -14.5
q24 0 31 41q9 39 57 39h135q26 0 44 -19t18 -45q-8 -77 -34.5 -133.5t-58.5 -82.5t-63.5 -41t-52.5 -17z" />
    <glyph glyph-name="notequal" unicode="&#x2260;" horiz-adv-x="851" 
d="M676 451h-117l-14 -54h131q26 0 45.5 -18.5t19.5 -44.5v-154q0 -26 -19.5 -44.5t-45.5 -18.5h-215l-25 -86q-12 -31 -49 -31h-162q-23 0 -39 16.5t-16 38.5l18 62h-12q-26 0 -45.5 18.5t-19.5 44.5v154q0 26 19.5 44.5t45.5 18.5h94l17 54h-111q-26 0 -45.5 18.5
t-19.5 44.5v154q0 26 19.5 44.5t45.5 18.5h193l26 86q12 31 49 31h162q23 0 39.5 -15.5t16.5 -37.5l-19 -64h33q26 0 45.5 -18.5t19.5 -44.5v-154q0 -26 -19.5 -44.5t-45.5 -18.5z" />
    <glyph glyph-name="lessequal" unicode="&#x2264;" horiz-adv-x="847" 
d="M666 303l-512 211q-43 21 -43 66v172q0 44 43 65l512 207q29 0 49 -19.5t20 -48.5v-133q0 -45 -41 -61l-245 -98l245 -99q41 -16 41 -61v-133q0 -29 -20 -48.5t-49 -19.5zM672 0h-496q-26 0 -45.5 18.5t-19.5 44.5v103q0 26 19.5 44.5t45.5 18.5h496q26 0 45.5 -18.5
t19.5 -44.5v-103q0 -26 -19.5 -44.5t-45.5 -18.5z" />
    <glyph glyph-name="greaterequal" unicode="&#x2265;" horiz-adv-x="847" 
d="M694 514l-512 -211q-29 0 -49 19.5t-20 48.5v133q0 45 41 61l245 99l-245 98q-41 16 -41 61v133q0 29 20 48.5t49 19.5l512 -207q43 -21 43 -65v-172q0 -45 -43 -66zM672 0h-496q-26 0 -45.5 18.5t-19.5 44.5v103q0 26 19.5 44.5t45.5 18.5h496q26 0 45.5 -18.5
t19.5 -44.5v-103q0 -26 -19.5 -44.5t-45.5 -18.5z" />
    <glyph glyph-name="lozenge" unicode="&#x25ca;" horiz-adv-x="1232" 
d="M616 330l160 262q-32 49 -83 134.5t-77 127.5q-31 -50 -86 -141t-73 -121q31 -49 81.5 -134t77.5 -128zM780 1151l330 -518q12 -18 12 -41q0 -26 -10 -41l-332 -516q-21 -35 -61 -35h-207q-40 0 -61 35l-330 516q-10 15 -10 41q0 23 12 41l328 518q21 35 61 35h207
q40 0 61 -35z" />
    <glyph glyph-name="NULL" horiz-adv-x="0" 
 />
    <glyph glyph-name="superstore" horiz-adv-x="1255" 
d="M625 1034q107 0 203 -41t165.5 -110.5t110.5 -165.5t41 -203q0 -139 -69 -257.5t-189 -187.5t-262 -69q-139 0 -257.5 69t-187.5 187.5t-69 257.5q0 142 69 262t187.5 189t257.5 69zM844 184q65 0 65 56q0 33 -11.5 47t-37.5 14v272q0 88 -65 146q12 4 39 4q26 0 38 -4
h23v133q-149 -18 -236 -66q-31 5 -75 5q-102 0 -181 -29v-129h13q105 33 155 33q28 0 46 -1.5t46.5 -9t44 -27t15.5 -50.5l-168 -17q-43 -4 -75 -12t-65 -27.5t-51 -57t-18 -91.5q0 -85 58.5 -137t150.5 -52q61 0 88 6v111l-12 8q-18 -8 -47 -8q-37 0 -64.5 21t-27.5 63
q0 33 37 45.5t194 38.5v-145q0 -77 21.5 -108.5t80.5 -31.5h19z" />
    </font>
</defs>
</svg>
